<?xml version="1.0" encoding="utf-8"?>
<!-- Generator: Adobe Illustrator 21.1.0, SVG Export Plug-In . SVG Version: 6.00 Build 0)  -->
<svg version="1.1" id="圖層_1" xmlns="http://www.w3.org/2000/svg" xmlns:xlink="http://www.w3.org/1999/xlink" x="0px" y="0px"
	 viewBox="0 0 156.3 156.6" style="enable-background:new 0 0 156.3 156.6;" xml:space="preserve">
<style type="text/css">
	.st0{fill:#79852F;}
</style>
<g>
	<path class="st0" d="M153.1,97.7c0-0.1,0-0.1,0-0.2c0-0.1,0-0.2,0-0.3c0-0.1,0-0.2-0.1-0.2c-0.6-23.3-20.1-42.3-43.4-42.3
		c-8.1,0-15.9,2.3-22.5,6.4c-5.9-17.3-22.3-29.2-40.8-29.2c-11.3,0-22,4.4-30.1,12.3C8.1,52.1,3.5,62.6,3.3,73.9
		c0,0-0.1,0.1-0.1,0.1c0,0.1,0,0.2,0,0.3c0,0.1,0,0.2,0,0.2s0,0.2,0,0.2c0,0.1,0,0.2,0,0.3c0,0,0,0.1,0,0.1
		c0.3,11.3,4.9,21.8,13,29.7c8.1,8,18.8,12.3,30.1,12.3c8,0,15.6-2.2,22.1-6.2c5.9,17.6,22.5,29.7,41.2,29.7
		c23.3,0,42.8-18.9,43.4-42.3c0-0.1,0.1-0.2,0.1-0.3c0-0.1,0-0.2,0-0.3C153.1,97.9,153.1,97.8,153.1,97.7z M109.7,122.3
		c-4.9,0-9.6-1.4-13.8-4.2l-24.5-9c7.9-5.6,13.9-13.8,16.6-23.6c0-0.1,0-0.2-0.1-0.2c-0.1-0.1-0.2-0.1-0.2,0l-27.3,10
		c-4.1,2.7-9,4.2-13.9,4.2c-13.7,0-25.1-11.2-25.4-24.9c0.3-13.7,11.7-24.9,25.4-24.9c5,0,9.8,1.4,14,4.2l24.3,8.9
		c-8,5.7-14.1,14-16.8,23.9c-0.1,0.2,0,0.4,0.2,0.6c0.2,0.1,0.4,0.2,0.6,0.1l27.4-10c4.1-2.7,8.8-4.1,13.7-4.1
		c13.5,0,24.8,11,25,24.6C134.4,111.3,123.2,122.3,109.7,122.3z"/>
	<path class="st0" d="M65.5,119.3c-0.2-0.1-0.5-0.2-0.7-0.2c-0.4,0-0.7,0.2-1,0.4c-0.1,0.1-12.2,12.9-37.6,12.9
		c-6.5,0-13.5-0.8-20.6-2.5c-0.1,0-0.2,0-0.3,0c-0.5,0-0.9,0.2-1.2,0.6c-0.3,0.5-0.3,1.1,0.1,1.6L21,152.5c0.2,0.2,0.5,0.4,0.8,0.5
		c0.1,0,1.9,0.4,4.8,0.4c7.9,0,27.6-3.2,39.4-32.4C66.3,120.3,66,119.6,65.5,119.3z"/>
	<path class="st0" d="M90.7,54.7c0.1,0,0.1,0,0.2,0c0.7-0.1,1.2-0.6,1.2-1.3c0-0.2,1.7-24.8,38.3-42.2c0.5-0.3,0.8-0.8,0.8-1.4
		c-0.1-0.6-0.5-1.1-1.1-1.2l-25.8-5.4c-0.1,0-0.2,0-0.3,0c-0.2,0-0.4,0-0.5,0.1c-0.3,0.1-6.7,2.8-11.6,10.5c-4.5,7-8.6,19.6-2.5,40
		C89.6,54.3,90.1,54.7,90.7,54.7z"/>
</g>
</svg>
