<?xml version="1.0" encoding="utf-8"?>
<!-- Generator: Adobe Illustrator 21.1.0, SVG Export Plug-In . SVG Version: 6.00 Build 0)  -->
<svg version="1.1" id="圖層_1" xmlns="http://www.w3.org/2000/svg" xmlns:xlink="http://www.w3.org/1999/xlink" x="0px" y="0px"
	 viewBox="0 0 60.9 60" style="enable-background:new 0 0 60.9 60;" xml:space="preserve">
<style type="text/css">
	.st0{fill:#76842F;stroke:#FFFFFF;stroke-miterlimit:10;}
	.st1{fill:#79852F;}
	.st2{fill:#3D3D3B;stroke:#000000;stroke-width:2;stroke-miterlimit:10;}
	.st3{fill:#748130;}
	.st4{fill:#FFFFFF;}
</style>
<g>
	<path class="st0" d="M56.3,17.4C56,10.9,52.4,6.1,46.9,4.8c-3.2-0.8-6.6-0.2-9.6,1.4c-2.6,1.3-5,3.4-6.8,6.6
		c-1.8-3.2-4.2-5.3-6.8-6.6c-3-1.6-6.3-2.1-9.6-1.4c-5.5,1.3-9.1,6.1-9.5,12.6c0,0.4,0,0.7,0,1.1c0,0.4,0,0.9,0.1,1.4
		c0,0.1,0,0.2,0.1,0.4c0,0.4,0.1,0.8,0.2,1.2c0,0.1,0,0.2,0.1,0.3c0.1,0.4,0.2,0.8,0.2,1.2c0.1,0.2,0.1,0.4,0.1,0.6
		c0.1,0.2,0.1,0.5,0.2,0.7c0.3,1,0.6,1.9,1,2.9c0,0.1,0.1,0.1,0.1,0.1C12.4,41.1,29.2,54.7,30,55.4c0.1,0.1,0.3,0.2,0.4,0.2
		c0.2,0,0.3-0.1,0.4-0.2c0.9-0.7,17.7-14.4,23.5-28.2c0-0.1,0.1-0.1,0.1-0.1c0.4-1,0.7-1.9,1-2.9c0.1-0.2,0.1-0.5,0.2-0.7
		c0.1-0.2,0.1-0.4,0.1-0.6c0.1-0.4,0.2-0.8,0.2-1.2c0-0.1,0-0.2,0.1-0.3c0.1-0.4,0.1-0.8,0.2-1.2c0-0.1,0-0.2,0-0.4
		c0.1-0.4,0.1-0.9,0.1-1.4C56.4,18.1,56.4,17.7,56.3,17.4z M54.8,20.2c0,0.2-0.1,0.3-0.1,0.5c-0.1,0.5-0.1,1-0.2,1.5
		c0,0.1-0.1,0.2-0.1,0.4c-0.1,0.6-0.3,1.2-0.5,1.8c-0.1,0.2-0.1,0.4-0.2,0.6c-0.2,0.5-0.4,1-0.6,1.5c-0.1,0.2-0.1,0.3-0.2,0.5
		c-0.2,0.6-0.5,1.2-0.8,1.8c-0.1,0.2-0.3,0.5-0.4,0.8c-0.3,0.6-0.6,1.1-0.9,1.7c-0.2,0.3-0.4,0.6-0.5,0.9c-0.2,0.4-0.5,0.8-0.7,1.2
		c-0.3,0.5-0.6,0.9-0.9,1.4c-0.2,0.4-0.5,0.7-0.7,1.1c-6.5,9-15.3,16.6-17.4,18.3c-2.1-1.7-10.9-9.4-17.4-18.3
		c-0.3-0.4-0.5-0.7-0.7-1.1c-0.3-0.5-0.6-0.9-0.9-1.4c-0.3-0.4-0.5-0.8-0.7-1.2c-0.2-0.3-0.4-0.6-0.5-0.9c-0.3-0.6-0.6-1.1-0.9-1.7
		c-0.1-0.3-0.3-0.5-0.4-0.8c-0.3-0.6-0.6-1.2-0.8-1.8c-0.1-0.2-0.1-0.3-0.2-0.5c-0.2-0.5-0.4-1-0.6-1.5C7.1,24.7,7,24.5,7,24.3
		c-0.2-0.6-0.4-1.2-0.5-1.8c0-0.1-0.1-0.2-0.1-0.4c-0.1-0.5-0.2-1-0.3-1.5c0-0.2-0.1-0.3-0.1-0.5C6,19.6,5.9,19,5.9,18.5
		c0-6.5,3.2-11,8.5-12.2c2.6-0.6,5.7-0.2,8.6,1.2c2.9,1.7,5.3,4.3,6.7,7.1c0.1,0.1,0.1,0.2,0.2,0.3l0,0c0.1,0.1,0.2,0.1,0.4,0.1l0,0
		l0,0l0,0c0.1,0,0.2-0.1,0.4-0.1l0,0c0.1-0.1,0.2-0.2,0.2-0.3c1.4-2.8,3.7-5.5,6.7-7.1c2.9-1.5,6-1.8,8.6-1.2
		c5.3,1.2,8.5,5.8,8.5,12.2C54.9,19,54.9,19.6,54.8,20.2z"/>
	<path class="st0" d="M54.9,18.5c0,0.6-0.1,1.1-0.1,1.7c0,0.2-0.1,0.3-0.1,0.5c-0.1,0.5-0.1,1-0.2,1.5c0,0.1-0.1,0.2-0.1,0.4
		c-0.1,0.6-0.3,1.2-0.5,1.8c-0.1,0.2-0.1,0.4-0.2,0.6c-0.2,0.5-0.4,1-0.6,1.5c-0.1,0.2-0.1,0.3-0.2,0.5c-0.2,0.6-0.5,1.2-0.8,1.8
		c-0.1,0.2-0.3,0.5-0.4,0.8c-0.3,0.6-0.6,1.1-0.9,1.7c-0.2,0.3-0.4,0.6-0.5,0.9c-0.2,0.4-0.5,0.8-0.7,1.2c-0.3,0.5-0.6,0.9-0.9,1.4
		c-0.2,0.4-0.5,0.7-0.7,1.1c-6.5,9-15.3,16.6-17.4,18.3c-2.1-1.7-10.9-9.4-17.4-18.3c-0.3-0.4-0.5-0.7-0.7-1.1
		c-0.3-0.5-0.6-0.9-0.9-1.4c-0.3-0.4-0.5-0.8-0.7-1.2c-0.2-0.3-0.4-0.6-0.5-0.9c-0.3-0.6-0.6-1.1-0.9-1.7c-0.1-0.3-0.3-0.5-0.4-0.8
		c-0.3-0.6-0.6-1.2-0.8-1.8c-0.1-0.2-0.1-0.3-0.2-0.5c-0.2-0.5-0.4-1-0.6-1.5C7,24.7,7,24.5,6.9,24.3c-0.2-0.6-0.4-1.2-0.5-1.8
		c0-0.1-0.1-0.2-0.1-0.4c-0.1-0.5-0.2-1-0.3-1.5C6,20.5,6,20.4,6,20.2C6,19.6,5.9,19,5.9,18.5c0-6.5,3.2-11,8.5-12.2
		C17,5.7,20.2,6,23.1,7.5c2.9,1.7,5.3,4.3,6.7,7.1c0.1,0.1,0.1,0.2,0.2,0.3l0,0c0.1,0.1,0.2,0.1,0.4,0.1l0,0l0,0l0,0
		c0.1,0,0.2-0.1,0.4-0.1l0,0c0.1-0.1,0.2-0.2,0.2-0.3c1.4-2.8,3.7-5.5,6.7-7.1c2.9-1.5,6-1.8,8.6-1.2C51.7,7.5,54.9,12.1,54.9,18.5z
		"/>
</g>
<g>
	<path class="st1" d="M89.5-858.6c0-0.3,0-0.6,0.1-0.9c0-0.5,0.1-0.9,0.1-1.4c0-0.4-0.1-0.8-0.3-1.1
		c-3.1-111.7-96.1-202.4-207.8-202.4c-39,0-76.1,11.2-107.9,30.7c-28.3-83-106.7-140-195-140c-54.2,0-105.4,20.9-144.2,59
		c-38.6,37.8-60.6,88.3-61.9,142.1c-0.2,0.2-0.3,0.4-0.3,0.7c0,0.4,0,0.8,0,1.3c0,0.4,0.1,0.7,0.1,1.1c0,0.4,0,0.7-0.1,1.1
		c0,0.4,0,0.8,0,1.2c0,0.2,0.1,0.4,0.2,0.6c1.4,53.9,23.4,104.3,62,142.2c38.8,38,90,59,144.2,59c38.3,0,74.7-10.9,106-29.8
		c28.1,84.3,107.5,142.4,196.9,142.4c111.7,0,204.7-90.6,207.8-202.2c0.2-0.4,0.3-0.8,0.3-1.2c0-0.5,0-0.9-0.1-1.4
		C89.5-858,89.5-858.3,89.5-858.6z M-118.4-741c-23.4,0-46.1-6.8-66.2-20L-302-804c37.7-26.9,66.4-66.1,79.4-112.9
		c0.1-0.4,0-0.8-0.3-1.1s-0.7-0.4-1.1-0.2l-130.6,47.9c-19.8,13.1-42.8,20-66.6,20c-65.7,0-120.2-53.5-121.5-119.2
		c1.3-65.8,55.7-119.3,121.5-119.3c23.7,0,46.7,6.9,66.8,20.1l116.6,42.7c-38.3,27.1-67.6,66.9-80.7,114.3c-0.3,1,0,2,0.8,2.7
		c0.7,0.7,1.9,0.9,2.8,0.6l131-48.1c19.5-12.9,42.2-19.7,65.7-19.7c64.8,0,118.6,52.8,119.8,117.6C0.2-793.8-53.6-741-118.4-741z"/>
	<path class="st1" d="M-333.3-756.5c-1.8,0-3.5,0.7-4.8,2.1c-0.6,0.6-58.2,61.8-179.7,61.8c-31.2,0-64.4-4-98.6-12
		c-0.5-0.1-1-0.2-1.5-0.2c-2.2,0-4.3,1.1-5.5,3.1c-1.5,2.4-1.3,5.4,0.5,7.6l80.4,97.4c0.9,1.1,2.2,1.9,3.6,2.2c0.4,0.1,9.1,2,23.1,2
		c37.9,0,132.1-15.1,188.5-155c1.2-2.9,0.1-6.3-2.6-7.9C-330.9-756.2-332.1-756.5-333.3-756.5z"/>
	<path class="st1" d="M-209.1-1064.4c0.3,0,0.5,0,0.8,0c3.1-0.4,5.6-3,5.7-6.1c0.1-1.2,8.2-118.5,183.5-202.1c2.5-1.2,4-3.9,3.7-6.7
		c-0.3-2.8-2.4-5-5.1-5.6l-123.6-25.9c-0.4-0.1-0.9-0.1-1.3-0.1c-0.8,0-1.7,0.2-2.5,0.5c-1.3,0.5-31.9,13.4-55.5,50
		c-21.5,33.4-41.1,93.6-11.8,191.4C-214.5-1066.2-211.9-1064.4-209.1-1064.4z"/>
</g>
<g>
	<g>
		<path class="st2" d="M1234.4-76.2h-141.8l-10.4-51.3c-0.3-1.4-1.5-2.3-2.8-2.3h-55c-1.6,0-2.9,1.3-2.9,2.9c0,1.6,1.3,2.9,2.9,2.9
			h52.7l25.5,126.3V57c0,1.6,1.3,2.9,2.9,2.9h76c1.6,0,2.9-1.3,2.9-2.9c0-1.6-1.3-2.9-2.9-2.9h-73.1V4.9h78.2h0.8
			c1,0,1.9-0.5,2.5-1.4l47-75.3c0.6-0.9,0.6-2,0.1-2.9C1236.5-75.6,1235.5-76.2,1234.4-76.2z M1093.8-70.4h45v18.1h-41.3
			L1093.8-70.4z M1103.5-22.8l-4.8-23.6h40.1v23.2h-33.9C1104.4-23.3,1103.9-23.1,1103.5-22.8z M1107.9-0.9l-3.4-16.7
			c0.1,0,0.3,0.1,0.4,0.1h33.9v16.1c0,0.2,0.1,0.4,0.1,0.5L1107.9-0.9L1107.9-0.9z M1183.7-0.9h-39.2c0-0.2,0.1-0.4,0.1-0.5v-16.1
			h39.1V-0.9z M1183.7-23.3h-39.1v-23.2h39.1V-23.3z M1183.7-52.3h-39.1v-18.1h39.1V-52.3z M1189.5-6.8v-10.7h6.7L1189.5-6.8z
			 M1199.8-23.3h-10.3v-23.2h24.8L1199.8-23.3z M1217.9-52.2c-0.1,0-0.3-0.1-0.4-0.1h-28v-18.1h39.7L1217.9-52.2z"/>
	</g>
</g>
<g>
	<path class="st2" d="M1215,453.9c-26.8,0-48.7-21.8-48.7-48.7c0-26.8,21.8-48.7,48.7-48.7c26.8,0,48.7,21.8,48.7,48.7
		C1263.6,432.1,1241.8,453.9,1215,453.9z M1215,362.1c-23.8,0-43.2,19.4-43.2,43.2s19.4,43.2,43.2,43.2c23.8,0,43.2-19.4,43.2-43.2
		C1258.1,381.4,1238.8,362.1,1215,362.1z"/>
	<path class="st2" d="M1275.9,554.9h-119.5c-1.5,0-2.7-1.2-2.7-2.7v-41.3c0-34.5,28-62.5,62.5-62.5s62.5,28,62.5,62.5v41.3
		C1278.6,553.7,1277.4,554.9,1275.9,554.9z M1159.2,549.4h114v-38.5c0-31.4-25.6-57-57-57s-57,25.6-57,57V549.4z"/>
</g>
<circle class="st3" cx="1129.4" cy="-669.8" r="86.7"/>
<g>
	<path class="st4" d="M1128.5-713.9c18.8,0,28.1,14.8,28.1,44.4c-0.3,28.1-9.5,42.5-27.7,43.1c-18.8-0.6-28.3-14.9-28.6-43.1
		C1100.9-698.3,1110.3-713.1,1128.5-713.9z M1128.5-631.6c14.5,0.3,21.6-12.4,21.3-38c0.3-26.2-7-39.1-21.8-38.8
		c-13.6,0.6-20.6,13.5-20.9,38.8C1107.1-644.3,1114.2-631.6,1128.5-631.6z"/>
</g>
</svg>
