<?xml version="1.0" encoding="utf-8"?>
<!-- Generator: Adobe Illustrator 21.1.0, SVG Export Plug-In . SVG Version: 6.00 Build 0)  -->
<svg version="1.1" id="圖層_1" xmlns="http://www.w3.org/2000/svg" xmlns:xlink="http://www.w3.org/1999/xlink" x="0px" y="0px"
	 viewBox="0 0 29.7 28.5" style="enable-background:new 0 0 29.7 28.5;" xml:space="preserve">
<style type="text/css">
	.st0{fill:#79852F;}
</style>
<text transform="matrix(1 0 0 1 -282.1613 86.0401)" class="st0" style="font-family:'FZLTZHB--B51-0'; font-size:13px;">分享此項商品</text>
<g>
	<g>
		<g>
			<circle class="st0" cx="20.4" cy="8.8" r="1.2"/>
			<path class="st0" d="M15,9.1c-2.8,0-5.1,2.3-5.1,5.1c0,2.8,2.3,5.1,5.1,5.1s5.1-2.3,5.1-5.1C20.1,11.4,17.8,9.1,15,9.1z M15,17.5
				c-1.8,0-3.3-1.5-3.3-3.3c0-1.8,1.5-3.3,3.3-3.3c1.8,0,3.3,1.5,3.3,3.3C18.2,16.1,16.8,17.5,15,17.5z"/>
			<path class="st0" d="M19,24.6h-8.3c-3.4,0-6.2-2.8-6.2-6.2v-8.3c0-3.4,2.8-6.2,6.2-6.2H19c3.4,0,6.2,2.8,6.2,6.2v8.3
				C25.2,21.8,22.4,24.6,19,24.6z M10.7,5.8c-2.4,0-4.3,1.9-4.3,4.3v8.3c0,2.4,1.9,4.3,4.3,4.3H19c2.4,0,4.3-1.9,4.3-4.3v-8.3
				c0-2.4-1.9-4.3-4.3-4.3H10.7z"/>
		</g>
	</g>
</g>
<g>
	<g>
		<g>
			<path class="st0" d="M-46.2,94.5c-6.5,0-11.8,4.3-11.8,9.6c0,4.7,4.2,8.7,9.8,9.5c0.4,0.1,0.9,0.3,1,0.6c0.1,0.3,0.1,0.8,0,1.1
				l-0.2,1c0,0.3-0.2,1.2,1,0.6c1.3-0.5,6.8-4,9.3-6.9c1.7-1.9,2.5-3.8,2.5-5.9C-34.5,98.8-39.7,94.5-46.2,94.5L-46.2,94.5z
				 M-50.8,107.2h-2.3c-0.3,0-0.6-0.3-0.6-0.6v-4.7c0-0.3,0.3-0.6,0.6-0.6c0.3,0,0.6,0.3,0.6,0.6v4.1h1.7c0.3,0,0.6,0.3,0.6,0.6
				C-50.2,106.9-50.5,107.2-50.8,107.2L-50.8,107.2z M-48.4,106.6c0,0.3-0.3,0.6-0.6,0.6c-0.3,0-0.6-0.3-0.6-0.6v-4.7
				c0-0.3,0.3-0.6,0.6-0.6c0.3,0,0.6,0.3,0.6,0.6V106.6z M-42.8,106.6c0,0.3-0.2,0.5-0.4,0.6c-0.1,0-0.1,0-0.2,0
				c-0.2,0-0.4-0.1-0.5-0.2l-2.4-3.3v2.9c0,0.3-0.3,0.6-0.6,0.6c-0.3,0-0.6-0.3-0.6-0.6v-4.7c0-0.3,0.2-0.5,0.4-0.6
				c0.1,0,0.1,0,0.2,0c0.2,0,0.4,0.1,0.5,0.3l2.4,3.3v-2.9c0-0.3,0.3-0.6,0.6-0.6c0.3,0,0.6,0.3,0.6,0.6V106.6z M-39,103.6
				c0.3,0,0.6,0.3,0.6,0.6c0,0.3-0.3,0.6-0.6,0.6h-1.7v1.1h1.7c0.3,0,0.6,0.3,0.6,0.6c0,0.3-0.3,0.6-0.6,0.6h-2.3
				c-0.3,0-0.6-0.3-0.6-0.6v-4.7c0-0.3,0.3-0.6,0.6-0.6h2.3c0.3,0,0.6,0.3,0.6,0.6c0,0.3-0.3,0.6-0.6,0.6h-1.7v1.1H-39z M-39,103.6"
				/>
		</g>
	</g>
</g>
<path class="st0" d="M-138.2,79.2l0.6-3.8h-3.6V73c0-1,0.5-2,2.1-2h1.7v-3.2c0,0-1.5-0.3-2.9-0.3c-3,0-4.9,1.8-4.9,5.1v2.9h-3.3v3.8
	h3.3v9.1h4.1v-9.1H-138.2z"/>
</svg>
