<?xml version="1.0" encoding="utf-8"?>
<!-- Generator: Adobe Illustrator 21.1.0, SVG Export Plug-In . SVG Version: 6.00 Build 0)  -->
<svg version="1.1" id="圖層_1" xmlns="http://www.w3.org/2000/svg" xmlns:xlink="http://www.w3.org/1999/xlink" x="0px" y="0px"
	 viewBox="0 0 29.7 28.5" style="enable-background:new 0 0 29.7 28.5;" xml:space="preserve">
<style type="text/css">
	.st0{fill:#79852F;}
</style>
<text transform="matrix(1 0 0 1 -282.1613 86.0401)" class="st0" style="font-family:'FZLTZHB--B51-0'; font-size:13px;">分享此項商品</text>
<g>
	<g>
		<g>
			<circle class="st0" cx="-95.9" cy="72.4" r="1.2"/>
			<path class="st0" d="M-101.3,72.8c-2.8,0-5.1,2.3-5.1,5.1c0,2.8,2.3,5.1,5.1,5.1s5.1-2.3,5.1-5.1
				C-96.2,75.1-98.5,72.8-101.3,72.8z M-101.3,81.2c-1.8,0-3.3-1.5-3.3-3.3c0-1.8,1.5-3.3,3.3-3.3c1.8,0,3.3,1.5,3.3,3.3
				C-98,79.7-99.5,81.2-101.3,81.2z"/>
			<path class="st0" d="M-97.2,88.3h-8.3c-3.4,0-6.2-2.8-6.2-6.2v-8.3c0-3.4,2.8-6.2,6.2-6.2h8.3c3.4,0,6.2,2.8,6.2,6.2V82
				C-91,85.5-93.8,88.3-97.2,88.3z M-105.5,69.5c-2.4,0-4.3,1.9-4.3,4.3V82c0,2.4,1.9,4.3,4.3,4.3h8.3c2.4,0,4.3-1.9,4.3-4.3v-8.3
				c0-2.4-1.9-4.3-4.3-4.3H-105.5z"/>
		</g>
	</g>
</g>
<g>
	<g>
		<g>
			<path class="st0" d="M14.9,3C8.4,3,3.1,7.3,3.1,12.6c0,4.7,4.2,8.7,9.8,9.5c0.4,0.1,0.9,0.3,1,0.6c0.1,0.3,0.1,0.8,0,1.1l-0.2,1
				c0,0.3-0.2,1.2,1,0.6c1.3-0.5,6.8-4,9.3-6.9c1.7-1.9,2.5-3.8,2.5-5.9C26.6,7.3,21.4,3,14.9,3L14.9,3z M10.3,15.7H7.9
				c-0.3,0-0.6-0.3-0.6-0.6v-4.7c0-0.3,0.3-0.6,0.6-0.6c0.3,0,0.6,0.3,0.6,0.6v4.1h1.7c0.3,0,0.6,0.3,0.6,0.6
				C10.9,15.5,10.6,15.7,10.3,15.7L10.3,15.7z M12.7,15.1c0,0.3-0.3,0.6-0.6,0.6c-0.3,0-0.6-0.3-0.6-0.6v-4.7c0-0.3,0.3-0.6,0.6-0.6
				c0.3,0,0.6,0.3,0.6,0.6V15.1z M18.3,15.1c0,0.3-0.2,0.5-0.4,0.6c-0.1,0-0.1,0-0.2,0c-0.2,0-0.4-0.1-0.5-0.2l-2.4-3.3v2.9
				c0,0.3-0.3,0.6-0.6,0.6c-0.3,0-0.6-0.3-0.6-0.6v-4.7c0-0.3,0.2-0.5,0.4-0.6c0.1,0,0.1,0,0.2,0c0.2,0,0.4,0.1,0.5,0.3l2.4,3.3
				v-2.9c0-0.3,0.3-0.6,0.6-0.6c0.3,0,0.6,0.3,0.6,0.6V15.1z M22.1,12.1c0.3,0,0.6,0.3,0.6,0.6c0,0.3-0.3,0.6-0.6,0.6h-1.7v1.1h1.7
				c0.3,0,0.6,0.3,0.6,0.6c0,0.3-0.3,0.6-0.6,0.6h-2.3c-0.3,0-0.6-0.3-0.6-0.6v-4.7c0-0.3,0.3-0.6,0.6-0.6h2.3
				c0.3,0,0.6,0.3,0.6,0.6c0,0.3-0.3,0.6-0.6,0.6h-1.7v1.1H22.1z M22.1,12.1"/>
		</g>
	</g>
</g>
<path class="st0" d="M-138.2,79.2l0.6-3.8h-3.6V73c0-1,0.5-2,2.1-2h1.7v-3.2c0,0-1.5-0.3-2.9-0.3c-3,0-4.9,1.8-4.9,5.1v2.9h-3.3v3.8
	h3.3v9.1h4.1v-9.1H-138.2z"/>
</svg>
