<?xml version="1.0" encoding="utf-8"?>
<!-- Generator: Adobe Illustrator 21.1.0, SVG Export Plug-In . SVG Version: 6.00 Build 0)  -->
<svg version="1.1" id="圖層_1" xmlns="http://www.w3.org/2000/svg" xmlns:xlink="http://www.w3.org/1999/xlink" x="0px" y="0px"
	 viewBox="0 0 246.6 243" style="enable-background:new 0 0 246.6 243;" xml:space="preserve">
<style type="text/css">
	.st0{fill:#DDA2CD;}
	.st1{fill:#79852F;}
	.st2{fill:#3D3D3B;stroke:#000000;stroke-width:2;stroke-miterlimit:10;}
	.st3{fill:#748130;}
	.st4{fill:#FFFFFF;}
	.st5{fill:#FFFFFF;stroke:#FFFFFF;stroke-width:4;stroke-miterlimit:10;}
	.st6{fill:none;stroke:#FFFFFF;stroke-width:6;stroke-linecap:round;stroke-miterlimit:10;}
</style>
<polygon class="st0" points="123.3,21.2 155.9,87.2 228.8,97.8 176.1,149.2 188.5,221.8 123.3,187.6 58.1,221.8 70.6,149.2 
	17.8,97.8 90.7,87.2 "/>
<g>
	<path class="st1" d="M89.5-675.6c0-0.3,0-0.6,0.1-0.9c0-0.5,0.1-0.9,0.1-1.4c0-0.4-0.1-0.8-0.3-1.1
		C86.3-790.7-6.7-881.4-118.4-881.4c-39,0-76.1,11.2-107.9,30.7c-28.3-83-106.7-140-195-140c-54.2,0-105.4,20.9-144.2,59
		c-38.6,37.8-60.6,88.3-61.9,142.1c-0.2,0.2-0.3,0.4-0.3,0.7c0,0.4,0,0.8,0,1.3c0,0.4,0.1,0.7,0.1,1.1c0,0.4,0,0.7-0.1,1.1
		c0,0.4,0,0.8,0,1.2c0,0.2,0.1,0.4,0.2,0.6c1.4,53.9,23.4,104.3,62,142.2c38.8,38,90,59,144.2,59c38.3,0,74.7-10.9,106-29.8
		c28.1,84.3,107.5,142.4,196.9,142.4c111.7,0,204.7-90.6,207.8-202.2c0.2-0.4,0.3-0.8,0.3-1.2c0-0.5,0-0.9-0.1-1.4
		C89.5-675,89.5-675.3,89.5-675.6z M-118.4-558c-23.4,0-46.1-6.8-66.2-20L-302-621c37.7-26.9,66.4-66.1,79.4-112.9
		c0.1-0.4,0-0.8-0.3-1.1s-0.7-0.4-1.1-0.2l-130.6,47.9c-19.8,13.1-42.8,20-66.6,20c-65.7,0-120.2-53.5-121.5-119.2
		c1.3-65.8,55.7-119.3,121.5-119.3c23.7,0,46.7,6.9,66.8,20.1l116.6,42.7c-38.3,27.1-67.6,66.9-80.7,114.3c-0.3,1,0,2,0.8,2.7
		c0.7,0.7,1.9,0.9,2.8,0.6l131-48.1c19.5-12.9,42.2-19.7,65.7-19.7c64.8,0,118.6,52.8,119.8,117.6C0.2-610.8-53.6-558-118.4-558z"/>
	<path class="st1" d="M-333.3-573.5c-1.8,0-3.5,0.7-4.8,2.1c-0.6,0.6-58.2,61.8-179.7,61.8c-31.2,0-64.4-4-98.6-12
		c-0.5-0.1-1-0.2-1.5-0.2c-2.2,0-4.3,1.1-5.5,3.1c-1.5,2.4-1.3,5.4,0.5,7.6l80.4,97.4c0.9,1.1,2.2,1.9,3.6,2.2c0.4,0.1,9.1,2,23.1,2
		c37.9,0,132.1-15.1,188.5-155c1.2-2.9,0.1-6.3-2.6-7.9C-330.9-573.2-332.1-573.5-333.3-573.5z"/>
	<path class="st1" d="M-209.1-881.4c0.3,0,0.5,0,0.8,0c3.1-0.4,5.6-3,5.7-6.1c0.1-1.2,8.2-118.5,183.5-202.1c2.5-1.2,4-3.9,3.7-6.7
		c-0.3-2.8-2.4-5-5.1-5.6l-123.6-25.9c-0.4-0.1-0.9-0.1-1.3-0.1c-0.8,0-1.7,0.2-2.5,0.5c-1.3,0.5-31.9,13.4-55.5,50
		c-21.5,33.4-41.1,93.6-11.8,191.4C-214.5-883.2-211.9-881.4-209.1-881.4z"/>
</g>
<g>
	<g>
		<path class="st2" d="M1234.4,106.8h-141.8l-10.4-51.3c-0.3-1.4-1.5-2.3-2.8-2.3h-55c-1.6,0-2.9,1.3-2.9,2.9c0,1.6,1.3,2.9,2.9,2.9
			h52.7l25.5,126.3V240c0,1.6,1.3,2.9,2.9,2.9h76c1.6,0,2.9-1.3,2.9-2.9c0-1.6-1.3-2.9-2.9-2.9h-73.1v-49.2h78.2h0.8
			c1,0,1.9-0.5,2.5-1.4l47-75.3c0.6-0.9,0.6-2,0.1-2.9C1236.5,107.4,1235.5,106.8,1234.4,106.8z M1093.8,112.6h45v18.1h-41.3
			L1093.8,112.6z M1103.5,160.2l-4.8-23.6h40.1v23.2h-33.9C1104.4,159.7,1103.9,159.9,1103.5,160.2z M1107.9,182.1l-3.4-16.7
			c0.1,0,0.3,0.1,0.4,0.1h33.9v16.1c0,0.2,0.1,0.4,0.1,0.5L1107.9,182.1L1107.9,182.1z M1183.7,182.1h-39.2c0-0.2,0.1-0.4,0.1-0.5
			v-16.1h39.1V182.1z M1183.7,159.7h-39.1v-23.2h39.1V159.7z M1183.7,130.7h-39.1v-18.1h39.1V130.7z M1189.5,176.2v-10.7h6.7
			L1189.5,176.2z M1199.8,159.7h-10.3v-23.2h24.8L1199.8,159.7z M1217.9,130.8c-0.1,0-0.3-0.1-0.4-0.1h-28v-18.1h39.7L1217.9,130.8z
			"/>
	</g>
</g>
<g>
	<path class="st2" d="M1215,636.9c-26.8,0-48.7-21.8-48.7-48.7c0-26.8,21.8-48.7,48.7-48.7c26.8,0,48.7,21.8,48.7,48.7
		C1263.6,615.1,1241.8,636.9,1215,636.9z M1215,545.1c-23.8,0-43.2,19.4-43.2,43.2s19.4,43.2,43.2,43.2c23.8,0,43.2-19.4,43.2-43.2
		C1258.1,564.4,1238.8,545.1,1215,545.1z"/>
	<path class="st2" d="M1275.9,737.9h-119.5c-1.5,0-2.7-1.2-2.7-2.7v-41.3c0-34.5,28-62.5,62.5-62.5s62.5,28,62.5,62.5v41.3
		C1278.6,736.7,1277.4,737.9,1275.9,737.9z M1159.2,732.4h114v-38.5c0-31.4-25.6-57-57-57s-57,25.6-57,57V732.4z"/>
</g>
<circle class="st3" cx="1129.4" cy="-486.8" r="86.7"/>
<g>
	<path class="st4" d="M1128.5-530.9c18.8,0,28.1,14.8,28.1,44.4c-0.3,28.1-9.5,42.5-27.7,43.1c-18.8-0.6-28.3-14.9-28.6-43.1
		C1100.9-515.3,1110.3-530.1,1128.5-530.9z M1128.5-448.6c14.5,0.3,21.6-12.4,21.3-38c0.3-26.2-7-39.1-21.8-38.8
		c-13.6,0.6-20.6,13.5-20.9,38.8C1107.1-461.3,1114.2-448.6,1128.5-448.6z"/>
</g>
<g>
	<g>
		<g>
			<path class="st5" d="M438.1,156.2c-0.6,0-1.1-0.2-1.6-0.6c-3.7-3-89.8-73-89.8-130c0-24.9,12.8-43.5,33.5-48.4
				c21.8-5.1,45,6.3,57.9,28.2c14.2-24.9,39.3-32,57.5-27.8c25.1,5.7,34,28.6,34,48c0,18.7-9.4,40.8-27.8,65.7
				c-0.8,1.1-2.4,1.4-3.6,0.5c-1.1-0.8-1.4-2.4-0.5-3.5c17.8-24,26.8-45.1,26.8-62.7c0-22.7-11.2-38.8-30.1-43.1
				c-17.3-3.9-41.6,3.6-54,29.4c-0.4,0.9-1.3,1.4-2.3,1.4c-0.9,0-1.9-0.5-2.3-1.4c-9.2-18.4-30.2-35.5-54.5-29.8
				c-18.5,4.4-29.6,20.7-29.6,43.5c0,50.5,74.4,114.8,86.4,124.7c5-4.2,21-17.9,37.8-36c1-1,2.6-1.1,3.6-0.1s1.1,2.6,0.1,3.6
				c-20.4,22-39.7,37.7-39.9,37.8C439.2,156,438.7,156.2,438.1,156.2z"/>
		</g>
		<g>
			<path class="st5" d="M527,110.5h-69.2c-1.4,0-2.5-1.1-2.5-2.5s1.1-2.5,2.5-2.5H527c1.4,0,2.5,1.1,2.5,2.5S528.4,110.5,527,110.5z
				"/>
		</g>
		<g>
			<path class="st5" d="M492.4,144.8c-1.4,0-2.5-1.1-2.5-2.5V73.8c0-1.4,1.1-2.5,2.5-2.5s2.5,1.1,2.5,2.5v68.5
				C494.9,143.6,493.8,144.8,492.4,144.8z"/>
		</g>
	</g>
</g>
<g>
	<polyline class="st6" points="373.6,281.3 446.5,270.8 479.1,204.7 	"/>
	<polyline class="st6" points="413.9,405.4 426.4,332.8 373.6,281.3 	"/>
	<polyline class="st6" points="544.3,405.4 479.1,371.1 413.9,405.4 	"/>
	<line class="st6" x1="544" y1="403.7" x2="544.3" y2="405.4"/>
	<polyline class="st6" points="584.6,281.3 531.9,332.8 544,403.7 	"/>
	<polyline class="st6" points="479.1,204.7 511.7,270.8 584.6,281.3 	"/>
</g>
</svg>
