<svg id="圖層_1" data-name="圖層 1" xmlns="http://www.w3.org/2000/svg" viewBox="0 0 224 56"><title>200508_select_mercari-03</title><path d="M52.54,15.29V41.12a4.36,4.36,0,0,1-.17,1.19,4.29,4.29,0,0,1-.49,1.1,4.35,4.35,0,0,1-.78.92,4.26,4.26,0,0,1-1,.67L28.19,55.56a4.29,4.29,0,0,1-3.78,0L11.53,49.28,2.67,44.91A4.35,4.35,0,0,1,.23,41V15.18a4.33,4.33,0,0,1,2.4-3.86L24.47.46A4.32,4.32,0,0,1,26.41,0a4.26,4.26,0,0,1,1.93.46L50.14,11.4a4.33,4.33,0,0,1,2.23,2.7A4.36,4.36,0,0,1,52.54,15.29Z" style="fill:#e72121"/><path d="M56.15,15.91a11.73,11.73,0,0,1-.89,4.49,11.73,11.73,0,0,1-6.35,6.35,11.84,11.84,0,0,1-2.2.67,11.71,11.71,0,0,1-6.78-.67,11.59,11.59,0,0,1-2-1.08,11.74,11.74,0,0,1-4.32-14.25,11.73,11.73,0,0,1,6.35-6.35,11.84,11.84,0,0,1,2.2-.67,11.71,11.71,0,0,1,6.78.67,11.59,11.59,0,0,1,2,1.08,11.73,11.73,0,0,1,5.21,9.76Z" style="fill:#55beee"/><path d="M7.4,37.33,5.11,36.22v-6.8c0-2,1.11-4,3.43-3.74a5.8,5.8,0,0,1,4.34,3.38,2.94,2.94,0,0,1,2.62-.74c1.17.16,5.63,1.81,5.63,7.85v8.07L18.6,43v-7.5a4,4,0,0,0-.15-1.42,4,4,0,0,0-.64-1.28,4,4,0,0,0-2.35-1.53c-.75-.08-1.34.52-1.42,1.81s0,7.62,0,7.62l-2.3-1.12V32.47c0-3.13-2-4.11-2.9-4.19-.51,0-1.44.24-1.44,1.86v7.21Z" style="fill:#fff"/><rect x="218.14" y="18.9" width="5.35" height="22.91" style="fill:#212222"/><path d="M160.79,37.4c-4.49,0-7.12-2.78-7.12-6.72s2-7,6.72-7a16,16,0,0,1,7.05,1.68v-5a18.35,18.35,0,0,0-7.15-1.46c-7.28,0-11.9,5-11.9,11.82S153.44,42,160.67,42A19.39,19.39,0,0,0,168,40.52V35.64a18.21,18.21,0,0,1-7.16,1.76Z" style="fill:#212222"/><path d="M91.06,18.9a8.62,8.62,0,0,0-7.21,3.56,9.06,9.06,0,0,0-5.26-3.35,8.94,8.94,0,0,0-2.11-.21c-5.83,0-9.85,4.4-9.85,10.24V41.82h5.27V28.62a4.49,4.49,0,0,1,.22-1.87,4.58,4.58,0,0,1,.4-.86,4.47,4.47,0,0,1,.57-.76,4.5,4.5,0,0,1,2.45-1.36,4.42,4.42,0,0,1,.94-.08,4.71,4.71,0,0,1,1,.07,4.53,4.53,0,0,1,.92.27,4.72,4.72,0,0,1,.85.45,4.47,4.47,0,0,1,.74.62,4.53,4.53,0,0,1,.59.76,4.61,4.61,0,0,1,.42.86,4.7,4.7,0,0,1,.24.93,4.58,4.58,0,0,1,0,1v13.2h5.19V28.62a4.6,4.6,0,0,1,0-.95,4.52,4.52,0,0,1,.22-.93,4.55,4.55,0,0,1,1.7-2.24,4.56,4.56,0,0,1,.83-.46,4.56,4.56,0,0,1,1.86-.35,4.59,4.59,0,0,1,1,.07,4.65,4.65,0,0,1,1.78.72,4.76,4.76,0,0,1,.74.62,4.59,4.59,0,0,1,.6.76,4.67,4.67,0,0,1,.73,2.76v13.2h5.28V29.15A9.87,9.87,0,0,0,91.06,18.9Z" style="fill:#212222"/><path d="M223.77,13.43a3,3,0,1,1-.22-1.13A2.93,2.93,0,0,1,223.77,13.43Z" style="fill:#212222"/><path d="M183.79,37.33c-3.86,0-6.26-2.69-6.26-6.9,0-3.94,2.69-6.91,6.26-6.91,3.82,0,6.17,2.69,6.17,6.91-.05,3.35-2.14,6.9-6.22,6.9Zm0-18.43a11.15,11.15,0,0,0-1.15,0,11,11,0,0,0-1.14.13,11.37,11.37,0,0,0-1.12.25,11.24,11.24,0,0,0-2.13.83,11.38,11.38,0,0,0-1,.58,10.86,10.86,0,0,0-.93.67,11,11,0,0,0-.85.77,11.42,11.42,0,0,0-.77.85,11,11,0,0,0-.68.92A11.18,11.18,0,0,0,172.59,27c-.1.37-.19.74-.26,1.12a11.06,11.06,0,0,0-.14,1.14,11.17,11.17,0,0,0,0,1.15c0,6.72,4.58,11.52,11.14,11.52a7.16,7.16,0,0,0,6.64-3.87v3.74h5.27V30.44C195.21,23.43,190.75,18.9,183.79,18.9Z" style="fill:#212222"/><path d="M143,23.7c-2.89,0-4.58,2.41-4.58,5.59V41.83h-5.28V29.15c0-5.85,4-10.24,9.86-10.24h1.89v4.79Z" style="fill:#212222"/><path d="M210.79,23.7c-2.88,0-4.58,2.41-4.58,5.59V41.83h-5.27V29.15c0-5.85,4-10.24,9.85-10.24h1.91v4.79Z" style="fill:#212222"/><path d="M111.42,28.17a5.83,5.83,0,0,1,.69-1.92,5.76,5.76,0,0,1,.59-.84,5.88,5.88,0,0,1,1.56-1.31,6,6,0,0,1,.93-.43,5.84,5.84,0,0,1,4,0,6,6,0,0,1,.93.43,5.75,5.75,0,0,1,.84.59,5.87,5.87,0,0,1,.72.72,6,6,0,0,1,.59.84,5.83,5.83,0,0,1,.69,1.92Zm6-9.28a11.27,11.27,0,0,0-2.24.21,11.11,11.11,0,0,0-2.16.66,11.27,11.27,0,0,0-6.75,8.47,11.18,11.18,0,0,0-.16,2.25c0,7.21,5.17,11.48,12.28,11.48a25.17,25.17,0,0,0,8.34-1.46V35.88a24.62,24.62,0,0,1-8.06,1.73c-4,0-6.72-1.76-7.21-5.28h16a18.29,18.29,0,0,0,.16-2.54,10.52,10.52,0,0,0-2.83-7.59,10.5,10.5,0,0,0-3.36-2.4,10.51,10.51,0,0,0-2-.66,10.69,10.69,0,0,0-2.05-.26Z" style="fill:#212222"/></svg>