<?xml version="1.0" encoding="utf-8"?>
<!-- Generator: Adobe Illustrator 21.1.0, SVG Export Plug-In . SVG Version: 6.00 Build 0)  -->
<svg version="1.1" id="圖層_1" xmlns="http://www.w3.org/2000/svg" xmlns:xlink="http://www.w3.org/1999/xlink" x="0px" y="0px"
	 viewBox="0 0 156 25" style="enable-background:new 0 0 156 25;" xml:space="preserve">
<style type="text/css">
	.st0{enable-background:new    ;}
	.st1{fill:#333333;}
	.st2{fill:#EBEBE5;}
	.st3{fill:#E61817;}
	.st4{fill:#2D5BD5;}
	.st5{fill:#FFFFFF;}
	.st6{fill:#BF0000;}
</style>
<title>Group 7</title>
<desc>Created with Sketch.</desc>
<g id="V-member_x2F_bargain_x5F_record" transform="translate(-776.000000, -251.000000)">
	<g id="btn_rakuma" transform="translate(733.000000, 238.000000)">
		<g id="Group-7" transform="translate(43.000000, 13.000000)">
			<g class="st0">
				<g>
					<path class="st1" d="M45.1,10l0.9,0.7c-0.7,2.3-1.7,4.1-2.9,5.3c-1.4,1.4-3.4,2.5-5.9,3.1l-0.8-1.5c2.1-0.5,3.7-1.3,5-2.3
						c1.1-1,2-2.2,2.6-3.8h-9.9V10H45.1z M44.4,6.6v1.5h-8.9V6.6H44.4z"/>
					<path class="st1" d="M37.1,19.4L36,17.5l0.3-0.1c2-0.5,3.7-1.3,4.9-2.3c1-0.9,1.8-2,2.4-3.4h-9.7v-2h11.3l1.1,0.8l-0.1,0.2
						c-0.7,2.3-1.7,4.1-2.9,5.4c-1.4,1.5-3.5,2.5-6,3.2L37.1,19.4z M36.8,17.8l0.6,1c2.4-0.6,4.3-1.6,5.6-3c1.1-1.2,2.1-2.9,2.8-5.1
						l-0.7-0.5H34.4v1h10l-0.1,0.3c-0.6,1.6-1.5,2.9-2.7,3.9C40.4,16.5,38.8,17.3,36.8,17.8z M44.7,8.4h-9.4v-2h9.4V8.4z M35.7,7.9
						h8.4v-1h-8.4V7.9z"/>
				</g>
				<g>
					<path class="st1" d="M55.9,6.1c-0.2,0.5-0.4,1.1-0.6,1.6h5.1l1,0.5c-0.5,2.7-1.5,4.9-3,6.8c-1.5,1.8-3.6,3.2-6.1,4.2l-0.9-1.4
						c2.1-0.8,3.8-1.8,5.1-3.2c1.5-1.5,2.4-3.3,3-5.4h-5.1c-0.2,0.3-0.4,0.7-0.7,1c-0.8,1.2-1.9,2.2-3.2,3.2l-1.2-1.1
						c1.2-0.9,2.2-2,3.1-3.1c0.8-1.2,1.5-2.4,1.9-3.7L55.9,6.1z"/>
					<path class="st1" d="M52.2,19.5L51,17.7l0.3-0.1c2-0.8,3.7-1.8,5-3.1c1.3-1.3,2.3-3,2.8-5h-4.6c-0.2,0.3-0.4,0.6-0.6,0.9
						c-0.9,1.2-1.9,2.3-3.3,3.3l-0.2,0.1L49,12.3l0.2-0.2c1.2-0.9,2.2-2,3-3C53,8,53.7,6.8,54.1,5.5l0.1-0.2l2,0.7l-0.1,0.2
						C56,6.6,55.8,7,55.6,7.4l4.9,0L61.6,8l0,0.2c-0.5,2.7-1.5,5-3,6.9c-1.6,1.9-3.6,3.3-6.2,4.3L52.2,19.5z M51.8,17.9l0.6,1
						c2.4-1,4.3-2.3,5.8-4.1c1.4-1.8,2.4-4,2.9-6.5l-0.8-0.4h-5.5L55,7.6c0.2-0.4,0.4-0.9,0.5-1.3l-1.1-0.3
						c-0.4,1.2-1.1,2.4-1.9,3.5c-0.8,1.1-1.8,2-2.9,3l0.8,0.7c1.2-1,2.2-2,3-3.1c0.2-0.3,0.4-0.6,0.6-1L54.2,9h5.5l-0.1,0.3
						c-0.5,2.2-1.5,4-3,5.5C55.4,16.1,53.8,17.1,51.8,17.9z"/>
				</g>
				<g>
					<path class="st1" d="M77.6,7l0.9,1c-0.6,1.1-1.5,2.4-2.6,3.8c-1,1.2-2,2.3-2.9,3.2c1.2,1,2.3,2.2,3.4,3.4l-1.3,1.1
						c-1-1.2-2.3-2.4-3.9-3.8c-1.5-1.3-2.9-2.4-4.2-3.2l1-1.2c1.2,0.8,2.5,1.7,3.7,2.7c0.8-0.8,1.5-1.6,2.2-2.4c0.9-1,1.6-2,2.2-3
						h-11V7H77.6z"/>
					<path class="st1" d="M75.1,19.7l-0.2-0.2c-1-1.1-2.3-2.4-3.8-3.7c-1.6-1.3-3-2.4-4.2-3.2l-0.2-0.2l1.3-1.6l0.2,0.1
						c1.2,0.7,2.4,1.6,3.6,2.5c0.8-0.8,1.4-1.5,2-2.2c0.7-0.9,1.4-1.8,2-2.6H64.9v-2h12.8l1.1,1.2l-0.1,0.2
						c-0.6,1.1-1.5,2.4-2.7,3.8c-0.9,1.1-1.8,2.1-2.7,3c1.1,1,2.2,2.1,3.2,3.2l0.2,0.2L75.1,19.7z M67.3,12.4c1.2,0.8,2.5,1.8,4,3.1
						c1.5,1.3,2.7,2.5,3.7,3.6l0.9-0.8c-1-1.1-2.1-2.2-3.2-3.2l-0.2-0.2l0.2-0.2c1-1,1.9-2,2.9-3.2c1.1-1.3,1.9-2.5,2.5-3.6
						l-0.7-0.8H65.4v1h11.2l-0.3,0.4c-0.6,1-1.4,2-2.3,3c-0.7,0.8-1.4,1.5-2.2,2.4l-0.2,0.2l-0.2-0.1c-1.2-0.9-2.4-1.8-3.5-2.5
						L67.3,12.4z"/>
				</g>
				<g>
					<path class="st1" d="M91.3,6.8c1.2,0,2.1,0.3,2.8,0.8c0.7,0.6,1.1,1.4,1.1,2.5c0,0.6-0.2,1.1-0.5,1.6c-0.4,0.5-0.9,0.8-1.5,1v0
						c1,0.2,1.6,0.9,1.7,2l0.2,1.8c0.1,0.7,0.3,1.3,0.7,1.7h-1.9c-0.3-0.4-0.4-0.9-0.5-1.5l-0.1-1.4c-0.1-0.6-0.3-1.1-0.6-1.4
						c-0.4-0.3-0.8-0.4-1.5-0.4H88v4.7h-1.7V6.8H91.3z M88,12h3.1c0.8,0,1.3-0.2,1.7-0.5c0.4-0.3,0.6-0.8,0.6-1.4
						c0-0.6-0.2-1.1-0.5-1.4c-0.4-0.3-1-0.4-1.8-0.4H88V12z"/>
					<path class="st1" d="M96.3,18.5h-2.6l-0.1-0.1c-0.3-0.4-0.5-0.9-0.5-1.6L93,15.3c-0.1-0.6-0.2-1-0.5-1.2
						c-0.3-0.2-0.7-0.4-1.3-0.4h-2.8v4.7H86V6.6h5.3c1.2,0,2.2,0.3,2.9,0.8c0.8,0.6,1.2,1.5,1.2,2.7c0,0.7-0.2,1.2-0.5,1.7
						c-0.3,0.4-0.6,0.7-1,0.9c0.7,0.4,1.2,1,1.3,2l0.2,1.8c0.1,0.6,0.3,1.2,0.6,1.5L96.3,18.5z M94,18h1.3c-0.2-0.4-0.4-0.9-0.4-1.4
						l-0.2-1.8c-0.1-1-0.6-1.6-1.5-1.8l-0.2,0v-0.4l0.2-0.1c0.6-0.1,1-0.4,1.3-0.9c0.3-0.4,0.4-0.9,0.4-1.5c0-1-0.3-1.8-1-2.3
						c-0.6-0.5-1.5-0.7-2.6-0.7h-4.8V18h1.2v-4.7h3.3c0.7,0,1.3,0.2,1.7,0.5c0.4,0.3,0.6,0.9,0.7,1.5l0.1,1.4
						C93.7,17.3,93.8,17.7,94,18z M91.1,12.3h-3.3V8h3.3c0.9,0,1.5,0.2,1.9,0.5c0.4,0.3,0.6,0.9,0.6,1.6c0,0.7-0.2,1.2-0.6,1.6
						C92.5,12.1,91.9,12.3,91.1,12.3z M88.3,11.8h2.8c0.7,0,1.2-0.1,1.6-0.4c0.3-0.3,0.5-0.7,0.5-1.2c0-0.5-0.2-1-0.5-1.2
						c-0.3-0.3-0.9-0.4-1.6-0.4h-2.8V11.8z"/>
				</g>
				<g>
					<path class="st1" d="M102.6,6.8l4.4,11.4h-1.9l-1.1-2.9h-4.9l-1.1,2.9h-1.9l4.4-11.4H102.6z M103.5,13.9l-1.9-5.2h-0.1
						l-1.9,5.2H103.5z"/>
					<path class="st1" d="M107.4,18.5H105l-1.1-2.9h-4.6l-1.1,2.9h-2.4l4.6-11.9h2.3L107.4,18.5z M105.3,18h1.3l-4.2-10.9h-1.6
						L96.6,18h1.3L99,15h5.3L105.3,18z M103.9,14.1h-4.6l2.1-5.7h0.4L103.9,14.1z M100,13.6h3.1l-1.6-4.3L100,13.6z"/>
				</g>
				<g>
					<path class="st1" d="M117.6,6.8l-5.1,4.9l5.8,6.5H116l-4.6-5.4l-1.5,1.4v4h-1.7V6.8h1.7v5.5l5.5-5.5H117.6z"/>
					<path class="st1" d="M118.9,18.5h-3l-4.5-5.3l-1.2,1.2v4.1h-2.2V6.6h2.2v5.2l5.2-5.2h2.9l-5.3,5.2L118.9,18.5z M116.1,18h1.7
						l-5.6-6.3l4.8-4.7h-1.5l-5.9,5.9V7.1h-1.2V18h1.2v-3.8l1.8-1.7L116.1,18z"/>
				</g>
				<g>
					<path class="st1" d="M121.2,6.8v7.1c0,1,0.2,1.8,0.7,2.3s1.2,0.8,2.3,0.8c1,0,1.8-0.3,2.3-0.8c0.5-0.5,0.7-1.2,0.7-2.3V6.8h1.7
						v7.1c0,1.5-0.4,2.6-1.2,3.4c-0.8,0.8-2,1.2-3.5,1.2c-1.5,0-2.7-0.4-3.5-1.2c-0.8-0.8-1.2-1.9-1.2-3.4V6.8H121.2z"/>
					<path class="st1" d="M124.2,18.7c-1.6,0-2.8-0.4-3.6-1.2c-0.9-0.8-1.3-2.1-1.3-3.6V6.6h2.2v7.4c0,1,0.2,1.7,0.6,2.1
						c0.4,0.4,1.1,0.7,2.1,0.7c0.9,0,1.6-0.2,2.1-0.7c0.4-0.4,0.6-1.2,0.6-2.1V6.6h2.2v7.3c0,1.5-0.4,2.8-1.3,3.6
						C126.9,18.3,125.7,18.7,124.2,18.7z M119.7,7.1v6.8c0,1.4,0.4,2.5,1.2,3.2c0.8,0.7,1.8,1.1,3.3,1.1c1.4,0,2.5-0.4,3.3-1.1
						c0.8-0.7,1.2-1.8,1.2-3.2V7.1h-1.2v6.9c0,1.1-0.3,1.9-0.8,2.4c-0.5,0.6-1.4,0.8-2.4,0.8c-1.1,0-1.9-0.3-2.5-0.8
						c-0.5-0.5-0.8-1.3-0.8-2.4V7.1H119.7z"/>
				</g>
				<g>
					<path class="st1" d="M133.2,6.8l4,9.2h0l4-9.2h2.1v11.4h-1.7v-8.2h-0.1l-3.5,8.2h-1.5l-3.5-8.2h-0.1v8.2h-1.7V6.8H133.2z"/>
					<path class="st1" d="M143.5,18.5h-2.2v-7.3l-3.2,7.3h-1.8l-3.2-7.3v7.3h-2.2V6.6h2.5l3.8,8.8l3.8-8.8h2.5V18.5z M141.8,18h1.2
						V7.1h-1.7l-4,9.2H137l-0.1-0.2l-3.9-9h-1.7V18h1.2V9.8h0.5l3.5,8.2h1.2l3.5-8.2h0.5V18z"/>
				</g>
				<g>
					<path class="st1" d="M150.7,6.8l4.4,11.4h-1.9l-1.1-2.9h-4.9l-1.1,2.9h-1.9l4.4-11.4H150.7z M151.7,13.9l-1.9-5.2h-0.1
						l-1.9,5.2H151.7z"/>
					<path class="st1" d="M155.5,18.5h-2.4l-1.1-2.9h-4.6l-1.1,2.9H144l4.6-11.9h2.3L155.5,18.5z M153.5,18h1.3l-4.2-10.9h-1.6
						L144.7,18h1.3l1.1-2.9h5.3L153.5,18z M152,14.1h-4.6l2.1-5.7h0.4L152,14.1z M148.2,13.6h3.1l-1.6-4.3L148.2,13.6z"/>
				</g>
			</g>
			<g>
				<path class="st2" d="M0,25C0,16.7,0,8.3,0,0c8.3,0,16.7,0,25,0c0,8.3,0,16.7,0,25C16.7,25,8.3,25,0,25z M9.2,4.7
					c0,0-0.1,0-0.1,0c-1.7,0-3.4,0-5.1,0C3.3,4.7,2.6,5.3,2.6,6c0,0.7,0,1.3,0,2c0,0.2,0,0.3,0,0.5c0.2,1.7,1.8,3.1,3.7,2.9
					c1.6-0.2,2.9-1.6,2.9-3.2c0-1.1,0-2.2,0-3.3C9.2,4.8,9.2,4.8,9.2,4.7z M18.5,4.7c-0.8,0-1.7,0-2.5,0c-0.1,0-0.2,0-0.2,0.2
					c0,1.1,0,2.2,0,3.3c0,0.2,0,0.5,0.1,0.7c0.3,1.4,1.4,2.4,2.9,2.5c0.9,0.1,1.8-0.2,2.5-0.9c0.7-0.6,1-1.4,1-2.4c0-0.7,0-1.4,0-2
					c0-0.1,0-0.3,0-0.4c-0.2-0.7-0.7-1.1-1.4-1.1C20.1,4.7,19.3,4.7,18.5,4.7z M8.3,16.1c0-1.4-1.1-2.6-2.6-2.6
					c-1.4,0-2.6,1.1-2.6,2.6c0,1.4,1.1,2.6,2.6,2.6C7.1,18.7,8.3,17.5,8.3,16.1z M20.3,17.1c0.6-0.4,0.9-0.7,1.2-1.2
					c0.2-0.5,0.2-1.1,0.2-1.7c0-0.1-0.1-0.2-0.2-0.2c-0.1,0-0.2,0-0.3,0c-1,0-2.1,0-3.1,0c-0.2,0-0.3,0.1-0.3,0.3c0,0.1,0,0.3,0,0.4
					c0,0.3,0.1,0.3,0.3,0.3c0.8,0,1.6,0,2.4,0c0.1,0,0.2,0,0.1,0.1c-0.1,0.5-0.4,0.9-0.9,1.1c-0.1,0-0.1,0-0.2-0.1
					c-0.1-0.2-0.3-0.3-0.4-0.5c-0.1-0.1-0.3-0.2-0.4,0c-0.1,0.1-0.2,0.2-0.3,0.2c-0.2,0.2-0.2,0.3,0,0.5c0.3,0.3,0.6,0.7,0.9,1
					c0.3,0.3,0.5,0.6,0.8,0.9c0.1,0.2,0.3,0.2,0.4,0c0.1-0.1,0.2-0.1,0.3-0.2c0.2-0.2,0.2-0.3,0-0.5C20.6,17.4,20.4,17.2,20.3,17.1z
					 M15.4,13.9c-0.5,0-0.9,0-1.4,0c-0.1,0-0.2,0-0.3,0.2c-0.2,0.4-0.3,0.9-0.5,1.3c-0.1,0.2,0,0.3,0.2,0.3c0.1,0.1,0.3,0.1,0.4,0.2
					c0.2,0.1,0.3,0,0.4-0.2c0.1-0.2,0.2-0.4,0.2-0.6c0-0.1,0.1-0.1,0.2-0.1c0.4,0,0.8,0,1.2,0c0.1,0,0.2,0,0.2,0.2c0,0.3,0,0.7,0,1
					c0,0.5-0.3,0.9-0.7,1.2c-0.2,0.1-0.4,0.2-0.7,0.2c-0.2,0-0.3,0.1-0.3,0.3c0,0.1,0,0.3,0.1,0.4c0,0.2,0.1,0.2,0.3,0.2
					c0.1,0,0.3,0,0.4-0.1c1.1-0.2,1.9-1.2,1.9-2.3c0-0.6,0-1.2,0-1.9c0-0.2-0.1-0.3-0.3-0.3C16.3,13.9,15.8,13.9,15.4,13.9z
					 M10.7,15.1c-0.6,0-1.1,0-1.7,0c-0.2,0-0.3,0.1-0.3,0.3c0,0.1,0,0.3,0,0.4c0,0.2,0.1,0.3,0.3,0.3c0.8,0,1.6,0,2.4,0
					c0.1,0,0.2,0,0.1,0.2c-0.1,0.3-0.2,0.6-0.5,0.8c-0.3,0.2-0.6,0.3-0.9,0.3c-0.2,0-0.3,0.1-0.3,0.3c0,0.1,0,0.3,0.1,0.4
					c0,0.2,0.1,0.2,0.3,0.2c0.1,0,0.2,0,0.3,0c1-0.1,1.8-0.9,2-1.9c0.1-0.4,0-0.8,0.1-1.1c0-0.2-0.1-0.3-0.3-0.3
					C11.8,15.1,11.3,15.1,10.7,15.1z M10.7,14.8c0.4,0,0.8,0,1.1,0c0.2,0,0.3-0.1,0.3-0.3c0-0.1,0-0.3,0-0.4c0-0.2-0.1-0.3-0.3-0.3
					c-0.8,0-1.5,0-2.3,0c-0.2,0-0.3,0.1-0.3,0.3c0,0.1,0,0.3,0,0.4c0,0.2,0.1,0.3,0.3,0.3C10,14.8,10.4,14.8,10.7,14.8z"/>
				<path class="st3" d="M9.2,4.7c0,0.1,0,0.1,0,0.2c0,1.1,0,2.2,0,3.3c0,1.6-1.3,3-2.9,3.2c-1.9,0.2-3.5-1.2-3.7-2.9
					c0-0.2,0-0.3,0-0.5c0-0.7,0-1.4,0-2c0-0.7,0.7-1.3,1.4-1.3c1.7,0,3.4,0,5.1,0C9.1,4.7,9.2,4.7,9.2,4.7z"/>
				<path class="st4" d="M18.5,4.7c0.8,0,1.6,0,2.5,0c0.7,0,1.2,0.4,1.4,1.1c0,0.1,0,0.2,0,0.4c0,0.7,0,1.4,0,2c0,0.9-0.4,1.7-1,2.4
					c-0.7,0.7-1.5,0.9-2.5,0.9c-1.5-0.1-2.6-1.2-2.9-2.5c-0.1-0.2-0.1-0.5-0.1-0.7c0-1.1,0-2.2,0-3.3c0-0.1,0-0.2,0.2-0.2
					C16.8,4.7,17.6,4.7,18.5,4.7z"/>
				<path class="st5" d="M9.2,8.2c0,0.2,0,0.5,0.1,0.7c0.3,1.4,1.5,2.4,3,2.5c1,0.1,1.8-0.2,2.5-0.9c0.7-0.6,1.1-1.4,1.1-2.4V4.7
					h-1.5c-0.8,0-1.7,0-2.5,0c-0.8,0-1.8,0-2.7,0V8.2z"/>
				<path class="st6" d="M8.3,16.1c0,1.4-1.1,2.6-2.6,2.6c-1.4,0-2.6-1.1-2.6-2.6c0-1.4,1.1-2.6,2.6-2.6C7.1,13.5,8.3,14.7,8.3,16.1
					z M5.4,16.6c0.1,0,0.1,0,0.2,0c0.1,0,0.2,0,0.3,0.1C6,17,6.1,17.2,6.3,17.4c0,0,0.1,0.1,0.1,0.1c0.2,0,0.4,0,0.6,0
					c-0.3-0.4-0.5-0.7-0.8-1c0,0,0,0,0,0c0,0,0.1,0,0.1-0.1c0.3-0.3,0.4-0.6,0.3-0.9c-0.1-0.4-0.3-0.6-0.7-0.7c-0.3,0-0.7,0-1.1,0
					c0,0.9,0,1.8,0,2.7c0.1,0,0.3,0,0.4,0c0.1,0,0.1,0,0.1-0.1C5.4,17.1,5.4,16.9,5.4,16.6z"/>
				<path d="M20.3,17.1c0.2,0.2,0.3,0.4,0.4,0.5c0.2,0.2,0.2,0.3,0,0.5c-0.1,0.1-0.2,0.1-0.3,0.2c-0.2,0.1-0.3,0.1-0.4,0
					c-0.3-0.3-0.5-0.6-0.8-0.9c-0.3-0.3-0.6-0.7-0.9-1c-0.2-0.2-0.1-0.3,0-0.5c0.1-0.1,0.2-0.2,0.3-0.2c0.1-0.1,0.3-0.1,0.4,0
					c0.1,0.2,0.3,0.3,0.4,0.5c0.1,0.1,0.1,0.1,0.2,0.1c0.5-0.2,0.8-0.5,0.9-1.1c0-0.1,0-0.1-0.1-0.1c-0.8,0-1.6,0-2.4,0
					c-0.3,0-0.3-0.1-0.3-0.3c0-0.1,0-0.3,0-0.4c0-0.2,0.1-0.3,0.3-0.3c1,0,2.1,0,3.1,0c0.1,0,0.2,0,0.3,0c0.1,0,0.2,0.1,0.2,0.2
					c0,0.6,0.1,1.1-0.2,1.7C21.2,16.4,20.9,16.7,20.3,17.1z"/>
				<path d="M15.4,13.9c0.4,0,0.9,0,1.3,0c0.2,0,0.3,0.1,0.3,0.3c0,0.6,0,1.2,0,1.9c0,1.1-0.8,2.1-1.9,2.3c-0.1,0-0.3,0-0.4,0.1
					c-0.2,0-0.3-0.1-0.3-0.2c0-0.1-0.1-0.3-0.1-0.4c0-0.2,0.1-0.3,0.3-0.3c0.2,0,0.5,0,0.7-0.2c0.5-0.2,0.7-0.6,0.7-1.2
					c0-0.3,0-0.7,0-1c0-0.1,0-0.2-0.2-0.2c-0.4,0-0.8,0-1.2,0c-0.1,0-0.1,0-0.2,0.1c-0.1,0.2-0.2,0.4-0.2,0.6
					c-0.1,0.2-0.2,0.2-0.4,0.2c-0.1,0-0.3-0.1-0.4-0.2c-0.1-0.1-0.2-0.2-0.2-0.3c0.2-0.4,0.3-0.9,0.5-1.3c0-0.1,0.1-0.2,0.3-0.2
					C14.5,13.9,14.9,13.9,15.4,13.9z"/>
				<path d="M10.7,15.1c0.5,0,1.1,0,1.6,0c0.2,0,0.3,0.1,0.3,0.3c0,0.4,0,0.8-0.1,1.1c-0.2,1-0.9,1.7-2,1.9c-0.1,0-0.2,0-0.3,0
					c-0.2,0-0.3-0.1-0.3-0.2c0-0.1,0-0.3-0.1-0.4c0-0.2,0.1-0.3,0.3-0.3c0.3,0,0.7-0.1,0.9-0.3c0.3-0.2,0.4-0.5,0.5-0.8
					c0-0.1,0-0.2-0.1-0.2c-0.8,0-1.6,0-2.4,0c-0.2,0-0.3-0.1-0.3-0.3c0-0.1,0-0.3,0-0.4c0-0.2,0.1-0.3,0.3-0.3
					C9.6,15.1,10.2,15.1,10.7,15.1z"/>
				<path d="M10.7,14.8c-0.4,0-0.8,0-1.1,0c-0.2,0-0.3-0.1-0.3-0.3c0-0.1,0-0.3,0-0.4c0-0.2,0.1-0.3,0.3-0.3c0.8,0,1.5,0,2.3,0
					c0.2,0,0.3,0.1,0.3,0.3c0,0.1,0,0.3,0,0.4c0,0.2-0.1,0.3-0.3,0.3C11.5,14.8,11.1,14.8,10.7,14.8z"/>
				<path class="st5" d="M5.4,16.6c0,0.3,0,0.5,0,0.7c0,0.1,0,0.1-0.1,0.1c-0.1,0-0.3,0-0.4,0c0-0.9,0-1.8,0-2.7c0.4,0,0.7,0,1.1,0
					c0.4,0.1,0.6,0.3,0.7,0.7c0.1,0.4,0,0.7-0.3,0.9c0,0-0.1,0-0.1,0.1c0,0,0,0,0,0c0.2,0.3,0.5,0.7,0.8,1c-0.2,0-0.4,0-0.6,0
					c0,0-0.1,0-0.1-0.1C6.1,17.2,6,17,5.8,16.8c-0.1-0.1-0.2-0.2-0.3-0.1C5.5,16.6,5.4,16.6,5.4,16.6z M5.4,15.3
					C5.4,15.3,5.4,15.3,5.4,15.3c0,0.2,0,0.4,0,0.5c0,0.4,0,0.4,0.4,0.3c0.2,0,0.4-0.2,0.4-0.4c0-0.2-0.2-0.4-0.4-0.4
					C5.6,15.3,5.5,15.3,5.4,15.3z"/>
				<path class="st6" d="M5.4,15.3c0.1,0,0.3,0,0.4,0c0.2,0,0.4,0.2,0.4,0.4c0,0.2-0.2,0.4-0.4,0.4c-0.4,0-0.4,0-0.4-0.3
					C5.4,15.6,5.4,15.5,5.4,15.3C5.4,15.3,5.4,15.3,5.4,15.3z"/>
			</g>
		</g>
	</g>
</g>
</svg>
