<?xml version="1.0" encoding="UTF-8"?>
<svg width="92px" height="25px" viewBox="0 0 92 25" version="1.1" xmlns="http://www.w3.org/2000/svg" xmlns:xlink="http://www.w3.org/1999/xlink">
    <!-- Generator: Sketch 54.1 (76490) - https://sketchapp.com -->
    <title>logo</title>
    <desc>Created with Sketch.</desc>
    <g id="member" stroke="none" stroke-width="1" fill="none" fill-rule="evenodd">
        <g id="V-member/bargain_record" transform="translate(-546.000000, -251.000000)" fill-rule="nonzero">
            <g id="btn_mercari" transform="translate(464.000000, 238.000000)">
                <g id="logo" transform="translate(82.000000, 13.000000)">
                    <polygon id="Shape" fill="#AF1C2E" points="11.6001259 6.97332372 3.46702482 11.0129777 3.46702482 20.629416 11.6001259 16.5991348 19.723932 20.629416 19.723932 11.0129777 11.6001259 6.97332372"></polygon>
                    <polygon id="Shape" fill="#F9401C" points="14.983496 2.25883201 11.6001259 6.97332372 19.7146371 11.0129777 11.6001259 15.0432588 3.47631979 11.0129777 11.6001259 6.97332372 8.20746084 2.25883201 0.0836547541 6.29848592 3.46702482 11.0129777 3.46702482 20.629416 11.6001259 24.6596972 19.723932 20.629416 19.723932 11.0129777 23.1073021 6.29848592 14.983496 2.25883201"></polygon>
                    <path d="M9.06259836,11.0223504 C9.06259836,10.2537852 9.68536152,9.62581112 10.4475493,9.62581112 C11.219032,9.62581112 11.8325002,10.2537852 11.8325002,11.0223504 C11.8325002,11.8002884 11.209737,12.4188897 10.4475493,12.4188897 C9.68536152,12.4282624 9.06259836,11.8002884 9.06259836,11.0223504 L9.06259836,11.0223504 L9.06259836,11.0223504 Z M12.1113494,7.86373469 C12.1113494,6.59841383 13.1709763,5.57678444 14.4815674,5.57678444 C15.7921586,5.57678444 16.8517855,6.59841383 16.8517855,7.86373469 C16.8517855,9.12905551 15.7921586,10.1506849 14.4815674,10.1506849 C13.1709763,10.1506849 12.1113494,9.12905551 12.1113494,7.86373469 L12.1113494,7.86373469 L12.1113494,7.86373469 Z M5.75358809,3.03677001 C5.75358809,1.35904831 7.17571893,0 8.9231738,0 C10.6706286,0 12.0927595,1.35904831 12.0927595,3.03677001 C12.0927595,4.7144917 10.6706286,6.07354 8.9231738,6.07354 C7.17571893,6.08291276 5.75358809,4.72386447 5.75358809,3.03677001 L5.75358809,3.03677001 L5.75358809,3.03677001 Z" id="Shape" fill="#60C9F8"></path>
                    <path d="M9.88985094,20.6575342 L8.94176371,20.1888969 L8.94176371,18.0706561 C8.94176371,17.8550829 8.89528886,17.6770007 8.81163408,17.5457823 C8.72797931,17.4145638 8.57925977,17.2927181 8.36547541,17.1896179 C8.17028097,17.0958904 8.03085635,17.0677722 7.93790665,17.0958904 C7.84495694,17.1333814 7.79848209,17.2458544 7.78918711,17.4333093 L7.78918711,19.6077866 L6.89686971,19.1672675 L6.89686971,17.0490267 C6.89686971,16.8334535 6.85039486,16.6553713 6.75744515,16.5241529 C6.6644954,16.3835616 6.51577586,16.2710887 6.31128643,16.1679885 C6.10679706,16.0648883 5.95807751,16.03677 5.86512776,16.0836337 C5.77217805,16.1304975 5.73499813,16.2617159 5.73499813,16.4772891 L5.73499813,18.5955299 L4.80550087,18.1362653 L4.80550087,15.924297 C4.80550087,15.5025234 4.94492546,15.258832 5.21447966,15.1932228 C5.4840339,15.1276136 5.85583278,15.2119683 6.32058141,15.4369142 C6.55295573,15.5493871 6.75744515,15.6806056 6.92475465,15.8305696 C7.10135914,15.9805335 7.2407837,16.1304975 7.36161835,16.2992069 C7.482453,16.2617159 7.63117254,16.2523432 7.79848209,16.2617159 C7.96579159,16.2804614 8.16098598,16.3460707 8.38406532,16.4491709 C8.84881401,16.6741168 9.22061288,16.9552992 9.49016712,17.2927181 C9.75972131,17.630137 9.89914592,18.0050468 9.89914592,18.4268205 L9.89914592,20.6575342 L9.88985094,20.6575342 L9.88985094,20.6575342 L9.88985094,20.6575342 Z" id="Shape" fill="#FFFFFF"></path>
                    <g id="Shape" transform="translate(25.932974, 4.967556)" fill="#231815">
                        <path d="M11.1818521,13.3093007 L11.1818521,7.61067051 C11.1818521,7.0295602 11.0610175,6.61715934 10.8286431,6.37346791 C10.5869739,6.12977648 10.1872901,6.00793082 9.62959168,6.00793082 C9.09977828,6.00793082 8.71868438,6.12040372 8.4677201,6.33597694 C8.21675587,6.56092286 8.07733126,6.92646 8.0587413,7.44196107 L8.0587413,13.3093007 L5.66063833,13.3093007 L5.66063833,7.61067051 C5.66063833,7.0295602 5.53980368,6.61715934 5.29813444,6.37346791 C5.05646514,6.12977648 4.64748633,6.00793082 4.08978797,6.00793082 C3.52279465,6.00793082 3.12311083,6.12977648 2.89073649,6.37346791 C2.64906721,6.61715934 2.53752753,7.0295602 2.53752753,7.61067051 L2.53752753,13.3093007 L0.0371798907,13.3093007 L0.0371798907,7.34823357 C0.0371798907,6.21413122 0.399683826,5.37995673 1.12469169,4.83633741 C1.84969956,4.30209084 2.84426164,4.03028119 4.10837791,4.03028119 C4.73114109,4.03028119 5.27954447,4.1146359 5.74429311,4.28334535 C6.20904174,4.4520548 6.59943058,4.67700071 6.92475465,4.95818313 C7.25007868,4.6957462 7.64046752,4.47080029 8.08662624,4.29271809 C8.54207989,4.1146359 9.06259836,4.03028119 9.6667716,4.03028119 C10.9215929,4.03028119 11.916155,4.30209084 12.6411629,4.83633741 C13.3754657,5.37058398 13.7379696,6.20475847 13.7379696,7.34823357 L13.7379696,13.3093007 L11.1818521,13.3093007 L11.1818521,13.3093007 L11.1818521,13.3093007 Z M24.9291167,13.2718097 C24.8082821,13.2999279 24.6502676,13.3280461 24.4829581,13.3561644 C24.3063536,13.3842826 24.0925692,13.4124009 23.823015,13.4405191 C23.5627557,13.4686373 23.2467267,13.4873829 22.8842227,13.5061283 C22.5217188,13.5248738 22.09415,13.5342466 21.6108115,13.5342466 C20.755674,13.5342466 19.9841913,13.4498919 19.2963633,13.2811824 C18.5992403,13.112473 18.0043621,12.8406633 17.4931386,12.4563807 C16.981915,12.0814708 16.5915262,11.5753424 16.321972,10.9567412 C16.0431228,10.3381398 15.9129932,9.5789474 15.9129932,8.68853643 C15.9129932,8.07930786 16.0338279,7.49819755 16.2662022,6.93583276 C16.5078715,6.37346791 16.8424905,5.87671235 17.2700592,5.44556597 C17.697628,5.01441961 18.2181464,4.67700071 18.8223197,4.41456381 C19.4264929,4.15212688 20.0957309,4.03028119 20.8300337,4.03028119 C21.3970271,4.03028119 21.9268405,4.1146359 22.4380641,4.2739726 C22.9492875,4.44268205 23.3861512,4.68637346 23.7672451,5.0331651 C24.148339,5.37058398 24.4550731,5.80173036 24.6781524,6.32660418 C24.9012318,6.85147801 25.0127715,7.47945204 25.0127715,8.21052633 L25.0127715,8.60418168 C25.0127715,8.75414561 25.0034765,8.90410959 24.9941815,9.03532806 L18.3110962,9.03532806 C18.3482761,9.50396541 18.4505207,9.88824801 18.6271252,10.1881759 C18.8037297,10.4881038 19.036104,10.7317953 19.3428381,10.9098774 C19.6402773,11.0879596 20.0027812,11.2098054 20.4303499,11.2754145 C20.8579187,11.3410238 21.3319623,11.3785148 21.8524808,11.3785148 C22.6611434,11.3785148 23.3303814,11.3503965 23.8416049,11.2941601 C24.3528284,11.2379236 24.7153323,11.1816871 24.9291167,11.1160779 L24.9291167,13.2718097 L24.9291167,13.2718097 L24.9291167,13.2718097 Z M22.447359,7.38572459 C22.447359,6.97332372 22.3079344,6.61715934 22.0383802,6.31723143 C21.759531,6.01730352 21.3412573,5.87671235 20.7835589,5.87671235 C20.2258606,5.87671235 19.7518169,6.00793082 19.380018,6.27974046 C19.0082191,6.5515501 18.7293699,6.91708724 18.5527654,7.38572459 L22.447359,7.38572459 L22.447359,7.38572459 L22.447359,7.38572459 Z M27.1970901,13.3093007 L27.1970901,8.11679888 C27.1970901,6.81398704 27.5874788,5.81110311 28.3775515,5.0894016 C29.1676242,4.37707283 30.2644311,4.02090844 31.658677,4.02090844 C31.8631664,4.02090844 32.0304759,4.02090844 32.1884905,4.03028119 C32.3372099,4.03965394 32.4766346,4.04902668 32.5881742,4.05839943 C32.7090088,4.06777217 32.8205486,4.08651766 32.9320882,4.10526316 C33.0436278,4.12400865 33.1737575,4.14275414 33.3038871,4.15212688 L33.3038871,6.17664026 C33.0808078,6.13914923 32.8391385,6.11103097 32.5881742,6.08291276 C32.3372099,6.05479454 32.1141307,6.04542179 31.9096411,6.04542179 C31.2311083,6.04542179 30.7012948,6.21413122 30.3109058,6.5515501 C29.9205171,6.88896903 29.7253227,7.38572459 29.7253227,8.04181689 L29.7253227,13.3093007 L27.1970901,13.3093007 L27.1970901,13.3093007 L27.1970901,13.3093007 Z M41.9668016,13.3842826 C41.7065423,13.4217736 41.4091033,13.4592646 41.0744842,13.4873829 C40.7398652,13.5155011 40.3959511,13.5342466 40.0334472,13.5342466 C39.1783099,13.5342466 38.4068271,13.4498919 37.7189991,13.2905552 C37.0218761,13.1312185 36.426998,12.8687815 35.9157745,12.5032444 C35.404551,12.14708 35.0141622,11.6784427 34.7446077,11.1067051 C34.4657586,10.5349676 34.3356291,9.84138429 34.3356291,9.03532806 C34.3356291,8.19178082 34.4750535,7.45133383 34.753903,6.8327325 C35.0327521,6.20475847 35.4231408,5.6892574 35.9250694,5.26748378 C36.426998,4.85508291 37.0218761,4.54578228 37.7189991,4.33958182 C38.416122,4.13338139 39.169015,4.03965394 39.9962675,4.03965394 C40.3587714,4.03965394 40.7026853,4.05839943 41.0280095,4.08651766 C41.3533333,4.1146359 41.6507726,4.15212688 41.9110319,4.18961789 L41.9110319,6.21413122 C41.6879524,6.1672675 41.446283,6.12977648 41.1860238,6.10165827 C40.9257646,6.07354 40.6097356,6.06416724 40.2379368,6.06416724 C39.1411299,6.06416724 38.3045824,6.28911316 37.728294,6.74837781 C37.1613008,7.19826964 36.8731567,7.93871668 36.8731567,8.96034607 C36.8731567,9.8695025 37.1613008,10.5255948 37.7375889,10.9192502 C38.3138774,11.3129056 39.1597197,11.519106 40.2751166,11.519106 C40.6376205,11.519106 40.9536497,11.5097333 41.2324988,11.481615 C41.511348,11.4534967 41.7530173,11.4160058 41.9668016,11.369142 L41.9668016,13.3842826 L41.9668016,13.3842826 L41.9668016,13.3842826 Z M52.9627545,13.3093007 L50.7133708,13.3093007 L50.7133708,11.9502523 C50.5274714,12.2876712 50.1649675,12.7750541 49.6723341,13.074982 C49.3191251,13.2999279 48.7242468,13.5342466 48.0828937,13.5342466 C47.4415405,13.5342466 46.8652523,13.4311463 46.3447338,13.2249459 C45.8242153,13.0187455 45.3780566,12.7188176 45.0062578,12.3345349 C44.6344587,11.9502523 44.3370196,11.481615 44.1325303,10.9379957 C43.9280407,10.3850036 43.8257961,9.77577505 43.8257961,9.09156454 C43.8257961,8.36986301 43.9280407,7.70439796 44.1325303,7.08579668 C44.3370196,6.46719536 44.6437538,5.93294883 45.0341426,5.48305694 C45.4245314,5.0331651 45.917165,4.68637346 46.4841582,4.42393656 C47.0604467,4.16149963 47.7110947,4.03965394 48.4361027,4.03965394 C49.1239305,4.03965394 49.7466937,4.13338139 50.3043922,4.33020908 C50.8620907,4.52703676 51.3361339,4.81759192 51.726523,5.2112473 C52.1169116,5.60490265 52.423646,6.09228551 52.6374302,6.69214133 C52.8512148,7.28262439 52.9534593,7.97620765 52.9534593,8.77289112 L52.9534593,13.3093007 L52.9627545,13.3093007 L52.9627545,13.3093007 L52.9627545,13.3093007 Z M46.9396121,6.73900505 C46.567813,7.18889689 46.3726187,7.8731074 46.3726187,8.78226388 C46.3726187,9.69142031 46.5585181,10.2819034 46.9396121,10.7317953 C47.3114109,11.1816871 47.8226345,11.3222783 48.4639876,11.3222783 C49.0216858,11.3222783 49.6258591,10.7974045 49.8768234,10.5255948 C50.3229821,10.0382119 50.5460613,9.39149245 50.5460613,8.78226388 C50.5460613,7.8731074 50.3601619,7.18889689 49.9790681,6.73900505 C49.6072692,6.28911316 49.0960457,6.05479454 48.4546926,6.05479454 C47.8226345,6.05479454 47.3207059,6.27974046 46.9396121,6.73900505 L46.9396121,6.73900505 L46.9396121,6.73900505 Z M55.3143822,13.3093007 L55.3143822,8.11679888 C55.3143822,6.81398704 55.7047713,5.81110311 56.4948442,5.0894016 C57.2849165,4.37707283 58.3817233,4.02090844 59.7759694,4.02090844 C59.9804584,4.02090844 60.1477682,4.02090844 60.3057827,4.03028119 C60.4545021,4.03965394 60.5939268,4.04902668 60.7054665,4.05839943 C60.8263014,4.06777217 60.937841,4.08651766 61.0493802,4.10526316 C61.1609204,4.12400865 61.2910499,4.14275414 61.4211794,4.15212688 L61.4211794,6.17664026 C61.1981001,6.13914923 60.9564309,6.11103097 60.7054665,6.08291276 C60.4545021,6.05479454 60.2314228,6.04542179 60.0269338,6.04542179 C59.3484006,6.04542179 58.8185868,6.21413122 58.4281982,6.5515501 C58.0378091,6.88896903 57.8426149,7.38572459 57.8426149,8.04181689 L57.8426149,13.3093007 L55.3143822,13.3093007 L55.3143822,13.3093007 L55.3143822,13.3093007 Z M64.4513403,3.1961067 C64.023772,3.1961067 63.6798578,3.04614275 63.4195983,2.7368421 C63.1593392,2.42754145 63.0292097,2.05263158 63.0292097,1.61211247 C63.0292097,1.17159337 63.1593392,0.806056235 63.4195983,0.506128334 C63.6798578,0.206200433 64.0330667,0.0656092286 64.4699307,0.0656092286 C64.897499,0.0656092286 65.2414132,0.21557318 65.5016727,0.506128334 C65.7619318,0.806056235 65.8920613,1.17159337 65.8920613,1.61211247 C65.8920613,2.05263158 65.7619318,2.42754145 65.5016727,2.7368421 C65.2414132,3.04614275 64.8882043,3.1961067 64.4513403,3.1961067 L64.4513403,3.1961067 L64.4513403,3.1961067 Z M63.1593392,13.3093007 L63.1593392,4.26459986 L65.7154569,4.26459986 L65.7154569,13.3093007 L63.1593392,13.3093007 L63.1593392,13.3093007 L63.1593392,13.3093007 Z"></path>
                    </g>
                </g>
            </g>
        </g>
    </g>
</svg>