<?xml version="1.0" encoding="utf-8"?>
<!-- Generator: Adobe Illustrator 21.1.0, SVG Export Plug-In . SVG Version: 6.00 Build 0)  -->
<svg version="1.1" id="圖層_1" xmlns="http://www.w3.org/2000/svg" xmlns:xlink="http://www.w3.org/1999/xlink" x="0px" y="0px"
	 viewBox="0 0 84.6 15" style="enable-background:new 0 0 84.6 15;" xml:space="preserve">
<style type="text/css">
	.st0{fill:#FFFFFF;}
	.st1{fill:#3F3A39;}
	.st2{fill:#FF0033;}
</style>
<title>下載</title>
<desc>Created with Sketch.</desc>
<g id="member">
	<g id="V-member_x2F_bargain_x5F_record" transform="translate(-1060.000000, -251.000000)">
		<g id="Group-2" transform="translate(1002.000000, 238.000000)">
			<g id="下載" transform="translate(58.000000, 13.000000)">
				<path id="Path" class="st0" d="M12.6,0c1.2,0,2.2,1,2.2,2.2v10.5c0,1.2-1,2.2-2.2,2.2H2.1c-1.2,0-2.2-1-2.2-2.2V4.6V2.1
					c0-1.2,1-2.1,2.2-2.1H12.6z"/>
				<path id="Shape" class="st1" d="M42.4,2.7c-0.8,0-1.2,0-1.2,0h-1.4c-0.2,0-0.4,0.2-0.4,0.4v8.4h1.9v-3c0,0,0.5,0,1.2,0
					c1.8,0,3.4-1.1,3.4-3S44.2,2.7,42.4,2.7z M41.2,7.7v-4c0,0,0.6,0,1.2,0c0.9,0,1.9,0.7,1.9,1.9s-1,2.1-1.9,2.1S41.2,7.7,41.2,7.7
					z M49,5c-1.4,0-2.2,0.4-2.2,0.4L47,5.9c0,0,0.5-0.2,1.6-0.2S50,6.2,50,7v0.4c-0.2-0.1-0.8-0.2-1.4-0.2c-0.9,0-2.3,0.5-2.3,2.3
					c0,1.7,1.3,2.2,2.2,2.2c0.7,0,1.2-0.2,1.6-0.5v0.4H52V6.9C51.9,5.4,50.4,5,49,5z M49.1,10.9c-0.8,0-1.4-0.6-1.4-1.5
					S48.5,8,49.2,8c0.4,0,0.7,0.1,0.8,0.2v2.3C49.8,10.6,49.5,10.9,49.1,10.9z M56.2,12.4c-0.5,1.3-1.5,1.4-1.9,1.4
					c-0.4,0.1-0.9,0-0.9,0v-1c0.8,0,1.3,0.1,1.7-0.9l0.4-0.8L52.4,5h1.9l2,4l1.8-4h1.3C59.5,5,56.8,11.1,56.2,12.4z M21,2.7
					c-0.8,0-1.2,0-1.2,0h-1.4c-0.2,0-0.4,0.2-0.4,0.5v8.4h1.9v-3c0,0,0.5,0,1.2,0c1.8,0,3.4-1.1,3.4-3C24.5,3.6,22.8,2.7,21,2.7z
					 M19.8,7.7v-4c0,0,0.6,0,1.2,0c0.9,0,1.9,0.7,1.9,1.9s-1,2.1-1.9,2.1C20.2,7.7,19.8,7.7,19.8,7.7z M27.6,5
					c-1.4,0-2.2,0.4-2.2,0.4l0.2,0.5c0,0,0.5-0.2,1.6-0.2s1.4,0.5,1.4,1.3v0.4c-0.2-0.1-0.8-0.2-1.4-0.2c-0.9,0-2.3,0.5-2.3,2.3
					c0,1.7,1.3,2.2,2.2,2.2c0.7,0,1.2-0.2,1.6-0.5v0.4h1.9V6.9C30.5,5.4,29.1,5,27.6,5z M27.7,10.9c-0.8,0-1.4-0.6-1.4-1.5
					S27.1,8,27.8,8c0.4,0,0.7,0.1,0.8,0.2v2.3C28.4,10.6,28.2,10.9,27.7,10.9z M34.9,12.4c-0.5,1.3-1.5,1.4-1.9,1.4
					c-0.4,0.1-0.9,0-0.9,0v-1c0.8,0,1.3,0.1,1.7-0.9l0.4-0.8l-3-6.1H33l2,4l1.8-4h1.3C38.1,5,35.5,11.1,34.9,12.4z"/>
				<path id="Shape_1_" class="st2" d="M2.7,14.9H2.1c-1.2,0-2.2-1-2.2-2.2V4.6c2-0.2,3.9-0.2,5.5-0.1L2.7,14.9z M11.8,8
					c0.4-1.4-1.9-2.8-5.7-3.3l-1.3,5.6C7.9,10.4,11.4,9.5,11.8,8z M12.6,0H2.1C0.9,0-0.1,0.9-0.1,2.1C8.7,1.8,13,4.9,12.3,8
					c-0.6,2.8-3.4,3.8-8,4.2L3.7,15h8.9c1.2,0,2.2-1,2.2-2.2V2.2C14.9,1,13.8,0,12.6,0z"/>
				<polygon id="Path_1_" class="st1" points="72.4,4.6 71,4.6 71,9 72.4,9 				"/>
				<path id="Path_2_" class="st1" d="M72.1,11.3V12c0.2,0,2.1-0.2,3-1c0.8-0.7,1.2-1.7,1.3-3.1l0,0V7.4V4.6H75V5v2.5
					C75,9.5,74.5,10.9,72.1,11.3C72.2,11.3,72.1,11.3,72.1,11.3z"/>
				<path id="Path_3_" class="st1" d="M81.2,9.3L79.9,8l0,0l-0.6,0.5l0,0l2.4,3.4l0,0c0.1,0.1,0.3,0.2,0.5,0.1l0.7-0.5l0,0
					c0.1-0.1,0.2-0.3,0.1-0.5l0,0l-1-1c1.9-1.9,3-3.5,3-4.4c0-0.2-0.2-0.5-0.5-0.5h-0.2h-0.2h-0.3h-4.1h-1.1v0.5V6l0,0h4.8
					C82.8,6.9,82,8.2,81.2,9.3z"/>
				<path id="Path_4_" class="st1" d="M63,10.9v0.8l0,0c0.2,0,2.4-0.7,4-2.2c1-0.9,1.5-2.1,1.7-2.9l0,0c0,0,0.2-0.7,0.2-1.1l0,0l0,0
					V5.4c0-0.2-0.2-0.5-0.5-0.5l0,0l0,0h-5.9l0,0l0,0l0,0v1h4.7C67,8.3,65.3,10.2,63,10.9z"/>
			</g>
		</g>
	</g>
</g>
</svg>
