<?xml version="1.0" encoding="UTF-8"?>
<svg width="218px" height="43px" viewBox="0 0 218 43" version="1.1" xmlns="http://www.w3.org/2000/svg" xmlns:xlink="http://www.w3.org/1999/xlink">
    <!-- Generator: Sketch 54.1 (76490) - https://sketchapp.com -->
    <title>btn_mercari copy</title>
    <desc>Created with Sketch.</desc>
    <defs>
        <linearGradient x1="50%" y1="0.749638728%" x2="50%" y2="100%" id="linearGradient-1">
            <stop stop-color="#FFFFFF" offset="0%"></stop>
            <stop stop-color="#F5F7F8" offset="100%"></stop>
        </linearGradient>
    </defs>
    <g id="index" stroke="none" stroke-width="1" fill="none" fill-rule="evenodd">
        <g id="index#mercari" transform="translate(-730.000000, -501.000000)">
            <g id="btn_mercari-copy" transform="translate(730.000000, 501.000000)">
                <path d="M4,0.5 C2.06700338,0.5 0.5,2.06700338 0.5,4 L0.5,39 C0.5,40.9329966 2.06700338,42.5 4,42.5 L214,42.5 C215.932997,42.5 217.5,40.9329966 217.5,39 L217.5,4 C217.5,2.06700338 215.932997,0.5 214,0.5 L4,0.5 Z" id="Rectangle-3" stroke="#D8D8D8" fill="url(#linearGradient-1)"></path>
                <g id="下載" transform="translate(33.000000, 8.000000)" fill-rule="nonzero">
                    <path d="M22.8694737,0 C25.0531579,0 26.8389474,1.78578947 26.8389474,3.96947368 L26.8389474,22.8694737 C26.8389474,25.0531579 25.0531579,26.8389474 22.8694737,26.8389474 L3.96947368,26.8389474 C1.78578947,26.8389474 0,25.0531579 0,22.8694737 L0,8.39842105 L0.00947368421,3.75631579 C0.123157895,1.67210526 1.85684211,0 3.96947368,0 L22.8694737,0 Z" id="Path" fill="#FFFFFF"></path>
                    <path d="M76.2347368,5.01622105 C74.6952632,5.01622105 74.0415789,5.01622105 74.0415789,5.01622105 L71.4789474,5.01622105 C71.0431579,5.01622105 70.6926316,5.36674737 70.6926316,5.80253684 L70.6926316,20.7804316 L74.0415789,20.7804316 L74.0415789,15.4230632 C74.0415789,15.4230632 75.0173684,15.4230632 76.2347368,15.4230632 C79.4747368,15.4230632 82.4115789,13.4004316 82.4115789,9.97569474 C82.4115789,6.55095789 79.4747368,5.01622105 76.2347368,5.01622105 Z M74.0415789,13.8125368 L74.0415789,6.62674737 C74.0415789,6.62674737 75.0742105,6.63148421 76.2347368,6.63148421 C77.8784211,6.63148421 79.6878947,7.87727368 79.6878947,10.0135895 C79.6878947,12.1499053 77.8736842,13.8125368 76.2347368,13.8125368 C74.6431579,13.8125368 74.0415789,13.8125368 74.0415789,13.8125368 Z M88.1147368,8.97622105 C85.5805263,8.97622105 84.2778947,9.59674737 84.2778947,9.59674737 L84.5857895,10.5346421 C84.5857895,10.5346421 85.5426316,10.0941158 87.4089474,10.0941158 C89.4884211,10.0941158 89.91,11.1030632 89.91,12.4814842 L89.8815789,13.0972737 C89.4363158,12.9646421 88.3942105,12.7941158 87.3284211,12.7941158 C85.7415789,12.7941158 83.1268421,13.7699053 83.1268421,16.9625368 C83.1268421,19.9988526 85.4336842,20.9888526 87.0678947,20.9888526 C88.4178947,20.9888526 89.2421053,20.5720105 89.9052632,20.1599053 L89.9052632,20.7851684 L93.2494737,20.7851684 L93.2494737,12.4814842 C93.2636842,9.85727368 90.6536842,8.97622105 88.1147368,8.97622105 Z M88.2568421,19.5062211 C86.8026316,19.5062211 85.7605263,18.4356947 85.7605263,16.8488526 C85.7605263,15.2620105 87.1578947,14.3335895 88.4273684,14.3335895 C89.0668421,14.3335895 89.6778947,14.5088526 89.9147368,14.7125368 L89.9147368,18.7720105 C89.5073684,19.1320105 89.0289474,19.5062211 88.2568421,19.5062211 Z M101.084211,22.2109579 C100.065789,24.4609579 98.3936842,24.7499053 97.6452632,24.8399053 C96.8589474,24.9299053 96.0157895,24.8920105 96.0157895,24.8920105 L96.0157895,23.0541158 C97.5078947,23.0541158 98.3178947,23.1725368 99.1989474,21.4246421 L99.7957895,19.9088526 L94.2963158,8.97148421 L97.8063158,8.97148421 L101.411053,16.2425368 L104.598947,8.97148421 L106.882109,8.97148421 C106.886842,8.97622105 102.102632,19.9656947 101.084211,22.2109579 Z M37.9373684,5.01622105 C36.3978947,5.01622105 35.7442105,5.01622105 35.7442105,5.01622105 L33.1815789,5.01622105 C32.7457895,5.01622105 32.3952632,5.36674737 32.3952632,5.80253684 L32.3952632,20.7804316 L35.7442105,20.7804316 L35.7442105,15.4230632 C35.7442105,15.4230632 36.72,15.4230632 37.9373684,15.4230632 C41.1773684,15.4230632 44.1142105,13.4004316 44.1142105,9.97569474 C44.1189474,6.55095789 41.1821053,5.01622105 37.9373684,5.01622105 Z M35.7489474,13.8125368 L35.7489474,6.62674737 C35.7489474,6.62674737 36.7815789,6.63148421 37.9421053,6.63148421 C39.5857895,6.63148421 41.3952632,7.87727368 41.3952632,10.0135895 C41.3952632,12.1499053 39.5810526,13.8125368 37.9421053,13.8125368 C36.3457895,13.8125368 35.7489474,13.8125368 35.7489474,13.8125368 Z M49.8221053,8.97622105 C47.2878947,8.97622105 45.9852632,9.59674737 45.9852632,9.59674737 L46.2931579,10.5346421 C46.2931579,10.5346421 47.2452632,10.0941158 49.1163158,10.0941158 C51.1957895,10.0941158 51.6173684,11.1030632 51.6173684,12.4814842 L51.5889474,13.0972737 C51.1436842,12.9646421 50.1015789,12.7941158 49.0357895,12.7941158 C47.4536842,12.7941158 44.8342105,13.7699053 44.8342105,16.9625368 C44.8342105,19.9988526 47.1410526,20.9888526 48.7752632,20.9888526 C50.1252632,20.9888526 50.9447368,20.5720105 51.6126316,20.1599053 L51.6126316,20.7851684 L54.9568421,20.7851684 L54.9568421,12.4814842 C54.9663158,9.85727368 52.3563158,8.97622105 49.8221053,8.97622105 Z M49.9642105,19.5062211 C48.51,19.5062211 47.4678947,18.4356947 47.4678947,16.8488526 C47.4678947,15.2620105 48.8652632,14.3335895 50.1347368,14.3335895 C50.7742105,14.3335895 51.3852632,14.5088526 51.6221053,14.7125368 L51.6221053,18.7720105 C51.21,19.1320105 50.7315789,19.5062211 49.9642105,19.5062211 Z M62.7868421,22.2109579 C61.7684211,24.4609579 60.0963158,24.7499053 59.3478947,24.8399053 C58.5615789,24.9299053 57.7184211,24.8920105 57.7184211,24.8920105 L57.7184211,23.0541158 C59.2105263,23.0541158 60.0205263,23.1725368 60.9015789,21.4246421 L61.4984211,19.9088526 L55.9989474,8.97148421 L59.5089474,8.97148421 L63.1136842,16.2425368 L66.3015789,8.97148421 L68.5847404,8.97148421 C68.5894737,8.97622105 63.8052632,19.9656947 62.7868421,22.2109579 Z" id="Shape" fill="#3F3A39"></path>
                    <path d="M5.22473684,26.8389474 L3.96947368,26.8389474 C1.78578947,26.8389474 0,25.0531579 0,22.8694737 L0,8.39842105 C3.56210526,8.03842105 6.88263158,8.04789474 9.79578947,8.32736842 L5.22473684,26.8389474 Z M21.3678947,14.3289474 C21.9978947,11.7663158 17.8626316,9.39315789 11.2452632,8.49789474 L8.84368421,18.4926316 C14.3905263,18.7578947 20.6905263,17.0857895 21.3678947,14.3289474 Z M22.8694737,0 L3.96947368,0 C1.85684211,0 0.123157895,1.67210526 0.00947368421,3.75631579 C15.8352632,3.31105263 23.5326316,8.81526316 22.3247368,14.3052632 C21.2352632,19.2457895 16.2142105,21.1405263 8.05736842,21.7657895 L6.83526316,26.8436842 L22.8694737,26.8436842 C25.0531579,26.8436842 26.8389474,25.0578947 26.8389474,22.8742105 L26.8389474,3.96947368 C26.8389474,1.78578947 25.0531579,0 22.8694737,0 Z" id="Shape" fill="#FF0033"></path>
                    <polygon id="Path" fill="#3F3A39" points="130.097368 8.41736842 127.558421 8.41736842 127.558421 16.2094737 130.097368 16.2094737"></polygon>
                    <path d="M129.647368,20.3542105 L129.647368,21.5905263 C130.106842,21.5668421 133.394211,21.1736842 135.004737,19.7715789 C136.416316,18.5257895 137.155263,16.6452632 137.235789,14.2342105 L137.254737,14.2342105 L137.254737,13.41 L137.254737,8.41736842 L134.692105,8.41736842 L134.692105,9.11842105 L134.692105,13.6136842 C134.692105,17.2089474 133.896316,19.6863158 129.661579,20.3494737 C129.661579,20.3494737 129.652105,20.3542105 129.647368,20.3542105 Z" id="Path" fill="#3F3A39"></path>
                    <path d="M145.8,16.7068421 L143.417368,14.3289474 C143.412632,14.3242105 143.412632,14.3194737 143.407895,14.31 L142.304211,15.2431579 C142.308947,15.2478947 142.313684,15.2526316 142.318421,15.2573684 L146.643158,21.3821053 C146.647895,21.3868421 146.647895,21.3915789 146.652632,21.4010526 C146.856316,21.6426316 147.221053,21.6757895 147.462632,21.4721053 L148.656316,20.4631579 C148.661053,20.4584211 148.665789,20.4584211 148.675263,20.4536842 C148.916842,20.25 148.95,19.8852632 148.746316,19.6436842 C148.741579,19.6389474 148.736842,19.6342105 148.732105,19.6294737 L146.846842,17.7536842 C150.181579,14.3052632 152.218421,11.4678947 152.218421,9.88578947 C152.218421,9.45947368 151.848947,9.01894737 151.394211,9.01894737 C151.384737,9.01894737 150.958421,9.01894737 150.958421,9.01894737 L150.574737,9.01894737 L150.025263,9.01894737 L142.635789,9.01894737 L140.575263,9.01894737 L140.575263,10.0136842 L140.575263,10.6389474 L140.575263,10.8094737 L149.248421,10.8094737 C148.765263,12.5336842 147.306316,14.8405263 145.8,16.7068421 Z" id="Path" fill="#3F3A39"></path>
                    <path d="M113.224737,19.6247368 L113.224737,21.1831579 C113.238947,21.1831579 113.253158,21.1878947 113.272105,21.1878947 C113.660526,21.1878947 117.625263,19.9278947 120.348947,17.3321053 C122.063684,15.6931579 122.996842,13.5663158 123.470526,12.1026316 L123.470526,12.1073684 C123.470526,12.1073684 123.887368,10.8189474 123.93,10.1273684 L123.934737,10.1273684 L123.934737,9.95684211 L123.934737,9.80526316 C123.934737,9.35052632 123.565263,8.98105263 123.110526,8.98105263 C123.101053,8.98105263 123.091579,8.98578947 123.082105,8.98578947 L123.082105,8.98105263 L112.452632,8.98105263 L112.452632,8.98578947 L112.452632,8.99526316 L112.452632,9.01421053 L112.452632,10.8047368 L120.836842,10.8047368 C120.320526,14.9778947 117.255789,18.4073684 113.224737,19.6247368 Z" id="Path" fill="#3F3A39"></path>
                </g>
            </g>
        </g>
    </g>
</svg>