<?xml version="1.0" encoding="UTF-8"?>
<svg width="218px" height="43px" viewBox="0 0 218 43" version="1.1" xmlns="http://www.w3.org/2000/svg" xmlns:xlink="http://www.w3.org/1999/xlink">
    <!-- Generator: Sketch 54.1 (76490) - https://sketchapp.com -->
    <title>btn_mercari</title>
    <desc>Created with Sketch.</desc>
    <defs>
        <linearGradient x1="50%" y1="0.749638728%" x2="50%" y2="100%" id="linearGradient-1">
            <stop stop-color="#FFFFFF" offset="0%"></stop>
            <stop stop-color="#F5F7F8" offset="100%"></stop>
        </linearGradient>
    </defs>
    <g id="index-V" stroke="none" stroke-width="1" fill="none" fill-rule="evenodd">
        <g id="mercari" transform="translate(-368.000000, -652.000000)">
            <g id="Group-20" transform="translate(368.000000, 589.000000)">
                <g id="btn_mercari" transform="translate(0.000000, 63.000000)">
                    <path d="M4,0.5 C2.06700338,0.5 0.5,2.06700338 0.5,4 L0.5,39 C0.5,40.9329966 2.06700338,42.5 4,42.5 L214,42.5 C215.932997,42.5 217.5,40.9329966 217.5,39 L217.5,4 C217.5,2.06700338 215.932997,0.5 214,0.5 L4,0.5 Z" id="Rectangle-3" stroke="#D8D8D8" fill="url(#linearGradient-1)"></path>
                    <g id="logo" transform="translate(59.000000, 8.000000)" fill-rule="nonzero">
                        <polygon id="Shape" fill="#AF1C2E" points="12.528136 7.53118962 3.7443868 11.8940159 3.7443868 22.2797693 12.528136 17.9270656 21.3018466 22.2797693 21.3018466 11.8940159 12.528136 7.53118962"></polygon>
                        <polygon id="Shape" fill="#F9401C" points="16.1821756 2.43953857 12.528136 7.53118962 21.291808 11.8940159 12.528136 16.2467195 3.75442537 11.8940159 12.528136 7.53118962 8.8640577 2.43953857 0.0903471344 6.80236479 3.7443868 11.8940159 3.7443868 22.2797693 12.528136 26.632473 21.3018466 22.2797693 21.3018466 11.8940159 24.9558862 6.80236479 16.1821756 2.43953857"></polygon>
                        <path d="M9.78760623,11.9041384 C9.78760623,11.074088 10.4601904,10.395876 11.2833532,10.395876 C12.1165546,10.395876 12.7791002,11.074088 12.7791002,11.9041384 C12.7791002,12.7443114 12.106516,13.4124009 11.2833532,13.4124009 C10.4601904,13.4225234 9.78760623,12.7443114 9.78760623,11.9041384 L9.78760623,11.9041384 L9.78760623,11.9041384 Z M13.0802574,8.49283347 C13.0802574,7.12628693 14.2246544,6.02292719 15.6400928,6.02292719 C17.0555313,6.02292719 18.1999283,7.12628693 18.1999283,8.49283347 C18.1999283,9.85937995 17.0555313,10.9627397 15.6400928,10.9627397 C14.2246544,10.9627397 13.0802574,9.85937995 13.0802574,8.49283347 L13.0802574,8.49283347 L13.0802574,8.49283347 Z M6.21387514,3.27971161 C6.21387514,1.46777217 7.74977645,0 9.6370277,0 C11.5242789,0 13.0601802,1.46777217 13.0601802,3.27971161 C13.0601802,5.09165103 11.5242789,6.5594232 9.6370277,6.5594232 C7.74977645,6.56954578 6.21387514,5.10177363 6.21387514,3.27971161 L6.21387514,3.27971161 L6.21387514,3.27971161 Z" id="Shape" fill="#60C9F8"></path>
                        <path d="M10.681039,22.310137 L9.65710481,21.8040086 L9.65710481,19.5163086 C9.65710481,19.2834895 9.60691197,19.0911608 9.51656481,18.9494449 C9.42621765,18.8077289 9.26560055,18.6761356 9.03471344,18.5647873 C8.82390344,18.4635616 8.67332486,18.433194 8.57293918,18.4635616 C8.4725535,18.5040519 8.42236066,18.6255227 8.41232208,18.827974 L8.41232208,21.1764095 L7.44861929,20.7006489 L7.44861929,18.4129488 C7.44861929,18.1801298 7.39842645,17.987801 7.29804077,17.8460851 C7.19765503,17.6942466 7.03703792,17.5727758 6.81618934,17.4614275 C6.59534082,17.3500793 6.43472372,17.3197116 6.33433798,17.3703244 C6.2339523,17.4209373 6.19379798,17.5626532 6.19379798,17.7954723 L6.19379798,20.0831723 L5.18994093,19.5871665 L5.18994093,17.1982408 C5.18994093,16.7427253 5.3405195,16.4795386 5.63163803,16.4086806 C5.92275661,16.3378227 6.3242994,16.4289257 6.82622792,16.6718674 C7.07719219,16.7933381 7.29804077,16.9350541 7.47873503,17.0970152 C7.66946787,17.2589762 7.82004639,17.4209373 7.95054781,17.6031435 C8.08104923,17.5626532 8.24166634,17.5525306 8.42236066,17.5626532 C8.60305492,17.5828983 8.81386486,17.6537563 9.05479055,17.7651045 C9.55671913,18.0080461 9.95826191,18.3117231 10.2493805,18.6761356 C10.540499,19.0405479 10.6910776,19.4454506 10.6910776,19.9009661 L10.6910776,22.310137 L10.681039,22.310137 L10.681039,22.310137 L10.681039,22.310137 Z" id="Shape" fill="#FFFFFF"></path>
                        <g id="Shape" transform="translate(28.007612, 5.364961)" fill="#231815">
                            <path d="M12.0764003,14.3740447 L12.0764003,8.21952415 C12.0764003,7.59192502 11.9458989,7.14653208 11.6949346,6.88334534 C11.4339318,6.6201586 11.0022733,6.48856528 10.399959,6.48856528 C9.82776055,6.48856528 9.41617913,6.61003602 9.1451377,6.84285509 C8.87409634,7.08579669 8.72351776,7.4805768 8.7034406,8.03731796 L8.7034406,14.3740447 L6.1134894,14.3740447 L6.1134894,8.21952415 C6.1134894,7.59192502 5.98298798,7.14653208 5.72198519,6.88334534 C5.46098236,6.6201586 5.01928523,6.48856528 4.41697101,6.48856528 C3.80461822,6.48856528 3.37295969,6.6201586 3.12199541,6.88334534 C2.86099259,7.14653208 2.74052973,7.59192502 2.74052973,8.21952415 L2.74052973,14.3740447 L0.040154282,14.3740447 L0.040154282,7.93609226 C0.040154282,6.71126172 0.431658532,5.81035327 1.21466703,5.22324441 C1.99767553,4.64625811 3.07180257,4.35270369 4.43704815,4.35270369 C5.10963238,4.35270369 5.70190803,4.44380678 6.20383656,4.62601297 C6.70576508,4.80821918 7.12738503,5.05116077 7.47873503,5.35483778 C7.83008497,5.0714059 8.25170492,4.82846431 8.73355634,4.63613554 C9.22544628,4.44380678 9.78760623,4.35270369 10.4401133,4.35270369 C11.7953203,4.35270369 12.8694474,4.64625811 13.6524559,5.22324441 C14.445503,5.8002307 14.8370072,6.70113915 14.8370072,7.93609226 L14.8370072,14.3740447 L12.0764003,14.3740447 L12.0764003,14.3740447 L12.0764003,14.3740447 Z M26.9234461,14.3335545 C26.7929446,14.3639221 26.622289,14.3942898 26.4415947,14.4246575 C26.2508619,14.4550252 26.0199747,14.4853929 25.7288562,14.5157606 C25.4477762,14.5461283 25.1064648,14.5663735 24.7149605,14.5866186 C24.3234563,14.6068637 23.861682,14.6169863 23.3396764,14.6169863 C22.4161279,14.6169863 21.5829266,14.5258832 20.8400723,14.343677 C20.0871796,14.1614708 19.444711,13.8679164 18.8925897,13.4528911 C18.3404683,13.0479885 17.9188483,12.5013698 17.6277298,11.8332805 C17.3265727,11.165191 17.1860327,10.3452632 17.1860327,9.38361934 C17.1860327,8.72565249 17.3165341,8.09805336 17.5674984,7.49069938 C17.8285012,6.88334534 18.1898897,6.34684933 18.651664,5.88121125 C19.1134382,5.41557318 19.6755981,5.05116077 20.3281052,4.76772892 C20.9806123,4.48429703 21.7033894,4.35270369 22.4964364,4.35270369 C23.1087892,4.35270369 23.6809878,4.44380678 24.2331092,4.61589041 C24.7852305,4.79809662 25.2570433,5.06128334 25.6686248,5.4358183 C26.0802061,5.8002307 26.411479,6.26586879 26.6524046,6.83273252 C26.8933303,7.39959625 27.0137932,8.0778082 27.0137932,8.86736843 L27.0137932,9.29251622 C27.0137932,9.45447726 27.0037546,9.61643836 26.9937161,9.75815431 L19.7759839,9.75815431 C19.8161381,10.2642826 19.9265624,10.6793079 20.1172952,11.00323 C20.3080281,11.3271521 20.5589923,11.5903389 20.8902652,11.7826676 C21.2114995,11.9749964 21.6030037,12.1065898 22.0647779,12.1774477 C22.5265522,12.2483057 23.0385193,12.288796 23.6006792,12.288796 C24.4740349,12.288796 25.1968119,12.2584283 25.7489333,12.1976929 C26.3010547,12.1369575 26.6925589,12.0762221 26.9234461,12.0053641 L26.9234461,14.3335545 L26.9234461,14.3335545 L26.9234461,14.3335545 Z M24.2431477,7.97658256 C24.2431477,7.53118962 24.0925692,7.14653208 23.8014507,6.82260994 C23.5002935,6.4986878 23.0485579,6.34684933 22.4462436,6.34684933 C21.8439294,6.34684933 21.3319623,6.48856528 20.9304195,6.7821197 C20.5288767,7.07567411 20.2277195,7.47045422 20.0369867,7.97658256 L24.2431477,7.97658256 L24.2431477,7.97658256 L24.2431477,7.97658256 Z M29.3728573,14.3740447 L29.3728573,8.76614279 C29.3728573,7.359106 29.7944771,6.27599136 30.6477556,5.49655372 C31.5010341,4.72723866 32.6855856,4.34258112 34.1913712,4.34258112 C34.4122197,4.34258112 34.592914,4.34258112 34.7635697,4.35270369 C34.9241867,4.36282625 35.0747654,4.37294882 35.1952281,4.38307138 C35.3257295,4.39319395 35.4461925,4.41343908 35.5666552,4.43368421 C35.687118,4.45392934 35.8276581,4.47417447 35.968198,4.48429703 L35.968198,6.67077148 C35.7272725,6.63028117 35.4662696,6.59991345 35.1952281,6.56954578 C34.9241867,6.5391781 34.6832611,6.52905553 34.4624124,6.52905553 C33.7295969,6.52905553 33.1573984,6.71126172 32.7357783,7.07567411 C32.3141585,7.44008655 32.1033485,7.97658256 32.1033485,8.68516224 L32.1033485,14.3740447 L29.3728573,14.3740447 L29.3728573,14.3740447 L29.3728573,14.3740447 Z M45.3241457,14.4550252 C45.0430657,14.4955155 44.7218315,14.5360058 44.360443,14.5663735 C43.9990544,14.5967412 43.6276272,14.6169863 43.236123,14.6169863 C42.3125747,14.6169863 41.4793733,14.5258832 40.736519,14.3537996 C39.9836262,14.1817159 39.3411579,13.8982841 38.7890364,13.5035039 C38.236915,13.1188464 37.8152951,12.6127181 37.5241763,11.9952415 C37.2230193,11.377765 37.0824795,10.628695 37.0824795,9.75815431 C37.0824795,8.84712328 37.2330578,8.04744053 37.5342152,7.3793511 C37.8353722,6.70113915 38.2569921,6.14439799 38.799075,5.68888248 C39.3411579,5.24348954 39.9836262,4.90944486 40.736519,4.68674837 C41.4894118,4.4640519 42.3025362,4.36282625 43.1959689,4.36282625 C43.5874731,4.36282625 43.9589002,4.38307138 44.3102502,4.41343908 C44.6616,4.44380678 44.9828344,4.48429703 45.2639144,4.52478732 L45.2639144,6.71126172 C45.0229886,6.6606489 44.7619857,6.6201586 44.4809057,6.58979093 C44.1998257,6.5594232 43.8585145,6.54930062 43.4569717,6.54930062 C42.2724203,6.54930062 41.368949,6.79224222 40.7465575,7.28824803 C40.1342049,7.77413121 39.8230092,8.57381402 39.8230092,9.67717376 C39.8230092,10.6590627 40.1342049,11.3676424 40.7565961,11.7927902 C41.3789876,12.217938 42.2924973,12.4406344 43.4971259,12.4406344 C43.8886301,12.4406344 44.2299416,12.4305119 44.5310987,12.4001442 C44.8322558,12.3697765 45.0932587,12.3292862 45.3241457,12.2786734 L45.3241457,14.4550252 L45.3241457,14.4550252 L45.3241457,14.4550252 Z M57.1997749,14.3740447 L54.7704404,14.3740447 L54.7704404,12.9062725 C54.5696691,13.2706849 54.1781649,13.7970584 53.6461208,14.1209805 C53.2646551,14.3639221 52.6221866,14.6169863 51.9295252,14.6169863 C51.2368637,14.6169863 50.6144725,14.505638 50.0523125,14.2829416 C49.4901525,14.0602452 49.0083011,13.736323 48.6067584,13.3212977 C48.2052154,12.9062725 47.8839812,12.4001442 47.6631327,11.8130353 C47.442284,11.2158039 47.3318598,10.5578371 47.3318598,9.8188897 C47.3318598,9.03945205 47.442284,8.3207498 47.6631327,7.65266042 C47.8839812,6.98457099 48.2152542,6.40758473 48.636874,5.92170149 C49.0584939,5.4358183 49.5905382,5.06128334 50.2028909,4.77785148 C50.8252824,4.4944196 51.5279822,4.36282625 52.3109909,4.36282625 C53.053845,4.36282625 53.7264292,4.4640519 54.3287436,4.6766258 C54.9310579,4.8891997 55.4430246,5.20299928 55.8646448,5.62814708 C56.2862645,6.05329487 56.6175377,6.57966835 56.8484246,7.22751263 C57.079312,7.86523434 57.1897361,8.61430427 57.1897361,9.47472241 L57.1897361,14.3740447 L57.1997749,14.3740447 L57.1997749,14.3740447 L57.1997749,14.3740447 Z M50.6947811,7.27812546 C50.293238,7.76400864 50.0824281,8.50295599 50.0824281,9.48484499 C50.0824281,10.4667339 50.2831995,11.1044557 50.6947811,11.5903389 C51.0963238,12.0762221 51.6484453,12.2280606 52.3411066,12.2280606 C52.9434207,12.2280606 53.5959278,11.6611968 53.8669693,11.3676424 C54.3488207,10.8412689 54.5897462,10.1428118 54.5897462,9.48484499 C54.5897462,8.50295599 54.3889748,7.76400864 53.9773935,7.27812546 C53.5758508,6.79224222 53.0237293,6.5391781 52.331068,6.5391781 C51.6484453,6.5391781 51.1063624,6.7821197 50.6947811,7.27812546 L50.6947811,7.27812546 L50.6947811,7.27812546 Z M59.7395328,14.3740447 L59.7395328,8.76614279 C59.7395328,7.359106 60.161153,6.27599136 61.0144317,5.49655372 C61.8677098,4.72723866 63.0522612,4.34258112 64.558047,4.34258112 C64.7788951,4.34258112 64.9595896,4.34258112 65.1302454,4.35270369 C65.2908623,4.36282625 65.441441,4.37294882 65.5619038,4.38307138 C65.6924055,4.39319395 65.8128683,4.41343908 65.9333306,4.43368421 C66.053794,4.45392934 66.1943339,4.47417447 66.3348738,4.48429703 L66.3348738,6.67077148 C66.0939481,6.63028117 65.8329454,6.59991345 65.5619038,6.56954578 C65.2908623,6.5391781 65.0499366,6.52905553 64.8290885,6.52905553 C64.0962727,6.52905553 63.5240738,6.71126172 63.1024541,7.07567411 C62.6808339,7.44008655 62.470024,7.97658256 62.470024,8.68516224 L62.470024,14.3740447 L59.7395328,14.3740447 L59.7395328,14.3740447 L59.7395328,14.3740447 Z M69.6074475,3.45179524 C69.1456738,3.45179524 68.7742464,3.28983417 68.4931661,2.95578946 C68.2120863,2.62174477 68.0715464,2.2168421 68.0715464,1.74108147 C68.0715464,1.26532084 68.2120863,0.870540733 68.4931661,0.5466186 C68.7742464,0.222696467 69.155712,0.0708579669 69.6275251,0.0708579669 C70.0892989,0.0708579669 70.4607262,0.232819034 70.7418066,0.5466186 C71.0228863,0.870540733 71.1634262,1.26532084 71.1634262,1.74108147 C71.1634262,2.2168421 71.0228863,2.62174477 70.7418066,2.95578946 C70.4607262,3.28983417 70.0792607,3.45179524 69.6074475,3.45179524 L69.6074475,3.45179524 L69.6074475,3.45179524 Z M68.2120863,14.3740447 L68.2120863,4.60576785 L70.9726934,4.60576785 L70.9726934,14.3740447 L68.2120863,14.3740447 L68.2120863,14.3740447 L68.2120863,14.3740447 Z"></path>
                        </g>
                    </g>
                </g>
            </g>
        </g>
    </g>
</svg>