<?xml version="1.0" encoding="UTF-8"?>
<svg width="240px" height="40px" viewBox="0 0 240 40" version="1.1" xmlns="http://www.w3.org/2000/svg" xmlns:xlink="http://www.w3.org/1999/xlink">
    <!-- Generator: Sketch 54.1 (76490) - https://sketchapp.com -->
    <title>Group 19</title>
    <desc>Created with Sketch.</desc>
    <g id="index-V" stroke="none" stroke-width="1" fill="none" fill-rule="evenodd">
        <g id="index-copy-6" transform="translate(-976.000000, -1147.000000)">
            <g id="Group-16" transform="translate(0.000000, 986.000000)">
                <g id="Group-19" transform="translate(976.000000, 161.000000)">
                    <rect id="Rectangle" fill="#00C500" x="0" y="0" width="240" height="40" rx="4"></rect>
                    <g id="line" transform="translate(54.000000, 0.000000)" fill-rule="nonzero">
                        <rect id="Rectangle" fill="#00C200" x="0" y="0" width="40" height="40"></rect>
                        <g id="Group" transform="translate(5.454545, 6.363636)">
                            <path d="M28.9404028,12.9118239 C29.0071203,12.5635788 29.0401306,12.2705696 29.0552858,12.0407365 C29.0803702,11.6614212 29.0518019,11.0982739 29.0416113,10.9219505 C28.6890365,4.8453107 22.326663,0.00397008055 14.5296026,0.00397008055 C6.50626021,0.00397008055 0.00217746326,5.13029344 0.00217746326,11.4539413 C0.00217746326,17.2663119 5.49704954,22.0670023 12.6158737,22.8054373 C13.0511051,22.8505754 13.3649211,23.2399022 13.3166685,23.6708285 L13.0135656,26.3741082 C12.9447578,26.9877445 13.5851062,27.434206 14.146282,27.165794 C20.1607839,24.289557 23.7572564,21.3305524 25.904932,18.7670023 C26.2957431,18.3005178 27.5700817,16.5313291 27.8298966,16.0666571 C28.3814045,15.0801784 28.7615895,14.0208573 28.9404028,12.9118239 Z" id="Path" fill="#FFFFFF"></path>
                            <path d="M6.54136091,13.7734177 L6.54136091,8.9504603 C6.54136091,8.54378596 6.20864453,8.21409666 5.79823625,8.21409666 L5.79823625,8.21409666 C5.38782798,8.21409666 5.05511159,8.54378596 5.05511159,8.9504603 L5.05511159,14.5097814 C5.05511159,14.9164557 5.38782798,15.246145 5.79823625,15.246145 L8.7706478,15.246145 C9.18105607,15.246145 9.51377246,14.9164557 9.51377246,14.5097814 L9.51377246,14.5097814 C9.51377246,14.103107 9.18105607,13.7734177 8.7706478,13.7734177 L6.54136091,13.7734177 Z" id="Path" fill="#00C500"></path>
                            <path d="M11.1251824,15.246145 L10.8003048,15.246145 C10.4796081,15.246145 10.2196189,14.9885213 10.2196189,14.6707422 L10.2196189,8.78949942 C10.2196189,8.47172037 10.4796081,8.21409666 10.8003048,8.21409666 L11.1251824,8.21409666 C11.4458792,8.21409666 11.7058683,8.47172037 11.7058683,8.78949942 L11.7058683,14.6707422 C11.7058683,14.9885213 11.4458792,15.246145 11.1251824,15.246145 Z" id="Path" fill="#00C500"></path>
                            <path d="M17.1303647,8.9504603 L17.1303647,12.3466916 C17.1303647,12.3466916 14.1626565,8.51098964 14.1173653,8.46058688 C13.9755689,8.30290564 13.7666195,8.20589758 13.5346761,8.2146145 C13.1304518,8.22980437 12.8204682,8.57986191 12.8204682,8.98066743 L12.8204682,14.5096951 C12.8204682,14.9163694 13.1531845,15.2460587 13.5635928,15.2460587 L13.5635928,15.2460587 C13.9740011,15.2460587 14.3067175,14.9163694 14.3067175,14.5096951 L14.3067175,11.1340909 C14.3067175,11.1340909 17.3195427,15.0031933 17.3637888,15.0447929 C17.4952205,15.168038 17.6717692,15.2443326 17.8666086,15.2460587 C18.2792814,15.2497699 18.616614,14.888061 18.616614,14.4791427 L18.616614,8.9504603 C18.616614,8.54378596 18.2838977,8.21409666 17.8734894,8.21409666 L17.8734894,8.21409666 C17.4630811,8.21418297 17.1303647,8.54378596 17.1303647,8.9504603 Z" id="Path" fill="#00C500"></path>
                            <path d="M24.1897877,8.9504603 L24.1897877,8.9504603 C24.1897877,8.54378596 23.8570713,8.21409666 23.446663,8.21409666 L20.4742515,8.21409666 C20.0638432,8.21409666 19.7311268,8.54378596 19.7311268,8.9504603 L19.7311268,14.5097814 C19.7311268,14.9164557 20.0638432,15.246145 20.4742515,15.246145 L23.446663,15.246145 C23.8570713,15.246145 24.1897877,14.9164557 24.1897877,14.5097814 L24.1897877,14.5097814 C24.1897877,14.103107 23.8570713,13.7734177 23.446663,13.7734177 L21.2173762,13.7734177 L21.2173762,12.4663982 L23.446663,12.4663982 C23.8570713,12.4663982 24.1897877,12.1367089 24.1897877,11.7300345 L24.1897877,11.7300345 C24.1897877,11.3233602 23.8570713,10.9936709 23.446663,10.9936709 L21.2173762,10.9936709 L21.2173762,9.68665132 L23.446663,9.68665132 C23.8570713,9.68682394 24.1897877,9.35713464 24.1897877,8.9504603 Z" id="Path" fill="#00C500"></path>
                        </g>
                    </g>
                    <path d="M99.826,24.766 L101.542,24.986 C101.432,26.878 101.168,28.572 100.728,30.046 L98.946,29.496 C99.408,28.132 99.694,26.548 99.826,24.766 Z M103.786,24.436 C104.028,25.8 104.248,27.296 104.446,28.902 L102.642,29.342 C102.51,27.626 102.378,26.086 102.202,24.766 L103.786,24.436 Z M105.788,18.914 C106.206,20.124 106.58,21.532 106.91,23.138 L105.238,23.556 L105.062,22.654 C103.148,23.27 101.322,23.688 99.606,23.908 L99.056,22.016 C99.43,21.862 99.738,21.664 100.002,21.422 C100.64,20.762 101.432,19.662 102.356,18.1 C101.432,18.276 100.464,18.43 99.452,18.584 L98.946,16.692 C99.254,16.56 99.54,16.296 99.804,15.922 C100.75,14.14 101.564,12.16 102.268,9.96 L104.248,10.752 C103.28,13.084 102.312,15.02 101.3,16.538 C102.004,16.45 102.73,16.34 103.434,16.208 C103.852,15.416 104.292,14.558 104.776,13.634 L106.69,14.338 C104.842,17.704 103.28,20.168 102.026,21.708 C102.906,21.532 103.786,21.334 104.666,21.092 C104.512,20.52 104.358,19.97 104.182,19.442 L105.788,18.914 Z M105.986,23.886 C106.382,24.81 106.734,25.8 107.042,26.856 L105.546,27.538 C105.216,26.35 104.864,25.294 104.512,24.37 L105.986,23.886 Z M107.68,11.786 L110.87,11.786 C111.134,11.192 111.31,10.576 111.442,9.96 L113.554,10.246 C113.378,10.774 113.18,11.302 112.916,11.786 L117.668,11.786 L117.668,20.014 L113.928,20.014 L113.928,21.51 C114.148,22.06 114.412,22.588 114.72,23.116 C115.886,22.412 116.898,21.642 117.756,20.85 L118.944,22.258 C118.02,23.05 116.92,23.798 115.644,24.502 C116.59,25.756 117.8,26.922 119.252,28 L117.998,29.562 C116.304,28.022 114.94,26.372 113.928,24.612 L113.928,28.154 C113.928,29.54 113.246,30.244 111.904,30.244 L110.276,30.244 L109.836,28.396 C110.32,28.462 110.782,28.506 111.244,28.506 C111.706,28.506 111.948,28.22 111.948,27.692 L111.948,20.014 L107.68,20.014 L107.68,11.786 Z M115.754,18.188 L115.754,16.758 L109.594,16.758 L109.594,18.188 L115.754,18.188 Z M109.594,15.042 L115.754,15.042 L115.754,13.612 L109.594,13.612 L109.594,15.042 Z M107.152,21.708 L111.134,21.708 L111.134,23.138 C110.54,25.954 109.308,28.11 107.438,29.584 L106.316,28.066 C107.746,26.944 108.758,25.404 109.33,23.424 L107.152,23.424 L107.152,21.708 Z M128.888,9.96 L131.044,9.96 L131.044,16.582 L139.184,16.582 L139.184,18.606 L131.044,18.606 L131.044,27.45 L140.878,27.45 L140.878,29.474 L121.166,29.474 L121.166,27.45 L128.888,27.45 L128.888,9.96 Z M159.666,23.182 L159.666,30.332 L157.62,30.332 L157.62,29.496 L148.754,29.496 L148.754,30.332 L146.73,30.332 L146.73,23.182 L159.666,23.182 Z M148.754,27.604 L157.62,27.604 L157.62,25.052 L148.754,25.052 L148.754,27.604 Z M149.942,13.546 L151.988,13.986 C151.724,14.382 151.438,14.778 151.174,15.152 L159.05,15.152 L159.05,16.824 C158.258,17.968 157.114,18.98 155.574,19.86 C157.818,20.652 160.304,21.114 163.032,21.268 L162.57,23.16 C159.094,22.962 156.014,22.236 153.33,20.982 C150.778,22.06 147.522,22.918 143.606,23.578 L142.814,21.73 C146.158,21.246 148.952,20.608 151.196,19.838 C150.272,19.266 149.436,18.628 148.644,17.946 C147.83,18.65 146.972,19.31 146.07,19.882 L144.728,18.276 C146.752,17.132 148.49,15.57 149.942,13.546 Z M153.396,18.958 C154.672,18.342 155.728,17.682 156.52,16.934 L150.14,16.934 C151.152,17.726 152.23,18.386 153.396,18.958 Z M162.13,11.434 L162.13,15.878 L160.018,15.878 L160.018,13.304 L145.982,13.304 L145.982,15.878 L143.87,15.878 L143.87,11.434 L151.724,11.434 C151.504,10.994 151.284,10.554 151.02,10.158 L153.33,9.806 C153.55,10.29 153.77,10.818 153.99,11.434 L162.13,11.434 Z M168.224,17.77 L168.224,20.982 L171.304,20.982 L171.304,17.77 L168.224,17.77 Z M171.304,15.9 L171.304,12.644 L168.224,12.644 L168.224,15.9 L171.304,15.9 Z M168.18,22.874 C168.026,25.866 167.498,28.352 166.596,30.31 L165.012,28.88 C165.892,26.966 166.332,24.524 166.354,21.554 L166.354,10.752 L173.196,10.752 L173.196,27.956 C173.196,29.452 172.514,30.2 171.172,30.2 L169.412,30.2 L168.906,28.352 C169.522,28.418 170.072,28.462 170.6,28.462 C171.062,28.462 171.304,28.066 171.304,27.296 L171.304,22.874 L168.18,22.874 Z M176.65,20.696 L176.65,28.55 C177.794,27.934 178.762,27.142 179.576,26.218 C178.3,24.59 177.42,22.742 176.936,20.696 L176.65,20.696 Z M176.65,28.616 L176.65,30.288 L174.692,30.288 L174.692,10.752 L183.954,10.752 C183.954,13.612 183.822,15.504 183.558,16.45 C183.294,17.374 182.458,17.836 181.05,17.836 L179.202,17.836 L178.652,16.076 C179.004,16.076 179.488,16.098 180.104,16.098 C180.566,16.098 180.918,16.054 181.138,15.988 C181.358,15.922 181.534,15.724 181.666,15.416 C181.798,15.042 181.886,14.118 181.93,12.644 L176.65,12.644 L176.65,18.848 L184.086,18.848 L184.086,20.608 C183.69,22.764 183.03,24.612 182.106,26.13 C183.008,26.988 184.064,27.758 185.252,28.462 L184.218,30.222 C182.964,29.474 181.864,28.638 180.94,27.736 C180.038,28.748 178.96,29.584 177.728,30.244 L176.65,28.616 Z M178.718,20.696 C179.158,22.126 179.818,23.424 180.72,24.59 C181.38,23.446 181.886,22.148 182.238,20.696 L178.718,20.696 Z" id="線上客服" fill="#FFFFFF" fill-rule="nonzero"></path>
                </g>
            </g>
        </g>
    </g>
</svg>