<?xml version="1.0" encoding="UTF-8"?>
<svg width="402px" height="90px" viewBox="0 0 402 90" version="1.1" xmlns="http://www.w3.org/2000/svg" xmlns:xlink="http://www.w3.org/1999/xlink">
    <!-- Generator: Sketch 54.1 (76490) - https://sketchapp.com -->
    <title>Group 7</title>
    <desc>Created with Sketch.</desc>
    <g id="Page-1" stroke="none" stroke-width="1" fill="none" fill-rule="evenodd">
        <g id="Artboard" transform="translate(-514.000000, -2276.000000)">
            <g id="Group-7" transform="translate(514.000000, 2276.000000)">
                <rect id="Rectangle" fill="#00C200" x="0" y="0" width="402" height="90" rx="10"></rect>
                <text id="加入好友" font-family="NotoSansCJKjp-Bold, Noto Sans CJK JP" font-size="40" font-weight="bold" fill="#FFFFFF">
                    <tspan x="166" y="60">加入好友</tspan>
                </text>
                <g id="line" transform="translate(75.000000, 5.000000)" fill-rule="nonzero">
                    <rect id="Rectangle" fill="#00C200" x="0" y="0" width="79.952807" height="79.952807"></rect>
                    <g id="Group" transform="translate(10.701754, 12.280702)">
                        <path d="M58.2933333,26.2464912 C58.4277193,25.5385965 58.4942105,24.9429825 58.5247368,24.4757895 C58.5752632,23.7047368 58.5177193,22.56 58.497193,22.2015789 C57.7870175,9.84929825 44.9715789,0.00807017544 29.2663158,0.00807017544 C13.1052632,0.00807017544 0.00438596491,10.4285965 0.00438596491,23.2829825 C0.00438596491,35.0980702 11.0724561,44.8566667 25.4115789,46.3577193 C26.2882456,46.4494737 26.9203509,47.2408772 26.8231579,48.1168421 L26.2126316,53.6119298 C26.0740351,54.8592982 27.3638596,55.7668421 28.4942105,55.2212281 C40.6089474,49.3745614 47.8531579,43.3596491 52.1791228,38.1485965 C52.9663158,37.2003509 55.5331579,33.6040351 56.0564912,32.6594737 C57.1673684,30.6542105 57.9331579,28.5008772 58.2933333,26.2464912 Z" id="Path" fill="#FFFFFF"></path>
                        <path d="M13.1759649,27.9978947 L13.1759649,18.1940351 C13.1759649,17.3673684 12.5057895,16.697193 11.6791228,16.697193 L11.6791228,16.697193 C10.8524561,16.697193 10.1822807,17.3673684 10.1822807,18.1940351 L10.1822807,29.4947368 C10.1822807,30.3214035 10.8524561,30.9915789 11.6791228,30.9915789 L17.6663158,30.9915789 C18.4929825,30.9915789 19.1631579,30.3214035 19.1631579,29.4947368 L19.1631579,29.4947368 C19.1631579,28.6680702 18.4929825,27.9978947 17.6663158,27.9978947 L13.1759649,27.9978947 Z" id="Path" fill="#00C500"></path>
                        <path d="M22.4089474,30.9915789 L21.7545614,30.9915789 C21.1085965,30.9915789 20.5849123,30.4678947 20.5849123,29.8219298 L20.5849123,17.8668421 C20.5849123,17.2208772 21.1085965,16.697193 21.7545614,16.697193 L22.4089474,16.697193 C23.0549123,16.697193 23.5785965,17.2208772 23.5785965,17.8668421 L23.5785965,29.8219298 C23.5785965,30.4678947 23.0549123,30.9915789 22.4089474,30.9915789 Z" id="Path" fill="#00C500"></path>
                        <path d="M34.5049123,18.1940351 L34.5049123,25.0977193 C34.5049123,25.0977193 28.527193,17.3007018 28.4359649,17.1982456 C28.1503509,16.8777193 27.7294737,16.6805263 27.2622807,16.6982456 C26.4480702,16.7291228 25.8236842,17.4407018 25.8236842,18.2554386 L25.8236842,29.4945614 C25.8236842,30.3212281 26.4938596,30.9914035 27.3205263,30.9914035 L27.3205263,30.9914035 C28.147193,30.9914035 28.8173684,30.3212281 28.8173684,29.4945614 L28.8173684,22.632807 C28.8173684,22.632807 34.8859649,30.4977193 34.9750877,30.5822807 C35.2398246,30.832807 35.5954386,30.9878947 35.9878947,30.9914035 C36.8191228,30.9989474 37.4985965,30.2636842 37.4985965,29.4324561 L37.4985965,18.1940351 C37.4985965,17.3673684 36.8284211,16.697193 36.0017544,16.697193 L36.0017544,16.697193 C35.1750877,16.6973684 34.5049123,17.3673684 34.5049123,18.1940351 Z" id="Path" fill="#00C500"></path>
                        <path d="M48.724386,18.1940351 L48.724386,18.1940351 C48.724386,17.3673684 48.0542105,16.697193 47.2275439,16.697193 L41.2403509,16.697193 C40.4136842,16.697193 39.7435088,17.3673684 39.7435088,18.1940351 L39.7435088,29.4947368 C39.7435088,30.3214035 40.4136842,30.9915789 41.2403509,30.9915789 L47.2275439,30.9915789 C48.0542105,30.9915789 48.724386,30.3214035 48.724386,29.4947368 L48.724386,29.4947368 C48.724386,28.6680702 48.0542105,27.9978947 47.2275439,27.9978947 L42.737193,27.9978947 L42.737193,25.3410526 L47.2275439,25.3410526 C48.0542105,25.3410526 48.724386,24.6708772 48.724386,23.8442105 L48.724386,23.8442105 C48.724386,23.0175439 48.0542105,22.3473684 47.2275439,22.3473684 L42.737193,22.3473684 L42.737193,19.6905263 L47.2275439,19.6905263 C48.0542105,19.6908772 48.724386,19.0207018 48.724386,18.1940351 Z" id="Path" fill="#00C500"></path>
                    </g>
                </g>
            </g>
        </g>
    </g>
</svg>