<svg id="圖層_1" data-name="圖層 1" xmlns="http://www.w3.org/2000/svg" viewBox="0 0 300 300"><title>case_empty</title><rect width="300" height="300" style="fill:#f5f5f8"/><path d="M174,136.14a5.62,5.62,0,0,0-2.83-4.87l-62.4-36.91L83.92,108.64a5.91,5.91,0,0,0-3,5.11v72.5a5.92,5.92,0,0,0,3,5.11L147,227.61a6,6,0,0,0,5.94,0l21-12.06Zm27.28,63.72,14.8-8.5a5.91,5.91,0,0,0,3-5.11v-72.5a5.92,5.92,0,0,0-3-5.11L153,72.39a6,6,0,0,0-5.94,0L133.32,80.2l65.12,37.4a5.62,5.62,0,0,1,2.83,4.87ZM150,261.11a39,39,0,0,1-19.42-5.16L67.47,219.71A38.71,38.71,0,0,1,48,186.25v-72.5A38.7,38.7,0,0,1,67.47,80.3L130.58,44a39.13,39.13,0,0,1,38.84,0l63.12,36.24A38.7,38.7,0,0,1,252,113.75v72.5a38.69,38.69,0,0,1-19.42,33.46l-63.11,36.25A39,39,0,0,1,150,261.11" style="fill:#fff"/></svg>