<svg id="圖層_1" data-name="圖層 1" xmlns="http://www.w3.org/2000/svg" viewBox="0 0 710 710"><defs><style>.cls-1{fill:#0e314e;}.cls-2{fill:#ffd522;}.cls-3{fill:#606060;}.cls-4{fill:#ef4736;}.cls-5,.cls-6{fill:#ffda04;}.cls-6{opacity:0.4;}.cls-7{fill:#002242;}.cls-8{fill:#a3a7af;}.cls-9{fill:#b5bcbc;}.cls-10{fill:#dedede;}.cls-11,.cls-12{fill:#001335;}.cls-12{opacity:0.3;}.cls-13{fill:#f6f7f8;}.cls-14{fill:#fff;}.cls-15{fill:#dd3a56;}</style></defs><title>error</title><path class="cls-1" d="M210.93,49.28c1.19-2.38,1.73-3.06,2.74-3.85a4.63,4.63,0,0,1,2.88-1c2.84,0,5.69,2.23,5.69,5.18,0,1.37-.22,2.12-1.44,4.57L209.16,77.43h5.72v-.07c0-2.59.07-3.56.68-4.82a5.81,5.81,0,0,1,9.86,0c.61,1.26.68,2.23.68,4.82v.07h.07c2.59,0,3.56.07,4.82.68A5.81,5.81,0,0,1,231,88c-1.26.61-2.23.68-4.82.68h-.07v.07c0,2.59-.07,3.56-.68,4.82a5.81,5.81,0,0,1-9.86,0c-.61-1.26-.68-2.23-.68-4.82v-.07H203.69c-3,0-5-.25-6.59-1.66a5.9,5.9,0,0,1-1.94-4.43,11.68,11.68,0,0,1,1.62-5Z"/><path class="cls-1" d="M271,80.45c0,10.58-8,16-16.49,16S238,91,238,80.45V60.29c0-10.58,8-16,16.49-16s16.49,5.4,16.49,16ZM259.17,60.29c0-3.6-2.16-5.33-4.68-5.33s-4.68,1.73-4.68,5.33V80.52c0,3.6,2.16,5.26,4.68,5.26s4.68-1.66,4.68-5.26Z"/><path class="cls-1" d="M291,49.28c1.19-2.38,1.73-3.06,2.74-3.85a4.63,4.63,0,0,1,2.88-1c2.84,0,5.69,2.23,5.69,5.18,0,1.37-.22,2.12-1.44,4.57L289.23,77.43H295v-.07c0-2.59.07-3.56.68-4.82a5.81,5.81,0,0,1,9.86,0c.61,1.26.68,2.23.68,4.82v.07h.07c2.59,0,3.56.07,4.82.68a5.81,5.81,0,0,1,0,9.86c-1.26.61-2.23.68-4.82.68h-.07v.07c0,2.59-.07,3.56-.68,4.82a5.81,5.81,0,0,1-9.86,0c-.61-1.26-.68-2.23-.68-4.82v-.07H283.76c-3,0-5-.25-6.59-1.66a5.9,5.9,0,0,1-1.94-4.43,11.68,11.68,0,0,1,1.62-5Z"/><path class="cls-1" d="M343.37,96c-1.87,0-4.21,0-6-1.76s-1.76-4.1-1.76-6V52.48c0-1.87,0-4.21,1.76-6s4.1-1.76,6-1.76h20c2.59,0,3.56.07,4.82.68a5.81,5.81,0,0,1,0,9.86c-1.26.61-2.23.68-4.82.68h-15v8.57h11.81c2.59,0,3.56.07,4.82.68a5.81,5.81,0,0,1,0,9.86c-1.26.61-2.23.68-4.82.68H348.3v9h15c2.59,0,3.56.07,4.82.68a5.81,5.81,0,0,1,0,9.86c-1.26.61-2.23.68-4.82.68Z"/><path class="cls-1" d="M378.62,65c0-2.81.07-3.82.72-5.11A5.65,5.65,0,0,1,384.52,57a5.77,5.77,0,0,1,5.54,3.46,12.71,12.71,0,0,1,8.46-3.6,10.5,10.5,0,0,1,6.51,1.8,5.56,5.56,0,0,1,2.66,4.61,6.28,6.28,0,0,1-1.8,4.39,5.58,5.58,0,0,1-4,1.58,8.93,8.93,0,0,1-3.6-.94,7,7,0,0,0-3-.79c-1.73,0-4.9.94-4.9,5.33V88.3c0,2.81-.07,3.82-.72,5.11a6.1,6.1,0,0,1-10.37,0c-.65-1.3-.72-2.3-.72-5.11Z"/><path class="cls-1" d="M413,65c0-2.81.07-3.82.72-5.11A5.65,5.65,0,0,1,418.93,57a5.77,5.77,0,0,1,5.54,3.46,12.71,12.71,0,0,1,8.46-3.6,10.5,10.5,0,0,1,6.51,1.8,5.56,5.56,0,0,1,2.66,4.61,6.28,6.28,0,0,1-1.8,4.39,5.58,5.58,0,0,1-4,1.58,8.93,8.93,0,0,1-3.6-.94,7,7,0,0,0-3-.79c-1.73,0-4.9.94-4.9,5.33V88.3c0,2.81-.07,3.82-.72,5.11a6.1,6.1,0,0,1-10.37,0c-.65-1.3-.72-2.3-.72-5.11Z"/><path class="cls-1" d="M461.34,96.43c-6.26,0-10.15-2.52-12.46-5-3.24-3.53-4.25-7.2-4.25-14.83s1-11.3,4.25-14.83c2.3-2.45,6.19-5,12.46-5s10.15,2.52,12.45,5C477,65.33,478,69.08,478,76.63s-1,11.3-4.25,14.83C471.49,93.91,467.6,96.43,461.34,96.43Zm4.9-19.8c0-3.82-.22-6.55-1.73-8.06a5.19,5.19,0,0,0-6.33,0c-1.51,1.51-1.73,4.25-1.73,8.06s.22,6.55,1.73,8.06a5.18,5.18,0,0,0,6.33,0C466,83.19,466.24,80.45,466.24,76.63Z"/><path class="cls-1" d="M485.61,65c0-2.81.07-3.82.72-5.11A5.65,5.65,0,0,1,491.51,57a5.77,5.77,0,0,1,5.54,3.46,12.71,12.71,0,0,1,8.46-3.6,10.5,10.5,0,0,1,6.51,1.8,5.56,5.56,0,0,1,2.66,4.61,6.28,6.28,0,0,1-1.8,4.39,5.58,5.58,0,0,1-4,1.58,8.92,8.92,0,0,1-3.6-.94,7,7,0,0,0-3-.79c-1.73,0-4.9.94-4.9,5.33V88.3c0,2.81-.07,3.82-.72,5.11a6.1,6.1,0,0,1-10.37,0c-.65-1.3-.72-2.3-.72-5.11Z"/><circle class="cls-2" cx="693.13" cy="162.96" r="11.68"/><circle class="cls-1" cx="16.87" cy="153.56" r="11.68"/><circle class="cls-2" cx="140.04" cy="145.01" r="6.87"/><circle class="cls-1" cx="454.31" cy="211.43" r="6.87"/><polygon class="cls-2" points="545.19 133.14 541.4 126.21 537.61 133.14 530.68 136.93 537.61 140.72 541.4 147.65 545.19 140.72 552.12 136.93 545.19 133.14"/><polygon class="cls-2" points="79.6 230.24 75.81 223.31 72.02 230.24 65.09 234.03 72.02 237.82 75.81 244.75 79.6 237.82 86.53 234.03 79.6 230.24"/><polygon class="cls-1" points="589.57 200.02 585.77 193.09 581.99 200.02 575.05 203.81 581.99 207.6 585.77 214.53 589.57 207.6 596.49 203.81 589.57 200.02"/><polygon class="cls-1" points="221.48 183.51 217.69 176.58 213.9 183.51 206.97 187.3 213.9 191.09 217.69 198.02 221.48 191.09 228.41 187.3 221.48 183.51"/><path class="cls-3" d="M323.2,253.6v15.69h63.9V253.6a4.11,4.11,0,0,0,0-.68,17.35,17.35,0,0,0-17.35-16.71H340.55A17.38,17.38,0,0,0,323.2,253.6Z"/><circle class="cls-4" cx="354.7" cy="188.87" r="49.51"/><path class="cls-5" d="M331.24,224.49a.77.77,0,0,1-.43-.13,43.17,43.17,0,0,1-13.43-14.57.77.77,0,1,1,1.34-.76,41.61,41.61,0,0,0,12.95,14,.77.77,0,0,1-.43,1.41Z"/><path class="cls-5" d="M353.12,231.62h0a42.81,42.81,0,0,1-9.39-1.4.77.77,0,0,1,.4-1.49,41.24,41.24,0,0,0,9,1.35.77.77,0,0,1,0,1.54Z"/><path class="cls-5" d="M389.06,165.47a.77.77,0,0,1-.63-.33,41.8,41.8,0,0,0-3.82-4.66.77.77,0,1,1,1.12-1.06,43.18,43.18,0,0,1,4,4.83.77.77,0,0,1-.63,1.22Z"/><path class="cls-5" d="M377.27,154.21a.76.76,0,0,1-.41-.12A41.28,41.28,0,0,0,334.32,153a.77.77,0,0,1-.76-1.34,42.82,42.82,0,0,1,44.12,1.11.77.77,0,0,1-.41,1.42Z"/><circle class="cls-6" cx="354.7" cy="188.87" r="33.6"/><circle class="cls-5" cx="354.7" cy="188.87" r="22.07"/><ellipse class="cls-7" cx="343.76" cy="505.73" rx="145.41" ry="15.2"/><ellipse class="cls-8" cx="354.71" cy="666.21" rx="194.46" ry="17.58"/><rect class="cls-9" x="277.37" y="580.61" width="154.67" height="64.56"/><rect class="cls-10" x="218.03" y="645.17" width="272.34" height="18.18" rx="6.17" ry="6.17"/><path class="cls-10" d="M603.68,554.73a48.47,48.47,0,0,1-48.46,48.47h-401a48.47,48.47,0,0,1-48.46-48.47V303a48.47,48.47,0,0,1,48.46-48.46h401A48.47,48.47,0,0,1,603.68,303Z"/><path class="cls-1" d="M555.22,254.49h-401A48.47,48.47,0,0,0,105.73,303V554.73h498V303A48.47,48.47,0,0,0,555.22,254.49Z"/><circle class="cls-11" cx="354.34" cy="578.22" r="9.09"/><polygon class="cls-12" points="277.37 603.2 277.37 645.17 432.04 620.45 432.04 603.2 277.37 603.2"/><path class="cls-7" d="M555.22,254.49h-401A48.47,48.47,0,0,0,105.73,303V554.73h498V303A48.47,48.47,0,0,0,555.22,254.49Zm33.93,285.7H120.27V303A34,34,0,0,1,154.19,269h401A34,34,0,0,1,589.14,303Z"/><polygon class="cls-13" points="543.11 252.95 502.74 307.21 525.81 314.21 514.27 326.46 525.81 335.21 520.04 387.71 543.11 326.46 531.58 322.96 540.23 308.96 522.92 301.96 574.83 252.95 543.11 252.95"/><polygon class="cls-13" points="168.24 605.15 217.46 538.99 189.33 530.45 203.4 515.51 189.33 504.84 196.37 440.82 168.24 515.51 182.3 519.78 171.75 536.85 192.85 545.39 129.56 605.15 168.24 605.15"/><line class="cls-14" x1="274.89" y1="353.58" x2="234.48" y2="403.35"/><path class="cls-15" d="M234.48,408a4.63,4.63,0,0,1-3.59-7.54l40.41-49.77a4.63,4.63,0,1,1,7.18,5.83l-40.41,49.77A4.62,4.62,0,0,1,234.48,408Z"/><line class="cls-14" x1="229.8" y1="358.26" x2="279.57" y2="398.67"/><path class="cls-15" d="M279.57,403.29a4.61,4.61,0,0,1-2.91-1l-49.77-40.41a4.63,4.63,0,0,1,5.83-7.18l49.77,40.41a4.63,4.63,0,0,1-2.92,8.22Z"/><line class="cls-14" x1="434.52" y1="353.58" x2="474.93" y2="403.35"/><path class="cls-15" d="M474.93,408a4.62,4.62,0,0,1-3.59-1.71l-40.41-49.77a4.63,4.63,0,0,1,7.18-5.83l40.41,49.77a4.63,4.63,0,0,1-3.59,7.54Z"/><line class="cls-14" x1="479.61" y1="358.26" x2="429.84" y2="398.67"/><path class="cls-15" d="M429.84,403.29a4.63,4.63,0,0,1-2.92-8.22l49.77-40.41a4.63,4.63,0,0,1,5.83,7.18l-49.77,40.41A4.61,4.61,0,0,1,429.84,403.29Z"/><path class="cls-15" d="M326.17,481.13a4.63,4.63,0,0,1-3.42-7.74c.93-1,23.29-25.05,61.28-18.35a4.63,4.63,0,1,1-1.61,9.11c-33-5.83-52.63,15.25-52.83,15.46A4.61,4.61,0,0,1,326.17,481.13Z"/></svg>