<?xml version="1.0" encoding="UTF-8"?>
<svg width="204px" height="94px" viewBox="0 0 204 94" version="1.1" xmlns="http://www.w3.org/2000/svg" xmlns:xlink="http://www.w3.org/1999/xlink">
    <!-- Generator: Sketch 49.3 (51167) - http://www.bohemiancoding.com/sketch -->
    <title>logo</title>
    <desc>Created with Sketch.</desc>
    <defs>
        <polygon id="path-1" points="0 0.339703133 83.1294583 0.339703133 83.1294583 91.195731 0 91.195731"></polygon>
        <polygon id="path-3" points="0.162419595 0.413604837 11.6867812 0.413604837 11.6867812 11.7459663 0.162419595 11.7459663"></polygon>
        <polygon id="path-5" points="0.186624629 0.456003641 19.3648834 0.456003641 19.3648834 9.49519442 0.186624629 9.49519442"></polygon>
    </defs>
    <g id="Symbols" stroke="none" stroke-width="1" fill="none" fill-rule="evenodd">
        <g id="footer/L" transform="translate(-114.000000, -75.000000)">
            <g id="footer">
                <g id="logo" transform="translate(114.000000, 75.000000)">
                    <path d="M38.7589442,6.21498652 L8.39814108,23.6504052 C6.66323805,24.6468547 5.59405362,26.4885243 5.59405362,28.4819126 L5.59602175,63.3532394 C5.59602175,65.3456489 6.66471414,67.1873186 8.40010921,68.183768 L38.7623884,85.6196761 C40.4977835,86.6161256 42.6351683,86.6161256 44.3705633,85.6196761 L74.7313664,68.1842574 C76.4662694,67.187808 77.5354539,65.3461383 77.5354539,63.3532394 L77.5339778,28.4819126 C77.5334857,26.4890137 76.4647933,24.6473441 74.7293983,23.6508946 L44.3671191,6.21498652 C42.631724,5.21853704 40.4938472,5.21853704 38.7589442,6.21498652" id="Fill-1" fill="#FBD100"></path>
                    <g id="Group-5" transform="translate(0.000000, 0.149761)">
                        <mask id="mask-2" fill="white">
                            <use xlink:href="#path-1"></use>
                        </mask>
                        <g id="Clip-4"></g>
                        <path d="M41.56313,0.339703133 C38.9312536,0.339703133 36.3357875,1.03173631 34.0566976,2.3399433 L7.50667843,17.5871863 C2.87617007,20.2466689 -0.000246015745,25.2024878 -0.000246015745,30.520474 L0.00123007873,61.0154495 C0.00123007873,66.3329463 2.87764617,71.2882759 7.50815452,73.947269 L34.0601418,89.1950014 C36.3392317,90.5041872 38.9346978,91.195731 41.5665743,91.195731 C44.1979587,91.195731 46.7939168,90.5041872 49.0730067,89.1950014 L75.6230259,73.9477584 C80.2535342,71.2887653 83.1299503,66.3329463 83.1294583,61.0144707 L83.1284742,30.5199846 C83.1279822,25.2019984 80.2515661,20.2466689 75.6215498,17.5881652 L49.0690704,2.3399433 C46.7904726,1.03173631 44.1945144,0.339703133 41.56313,0.339703133 M41.56313,5.90435465 C43.1888021,5.90435465 44.8154582,6.3228047 46.2723634,7.15921538 L72.8243508,22.4069478 C75.7386533,24.080748 77.5335841,27.1733631 77.5335841,30.520474 L77.5350602,61.0149601 C77.5355523,64.3620711 75.7401294,67.4551755 72.8258269,69.1289757 L46.2758077,84.3762188 C44.8184104,85.2126294 43.1927383,85.6310795 41.5665743,85.6310795 C39.9404102,85.6310795 38.3142461,85.2126294 36.8573409,84.3762188 L10.3053535,69.1279969 C7.39105103,67.4546861 5.59562812,64.3620711 5.59562812,61.0149601 L5.59415203,30.520474 C5.59415203,27.1733631 7.3890829,24.0802586 10.3038774,22.4064584 L36.8538966,7.15921538 C38.3108019,6.3228047 39.9364739,5.90435465 41.56313,5.90435465" id="Fill-3" fill="#FBD100" mask="url(#mask-2)"></path>
                    </g>
                    <path d="M41.56313,3.82810829 C39.5197233,3.82810829 37.5043623,4.36548624 35.735017,5.38151233 L9.18450581,20.6287554 C5.58972374,22.6931089 3.35639281,26.5408917 3.35688484,30.6700883 L3.3578689,61.1645744 C3.35836094,65.2937709 5.59119984,69.1410643 9.18647393,71.2054179 L35.7384613,86.4531503 C37.5078065,87.4696658 39.5231675,88.0065543 41.5665743,88.0065543 C43.609981,88.0065543 45.62485,87.4691764 47.3946873,86.4531503 L73.9447065,71.2059073 C77.5399806,69.1415537 79.7733115,65.2937709 79.7728195,61.1645744 L79.7718354,30.6700883 C79.7713434,26.5408917 77.5380124,22.6935984 73.9432304,20.6292448 L47.391243,5.38151233 C45.6214058,4.36548624 43.6060448,3.82810829 41.56313,3.82810829 M41.56313,6.0539689 C43.1888021,6.0539689 44.8154582,6.47241894 46.2723634,7.30882962 L72.8243508,22.5570515 C75.7386533,24.2303623 77.5335841,27.3229773 77.5335841,30.6700883 L77.5350602,61.1645744 C77.5355523,64.5116853 75.7401294,67.6047898 72.8258269,69.27859 L46.2758077,84.525833 C44.8184104,85.3627331 43.1927383,85.7806937 41.5665743,85.7806937 C39.9404102,85.7806937 38.3142461,85.3622437 36.8573409,84.525833 L10.3053535,69.2776111 C7.39105103,67.6043004 5.59562812,64.5116853 5.59562812,61.1645744 L5.59415203,30.6700883 C5.59415203,27.3229773 7.3890829,24.2298729 10.3038774,22.5560727 L36.8538966,7.30882962 C38.3108019,6.47241894 39.9364739,6.0539689 41.56313,6.0539689" id="Fill-6" fill="#201816"></path>
                    <path d="M58.7498392,68.227326 C58.0472182,68.227326 57.4774458,67.6610725 57.4774458,66.9621875 L57.4774458,52.9350567 C57.4774458,52.2361718 58.0472182,51.6694289 58.7498392,51.6694289 C59.4524602,51.6694289 60.0217406,52.2361718 60.0217406,52.9350567 L60.0217406,66.9621875 C60.0217406,67.6610725 59.4524602,68.227326 58.7498392,68.227326" id="Fill-8" fill="#201816"></path>
                    <path d="M53.3228795,68.2215998 C52.8515133,68.2215998 52.3983523,67.9597627 52.1779222,67.5095006 L46.4580561,55.8256901 L40.737206,67.5095006 C40.4301783,68.1383992 39.6685136,68.4002364 39.0367452,68.093373 C38.4049767,67.7874885 38.1422319,67.0298737 38.4497516,66.4019539 L45.3140829,52.3811855 C45.5271325,51.9460953 45.971437,51.6695757 46.4580561,51.6695757 C46.9446753,51.6695757 47.3884877,51.9460953 47.6015373,52.3811855 L54.4653766,66.4019539 C54.7733883,67.0303631 54.5106435,67.7874885 53.878875,68.093373 C53.6997756,68.1804889 53.5093594,68.2215998 53.3228795,68.2215998" id="Fill-10" fill="#201816"></path>
                    <path d="M24.0145317,68.1931648 C23.3119108,68.1931648 22.7426303,67.6269113 22.7426303,66.9280264 L22.7426303,52.9351546 C22.7426303,52.2362696 23.3119108,51.6695268 24.0145317,51.6695268 C24.7171527,51.6695268 25.2869252,52.2362696 25.2869252,52.9351546 L25.2869252,66.9280264 C25.2869252,67.6269113 24.7171527,68.1931648 24.0145317,68.1931648" id="Fill-12" fill="#201816"></path>
                    <path d="M35.2022453,68.1530328 C34.8632356,68.1530328 34.524718,68.018933 34.2737819,67.7531805 L27.7927431,60.880322 C27.3341698,60.3938432 27.3336778,59.6367178 27.7917591,59.1497496 L33.9396925,52.6145876 C34.4199153,52.1046169 35.2243868,52.0781885 35.7380676,52.5553684 C36.2507644,53.0330377 36.2778262,53.8342105 35.7976034,54.3441812 L30.4639821,60.0135675 L36.1297247,66.0221187 C36.6104395,66.5316 36.5848538,67.3322834 36.072157,67.8104421 C35.8266333,68.0394884 35.5141933,68.1530328 35.2022453,68.1530328" id="Fill-14" fill="#201816"></path>
                    <path d="M24.0835145,33.7641716 L10.3159814,33.7641716 C9.61336046,33.7641716 9.04358799,33.1974287 9.04358799,32.4985437 C9.04358799,31.7996587 9.61336046,31.2334052 10.3159814,31.2334052 L24.0835145,31.2334052 C24.7861355,31.2334052 25.3554159,31.7996587 25.3554159,32.4985437 C25.3554159,33.1974287 24.7861355,33.7641716 24.0835145,33.7641716" id="Fill-16" fill="#201816"></path>
                    <path d="M17.334663,47.3450046 C16.6320421,47.3450046 16.0627616,46.7787511 16.0627616,46.0798661 L16.0627616,32.721766 C16.0627616,32.0223916 16.6320421,31.4561381 17.334663,31.4561381 C18.037284,31.4561381 18.6065644,32.0223916 18.6065644,32.721766 L18.6065644,46.0798661 C18.6065644,46.7787511 18.037284,47.3450046 17.334663,47.3450046" id="Fill-18" fill="#201816"></path>
                    <path d="M44.2505568,47.3402083 C43.5479359,47.3402083 42.9786554,46.7734654 42.9786554,46.0745804 L42.9786554,32.0821981 C42.9786554,31.3833131 43.5479359,30.8165703 44.2505568,30.8165703 C44.9531778,30.8165703 45.5224582,31.3833131 45.5224582,32.0821981 L45.5224582,46.0745804 C45.5224582,46.7734654 44.9531778,47.3402083 44.2505568,47.3402083" id="Fill-20" fill="#201816"></path>
                    <path d="M67.4836442,47.6465823 L65.6523029,47.6465823 C62.2130028,47.6465823 59.4153118,44.8637671 59.4153118,41.4427544 L59.4153118,32.0821981 C59.4153118,31.3833131 59.9845922,30.8165703 60.6872132,30.8165703 C61.3898341,30.8165703 61.9596066,31.3833131 61.9596066,32.0821981 L61.9596066,41.4427544 C61.9596066,43.4679548 63.6162766,45.1158159 65.6523029,45.1158159 L67.4836442,45.1158159 C69.5196705,45.1158159 71.1763405,43.4679548 71.1763405,41.4427544 L71.1763405,32.0821981 C71.1763405,31.3833131 71.7456209,30.8165703 72.4482419,30.8165703 C73.1513549,30.8165703 73.7206353,31.3833131 73.7206353,32.0821981 L73.7206353,41.4427544 C73.7206353,44.8637671 70.9229443,47.6465823 67.4836442,47.6465823" id="Fill-22" fill="#201816"></path>
                    <path d="M55.452687,47.2957694 C55.1141693,47.2957694 54.7761437,47.162159 54.5256996,46.8973854 L48.0298999,40.0284422 C47.5698505,39.5419634 47.5688664,38.7838592 48.0274398,38.2964016 L54.1753732,31.761729 C54.655596,31.2517583 55.4605595,31.2248405 55.9742404,31.7025098 C56.4869372,32.1801791 56.5135069,32.9808624 56.0337762,33.4913225 L50.7011389,39.1592407 L56.3791823,45.1633871 C56.8603891,45.672379 56.8362795,46.4730623 56.3240747,46.9517105 C56.078551,47.1817356 55.765127,47.2957694 55.452687,47.2957694" id="Fill-24" fill="#201816"></path>
                    <path d="M32.3893997,33.2871874 L27.5094314,36.0905581 C27.3677263,36.171801 27.2796527,36.3230303 27.2796527,36.4855162 L27.2796527,42.0912786 C27.2796527,42.2537644 27.3677263,42.4054832 27.5094314,42.4867261 L32.3893997,45.2891179 C32.5311048,45.3708502 32.70676,45.3703608 32.8484651,45.2891179 L37.7284334,42.4862367 C37.8701385,42.4049938 37.9577201,42.253275 37.9577201,42.0907892 L37.9577201,36.4850268 C37.9577201,36.3225409 37.8701385,36.1713116 37.7284334,36.0895792 L32.8484651,33.2871874 C32.70676,33.2059445 32.5306128,33.2059445 32.3893997,33.2871874 M32.6186864,47.8800823 C32.0995932,47.8800823 31.5800079,47.7469613 31.1170063,47.4807194 L26.237038,44.6788171 C25.3105427,44.1463333 24.7353579,43.1552673 24.7353579,42.0912786 L24.7353579,36.4855162 C24.7353579,35.4215274 25.3105427,34.4304615 26.237038,33.8984671 L31.1170063,31.0955859 C32.0430096,30.5635915 33.1943632,30.5635915 34.1203665,31.0955859 L39.0008269,33.8979777 C39.9268301,34.4294827 40.502507,35.421038 40.502507,36.4850268 L40.502507,42.0907892 C40.502507,43.1552673 39.9268301,44.1463333 39.0008269,44.6778382 L34.1208585,47.4807194 C33.6578569,47.7469613 33.1382716,47.8800823 32.6186864,47.8800823" id="Fill-26" fill="#DB3412"></path>
                    <path d="M34.4740879,45.8181758 L34.4740879,38.216578 C34.4740879,38.0619227 34.3904426,37.9175452 34.2551339,37.8402176 L28.178053,34.2459519 L30.0610575,33.162876 L36.3639809,36.7825912 C36.4992896,36.8599188 36.5829349,37.0042963 36.5829349,37.1589516 L36.5829349,44.6063836 L34.4740879,45.8181758 Z" id="Fill-28" fill="#DB3412"></path>
                    <path d="M71.036948,88.6441645 C71.1225614,88.6441645 71.1653682,88.6035431 71.1796371,88.5095753 C71.2224438,88.306468 71.6229575,86.3204209 71.6229575,86.2264532 C71.6229575,86.1721281 71.5944196,86.1456996 71.5083141,86.1456996 C71.1082925,86.1456996 70.2073829,86.131996 69.8358991,86.131996 C69.7069868,86.131996 69.6927179,86.1589139 69.6641801,86.2939925 L69.2208597,88.4821681 C69.2208597,88.5095753 69.2065908,88.5360038 69.2065908,88.5629216 C69.2065908,88.6167573 69.2351286,88.6441645 69.3207421,88.6441645 L71.036948,88.6441645 Z M71.9230967,89.3327718 C71.7946765,89.3464754 71.7518697,89.3464754 71.7233319,89.4815541 C71.4945373,90.6566401 71.2800115,91.8190013 71.2081749,92.2917765 C71.1653682,92.534037 70.9793803,92.6421978 70.7933924,92.6421978 C70.5936276,92.6421978 70.4076397,92.5208228 70.4076397,92.3045013 C70.4076397,92.2775834 70.4076397,92.236962 70.4219086,92.2105336 C70.5793587,91.4538976 70.9936492,89.3738827 70.9936492,89.3601791 C70.9936492,89.3327718 70.9793803,89.305854 70.8932748,89.305854 L69.2208597,89.305854 C69.0491407,89.305854 69.0491407,89.3601791 69.0206029,89.4815541 C68.7918083,90.6566401 68.5630136,91.8190013 68.4916691,92.2917765 C68.4483703,92.534037 68.2628744,92.6421978 68.0768865,92.6421978 C67.8766297,92.6421978 67.6906418,92.5208228 67.6906418,92.3045013 C67.6906418,92.2775834 67.6906418,92.236962 67.7054027,92.2105336 C67.8052851,91.7504832 68.2628744,89.5089613 68.2628744,89.4003111 C68.2628744,89.3464754 68.2486055,89.3190682 68.1915299,89.3190682 C67.9770041,89.3190682 67.5622216,89.3327718 67.3905026,89.3327718 C67.3619648,89.3327718 66.97572,89.3601791 66.97572,88.9818611 C66.97572,88.7929468 67.1046323,88.6167573 67.3619648,88.6167573 L67.3767257,88.6167573 C67.5622216,88.6167573 68.005542,88.6304609 68.2914123,88.6304609 C68.4203245,88.6304609 68.4341014,88.6035431 68.4631312,88.4958717 C68.5202069,88.185093 68.9059596,86.2802888 68.9059596,86.2127495 C68.9059596,86.1721281 68.8779138,86.1456996 68.8060772,86.1456996 C68.5915515,86.1456996 68.1482311,86.1456996 67.9479743,86.1589139 C67.9194364,86.1589139 67.5331917,86.1858317 67.5331917,85.8075137 C67.5331917,85.6318136 67.662104,85.4561135 67.9194364,85.4561135 L67.9341974,85.4561135 C68.1344542,85.4561135 68.6200893,85.4698172 68.9492584,85.4698172 C69.0491407,85.4698172 69.0634097,85.4296851 69.0781706,85.3621458 L69.5209989,83.1059415 C69.5642977,82.8759163 69.7497936,82.7687343 69.9357815,82.7687343 C70.1355463,82.7687343 70.3220262,82.8896199 70.3220262,83.1059415 L69.8644369,85.3621458 L69.8644369,85.4159815 C69.8644369,85.4561135 69.8787058,85.4835208 69.9500504,85.4835208 L71.6514953,85.4835208 C71.7085709,85.4835208 71.7799155,85.4428993 71.7946765,85.3621458 L72.2375048,83.1059415 C72.2808036,82.8759163 72.4662994,82.7687343 72.6522873,82.7687343 C72.8525442,82.7687343 73.0385321,82.8896199 73.0385321,83.1059415 C73.0385321,83.1328593 73.0385321,83.1328593 72.5809428,85.3484422 C72.5809428,85.3758494 72.5661818,85.3885742 72.5661818,85.4022779 C72.5661818,85.4698172 72.6237495,85.4698172 72.6670483,85.4698172 L73.3957469,85.4561135 L73.4100158,85.4561135 C73.6963782,85.4561135 73.8538282,85.6318136 73.8538282,85.8075137 C73.8538282,85.9832138 73.6963782,86.1589139 73.3957469,86.1589139 L72.8097374,86.1589139 C72.4662994,86.1589139 72.4234927,86.1589139 72.380686,86.3478281 L71.9373656,88.4821681 L71.9373656,88.5360038 C71.9373656,88.5903289 71.9516345,88.6304609 72.0520089,88.6304609 L72.8382752,88.6167573 L72.8525442,88.6167573 C73.1384145,88.6167573 73.2815956,88.7929468 73.2815956,88.9686469 C73.2815956,89.1443469 73.1384145,89.3327718 72.8382752,89.3327718 L71.9230967,89.3327718 Z" id="Fill-30" fill="#595959"></path>
                    <path d="M82.5321813,86.7532108 C82.3171635,86.7532108 82.2172811,86.6044286 82.2172811,86.4698394 C82.2172811,86.3205677 82.3171635,86.1722749 82.5321813,86.1722749 L85.6777386,86.1722749 C85.8779954,86.1722749 85.9641009,86.3205677 85.9641009,86.4561357 C85.9641009,86.6044286 85.8779954,86.7532108 85.6777386,86.7532108 L82.5321813,86.7532108 Z M83.590049,88.522447 C83.5044355,88.8875508 83.3612543,89.3329186 83.2323421,89.7518581 C83.918726,89.7518581 84.8339046,89.7381545 85.3205237,89.7244509 L85.3918683,89.7244509 C86.2066724,89.7244509 86.5501104,90.1296867 86.5501104,90.6704906 C86.5501104,90.9807798 86.3926603,91.710498 86.1353279,92.2777303 C85.7918899,93.0206626 85.105506,93.3583592 84.2193572,93.3583592 C83.761768,93.3583592 83.246611,93.263902 82.6891393,93.0877125 C82.5321813,93.0338768 82.4603447,92.9129913 82.4603447,92.7911269 C82.4603447,92.6154268 82.5892569,92.4265125 82.8037826,92.4265125 C82.8465894,92.4265125 82.8898882,92.4402161 82.9464718,92.4529409 C83.4758977,92.628641 83.8901882,92.7098839 84.2478951,92.7098839 C85.6920075,92.7098839 85.7918899,90.8731085 85.7918899,90.792355 C85.7918899,90.4135475 85.5630952,90.3058762 85.1916115,90.3058762 C84.7768289,90.3058762 83.7760369,90.3058762 83.0463542,90.3195798 C82.8180516,90.9807798 82.6748704,91.0757264 82.4746136,91.0757264 C82.2886257,91.0757264 82.1173987,90.9670762 82.1173987,90.8050797 C82.1173987,90.7649477 82.1316676,90.7380299 82.1459365,90.6978978 C82.5174203,89.9138546 82.7039002,89.2384615 82.8751272,88.522447 L80.9591566,88.5361506 C80.7588998,88.5361506 80.6585253,88.3873684 80.6585253,88.2390755 C80.6585253,88.1039969 80.7588998,87.9557041 80.9591566,87.9557041 L87.3791835,87.9557041 C87.5794403,87.9557041 87.6793227,88.1039969 87.6793227,88.2390755 C87.6793227,88.3873684 87.5794403,88.5361506 87.3791835,88.5361506 L83.590049,88.522447 Z M85.2058804,84.1186885 C85.8351887,85.1998068 86.8502496,85.9970642 87.9366551,86.4287285 C88.1083741,86.4962678 88.1797187,86.6181322 88.1797187,86.7395072 C88.1797187,86.9152073 88.0227607,87.0909073 87.8082349,87.0909073 C87.4219902,87.0909073 85.4917507,85.9970642 84.5623032,84.1186885 L83.6613935,84.1186885 C82.7324381,86.1184392 80.9306188,87.3468715 80.5871808,87.3468715 C80.3731471,87.3468715 80.2014281,87.1721503 80.2014281,86.9964502 C80.2014281,86.8878 80.2585037,86.7806181 80.4011929,86.7120999 C81.6598094,86.091032 82.4888825,85.1190532 82.9612327,84.1186885 L81.0737999,84.1323921 C80.8445132,84.1323921 80.716093,83.9699062 80.716093,83.8216134 C80.716093,83.6596169 80.8445132,83.5108347 81.0737999,83.5108347 L83.2038042,83.5245383 C83.3897921,83.0248453 83.4758977,82.5251524 83.5187044,82.0929987 C83.5329733,81.8903808 83.7042003,81.8091378 83.8759193,81.8091378 C84.0761761,81.8091378 84.2764329,81.9305128 84.2764329,82.1199165 C84.2764329,82.3225344 84.090445,82.9984169 83.9049491,83.5245383 L83.9762937,83.5245383 L87.5223646,83.5108347 C87.7506672,83.5108347 87.8653106,83.6596169 87.8653106,83.8216134 C87.8653106,83.9699062 87.7506672,84.1323921 87.5223646,84.1323921 L85.2058804,84.1186885 Z M78.1855751,82.8760631 C76.8698829,82.8760631 76.840853,82.8760631 76.840853,84.1867172 C76.840853,85.4293425 76.8841518,85.4562604 78.028125,85.4562604 C79.5293131,85.4562604 79.5583429,85.4562604 79.5583429,84.1597993 C79.5583429,82.9034704 79.543582,82.8760631 78.1855751,82.8760631 Z M78.1137385,86.009789 C77.0844086,86.009789 76.2120368,86.009789 76.16923,85.0378103 C76.1549611,84.7808673 76.1549611,84.5102207 76.1549611,84.2542565 C76.1549611,83.8891527 76.1549611,83.5519456 76.16923,83.2675953 C76.1834989,82.8085238 76.5554748,82.3362381 77.2984423,82.3093202 C77.6276114,82.296106 77.9134817,82.2824024 78.199352,82.2824024 C78.4857143,82.2824024 78.7715846,82.296106 79.0717238,82.3093202 C79.7723766,82.3362381 80.2014281,82.7140667 80.215697,83.2411669 C80.2299659,83.5519456 80.2442348,83.9576708 80.2442348,84.3354994 C80.2442348,85.2810497 80.1871592,85.9559533 79.0146481,85.9970642 L78.7858535,85.9970642 L78.7858535,88.1039969 L80.1300835,88.1039969 C80.3446093,88.1039969 80.4444916,88.2522897 80.4444916,88.401072 C80.4444916,88.5630684 80.3446093,88.7113613 80.1300835,88.7113613 L78.7858535,88.7113613 L78.7858535,91.2509371 C79.4151618,91.0218907 80.0154402,90.8050797 80.4872984,90.6024618 C80.544374,90.575544 80.6019417,90.575544 80.6447485,90.575544 C80.8307364,90.575544 80.9448877,90.711112 80.9448877,90.8598943 C80.9448877,90.9807798 80.8735431,91.1031336 80.716093,91.1701835 C79.1716062,91.8450872 76.2405746,92.8185341 75.8543299,92.8185341 C75.6255352,92.8185341 75.497115,92.6423446 75.497115,92.4666446 C75.497115,92.2234052 75.5689516,92.210191 76.2553355,92.0481945 L76.2553355,87.6987611 C76.2553355,87.4966326 76.4265625,87.3879824 76.5977895,87.3879824 C76.7695084,87.3879824 76.9417195,87.4966326 76.9417195,87.6987611 L76.9417195,91.8592802 C77.3269801,91.75063 77.7279858,91.629255 78.1137385,91.4946659 L78.1137385,86.009789 Z" id="Fill-32" fill="#595959"></path>
                    <path d="M95.799958,88.5767721 C95.799958,88.7392579 95.8142269,88.8875508 95.8142269,89.02214 C95.8284958,89.3735401 96.0287526,89.5624544 96.5434176,89.576158 C96.972469,89.5898617 97.5442096,89.5898617 98.1449801,89.5898617 C98.7309896,89.5898617 99.3460289,89.5898617 99.846425,89.576158 C100.33206,89.5624544 100.51854,89.4004579 100.532809,89.0084363 C100.532809,88.8738471 100.547078,88.7250649 100.547078,88.5767721 L95.799958,88.5767721 Z M100.547078,88.062886 C100.547078,87.9145932 100.532809,87.7932182 100.532809,87.6576502 C100.504271,87.1178252 100.289745,87.1178252 98.4308504,87.1178252 C97.7301975,87.1178252 97.0152758,87.1178252 96.5291487,87.1310394 C95.9854539,87.144743 95.8284958,87.3204431 95.8142269,87.6576502 C95.8142269,87.7932182 95.799958,87.9145932 95.799958,88.062886 L100.547078,88.062886 Z M102.005459,90.9132405 C102.191447,90.9132405 102.391212,91.0081871 102.391212,91.1701835 L102.391212,91.346373 C102.391212,93.0338768 101.648244,93.2771162 100.217909,93.2771162 C99.17431,93.2771162 98.6453761,93.0206626 98.6453761,92.0212767 C98.6453761,91.5073906 98.659645,90.6567869 98.6881828,90.0895546 C97.8591098,90.0895546 97.0005148,90.0895546 96.3431608,90.0763404 C95.1135741,90.0626368 95.0993052,89.4273758 95.0993052,88.3198291 C95.0993052,87.2798216 95.0993052,86.6445606 96.3574297,86.6318358 C96.9582001,86.6181322 97.7016597,86.6181322 98.4451193,86.6181322 C98.9883221,86.6181322 99.5315248,86.6181322 100.018144,86.6318358 C100.947099,86.6445606 101.247239,87.0497965 101.262,87.5499788 C101.276268,87.8607575 101.276268,88.144129 101.276268,88.441204 C101.276268,89.319215 101.276268,90.0352295 100.018144,90.0763404 C99.8178871,90.0763404 99.6176303,90.0895546 99.4031046,90.0895546 C99.3745668,90.6704906 99.3460289,91.5073906 99.3460289,91.9400337 C99.3460289,92.5478875 99.6033614,92.6697519 100.260715,92.6697519 C101.219193,92.6697519 101.676782,92.6697519 101.676782,91.2910691 L101.676782,91.1838872 C101.676782,90.9944835 101.83374,90.9132405 102.005459,90.9132405 Z M95.0422295,83.7271562 C94.8277038,83.7271562 94.7273293,83.578374 94.7273293,83.4300812 C94.7273293,83.2812989 94.8277038,83.1330061 95.0422295,83.1330061 L97.7444664,83.1467097 L97.7444664,82.1473238 C97.7444664,81.9305128 97.9442312,81.8228415 98.1449801,81.8228415 C98.330968,81.8228415 98.5307328,81.9305128 98.5307328,82.1473238 L98.5307328,83.1467097 L101.404689,83.1330061 C101.619706,83.1330061 101.733858,83.2812989 101.733858,83.4300812 C101.733858,83.578374 101.619706,83.7271562 101.404689,83.7271562 L95.0422295,83.7271562 Z M94.6417159,85.7939569 C94.4414591,85.7939569 94.3273077,85.6451747 94.3273077,85.4968818 C94.3273077,85.3622926 94.4414591,85.2135104 94.6417159,85.2135104 L96.7151366,85.2262352 C96.6004932,84.9291601 96.4002364,84.6051672 96.1999796,84.349203 C96.1714418,84.3080922 96.1576649,84.2806849 96.1576649,84.2405529 C96.1576649,84.1059637 96.3431608,83.9978029 96.5434176,83.9978029 C96.986738,83.9978029 97.3867596,84.9428638 97.4443272,85.1454817 C97.4585962,85.1723995 97.4585962,85.1998068 97.4585962,85.2262352 L98.9169775,85.2262352 C99.0744276,84.9565674 99.2746844,84.5102207 99.3460289,84.1730135 C99.3745668,84.0247207 99.5177479,83.9576708 99.6604371,83.9576708 C99.8606939,83.9576708 100.103757,84.09226 100.103757,84.2943885 C100.103757,84.4431708 99.7460505,85.0515139 99.6461682,85.2262352 L102.076804,85.2135104 C102.277061,85.2135104 102.377435,85.3622926 102.377435,85.4968818 C102.377435,85.6451747 102.277061,85.7939569 102.076804,85.7939569 L94.6417159,85.7939569 Z M93.2832169,93.4929484 L93.2118724,93.4929484 C92.940271,93.4929484 92.7970898,93.3172483 92.7970898,93.142527 C92.7970898,92.9805306 92.9112411,92.8185341 93.1257668,92.8043411 C95.0707673,92.6149374 96.2575473,91.9801658 96.8578257,90.5750546 C96.9291703,90.4130581 97.0723514,90.3318152 97.2155326,90.3318152 C97.4015205,90.3318152 97.5870164,90.4678726 97.5870164,90.6704906 C97.5870164,90.6704906 97.0866203,93.0617735 93.2832169,93.4929484 Z M91.92521,85.5781248 L90.4520677,85.5781248 C90.238034,85.5781248 90.1376596,85.4161283 90.1376596,85.2673461 C90.1376596,85.1053496 90.238034,84.9428638 90.4520677,84.9428638 L91.92521,84.9565674 L91.92521,82.296106 C91.92521,82.0660808 92.1107059,81.9579201 92.2966938,81.9579201 C92.4826817,81.9579201 92.6686696,82.0660808 92.6686696,82.296106 L92.6544007,84.9565674 L93.9125252,84.9428638 C94.1270509,84.9428638 94.2274254,85.1053496 94.2274254,85.2536424 C94.2274254,85.4161283 94.1270509,85.5781248 93.9125252,85.5781248 L92.6544007,85.5781248 L92.6401318,89.1444938 C93.1547967,88.9413864 93.6266549,88.7392579 94.0409454,88.5361506 C94.0837522,88.5092328 94.1270509,88.5092328 94.1698577,88.5092328 C94.3415767,88.5092328 94.4699969,88.658015 94.4699969,88.8337151 C94.4699969,88.9413864 94.4129212,89.0632508 94.2702321,89.1307901 C93.0544223,89.7107472 90.6808624,90.6161655 90.3236475,90.6161655 C90.080584,90.6161655 89.9516717,90.4404654 89.9516717,90.2647653 C89.9516717,90.1164725 90.0372852,89.9818833 90.2237651,89.9275582 C90.7812368,89.7782865 91.3820072,89.6035653 91.9394789,89.4004579 L91.92521,85.5781248 Z" id="Fill-34" fill="#595959"></path>
                    <path d="M115.373118,88.0092461 C115.373118,87.1048067 115.345072,86.2263063 115.330312,85.5372096 C115.316535,84.9293559 114.915529,84.7135238 114.401356,84.6998201 C113.972305,84.6861165 113.442879,84.6724129 112.928706,84.6724129 C112.414041,84.6724129 111.912661,84.6861165 111.484593,84.6998201 C110.898092,84.7135238 110.554654,85.0380061 110.540385,85.5372096 C110.526608,86.2263063 110.511847,87.1048067 110.511847,88.0092461 L115.373118,88.0092461 Z M110.497578,88.6440177 C110.497578,89.6972394 110.511847,90.7651435 110.540385,91.6020436 C110.554654,92.4404119 111.055542,92.5074618 113.071887,92.5074618 C114.544045,92.5074618 115.301774,92.480544 115.330312,91.5883399 C115.359341,90.7377362 115.373118,89.6845146 115.373118,88.6440177 L110.497578,88.6440177 Z M114.544045,84.0924558 C115.459224,84.1325878 116.074263,84.5784451 116.102801,85.2949491 C116.145608,86.3075493 116.159877,87.4420138 116.159877,88.6170999 C116.159877,89.6845146 116.145608,90.7783577 116.102801,91.8188545 C116.074263,92.5612975 115.473493,93.0477762 114.515507,93.1016119 C114.00035,93.1290192 113.400072,93.1422334 112.799794,93.1422334 C112.299398,93.1422334 111.784733,93.1290192 111.355189,93.1153155 C110.268784,93.0614799 109.796925,92.5211654 109.782656,91.8051509 C109.768388,90.8733042 109.754119,89.8734289 109.754119,88.8603393 C109.754119,87.6446318 109.768388,86.4152206 109.782656,85.3071845 C109.796925,84.6459845 110.369158,84.1188842 111.226769,84.0924558 C111.484593,84.0924558 111.756195,84.0787522 112.027304,84.0787522 C112.242322,83.484602 112.442087,82.7411803 112.5277,82.2008658 C112.571491,81.9718195 112.756987,81.8768729 112.942483,81.8768729 C113.185546,81.8768729 113.429102,82.0119515 113.429102,82.2282731 C113.429102,82.5253481 112.827839,83.9838056 112.785033,84.0787522 C114.257683,84.0787522 114.315251,84.0787522 114.544045,84.0924558 Z M106.608561,88.7790963 C105.264331,89.2655751 105.064075,89.3194108 104.935162,89.3194108 C104.692099,89.3194108 104.563678,89.1574143 104.563678,88.9822037 C104.563678,88.8466356 104.649784,88.711557 104.83528,88.6577213 C105.450319,88.4683176 106.036329,88.2926176 106.608561,88.0904891 L106.608561,85.3208881 L104.921385,85.3345917 C104.706368,85.3345917 104.592216,85.1725953 104.592216,85.0105988 C104.592216,84.8486024 104.706368,84.6861165 104.921385,84.6861165 L106.608561,84.6998201 L106.594292,82.1602443 C106.594292,81.9179838 106.78028,81.79563 106.980045,81.79563 C107.166033,81.79563 107.352021,81.9179838 107.352021,82.1602443 L107.352021,84.6998201 L108.638683,84.6861165 C108.867478,84.6861165 108.967852,84.8486024 108.967852,85.0105988 C108.967852,85.1725953 108.867478,85.3345917 108.638683,85.3345917 L107.352021,85.3208881 L107.352021,87.8071176 C107.781072,87.6314175 108.181586,87.4557175 108.581608,87.2530996 C108.624414,87.2256923 108.667713,87.2256923 108.710028,87.2256923 C108.881747,87.2256923 109.039197,87.3881782 109.039197,87.5501746 C109.039197,87.7523031 108.853209,87.9010854 107.352021,88.4957249 C107.352021,89.4412752 107.337752,90.1837181 107.337752,90.3868255 C107.337752,90.6026576 107.352021,91.5482079 107.36629,92.0351761 L107.36629,92.0753081 C107.36629,92.8182405 106.980045,93.3443619 105.922177,93.3443619 C104.935162,93.3443619 104.806742,93.1691512 104.806742,92.898994 C104.806742,92.7237833 104.935162,92.5475938 105.135911,92.5475938 L105.192987,92.5475938 C105.464588,92.5882153 105.707652,92.6283474 105.922177,92.6283474 C106.336468,92.6283474 106.594292,92.4937582 106.608561,91.9940652 L106.608561,88.7790963 Z" id="Fill-36" fill="#595959"></path>
                    <path d="M128.697872,86.7804223 C129.327181,86.7804223 129.427555,86.6448543 129.427555,86.1720791 C129.427555,85.8211684 129.369987,85.5642254 128.669826,85.5642254 C128.197476,85.5642254 127.582437,85.5505217 126.896545,85.5505217 L126.896545,86.7804223 L128.697872,86.7804223 Z M130.370779,93.45311 C130.127716,93.45311 128.212237,93.3043277 126.5103,92.5075597 C126.38188,92.4400204 126.324804,92.3455632 126.324804,92.236913 C126.324804,92.0749166 126.467494,91.9124307 126.653973,91.9124307 C126.710065,91.9124307 126.767633,91.9266238 126.824708,91.9535416 C127.982951,92.4801524 129.270105,92.7096882 130.428347,92.7370954 C130.685679,92.7370954 130.814592,92.9127955 130.814592,93.074792 C130.814592,93.2637063 130.671903,93.45311 130.370779,93.45311 Z M123.979782,86.7804223 L126.210161,86.7804223 L126.210161,85.5505217 L123.979782,85.5505217 L123.979782,86.7804223 Z M128.326881,88.9950263 C128.297851,88.6034941 128.069548,88.373469 127.468778,88.3607442 C126.653973,88.3470405 125.581345,88.3333369 124.551523,88.3333369 C123.922215,88.3333369 123.307175,88.3333369 122.793494,88.3470405 C122.206501,88.3607442 121.934407,88.6167084 121.921123,88.9950263 L121.921123,89.0635445 L128.326881,89.0635445 L128.326881,88.9950263 Z M128.326881,90.6164591 L121.906362,90.6164591 L121.921123,90.7109163 C121.934407,91.1836914 122.264069,91.3461773 122.806779,91.3584126 C123.551223,91.3863093 124.551523,91.3995235 125.524269,91.3995235 C126.22443,91.3995235 126.910322,91.3863093 127.482554,91.3726057 C127.982951,91.3584126 128.297851,91.1562841 128.326881,90.7241305 L128.326881,90.6164591 Z M121.891601,89.4815051 C121.891601,89.7110409 121.906362,89.9537908 121.906362,90.2112233 L128.354926,90.2112233 C128.369687,90.0898483 128.369687,89.9679839 128.369687,89.8466089 C128.369687,89.7247445 128.369687,89.6033695 128.354926,89.4815051 L121.891601,89.4815051 Z M127.682811,91.8453808 C126.982158,91.8590845 126.239191,91.8722987 125.509508,91.8722987 C124.494447,91.8722987 123.493655,91.8590845 122.636044,91.8316772 C121.691836,91.8052488 121.248516,91.4137166 121.219486,90.8459949 C121.205709,90.5489198 121.19144,90.2381411 121.19144,89.9278518 C121.19144,89.5490444 121.205709,89.1844301 121.219486,88.8467335 C121.234247,88.3607442 121.66379,87.9011832 122.592254,87.887969 C123.193516,87.8742654 123.822332,87.8742654 124.465909,87.8742654 C125.524269,87.8742654 126.639213,87.887969 127.754648,87.9011832 C128.540422,87.9143975 129.027041,88.3201227 129.055579,88.7787048 C129.084609,89.1031871 129.097894,89.4815051 129.097894,89.8598231 C129.097894,90.183816 129.084609,90.522002 129.055579,90.8322912 C129.012772,91.3863093 128.526645,91.8316772 127.682811,91.8453808 Z M123.29389,85.5505217 C122.678851,85.5505217 122.106618,85.5642254 121.66379,85.5642254 C121.019721,85.5642254 120.934107,85.7536291 120.934107,86.1319471 C120.934107,86.6179364 121.019721,86.7804223 121.66379,86.7804223 L123.29389,86.7804223 L123.29389,85.5505217 Z M128.827277,87.2257902 C127.897337,87.2394938 126.624944,87.2394938 125.324012,87.2394938 C124.022589,87.2394938 122.678851,87.2394938 121.591953,87.2257902 C120.248215,87.2120866 120.219186,86.7667187 120.219186,86.1588649 C120.219186,85.6053362 120.248215,85.1188575 121.577193,85.1051539 C122.564208,85.0914502 123.908438,85.0914502 125.237415,85.0914502 C126.582137,85.0914502 127.912098,85.0914502 128.855322,85.1051539 C130.042102,85.1188575 130.142477,85.6317647 130.142477,86.1994864 C130.142477,86.8479616 129.985027,87.2120866 128.827277,87.2257902 Z M120.648237,84.4165466 C120.461757,84.4165466 120.361875,84.2809786 120.361875,84.1596036 C120.361875,84.0250144 120.461757,83.9026606 120.648237,83.9026606 L124.737511,83.9163642 L124.737511,83.146514 L119.71879,83.1602176 C119.518533,83.1602176 119.41865,83.0246496 119.41865,82.889571 C119.41865,82.7412781 119.518533,82.6066889 119.71879,82.6066889 L124.737511,82.6203926 L124.723734,81.9983458 C124.723734,81.7683206 124.90923,81.6611387 125.109487,81.6611387 C125.294982,81.6611387 125.481462,81.7683206 125.481462,81.9983458 L125.481462,82.6203926 L130.557259,82.6066889 C130.757516,82.6066889 130.857398,82.7412781 130.857398,82.8758673 C130.857398,83.0246496 130.757516,83.1602176 130.557259,83.1602176 L125.481462,83.146514 L125.481462,83.9163642 L129.642081,83.9026606 C129.842338,83.9026606 129.94222,84.0250144 129.94222,84.1596036 C129.94222,84.2809786 129.842338,84.4165466 129.642081,84.4165466 L120.648237,84.4165466 Z M123.336697,92.0073773 C123.393773,91.97997 123.43658,91.9677346 123.493655,91.9677346 C123.679151,91.9677346 123.808555,92.1424559 123.808555,92.3044523 C123.808555,92.4131025 123.750988,92.5207739 123.622075,92.5883132 C122.349682,93.1824633 120.533594,93.5607813 119.733059,93.5607813 C119.461457,93.5607813 119.318768,93.3855707 119.318768,93.2098706 C119.318768,93.0478741 119.446696,92.8716846 119.704029,92.8716846 C120.906062,92.8315526 122.192232,92.575099 123.336697,92.0073773 Z" id="Fill-38" fill="#595959"></path>
                    <path d="M142.137909,89.6170242 L142.137909,90.7108673 L144.097179,90.7108673 C144.097179,90.3457635 144.08291,89.9679349 144.08291,89.6170242 L142.137909,89.6170242 Z M144.068149,89.0894346 C144.068149,88.9411417 144.05388,88.7928489 144.05388,88.6841987 C144.025342,87.9955914 143.582514,87.9955914 142.137909,87.9955914 L142.137909,89.0894346 L144.068149,89.0894346 Z M140.836978,84.5912189 L142.752949,84.5912189 L142.752949,83.6730759 L140.836978,83.6730759 L140.836978,84.5912189 Z M142.752949,85.1051049 L140.836978,85.1051049 L140.822709,86.1044909 L141.794963,86.1181945 L142.752949,86.1044909 L142.752949,85.1051049 Z M141.465794,87.9955914 C140.107787,87.9955914 139.59263,87.9955914 139.59263,88.6841987 L139.578361,89.0894346 L141.465794,89.0894346 L141.465794,87.9955914 Z M141.465794,89.6170242 L139.578361,89.6170242 L139.564585,90.7108673 L141.465794,90.7108673 L141.465794,89.6170242 Z M144.768802,91.2780996 L144.783071,91.8189035 L144.783071,91.8864428 C144.783071,92.5613464 144.583306,93.4256538 143.081134,93.4256538 C142.209746,93.4256538 141.823009,93.317493 141.823009,92.9939895 C141.823009,92.8182894 141.952413,92.6558036 142.15267,92.6558036 L142.209746,92.6558036 C142.580738,92.7238323 142.895638,92.7507501 143.15297,92.7507501 C143.825577,92.7507501 144.068149,92.4938071 144.08291,91.7645784 L144.08291,91.2511818 L139.564585,91.2511818 C139.564585,91.9676857 139.564585,92.6837002 139.549824,93.2499537 C139.549824,93.4799789 139.364328,93.6018433 139.192609,93.6018433 C139.02089,93.6018433 138.849663,93.4931931 138.849663,93.2636573 C138.849663,92.5882643 138.849663,91.9265748 138.86344,91.2780996 L138.134741,91.2780996 C137.934484,91.2780996 137.83411,91.1293174 137.83411,90.9805351 C137.83411,90.8322423 137.934484,90.6839495 138.134741,90.6839495 L138.878201,90.6839495 L138.920515,88.5222023 C138.935276,87.9280521 139.335298,87.4963879 140.322313,87.4826842 C140.665259,87.4826842 141.051012,87.4689806 141.465794,87.4689806 L141.465794,86.6585089 L140.350359,86.6585089 L138.234623,86.6717232 C138.020098,86.6717232 137.920215,86.5234303 137.920215,86.3751375 C137.920215,86.2395695 138.020098,86.0907872 138.234623,86.0907872 L140.164863,86.1044909 L140.164863,85.1051049 L138.906738,85.1188085 C138.706482,85.1188085 138.591838,84.9832405 138.591838,84.8481619 C138.591838,84.7135727 138.706482,84.5784941 138.906738,84.5784941 L140.164863,84.5912189 L140.164863,83.6730759 L138.591838,83.6867795 C138.392073,83.6867795 138.27743,83.5384867 138.27743,83.403408 C138.27743,83.2541364 138.392073,83.1195472 138.591838,83.1195472 L140.164863,83.1195472 L140.164863,82.2146184 C140.164863,82.011511 140.33609,81.9043291 140.507809,81.9043291 C140.665259,81.9043291 140.836978,82.011511 140.836978,82.2146184 L140.836978,83.1327614 L142.752949,83.1327614 L142.738188,82.2146184 C142.738188,81.9982968 142.910399,81.9043291 143.081134,81.9043291 C143.253345,81.9043291 143.425064,81.9982968 143.425064,82.2146184 L143.425064,83.1195472 L145.197853,83.1195472 C145.412871,83.1195472 145.52653,83.2541364 145.52653,83.403408 C145.52653,83.5384867 145.412871,83.6867795 145.197853,83.6867795 L143.425064,83.6730759 L143.425064,84.5912189 L144.583306,84.5784941 C144.783071,84.5784941 144.883445,84.7135727 144.883445,84.8481619 C144.883445,84.9832405 144.783071,85.1188085 144.583306,85.1188085 L143.410303,85.1051049 L143.410303,86.1044909 L145.583606,86.0907872 C145.798131,86.0907872 145.912775,86.2395695 145.912775,86.3751375 C145.912775,86.5234303 145.798131,86.6717232 145.583606,86.6717232 L142.752949,86.6448053 L142.137909,86.6448053 L142.137909,87.4689806 C143.940221,87.4689806 144.711234,87.4689806 144.740756,88.5094775 C144.755025,89.1706775 144.768802,90.1167172 144.768802,90.6839495 L145.741056,90.6839495 C145.941313,90.6839495 146.041195,90.8322423 146.041195,90.9805351 C146.041195,91.1293174 145.941313,91.2780996 145.741056,91.2780996 L144.768802,91.2780996 Z M137.062112,92.7908822 C136.876617,92.2373535 136.475611,91.5345532 136.146934,91.143021 C136.104127,91.1028889 136.089858,91.0485638 136.089858,91.0084318 C136.089858,90.8596496 136.275354,90.7377852 136.461834,90.7377852 C136.904662,90.7377852 137.777034,92.3592179 137.777034,92.5882643 C137.777034,92.8182894 137.547747,93.0067143 137.347983,93.0067143 C137.219562,93.0067143 137.119188,92.939175 137.062112,92.7908822 Z M136.704898,84.7674084 C136.704898,84.2540118 136.690137,83.7949403 136.675376,83.4166223 C136.662091,82.889522 136.332922,82.7950649 135.689837,82.7950649 C134.817465,82.7950649 134.71709,82.9570613 134.71709,83.4298365 C134.71709,83.781726 134.702821,84.2407976 134.702821,84.7674084 L136.704898,84.7674084 Z M134.689044,87.7259236 C134.689044,88.2662381 134.702821,88.7654416 134.71709,89.1305454 C134.731851,89.5626991 134.859779,89.7516134 135.603731,89.7516134 C136.690137,89.7516134 136.719166,89.6845635 136.719166,87.7259236 L134.689044,87.7259236 Z M134.689044,85.320937 L134.689044,87.1719056 L136.719166,87.1719056 C136.719166,86.5635624 136.704898,85.9287908 136.704898,85.320937 L134.689044,85.320937 Z M135.632269,90.3056315 C134.745628,90.3056315 134.016929,90.1974707 134.016929,89.2117884 L134.016929,83.2952473 C134.016929,82.2958613 134.831734,82.2410468 135.660315,82.2410468 C136.604523,82.2410468 137.334206,82.3634006 137.362252,83.2414116 C137.377013,84.0112618 137.390789,84.9832405 137.390789,85.9561981 C137.390789,87.1312841 137.377013,88.333288 137.362252,89.2117884 C137.347983,90.143635 136.662091,90.3056315 135.632269,90.3056315 Z M133.11602,93.0615288 C133.11602,92.9802859 133.158827,92.8858287 133.272486,92.7908822 C133.873748,92.3044034 134.359383,91.6290103 134.674284,90.9271889 C134.71709,90.8185387 134.817465,90.7784066 134.931616,90.7784066 C135.131873,90.7784066 135.360175,90.9404031 135.360175,91.143021 C135.360175,91.3324247 134.102051,93.3987359 133.544579,93.3987359 C133.330054,93.3987359 133.11602,93.2499537 133.11602,93.0615288 Z" id="Fill-40" fill="#595959"></path>
                    <path d="M157.878833,84.7945709 C157.664799,87.3468715 156.792428,90.8598943 153.389538,92.7372912 C153.289655,92.7911269 153.20355,92.8043411 153.132205,92.8043411 C152.902919,92.8043411 152.760229,92.628641 152.760229,92.4529409 C152.760229,92.345759 152.803036,92.250323 152.902919,92.1969768 C156.292031,90.2784689 156.977923,87.0497965 157.163911,84.7945709 C156.778159,84.7945709 156.349599,84.7808673 155.934817,84.7808673 C155.148058,88.5904757 152.945725,90.3460082 152.502897,90.3460082 C152.288371,90.3460082 152.131413,90.1840118 152.131413,90.0088011 C152.131413,89.9138546 152.187997,89.8056938 152.317401,89.7107472 C154.047384,88.4955291 154.876949,86.5638071 155.219895,84.7808673 C154.790843,84.7808673 154.39033,84.7945709 154.090191,84.7945709 C153.77529,85.4831782 153.403315,86.145357 153.07513,86.5907249 C152.974755,86.7258035 152.832066,86.7806181 152.702662,86.7806181 C152.517658,86.7806181 152.345447,86.6582642 152.345447,86.4825642 C152.345447,86.4287285 152.374477,86.3474856 152.431552,86.2804357 C153.289655,85.1454817 154.047384,83.3087062 154.347523,82.0660808 C154.39033,81.9040844 154.533019,81.8365451 154.6762,81.8365451 C154.876949,81.8365451 155.090491,81.9579201 155.090491,82.1600486 C155.090491,82.403288 154.39033,84.0785564 154.332762,84.213635 L158.150926,84.213635 C159.023298,84.213635 159.58077,84.6722171 159.595039,85.4968818 C159.608816,86.1047356 159.637846,86.8070465 159.637846,87.523061 C159.637846,91.4398513 158.722667,93.2364948 156.60644,93.2364948 C156.263002,93.2364948 155.877741,93.1963627 155.462466,93.1019056 C155.276971,93.0617735 155.177088,92.8992877 155.177088,92.7372912 C155.177088,92.5611017 155.290747,92.3991053 155.505273,92.3991053 C155.548572,92.3991053 155.591379,92.3991053 155.634677,92.4128089 C155.992384,92.4935624 156.320569,92.5478875 156.620709,92.5478875 C157.664799,92.5478875 158.893894,91.9537374 158.893894,87.3742788 C158.893894,86.7395072 158.865848,86.1316534 158.851087,85.6182568 C158.823041,85.0241067 158.508141,84.8082746 157.993476,84.7945709 L157.878833,84.7945709 Z M150.286787,89.0759756 C149.457222,89.3735401 148.385085,89.7518581 148.213858,89.7518581 C147.969811,89.7518581 147.827122,89.576158 147.827122,89.4004579 C147.827122,89.2653793 147.912735,89.1307901 148.099215,89.0759756 C148.884989,88.8464399 149.614672,88.6169041 150.286787,88.3873684 L150.301548,85.3887211 L149.0572,85.4161283 C148.627657,87.3879824 148.385085,87.6449254 148.027379,87.6449254 C147.856152,87.6449254 147.699194,87.5499788 147.699194,87.3742788 C147.699194,87.3341467 147.712478,87.2798216 147.741508,87.2122823 C148.342279,85.9970642 148.58485,84.5513315 148.627657,83.3351346 C148.627657,83.1193025 148.814137,83.0116311 148.999633,83.0116311 C149.185621,83.0116311 149.371609,83.1193025 149.371609,83.3224098 C149.371609,83.4844063 149.299772,84.0384244 149.171844,84.7808673 L150.301548,84.7671637 L150.314833,82.1737522 C150.314833,81.9579201 150.501313,81.8492699 150.687301,81.8492699 C150.872797,81.8492699 151.059277,81.9579201 151.059277,82.1737522 L151.044516,84.7671637 L152.288371,84.7671637 C152.517658,84.7671637 152.61754,84.9159459 152.61754,85.0779424 C152.61754,85.2262352 152.517658,85.3887211 152.288371,85.3887211 L151.044516,85.3887211 L151.030247,88.1177006 C151.516374,87.9282968 151.98774,87.7261683 152.403015,87.523061 C152.445821,87.5093574 152.474359,87.4966326 152.517658,87.4966326 C152.674616,87.4966326 152.817305,87.6576502 152.817305,87.8201361 C152.817305,88.022754 152.689377,88.1715362 151.030247,88.8063078 L151.015486,93.1963627 C151.015486,93.3984912 150.82999,93.5071414 150.644494,93.5071414 C150.458014,93.5071414 150.272518,93.3984912 150.272518,93.1963627 L150.286787,89.0759756 Z" id="Fill-42" fill="#595959"></path>
                    <path d="M168.830372,93.3856196 C168.615354,93.3856196 168.472665,93.2099195 168.472665,93.03373 C168.472665,92.9128445 168.530232,92.7909801 168.701951,92.7371444 C169.530532,92.4532835 170.217408,92.0348335 170.760611,91.575762 C169.630907,90.4814294 169.316991,89.4678504 169.316991,89.4551256 C169.316991,89.2657219 169.502487,89.1169397 169.673714,89.1169397 C169.773596,89.1169397 169.859701,89.1707754 169.902508,89.2657219 C170.245454,90.0218685 170.688774,90.6429365 171.2182,91.1431189 C172.062034,90.2646185 172.390711,89.3601791 172.390711,89.1306433 C172.390711,88.9138324 172.233261,88.7787537 171.990198,88.7787537 L171.504071,88.7787537 C170.789641,88.7787537 170.002883,88.7929468 169.059166,88.8066504 C168.873178,88.8066504 168.787565,88.6578682 168.787565,88.5223001 C168.787565,88.3607931 168.887447,88.2115215 169.073435,88.2115215 C169.788357,88.1987967 170.303022,88.1987967 170.860493,88.1987967 C171.260515,88.1987967 171.67579,88.1987967 172.190455,88.2115215 C172.848301,88.2252251 173.14844,88.5766252 173.14844,89.0219931 C173.14844,89.9279008 171.875554,91.3726546 171.70482,91.5483547 C172.40498,92.0612619 173.234053,92.4263657 174.221069,92.6559014 C174.420833,92.7097371 174.506447,92.8448157 174.506447,92.9803838 C174.506447,93.169298 174.348997,93.3582123 174.106425,93.3582123 C173.877631,93.3582123 172.519132,93.0205158 171.232469,91.9937226 C170.030928,93.0479231 168.973061,93.3856196 168.830372,93.3856196 Z M165.384675,84.0921132 C165.384675,84.8218314 165.412721,85.13261 166.21424,85.1453348 C166.828295,85.1590385 167.615054,85.1590385 168.444619,85.1590385 C169.2732,85.1590385 170.131303,85.1590385 170.875254,85.1453348 C171.475533,85.13261 171.67579,84.8619634 171.690059,84.5105633 C171.690059,84.3891883 171.70482,84.240406 171.70482,84.0921132 L165.384675,84.0921132 Z M171.70482,83.5782272 C171.70482,82.9571592 171.70482,82.5788412 170.918061,82.565627 C170.232169,82.5519234 169.316991,82.5387092 168.444619,82.5387092 C167.572247,82.5387092 166.742682,82.5519234 166.199479,82.565627 C165.642007,82.5788412 165.412721,82.8494879 165.398944,83.2141022 C165.398944,83.322263 165.384675,83.443638 165.384675,83.5782272 L171.70482,83.5782272 Z M167.414797,90.2244864 L165.026968,90.2244864 L165.026968,91.6829439 C165.942147,91.4538976 166.828295,91.1964651 167.414797,91.0217439 L167.414797,90.2244864 Z M165.026968,89.6973862 L167.414797,89.6973862 L167.414797,88.7117039 L165.026968,88.7117039 L165.026968,89.6973862 Z M165.026968,88.1987967 L167.414797,88.1987967 L167.414797,87.1852177 L165.026968,87.1852177 L165.026968,88.1987967 Z M171.017944,85.6729245 C170.217408,85.6866281 169.487726,85.6988635 168.758535,85.6988635 C167.887147,85.6988635 167.042821,85.6866281 166.127643,85.6729245 C164.712068,85.6587315 164.669261,85.0244493 164.669261,83.957524 C164.669261,83.6594701 164.669261,83.3628845 164.684022,83.1191557 C164.697799,82.4706804 165.084536,82.0390162 166.084836,82.0116089 C166.828295,81.9979053 167.786773,81.9851805 168.787565,81.9851805 C169.602369,81.9851805 170.417665,81.9979053 171.146856,82.0116089 C172.418757,82.0390162 172.433518,82.8357842 172.433518,83.6731737 C172.433518,83.9839524 172.433518,84.321649 172.418757,84.5648883 C172.390711,85.2671992 171.961168,85.6587315 171.017944,85.6729245 Z M168.100689,87.1852177 L168.100689,93.2236231 C168.100689,93.4394553 167.929462,93.547616 167.757743,93.547616 C167.586516,93.547616 167.414797,93.4394553 167.414797,93.2236231 L167.414797,91.601701 C165.155388,92.3319085 163.039161,92.8448157 162.753783,92.8448157 C162.524496,92.8448157 162.396076,92.6833087 162.396076,92.5076086 C162.396076,92.3588264 162.49645,92.2105336 162.710484,92.1699121 C163.196611,92.0886692 163.768844,91.980019 164.340584,91.8454298 L164.340584,87.1852177 L162.710484,87.1984319 C162.49645,87.1984319 162.381807,87.050139 162.381807,86.8881426 C162.381807,86.7393604 162.49645,86.5773639 162.710484,86.5773639 L174.235337,86.5773639 C174.449863,86.5773639 174.563522,86.7256567 174.563522,86.8881426 C174.563522,87.0364354 174.449863,87.1984319 174.235337,87.1984319 L168.100689,87.1852177 Z" id="Fill-44" fill="#595959"></path>
                    <path d="M186.673943,88.0493782 C186.716749,88.3870747 186.745779,88.7252607 186.745779,89.0893856 C186.745779,89.7657575 186.659674,90.467579 186.502224,91.1968077 C186.273921,92.277926 185.501432,93.1823654 184.028781,93.1823654 C183.671075,93.1823654 183.271053,93.1290192 182.828225,93.0066654 C182.613207,92.9533191 182.513324,92.7908332 182.513324,92.6283474 C182.513324,92.4404119 182.641745,92.2642224 182.85627,92.2642224 C182.8853,92.2642224 182.928107,92.2642224 182.970914,92.277926 C183.385696,92.4130046 183.756688,92.4663509 184.071588,92.4663509 C185.072872,92.4663509 185.587045,91.8589866 185.773525,91.0215971 C185.930975,90.332011 186.001828,89.6434037 186.001828,88.9949285 C186.001828,88.671425 185.988051,88.3469427 185.944752,88.0493782 L182.255992,88.0630818 C182.027689,88.0630818 181.913046,87.9010854 181.913046,87.7385995 C181.913046,87.576603 182.027689,87.4155854 182.241231,87.4155854 L185.830601,87.4278208 C185.601314,86.537085 185.144217,85.8073669 184.400757,85.4295383 C184.300875,85.3757026 184.258068,85.3071845 184.258068,85.226431 C184.258068,85.0781381 184.429295,84.9029275 184.643821,84.9029275 C184.872615,84.9029275 185.144217,85.105056 185.286906,85.2137062 C185.401549,85.1324632 186.946036,83.8761342 186.946036,83.5247341 C186.946036,83.3226056 186.631136,83.3226056 186.13074,83.3226056 C185.343982,83.3226056 183.971214,83.3353304 182.85627,83.3627376 L182.841509,83.3627376 C182.627968,83.3627376 182.513324,83.2139554 182.513324,83.051959 C182.513324,82.8899625 182.627968,82.7274766 182.85627,82.7274766 C183.600222,82.7010482 184.315144,82.7010482 184.986767,82.7010482 C185.658882,82.7010482 186.28819,82.7010482 186.846154,82.7142624 C187.503508,82.7274766 187.803647,83.0382553 187.803647,83.4165733 C187.803647,83.6333843 187.803647,84.0787522 185.744495,85.659074 C186.13074,86.1181456 186.41661,86.7255099 186.57406,87.4278208 L188.904321,87.4155854 C189.133608,87.4155854 189.233983,87.576603 189.233983,87.7258747 C189.233983,87.8878711 189.133608,88.0493782 188.904321,88.0493782 L186.673943,88.0493782 Z M180.897493,85.8612025 C180.897493,85.5239954 180.711013,85.2949491 180.282946,85.2949491 C179.996583,85.2949491 179.639861,85.2949491 179.238855,85.3071845 C179.01006,86.5635134 178.695652,87.8472497 178.323676,89.0360393 C178.910178,89.1030892 179.510456,89.2655751 180.082689,89.4677036 C180.740043,88.0630818 180.897493,86.618328 180.897493,85.8612025 Z M178.065852,89.8597252 C177.994999,90.0491289 177.82328,90.1435861 177.652053,90.1435861 C177.465573,90.1435861 177.308123,90.0354253 177.308123,89.846511 C177.308123,89.7921859 177.308123,89.7383502 177.337153,89.6845146 C177.85231,88.3337284 178.237571,86.8067528 178.509664,85.3208881 L177.194464,85.3482954 L177.180195,85.3482954 C176.965669,85.3482954 176.865295,85.2000025 176.865295,85.0517097 C176.865295,84.8892238 176.979938,84.7272274 177.180195,84.7272274 L178.610039,84.7135238 C178.752728,83.8218092 178.867371,82.9570124 178.924447,82.1602443 C178.938224,81.9444122 179.109943,81.8494657 179.282154,81.8494657 C179.48241,81.8494657 179.682667,81.9718195 179.682667,82.173948 C179.682667,82.2145694 179.568024,83.3226056 179.338737,84.7135238 C179.724982,84.7135238 180.110735,84.6998201 180.453681,84.6998201 C181.22617,84.6998201 181.640953,85.1324632 181.640953,85.7540206 C181.640953,86.8879958 181.340813,88.4007783 180.711013,89.7246466 C180.897493,89.8058896 182.255992,90.4406611 182.255992,90.9271399 C182.255992,91.142972 182.083781,91.3323758 181.884016,91.3323758 C181.783642,91.3323758 181.698028,91.3049685 181.598146,91.2105114 C181.240931,90.8733042 180.840417,90.5752503 180.397589,90.332011 C179.224586,92.3718938 177.50838,93.1823654 177.223002,93.1823654 C176.979938,93.1823654 176.822488,92.9802369 176.822488,92.7908332 C176.822488,92.6836513 176.879564,92.5750011 177.007984,92.5211654 C178.323676,91.9798721 179.195556,91.0617291 179.78255,90.0491289 C179.282154,89.846511 178.738459,89.6845146 178.152449,89.6032716 L178.065852,89.8597252 Z" id="Fill-46" fill="#595959"></path>
                    <g id="Group-50" transform="translate(191.400250, 81.882110)">
                        <mask id="mask-4" fill="white">
                            <use xlink:href="#path-3"></use>
                        </mask>
                        <g id="Clip-49"></g>
                        <path d="M7.85533194,0.980347709 L7.85533194,2.4936197 C8.58403058,2.4936197 9.25614559,2.47991607 9.85642401,2.47991607 C10.5580609,2.47991607 10.6008677,2.27729815 10.6008677,1.71006586 C10.6008677,1.19715867 10.5718378,0.980347709 9.82837822,0.980347709 L7.85533194,0.980347709 Z M11.2291919,11.7058832 C10.8286782,11.7058832 8.87039291,11.2194044 7.31163714,10.2474257 C7.19748584,10.1661827 7.14041019,10.0717256 7.14041019,9.97677904 C7.14041019,9.78737533 7.31163714,9.62537888 7.51140193,9.62537888 C7.56847758,9.62537888 7.64031418,9.63908251 7.71165875,9.67970397 C8.81331725,10.3683112 10.1855931,10.8014438 11.3295663,10.9360329 C11.5731219,10.9624614 11.6867812,11.1244578 11.6867812,11.2869437 C11.6867812,11.490051 11.5155542,11.7058832 11.2291919,11.7058832 Z M7.14041019,0.980347709 L4.73782042,0.980347709 L4.73782042,2.47991607 C5.51030986,2.47991607 6.33987495,2.4936197 7.14041019,2.4936197 L7.14041019,0.980347709 Z M2.66489175,7.68044263 L2.67916067,8.07197484 C2.69293755,8.61228929 3.03637553,8.78847878 3.59433924,8.80169299 C4.30876896,8.82910025 5.25248536,8.84182505 6.18242488,8.84182505 C6.99722902,8.84182505 7.8125252,8.82910025 8.4703713,8.81539662 C9.34175907,8.78847878 9.35602799,8.20754287 9.35602799,7.68044263 L2.66489175,7.68044263 Z M9.34175907,5.55980631 C9.34175907,5.43843132 9.32798219,5.31656692 9.32798219,5.19519194 C9.29895233,4.73612042 9.05588878,4.49288104 8.45561036,4.47917741 C7.62604527,4.46547378 6.48256408,4.45177016 5.40993544,4.45177016 C4.75258137,4.45177016 4.10851214,4.45177016 3.58007032,4.46547378 C2.97929988,4.47917741 2.69293755,4.76254885 2.67916067,5.19519194 C2.67916067,5.31656692 2.66489175,5.43843132 2.66489175,5.55980631 L9.34175907,5.55980631 Z M2.65013081,6.07320291 L2.65013081,7.16753544 L9.37078893,7.16753544 C9.38505784,6.97813173 9.38505784,6.80243165 9.38505784,6.61351736 C9.38505784,6.43781728 9.38505784,6.24841358 9.37078893,6.07320291 L2.65013081,6.07320291 Z M8.69867392,9.38262891 C7.96899122,9.39584312 7.19748584,9.40905733 6.41072749,9.40905733 C5.33809884,9.40905733 4.28023113,9.39584312 3.39359039,9.36892528 C2.4218282,9.34151803 1.97801579,8.88293593 1.94997,8.23446071 C1.93520905,7.7210641 1.92094014,7.2208817 1.92094014,6.73489235 C1.92094014,6.14074222 1.93520905,5.57350993 1.94997,5.03319549 C1.96423891,4.46547378 2.39279834,3.93886296 3.35078365,3.92564875 C3.96582301,3.91194512 4.62317708,3.91194512 5.31005304,3.91194512 C6.42548843,3.91194512 7.61128432,3.92564875 8.77051051,3.93886296 C9.58531466,3.95256659 10.0566808,4.42534173 10.0857107,4.95195255 C10.1137565,5.46485975 10.1285174,5.95133851 10.1285174,6.45152091 C10.1285174,7.0187532 10.1137565,7.5991997 10.0857107,8.22026766 C10.0566808,8.85552867 9.57104575,9.35571107 8.69867392,9.38262891 Z M4.03765961,0.980347709 L2.20730247,0.980347709 C1.44957397,0.980347709 1.43481303,1.29161582 1.43481303,1.75117675 C1.43481303,2.27729815 1.47761977,2.47991607 2.23534826,2.47991607 L4.03765961,2.47991607 L4.03765961,0.980347709 Z M10.0429039,3.0070163 C8.81331725,3.02071993 7.38347374,3.02071993 5.99594494,3.02071993 C4.59513129,3.02071993 3.23712438,3.02071993 2.09265913,3.0070163 C0.748429099,2.99331268 0.691845478,2.56066959 0.691845478,1.95330525 C0.691845478,1.68363744 0.691845478,1.37187992 0.70562236,1.19715867 C0.748429099,0.778219206 1.03479143,0.427308464 2.03509145,0.427308464 C3.16528778,0.413604837 4.56610143,0.413604837 5.99594494,0.413604837 C7.41151954,0.413604837 8.85612399,0.413604837 10.0429039,0.427308464 C10.9152758,0.427308464 11.3157894,0.750811952 11.3438352,1.18345504 C11.3585962,1.33174787 11.3585962,1.57498725 11.3585962,1.80501242 C11.3585962,2.53424116 11.3010285,2.99331268 10.0429039,3.0070163 Z M0.562933228,11.7460152 C0.305108727,11.7460152 0.162419595,11.5575903 0.162419595,11.3676972 C0.162419595,11.2057008 0.277062932,11.0437043 0.519634457,11.0167865 C1.70690644,10.8817079 3.05064444,10.4094221 4.15230295,9.70662181 C4.20839454,9.66648976 4.28023113,9.65229672 4.33779882,9.65229672 C4.5375636,9.65229672 4.70977463,9.85540405 4.70977463,10.0443183 C4.70977463,10.1529685 4.65220694,10.2601505 4.5375636,10.3281792 C2.83611871,11.3676972 0.748429099,11.7460152 0.562933228,11.7460152 Z" id="Fill-48" fill="#595959" mask="url(#mask-4)"></path>
                    </g>
                    <path d="M107.274083,69.1511952 C105.96774,69.1511952 104.908396,68.0974841 104.908396,66.7980866 L104.908396,40.3368717 C104.908396,39.0374742 105.96774,37.9842525 107.274083,37.9842525 C108.580427,37.9842525 109.639771,39.0374742 109.639771,40.3368717 L109.639771,66.7980866 C109.639771,68.0974841 108.580427,69.1511952 107.274083,69.1511952" id="Fill-51" fill="#201816"></path>
                    <path d="M115.366181,54.8549349 L108.51169,54.8549349 C107.205346,54.8549349 106.146003,53.8012239 106.146003,52.5018264 C106.146003,51.2024288 107.205346,50.1487178 108.51169,50.1487178 L115.366181,50.1487178 C116.672524,50.1487178 117.731868,51.2024288 117.731868,52.5018264 C117.731868,53.8012239 116.672524,54.8549349 115.366181,54.8549349" id="Fill-53" fill="#201816"></path>
                    <path d="M100.662164,70.4282754 C99.3558204,70.4282754 98.2964766,69.3745643 98.2964766,68.0751668 L98.2964766,48.2161637 C98.2964766,46.9167662 99.3558204,45.8635446 100.662164,45.8635446 C101.968508,45.8635446 103.027851,46.9167662 103.027851,48.2161637 L103.027851,68.0751668 C103.027851,69.3745643 101.968508,70.4282754 100.662164,70.4282754" id="Fill-55" fill="#201816"></path>
                    <path d="M106.637394,70.6536021 L98.0337318,70.6536021 C96.7273882,70.6536021 95.6685364,69.6003805 95.6685364,68.3004936 C95.6685364,67.0010961 96.7273882,65.947385 98.0337318,65.947385 L106.637394,65.947385 C108.765923,65.947385 110.872309,65.2436058 112.569326,63.9652532 L117.241165,60.4473363 C118.282304,59.6642719 119.766763,59.8673792 120.555489,60.9029819 C121.343724,61.939074 121.138546,63.4151504 120.096916,64.1996831 L115.425077,67.7176 C112.91178,69.6111476 109.790332,70.6536021 106.637394,70.6536021" id="Fill-57" fill="#201816"></path>
                    <path d="M196.368046,25.0239981 L120.646367,25.0239981 C119.340024,25.0239981 118.28068,23.9707764 118.28068,22.6708895 C118.28068,21.371492 119.340024,20.3177809 120.646367,20.3177809 L196.368046,20.3177809 C197.674389,20.3177809 198.733733,21.371492 198.733733,22.6708895 C198.733733,23.9707764 197.674389,25.0239981 196.368046,25.0239981" id="Fill-59" fill="#201816"></path>
                    <path d="M134.889597,24.435672 C133.583253,24.435672 132.523909,23.3819609 132.523909,22.0825634 L132.523909,20.0260405 C132.523909,18.726643 133.583253,17.6729319 134.889597,17.6729319 C136.19594,17.6729319 137.255284,18.726643 137.255284,20.0260405 L137.255284,22.0825634 C137.255284,23.3819609 136.19594,24.435672 134.889597,24.435672" id="Fill-61" fill="#201816"></path>
                    <path d="M140.40645,40.2431976 L129.125152,40.2431976 C127.818809,40.2431976 126.758973,39.189976 126.758973,37.890089 C126.758973,36.5906915 127.818809,35.5369805 129.125152,35.5369805 L140.40645,35.5369805 C141.712794,35.5369805 142.77263,36.5906915 142.77263,37.890089 C142.77263,39.189976 141.712794,40.2431976 140.40645,40.2431976" id="Fill-63" fill="#201816"></path>
                    <path d="M149.270201,49.056245 L120.261008,49.056245 C118.954665,49.056245 117.895321,48.0030234 117.895321,46.7031365 C117.895321,45.4037389 118.954665,44.3500279 120.261008,44.3500279 L149.270201,44.3500279 C150.576544,44.3500279 151.635888,45.4037389 151.635888,46.7031365 C151.635888,48.0030234 150.576544,49.056245 149.270201,49.056245" id="Fill-65" fill="#201816"></path>
                    <path d="M130.356068,55.7491456 L130.345243,55.7794893 C130.349179,55.769701 130.352623,55.7599127 130.356068,55.7491456 M141.830242,71.6419273 L128.144878,71.6419273 C126.838534,71.6419273 125.779191,70.5882163 125.779191,69.2888187 C125.779191,67.9894212 126.838534,66.9357102 128.144878,66.9357102 L141.830242,66.9357102 C143.910059,66.9357102 145.601663,65.2521217 145.601663,63.1838528 C145.601663,61.0955179 143.910059,59.4124188 141.830242,59.4124188 L129.535851,59.4124188 C128.249189,59.4124188 127.04814,58.7820519 126.323377,57.7254044 C125.597631,56.6687568 125.444609,55.3267802 125.912531,54.1355434 L128.82831,45.9701392 C129.266218,44.7446434 130.619304,44.1054671 131.849875,44.5405572 C133.08143,44.9756474 133.724515,46.32105 133.287099,47.5455669 L130.729027,54.7062016 L141.830242,54.7062016 C146.51881,54.7062016 150.333038,58.5001487 150.333038,63.1642762 C150.333038,67.8479802 146.51881,71.6419273 141.830242,71.6419273" id="Fill-67" fill="#201816"></path>
                    <path d="M158.846561,25.0268856 C158.470156,25.0268856 158.164113,25.3317913 158.164113,25.7057046 L158.164113,29.3660413 C158.164113,29.740444 158.470156,30.0453497 158.846561,30.0453497 L197.02968,30.0453497 C197.406084,30.0453497 197.712128,29.740444 197.712128,29.3660413 L197.712128,25.7057046 C197.712128,25.3317913 197.406084,25.0268856 197.02968,25.0268856 L158.846561,25.0268856 Z M197.02968,34.7515668 L158.846561,34.7515668 C155.861406,34.7515668 153.432738,32.3358131 153.432738,29.3660413 L153.432738,25.7057046 C153.432738,22.7364222 155.861406,20.3206685 158.846561,20.3206685 L197.02968,20.3206685 C200.014835,20.3206685 202.443503,22.7364222 202.443503,25.7057046 L202.443503,29.3660413 C202.443503,32.3358131 200.014835,34.7515668 197.02968,34.7515668 Z" id="Fill-69" fill="#201816"></path>
                    <path d="M172.269081,34.3575386 C171.393265,34.3575386 170.551891,33.8720387 170.141537,33.0366068 L165.744252,24.0798181 C165.171035,22.9115839 165.657654,21.5025574 166.832133,20.9323886 C168.005136,20.3631986 169.422187,20.8467409 169.995896,22.0144857 L174.393181,30.9712744 C174.966398,32.1390192 174.479779,33.5480458 173.3053,34.1182146 C172.97121,34.2807004 172.61744,34.3575386 172.269081,34.3575386" id="Fill-71" fill="#201816"></path>
                    <path d="M187.709915,34.3575386 C186.834591,34.3575386 185.992725,33.8720387 185.582371,33.0366068 L181.185577,24.0798181 C180.612361,22.9115839 181.09898,21.5025574 182.273459,20.9323886 C183.446462,20.3631986 184.864005,20.8467409 185.437714,22.0144857 L189.834507,30.9712744 C190.407724,32.1390192 189.920613,33.5480458 188.746625,34.1182146 C188.412536,34.2807004 188.058273,34.3575386 187.709915,34.3575386" id="Fill-73" fill="#201816"></path>
                    <path d="M163.106668,41.2872672 C162.730264,41.2872672 162.423728,41.5916835 162.423728,41.9660861 L162.423728,56.4625662 C162.423728,56.8369689 162.730264,57.1418746 163.106668,57.1418746 L192.76977,57.1418746 C193.146174,57.1418746 193.452218,56.8369689 193.452218,56.4625662 L193.452218,41.9660861 C193.452218,41.5916835 193.146174,41.2872672 192.76977,41.2872672 L163.106668,41.2872672 Z M192.76977,61.8480917 L163.106668,61.8480917 C160.121021,61.8480917 157.692845,59.432338 157.692845,56.4625662 L157.692845,41.9660861 C157.692845,38.9968038 160.121021,36.5805606 163.106668,36.5805606 L192.76977,36.5805606 C195.754925,36.5805606 198.183593,38.9968038 198.183593,41.9660861 L198.183593,56.4625662 C198.183593,59.432338 195.754925,61.8480917 192.76977,61.8480917 Z" id="Fill-75" fill="#201816"></path>
                    <path d="M195.818102,48.001702 L160.058237,48.001702 C158.751894,48.001702 157.69255,46.9479909 157.69255,45.648104 C157.69255,44.3487065 158.751894,43.294506 160.058237,43.294506 L195.818102,43.294506 C197.124446,43.294506 198.183789,44.3487065 198.183789,45.648104 C198.183789,46.9479909 197.124446,48.001702 195.818102,48.001702" id="Fill-77" fill="#201816"></path>
                    <path d="M195.818102,54.9005484 L160.058237,54.9005484 C158.751894,54.9005484 157.69255,53.8468374 157.69255,52.5469504 C157.69255,51.2475529 158.751894,50.1938419 160.058237,50.1938419 L195.818102,50.1938419 C197.124446,50.1938419 198.183789,51.2475529 198.183789,52.5469504 C198.183789,53.8468374 197.124446,54.9005484 195.818102,54.9005484" id="Fill-79" fill="#201816"></path>
                    <g id="Group-83" transform="translate(184.511809, 62.305499)">
                        <mask id="mask-6" fill="white">
                            <use xlink:href="#path-5"></use>
                        </mask>
                        <g id="Clip-82"></g>
                        <path d="M16.6071945,9.49519442 C12.4209905,9.49519442 3.77944148,6.83473306 1.05949141,4.63432205 C0.045906538,3.81455149 -0.107115255,2.33260208 0.71703749,1.32391722 C1.54119024,0.316700615 3.03106159,0.163513639 4.04563052,0.983284201 C5.83072077,2.42754864 13.9103699,4.97740215 16.8389413,4.78212546 C18.1492212,4.69745662 19.2710529,5.67432948 19.3596186,6.9707905 C19.4476923,8.26774095 18.4626452,9.38997014 17.1592538,9.47806489 C16.9860587,9.48981085 16.8010549,9.49519442 16.6071945,9.49519442" id="Fill-81" fill="#201816" mask="url(#mask-6)"></path>
                    </g>
                    <path d="M154.896876,71.6826467 C154.635607,71.6826467 154.391068,71.6733478 154.164241,71.6542606 C152.862326,71.5436527 151.89696,70.404294 152.008159,69.1093012 C152.119358,67.8143084 153.267268,66.849671 154.566723,66.965173 C157.496279,67.2098806 165.614798,64.8014681 167.424982,63.3885262 C168.45382,62.586864 169.940247,62.7650112 170.747179,63.7873997 C171.553618,64.8097882 171.374027,66.2888011 170.346173,67.0914421 C167.627699,69.2135467 159.147536,71.6826467 154.896876,71.6826467" id="Fill-84" fill="#201816"></path>
                    <path d="M107.273837,20.0810997 C104.454497,20.0810997 101.832461,21.1441096 99.8918887,23.0748528 C97.9764101,24.979657 96.9214946,27.5172752 96.9214946,30.2198262 C96.9214946,33.3892795 98.3867644,36.4407836 101.276465,39.2882016 L101.340921,39.3518256 C101.398489,39.4105554 101.464421,39.4849465 101.53675,39.5647212 C102.43766,40.5533401 104.3123,42.6108418 107.274329,42.6108418 C110.236359,42.6108418 112.110999,40.5528506 113.011908,39.5642318 C113.084237,39.4844571 113.150169,39.410066 113.210689,39.3488891 L113.271701,39.2882016 C116.161402,36.4402942 117.627164,33.3892795 117.626672,30.2193368 C117.626672,24.5342891 113.078825,20.0810997 107.273837,20.0810997 M107.273837,24.7878063 C110.543878,24.7878063 112.894805,27.2843135 112.894805,30.2193368 C112.895297,33.1548496 110.439568,35.4492283 109.861431,36.0242912 C109.283294,36.5988647 108.334165,37.9041352 107.274329,37.9041352 C106.214493,37.9041352 105.264873,36.5988647 104.686736,36.0242912 C104.108599,35.4492283 101.653361,33.1548496 101.653361,30.2193368 C101.653361,27.2843135 104.003796,24.7878063 107.273837,24.7878063" id="Fill-86" fill="#201816"></path>
                    <path d="M150.748706,42.6231261 C150.067243,42.6231261 149.390699,42.3314346 148.922285,41.7676283 L134.491002,24.3723416 C133.659961,23.3695298 133.80265,21.8866015 134.81033,21.0590003 C135.818995,20.2333568 137.309358,20.3747978 138.141383,21.3766308 L152.572667,38.7719174 C153.403708,39.7747293 153.261019,41.2571681 152.253339,42.0847693 C151.812478,42.4469366 151.278624,42.6231261 150.748706,42.6231261" id="Fill-88" fill="#201816"></path>
                    <path d="M118.782749,42.6231261 C118.246435,42.6231261 117.706184,42.4420425 117.262864,42.072534 C116.262072,41.2366127 116.131683,39.7522162 116.972073,38.7567456 L131.65134,21.361459 C132.491238,20.3664777 133.983078,20.2362933 134.984362,21.0722145 C135.985154,21.9076464 136.115542,23.3920429 135.275644,24.3875135 L120.596377,41.7828001 C120.127963,42.3373076 119.457816,42.6231261 118.782749,42.6231261" id="Fill-90" fill="#201816"></path>
                </g>
            </g>
        </g>
    </g>
</svg>