<?xml version="1.0" encoding="utf-8"?>
<!-- Generator: Adobe Illustrator 21.1.0, SVG Export Plug-In . SVG Version: 6.00 Build 0)  -->
<svg version="1.1" id="圖層_1" xmlns="http://www.w3.org/2000/svg" xmlns:xlink="http://www.w3.org/1999/xlink" x="0px" y="0px"
	 viewBox="0 0 1200 1400" style="enable-background:new 0 0 1200 1400;" xml:space="preserve">
<style type="text/css">
	.st0{fill:#FFFFFF;stroke:#1C936E;stroke-width:6;stroke-linecap:round;stroke-linejoin:round;stroke-miterlimit:10;}
	.st1{fill:#D0AE55;}
	.st2{fill:#FAF7EF;}
	.st3{fill:#EEE3C3;}
	.st4{fill:#EBDCB6;}
	.st5{fill:#F3EAD2;}
	.st6{fill:#EEE2C2;}
	.st7{fill:#F0E5C8;}
	.st8{fill:#F4ECD7;}
	.st9{fill:#F1E8CE;}
	.st10{fill:#F2E8D0;}
	.st11{fill:#F6EFDD;}
	.st12{fill:#F8F4E6;}
	.st13{fill:#EA4D4B;}
	.st14{fill:#E83A37;}
	.st15{fill:#F7B9B8;}
	.st16{fill:#FEF7F7;}
	.st17{fill:#D0AE54;}
	.st18{fill:#D1AF57;}
	.st19{fill:#F3EAD4;}
	.st20{fill:#F4EBD6;}
	.st21{fill:#FDFDFD;}
	.st22{fill:#E5473A;}
	.st23{fill:#D1AF56;}
	.st24{fill:#EB5C57;}
	.st25{fill:#E5493A;}
	.st26{fill:#FBF4ED;}
	.st27{fill:#D1AC55;}
	.st28{fill:#D1AE56;}
	.st29{fill:#D1AD55;}
	.st30{fill:#D2AD57;}
	.st31{fill:#D2AB56;}
	.st32{fill:#F1E3CB;}
	.st33{fill:#F0E1C7;}
	.st34{fill:#F7E4D9;}
	.st35{fill:#EA854C;}
	.st36{fill:#EDA957;}
	.st37{fill:#F08280;}
	.st38{fill:#F29693;}
	.st39{fill:#F18D8B;}
	.st40{fill:#E83936;}
	.st41{fill:#EEB65A;}
	.st42{fill:#EEB55A;}
	.st43{fill:#EC9751;}
	.st44{fill:#EEAD58;}
	.st45{fill:#EEB45A;}
	.st46{fill:#EEB85B;}
	.st47{fill:#EEBC5C;}
	.st48{fill:none;stroke:#422B2B;stroke-linecap:round;stroke-linejoin:round;stroke-miterlimit:10;}
	.st49{fill:#1C936E;}
	.st50{fill:#B48C50;}
	.st51{fill:#4D6937;}
	.st52{opacity:0.1;}
	.st53{fill:#658549;}
	.st54{fill:#78945F;}
	.st55{fill:#FCCE88;}
</style>
<path class="st0" d="M1110,1344H90c-16.6,0-30-13.4-30-30V101.7c0-16.6,13.4-30,30-30h1020c16.6,0,30,13.4,30,30V1314
	C1140,1330.6,1126.6,1344,1110,1344z"/>
<g>
	<path class="st1" d="M203.8,47.3c0.4-0.3,0.9-0.7,1.3-1c4.2-1.8,8.4-1.4,12.6-0.2c0.8,1.2,2,2,3.3,2.6c0.5,1.3,1.3,2.5,2.4,3.4
		c0.1,0.9,0.4,1.8,1.2,2.3c0.9,3.9,0.9,3.9,5.1,2.4c3.5,0.9,7.1,1.6,10.2,3.6c0.5,1.4,1.3,2.5,2.5,3.3c0.1,0.9,0.3,1.8,1.1,2.4
		c0.3,3.4,0.3,6.9-0.1,10.3c-0.4,0.8-0.8,1.5-1.2,2.3c-0.3,0.4-0.7,0.9-1,1.3c-0.4,0.4-0.8,0.8-1.2,1.1c-1.4,0.4-2.6,1.2-3.5,2.3
		c-4,1.7-0.3,3.4,0,5.1c0,1.5,0,2.9,0,4.4c-1.1,1.3-1.1,3-1.3,4.6c-0.4,0.8-0.8,1.5-1.2,2.3c-0.3,0.4-0.7,0.9-1,1.3
		c-0.4,0.4-0.8,0.8-1.2,1.2c-0.4,0.3-0.8,0.7-1.3,1c-0.9,0.2-1.7,0.5-2.3,1.2c-3.9,0.9-7.7-0.1-11.4-1.1c-1.6-0.9-2-4.4-5.1-2.4
		c-0.4,0.4-0.8,0.7-1.2,1.1c-0.8,0.4-1.5,0.8-2.3,1.2c-2.6,0-5.3,0.1-7.9,0.1c-0.9-1.1-2.2-1.1-3.5-1.2c-0.6-0.8-1.5-1-2.4-1.1
		c-1.5-1.6-3.1-3.1-4.6-4.7c-0.7-3.6-0.5-7.1,1.1-10.5c2.4-3.3-0.9-2.8-2.3-3.6c-1.9-2-3.9-3.9-5.8-5.9c-0.1-0.9-0.3-1.8-1-2.5
		c-0.5-3.1,0.5-6.1,1.1-9.1c1.2-0.9,2-2,2.4-3.4c0.4-0.4,0.7-0.8,1.1-1.2c0.4-0.4,0.8-0.7,1.2-1.1c3.2-1.9,6.7-1.7,10.2-1.2
		c1.2,1,2.1,0.7,2.3-0.9c0.2-1.7,0.3-3.4,0.5-5.1c1.1-0.9,1.9-2.1,2.4-3.5C203,48.1,203.4,47.7,203.8,47.3z"/>
	<path class="st2" d="M210.6,82.5c0-0.3,0-0.6-0.1-0.9c-1.3-0.9-1.4-2.5-2.3-3.7l0,0c-0.2-0.2-0.3-0.4-0.5-0.6
		c0-0.2,0.1-0.5,0.1-0.7c0.4-0.9,0.5-1.9,1.3-2.7c0.9-1.3,2.7-1.1,3.8-2l0,0c2.3-0.7,1.3,1.9,2.4,2.4l0,0c0.6,1.2,2,2,1.3,3.6
		l0.1,0.1c-0.4,0.2-0.5,0.4-0.5,0.6c0.1,0.3,0.2,0.4,0.3,0.4c0.1,0.4,0.2,0.8,0.3,1.1c-1.5,1.2-3.2,1.9-5,2.4l0,0
		C211.4,82.9,211,82.9,210.6,82.5z"/>
	<path class="st3" d="M213,71.8c-0.7,1.5-2.3,1.6-3.4,2.4c-0.8,0.6-0.6,1.7-1.2,2.4l0,0c-0.5,0.5-1,0.5-1.4-0.2
		c-0.8-3.7-4.1-3.8-6.8-4.6c-0.2-1.1,0.2-1.7,1.4-1.3c2.6,0,4.4,2.6,7.5,2.1c-0.1-2.7-0.4-5.2-2-7.4c-0.7-1-1.3-2-0.1-3
		c0.3-0.2,0.8-0.5,1-0.4c1.3,0.4,1.4,1.6,1.6,2.8C209.9,67.4,209.5,70.6,213,71.8z"/>
	<path class="st4" d="M211.8,82.4c1.3-1.6,3-2.2,5-2.4c2.7,0.5,4,2.9,5.9,4.5c0.6,0.5,0.8,1.4,0.1,2.1c-0.9,0.9-1.9,0.6-2.5-0.3
		c-1.2-1.7-2.4-3.4-4.3-4.5c-0.9,1.7,0.8,2.8,0.5,4.1c-0.4,0.7-0.9,0.7-1.3,0C213.8,85.1,213.8,82.8,211.8,82.4z"/>
	<path class="st5" d="M216.7,77.9c-0.6-1.2-1.4-2.2-1.3-3.6c3,1.8,6.4,1.3,9.6,1.2c1.3-0.1,2.4,0.3,2.1,1.9
		c-0.3,1.2-1.2,1.2-2.3,0.9C222.1,77.4,219.4,77.9,216.7,77.9z"/>
	<path class="st6" d="M208.2,77.8c1.5,0.8,1.9,2.3,2.3,3.7c-2.6-0.2-3.5,2.2-5.1,3.5c-0.9,0.7-1.6,1.7-2.5,2.4
		c-0.8,0.7-1.8,0.9-2.5-0.2c-0.6-1-0.3-2.1,0.8-2.3c2.8-0.5,4.2-2.8,6-4.4C208.1,79.8,208.2,78.8,208.2,77.8z"/>
	<path class="st7" d="M206.9,76.5c0.5,0.1,1,0.1,1.4,0.2c0,0.4-0.1,0.8-0.1,1.2c-2.9,0-5.7-0.1-8.5,0.9c-0.7,0.3-1.6-0.2-1.6-1.1
		c0-0.8,0.5-1.5,1.4-1.5C202,76.2,204.4,76.3,206.9,76.5z"/>
	<path class="st8" d="M214.1,67c-0.3-0.9-0.7-1.8-0.9-2.7c-0.1-1.1,0.6-1.9,1.7-1.8c1.1,0,1.7,0.9,1.5,2c-0.3,1.3-0.8,2.5-1.2,3.8
		C214.2,68.5,213.6,68.3,214.1,67z"/>
	<path class="st9" d="M223.4,69.3c-0.2,1.2-0.8,2.2-2.2,2.2c-1.1,0-1.1-0.9-1-1.7c0.2-1.2,0.5-2.4,2.1-2.3
		C223.3,67.5,223.4,68.4,223.4,69.3z"/>
	<path class="st3" d="M214.1,67c0.4,0.4,0.8,0.8,1.1,1.2c0.1,2,0.1,4,0.2,5.9c-0.8-0.8-1.6-1.6-2.4-2.4
		C213,70.2,212.8,68.4,214.1,67z"/>
	<path class="st4" d="M210.6,82.5c0.4,0,0.8,0,1.2,0c-0.3,2.2-0.9,4.3-2.2,6c-0.8-0.1-0.9-0.8-1.2-1.3
		C208.6,85.4,209.1,83.7,210.6,82.5z"/>
	<path class="st10" d="M208.4,87.2c0.4,0.4,0.8,0.9,1.2,1.3c-0.1,0.6-0.2,1.2-0.4,1.6c-0.5,1-1.3,2.2-2.5,1.4c-1.1-0.7-0.9-2,0-2.9
		C207.2,88.1,207.8,87.7,208.4,87.2z"/>
	<path class="st11" d="M201.4,70.6c-0.5,0.4-0.9,0.9-1.4,1.3c-1.1,0.1-2-0.3-1.9-1.6c0-0.8,0.6-1.5,1.4-1.6
		C200.8,68.7,201.2,69.6,201.4,70.6z"/>
	<path class="st12" d="M215.2,86c0.4,0,0.9,0,1.3,0c0.2,0.5,0.6,1,0.7,1.5c0.4,1.3,0,2.4-1.5,2.4c-1.2-0.1-1.2-1.2-0.9-2.2
		C215.1,87.1,215.1,86.6,215.2,86z"/>
	<path class="st4" d="M216.5,78.9c-0.8-0.5-0.8-0.8,0.2-1C216.7,78.3,216.7,78.6,216.5,78.9z"/>
	<path class="st7" d="M208.3,76.6c0-1,0.2-1.9,1.2-2.4C209.5,75.2,209.2,76.1,208.3,76.6z"/>
</g>
<g>
	<path class="st13" d="M273.2,79c-0.1-0.5-0.4-0.8-0.9-0.9c-1.6-3.3-2.9-6.6-2.6-10.4c0.3-4.4,2-8.1,5.2-11.2
		c1.7-0.8,3.4-1.7,5.2-2.3c8.2-3.2,15.6-0.2,19.2,7.8c3.3,7.2,2.8,12.1-2.1,16.3c-4.4,3.9-12.6,7.6-19.8,3.2
		C276,80.7,274.6,79.9,273.2,79z"/>
	<path class="st14" d="M274.8,70.2c0.6-3.2,1-7.3,5.6-9.2c1.1-0.4,1.8-1.3,2.3-2.4c1.3-2.7,4-3.7,7-3c2.9,0.7,4.7,3,4.3,6.2
		c-0.3,2.7-0.5,5.3-0.1,8.1c0.5,3.5-3.9,8.9-7.4,9.9C281.9,81.2,274.7,75.9,274.8,70.2z"/>
	<path class="st13" d="M290.6,59.1c2.1,1,2.2,2.6,1.3,4.3c-0.9,1.5-2.4,2-4.1,1.8c-1.1-0.1-2-0.7-2.2-1.8c-0.3-1.7-0.5-3.6,1.8-4.2
		c0.7,0.4,0.5,2.3,2.1,1.4c0.2-0.3,0.3-0.5,0.5-0.8C290.1,59.5,290.3,59.3,290.6,59.1z"/>
	<path class="st15" d="M290.6,60.8c0,1.6-1,2.1-2.3,1.7c-1.7-0.6-1.3-2-1-3.3c1.1-0.4,2.1-0.4,3.2-0.1c0,0.3-0.1,0.6-0.1,0.9
		c-0.4,0.1-0.5,0.3-0.2,0.6C290.3,60.7,290.4,60.8,290.6,60.8z"/>
	<path class="st16" d="M290.6,60.8c-0.4,0.2-0.8,0.4-1.1,0.6c-0.4,0.2-0.9,0.2-1.1-0.3c-0.3-0.7,0.1-1.1,0.8-1.1c0.4,0,0.8,0,1.3,0
		C290.6,60.2,290.7,60.5,290.6,60.8z"/>
</g>
<g>
	<path class="st17" d="M139.5,79.9c-2,12.3-3.5,24.6-3.6,37c0,2.2-0.5,3.4-2.6,3.9c-1.7,0.4-3.4,1.2-5.1,1.6
		c-5.3,1.3-10.5,2.6-15.8,3.6c-17.1,3.2-33.6,8.7-50.6,12c-7.7,1.5-7.1,2.2-10.6-5.3c-5-10.8-12-20.2-19.2-29.5
		c-1.5-1.9-1.1-3.8,0.3-5.3C39,90.7,45.6,83.5,53.8,78c6.9,4,13.7,3.3,20.4-0.3c1.1-0.6,2.5-1.4,3.5,0.1c0.7,1.1-0.2,2.2-0.9,3.1
		c-2.8,3.5-6.3,6.2-10.1,8.4c-1.4,0.8-3.1,1.2-3.8,3c6.2-2.1,11.5-5.6,15.3-11.2c4.9-7.3,4.9-7.3,12.8-3.1c6.4,3.4,13.3,4,20.4,3.1
		c-3.2-1.5-6.8-0.8-10.1-1.5c-2.8-0.6-6-0.3-7.9-3.2c-0.1-0.5,0.1-0.9,0.5-1.3c0.7-0.5,1.5-0.7,2.3-0.7c6.6,0.2,11.5-2.8,15.2-8.1
		c6.4-0.2,12.3,2.5,18.4,4c1.7,0.4,3.4,1.1,5.1,1.6C140.1,73.6,140.4,74.2,139.5,79.9z"/>
	<path class="st18" d="M111.9,53.8c7.5,3.2,15.5,4.8,23.1,7.7c2.3,0.9,4.5,2,7,2c1.6,1.5,3.9,1.4,5.8,2.3c1.7,0.7,2.4,1.9,0.8,3.2
		c-1.9,1.5-2.6,4.1-5.1,4.9c-10.9-2.4-21.4-6.3-32.3-8.9c-1.1-2.4,0-4.8-0.2-7.2C111.1,56.5,110.8,55,111.9,53.8z"/>
	<path class="st19" d="M53.9,78.4c-6.5,6.4-13.5,12.2-19.7,18.9c-1.6,1.7-3.4,3.2-2.3,5.9c-0.9-0.3-1.3-1-1.4-1.8
		c-0.4-1.6-1.2-1-2.1-0.4c-0.3,0.4-0.5,0.7-0.8,1.1c-0.6,0.1-1.2,0.3-1.9,0.4c-0.4-0.2-0.8-0.5-1.2-0.7h-0.1c-0.1-0.3-0.1-0.6-0.1-1
		c8.4-6.8,15.4-15,23.7-21.9c1.4-1.1,2.5-2.7,4.5-2.8C53.7,76.4,54.3,77.1,53.9,78.4z"/>
	<path class="st20" d="M111.5,64.9c4.6-0.3,8.9,1.5,13.2,2.7c6.3,1.8,12.9,3.1,18.7,6.4c-1.3,0.3-3.3-0.2-2.7,2.5
		c0.2,1.2-0.1,2.5-1.2,3.5c-0.1-0.3-0.2-0.6-0.2-1c0.5-4.9-0.3-4.3-4.2-5.6c-7.8-2.6-15.7-4.5-23.6-6.5
		C110.9,66.2,110.8,65.5,111.5,64.9z"/>
	<path class="st21" d="M27.6,102.1c0.3-0.4,0.5-0.7,0.8-1.1C28.2,101.3,27.9,101.7,27.6,102.1z"/>
	<path class="st21" d="M24.6,101.8c0.4,0.2,0.8,0.5,1.2,0.7C25.4,102.3,25,102,24.6,101.8z"/>
	<path class="st22" d="M111.5,64.9c0,0.7,0,1.3,0,2c-2.7,6.6-8.1,8.8-14.8,8.8c-1.1,0-2.3-0.2-3.4,0.2v-0.1c2.1,2.3,5,2.3,7.7,2.6
		c3.2,0.4,6.5,0.5,9.8,0.7c1.5,0.1,3.3-0.2,3.2,1.9c-0.1,1.8-1.9,2.2-3.4,2.1c-5.5-0.1-11.1-0.3-16.4-2.1c-3.1-1.1-5.9-2.8-8.6-4.7
		c-1.8-1.3-3-1.4-4,1.1C78.3,85.7,71.4,90.3,63.8,94c-0.6,0.3-1.2,0.5-1.8,0.5c-0.8,0-1.6-0.4-1.9-1.3c-0.4-0.9-0.1-1.6,0.7-2.1
		c1.1-0.7,2.3-1.3,3.4-1.8c4.7-2.2,8.5-5.5,11.9-9.2c0.5-0.6,1.1-1.2,0.8-2.2c-7.6,3.3-15.2,7.9-23,0.6c-0.3-0.8-0.8-1.4-1.6-1.8
		c-3.4-2.5-5.3-5.6-4.1-10v-0.1c0.3-0.6,0.1-1.3,0.3-1.9c0.1-6,0.9-6.8,7-7.5c5.8-1.8,10.1,0.7,13.6,5.1c1.3,1,2.6,2,3.8,3
		c1.9,1.6,3.6,1.9,6.2,0.6c3.9-2,8.1-3.2,10.8-7c1.7-3.1,3.9-5.7,6.2-8.4c0.3-0.3,0.7-0.5,1.1-0.7s0.7-0.5,1.1-0.7
		c1.2-0.5,2.7-3.5,3.6,0.4c-0.1,0.4-0.2,0.9-0.3,1.3c-0.1,0.4-0.3,0.8-0.5,1.3c-1.6,3.5-3.8,6.6-6.3,9.4c-1.1,1.4-2,2.9-3.2,4.3
		c-2.9,3.3-2.7,3.5,1.7,4.4c7.5,1.5,10.5,0.5,13.8-4.8c0.1-0.5,0.2-0.9,0.3-1.4c0.2-2.7-0.2-5.4,0.4-8.1c0.4-1.3,0.7-3.4,2.4-2.8
		c2.2,0.7,1.7,3,1.7,4.8C112.6,60.2,111.6,62.5,111.5,64.9z"/>
	<path class="st23" d="M97,50.8c-2.2,2.7-4.4,5.4-6.1,8.5c-0.2,0-0.4-0.1-0.7-0.1c-0.8-0.2-1.6-0.4-2.3-0.8
		c-7.6-4-13.9-2.6-18.8,4.4c-0.2,0.1-0.4,0.2-0.6,0.4c-3.4-4.2-7.7-6.2-13.1-6c2.9-0.3,5.1-2,7.1-4c2.9-2.9,5.9-5.7,8.8-8.5
		c1.8-1.7,3.5-2.1,6.1-1.1c6.6,2.3,13.2,4.7,20.2,5.6c0.1,0.2,0.2,0.4,0.3,0.6l-0.1,0.1C97.5,50.1,97.3,50.5,97,50.8z"/>
	<path class="st23" d="M48.2,66.6c0.5,3.7,2.7,6.7,4.1,10c-7.7,6.9-15.4,13.9-22.5,21.5c-1.5,1.6-3.2,2.7-5.5,2.8
		c-0.2-0.2-0.4-0.5-0.6-0.7c-4.9-3.6-4.8-3.5-0.9-8C30.8,83.1,39.7,75,48.2,66.6z"/>
	<path class="st24" d="M97.9,49.7c-0.1-0.2-0.2-0.4-0.3-0.6c6.4-6.5,11.6-4.8,14.3,4.7c0,1.3,0.9,2.7-0.2,4
		c-0.6-1.4-0.4-3.2-1.6-4.3c-1.7,0.6-0.7,2.2-1.7,2.9c-1.3-0.5-1.6-1.7-1.9-2.8c-0.4-2.5-1.7-3.7-4.4-3.2c-0.4,0-0.9-0.1-1.2-0.4
		c0.1-1.1,0.4-2.5-1.4-1.1C99,49.2,98.4,49.4,97.9,49.7z"/>
	<path class="st23" d="M48.5,64.6c0.4,0.7,0.3,1.3-0.3,1.9C48,65.8,47.9,65.1,48.5,64.6z"/>
	<path class="st25" d="M59.6,123.4c-0.1,0-1.4,0.3-2.7,0.4c-3.2,0.1-4.2-0.8-5.3-3.8c-0.7-1.8-1.5-3.6-2.1-5.4
		c-1.3-4.4,0.6-7.1,5.2-7c2.7,0.1,5.5,0.7,8.2,0.5c0.3,0,0.6,0.1,0.9,0.2c2.5,0.9,4.5,5.2,4.3,9.2c-0.1,2.6-1.5,4.2-4.5,5.1
		C62.7,122.8,61.7,122.9,59.6,123.4z"/>
	<path class="st26" d="M90.2,116.3c1,4.1,0.2,7.7-3.5,10.3c-2.1,1.5-4.2,1.6-6.5,0.5c-0.6-0.3-1.2-0.6-1.7-1c-1.8-1.4-5-1.8-5-4.2
		c0-3.3,0.9-6.8,3.3-9.5c1.2-1.4,2.7-1.8,4.4-1c1.8,0.8,3.7,1.2,5.7,1.4C89,113,90.2,114.1,90.2,116.3z"/>
	<path class="st27" d="M108,65.5c-1.4,4.5-4.7,6.2-9.2,6.3c-3.4,0.1-6.7-0.5-10-1.7c-2.1-0.8-2.2-2-0.6-3.1c2.4-1.8,3.9-4.3,5.8-6.5
		c0.2,0,0.4,0.1,0.7,0.1C99,62.6,103.9,63.1,108,65.5z"/>
	<path class="st28" d="M90.9,59.3c-1.6,1.6-3.1,3.3-4.7,4.9c-0.8,0.8-1.7,1.6-3,1.3c-1.6-0.4-2.8,0.5-4,1.5c-2.2,1.8-3.8,1.8-6.2,0
		c-1.5-1.2-3-2.5-4.5-3.8l0.1-0.2c1.2-1.4,2.8-2.2,4-3.5c3-3.3,6.6-3.8,10.6-2.4c2.4,0.8,5,1.4,7.4,2.1L90.9,59.3z"/>
	<path class="st29" d="M67.1,66.4c2.2,1.6,4.5,3.1,6.7,4.7c2.1,1.5,2.2,2,0,3.5c-6.3,4.3-10.4,5.6-16.9,0.1c0.1-0.2,0.2-0.4,0.3-0.6
		C60.8,72,62.5,67.3,67.1,66.4z"/>
	<path class="st30" d="M107.6,52.7c0.3,1.2,0.6,2.5,0.9,3.7c0,2.7-0.1,5.3-0.1,8c-4.8-0.9-9.3-2.9-14.1-3.8l-0.2-0.1
		c2.4-2.8,4.7-5.8,6.2-9.2c0.2-0.4,0.5-0.8,0.7-1.2l0,0c0.3,0,0.5,0,0.8,0C103.8,50.7,105.8,51.4,107.6,52.7z"/>
	<path class="st31" d="M56.9,74.7c-2.4-3.3-3.7-7.1-4.3-11.2c-0.3-1.9,0.3-3.1,2.6-3.1c4.1,0,7.6,1.2,10.5,4.2
		c-2.3,3.8-6.1,6.3-8.7,9.9L56.9,74.7z"/>
	<path class="st32" d="M94.2,60.6c0.8-0.2,1.6-0.7,2.3-0.6c4,1.2,8.5,1.3,11.8,4.4c-0.1,0.4-0.2,0.7-0.3,1.1
		c-4.5-0.2-8.5-2.1-12.7-3.4C94.6,61.9,94.4,61.3,94.2,60.6z"/>
	<path class="st33" d="M57,74.6c-0.2-0.8-0.4-1.6,0.2-2.3c2.8-2.6,5-5.8,8.4-7.6c0.5,0.6,1,1.2,1.4,1.7c-1.9,1.9-3.8,3.8-5.7,5.6
		C60.1,73.2,59,74.6,57,74.6z"/>
	<path class="st17" d="M93.4,75.8c-0.4,0-0.9,0-1.3-0.1C92.6,74.7,93,75.5,93.4,75.8L93.4,75.8z"/>
	<path class="st24" d="M100.9,50c-0.2,0.4-0.5,0.8-0.7,1.2C100.5,50.9,100.7,50.5,100.9,50z"/>
	<path class="st24" d="M97,50.8c0.3-0.4,0.6-0.7,0.9-1.1C97.7,50.3,97.5,50.6,97,50.8z"/>
	<path class="st20" d="M90.7,59.1c-1.4,0.7-2.8,0.7-4.2,0.2c-1.5-0.6-3.1-0.9-4.7-1.4c-3-0.9-5.6-0.5-7.9,1.9
		c-1.4,1.4-2.8,3.3-5.3,3.1c2.2-6,7.9-9.3,13.5-7.7c2.2,0.6,4.4,1.4,6.6,2C89.7,57.6,90.5,58,90.7,59.1z"/>
	<path class="st34" d="M107.6,52.7c-2.3-0.2-4.7,0-5.8-2.7C105.3,48.3,105.9,48.6,107.6,52.7z"/>
	<path class="st35" d="M58.4,113.5c0.7-0.3,1.5-0.8,2.2-0.9c1-0.1,2,0.4,2.2,1.5c0.2,0.9-0.5,1.5-1.3,1.7c-1.2,0.3-2.1,0.6-1.5,2.3
		c0.3,1-0.3,2-1.5,2c-1.1,0.1-1.8-0.7-2.1-1.7c-0.3-1.1-0.5-2.2-0.8-3.3C56.4,114.3,57.5,114.2,58.4,113.5z"/>
	<path class="st36" d="M58.4,113.5c0.3,2.6-1.3,2-2.7,1.7c-0.1-0.3-0.1-0.7-0.2-1C56.3,113.3,57.2,113.2,58.4,113.5L58.4,113.5z"/>
	<path class="st35" d="M58.3,113.5c-1,0.2-1.9,0.5-2.9,0.7C56.1,112.7,57.1,112.5,58.3,113.5z"/>
	<path class="st37" d="M79.9,120c-0.9-1.1-2.4-2-0.8-3.6c0.5-0.5,1.3-0.4,1.7,0.1C82.1,118.1,81.1,119.1,79.9,120L79.9,120z"/>
	<path class="st38" d="M84.7,118.9c0.9,0,1.6,0.4,1.7,1.3c0,1-0.6,1.5-1.5,1.5c-0.8-0.1-1.6-0.6-1.5-1.6
		C83.4,119.4,83.9,118.9,84.7,118.9z"/>
	<path class="st39" d="M79.8,120c0.1,0.1,0.2,0.2,0.3,0.3c1,0.9,2.1,1.7,0.8,3.1c-0.5,0.5-1.3,0.2-1.7-0.2
		C77.9,121.8,78.8,120.9,79.8,120C79.9,120,79.8,120,79.8,120z"/>
</g>
<g>
	<path class="st40" d="M87.4,226.8c-2.3,0.5-3.2,2.1-3.3,4.4c-0.1,2.8-1.1,5.3-2.7,7.6c-4.9,7-14.7,7.9-20.5,1.6
		c-1.9-2-3.3-2.3-5.5-1.2c-1.2,0.5-2.5,0.8-3.7,1.1c-8.6,1.9-14.2-1.3-16.5-9.7c-1.4-5.2-2.7-10.2-4.7-15.2
		c-2.9-7.3,2.6-16.7,10.4-18.5c3.1-0.7,4.5-2.1,5.2-5.1c1-4.1,4-7,7.3-9.3c2.9-2.1,6.4-2,9.6-1.1c7.4,2.2,12.8,6.6,14.1,14.6
		c0.3,2.1,1.2,3,3.1,3.4c3.6,0.8,6.8,2.4,9.1,5.4c5.2,6.5,4.6,15.2-1.3,21.1C87.9,226.1,87.7,226.5,87.4,226.8l0.2,0.1L87.4,226.8z"
		/>
	<path class="st41" d="M54.7,215.8h-0.4h-0.4c0.5-2.3,2.7-2.5,4.3-3.5c2.5-3.8,2.2-7.8,0.6-11.8c-0.6-1.4-0.8-2.5,0.6-3.4
		c1.4-0.8,2.5,0,3.3,1.1c0.6,0.8,0.5,1.6,0,2.4c-2,3-1,6.4-0.9,9.6c0,1.9,1.6,2.4,3,1.2c1.4-1.3,3.2-2.4,3.8-4.5
		c1.2-3.7,1.5-3.8,5.4-2.4c-1.6,1.2-2.5,2.4,0,3.6c-2.5,1.1-5.6,1.1-7.3,3.9c-0.5,0.8-1.7,1.4-1.3,2.5c0.5,1.3,1.8,1.2,3,1.2
		c2,0,3.9,0.1,5.8-1.2c1.4-1,2.8,0,3.6,1.3c0.7,1.1,0.3,2.2-0.6,3.1c-0.7,0.7-1.7,1.1-2.3,0.4c-2.4-3.1-5.6-2.1-8.7-1.9
		c-0.9,0.1-1.7,0.1-2.6,0.2c-2.9,3.5-4.8,3.3-6.5-0.9c-0.5-0.1-1-0.2-1.5-0.3C55.3,216.2,55,216.1,54.7,215.8z"/>
	<path class="st42" d="M57.1,216.7c2.6,3.3,3,3.4,6.5,0.9c1.1,3,5.6,7.6,8.5,8.5c1.5,0.5,2.9,0.7,1.6,2.8c-1.2-0.2-2.4-0.5-3.6,0
		c-1.8-3.8-4.7-6.6-8.7-8.8c-1.2,3.7-0.9,7.1,0.2,10.5c-0.9,0.4-1.8,0.4-2.8,0c0-3.2,0-6.5,0-10.3c-4.2,2.2-6.9,5-9,8.5
		c-0.4,0.6-0.4,1.4-0.8,2c-0.7,0.9-1.7,0.9-2.8,0.7c-1-0.2-1.5-0.9-1.6-1.8c-0.1-1.1,0.3-2.2,1.4-2.3c2.7-0.2,3.8-2.3,5.5-3.8
		c1.3-1.1,2.5-2.3,3.9-3.4C57,219.1,57.5,218.1,57.1,216.7z"/>
	<path class="st43" d="M58.2,212.3c-1.1,1.6-2.8,2.4-4.3,3.5c-2,0-4,0-6,0c-0.5-0.6-0.5-1.1,0-1.7c2.1,0,4.2,0,6.7,0
		c-1.4-2.8-3.8-3.9-5-6c-0.1-1.3-0.3-2.7,1-3.6C52.2,207.9,54.3,211,58.2,212.3z"/>
	<path class="st44" d="M47.8,214.1c0,0.6,0,1.1,0,1.7c-0.5,0.3-1,0.6-1.4,1c-1.1,0.8-2.1,1-3-0.1s-1-2.4,0-3.5c0.9-1.1,2-0.8,3.1,0
		C46.9,213.4,47.4,213.7,47.8,214.1z"/>
	<path class="st45" d="M50.5,204.5c-0.2,1.2,0.4,2.7-1,3.6c-0.4-0.2-0.8-0.4-1.2-0.5c-1.1-0.4-2.3-0.6-2.2-2.2
		c0.1-1.1,0.5-2,1.6-2.3C49.1,202.6,49.9,203.3,50.5,204.5z"/>
	<path class="st46" d="M73.9,208.1c-1.4-0.4-3.8,0.8-3.9-1c-0.2-2.1,2.1-2.5,4-2.6C75.7,205.7,75.6,206.9,73.9,208.1z"/>
	<path class="st41" d="M59,230.5c0.9-0.6,1.8-0.4,2.8,0c1,1,0.8,2-0.1,2.9c-0.5,0.6-1.3,0.7-1.9,0.4C58.5,232.9,58.4,231.8,59,230.5
		z"/>
	<path class="st47" d="M70.2,228.8c1.1-2.4,1.6-2.4,3.6,0C72.4,231.2,71.6,231.2,70.2,228.8z"/>
	<path class="st43" d="M54.7,215.8c0.3,0.2,0.6,0.4,0.9,0.6C55.1,216.5,54.9,216.2,54.7,215.8z"/>
</g>
<line class="st48" x1="600" y1="142.9" x2="600" y2="1272.8"/>
<g>
	<path class="st49" d="M606.6,73c0.1,8.2-2.2,13.1-6,12.9c-3.8,0.2-6-4.7-6-12.9c-0.1-8.2,2.2-13.1,6-12.9
		C604.4,59.9,606.6,64.8,606.6,73z"/>
	<path class="st49" d="M637.8,32.9c-19.3,2.7-33.7,27.5-35.7,31.9c-2.1,4.4-2.3,11.5,4.8,11.5s23.4-1.6,39.4-10
		C664.5,56.9,664.5,29.1,637.8,32.9z M645.1,58.5c-10.4,8.8-34,10.7-35.5,8.4c-1.4-2.2,11.3-20.4,24.5-25.3
		C645.3,37.4,658,47.5,645.1,58.5z"/>
	<path class="st49" d="M556.1,66.4c16.1,8.3,32.4,10,39.4,10c7.1,0,6.8-7.1,4.8-11.5c-2.1-4.4-16.4-29.2-35.7-31.9
		C537.9,29.1,537.8,56.9,556.1,66.4z M568.2,41.6c13.2,4.9,25.9,23.1,24.5,25.3s-25.1,0.4-35.5-8.4C544.3,47.5,557,37.4,568.2,41.6z
		"/>
	<path class="st49" d="M596.1,82.5c3.2-9.3-2.7-10.5-6.4-5c-7.3,10.7-21.5,18.1-32.9,21.3c-6.2,1.8-9.6,0-13.2,0.3
		c-3.6,0.3-4,14.1,3.2,13c7.3-1,10.2-4.1,17.2-6.6C578.2,100.5,593.3,90.4,596.1,82.5z"/>
	<path class="st49" d="M602.7,82.5c-3.2-9.3,2.7-10.5,6.4-5c7.3,10.7,21.5,18.1,32.9,21.3c6.2,1.8,9.6,0,13.2,0.3
		c3.6,0.3,4,14.1-3.2,13c-7.3-1-10.2-4.1-17.2-6.6C620.6,100.5,605.5,90.4,602.7,82.5z"/>
</g>
<g>
	<rect x="165" y="115.8" class="st50" width="11.8" height="12.1"/>
	<rect x="176.8" y="127.9" class="st50" width="11.8" height="12.1"/>
	<rect x="188.6" y="115.8" class="st50" width="11.8" height="12.1"/>
	<rect x="200.4" y="127.9" class="st50" width="11.8" height="12.1"/>
	<rect x="212.2" y="115.8" class="st50" width="11.8" height="12.1"/>
	<rect x="223.9" y="127.9" class="st50" width="11.8" height="12.1"/>
	<rect x="235.8" y="115.8" class="st50" width="11.8" height="12.1"/>
	<rect x="247.5" y="127.9" class="st50" width="11.8" height="12.1"/>
	<rect x="259.3" y="115.8" class="st50" width="11.8" height="12.1"/>
	<rect x="271.1" y="127.9" class="st50" width="11.8" height="12.1"/>
	<rect x="282.9" y="115.8" class="st50" width="11.8" height="12.1"/>
	<rect x="294.7" y="127.9" class="st50" width="11.8" height="12.1"/>
	<rect x="306.5" y="115.8" class="st50" width="11.8" height="12.1"/>
	<rect x="318.3" y="127.9" class="st50" width="11.8" height="12.1"/>
	<rect x="330.1" y="115.8" class="st50" width="11.8" height="12.1"/>
	<rect x="341.8" y="127.9" class="st50" width="11.8" height="12.1"/>
	<rect x="353.7" y="115.8" class="st50" width="11.8" height="12.1"/>
	<rect x="365.4" y="127.9" class="st50" width="11.8" height="12.1"/>
	<rect x="377.2" y="115.8" class="st50" width="11.8" height="12.1"/>
	<rect x="389" y="127.9" class="st50" width="11.8" height="12.1"/>
	<rect x="400.8" y="115.8" class="st50" width="11.8" height="12.1"/>
	<rect x="412.6" y="127.9" class="st50" width="11.8" height="12.1"/>
	<rect x="424.4" y="115.8" class="st50" width="11.8" height="12.1"/>
	<rect x="436.2" y="127.9" class="st50" width="11.8" height="12.1"/>
	<rect x="447.9" y="115.8" class="st50" width="11.8" height="12.1"/>
	<rect x="459.7" y="127.9" class="st50" width="11.8" height="12.1"/>
	<rect x="471.5" y="115.8" class="st50" width="11.8" height="12.1"/>
	<rect x="483.2" y="127.9" class="st50" width="11.8" height="12.1"/>
</g>
<g>
	<rect x="705.8" y="115.8" class="st50" width="11.8" height="12.1"/>
	<rect x="717.5" y="127.9" class="st50" width="11.8" height="12.1"/>
	<rect x="729.3" y="115.8" class="st50" width="11.8" height="12.1"/>
	<rect x="741.1" y="127.9" class="st50" width="11.8" height="12.1"/>
	<rect x="752.9" y="115.8" class="st50" width="11.8" height="12.1"/>
	<rect x="764.7" y="127.9" class="st50" width="11.8" height="12.1"/>
	<rect x="776.5" y="115.8" class="st50" width="11.8" height="12.1"/>
	<rect x="788.3" y="127.9" class="st50" width="11.8" height="12.1"/>
	<rect x="800.1" y="115.8" class="st50" width="11.8" height="12.1"/>
	<rect x="811.8" y="127.9" class="st50" width="11.8" height="12.1"/>
	<rect x="823.7" y="115.8" class="st50" width="11.8" height="12.1"/>
	<rect x="835.4" y="127.9" class="st50" width="11.8" height="12.1"/>
	<rect x="847.2" y="115.8" class="st50" width="11.8" height="12.1"/>
	<rect x="859" y="127.9" class="st50" width="11.8" height="12.1"/>
	<rect x="870.8" y="115.8" class="st50" width="11.8" height="12.1"/>
	<rect x="882.6" y="127.9" class="st50" width="11.8" height="12.1"/>
	<rect x="894.4" y="115.8" class="st50" width="11.8" height="12.1"/>
	<rect x="906.2" y="127.9" class="st50" width="11.8" height="12.1"/>
	<rect x="918" y="115.8" class="st50" width="11.8" height="12.1"/>
	<rect x="929.7" y="127.9" class="st50" width="11.8" height="12.1"/>
	<rect x="941.6" y="115.8" class="st50" width="11.8" height="12.1"/>
	<rect x="953.3" y="127.9" class="st50" width="11.8" height="12.1"/>
	<rect x="965.1" y="115.8" class="st50" width="11.8" height="12.1"/>
	<rect x="976.9" y="127.9" class="st50" width="11.8" height="12.1"/>
	<rect x="988.7" y="115.8" class="st50" width="11.8" height="12.1"/>
	<rect x="1000.4" y="127.9" class="st50" width="11.8" height="12.1"/>
	<rect x="1012.2" y="115.8" class="st50" width="11.8" height="12.1"/>
	<rect x="1024" y="127.9" class="st50" width="11.8" height="12.1"/>
</g>
<g>
	<g>
		<g>
			<g>
				<path class="st51" d="M1093.9,111.1c19.9-3.7,46-12,48.1-27.2c2-15.2-55.1-69.4-68.9-66.8c-13.9,2.5-43.4,72.6-35,86
					C1046.3,116.4,1073.9,114.8,1093.9,111.1z"/>
				<g>
					<path class="st52" d="M1122,63.9c-21.7,9.7-56.4,3.8-77.5-1.2c-6.3,16.8-10,33.3-6.9,39.8c35.3,9.4,78.3-3.7,102.6-13.3
						c0.9-1.6,1.5-3.3,1.7-5.2c0.6-4.8-4.5-13.3-12.3-22.8C1127.3,61.8,1124.7,62.7,1122,63.9z"/>
					<path class="st53" d="M1141.2,87c0.4-1,0.6-2,0.8-3c0.6-4.7-4.4-13.1-11.9-22.3c-2.8,0.6-5.9,1.6-9.3,3.1
						c-21.6,9.5-56.5,3.5-76.4-1.3c-5.6,15.1-9,29.8-7.3,37.1C1072.7,110.9,1118,96.3,1141.2,87z"/>
					<g>
						<path class="st51" d="M1036.6,93.8c8.8,1.5,17.7,2,26.6,1.9c4.4-0.1,8.9-0.3,13.3-0.7c2.2-0.1,4.4-0.4,6.6-0.6
							c2.2-0.2,4.4-0.5,6.6-0.9l3.3-0.4l3.3-0.5l3.3-0.5l3.3-0.6c2.2-0.4,4.4-0.8,6.6-1.3c2.2-0.5,4.4-0.9,6.5-1.4
							c8.7-1.9,17.3-4.1,26-6.4c-8.3,3.4-16.8,6.3-25.5,8.7c-1.1,0.3-2.2,0.6-3.2,0.9l-3.3,0.8c-2.2,0.5-4.4,1-6.6,1.5l-3.3,0.7
							l-3.3,0.6l-3.3,0.6l-3.3,0.5c-8.9,1.2-17.9,1.9-26.9,1.6C1054.1,97.7,1045.1,96.5,1036.6,93.8z"/>
					</g>
					<g>
						<path class="st51" d="M1037.8,85c8.6,1.6,17.2,2.4,25.8,2.5c4.3,0,8.6,0,12.9-0.2c2.2-0.1,4.3-0.2,6.5-0.4
							c2.2-0.1,4.3-0.4,6.4-0.6c1.1-0.1,2.1-0.2,3.2-0.3l3.2-0.4l3.2-0.4l3.2-0.5l3.2-0.4l3.2-0.5c2.1-0.3,4.3-0.7,6.4-1.1
							c8.5-1.5,17-3.3,25.5-5.1c-8.2,3-16.6,5.4-25.1,7.4l-3.2,0.7l-3.2,0.6l-3.2,0.6l-3.2,0.6l-3.2,0.5l-3.2,0.4
							c-2.2,0.3-4.3,0.6-6.5,0.8c-8.7,0.8-17.5,1.2-26.2,0.6C1054.8,89.3,1046.1,87.9,1037.8,85z"/>
					</g>
					<g>
						<path class="st51" d="M1039.8,77.1c8.2,1.4,16.4,2.2,24.6,2.4c4.1,0.1,8.2,0.2,12.3,0c2.1,0,4.1-0.1,6.2-0.2
							c2.1-0.1,4.1-0.2,6.1-0.4l3.1-0.2l3.1-0.3l3.1-0.3l3.1-0.3c2-0.2,4.1-0.4,6.1-0.7c2-0.3,4.1-0.5,6.1-0.8
							c8.2-1.1,16.3-2.5,24.5-3.8c-7.9,2.6-15.9,4.6-24.1,6.1l-3.1,0.6l-3.1,0.5c-2,0.3-4.1,0.6-6.2,0.9c-2.1,0.3-4.1,0.5-6.2,0.7
							l-3.1,0.3l-3.1,0.2c-8.3,0.5-16.6,0.6-25-0.1C1055.9,81.2,1047.6,79.8,1039.8,77.1z"/>
					</g>
					<g>
						<path class="st51" d="M1042,69.7c7.7,1.5,15.5,2.4,23.3,2.9c3.9,0.2,7.8,0.4,11.7,0.4c2,0.1,3.9,0,5.9,0c2,0,3.9-0.1,5.9-0.1
							c2,0,3.9-0.1,5.9-0.2l2.9-0.1l2.9-0.2c2-0.1,3.9-0.2,5.9-0.4c2-0.2,3.9-0.3,5.9-0.5c7.8-0.7,15.6-1.6,23.4-2.5
							c-7.6,2.1-15.4,3.7-23.2,4.8l-2.9,0.4l-2.9,0.3c-2,0.2-3.9,0.5-5.9,0.6c-2,0.2-3.9,0.3-5.9,0.4c-2,0.1-3.9,0.2-5.9,0.3
							c-7.9,0.2-15.8,0-23.7-1C1057.3,74,1049.5,72.4,1042,69.7z"/>
					</g>
				</g>
				<g>
					<path class="st52" d="M1060.7,29.4c-6.4,9.8-13,24.1-17.8,37.7c29.7,13,68.8,10.9,95.9,7c-4.7-8.3-14-19.2-24.3-29.2
						C1095.6,43,1075.3,35.7,1060.7,29.4z"/>
					<path class="st54" d="M1059.9,30.6c-5.9,9.3-11.9,22.2-16.4,34.6c28.8,14.4,68.8,11.7,94.5,7.6c-4.6-7.6-12.7-17.2-21.8-26.2
						C1096.5,45.5,1074.4,37.1,1059.9,30.6z"/>
					<g>
						<path class="st53" d="M1045.7,59.6c7,2.9,14.3,4.9,21.7,6.4c7.4,1.5,14.9,2.4,22.4,2.9c7.5,0.5,15.1,0.6,22.6,0.5
							c7.6-0.2,15.1-0.5,22.7-1c-7.5,1.3-15,2.2-22.6,2.6c-7.6,0.4-15.2,0.4-22.8-0.1c-7.6-0.5-15.2-1.6-22.6-3.4
							C1059.7,65.8,1052.4,63.2,1045.7,59.6z"/>
					</g>
					<g>
						<path class="st53" d="M1049.3,50.9c6.4,2.7,13,4.7,19.7,6.3c6.7,1.6,13.5,2.7,20.3,3.5c6.8,0.8,13.7,1.3,20.6,1.6
							c6.9,0.3,13.8,0.3,20.8,0.3c-6.9,0.8-13.8,1.2-20.8,1.2c-6.9,0-13.9-0.3-20.8-1.1c-6.9-0.8-13.8-2.1-20.5-4
							C1061.9,56.8,1055.4,54.3,1049.3,50.9z"/>
					</g>
					<g>
						<path class="st53" d="M1054.5,40.2c5.6,2.5,11.4,4.6,17.2,6.5c5.9,1.8,11.8,3.3,17.8,4.6c6,1.3,12,2.3,18.1,3.2
							c6.1,0.9,12.2,1.6,18.3,2.4c-6.2,0.1-12.4-0.2-18.5-0.8c-6.2-0.6-12.3-1.5-18.3-2.8c-6.1-1.3-12.1-2.9-17.9-5.1
							C1065.4,46.1,1059.7,43.5,1054.5,40.2z"/>
					</g>
				</g>
			</g>
			<path class="st52" d="M1073,17.1c-1.1,0.2-2.2,0.8-3.4,1.7c21.6,12.7,58.5,50.4,56.9,62.7c-2,15.2-28.1,23.5-48.1,27.2
				c-8.9,1.6-19.3,2.8-28.9,2.5c12.3,4.1,30.2,2.5,44.4-0.1c19.9-3.7,46-12,48.1-27.2C1144,68.7,1086.9,14.5,1073,17.1z"/>
		</g>
		<g>
			<g>
				<path class="st52" d="M1110,40.6c-16,7.3-38,14.3-64.6,19.6c-0.5,1.3-1,2.5-1.4,3.8c0,0,0,0,0.1,0.1c0.1,0,0.1,0.1,0.2,0.1
					c0.1,0,0.2,0.1,0.3,0.1c0.1,0,0.2,0,0.3,0.1c0.1,0,0.1,0,0.2,0c0.2,0,0.4,0,0.6,0c13.8-2.7,27.3-6.2,39.8-10.2
					c4.2-1.3,8.2-2.7,12-4.1c5.2-1.9,10-3.9,14.5-5.9c0.2-0.1,0.3-0.2,0.4-0.3c0,0,0.1-0.1,0.1-0.1c0.1-0.1,0.1-0.1,0.2-0.2
					c0-0.1,0.1-0.1,0.1-0.2C1111.9,42.4,1111,41.5,1110,40.6z"/>
				<path class="st52" d="M1058,90.9c29.4,3.4,57.6,3.7,79.3,0.7c0.5-0.1,0.9-0.1,1.4-0.2c1-1.4,1.8-2.8,2.4-4.3c-0.1,0-0.3,0-0.4,0
					c-1.3,0.2-2.6,0.4-4,0.6c-21.3,2.9-49.1,2.7-78.1-0.7c-7-0.8-13.9-1.8-20.6-2.9c-0.3,1.3-0.5,2.6-0.8,3.9
					C1044,89,1050.9,90,1058,90.9z"/>
				<path class="st52" d="M1101.9,33.5c-10.8-2.4-22.4-4.4-34.3-5.9c-1.8-0.2-3.6-0.4-5.3-0.6c-0.8,1.1-1.6,2.4-2.4,3.6
					c0.1,0,0.2,0,0.3,0.1c2.3,0.2,4.6,0.5,6.9,0.8c6.7,0.9,13.4,1.9,19.8,3c3.2,0.6,6.4,1.2,9.5,1.8c1.6,0.3,3.1,0.6,4.6,1
					c1.5,0.3,3,0.7,4.5,1c0,0,0,0,0,0c0.1,0,0.2,0,0.4,0.1c0,0,0.1,0,0.1,0c0.1,0,0.2,0,0.2,0c0,0,0.1,0,0.1,0c0.1,0,0.1,0,0.2,0
					c0,0,0.1,0,0.1,0c0.1,0,0.1,0,0.2-0.1c0,0,0.1,0,0.1-0.1c0.1,0,0.1,0,0.1-0.1c0,0,0.1,0,0.1-0.1
					C1105.4,36.5,1103.7,35,1101.9,33.5z"/>
			</g>
			<g>
				<path class="st55" d="M1109.7,39.1c-16.1,7.4-38.3,14.5-65.2,19.8c-0.7,0.1-1.3,0.6-1.6,1.2c0,0.1,0,0.1-0.1,0.2
					c-0.6,1.4,0.8,2.9,2.5,2.5c24.4-4.9,48.3-12.1,66.4-20.3c1.3-0.6,1.6-2.2,0.6-3.1c0,0,0,0,0,0
					C1111.6,38.9,1110.6,38.7,1109.7,39.1z"/>
				<path class="st52" d="M1111.3,41c-18,8.2-41.9,15.4-66.4,20.3c-0.9,0.2-1.7-0.2-2.1-0.8c-0.4,1.4,1,2.6,2.5,2.3
					c24.4-4.9,48.3-12.1,66.4-20.3c1.2-0.5,1.5-1.9,0.8-2.9C1112.3,40.2,1111.9,40.7,1111.3,41z"/>
			</g>
			<g>
				<path class="st55" d="M1141.4,89.4c1.2-0.2,2-1.4,1.6-2.4l0,0c-0.1-1.2-1.4-1.6-2.7-1.4c-1.3,0.2-2.6,0.4-4,0.6
					c-21.3,2.9-49.1,2.7-78.1-0.7c-7.2-0.8-14.3-1.9-21.2-3c-1.2-0.2-2.4,0.5-2.6,1.5l0,0c-0.3,1.1,0.5,2.1,1.7,2.3
					c7,1.2,14.1,2.2,21.5,3.1c29.4,3.4,57.6,3.7,79.3,0.7c1.4-0.2,2.7-0.4,4-0.6L1141.4,89.4z"/>
				<path class="st52" d="M1142.8,86.2c-0.1,0.8-0.8,1.4-1.7,1.6l-0.4,0.1c-1.3,0.2-2.6,0.4-4,0.6c-21.7,3-49.9,2.7-79.3-0.7
					c-7.3-0.9-14.5-1.9-21.5-3.1c-0.6-0.1-1-0.4-1.4-0.8c0,0,0,0,0,0c-0.3,1.1,0.5,2.1,1.7,2.3c7,1.2,14.1,2.2,21.5,3.1
					c29.4,3.4,57.6,3.7,79.3,0.7c1.4-0.2,2.7-0.4,4-0.6l0.4-0.1c1.2-0.2,2-1.4,1.6-2.4C1143,86.7,1142.9,86.4,1142.8,86.2z"/>
			</g>
			<g>
				<path class="st55" d="M1058.3,26.2c0,0.1-0.1,0.1-0.1,0.2c-0.7,1.2,0.1,2.6,1.6,2.8c2.3,0.2,4.6,0.5,6.9,0.8
					c13.5,1.7,26.5,4,38.4,6.8c2.1,0.5,3.5-1.8,2-3.2c-0.1-0.1-0.2-0.1-0.2-0.2c-0.3-0.2-0.6-0.4-0.9-0.5
					c-12.1-2.8-25.1-5.2-38.6-6.9c-2.3-0.3-4.6-0.6-6.9-0.8C1059.6,25.2,1058.7,25.6,1058.3,26.2z"/>
				<path class="st52" d="M1104.8,35.3c-12-2.8-24.9-5.1-38.4-6.8c-2.3-0.3-4.6-0.6-6.9-0.8c-0.6-0.1-1.1-0.4-1.4-0.8
					c-0.3,1.1,0.5,2.2,1.8,2.4c2.3,0.2,4.6,0.5,6.9,0.8c13.5,1.7,26.5,4,38.4,6.8c2,0.5,3.3-1.6,2.2-3
					C1107.1,34.8,1106,35.6,1104.8,35.3z"/>
			</g>
		</g>
	</g>
	<g>
		<g>
			<g>
				<g>
					<path class="st51" d="M1125.8,124.6c20.3,0,47.7-3.4,53-18c5.3-14.6-38.9-77.9-53-77.9c-14.1,0-58.3,63.4-53,77.9
						S1105.4,124.6,1125.8,124.6z"/>
					<path class="st52" d="M1084.4,74c-2.8,4.7-5.3,9.3-7.3,13.6c-2.9,6.7-4.7,12.6-4.8,16.9c0,0.8,0.2,1.6,0.4,2.2
						c0.8,2.2,2.1,4.2,3.8,5.9c40,7.8,77.2-1.8,102.2-11.7c-0.7-3.7-2.2-8.2-4.4-13.2c-6.7-14.5-19.3-33-30.5-45.4
						C1125.8,59.6,1099.5,69.4,1084.4,74z"/>
				</g>
				<g>
					<path class="st53" d="M1178.8,99.9c-2.9-13.9-18.9-39.5-33.3-55.9c-18.4,17.3-46.4,26.9-61.7,31.1c-7.9,13.5-13,26-11,31.6
						c0.5,1.4,1.2,2.7,2.1,3.8C1115.4,118.3,1153.4,109.3,1178.8,99.9z"/>
					<g>
						<path class="st51" d="M1072.4,105.1c8.8,0.3,17.6,0.4,26.4,0.1l3.3-0.1l3.3-0.2l3.3-0.2c1.1-0.1,2.2-0.2,3.3-0.3
							c2.2-0.2,4.4-0.3,6.5-0.6c2.2-0.2,4.4-0.4,6.5-0.7c4.4-0.5,8.7-1.1,13-1.8c4.3-0.7,8.6-1.5,13-2.3c8.6-1.7,17.2-3.7,25.8-5.8
							c-8.2,3.3-16.7,5.9-25.3,8c-2.1,0.6-4.3,1-6.5,1.5c-2.2,0.5-4.3,0.9-6.5,1.3c-4.4,0.8-8.7,1.5-13.1,2
							c-2.2,0.3-4.4,0.5-6.6,0.7c-2.2,0.2-4.4,0.4-6.6,0.5c-1.1,0.1-2.2,0.1-3.3,0.2l-3.3,0.1l-3.3,0.1l-3.3-0.1
							C1089.9,107.4,1081.1,106.7,1072.4,105.1z"/>
					</g>
					<g>
						<path class="st51" d="M1072.8,99.6c8.4-0.4,16.8-1,25.1-1.9c2.1-0.2,4.2-0.5,6.2-0.8l3.1-0.4l3.1-0.5l3.1-0.5
							c1-0.2,2.1-0.3,3.1-0.5c2.1-0.4,4.1-0.7,6.2-1.1c2.1-0.4,4.1-0.8,6.1-1.2c2-0.4,4.1-0.9,6.1-1.4c4.1-0.9,8.1-1.9,12.2-3
							c8.1-2.1,16.1-4.5,24.2-7c-7.6,3.6-15.5,6.7-23.5,9.3l-3,1l-3,0.9c-2,0.6-4.1,1.1-6.1,1.7c-2,0.6-4.1,1-6.2,1.5
							c-2.1,0.5-4.1,0.9-6.2,1.3c-2.1,0.4-4.2,0.7-6.3,1.1c-2.1,0.4-4.2,0.7-6.3,0.9l-3.1,0.4l-3.2,0.3l-3.2,0.3
							c-1.1,0.1-2.1,0.1-3.2,0.2C1089.6,100.6,1081.2,100.5,1072.8,99.6z"/>
					</g>
					<g>
						<path class="st51" d="M1075,92.5c7.8-0.9,15.5-1.9,23.1-3.1c1.9-0.3,3.8-0.7,5.7-1c1.9-0.3,3.8-0.7,5.7-1.1l2.8-0.6l2.8-0.6
							c1.9-0.4,3.8-0.8,5.7-1.3c1.9-0.4,3.8-0.9,5.6-1.4c1.9-0.5,3.7-1,5.6-1.5c1.9-0.5,3.7-1,5.6-1.6c1.9-0.5,3.7-1.1,5.6-1.7
							c7.4-2.3,14.8-4.7,22.2-7.3c-6.9,3.7-14.1,6.8-21.4,9.5l-2.8,1l-2.8,0.9c-1.9,0.6-3.7,1.2-5.6,1.8c-1.9,0.6-3.8,1.1-5.7,1.6
							c-1.9,0.5-3.8,1-5.7,1.5c-1.9,0.5-3.8,0.9-5.7,1.3c-1.9,0.4-3.8,0.8-5.8,1.1c-1.9,0.3-3.9,0.7-5.8,0.9
							c-1.9,0.3-3.9,0.6-5.8,0.7C1090.7,92.5,1082.8,92.9,1075,92.5z"/>
					</g>
					<g>
						<path class="st51" d="M1078,85.7c6.7-1.8,13.4-3.6,20-5.7c3.3-1,6.6-2,9.9-3.2l2.5-0.8l2.4-0.9c1.6-0.6,3.3-1.2,4.9-1.8
							c1.6-0.6,3.2-1.2,4.8-1.8l2.4-0.9l2.4-1c1.6-0.6,3.2-1.3,4.8-2l4.8-2c6.4-2.7,12.7-5.6,19-8.5c-5.7,4-11.8,7.5-18,10.6
							l-2.3,1.2l-2.4,1.1c-1.6,0.7-3.2,1.5-4.8,2.2c-1.6,0.7-3.2,1.4-4.8,2c-1.6,0.7-3.2,1.3-4.9,1.9c-1.6,0.6-3.3,1.2-4.9,1.7
							c-1.7,0.6-3.3,1.1-5,1.6c-1.7,0.5-3.3,1-5,1.5c-1.7,0.5-3.4,0.9-5.1,1.3C1091.9,83.9,1085,85.1,1078,85.7z"/>
					</g>
				</g>
			</g>
			<path class="st52" d="M1125.8,28.7c-1.1,0-2.3,0.4-3.7,1.1c18.4,16.3,46.4,59.9,42.1,71.7c-5.3,14.6-32.7,18-53,18
				c-9.1,0-19.5-0.7-28.8-2.7c11.1,6.2,29.1,7.9,43.5,7.9c20.3,0,47.7-3.4,53-18C1184.1,92.1,1139.9,28.7,1125.8,28.7z"/>
		</g>
		<g>
			<g>
				<path class="st52" d="M1153.9,54.4c-0.9-1.2-1.8-2.3-2.7-3.5c-11.6,1.8-23.5,4.3-35.2,7.3c-9,2.3-18,5-26.6,7.9
					c-1.1,1.7-2.3,3.5-3.3,5.2c0.2,0,0.4,0,0.6-0.1c7-2.4,14.5-4.8,22.5-7c2.7-0.7,5.4-1.5,8.1-2.2c1.6-0.4,3.2-0.8,4.8-1.2
					c11.1-2.7,21.6-4.8,31.4-6.4C1153.6,54.5,1153.8,54.4,1153.9,54.4z"/>
				<path class="st52" d="M1142.8,40.9c-5.8-1.6-11.8-3.3-17.9-5.3c-2.7-0.9-5.3-1.7-7.8-2.6c-1,0.8-2,1.7-3,2.6
					c0,0.1,0,0.1,0.1,0.2c0,0.1,0.1,0.2,0.2,0.2c0,0.1,0.1,0.1,0.1,0.1c0.1,0.1,0.2,0.1,0.2,0.2c0,0,0.1,0.1,0.1,0.1
					c0.1,0.1,0.3,0.2,0.5,0.2c0,0,0,0,0,0c0.7,0.2,1.4,0.5,2,0.7c2,0.7,4.1,1.4,6.1,2c1.7,0.5,3.4,1.1,5.1,1.6c3.4,1,6.9,2,10.3,3
					c1.7,0.5,3.4,0.9,5.2,1.4c0.1,0,0.2,0,0.3,0.1c0,0,0.1,0,0.1,0c0.1,0,0.1,0,0.2,0c0,0,0.1,0,0.1,0c0.1,0,0.1,0,0.2,0
					c0,0,0.1,0,0.1,0c0.1,0,0.1,0,0.1,0c0,0,0.1,0,0.1-0.1c0,0,0.1,0,0.1-0.1c0.1,0,0.1-0.1,0.1-0.1c0,0,0.1,0,0.1-0.1
					c0.1,0,0.1-0.1,0.1-0.1c0,0,0,0,0.1,0c0.1-0.1,0.1-0.1,0.1-0.2c0,0,0,0,0,0c0,0,0-0.1,0.1-0.1
					C1145,43.4,1143.9,42.1,1142.8,40.9z"/>
				<path class="st52" d="M1178.8,100.2c-13.6,5.5-29,10.5-45.3,14.7c-12.4,3.2-24.2,5.6-35.1,7.4c4.1,0.8,8.5,1.4,12.8,1.8
					c7.8-1.5,15.7-3.3,23.5-5.3c4.2-1.1,8.3-2.2,12.3-3.4c8.1-2.3,15.8-4.9,23.2-7.6c3.1-1.1,6-2.2,8.9-3.4
					C1179.3,103.2,1179.1,101.8,1178.8,100.2z"/>
				<path class="st52" d="M1176.1,91.4c-0.5-1.2-1.1-2.5-1.7-3.8c-14.6,0.7-31.4,0.3-49.7-1.3c-15.4-1.4-30.2-3.5-43.7-6.4
					c-0.7,1.3-1.4,2.5-2,3.8c10.5,2.2,21.7,4.1,33.4,5.4c3.9,0.5,7.9,0.9,11.8,1.2c11.6,1,23.3,1.6,34.6,1.6c1.5,0,2.9,0,4.4,0
					c2.9,0,5.7-0.1,8.6-0.2C1173.2,91.6,1174.6,91.5,1176.1,91.4C1176,91.4,1176,91.4,1176.1,91.4z"/>
			</g>
			<g>
				<path class="st55" d="M1115,31.6C1115,31.6,1115,31.6,1115,31.6c-1.2,1-0.8,2.7,0.6,3.2c2.6,0.9,5.3,1.8,7.9,2.6
					c6.6,2.1,13.3,4,20,5.8c1.7,0.4,3-1.4,1.9-2.6c-0.2-0.3-0.5-0.5-0.7-0.8c-0.3-0.3-0.6-0.5-1-0.6c-6-1.6-12.3-3.4-18.7-5.5
					c-2.7-0.8-5.2-1.7-7.8-2.6C1116.5,30.9,1115.6,31.1,1115,31.6z"/>
				<path class="st52" d="M1143.6,41.3c-6.7-1.7-13.4-3.6-20-5.8c-2.7-0.8-5.3-1.7-7.9-2.6c-0.5-0.2-0.8-0.5-1.1-0.8
					c-0.6,1-0.2,2.3,1.1,2.8c2.6,0.9,5.3,1.8,7.9,2.6c6.6,2.1,13.3,4,20,5.8c1.7,0.4,2.9-1.3,1.9-2.5
					C1145.1,41.2,1144.4,41.5,1143.6,41.3z"/>
			</g>
			<g>
				<path class="st55" d="M1093.5,125C1093.5,125,1093.5,125,1093.5,125c0.4,0.1,0.7,0.1,1,0.1c13.3-1.8,27.3-4.6,41-8.1
					c15.8-4.1,30.8-8.9,44-14.3c0.9-0.4,1.4-1.3,1.1-2.2c0-0.1,0-0.1,0-0.2c-0.3-1.1-1.6-1.7-2.8-1.2c-13,5.3-27.8,10.1-43.4,14.1
					c-14.6,3.7-28.2,6.4-40.5,8.1C1091.6,121.7,1091.4,124.4,1093.5,125z"/>
				<path class="st52" d="M1180.5,100.4c0-0.1-0.1-0.3-0.2-0.4c-0.2,0.3-0.5,0.6-0.9,0.8c-13.2,5.4-28.2,10.2-44,14.3
					c-13.7,3.5-27.7,6.3-41,8.1c-0.3,0-0.6,0-0.9-0.1c0,0-0.1,0-0.1,0c-0.5-0.1-0.9-0.4-1.2-0.8c-0.6,0.9-0.2,2.3,1.2,2.7
					c0,0,0.1,0,0.1,0c0.3,0.1,0.6,0.1,0.9,0.1c13.3-1.8,27.3-4.6,41-8.1c15.8-4.1,30.8-8.9,44-14.3c0.9-0.4,1.4-1.3,1.1-2.2
					C1180.5,100.5,1180.5,100.5,1180.5,100.4z"/>
			</g>
			<g>
				<path class="st55" d="M1124.9,83.5c-15.2-1.4-29.7-3.5-43-6.3c-0.7-0.2-1.4,0.2-1.8,0.7c-0.2,0.3-0.4,0.6-0.5,1
					c-0.5,0.8,0.1,1.8,1.1,2.1c13.5,2.9,28.4,5.1,43.8,6.4c11.2,1,22.6,1.5,33.5,1.5c5.7,0,11.2-0.1,16.6-0.4c1.1-0.1,1.8-1.1,1.4-2
					c-0.1-0.3-0.3-0.6-0.4-0.9c-0.3-0.5-0.9-0.9-1.5-0.9C1159.5,85.4,1143,85.1,1124.9,83.5z"/>
				<path class="st52" d="M1175.6,86c-0.3,0.3-0.7,0.5-1.1,0.5c-5.4,0.3-10.9,0.4-16.6,0.4c-11,0-22.3-0.5-33.5-1.5
					c-15.4-1.4-30.3-3.6-43.8-6.4c-0.4-0.1-0.6-0.3-0.9-0.5c-0.1,0.1-0.1,0.2-0.2,0.4c-0.5,0.8,0.1,1.8,1.1,2.1
					c13.5,2.9,28.4,5.1,43.8,6.4c11.2,1,22.6,1.5,33.5,1.5c5.7,0,11.2-0.1,16.6-0.4c1.1-0.1,1.8-1.1,1.4-2
					C1175.8,86.3,1175.7,86.2,1175.6,86z"/>
			</g>
			<g>
				<path class="st55" d="M1153.5,51.1c-0.4-0.5-0.8-1-1.1-1.4c-0.3-0.4-0.7-0.5-1.2-0.5c-11.4,1.8-23.2,4.2-34.7,7.2
					c-9.4,2.4-18.8,5.2-27.8,8.3c-0.3,0.1-0.5,0.3-0.6,0.5c-0.5,0.7-1,1.5-1.4,2.2c-0.6,0.9,0.4,2,1.5,1.6c9.1-3.1,19-6.1,29.6-8.9
					c12.4-3.2,24.2-5.6,35.1-7.3C1153.6,52.7,1154,51.7,1153.5,51.1z"/>
				<path class="st52" d="M1153.2,50.7c-0.1,0.1-0.3,0.2-0.5,0.2c-10.9,1.7-22.6,4.1-35.1,7.3c-10.6,2.7-20.5,5.7-29.6,8.9
					c-0.4,0.2-0.9,0.1-1.2-0.2c-0.1,0.2-0.2,0.3-0.3,0.5c-0.6,0.9,0.4,2,1.5,1.6c9.1-3.1,19-6.1,29.6-8.9
					c12.4-3.2,24.2-5.6,35.1-7.3c0.9-0.1,1.3-1.1,0.8-1.7C1153.4,50.9,1153.3,50.8,1153.2,50.7z"/>
			</g>
		</g>
	</g>
</g>
</svg>
