<?xml version="1.0" encoding="utf-8"?>
<!-- Generator: Adobe Illustrator 21.1.0, SVG Export Plug-In . SVG Version: 6.00 Build 0)  -->
<svg version="1.1" id="圖層_1" xmlns="http://www.w3.org/2000/svg" xmlns:xlink="http://www.w3.org/1999/xlink" x="0px" y="0px"
	 viewBox="0 0 330 376" style="enable-background:new 0 0 330 376;" xml:space="preserve">
<style type="text/css">
	.st0{fill:#BC2424;}
	.st1{opacity:0.5;enable-background:new    ;}
	.st2{clip-path:url(#SVGID_2_);}
	.st3{fill:#EC9AA4;}
	.st4{fill:#FFFFFF;stroke:#FFFFFF;stroke-width:5;stroke-linecap:round;stroke-linejoin:round;stroke-miterlimit:10;}
	.st5{fill:#FFFFFF;}
</style>
<g>
	<path class="st0" d="M303.6,359.1H26.4c-4.7,0-8.6-3.9-8.6-8.6V92.3c0-2.1,0.8-4,2.1-5.6l57.2-66.8c1.6-1.9,4-3,6.5-3h162.8
		c2.5,0,4.9,1.1,6.5,3l57.2,66.8c1.4,1.5,2.1,3.5,2.1,5.6v258.3C312.2,355.3,308.3,359.1,303.6,359.1z"/>
</g>
<g class="st1">
	<g>
		<g>
			<g>
				<defs>
					<path id="SVGID_1_" d="M303.6,359.1H26.4c-4.7,0-8.6-3.9-8.6-8.6V92.3c0-2.1,0.8-4,2.1-5.6l57.2-66.8c1.6-1.9,4-3,6.5-3h162.8
						c2.5,0,4.9,1.1,6.5,3l57.2,66.8c1.4,1.5,2.1,3.5,2.1,5.6v258.3C312.2,355.3,308.3,359.1,303.6,359.1z"/>
				</defs>
				<clipPath id="SVGID_2_">
					<use xlink:href="#SVGID_1_"  style="overflow:visible;"/>
				</clipPath>
				<g class="st2">
					<path class="st3" d="M297.7,270.9c-3.9-5.5-11.3-7-17.1-3.8c0-1.3-0.3-2.7-0.7-3.9c-2.2-6.9-9.7-10.7-16.6-8.5
						c-6.4,2.1-10.1,8.6-8.9,15.1c-1.3-0.4-2.6-0.6-3.9-0.6c-7.3,0-13.2,5.9-13.2,13.2c0,6.8,5,12.3,11.6,13.1
						c-0.8,1-1.4,2.2-1.8,3.6c-2.2,6.9,1.5,14.4,8.5,16.6c6.4,2.1,13.3-1,16-7c0.8,1,1.7,2,2.8,2.8c5.9,4.3,14.1,3,18.4-2.9
						c3.9-5.5,3.2-12.9-1.7-17.4c1.2-0.4,2.5-1,3.6-1.8C300.7,285.1,302,276.8,297.7,270.9z M283.8,290.3c-0.3,1.4-1.7,2.2-3.2,1.9
						c-1.2-0.3-2-1.3-2-2.5l-7.9-1.9l2.3,7.8c1.1,0,2.2,0.7,2.6,1.9c0.4,1.4-0.3,2.8-1.8,3.3c-1.4,0.4-2.8-0.3-3.3-1.8
						c-0.3-1.1,0.2-2.3,1.1-2.9l-2.3-7.8l-5.6,5.8c0.6,0.9,0.5,2.3-0.3,3.2c-1,1-2.7,1.1-3.7,0.1s-1.1-2.7-0.1-3.7
						c0.9-0.9,2.1-1,3.1-0.5l5.6-5.8l-7.9-1.9c-0.5,1-1.7,1.5-2.9,1.3c-1.4-0.3-2.2-1.7-1.9-3.2c0.3-1.4,1.7-2.2,3.2-1.9
						c1.2,0.3,2,1.3,2,2.5l7.9,1.9l-2.3-7.8c-1.1,0-2.2-0.7-2.6-1.9c-0.4-1.4,0.3-2.8,1.8-3.3c1.4-0.4,2.8,0.3,3.3,1.8
						c0.3,1.1-0.2,2.3-1.1,2.9l2.3,7.8l5.6-5.8c-0.6-0.9-0.5-2.3,0.3-3.2c1-1,2.7-1.1,3.7-0.1c1,1,1.1,2.7,0.1,3.7
						c-0.9,0.9-2.1,1-3.1,0.5l-5.6,5.9l7.9,1.9c0.5-1,1.7-1.5,2.9-1.3C283.3,287.4,284.1,288.8,283.8,290.3z"/>
					<path class="st3" d="M174.2,338.1c-3.9-5.5-11.3-7-17.1-3.8c0-1.3-0.3-2.7-0.7-3.9c-2.2-6.9-9.7-10.7-16.6-8.5
						c-6.4,2.1-10.1,8.6-8.9,15.1c-1.3-0.4-2.6-0.6-3.9-0.6c-7.3,0-13.2,5.9-13.2,13.2c0,6.8,5,12.3,11.6,13.1
						c-0.8,1-1.4,2.2-1.8,3.6c-2.2,6.9,1.5,14.4,8.5,16.6c6.4,2.1,13.3-1,16-7c0.8,1,1.7,2,2.8,2.8c5.9,4.3,14.1,3,18.4-2.9
						c3.9-5.5,3.2-12.9-1.7-17.4c1.2-0.4,2.5-1,3.6-1.8C177.2,352.2,178.5,344,174.2,338.1z M160.3,357.3c-0.3,1.4-1.7,2.2-3.2,1.9
						c-1.2-0.3-2-1.3-2-2.5l-7.9-1.9l2.3,7.8c1.1,0,2.2,0.7,2.6,1.9c0.4,1.4-0.3,2.8-1.8,3.3c-1.4,0.4-2.8-0.3-3.3-1.8
						c-0.3-1.1,0.2-2.3,1.1-2.9l-2.3-7.8l-5.6,5.8c0.6,0.9,0.5,2.3-0.3,3.2c-1,1-2.7,1.1-3.7,0.1c-1-1-1.1-2.7-0.1-3.7
						c0.9-0.9,2.1-1,3.1-0.5l5.6-5.8l-7.9-1.9c-0.5,1-1.7,1.5-2.9,1.3c-1.4-0.3-2.2-1.7-1.9-3.2c0.3-1.4,1.7-2.2,3.2-1.9
						c1.2,0.3,2,1.3,2,2.5l7.9,1.9l-2.3-7.8c-1.1,0-2.2-0.7-2.6-1.9c-0.4-1.4,0.3-2.8,1.8-3.3c1.4-0.4,2.8,0.3,3.3,1.8
						c0.3,1.1-0.2,2.3-1.1,2.9l2.3,7.8l5.6-5.8c-0.6-0.9-0.5-2.3,0.3-3.2c1-1,2.7-1.1,3.7-0.1c1,1,1.1,2.7,0.1,3.7
						c-0.9,0.9-2.1,1-3.1,0.5l-5.6,5.8l7.9,1.9c0.5-1,1.7-1.5,2.9-1.3C159.8,354.6,160.6,356,160.3,357.3z"/>
					<path class="st3" d="M235.6,9.3c-3.9-5.5-11.3-7-17.1-3.8c0-1.3-0.3-2.7-0.7-3.9c-2.2-6.9-9.7-10.7-16.6-8.5
						c-6.4,2.1-10.1,8.6-8.9,15.1c-1.3-0.4-2.6-0.6-3.9-0.6c-7.3,0-13.2,5.9-13.2,13.2c0,6.8,5,12.3,11.6,13.1
						c-0.8,1-1.4,2.2-1.8,3.6c-2.2,6.9,1.5,14.4,8.5,16.6c6.4,2.1,13.3-1,16-7c0.8,1,1.7,2,2.8,2.8c5.9,4.3,14.1,3,18.4-2.9
						c3.9-5.5,3.2-12.9-1.7-17.4c1.2-0.4,2.5-1,3.6-1.8C238.6,23.5,239.9,15.2,235.6,9.3z M221.7,28.7c-0.3,1.4-1.7,2.2-3.2,1.9
						c-1.2-0.3-2-1.3-2-2.5l-7.9-1.9L211,34c1.1,0,2.2,0.7,2.6,1.9c0.4,1.4-0.3,2.8-1.8,3.3c-1.4,0.4-2.8-0.3-3.3-1.8
						c-0.3-1.1,0.2-2.3,1.1-2.9l-2.3-7.8l-5.6,5.8c0.6,0.9,0.5,2.3-0.3,3.2c-1,1-2.7,1.1-3.7,0.1c-1-1-1.1-2.7-0.1-3.7
						c0.9-0.9,2.1-1,3.1-0.5l5.6-5.8l-7.9-1.9c-0.5,1-1.7,1.5-2.9,1.3c-1.4-0.3-2.2-1.7-1.9-3.2c0.3-1.4,1.7-2.2,3.2-1.9
						c1.2,0.3,2,1.3,2,2.5l7.9,1.9l-2.3-7.8c-1.1,0-2.2-0.7-2.6-1.9c-0.4-1.4,0.3-2.8,1.8-3.3c1.4-0.4,2.8,0.3,3.3,1.8
						c0.3,1.1-0.2,2.3-1.1,2.9L208,24l5.6-5.8c-0.6-0.9-0.5-2.3,0.3-3.2c1-1,2.7-1.1,3.7-0.1c1,1,1.1,2.7,0.1,3.7
						c-0.9,0.9-2.1,1-3.1,0.5L209,25l7.9,1.9c0.5-1,1.7-1.5,2.9-1.3C221.1,25.9,222,27.2,221.7,28.7z"/>
					<path class="st3" d="M297.7,102.9c-3.9-5.5-11.3-7-17.1-3.8c0-1.3-0.3-2.7-0.7-3.9c-2.2-6.9-9.7-10.7-16.6-8.5
						c-6.4,2.1-10.1,8.6-8.9,15.1c-1.3-0.4-2.6-0.6-3.9-0.6c-7.3,0-13.2,5.9-13.2,13.2c0,6.8,5,12.3,11.6,13.1
						c-0.8,1-1.4,2.2-1.8,3.6c-2.2,6.9,1.5,14.4,8.5,16.6c6.4,2.1,13.3-1,16-7c0.8,1,1.7,2,2.8,2.8c5.9,4.3,14.1,3,18.4-2.9
						c3.9-5.5,3.2-12.9-1.7-17.4c1.3-0.4,2.5-1,3.6-1.8C300.6,117.1,302,108.8,297.7,102.9z M283.8,122.2c-0.3,1.4-1.7,2.2-3.2,1.9
						c-1.2-0.3-2-1.3-2-2.5l-7.9-1.9l2.3,7.8c1.1,0,2.2,0.7,2.6,1.9c0.4,1.4-0.3,2.8-1.8,3.3c-1.4,0.4-2.8-0.3-3.3-1.8
						c-0.3-1.1,0.2-2.3,1.1-2.9l-2.3-7.8l-5.6,5.8c0.6,0.9,0.5,2.3-0.3,3.2c-1,1-2.7,1.1-3.7,0.1c-1-1-1.1-2.7-0.1-3.7
						c0.9-0.9,2.1-1,3.1-0.5l5.6-5.8l-7.9-1.9c-0.5,1-1.7,1.5-2.9,1.3c-1.4-0.3-2.2-1.7-1.9-3.2c0.3-1.4,1.7-2.2,3.2-1.9
						c1.2,0.3,2,1.3,2,2.5l7.9,1.9l-2.3-7.8c-1.1,0-2.2-0.7-2.6-1.9c-0.4-1.4,0.3-2.8,1.8-3.3c1.4-0.4,2.8,0.3,3.3,1.8
						c0.3,1.1-0.2,2.3-1.1,2.9l2.3,7.8l5.6-5.8c-0.6-0.9-0.5-2.3,0.3-3.2c1-1,2.7-1.1,3.7-0.1c1,1,1.1,2.7,0.1,3.7
						c-0.9,0.9-2.1,1-3.1,0.5l-5.6,5.9l7.9,1.9c0.5-1,1.7-1.5,2.9-1.3C283.2,119.4,284.1,120.8,283.8,122.2z"/>
					<path class="st3" d="M246.7,187.2c-3.9-5.5-11.3-7-17.1-3.8c0-1.3-0.3-2.7-0.7-3.9c-2.2-6.9-9.7-10.7-16.6-8.5
						c-6.4,2.1-10.1,8.6-8.9,15.1c-1.3-0.4-2.6-0.6-3.9-0.6c-7.3,0-13.2,5.9-13.2,13.2c0,6.8,5,12.3,11.6,13.1
						c-0.8,1-1.4,2.2-1.8,3.6c-2.2,6.9,1.5,14.4,8.5,16.6c6.4,2.1,13.3-1,16-7c0.8,1,1.7,2,2.8,2.8c5.9,4.3,14.1,3,18.4-2.9
						c3.9-5.5,3.2-12.9-1.7-17.4c1.2-0.4,2.4-1,3.6-1.8C249.7,201.3,251,193,246.7,187.2z M232.8,206.5c-0.3,1.4-1.7,2.2-3.2,1.9
						c-1.2-0.3-2-1.3-2-2.5l-7.9-1.9l2.3,7.8c1.1,0,2.2,0.7,2.6,1.9c0.4,1.4-0.3,2.8-1.8,3.3c-1.4,0.4-2.8-0.3-3.3-1.8
						c-0.3-1.1,0.2-2.3,1.1-2.9l-2.3-7.8l-5.6,5.9c0.6,0.9,0.5,2.3-0.3,3.2c-1,1-2.7,1.1-3.7,0.1c-1-1-1.1-2.7-0.1-3.7
						c0.9-0.9,2.1-1,3.1-0.5l5.6-5.8l-7.9-1.9c-0.5,1-1.7,1.5-2.9,1.3c-1.4-0.3-2.2-1.7-1.9-3.2c0.3-1.4,1.7-2.2,3.2-1.9
						c1.2,0.3,2,1.3,2,2.5l7.9,1.9l-2.3-7.8c-1.1,0-2.2-0.7-2.6-1.9c-0.4-1.4,0.3-2.8,1.8-3.3c1.4-0.4,2.8,0.3,3.3,1.8
						c0.3,1.1-0.2,2.3-1.1,2.9l2.3,7.8l5.6-5.8c-0.6-0.9-0.5-2.3,0.3-3.2c1-1,2.7-1.1,3.7-0.1c1,1,1.1,2.7,0.1,3.7
						c-0.9,0.9-2.1,1-3.1,0.5l-5.6,5.8l7.9,1.9c0.5-1,1.7-1.5,2.9-1.3C232.3,203.7,233.1,205.1,232.8,206.5z"/>
					<path class="st3" d="M35.3,289.4c1.1,0.8,2.3,1.5,3.6,1.8c-4.8,4.4-5.6,12-1.7,17.4c4.3,5.9,12.6,7.2,18.4,2.9
						c1.1-0.8,2.1-1.8,2.8-2.8c2.7,6,9.6,9.1,16,6.9c6.9-2.2,10.7-9.7,8.5-16.6c-0.4-1.3-1-2.5-1.8-3.6c6.5-0.8,11.6-6.3,11.6-13.1
						c0-7.3-5.9-13.2-13.2-13.2c-1.4,0-2.7,0.3-3.9,0.6c1.3-6.4-2.5-13-8.9-15.1c-6.9-2.2-14.4,1.5-16.6,8.5
						c-0.4,1.3-0.6,2.7-0.7,3.9c-5.7-3.2-13.1-1.7-17.1,3.8C28,276.9,29.4,285.1,35.3,289.4z M48.2,287.2c1.2-0.3,2.3,0.3,2.9,1.3
						l7.9-1.9l-5.6-5.8c-1,0.5-2.3,0.3-3.1-0.5c-1-1-0.9-2.7,0.1-3.7s2.7-0.9,3.7,0.1c0.9,0.9,0.9,2.1,0.3,3.2l5.6,5.8l2.3-7.8
						c-0.9-0.6-1.5-1.8-1.1-2.9c0.4-1.4,1.9-2.1,3.3-1.8c1.4,0.4,2.1,1.9,1.8,3.3c-0.3,1.1-1.4,1.9-2.6,1.9l-2.3,7.8l7.9-1.9
						c0-1.1,0.9-2.1,2-2.5c1.4-0.3,2.8,0.5,3.2,1.9c0.3,1.4-0.5,2.8-1.9,3.2c-1.2,0.3-2.3-0.3-2.9-1.3l-7.9,1.9l5.6,5.8
						c1-0.5,2.3-0.3,3.1,0.5c1,1,0.9,2.7-0.1,3.7c-1,1-2.7,0.9-3.7-0.1c-0.9-0.9-0.9-2.1-0.3-3.2l-5.6-5.8l-2.3,7.8
						c0.9,0.6,1.5,1.8,1.1,2.9c-0.4,1.4-1.9,2.1-3.3,1.8c-1.4-0.4-2.1-1.9-1.8-3.3c0.3-1.1,1.4-1.9,2.6-1.9l2.3-7.8l-7.9,1.9
						c0,1.1-0.9,2.1-2,2.5c-1.4,0.3-2.8-0.5-3.2-1.9C46,288.9,46.8,287.5,48.2,287.2z"/>
					<path class="st3" d="M35.2,121.4c1.1,0.8,2.3,1.5,3.6,1.8c-4.8,4.4-5.6,12-1.7,17.4c4.3,5.9,12.6,7.2,18.4,2.9
						c1.1-0.8,2.1-1.8,2.8-2.8c2.7,6,9.6,9.1,16,6.9c6.9-2.2,10.7-9.7,8.5-16.6c-0.4-1.3-1-2.5-1.8-3.6c6.5-0.8,11.6-6.3,11.6-13.1
						c0-7.3-5.9-13.2-13.2-13.2c-1.4,0-2.7,0.2-3.9,0.6c1.3-6.4-2.5-13-8.9-15.1c-6.9-2.2-14.4,1.5-16.6,8.5
						c-0.4,1.3-0.6,2.7-0.7,3.9c-5.7-3.2-13.1-1.7-17.1,3.8C28,108.9,29.3,117.2,35.2,121.4z M48.1,119.1c1.2-0.3,2.3,0.3,2.9,1.3
						l7.9-1.9l-5.6-5.8c-1,0.5-2.3,0.3-3.1-0.5c-1-1-0.9-2.7,0.1-3.7c1-1,2.7-0.9,3.7,0.1c0.9,0.9,0.9,2.1,0.3,3.2l5.6,5.8l2.3-7.8
						c-0.9-0.6-1.5-1.8-1.1-2.9c0.4-1.4,1.9-2.1,3.3-1.8c1.4,0.4,2.1,1.9,1.8,3.3c-0.3,1.1-1.4,1.9-2.6,1.9l-2.3,7.8l7.9-1.9
						c0-1.1,0.9-2.1,2-2.5c1.4-0.3,2.8,0.5,3.2,1.9c0.3,1.4-0.5,2.8-1.9,3.2c-1.2,0.3-2.3-0.3-2.9-1.3l-7.9,1.9l5.6,5.8
						c1-0.5,2.3-0.3,3.1,0.5c1,1,0.9,2.7-0.1,3.7c-1,1-2.7,0.9-3.7-0.1c-0.9-0.9-0.9-2.1-0.3-3.2l-5.6-5.8l-2.3,7.8
						c0.9,0.6,1.5,1.8,1.1,2.9c-0.4,1.4-1.9,2.1-3.3,1.8c-1.4-0.4-2.1-1.9-1.8-3.3c0.3-1.1,1.4-1.9,2.6-1.9l2.3-7.8l-7.9,1.9
						c0,1.1-0.9,2.1-2,2.5c-1.4,0.3-2.8-0.5-3.2-1.9C45.9,120.8,46.8,119.5,48.1,119.1z"/>
					<path class="st3" d="M86.2,205.6c1.1,0.8,2.3,1.5,3.6,1.8c-4.8,4.4-5.6,12-1.7,17.4c4.3,5.9,12.6,7.2,18.4,2.9
						c1.1-0.8,2.1-1.8,2.8-2.8c2.7,6,9.6,9.1,16,6.9c6.9-2.2,10.7-9.7,8.5-16.6c-0.4-1.3-1-2.5-1.8-3.6c6.5-0.8,11.6-6.3,11.6-13.1
						c0-7.3-5.9-13.2-13.2-13.2c-1.4,0-2.7,0.2-3.9,0.6c1.3-6.4-2.5-13-8.9-15.1c-6.9-2.2-14.4,1.5-16.6,8.5
						c-0.4,1.3-0.6,2.7-0.7,3.9c-5.7-3.2-13.1-1.7-17.1,3.8C79,193.1,80.4,201.3,86.2,205.6z M99.2,203.4c1.2-0.3,2.3,0.3,2.9,1.3
						l7.9-1.9l-5.6-5.8c-1,0.5-2.3,0.3-3.1-0.5c-1-1-0.9-2.7,0.1-3.7c1-1,2.7-0.9,3.7,0.1c0.9,0.9,0.9,2.1,0.3,3.2l5.6,5.8l2.3-7.8
						c-0.9-0.6-1.5-1.8-1.1-2.9c0.4-1.4,1.9-2.1,3.3-1.8c1.4,0.4,2.1,1.9,1.8,3.3c-0.3,1.1-1.4,1.9-2.6,1.9l-2.3,7.8l7.9-1.9
						c0-1.1,0.9-2.1,2-2.5c1.4-0.3,2.8,0.5,3.2,1.9c0.3,1.4-0.5,2.8-1.9,3.2c-1.2,0.3-2.3-0.3-2.9-1.3l-7.9,1.9l5.6,5.8
						c1-0.5,2.3-0.3,3.1,0.5c1,1,0.9,2.7-0.1,3.7c-1,1-2.7,0.9-3.7-0.1c-0.9-0.9-0.9-2.1-0.3-3.2l-5.6-5.8l-2.3,7.8
						c0.9,0.6,1.5,1.8,1.1,2.9c-0.4,1.4-1.9,2.1-3.3,1.8c-1.4-0.4-2.1-1.9-1.8-3.3c0.3-1.1,1.4-1.9,2.6-1.9l2.3-7.8l-7.9,1.9
						c0,1.1-0.9,2.1-2,2.5c-1.4,0.3-2.8-0.5-3.2-1.9C96.9,205.1,97.8,203.7,99.2,203.4z"/>
				</g>
			</g>
		</g>
	</g>
</g>
<path class="st4" d="M126.8,84.8c-18.7,0-26.5-6.6-27-22.7c-0.3-8.7,3.1-23.5,27.9-24.3c0.2,0,0.3,0,0.5,0c7.1,0,17.2,4.1,23.4,8.1
	l1.9,1.2l1.9-1.2c0.2-0.1,0.3-0.2,0.5-0.2c0.2,0,0.3,0,0.6,0.3l8,7.5c0.3,0.2,0.3,0.5,0.3,0.7v0.7l-0.7,0.2c-0.1,0-0.2,0-0.2,0
	c-0.1,0-0.2,0-0.3-0.1l-0.3-0.1l-6.3-6l-2.1,1c-0.1,0-2.1,0.6-2.1,0.6l-0.4,2c-0.1,0.3-0.2,0.3-0.2,0.4l-8,8.5l-0.6-0.3
	c-0.2-0.1-0.3-0.2-0.3-0.2c-0.3-0.3-0.3-0.9,0-1.2l3.2-3.3l-3.5-2.2c-5.1-3.3-10.3-4.9-15.2-4.9c-0.2,0-0.4,0-0.6,0
	c-13.1,0.3-15.7,6.9-15.5,12.4c0.2,5.6,1.5,11.6,14.6,11.6c0.5,0,0.9,0,1.5,0c5.3-0.2,10.8-2.3,16.3-6.3l2.4-1.7l0.4,0.2
	c0,0,0.1,0,0.1,0.1l1.1,0.7l-1.9,1.5c-4.2,3.3-10.8,7.3-18.3,7.5c-0.4,0-0.9,0-1.4,0c-8,0-16.3-1.5-16.6-13.3
	c-0.1-1.9,0.2-5.5,2.4-8.5c2.7-3.6,7.7-5.6,14.7-5.7c0.3,0,0.4,0,0.7,0c7.2,0,13.5,3.3,17.5,6l2.4,1.6l5.7-6.1l-3.6-2.2
	c-4.4-2.7-14-7.4-21.6-7.4c-0.2,0-0.3,0-0.5,0c-12.2,0.3-26.7,4.5-26.2,22.5c0.3,10.9,3.6,21,25.2,21c0.7,0,1.5,0,2.2,0
	c7.9-0.3,17.9-4.4,23.3-9.7l4-3.9c0.1,0,0.1,0,0.1,0s0.1,0,0.2,0.2l5.4-4.1c-0.1-0.2-0.2-0.3-0.1-0.5l0.1-0.7l0.6-0.1
	c0.1,0,0.1,0,0.2,0c0.1,0,0.3,0,0.3,0.1l0.2,0.1l9.1,8.6l-1.2,0.5c0,0-0.1,0-0.3,0.1l-0.4,0.1l-8.2-7.7c-0.1-0.1-0.1-0.1-0.2-0.2
	l-5.5,4.1c0.1,0.1,0.1,0.2,0.1,0.3l0.3,1l8.6,8.1l0.6-0.3l-1.2,1.1c-0.2,0.2-0.3,0.3-0.5,0.3l0,0c0,0-0.1,0-0.2,0l-2.2-0.4l0.5-1
	l-5.8-5.5l-2.1,3.9c-0.3,0.6-0.6,1.2-0.9,1.8l0.8-4l-6.6,4c-5.7,3.5-13,5.7-18.8,5.9C128.3,84.7,127.5,84.8,126.8,84.8z M201.7,82.7
	c-5.6,0-12.3-1.7-18-4.6l-7-3.6l1.2,4c-0.8-1.5-1.6-2.7-2.1-3.4l-0.9-6.6l2,2.2c5.6,6.3,17.1,10.2,25,10.2c0.3,0,0.4,0,0.7,0
	c23.6-0.7,26.5-11.2,26.2-22.5c-0.5-17.3-14.2-21-25.7-21c-0.6,0-1.2,0-1.8,0c-7.6,0.3-18.2,5.8-23.3,9.8l-0.9,0.7l-2.9,0.3l1.3-1.1
	c5-4.4,17.1-11.1,25.8-11.3c0.6,0,1.2,0,1.7,0c23.4,0,27.3,14.2,27.6,22.7c0.3,8.3-1.7,14.2-6,18c-4.4,3.9-11.6,6-21.9,6.3
	C202.1,82.7,201.9,82.7,201.7,82.7z M202.4,72.9c-7.7,0-14.5-3.9-19-7.1c-0.1-0.1-0.2-0.2-0.3-0.3l-1.8-2.8l3.1,1.7
	c4.3,3.1,10.8,6.7,17.9,6.7c0.2,0,0.4,0,0.6,0c6.6-0.2,10.8-1.5,13.2-4.1c2.4-2.7,2.3-5.9,2.2-8.3c-0.2-5.2-2.9-11.6-15.1-11.6
	c-0.3,0-0.7,0-1.1,0c-5.7,0.2-11.8,2.7-17.5,7.2l-1.8,1.5l0.7,2.2c0,0.1,0.2,0.5-0.2,0.9l-2.7,2.8l0,0l-6.2,6.5l-0.1-1.7
	c0-0.2,0-0.5,0.2-0.8l8.5-8.9l-0.7-2c0,0,0-0.1,0-0.2l-0.1-0.5l0.4-0.3c4.4-3.8,11.4-8.2,19.6-8.5c0.4,0,0.8,0,1.1,0
	c13.6,0,16.7,7.2,16.9,13.3c0.2,4.7-1,8.1-3.7,10.4c-2.7,2.4-7.3,3.7-13.5,3.9C202.8,72.9,202.6,72.9,202.4,72.9z M150.5,67.5
	c-0.1,0-0.3-0.1-0.3-0.2l-0.9-0.6l8.3-8.7c0.2-0.2,0.3-0.3,0.5-0.3l0.9-0.1l0.1,0.9c0,0.1,0,0.3-0.1,0.5l-0.1,0.1l-8,8.4L150.5,67.5
	z M167.9,60.9l-0.2-0.6c-0.1-0.2,0-0.3,0.1-0.5l0.1-0.2l8.5-9l0.6,1c0.1,0.2,0.1,0.3,0.1,0.3l0.1,0.4l-7.9,8.3
	c-0.2,0.2-0.4,0.3-0.5,0.3L167.9,60.9z M170.1,48.5c-0.2,0-0.3-0.1-0.5-0.3l-8-7.5c-0.3-0.2-0.3-0.4-0.3-0.6s0-0.4,0.3-0.6
	c0.3-0.3,0.5-0.3,0.6-0.3c0.2,0,0.4,0,0.6,0.3l7.7,7.3l0.2,0.3l2.1,1.4l-2.4,0.2C170.1,48.4,170.1,48.4,170.1,48.5z"/>
<g>
	<path class="st5" d="M115.8,133.4c0,0.1,0,0.1,0.1,0.1c0,0,0.1,0,0.1,0l0.1,0c0.6-0.5,1.3-0.7,2-0.8c0.1,0,0.1,0,0.2,0
		c0.7,0,1.4,0.2,2,0.7c2.9,2.1,5.1,3.9,6.6,5.3c0.4,0.4,0.6,0.8,0.6,1.4c0,0.6-0.2,1.1-0.7,1.5c-0.4,0.3-0.9,0.5-1.4,0.5
		c0,0-0.1,0-0.1,0c-0.6,0-1.1-0.2-1.5-0.7c-1.9-1.9-4.5-4.1-7.8-6.6c0,0-0.1,0-0.1,0c-0.1,0-0.1,0.1-0.1,0.1v13.6
		c0,0.6-0.2,1-0.6,1.4c-0.4,0.4-0.9,0.6-1.4,0.6c-0.6,0-1-0.2-1.4-0.6c-0.4-0.4-0.6-0.9-0.6-1.4v-12.7c0,0,0-0.1-0.1-0.1
		c-0.1,0-0.1,0-0.1,0c-2.4,2.6-5,4.7-7.8,6.3c-0.3,0.2-0.7,0.3-1.1,0.3c-0.2,0-0.4,0-0.5-0.1c-0.6-0.1-1-0.5-1.4-0.9
		c-0.3-0.3-0.4-0.7-0.4-1c0-0.1,0-0.3,0.1-0.4c0.1-0.5,0.4-0.9,0.8-1.1c2.3-1.3,4.4-2.9,6.3-4.8c2-1.9,3.6-3.9,4.9-6.1
		c0-0.1,0-0.1,0-0.2c0-0.1-0.1-0.1-0.2-0.1h-10.1c-0.5,0-1-0.2-1.3-0.5s-0.5-0.8-0.5-1.3c0-0.5,0.2-1,0.5-1.3
		c0.4-0.4,0.8-0.6,1.3-0.6h23c0.5,0,1,0.2,1.3,0.6c0.4,0.4,0.5,0.8,0.5,1.3c0,0.5-0.2,1-0.5,1.3s-0.8,0.5-1.3,0.5h-7.4
		c-0.2,0-0.4,0.1-0.5,0.3c-0.4,0.7-0.9,1.5-1.5,2.3c-0.1,0.2-0.2,0.3-0.2,0.5V133.4z"/>
	<path class="st5" d="M141.1,123.2c0.1,0,0.2,0,0.3,0c0.2,0,0.4,0.1,0.6,0.2l0.8,0.5c0.4,0.2,0.6,0.5,0.8,0.9
		c0.1,0.2,0.1,0.4,0.1,0.6c0,0.2,0,0.4-0.1,0.5c-1,3.2-1.8,5.5-2.3,6.8c-0.1,0.2,0,0.4,0.1,0.5c1.4,1.8,2.2,3.8,2.2,6
		c0,0.1,0,0.1,0,0.2c0,1.9-0.5,3.2-1.4,3.8c-0.4,0.3-1,0.6-1.8,0.7c-0.1,0-0.3,0-0.4,0c0,0-0.1,0-0.1,0c-0.4,0-0.8-0.2-1.1-0.5
		c-0.4-0.3-0.6-0.7-0.7-1.2c0-0.1,0-0.2,0-0.3c0-0.3,0.1-0.5,0.2-0.7c0.2-0.3,0.5-0.5,0.9-0.5c0.2,0,0.4-0.1,0.6-0.3
		c0.4-0.3,0.6-0.9,0.6-1.7c0-1.1-0.3-2.2-0.8-3.3c-0.6-1.2-0.9-2.3-0.9-3.3c0-0.5,0.1-0.9,0.2-1.3c0.3-0.9,0.6-2.3,1.1-4.1
		c0-0.1,0-0.2,0-0.2c-0.1-0.1-0.1-0.1-0.2-0.1h-2.1c-0.2,0-0.3,0.1-0.3,0.3v22.2c0,0.5-0.2,0.9-0.5,1.2s-0.7,0.5-1.2,0.5
		c-0.5,0-0.9-0.2-1.2-0.5s-0.5-0.7-0.5-1.2v-23.1c0-0.7,0.3-1.3,0.8-1.9c0.5-0.5,1.1-0.8,1.9-0.8L141.1,123.2
		C141,123.2,141.1,123.2,141.1,123.2z M156.7,139.1c0.3-0.4,0.8-0.6,1.2-0.7c0.1,0,0.2,0,0.3,0c0.4,0,0.7,0.1,1.1,0.3
		c0.4,0.3,0.6,0.7,0.6,1.2c0,0.4-0.2,0.7-0.5,1c-0.9,0.8-1.8,1.6-2.6,2.2c-0.2,0.1-0.2,0.3-0.1,0.5c0.8,1.1,1.8,2.1,2.9,2.8
		c0.4,0.3,0.7,0.7,0.8,1.1c0,0.1,0,0.2,0,0.3c0,0.3-0.1,0.7-0.3,1c-0.3,0.5-0.8,0.8-1.3,0.9c-0.1,0-0.3,0.1-0.5,0.1
		c-0.3,0-0.7-0.1-1-0.3c-3.1-2.3-5.3-6.2-6.6-11.6c0-0.2-0.2-0.3-0.4-0.3h-1.6c-0.2,0-0.3,0.1-0.3,0.3v7.3c0,0.1,0,0.1,0.1,0.2
		c0.1,0.1,0.1,0.1,0.2,0c0.8-0.1,1.6-0.3,2.6-0.5c0.1,0,0.2,0,0.3,0c0.3,0,0.6,0.1,0.8,0.3c0.3,0.3,0.5,0.6,0.6,1.1
		c0,0.1,0,0.1,0,0.2c0,0.4-0.1,0.8-0.4,1.1c-0.3,0.4-0.6,0.6-1.1,0.7c-0.6,0.1-2.9,0.6-6.8,1.5c-0.2,0-0.3,0.1-0.5,0.1
		c-0.3,0-0.7-0.1-1-0.3c-0.5-0.3-0.8-0.6-1-1.1c-0.1-0.2-0.1-0.4-0.1-0.5c0-0.3,0.1-0.6,0.2-0.8c0.2-0.4,0.6-0.7,1.1-0.7
		c0.5-0.1,0.9-0.1,1.1-0.2c0.2,0,0.3-0.1,0.3-0.3v-20c0-0.7,0.3-1.3,0.8-1.9c0.5-0.5,1.1-0.8,1.9-0.8h9.1c0.7,0,1.3,0.3,1.9,0.8
		c0.5,0.5,0.8,1.1,0.8,1.9v9.1c0,0.7-0.3,1.3-0.8,1.9c-0.5,0.5-1.1,0.8-1.9,0.8h-2.5c-0.1,0-0.1,0-0.2,0.1c-0.1,0.1-0.1,0.1,0,0.2
		c0.3,0.9,0.6,1.8,1,2.7c0,0.1,0.1,0.1,0.2,0.1c0.1,0,0.1,0,0.2-0.1C155.8,140.1,156.3,139.6,156.7,139.1z M155.6,126.7
		c0-0.2-0.1-0.3-0.3-0.3h-6.6c-0.2,0-0.3,0.1-0.3,0.3v1.8c0,0.2,0.1,0.3,0.3,0.3h6.6c0.2,0,0.3-0.1,0.3-0.3V126.7z M148.8,131.8
		c-0.2,0-0.3,0.1-0.3,0.3v2c0,0.2,0.1,0.3,0.3,0.3h6.6c0.2,0,0.3-0.1,0.3-0.3v-2c0-0.2-0.1-0.3-0.3-0.3H148.8z"/>
	<path class="st5" d="M190.5,142.9c0,0.7-0.3,1.3-0.8,1.9s-1.1,0.8-1.9,0.8h-2.4c0,0,0,0,0,0c0,0,0,0,0,0c2.2,0.8,4.3,1.6,6.4,2.6
		c0.4,0.2,0.6,0.5,0.6,0.9c0,0.4-0.2,0.7-0.6,0.9c-0.6,0.2-1.2,0.3-1.8,0.3c-0.8,0-1.6-0.2-2.3-0.6c-1.1-0.5-2.3-1.1-3.6-1.6
		c-0.5-0.2-0.8-0.6-0.8-1.2c0-0.5,0.2-0.8,0.6-1.1l0.2-0.2c0,0,0.1,0,0-0.1c0,0,0-0.1-0.1-0.1h-8.4c0,0,0,0,0,0c0,0,0,0.1,0,0.1
		l0.1,0.1c0.5,0.2,0.8,0.7,0.8,1.2c0,0.5-0.2,0.9-0.7,1.1c-1.6,0.8-3.5,1.5-5.5,2.2c-0.3,0.1-0.6,0.1-0.9,0.1c-0.3,0-0.5,0-0.8-0.1
		c-0.6-0.2-1.1-0.5-1.5-0.9c-0.2-0.2-0.3-0.4-0.3-0.7c0-0.1,0-0.2,0.1-0.3c0.1-0.4,0.3-0.6,0.7-0.7c2.5-0.6,4.7-1.3,6.3-2.1
		c0,0,0,0,0-0.1c0,0,0-0.1-0.1-0.1h-1.6c-0.7,0-1.3-0.3-1.9-0.8c-0.5-0.5-0.8-1.1-0.8-1.9v-7.3c0-0.7,0.3-1.3,0.8-1.9
		c0.5-0.5,1.1-0.8,1.9-0.8h3.5c0.1,0,0.1,0,0.2-0.1c0-0.1,0-0.1,0-0.2c-0.4-0.8-0.9-1.4-1.3-1.8c0,0.1,0,0.1-0.1,0.2
		c-2.6,0.8-4.7,1.3-6,1.7c-0.2,0-0.4,0.1-0.6,0.1c-0.3,0-0.6-0.1-0.8-0.2c-0.4-0.2-0.8-0.6-1-1c-0.1-0.2-0.1-0.4-0.1-0.5
		c0-0.2,0.1-0.4,0.2-0.7c0.2-0.4,0.6-0.6,1-0.7c1.2-0.3,2.7-0.6,4.7-1.1c0.2,0,0.4-0.1,0.5-0.1c0.4,0,0.9,0.1,1.2,0.4
		c0.5,0.4,0.9,0.9,0.9,1.6c0,0.2,0.1,0.3,0.3,0.2c2.2-0.4,3.8-0.9,4.8-1.5c1-0.6,1.7-1.5,2.1-2.5c0-0.1,0-0.2,0-0.2
		c-0.1-0.1-0.1-0.1-0.2-0.1h-1.6c-0.2,0-0.4,0.1-0.5,0.2c-0.4,0.4-0.7,0.8-1.1,1.1c-0.3,0.3-0.7,0.5-1.2,0.5h0
		c-0.5,0-0.9-0.1-1.3-0.4c-0.4-0.2-0.5-0.5-0.5-1c0-0.3,0.1-0.6,0.4-0.8c1-0.9,1.8-1.8,2.5-2.9c0.3-0.4,0.6-0.7,1-1
		c0.3-0.2,0.7-0.3,1-0.3c0.1,0,0.2,0,0.4,0l0.1,0c0.4,0.1,0.7,0.3,0.8,0.6c0.1,0.2,0.1,0.3,0.1,0.5c0,0.2-0.1,0.4-0.2,0.5
		c0,0,0,0.1,0,0.1c0,0,0,0,0.1,0h8.2c1.1,0,1.9,0.1,2.5,0.2c0.3,0.1,0.5,0.3,0.7,0.6c0.1,0.3,0.1,0.6,0,0.9c-0.5,0.9-1,1.7-1.4,2.3
		c-0.3,0.4-0.6,0.6-1.1,0.8c-0.2,0.1-0.4,0.1-0.6,0.1c-0.2,0-0.4,0-0.7-0.1c-0.3-0.1-0.6-0.3-0.7-0.7c0-0.1-0.1-0.2-0.1-0.4
		c0-0.2,0.1-0.4,0.2-0.6c0.1-0.1,0.2-0.2,0.2-0.3c0,0,0-0.1,0-0.1c0,0-0.1-0.1-0.1-0.1H186c-0.1,0-0.1,0-0.2,0.1
		c0,0.1-0.1,0.1,0,0.2c0.4,0.9,1.1,1.7,2.1,2.3c1,0.6,2.6,1.1,4.7,1.5c0.4,0.1,0.6,0.3,0.8,0.6c0.1,0.2,0.1,0.3,0.1,0.5
		c0,0.2-0.1,0.4-0.2,0.6c-0.3,0.5-0.7,0.8-1.1,1.1c-0.3,0.2-0.6,0.2-0.9,0.2c-0.2,0-0.3,0-0.5-0.1c0,0-0.1,0-0.1,0
		c-0.1,0-0.2,0-0.2,0.2V142.9z M173.7,123.9c0.4,0.1,0.7,0.4,0.8,0.8c0.1,0.2,0.1,0.3,0.1,0.5c0,0.2-0.1,0.5-0.2,0.7
		c-0.2,0.4-0.6,0.6-1,0.8c-0.2,0-0.4,0.1-0.5,0.1c-0.2,0-0.5,0-0.8-0.2c-1.1-0.5-2.3-0.9-3.5-1.4c-0.4-0.1-0.6-0.4-0.7-0.7
		c0-0.1-0.1-0.3-0.1-0.4c0-0.2,0.1-0.4,0.2-0.6c0.2-0.4,0.6-0.7,1-0.8c0.2-0.1,0.5-0.2,0.7-0.2c0.2,0,0.4,0,0.5,0.1
		C171.4,123.1,172.6,123.5,173.7,123.9z M173.7,135.2c-0.2,0-0.3,0.1-0.3,0.3v0.7c0,0.2,0.1,0.3,0.3,0.3h12.7c0.2,0,0.3-0.1,0.3-0.3
		v-0.7c0-0.2-0.1-0.3-0.3-0.3H173.7z M173.7,138.6c-0.2,0-0.3,0.1-0.3,0.3v0.7c0,0.2,0.1,0.3,0.3,0.3h12.7c0.2,0,0.3-0.1,0.3-0.3
		v-0.7c0-0.2-0.1-0.3-0.3-0.3H173.7z M173.7,141.9c-0.2,0-0.3,0.1-0.3,0.3v0.8c0,0.2,0.1,0.3,0.3,0.3h12.7c0.2,0,0.3-0.1,0.3-0.3
		v-0.8c0-0.2-0.1-0.3-0.3-0.3H173.7z M178.7,132.9C178.7,132.9,178.7,132.9,178.7,132.9C178.7,133,178.7,133,178.7,132.9l9.7,0.1
		c0,0,0,0,0,0c0,0,0,0,0,0c-1.9-0.7-3.3-1.7-4.3-3c-0.1-0.2-0.2-0.2-0.4,0C182.8,131.2,181.1,132.2,178.7,132.9z"/>
	<path class="st5" d="M222.8,125.1c0.1,0,0.2,0,0.3,0c0.3,0,0.5,0.1,0.8,0.2l0.6,0.3c0.3,0.2,0.6,0.4,0.7,0.7
		c0.1,0.2,0.1,0.4,0.1,0.5c0,0.1,0,0.3-0.1,0.5c-1,2.5-2.3,4.8-4.1,6.8c-0.1,0.1-0.1,0.3,0,0.4c1.5,1.1,3.1,2,4.9,2.7
		c0.4,0.1,0.7,0.4,0.8,0.8c0,0.1,0.1,0.3,0.1,0.4c0,0.3-0.1,0.5-0.3,0.8c-0.3,0.4-0.5,0.8-0.7,1.1c-0.2,0.3-0.5,0.4-0.8,0.3
		c0,0-0.1,0-0.1,0v8.2c0,0.5-0.2,0.9-0.5,1.3c-0.3,0.3-0.8,0.5-1.2,0.5h-0.9c-0.2,0-0.4-0.1-0.6-0.3c-0.2-0.2-0.3-0.4-0.3-0.6
		c0-0.1,0-0.1-0.1-0.1h-6.2c-0.1,0-0.1,0-0.1,0.1c0,0.3-0.1,0.5-0.3,0.7c-0.2,0.2-0.4,0.3-0.7,0.3h-0.7c-0.5,0-0.9-0.2-1.2-0.5
		s-0.5-0.7-0.5-1.2v-8c0-0.1-0.1-0.2-0.2-0.1c-0.2,0.1-0.4,0.1-0.7,0.1c-0.2,0-0.4,0-0.5-0.1c-0.4-0.1-0.7-0.4-1-0.8
		c-0.2-0.4-0.5-0.7-0.8-1.1c0,0,0,0-0.1,0c-0.1,0.1-0.1,0.1-0.2,0.1c-0.1,0-0.2,0-0.2-0.2c-0.4-0.7-0.8-1.5-1.4-2.3
		c0,0-0.1-0.1-0.1,0c0,0-0.1,0-0.1,0.1v12.2c0,0.5-0.2,0.9-0.5,1.2c-0.3,0.3-0.7,0.5-1.2,0.5c-0.5,0-0.9-0.2-1.2-0.5
		c-0.3-0.3-0.5-0.7-0.5-1.2v-9.7c0,0,0,0,0,0c0,0,0,0,0,0c-0.6,1.7-1.3,3.2-2,4.5c-0.2,0.3-0.4,0.5-0.8,0.5c0,0-0.1,0-0.1,0
		c-0.4,0-0.7-0.2-0.9-0.6c-0.2-0.5-0.4-1-0.4-1.5c0-0.6,0.2-1.2,0.5-1.7c1.5-2.5,2.6-5.3,3.4-8.5c0-0.1,0-0.2,0-0.2
		c-0.1-0.1-0.1-0.1-0.2-0.1h-1.8c-0.5,0-0.9-0.2-1.2-0.5c-0.3-0.3-0.5-0.7-0.5-1.2c0-0.5,0.2-0.9,0.5-1.2s0.7-0.5,1.2-0.5h2
		c0.2,0,0.3-0.1,0.3-0.3v-4.3c0-0.5,0.2-0.9,0.5-1.2c0.3-0.3,0.7-0.5,1.2-0.5c0.5,0,0.9,0.2,1.2,0.5c0.3,0.3,0.5,0.7,0.5,1.2v4.3
		c0,0.2,0.1,0.3,0.3,0.3h1.7c0.4,0,0.8,0.1,1.1,0.4c0.3,0.3,0.4,0.6,0.4,1c0,0,0,0,0,0.1c0,0,0.1,0,0.1,0c1.8-1.8,3.2-3.8,4.4-6.2
		c0.2-0.5,0.6-0.8,1-1.1c0.3-0.1,0.6-0.2,0.9-0.2c0.2,0,0.4,0,0.5,0.1c0.5,0.1,0.8,0.4,1,0.8c0.1,0.2,0.2,0.5,0.2,0.7
		c0,0.2-0.1,0.4-0.2,0.6c-0.1,0.1-0.1,0.3-0.2,0.4c0,0.1,0,0.1,0,0.2c0,0.1,0.1,0.1,0.1,0.1h4.6
		C222.7,125.1,222.8,125.1,222.8,125.1z M209.3,135.4c0.3,0.4,0.5,0.8,0.5,1.3c0,0.5-0.1,0.9-0.4,1.2c0,0,0,0,0,0.1c0,0,0,0,0.1,0
		c2.4-0.9,4.5-2.1,6.4-3.6c0.1-0.1,0.2-0.3,0-0.4c-0.7-0.8-1.4-1.7-2-2.6c-0.1-0.2-0.2-0.2-0.4,0c-0.1,0.1-0.2,0.2-0.2,0.3
		c-0.5,0.5-1.1,0.8-1.8,0.8c-0.7,0-1.4-0.2-1.9-0.7c0,0,0,0-0.1,0c-0.2-0.1-0.3-0.2-0.5-0.2h-2c-0.2,0-0.3,0.1-0.3,0.3v0.2
		c0,0.2,0.1,0.4,0.2,0.5C207.5,133.3,208.3,134.2,209.3,135.4z M215.2,146.1c0,0.2,0.1,0.3,0.3,0.3h5.8c0.2,0,0.3-0.1,0.3-0.3v-3.6
		c0-0.2-0.1-0.3-0.3-0.3h-5.8c-0.2,0-0.3,0.1-0.3,0.3V146.1z M215.2,139C215.2,139,215.2,139.1,215.2,139c0,0.1,0,0.2,0,0.2h6.6
		c0,0,0.1,0,0.1-0.1c0,0,0-0.1,0-0.1c-1.1-0.6-2.2-1.3-3.2-2.2c-0.2-0.1-0.3-0.1-0.5,0C217.4,137.6,216.3,138.4,215.2,139z
		 M220.9,128.5c0-0.1,0-0.1,0-0.2c0,0-0.1-0.1-0.2-0.1h-4.5c-0.1,0-0.2,0.1-0.3,0.2c-0.1,0.1-0.1,0.2,0,0.3c0.7,1.1,1.5,2.1,2.3,3.1
		c0.1,0.2,0.3,0.2,0.4,0C219.5,130.7,220.3,129.6,220.9,128.5z"/>
</g>
</svg>
