<?xml version="1.0" encoding="utf-8"?>
<!-- Generator: Adobe Illustrator 21.1.0, SVG Export Plug-In . SVG Version: 6.00 Build 0)  -->
<svg version="1.1" id="圖層_1" xmlns="http://www.w3.org/2000/svg" xmlns:xlink="http://www.w3.org/1999/xlink" x="0px" y="0px"
	 viewBox="0 0 330 376" style="enable-background:new 0 0 330 376;" xml:space="preserve">
<style type="text/css">
	.st0{fill:#E5E5E5;}
	.st1{opacity:0.5;enable-background:new    ;}
	.st2{clip-path:url(#SVGID_2_);}
	.st3{fill:#C1C1C1;}
	.st4{fill:#FFFFFF;stroke:#FFFFFF;stroke-width:3;stroke-linecap:round;stroke-linejoin:round;stroke-miterlimit:10;}
	.st5{fill:#FFFFFF;}
</style>
<g>
	<g>
		<path class="st0" d="M303.6,359.1H26.3c-4.7,0-8.6-3.9-8.6-8.6V92.3c0-2.1,0.8-4,2.1-5.6L77,19.9c1.6-1.9,4-3,6.5-3h162.8
			c2.5,0,4.9,1.1,6.5,3L310,86.7c1.4,1.5,2.1,3.5,2.1,5.6v258.3C312.1,355.3,308.3,359.1,303.6,359.1z"/>
	</g>
	<g class="st1">
		<g>
			<g>
				<g>
					<g>
						<defs>
							<path id="SVGID_1_" d="M303.6,359.1H26.3c-4.7,0-8.6-3.9-8.6-8.6V92.3c0-2.1,0.8-4,2.1-5.6L77,19.9c1.6-1.9,4-3,6.5-3h162.8
								c2.5,0,4.9,1.1,6.5,3L310,86.7c1.4,1.5,2.1,3.5,2.1,5.6v258.3C312.1,355.3,308.3,359.1,303.6,359.1z"/>
						</defs>
						<clipPath id="SVGID_2_">
							<use xlink:href="#SVGID_1_"  style="overflow:visible;"/>
						</clipPath>
						<g class="st2">
							<path class="st3" d="M297.7,270.9c-3.9-5.5-11.3-7-17.1-3.8c0-1.3-0.3-2.7-0.7-3.9c-2.2-6.9-9.7-10.7-16.6-8.5
								c-6.4,2.1-10.1,8.6-8.9,15.1c-1.3-0.4-2.6-0.6-3.9-0.6c-7.3,0-13.2,5.9-13.2,13.2c0,6.8,5,12.3,11.6,13.1
								c-0.8,1-1.4,2.2-1.8,3.6c-2.2,6.9,1.5,14.4,8.5,16.6c6.4,2.1,13.3-1,16-7c0.8,1,1.7,2,2.8,2.8c5.9,4.3,14.1,3,18.4-2.9
								c3.9-5.5,3.2-12.9-1.7-17.4c1.2-0.4,2.5-1,3.6-1.8C300.7,285.1,301.9,276.8,297.7,270.9z M283.7,290.3
								c-0.3,1.4-1.7,2.2-3.2,1.9c-1.2-0.3-2-1.3-2-2.5l-7.9-1.9l2.3,7.8c1.1,0,2.2,0.7,2.6,1.9c0.4,1.4-0.3,2.8-1.8,3.3
								c-1.4,0.4-2.8-0.3-3.3-1.8c-0.3-1.1,0.2-2.3,1.1-2.9l-2.3-7.8l-5.6,5.8c0.6,0.9,0.5,2.3-0.3,3.2c-1,1-2.7,1.1-3.7,0.1
								s-1.1-2.7-0.1-3.7c0.9-0.9,2.1-1,3.1-0.5l5.6-5.8l-7.9-1.9c-0.5,1-1.7,1.5-2.9,1.3c-1.4-0.3-2.2-1.7-1.9-3.2
								c0.3-1.4,1.7-2.2,3.2-1.9c1.2,0.3,2,1.3,2,2.5l7.9,1.9l-2.3-7.8c-1.1,0-2.2-0.7-2.6-1.9c-0.4-1.4,0.3-2.8,1.8-3.3
								c1.4-0.4,2.8,0.3,3.3,1.8c0.3,1.1-0.2,2.3-1.1,2.9l2.3,7.8l5.6-5.8c-0.6-0.9-0.5-2.3,0.3-3.2c1-1,2.7-1.1,3.7-0.1
								s1.1,2.7,0.1,3.7c-0.9,0.9-2.1,1-3.1,0.5l-5.6,5.9l7.9,1.9c0.5-1,1.7-1.5,2.9-1.3C283.2,287.4,284.1,288.8,283.7,290.3z"/>
							<path class="st3" d="M174.2,338.1c-3.9-5.5-11.3-7-17.1-3.8c0-1.3-0.3-2.7-0.7-3.9c-2.2-6.9-9.7-10.7-16.6-8.5
								c-6.4,2.1-10.1,8.6-8.9,15.1c-1.3-0.4-2.6-0.6-3.9-0.6c-7.3,0-13.2,5.9-13.2,13.2c0,6.8,5,12.3,11.6,13.1
								c-0.8,1-1.4,2.2-1.8,3.6c-2.2,6.9,1.5,14.4,8.5,16.6c6.4,2.1,13.3-1,16-7c0.8,1,1.7,2,2.8,2.8c5.9,4.3,14.1,3,18.4-2.9
								c3.9-5.5,3.2-12.9-1.7-17.4c1.2-0.4,2.5-1,3.6-1.8C177.2,352.2,178.5,344,174.2,338.1z M160.3,357.3
								c-0.3,1.4-1.7,2.2-3.2,1.9c-1.2-0.3-2-1.3-2-2.5l-7.9-1.9l2.3,7.8c1.1,0,2.2,0.7,2.6,1.9c0.4,1.4-0.3,2.8-1.8,3.3
								c-1.4,0.4-2.8-0.3-3.3-1.8c-0.3-1.1,0.2-2.3,1.1-2.9l-2.3-7.8l-5.6,5.8c0.6,0.9,0.5,2.3-0.3,3.2c-1,1-2.7,1.1-3.7,0.1
								s-1.1-2.7-0.1-3.7c0.9-0.9,2.1-1,3.1-0.5l5.6-5.8l-7.9-1.9c-0.5,1-1.7,1.5-2.9,1.3c-1.4-0.3-2.2-1.7-1.9-3.2
								c0.3-1.4,1.7-2.2,3.2-1.9c1.2,0.3,2,1.3,2,2.5l7.9,1.9l-2.3-7.8c-1.1,0-2.2-0.7-2.6-1.9c-0.4-1.4,0.3-2.8,1.8-3.3
								c1.4-0.4,2.8,0.3,3.3,1.8c0.3,1.1-0.2,2.3-1.1,2.9l2.3,7.8l5.6-5.8c-0.6-0.9-0.5-2.3,0.3-3.2c1-1,2.7-1.1,3.7-0.1
								s1.1,2.7,0.1,3.7c-0.9,0.9-2.1,1-3.1,0.5l-5.6,5.8l7.9,1.9c0.5-1,1.7-1.5,2.9-1.3C159.7,354.6,160.6,356,160.3,357.3z"/>
							<path class="st3" d="M235.5,9.3c-3.9-5.5-11.3-7-17.1-3.8c0-1.3-0.3-2.7-0.7-3.9c-2.2-6.9-9.7-10.7-16.6-8.5
								c-6.4,2.1-10.1,8.6-8.9,15.1c-1.3-0.4-2.6-0.6-3.9-0.6c-7.3,0-13.2,5.9-13.2,13.2c0,6.8,5,12.3,11.6,13.1
								c-0.8,1-1.4,2.2-1.8,3.6c-2.2,6.9,1.5,14.4,8.5,16.6c6.4,2.1,13.3-1,16-7c0.8,1,1.7,2,2.8,2.8c5.9,4.3,14.1,3,18.4-2.9
								c3.9-5.5,3.2-12.9-1.7-17.4c1.2-0.4,2.5-1,3.6-1.8C238.5,23.5,239.8,15.2,235.5,9.3z M221.6,28.7c-0.3,1.4-1.7,2.2-3.2,1.9
								c-1.2-0.3-2-1.3-2-2.5l-7.9-1.9l2.3,7.8c1.1,0,2.2,0.7,2.6,1.9c0.4,1.4-0.3,2.8-1.8,3.3c-1.4,0.4-2.8-0.3-3.3-1.8
								c-0.3-1.1,0.2-2.3,1.1-2.9l-2.3-7.8l-5.6,5.8c0.6,0.9,0.5,2.3-0.3,3.2c-1,1-2.7,1.1-3.7,0.1s-1.1-2.7-0.1-3.7
								c0.9-0.9,2.1-1,3.1-0.5l5.6-5.8l-7.9-1.9c-0.5,1-1.7,1.5-2.9,1.3c-1.4-0.3-2.2-1.7-1.9-3.2c0.3-1.4,1.7-2.2,3.2-1.9
								c1.2,0.3,2,1.3,2,2.5l7.9,1.9l-2.3-7.8c-1.1,0-2.2-0.7-2.6-1.9c-0.4-1.4,0.3-2.8,1.8-3.3c1.4-0.4,2.8,0.3,3.3,1.8
								c0.3,1.1-0.2,2.3-1.1,2.9l2.3,7.8l5.6-5.8c-0.6-0.9-0.5-2.3,0.3-3.2c1-1,2.7-1.1,3.7-0.1s1.1,2.7,0.1,3.7
								c-0.9,0.9-2.1,1-3.1,0.5l-5.6,5.9l7.9,1.9c0.5-1,1.7-1.5,2.9-1.3C221.1,25.9,221.9,27.2,221.6,28.7z"/>
							<path class="st3" d="M297.7,102.9c-3.9-5.5-11.3-7-17.1-3.8c0-1.3-0.3-2.7-0.7-3.9c-2.2-6.9-9.7-10.7-16.6-8.5
								c-6.4,2.1-10.1,8.6-8.9,15.1c-1.3-0.4-2.6-0.6-3.9-0.6c-7.3,0-13.2,5.9-13.2,13.2c0,6.8,5,12.3,11.6,13.1
								c-0.8,1-1.4,2.2-1.8,3.6c-2.2,6.9,1.5,14.4,8.5,16.6c6.4,2.1,13.3-1,16-7c0.8,1,1.7,2,2.8,2.8c5.9,4.3,14.1,3,18.4-2.9
								c3.9-5.5,3.2-12.9-1.7-17.4c1.3-0.4,2.5-1,3.6-1.8C300.6,117.1,301.9,108.8,297.7,102.9z M283.7,122.2
								c-0.3,1.4-1.7,2.2-3.2,1.9c-1.2-0.3-2-1.3-2-2.5l-7.9-1.9l2.3,7.8c1.1,0,2.2,0.7,2.6,1.9c0.4,1.4-0.3,2.8-1.8,3.3
								c-1.4,0.4-2.8-0.3-3.3-1.8c-0.3-1.1,0.2-2.3,1.1-2.9l-2.3-7.8l-5.6,5.8c0.6,0.9,0.5,2.3-0.3,3.2c-1,1-2.7,1.1-3.7,0.1
								s-1.1-2.7-0.1-3.7c0.9-0.9,2.1-1,3.1-0.5l5.6-5.8l-7.9-1.9c-0.5,1-1.7,1.5-2.9,1.3c-1.4-0.3-2.2-1.7-1.9-3.2
								c0.3-1.4,1.7-2.2,3.2-1.9c1.2,0.3,2,1.3,2,2.5l7.9,1.9l-2.3-7.8c-1.1,0-2.2-0.7-2.6-1.9c-0.4-1.4,0.3-2.8,1.8-3.3
								c1.4-0.4,2.8,0.3,3.3,1.8c0.3,1.1-0.2,2.3-1.1,2.9l2.3,7.8l5.6-5.8c-0.6-0.9-0.5-2.3,0.3-3.2c1-1,2.7-1.1,3.7-0.1
								s1.1,2.7,0.1,3.7c-0.9,0.9-2.1,1-3.1,0.5l-5.6,5.9l7.9,1.9c0.5-1,1.7-1.5,2.9-1.3C283.1,119.4,284.1,120.8,283.7,122.2z"/>
							<path class="st3" d="M246.7,187.2c-3.9-5.5-11.3-7-17.1-3.8c0-1.3-0.3-2.7-0.7-3.9c-2.2-6.9-9.7-10.7-16.6-8.5
								c-6.4,2.1-10.1,8.6-8.9,15.1c-1.3-0.4-2.6-0.6-3.9-0.6c-7.3,0-13.2,5.9-13.2,13.2c0,6.8,5,12.3,11.6,13.1
								c-0.8,1-1.4,2.2-1.8,3.6c-2.2,6.9,1.5,14.4,8.5,16.6c6.4,2.1,13.3-1,16-7c0.8,1,1.7,2,2.8,2.8c5.9,4.3,14.1,3,18.4-2.9
								c3.9-5.5,3.2-12.9-1.7-17.4c1.2-0.4,2.4-1,3.6-1.8C249.7,201.3,251,193,246.7,187.2z M232.7,206.5c-0.3,1.4-1.7,2.2-3.2,1.9
								c-1.2-0.3-2-1.3-2-2.5l-7.9-1.9l2.3,7.8c1.1,0,2.2,0.7,2.6,1.9c0.4,1.4-0.3,2.8-1.8,3.3c-1.4,0.4-2.8-0.3-3.3-1.8
								c-0.3-1.1,0.2-2.3,1.1-2.9l-2.3-7.8l-5.6,5.9c0.6,0.9,0.5,2.3-0.3,3.2c-1,1-2.7,1.1-3.7,0.1s-1.1-2.7-0.1-3.7
								c0.9-0.9,2.1-1,3.1-0.5l5.6-5.8l-7.9-1.9c-0.5,1-1.7,1.5-2.9,1.3c-1.4-0.3-2.2-1.7-1.9-3.2c0.3-1.4,1.7-2.2,3.2-1.9
								c1.2,0.3,2,1.3,2,2.5l7.9,1.9l-2.3-7.8c-1.1,0-2.2-0.7-2.6-1.9c-0.4-1.4,0.3-2.8,1.8-3.3c1.4-0.4,2.8,0.3,3.3,1.8
								c0.3,1.1-0.2,2.3-1.1,2.9l2.3,7.8l5.6-5.8c-0.6-0.9-0.5-2.3,0.3-3.2c1-1,2.7-1.1,3.7-0.1s1.1,2.7,0.1,3.7
								c-0.9,0.9-2.1,1-3.1,0.5l-5.6,5.8l7.9,1.9c0.5-1,1.7-1.5,2.9-1.3C232.2,203.7,233.1,205.1,232.7,206.5z"/>
							<path class="st3" d="M35.2,289.4c1.1,0.8,2.3,1.5,3.6,1.8c-4.8,4.4-5.6,12-1.7,17.4c4.3,5.9,12.6,7.2,18.4,2.9
								c1.1-0.8,2.1-1.8,2.8-2.8c2.7,6,9.6,9.1,16,6.9c6.9-2.2,10.7-9.7,8.5-16.6c-0.4-1.3-1-2.5-1.8-3.6
								c6.5-0.8,11.6-6.3,11.6-13.1c0-7.3-5.9-13.2-13.2-13.2c-1.4,0-2.7,0.3-3.9,0.6c1.3-6.4-2.5-13-8.9-15.1
								c-6.9-2.2-14.4,1.5-16.6,8.5c-0.4,1.3-0.6,2.7-0.7,3.9c-5.7-3.2-13.1-1.7-17.1,3.8C28,276.9,29.3,285.1,35.2,289.4z
								 M48.2,287.2c1.2-0.3,2.3,0.3,2.9,1.3l7.9-1.9l-5.6-5.8c-1,0.5-2.3,0.3-3.1-0.5c-1-1-0.9-2.7,0.1-3.7s2.7-0.9,3.7,0.1
								c0.9,0.9,0.9,2.1,0.3,3.2l5.6,5.8l2.3-7.8c-0.9-0.6-1.5-1.8-1.1-2.9c0.4-1.4,1.9-2.1,3.3-1.8c1.4,0.4,2.1,1.9,1.8,3.3
								c-0.3,1.1-1.4,1.9-2.6,1.9l-2.3,7.8l7.9-1.9c0-1.1,0.9-2.1,2-2.5c1.4-0.3,2.8,0.5,3.2,1.9c0.3,1.4-0.5,2.8-1.9,3.2
								c-1.2,0.3-2.3-0.3-2.9-1.3l-7.9,1.9l5.6,5.8c1-0.5,2.3-0.3,3.1,0.5c1,1,0.9,2.7-0.1,3.7s-2.7,0.9-3.7-0.1
								c-0.9-0.9-0.9-2.1-0.3-3.2l-5.6-5.8l-2.3,7.8c0.9,0.6,1.5,1.8,1.1,2.9c-0.4,1.4-1.9,2.1-3.3,1.8c-1.4-0.4-2.1-1.9-1.8-3.3
								c0.3-1.1,1.4-1.9,2.6-1.9l2.3-7.8l-7.9,1.9c0,1.1-0.9,2.1-2,2.5c-1.4,0.3-2.8-0.5-3.2-1.9C45.9,288.9,46.8,287.5,48.2,287.2z
								"/>
							<path class="st3" d="M35.2,121.4c1.1,0.8,2.3,1.5,3.6,1.8c-4.8,4.4-5.6,12-1.7,17.4c4.3,5.9,12.6,7.2,18.4,2.9
								c1.1-0.8,2.1-1.8,2.8-2.8c2.7,6,9.6,9.1,16,6.9c6.9-2.2,10.7-9.7,8.5-16.6c-0.4-1.3-1-2.5-1.8-3.6
								c6.5-0.8,11.6-6.3,11.6-13.1c0-7.3-5.9-13.2-13.2-13.2c-1.4,0-2.7,0.2-3.9,0.6c1.3-6.4-2.5-13-8.9-15.1
								c-6.9-2.2-14.4,1.5-16.6,8.5c-0.4,1.3-0.6,2.7-0.7,3.9c-5.7-3.2-13.1-1.7-17.1,3.8C28,108.9,29.2,117.2,35.2,121.4z
								 M48.1,119.1c1.2-0.3,2.3,0.3,2.9,1.3l7.9-1.9l-5.6-5.8c-1,0.5-2.3,0.3-3.1-0.5c-1-1-0.9-2.7,0.1-3.7s2.7-0.9,3.7,0.1
								c0.9,0.9,0.9,2.1,0.3,3.2l5.6,5.8l2.3-7.8c-0.9-0.6-1.5-1.8-1.1-2.9c0.4-1.4,1.9-2.1,3.3-1.8c1.4,0.4,2.1,1.9,1.8,3.3
								c-0.3,1.1-1.4,1.9-2.6,1.9l-2.3,7.8l7.9-1.9c0-1.1,0.9-2.1,2-2.5c1.4-0.3,2.8,0.5,3.2,1.9c0.3,1.4-0.5,2.8-1.9,3.2
								c-1.2,0.3-2.3-0.3-2.9-1.3l-7.9,1.9l5.6,5.8c1-0.5,2.3-0.3,3.1,0.5c1,1,0.9,2.7-0.1,3.7s-2.7,0.9-3.7-0.1
								c-0.9-0.9-0.9-2.1-0.3-3.2l-5.6-5.8l-2.3,7.8c0.9,0.6,1.5,1.8,1.1,2.9c-0.4,1.4-1.9,2.1-3.3,1.8c-1.4-0.4-2.1-1.9-1.8-3.3
								c0.3-1.1,1.4-1.9,2.6-1.9l2.3-7.8l-7.9,1.9c0,1.1-0.9,2.1-2,2.5c-1.4,0.3-2.8-0.5-3.2-1.9C45.8,120.8,46.7,119.5,48.1,119.1z
								"/>
							<path class="st3" d="M86.2,205.6c1.1,0.8,2.3,1.5,3.6,1.8c-4.8,4.4-5.6,12-1.7,17.4c4.3,5.9,12.6,7.2,18.4,2.9
								c1.1-0.8,2.1-1.8,2.8-2.8c2.7,6,9.6,9.1,16,6.9c6.9-2.2,10.7-9.7,8.5-16.6c-0.4-1.3-1-2.5-1.8-3.6
								c6.5-0.8,11.6-6.3,11.6-13.1c0-7.3-5.9-13.2-13.2-13.2c-1.4,0-2.7,0.2-3.9,0.6c1.3-6.4-2.5-13-8.9-15.1
								c-6.9-2.2-14.4,1.5-16.6,8.5c-0.4,1.3-0.6,2.7-0.7,3.9c-5.7-3.2-13.1-1.7-17.1,3.8C79,193.1,80.3,201.3,86.2,205.6z
								 M99.2,203.4c1.2-0.3,2.3,0.3,2.9,1.3l7.9-1.9l-5.6-5.8c-1,0.5-2.3,0.3-3.1-0.5c-1-1-0.9-2.7,0.1-3.7s2.7-0.9,3.7,0.1
								c0.9,0.9,0.9,2.1,0.3,3.2l5.6,5.8l2.3-7.8c-0.9-0.6-1.5-1.8-1.1-2.9c0.4-1.4,1.9-2.1,3.3-1.8c1.4,0.4,2.1,1.9,1.8,3.3
								c-0.3,1.1-1.4,1.9-2.6,1.9l-2.3,7.8l7.9-1.9c0-1.1,0.9-2.1,2-2.5c1.4-0.3,2.8,0.5,3.2,1.9c0.3,1.4-0.5,2.8-1.9,3.2
								c-1.2,0.3-2.3-0.3-2.9-1.3l-7.9,1.9l5.6,5.8c1-0.5,2.3-0.3,3.1,0.5c1,1,0.9,2.7-0.1,3.7s-2.7,0.9-3.7-0.1
								c-0.9-0.9-0.9-2.1-0.3-3.2l-5.6-5.8l-2.3,7.8c0.9,0.6,1.5,1.8,1.1,2.9c-0.4,1.4-1.9,2.1-3.3,1.8c-1.4-0.4-2.1-1.9-1.8-3.3
								c0.3-1.1,1.4-1.9,2.6-1.9l2.3-7.8l-7.9,1.9c0,1.1-0.9,2.1-2,2.5c-1.4,0.3-2.8-0.5-3.2-1.9C96.8,205.1,97.7,203.7,99.2,203.4z
								"/>
						</g>
					</g>
				</g>
			</g>
		</g>
	</g>
	<path class="st4" d="M126.7,84.8c-18.7,0-26.5-6.6-27-22.7c-0.3-8.7,3.1-23.5,27.9-24.3c0.2,0,0.3,0,0.5,0c7.1,0,17.2,4.1,23.4,8.1
		l1.9,1.2l1.9-1.2c0.2-0.1,0.3-0.2,0.5-0.2s0.3,0,0.6,0.3l8,7.5c0.3,0.2,0.3,0.5,0.3,0.7v0.7l-0.7,0.2c-0.1,0-0.2,0-0.2,0
		c-0.1,0-0.2,0-0.3-0.1l-0.3-0.1l-6.3-6l-2.1,1c-0.1,0-2.1,0.6-2.1,0.6l-0.4,2c-0.1,0.3-0.2,0.3-0.2,0.4l-8,8.5l-0.6-0.3
		c-0.2-0.1-0.3-0.2-0.3-0.2c-0.3-0.3-0.3-0.9,0-1.2l3.2-3.3l-3.5-2.2c-5.1-3.3-10.3-4.9-15.2-4.9c-0.2,0-0.4,0-0.6,0
		c-13.1,0.3-15.7,6.9-15.5,12.4c0.2,5.6,1.5,11.6,14.6,11.6c0.5,0,0.9,0,1.5,0C133,73.1,138.5,71,144,67l2.4-1.7l0.4,0.2
		c0,0,0.1,0,0.1,0.1l1.1,0.7l-1.9,1.5c-4.2,3.3-10.8,7.3-18.3,7.5c-0.4,0-0.9,0-1.4,0c-8,0-16.3-1.5-16.6-13.3
		c-0.1-1.9,0.2-5.5,2.4-8.5c2.7-3.6,7.7-5.6,14.7-5.7c0.3,0,0.4,0,0.7,0c7.2,0,13.5,3.3,17.5,6l2.4,1.6l5.7-6.1l-3.6-2.2
		c-4.4-2.7-14-7.4-21.6-7.4c-0.2,0-0.3,0-0.5,0c-12.2,0.3-26.7,4.5-26.2,22.5c0.3,10.9,3.6,21,25.2,21c0.7,0,1.5,0,2.2,0
		c7.9-0.3,17.9-4.4,23.3-9.7l4-3.9c0.1,0,0.1,0,0.1,0s0.1,0,0.2,0.2l5.4-4.1c-0.1-0.2-0.2-0.3-0.1-0.5l0.1-0.7l0.6-0.1
		c0.1,0,0.1,0,0.2,0c0.1,0,0.3,0,0.3,0.1l0.2,0.1l9.1,8.6l-1.2,0.5c0,0-0.1,0-0.3,0.1l-0.4,0.1l-8.2-7.7c-0.1-0.1-0.1-0.1-0.2-0.2
		l-5.5,4.1c0.1,0.1,0.1,0.2,0.1,0.3l0.3,1l8.6,8.1l0.6-0.3l-1.2,1.1c-0.2,0.2-0.3,0.3-0.5,0.3l0,0c0,0-0.1,0-0.2,0l-2.2-0.4l0.5-1
		l-5.8-5.5l-2.1,3.9c-0.3,0.6-0.6,1.2-0.9,1.8l0.8-4l-6.6,4c-5.7,3.5-13,5.7-18.8,5.9C128.2,84.7,127.5,84.8,126.7,84.8z
		 M201.7,82.7c-5.6,0-12.3-1.7-18-4.6l-7-3.6l1.2,4c-0.8-1.5-1.6-2.7-2.1-3.4l-0.9-6.6l2,2.2c5.6,6.3,17.1,10.2,25,10.2
		c0.3,0,0.4,0,0.7,0c23.6-0.7,26.5-11.2,26.2-22.5c-0.5-17.3-14.2-21-25.7-21c-0.6,0-1.2,0-1.8,0c-7.6,0.3-18.2,5.8-23.3,9.8
		l-0.9,0.7l-2.9,0.3l1.3-1.1c5-4.4,17.1-11.1,25.8-11.3c0.6,0,1.2,0,1.7,0c23.4,0,27.3,14.2,27.6,22.7c0.3,8.3-1.7,14.2-6,18
		c-4.4,3.9-11.6,6-21.9,6.3C202.1,82.7,201.8,82.7,201.7,82.7z M202.3,72.9c-7.7,0-14.5-3.9-19-7.1c-0.1-0.1-0.2-0.2-0.3-0.3
		l-1.8-2.8l3.1,1.7c4.3,3.1,10.8,6.7,17.9,6.7c0.2,0,0.4,0,0.6,0c6.6-0.2,10.8-1.5,13.2-4.1c2.4-2.7,2.3-5.9,2.2-8.3
		c-0.2-5.2-2.9-11.6-15.1-11.6c-0.3,0-0.7,0-1.1,0c-5.7,0.2-11.8,2.7-17.5,7.2l-1.8,1.5l0.7,2.2c0,0.1,0.2,0.5-0.2,0.9l-2.7,2.8l0,0
		l-6.2,6.5l-0.1-1.7c0-0.2,0-0.5,0.2-0.8l8.5-8.9l-0.7-2c0,0,0-0.1,0-0.2l-0.1-0.5l0.4-0.3c4.4-3.8,11.4-8.2,19.6-8.5
		c0.4,0,0.8,0,1.1,0c13.6,0,16.7,7.2,16.9,13.3c0.2,4.7-1,8.1-3.7,10.4c-2.7,2.4-7.3,3.7-13.5,3.9C202.8,72.9,202.5,72.9,202.3,72.9
		z M150.4,67.5c-0.1,0-0.3-0.1-0.3-0.2l-0.9-0.6l8.3-8.7c0.2-0.2,0.3-0.3,0.5-0.3l0.9-0.1l0.1,0.9c0,0.1,0,0.3-0.1,0.5l-0.1,0.1
		l-8,8.4L150.4,67.5z M167.9,60.9l-0.2-0.6c-0.1-0.2,0-0.3,0.1-0.5l0.1-0.2l8.5-9l0.6,1c0.1,0.2,0.1,0.3,0.1,0.3l0.1,0.4l-7.9,8.3
		c-0.2,0.2-0.4,0.3-0.5,0.3H167.9z M170,48.5c-0.2,0-0.3-0.1-0.5-0.3l-8-7.5c-0.3-0.2-0.3-0.4-0.3-0.6s0-0.4,0.3-0.6
		c0.3-0.3,0.5-0.3,0.6-0.3c0.2,0,0.4,0,0.6,0.3l7.7,7.3l0.2,0.3l2.1,1.4l-2.4,0.2C170.1,48.4,170,48.4,170,48.5z"/>
</g>
<g>
	<path class="st5" d="M131.2,130.2c0,0.4-0.1,0.8-0.4,1.1c-0.3,0.3-0.6,0.4-1,0.4c-0.1,0-0.2,0.1-0.2,0.2c-0.6,4.5-1.7,8.1-3.2,10.9
		c-0.1,0.2-0.1,0.3,0,0.5c1,1.5,2.2,2.6,3.6,3.6c0.4,0.3,0.6,0.7,0.7,1.1c0,0.1,0,0.2,0,0.3c0,0.4-0.1,0.7-0.4,1
		c-0.4,0.5-0.8,0.7-1.3,0.9c-0.2,0-0.3,0.1-0.4,0.1c-0.4,0-0.7-0.1-1-0.3c-1.3-0.9-2.4-2-3.4-3.3c-0.1-0.1-0.3-0.1-0.4,0
		c-1.1,1.3-2.4,2.4-3.8,3.3c-0.4,0.2-0.8,0.4-1.2,0.4c-0.2,0-0.4,0-0.7-0.1c-0.6-0.2-1.2-0.6-1.6-1.2c0,0-0.1-0.1-0.1-0.1
		s-0.1,0-0.1,0.1c-0.1,0.2-0.1,0.3-0.2,0.4c-0.5,0.7-1.2,1.2-2.2,1.4c-0.4,0.1-1,0.1-1.8,0.1h0c-0.5,0-0.9-0.1-1.2-0.4
		c-0.4-0.3-0.6-0.7-0.7-1.2c0-0.1-0.1-0.2-0.1-0.3c0-0.2,0.1-0.5,0.2-0.7c0.2-0.3,0.5-0.4,0.9-0.4h0c0.3,0,0.6,0,1,0
		c0.4,0,0.7-0.2,1-0.5c0.3-0.4,0.5-1.5,0.7-3.3c0.2-1.9,0.3-4.9,0.5-9.1c0-0.1,0-0.1-0.1-0.2c0-0.1-0.1-0.1-0.2-0.1h-5.7
		c-0.2,0-0.3,0.1-0.4,0.3c-0.1,0.3-0.3,0.7-0.5,1.1c0,0.1,0,0.1,0,0.2c0,0.1,0.1,0.1,0.1,0.1h2.5c0.7,0,1.3,0.3,1.8,0.8
		s0.8,1.1,0.8,1.8v3.8c0,0.7-0.2,1.3-0.8,1.8s-1.1,0.8-1.8,0.8H108c-0.1,0-0.2,0.1-0.2,0.2v0.1c0,0.4-0.1,0.7-0.4,1
		c-0.3,0.3-0.6,0.4-0.9,0.4s-0.7-0.1-1-0.4c-0.3-0.3-0.4-0.6-0.4-1v-6.5c0-0.2-0.1-0.4-0.2-0.5c0,0-0.1-0.1-0.1-0.1
		c-0.5-0.4-0.8-1-0.9-1.7c0-0.1,0-0.3,0-0.4c0-0.5,0.1-1,0.4-1.5c0.7-1.2,1.2-2.6,1.7-4.2c0.1-0.2,0.2-0.4,0.4-0.5
		c0.2-0.1,0.4-0.1,0.6-0.1c0.1,0,0.1,0,0.1-0.1v-0.9c0-0.2-0.1-0.3-0.3-0.3H105c-0.4,0-0.8-0.1-1.1-0.4c-0.3-0.3-0.4-0.6-0.4-1.1
		s0.1-0.8,0.4-1.1c0.3-0.3,0.6-0.4,1.1-0.4h1.7c0.2,0,0.3-0.1,0.3-0.3v-0.9c0-0.4,0.2-0.8,0.5-1.1c0.3-0.3,0.7-0.5,1.1-0.5
		c0.4,0,0.8,0.2,1.1,0.5c0.3,0.3,0.5,0.7,0.5,1.1v0.9c0,0.2,0.1,0.3,0.3,0.3h1.9c0.2,0,0.3-0.1,0.3-0.3v-0.8c0-0.5,0.2-0.8,0.5-1.1
		c0.3-0.3,0.7-0.5,1.1-0.5c0.4,0,0.8,0.2,1.1,0.5c0.3,0.3,0.5,0.7,0.5,1.1v0.8c0,0.2,0.1,0.3,0.3,0.3h1.2c0.4,0,0.8,0.1,1.1,0.4
		c0.3,0.3,0.4,0.6,0.4,1.1s-0.1,0.8-0.4,1.1c-0.3,0.3-0.6,0.4-1.1,0.4H116c-0.1,0-0.2,0.1-0.2,0.2v0.3c0,0.4-0.2,0.8-0.5,1.1
		c-0.3,0.3-0.7,0.5-1.1,0.5c-0.4,0-0.8-0.2-1.1-0.5c-0.3-0.3-0.5-0.7-0.5-1.1v-0.3c0-0.2-0.1-0.2-0.2-0.2h-2.1
		c-0.1,0-0.2,0.1-0.2,0.2c0,0.4-0.1,0.7-0.4,1c-0.3,0.3-0.6,0.4-1,0.4h-0.2l0,0c0.3,0.1,0.5,0.2,0.7,0.5s0.2,0.5,0.1,0.8
		c0,0.1,0,0.1,0.1,0.1h7.2c0.3,0,0.6,0.1,0.8,0.3c0.2,0.2,0.3,0.5,0.3,0.8c0,0,0,0,0,0c0,0,0,0,0.1,0c1.1-2.1,2-4.8,2.6-8.1
		c0.1-0.5,0.3-0.9,0.7-1.2c0.3-0.3,0.7-0.4,1.1-0.4c0.1,0,0.2,0,0.3,0c0.5,0.1,0.9,0.3,1.2,0.7c0.2,0.3,0.4,0.6,0.4,1
		c0,0.1,0,0.2,0,0.4c-0.2,1-0.4,2-0.6,2.9c0,0.1,0,0.1,0,0.2c0,0.1,0.1,0.1,0.2,0.1h5.9c0.5,0,0.8,0.2,1.2,0.5
		c0.3,0.3,0.5,0.7,0.5,1.2V130.2z M109.9,139.2c0-0.2-0.1-0.3-0.3-0.3h-1.6c-0.2,0-0.3,0.1-0.3,0.3v2.9c0,0.2,0.1,0.3,0.3,0.3h1.6
		c0.2,0,0.3-0.1,0.3-0.3V139.2z M116.9,147.1c0,0.1,0,0.1,0.1,0.1c0,0,0.1,0,0.1,0c1.9-1.1,3.5-2.4,4.8-4.1c0.1-0.2,0.1-0.3,0-0.5
		c-0.8-1.8-1.5-3.8-2.1-5.9c0,0,0-0.1,0-0.1c0,0-0.1,0-0.1,0c-0.2,0.3-0.5,0.4-0.9,0.4h0c-0.4,0-0.6-0.1-0.9-0.4
		c-0.1,0-0.1-0.1-0.1-0.1c0,0-0.1,0-0.1,0c0,0,0,0,0,0.1C117.4,141.8,117.2,145.2,116.9,147.1z M125.8,132c0-0.1,0-0.1,0-0.2
		s-0.1-0.1-0.2-0.1h-3c-0.2,0-0.3,0.1-0.4,0.2c-0.1,0.2-0.1,0.3,0,0.5c0.5,2.5,1.1,4.6,1.8,6.4c0,0.1,0.1,0.1,0.1,0.1s0.1,0,0.1-0.1
		C124.9,136.9,125.4,134.6,125.8,132z"/>
	<path class="st5" d="M144.9,127.8c0.4,0,0.7,0.1,1,0.4c0.3,0.3,0.4,0.6,0.4,1c0,0.4-0.1,0.7-0.4,1c-0.3,0.3-0.6,0.4-1,0.4h-8.6
		c-0.4,0-0.7-0.1-1-0.4c-0.3-0.3-0.4-0.6-0.4-1c0-0.4,0.1-0.7,0.4-1s0.6-0.4,1-0.4H144.9z M142.8,140.3c0.7,0,1.3,0.3,1.8,0.8
		s0.8,1.1,0.8,1.8v4c0,0.7-0.2,1.3-0.8,1.8s-1.1,0.8-1.8,0.8h-3.5c-0.1,0-0.1,0-0.1,0.1c0,0.3-0.1,0.5-0.3,0.8
		c-0.2,0.2-0.5,0.3-0.8,0.3h-0.4c-0.4,0-0.8-0.1-1.1-0.4c-0.3-0.3-0.4-0.6-0.4-1.1v-6.2c0-0.7,0.2-1.3,0.8-1.8s1.1-0.8,1.8-0.8
		H142.8z M144,132c0.4,0,0.7,0.1,1,0.4c0.3,0.3,0.4,0.6,0.4,1c0,0.4-0.1,0.7-0.4,1c-0.3,0.3-0.6,0.4-1,0.4h-6.3
		c-0.4,0-0.7-0.1-1-0.4c-0.3-0.3-0.4-0.6-0.4-1c0-0.4,0.1-0.7,0.4-1c0.3-0.3,0.6-0.4,1-0.4H144z M137.6,138.8
		c-0.4,0-0.7-0.1-0.9-0.4c-0.3-0.3-0.4-0.6-0.4-0.9c0-0.4,0.1-0.7,0.4-1c0.3-0.3,0.6-0.4,0.9-0.4h6.4c0.4,0,0.7,0.1,0.9,0.4
		c0.3,0.3,0.4,0.6,0.4,1c0,0.4-0.1,0.7-0.4,0.9c-0.3,0.3-0.6,0.4-0.9,0.4H137.6z M143.9,123.7c0.4,0,0.7,0.1,1,0.4
		c0.3,0.3,0.4,0.6,0.4,1c0,0.4-0.1,0.7-0.4,1c-0.3,0.3-0.6,0.4-1,0.4h-6.2c-0.4,0-0.7-0.1-1-0.4c-0.3-0.3-0.4-0.6-0.4-1
		c0-0.4,0.1-0.7,0.4-1c0.3-0.3,0.6-0.4,1-0.4H143.9z M142.3,143.4c0-0.2-0.1-0.3-0.3-0.3h-2.5c-0.2,0-0.3,0.1-0.3,0.3v2.9
		c0,0.2,0.1,0.3,0.3,0.3h2.5c0.2,0,0.3-0.1,0.3-0.3V143.4z M156.3,131.4c0,0.2,0.1,0.3,0.3,0.3h5c0.4,0,0.7,0.1,0.9,0.4
		s0.4,0.5,0.4,0.9s-0.1,0.7-0.4,0.9c-0.2,0.3-0.5,0.4-0.9,0.4h-14c-0.4,0-0.7-0.1-0.9-0.4c-0.2-0.3-0.4-0.6-0.4-0.9s0.1-0.7,0.4-0.9
		s0.5-0.4,0.9-0.4h5c0.2,0,0.3-0.1,0.3-0.3v-0.6c0-0.2-0.1-0.3-0.3-0.3H149c-0.3,0-0.6-0.1-0.9-0.4c-0.2-0.2-0.4-0.5-0.4-0.9
		c0-0.3,0.1-0.6,0.4-0.9c0.2-0.2,0.5-0.4,0.9-0.4h3.6c0.2,0,0.3-0.1,0.3-0.3v-0.5c0-0.2-0.1-0.3-0.3-0.3h-4.2
		c-0.4,0-0.7-0.1-0.9-0.4c-0.3-0.2-0.4-0.5-0.4-0.9c0-0.4,0.1-0.7,0.4-0.9c0.3-0.2,0.6-0.4,0.9-0.4h4.4c0.1,0,0.2-0.1,0.2-0.2
		c0-0.4,0.1-0.7,0.4-1c0.3-0.3,0.6-0.4,1-0.4h0.5c0.4,0,0.8,0.1,1,0.4c0.3,0.3,0.4,0.6,0.4,1c0,0.1,0.1,0.2,0.2,0.2h4.6
		c0.4,0,0.7,0.1,0.9,0.4c0.3,0.2,0.4,0.6,0.4,0.9c0,0.4-0.1,0.7-0.4,0.9c-0.3,0.2-0.6,0.4-0.9,0.4h-4.5c-0.2,0-0.3,0.1-0.3,0.3v0.5
		c0,0.2,0.1,0.3,0.3,0.3h4.1c0.3,0,0.6,0.1,0.9,0.4c0.2,0.2,0.4,0.5,0.4,0.9c0,0.3-0.1,0.6-0.4,0.9c-0.2,0.2-0.5,0.4-0.9,0.4h-4.1
		c-0.2,0-0.3,0.1-0.3,0.3V131.4z M158.7,135.4c0.7,0,1.3,0.3,1.8,0.8s0.8,1.1,0.8,1.8v9.6c0,0.8-0.1,1.4-0.3,1.8s-0.5,0.7-1,1
		c-0.6,0.3-1.6,0.4-2.8,0.5c0,0,0,0-0.1,0c-0.4,0-0.8-0.1-1.1-0.4c-0.4-0.3-0.6-0.6-0.7-1.1c0-0.1-0.1-0.2-0.1-0.4
		c0-0.2,0.1-0.4,0.2-0.6c0.2-0.3,0.5-0.4,0.8-0.4l0.1,0c0.5,0,0.9,0,1.1,0c0.2,0,0.3,0,0.4-0.1s0.1-0.2,0.1-0.4v-1.9
		c0-0.2-0.1-0.3-0.3-0.3H152c-0.2,0-0.3,0.1-0.3,0.3v3.6c0,0.5-0.2,0.8-0.5,1.2s-0.7,0.5-1.2,0.5c-0.5,0-0.8-0.2-1.1-0.5
		s-0.5-0.7-0.5-1.2V138c0-0.7,0.3-1.3,0.8-1.8s1.1-0.8,1.8-0.8H158.7z M157.9,138.2c0-0.2-0.1-0.3-0.3-0.3H152
		c-0.2,0-0.3,0.1-0.3,0.3v0.8c0,0.2,0.1,0.3,0.3,0.3h5.7c0.2,0,0.3-0.1,0.3-0.3V138.2z M151.7,142.7c0,0.2,0.1,0.3,0.3,0.3h5.7
		c0.2,0,0.3-0.1,0.3-0.3v-0.8c0-0.2-0.1-0.3-0.3-0.3H152c-0.2,0-0.3,0.1-0.3,0.3V142.7z"/>
	<path class="st5" d="M179.8,140.7c0.4,0,0.8,0.2,1.1,0.5c0.3,0.3,0.5,0.7,0.5,1.1s-0.2,0.8-0.5,1.1s-0.7,0.5-1.1,0.5h-11.7
		c-0.4,0-0.8-0.2-1.1-0.5c-0.3-0.3-0.5-0.7-0.5-1.1s0.2-0.8,0.5-1.1c0.3-0.3,0.7-0.5,1.1-0.5h0.9c0.2,0,0.3-0.1,0.3-0.3v-10.7
		c0-0.2-0.1-0.2-0.2-0.2h-0.6c-0.4,0-0.8-0.2-1.1-0.5c-0.3-0.3-0.5-0.7-0.5-1.1c0-0.4,0.2-0.8,0.5-1.1c0.3-0.3,0.7-0.5,1.1-0.5h0.6
		c0.2,0,0.2-0.1,0.2-0.3v-1.3c0-0.5,0.2-0.8,0.5-1.1c0.3-0.3,0.7-0.5,1.1-0.5c0.4,0,0.8,0.2,1.1,0.5c0.3,0.3,0.5,0.7,0.5,1.1v1.3
		c0,0.2,0.1,0.3,0.3,0.3h3.1c0.2,0,0.3-0.1,0.3-0.3v-1.3c0-0.5,0.2-0.8,0.5-1.2c0.3-0.3,0.7-0.5,1.2-0.5s0.8,0.2,1.2,0.5
		c0.3,0.3,0.5,0.7,0.5,1.2v1.3c0,0.2,0.1,0.2,0.2,0.2h0.3c0.5,0,0.8,0.2,1.1,0.5c0.3,0.3,0.5,0.7,0.5,1.1c0,0.4-0.2,0.8-0.5,1.1
		c-0.3,0.3-0.7,0.5-1.1,0.5h-0.3c-0.1,0-0.2,0.1-0.2,0.2v10.8C179.5,140.6,179.6,140.7,179.8,140.7L179.8,140.7z M169.4,145.5
		c0.3-0.4,0.6-0.7,1.1-0.9c0.3-0.1,0.5-0.2,0.8-0.2c0.2,0,0.4,0,0.6,0.1c0.4,0.1,0.7,0.4,0.9,0.8c0.1,0.2,0.1,0.4,0.1,0.5
		c0,0.2-0.1,0.5-0.2,0.7c-0.7,1.2-1.5,2.2-2.4,3.2c-0.3,0.4-0.8,0.6-1.3,0.6c0,0,0,0-0.1,0c-0.5,0-0.9-0.1-1.3-0.4
		c-0.4-0.3-0.6-0.7-0.6-1.2c0-0.4,0.1-0.7,0.4-1C168.3,147.1,168.9,146.3,169.4,145.5z M176.2,129.8c0-0.2-0.1-0.3-0.3-0.3h-3.1
		c-0.2,0-0.3,0.1-0.3,0.3v1.1c0,0.2,0.1,0.3,0.3,0.3h3.1c0.2,0,0.3-0.1,0.3-0.3V129.8z M172.8,134c-0.2,0-0.3,0.1-0.3,0.3v1.3
		c0,0.2,0.1,0.3,0.3,0.3h3.1c0.2,0,0.3-0.1,0.3-0.3v-1.3c0-0.2-0.1-0.3-0.3-0.3H172.8z M172.8,138.6c-0.2,0-0.3,0.1-0.3,0.3v1.5
		c0,0.2,0.1,0.3,0.3,0.3h3.1c0.2,0,0.3-0.1,0.3-0.3v-1.5c0-0.2-0.1-0.3-0.3-0.3H172.8z M191.2,124.1c0.7,0,1.3,0.3,1.8,0.8
		s0.8,1.1,0.8,1.8V147c0,0.9-0.1,1.6-0.3,2.1c-0.2,0.5-0.6,0.9-1.1,1.2c-0.6,0.4-1.7,0.6-3,0.6c0,0,0,0-0.1,0
		c-0.5,0-0.9-0.2-1.3-0.5c-0.4-0.3-0.7-0.8-0.8-1.3c0-0.1-0.1-0.3-0.1-0.4c0-0.3,0.1-0.5,0.2-0.7c0.2-0.3,0.6-0.5,1-0.5l0.6,0
		c0.2,0,0.3,0,0.5,0c0.2,0,0.3,0,0.3,0c0.2,0,0.4,0,0.5-0.1c0.1-0.1,0.1-0.3,0.1-0.5v-5.7c0-0.2-0.1-0.3-0.3-0.3h-4
		c-0.2,0-0.3,0.1-0.3,0.3c-0.3,3.3-1,6.1-1.9,8.2c-0.2,0.4-0.5,0.7-0.9,0.7c-0.1,0-0.2,0-0.3,0c-0.3,0-0.6-0.1-0.9-0.3
		c-0.4-0.3-0.7-0.5-1-0.7c-0.1-0.1-0.2-0.2-0.3-0.3c0-0.1,0-0.3,0-0.4l0,0l-0.2,0.1c-0.4,0.2-0.8,0.4-1.3,0.4c-0.2,0-0.5,0-0.7-0.1
		c-0.7-0.2-1.2-0.6-1.7-1.1c-0.3-0.4-0.6-0.8-0.9-1.2c-0.2-0.2-0.3-0.5-0.3-0.8c0-0.1,0-0.2,0-0.3c0.1-0.4,0.3-0.7,0.6-0.9
		c0.3-0.2,0.6-0.3,0.9-0.3c0.1,0,0.2,0,0.4,0c0.5,0.1,0.8,0.3,1.1,0.6c0.9,1.1,1.6,2,2.1,2.7c0,0.1,0.1,0.1,0.1,0.1
		c0.1,0,0.1,0,0.1-0.1c0.7-1.7,1.2-3.5,1.4-5.6c0.2-2.1,0.4-4.4,0.4-6.9v-8.5c0-0.7,0.3-1.3,0.8-1.8s1.1-0.8,1.8-0.8H191.2z
		 M185.9,137.5c0,0.1,0,0.1,0.1,0.2c0.1,0.1,0.1,0.1,0.2,0.1h3.8c0.2,0,0.3-0.1,0.3-0.3v-3.1c0-0.2-0.1-0.3-0.3-0.3h-3.8
		c-0.2,0-0.3,0.1-0.3,0.3v0.8C185.9,136.2,185.9,136.9,185.9,137.5z M190.3,127.7c0-0.2-0.1-0.3-0.3-0.3h-3.8
		c-0.2,0-0.3,0.1-0.3,0.3v2.9c0,0.2,0.1,0.3,0.3,0.3h3.8c0.2,0,0.3-0.1,0.3-0.3V127.7z"/>
	<path class="st5" d="M226,132.6c0.3,0.3,0.5,0.5,0.5,0.5s0,0.2,0,0.7c0,0.5-0.2,0.8-0.5,1.2s-0.7,0.5-1.1,0.5H223
		c-0.2,0-0.3,0.1-0.3,0.3v1.8c0,0.2,0.1,0.3,0.3,0.3h1.7c0.5,0,0.8,0.2,1.1,0.5c0.3,0.3,0.5,0.7,0.5,1.1c0,0.5-0.2,0.8-0.5,1.1
		c-0.3,0.3-0.7,0.5-1.1,0.5H223c-0.2,0-0.3,0.1-0.3,0.3v5.9c0,0.9-0.1,1.6-0.3,2.1c-0.2,0.5-0.6,0.9-1.2,1.1
		c-0.7,0.3-1.8,0.5-3.3,0.5c0,0-0.1,0-0.1,0c-0.5,0-0.9-0.1-1.3-0.4c-0.4-0.3-0.7-0.7-0.9-1.2c-0.1-0.2-0.1-0.3-0.1-0.4
		c0-0.2,0.1-0.5,0.2-0.7c0.2-0.3,0.5-0.5,0.9-0.5h0c0.3,0,0.6,0,0.8,0c0.5,0,0.8,0,1,0c0.2,0,0.4,0,0.5-0.1s0.1-0.2,0.1-0.4v-5.8
		c0-0.2-0.1-0.3-0.3-0.3H209c-0.4,0-0.8-0.2-1.1-0.5c-0.3-0.3-0.5-0.7-0.5-1.1c0-0.5,0.2-0.8,0.5-1.1c0.3-0.3,0.7-0.5,1.1-0.5h9.8
		c0.2,0,0.3-0.1,0.3-0.3v-1.8c0-0.2-0.1-0.3-0.3-0.3h-9.1c-0.7,0-1.3-0.3-1.8-0.8s-0.7-1.1-0.7-1.8c0,0,0,0-0.1-0.1s-0.1,0-0.1,0
		c-0.4,0.6-0.8,1.1-1.1,1.5c-0.1,0.2-0.2,0.3-0.2,0.5v14.5c0,0.5-0.2,0.9-0.5,1.2c-0.3,0.3-0.7,0.5-1.2,0.5s-0.9-0.2-1.2-0.5
		c-0.3-0.3-0.5-0.7-0.5-1.2v-10.5c0-0.1,0-0.1-0.1-0.1c0,0-0.1,0-0.1,0c-0.3,0.3-0.7,0.6-1,0.9c-0.3,0.2-0.6,0.4-0.9,0.4
		c-0.1,0-0.2,0-0.4,0c-0.5-0.1-0.8-0.4-1-0.9c-0.2-0.4-0.2-0.7-0.2-1.1c0-0.2,0-0.4,0.1-0.6c0.1-0.6,0.4-1,0.9-1.4
		c1.9-1.6,3.4-3.3,4.7-5.1c0.3-0.4,0.6-0.7,1.1-0.8c0.2-0.1,0.4-0.1,0.6-0.1c0.3,0,0.5,0,0.8,0.1l0.3,0.1c0.3,0.2,0.6,0.4,0.7,0.8
		c0,0.1,0.1,0.2,0.1,0.4c0,0.2-0.1,0.4-0.2,0.6c0,0,0,0.1,0,0.1c0,0,0,0,0.1,0h7.1c0.2,0,0.3-0.1,0.3-0.3v-2c0-0.2-0.1-0.3-0.3-0.3
		h-4.2c-0.5,0-0.8-0.2-1.2-0.5c-0.3-0.3-0.5-0.7-0.5-1.1c0-0.5,0.2-0.8,0.5-1.2s0.7-0.5,1.2-0.5h4.2c0.2,0,0.3-0.1,0.3-0.3v-1.2
		c0-0.5,0.2-0.9,0.5-1.3c0.4-0.3,0.8-0.5,1.3-0.5s0.9,0.2,1.3,0.5c0.3,0.3,0.5,0.8,0.5,1.3v1.2c0,0.2,0.1,0.3,0.3,0.3h4.6
		c0.5,0,0.8,0.2,1.1,0.5s0.5,0.7,0.5,1.2c0,0.5-0.2,0.8-0.5,1.1c-0.3,0.3-0.7,0.5-1.1,0.5h-4.6c-0.2,0-0.3,0.1-0.3,0.3v2
		c0,0.2,0.1,0.3,0.3,0.3h6C225.3,132.1,225.7,132.3,226,132.6z M203.3,124.3c0.4-0.4,0.8-0.7,1.3-0.9c0.2-0.1,0.4-0.1,0.7-0.1
		c0.3,0,0.6,0,0.9,0.1c0.4,0.2,0.7,0.5,0.8,0.9c0,0.1,0.1,0.3,0.1,0.4c0,0.3-0.1,0.6-0.3,0.8c-1.6,1.9-3.3,3.6-5.3,5.1
		c-0.3,0.2-0.5,0.3-0.9,0.3c-0.1,0-0.2,0-0.4,0c-0.5-0.1-0.8-0.4-1-0.8c-0.2-0.3-0.3-0.6-0.3-0.9c0-0.1,0-0.2,0.1-0.4
		c0.1-0.5,0.3-0.9,0.7-1.1C201,126.7,202.2,125.6,203.3,124.3z M210.1,144c-0.2-0.3-0.3-0.5-0.3-0.8c0-0.1,0-0.2,0-0.3
		c0.1-0.4,0.3-0.7,0.7-0.9c0.3-0.2,0.6-0.2,0.9-0.2c0.1,0,0.3,0,0.4,0.1c0.5,0.1,0.9,0.3,1.2,0.7c0.6,0.8,1.2,1.6,1.6,2.3
		c0.2,0.3,0.2,0.6,0.2,0.9c0,0.2,0,0.3-0.1,0.5c-0.2,0.5-0.5,0.8-0.9,1.1c-0.3,0.1-0.5,0.2-0.8,0.2c-0.2,0-0.4,0-0.5-0.1
		c-0.5-0.2-0.8-0.5-1-0.9C211.2,145.6,210.7,144.9,210.1,144z"/>
</g>
</svg>
