<?xml version="1.0" encoding="utf-8"?>
<!-- Generator: Adobe Illustrator 21.1.0, SVG Export Plug-In . SVG Version: 6.00 Build 0)  -->
<svg version="1.1" id="圖層_1" xmlns="http://www.w3.org/2000/svg" xmlns:xlink="http://www.w3.org/1999/xlink" x="0px" y="0px"
	 viewBox="0 0 768 2500" style="enable-background:new 0 0 768 2500;" xml:space="preserve">
<style type="text/css">
	.st0{fill:#FFFFFF;stroke:#1C936E;stroke-width:6;stroke-linecap:round;stroke-linejoin:round;stroke-miterlimit:10;}
	.st1{fill:#D0AE55;}
	.st2{fill:#FAF7EF;}
	.st3{fill:#EEE3C3;}
	.st4{fill:#EBDCB6;}
	.st5{fill:#F3EAD2;}
	.st6{fill:#EEE2C2;}
	.st7{fill:#F0E5C8;}
	.st8{fill:#F4ECD7;}
	.st9{fill:#F1E8CE;}
	.st10{fill:#F2E8D0;}
	.st11{fill:#F6EFDD;}
	.st12{fill:#F8F4E6;}
	.st13{fill:#EA4D4B;}
	.st14{fill:#E83A37;}
	.st15{fill:#F7B9B8;}
	.st16{fill:#FEF7F7;}
	.st17{fill:#D0AE54;}
	.st18{fill:#D1AF57;}
	.st19{fill:#F3EAD4;}
	.st20{fill:#F4EBD6;}
	.st21{fill:#FDFDFD;}
	.st22{fill:#E5473A;}
	.st23{fill:#D1AF56;}
	.st24{fill:#EB5C57;}
	.st25{fill:#E5493A;}
	.st26{fill:#FBF4ED;}
	.st27{fill:#D1AC55;}
	.st28{fill:#D1AE56;}
	.st29{fill:#D1AD55;}
	.st30{fill:#D2AD57;}
	.st31{fill:#D2AB56;}
	.st32{fill:#F1E3CB;}
	.st33{fill:#F0E1C7;}
	.st34{fill:#F7E4D9;}
	.st35{fill:#EA854C;}
	.st36{fill:#EDA957;}
	.st37{fill:#F08280;}
	.st38{fill:#F29693;}
	.st39{fill:#F18D8B;}
	.st40{fill:#E83936;}
	.st41{fill:#EEB65A;}
	.st42{fill:#EEB55A;}
	.st43{fill:#EC9751;}
	.st44{fill:#EEAD58;}
	.st45{fill:#EEB45A;}
	.st46{fill:#EEB85B;}
	.st47{fill:#EEBC5C;}
	.st48{fill:#4D6937;}
	.st49{opacity:0.1;enable-background:new    ;}
	.st50{fill:#658549;}
	.st51{fill:#78945F;}
	.st52{fill:#FCCE88;}
</style>
<path class="st0" d="M685.8,2450.6H82.2c-16.6,0-30-13.4-30-30V116.7c0-16.6,13.4-30,30-30h603.6c16.6,0,30,13.4,30,30v2303.9
	C715.8,2437.2,702.4,2450.6,685.8,2450.6z"/>
<g>
	<path class="st1" d="M233.2,56.7c0.5-0.4,1.1-0.9,1.6-1.3c5.3-2.3,10.6-1.8,16-0.3c1,1.5,2.5,2.6,4.2,3.2c0.7,1.7,1.6,3.2,3.1,4.4
		c0.1,1.2,0.5,2.2,1.5,3c1.1,4.9,1.2,4.9,6.4,3.1c4.4,1.2,9,2.1,13,4.5c0.6,1.7,1.6,3.2,3.2,4.2c0.1,1.2,0.4,2.3,1.4,3
		c0.4,4.4,0.4,8.7-0.2,13.1c-0.5,1-1,1.9-1.6,2.9c-0.4,0.5-0.9,1.1-1.3,1.6c-0.5,0.5-1,1-1.5,1.5c-1.8,0.5-3.3,1.5-4.5,3
		c-5,2.1-0.4,4.3-0.1,6.5c0,1.9,0,3.7,0,5.6c-1.4,1.7-1.3,3.8-1.6,5.9c-0.5,1-1,1.9-1.5,2.9c-0.4,0.5-0.9,1.1-1.3,1.6
		c-0.5,0.5-1,1-1.5,1.5c-0.5,0.4-1.1,0.9-1.6,1.3c-1.1,0.2-2.2,0.6-2.9,1.6c-5,1.2-9.8-0.1-14.6-1.4c-2.1-1.2-2.6-5.6-6.4-3.1
		c-0.5,0.5-1,0.9-1.6,1.4c-1,0.5-1.9,1-2.9,1.5c-3.4,0.1-6.7,0.1-10.1,0.2c-1.2-1.4-2.8-1.5-4.4-1.6c-0.8-1-1.9-1.3-3.1-1.4
		c-2-2-3.9-4-5.9-6c-0.9-4.6-0.6-9,1.3-13.3c3.1-4.2-1.2-3.6-3-4.6c-2.5-2.5-4.9-5-7.4-7.5c-0.1-1.2-0.3-2.3-1.3-3.1
		c-0.6-4,0.7-7.7,1.4-11.6c1.5-1.1,2.6-2.5,3.1-4.4c0.5-0.5,0.9-1.1,1.4-1.6s1-0.9,1.5-1.4c4.1-2.4,8.5-2.2,13-1.5
		c1.6,1.3,2.6,0.9,2.9-1.1c0.3-2.1,0.4-4.3,0.6-6.4c1.4-1.2,2.5-2.7,3-4.5C232.2,57.7,232.7,57.2,233.2,56.7z"/>
	<path class="st2" d="M241.8,101.3c0-0.4-0.1-0.8-0.1-1.2c-1.6-1.2-1.8-3.2-3-4.7l0,0c-0.2-0.3-0.4-0.5-0.6-0.8
		c0.1-0.3,0.1-0.6,0.2-0.9c0.5-1.2,0.6-2.5,1.6-3.4c1.2-1.6,3.4-1.4,4.9-2.6l0,0c2.9-0.9,1.7,2.4,3.1,3h-0.1
		c0.7,1.5,2.6,2.5,1.7,4.6l0.1,0.1c-0.5,0.2-0.7,0.4-0.6,0.8c0.1,0.3,0.2,0.5,0.3,0.5c0.1,0.5,0.3,1,0.4,1.4c-1.9,1.5-4.1,2.4-6.4,3
		l0,0C242.9,101.8,242.4,101.9,241.8,101.3z"/>
	<path class="st3" d="M244.9,87.8c-0.9,1.9-3,2-4.4,3.1c-1,0.7-0.7,2.1-1.5,3l0,0c-0.7,0.7-1.3,0.6-1.8-0.2c-1-4.7-5.2-4.8-8.7-5.8
		c-0.3-1.5,0.2-2.1,1.8-1.6c3.3,0.1,5.6,3.3,9.5,2.7c-0.1-3.4-0.6-6.6-2.6-9.4c-0.9-1.3-1.6-2.5-0.1-3.8c0.3-0.3,1-0.6,1.3-0.5
		c1.7,0.5,1.8,2,2.1,3.5C241,82.2,240.4,86.3,244.9,87.8z"/>
	<path class="st4" d="M243.4,101.3c1.6-2.1,3.9-2.8,6.4-3c3.5,0.6,5.1,3.7,7.6,5.7c0.8,0.7,1,1.8,0.2,2.6c-1.1,1.1-2.4,0.7-3.2-0.4
		c-1.5-2.2-3-4.3-5.5-5.7c-1.1,2.2,1.1,3.5,0.6,5.2c-0.5,0.8-1.1,0.9-1.7,0C246,104.7,245.9,101.8,243.4,101.3z"/>
	<path class="st5" d="M249.6,95.5c-0.7-1.5-1.8-2.8-1.7-4.6c3.9,2.3,8.1,1.7,12.3,1.5c1.6-0.1,3.1,0.4,2.6,2.5
		c-0.3,1.6-1.6,1.6-2.9,1.2C256.5,94.9,253,95.6,249.6,95.5z"/>
	<path class="st6" d="M238.8,95.4c1.9,1,2.4,2.9,3,4.7c-3.4-0.3-4.5,2.8-6.5,4.4c-1.2,0.9-2.1,2.1-3.2,3.1c-1,0.9-2.3,1.2-3.1-0.2
		c-0.7-1.2-0.4-2.7,1.1-3c3.5-0.7,5.3-3.5,7.6-5.7C238.6,97.9,238.8,96.7,238.8,95.4z"/>
	<path class="st7" d="M237.1,93.7c0.6,0.1,1.2,0.1,1.8,0.2c-0.1,0.5-0.1,1.1-0.2,1.6c-3.6,0-7.3-0.2-10.8,1.1c-0.9,0.3-2-0.3-2-1.5
		c0-1,0.6-1.9,1.7-1.9C230.9,93.3,234,93.5,237.1,93.7z"/>
	<path class="st8" d="M246.3,81.7c-0.4-1.1-1-2.2-1.1-3.4c-0.2-1.4,0.8-2.4,2.2-2.3c1.4,0,2.2,1.1,1.9,2.5c-0.4,1.6-1,3.2-1.5,4.8
		C246.4,83.6,245.6,83.3,246.3,81.7z"/>
	<path class="st9" d="M258.2,84.6c-0.3,1.5-1.1,2.8-2.8,2.8c-1.4,0-1.4-1.2-1.2-2.1c0.2-1.5,0.7-3,2.6-2.9
		C257.9,82.3,258.2,83.4,258.2,84.6z"/>
	<path class="st3" d="M246.3,81.7c0.5,0.5,1,1,1.5,1.6c0.1,2.5,0.1,5,0.2,7.5c-1-1-2-2-3.1-3C244.9,85.7,244.6,83.5,246.3,81.7z"/>
	<path class="st4" d="M241.8,101.3c0.5,0,1,0,1.6,0c-0.4,2.7-1.1,5.4-2.8,7.7c-1-0.1-1.1-1-1.6-1.6
		C239.3,105.1,239.9,102.9,241.8,101.3z"/>
	<path class="st10" d="M239,107.4c0.5,0.5,1,1.1,1.6,1.6c-0.2,0.7-0.2,1.5-0.5,2.1c-0.7,1.3-1.6,2.8-3.2,1.8c-1.4-0.9-1.2-2.5,0-3.7
		C237.5,108.5,238.3,108,239,107.4z"/>
	<path class="st11" d="M230.2,86.3c-0.6,0.5-1.2,1.1-1.8,1.6c-1.4,0.1-2.5-0.4-2.4-2c0-1,0.8-1.9,1.8-2
		C229.4,83.8,229.9,85,230.2,86.3z"/>
	<path class="st12" d="M247.8,105.8c0.6,0,1.1,0,1.7,0c0.3,0.7,0.7,1.3,0.9,2c0.5,1.6,0,3.1-1.9,3c-1.6-0.1-1.5-1.5-1.1-2.8
		C247.6,107.3,247.6,106.6,247.8,105.8z"/>
	<path class="st4" d="M249.4,96.9c-1-0.7-1-1.1,0.3-1.3C249.6,96,249.5,96.5,249.4,96.9z"/>
	<path class="st7" d="M239,93.9c0-1.3,0.2-2.4,1.5-3C240.4,92.1,240.1,93.2,239,93.9z"/>
</g>
<g>
	<path class="st13" d="M319.3,111.9c-0.2-0.8-0.7-1.3-1.4-1.5c-2.8-5.6-5-11.2-4.5-17.7c0.6-7.6,3.4-13.8,8.8-19
		c2.9-1.3,5.8-2.8,8.8-4c13.9-5.5,26.5-0.3,32.6,13.3c5.6,12.3,4.7,20.5-3.6,27.8c-7.5,6.6-21.4,12.9-33.7,5.4
		C324,114.7,321.7,113.3,319.3,111.9z"/>
	<path class="st14" d="M322,96.9c1.1-5.4,1.7-12.5,9.6-15.6c1.9-0.8,3-2.2,4-4.1c2.2-4.6,6.7-6.3,11.8-5c4.9,1.2,8,5.1,7.4,10.6
		c-0.5,4.7-0.8,9.1-0.1,13.8c0.9,6-6.7,15.2-12.6,16.8C334.1,115.6,321.9,106.5,322,96.9z"/>
	<path class="st13" d="M348.8,77.9c3.5,1.6,3.8,4.3,2.1,7.3c-1.5,2.6-4.1,3.4-7,3c-1.9-0.2-3.4-1.1-3.7-3c-0.5-3-0.9-6.1,3.1-7.1
		c1.3,0.7,0.8,3.9,3.5,2.4c0.3-0.5,0.6-0.9,0.9-1.4C348.1,78.7,348.4,78.3,348.8,77.9z"/>
	<path class="st15" d="M348.9,80.9c0,2.8-1.7,3.6-3.9,2.9c-3-1-2.1-3.4-1.7-5.6c1.8-0.6,3.6-0.7,5.5-0.2c-0.1,0.5-0.1,1.1-0.2,1.6
		c-0.6,0.2-0.8,0.5-0.4,1.1C348.4,80.8,348.6,80.9,348.9,80.9z"/>
	<path class="st16" d="M348.9,80.9c-0.7,0.3-1.3,0.7-2,1s-1.5,0.3-1.8-0.5c-0.4-1.2,0.2-1.8,1.4-1.9c0.7-0.1,1.4,0,2.2,0
		C348.9,79.9,349,80.4,348.9,80.9z"/>
</g>
<g>
	<path class="st17" d="M175.3,80c-2.4,14.9-4.2,30-4.4,45.1c0,2.7-0.6,4.1-3.1,4.8c-2.1,0.5-4.1,1.5-6.3,2
		c-6.4,1.5-12.8,3.1-19.2,4.4c-20.8,3.9-40.9,10.6-61.6,14.7c-9.4,1.9-8.7,2.6-12.9-6.5c-6.1-13.1-14.6-24.7-23.4-36
		c-1.9-2.3-1.4-4.7,0.4-6.5c8.1-8.7,16.1-17.6,26.2-24.2c8.4,4.8,16.6,4.1,24.9-0.4c1.3-0.7,3.1-1.8,4.2,0.1
		c0.8,1.3-0.2,2.7-1.1,3.8c-3.4,4.2-7.7,7.5-12.3,10.3c-1.7,1-3.7,1.4-4.6,3.7c7.6-2.5,14-6.8,18.6-13.6c6-8.9,5.9-8.9,15.5-3.8
		c7.8,4.1,16.2,4.8,24.8,3.8c-3.9-1.8-8.2-1-12.3-1.9c-3.4-0.7-7.3-0.4-9.6-3.8c-0.1-0.6,0.1-1.1,0.6-1.5c0.9-0.6,1.8-0.9,2.8-0.8
		c8.1,0.3,14-3.4,18.5-9.9c7.8-0.2,15,3.1,22.4,4.8c2.1,0.5,4.1,1.3,6.2,2C176,72.3,176.4,73,175.3,80z"/>
	<path class="st18" d="M141.7,48.1c9.1,3.9,18.9,5.9,28.1,9.4c2.7,1,5.4,2.4,8.5,2.5c2,1.8,4.7,1.7,7,2.7c2,0.9,2.9,2.3,0.9,3.9
		c-2.3,1.8-3.2,5-6.2,6c-13.3-3-26.1-7.7-39.4-10.8c-1.4-2.9,0.1-5.8-0.3-8.7C140.7,51.5,140.3,49.6,141.7,48.1z"/>
	<path class="st19" d="M71.1,78.1c-7.9,7.8-16.5,14.9-24,23.1c-1.9,2.1-4.1,3.9-2.8,7.2c-1.1-0.3-1.5-1.2-1.8-2.2
		c-0.5-2-1.5-1.2-2.5-0.5c-0.3,0.4-0.6,0.9-1,1.4c-0.8,0.2-1.5,0.3-2.3,0.5c-0.5-0.3-0.9-0.6-1.4-0.8h-0.1c-0.1-0.4-0.1-0.8-0.2-1.2
		c10.2-8.3,18.8-18.3,28.8-26.7c1.7-1.4,3-3.2,5.5-3.4C70.8,75.7,71.5,76.6,71.1,78.1z"/>
	<path class="st20" d="M141.2,61.7c5.7-0.4,10.8,1.8,16.1,3.3c7.7,2.2,15.7,3.8,22.8,7.8c-1.6,0.4-4-0.3-3.3,3
		c0.3,1.4-0.1,3.1-1.4,4.2c-0.1-0.4-0.3-0.8-0.2-1.2c0.6-5.9-0.3-5.2-5.1-6.8c-9.4-3.1-19.1-5.5-28.7-7.9
		C140.5,63.3,140.3,62.5,141.2,61.7z"/>
	<path class="st21" d="M39.1,107c0.3-0.5,0.6-0.9,1-1.4C39.7,106.1,39.4,106.5,39.1,107z"/>
	<path class="st21" d="M35.4,106.7c0.5,0.3,1,0.5,1.4,0.8C36.3,107.2,35.9,106.9,35.4,106.7z"/>
	<path class="st22" d="M141.2,61.7c0,0.8,0,1.6,0,2.5c-3.3,8-9.9,10.7-18,10.7c-1.4,0-2.7-0.2-4.1,0.2V75c2.5,2.8,6,2.7,9.3,3.1
		c3.9,0.4,7.9,0.6,11.9,0.8c1.8,0.1,4-0.2,3.9,2.3c-0.1,2.2-2.3,2.6-4.1,2.6c-6.7-0.1-13.5-0.3-20-2.6c-3.8-1.3-7.2-3.4-10.4-5.7
		c-2.2-1.5-3.7-1.7-4.9,1.3c-4,10.1-12.4,15.7-21.7,20.2c-0.7,0.3-1.5,0.6-2.2,0.6c-1,0-1.9-0.5-2.4-1.5c-0.4-1-0.2-2,0.8-2.6
		c1.4-0.8,2.8-1.6,4.2-2.3C89.2,88.5,93.8,84.5,98,80c0.6-0.7,1.4-1.4,1-2.7c-9.2,4-18.5,9.6-28,0.8c-0.4-1-0.9-1.7-1.9-2.2
		c-4.2-3-6.5-6.8-5-12.2v-0.2c0.4-0.7,0.2-1.5,0.3-2.3c0.2-7.3,1-8.2,8.5-9.1C80,50,85.2,53,89.5,58.3c1.5,1.3,3.1,2.4,4.6,3.7
		c2.3,2,4.4,2.3,7.5,0.7c4.7-2.4,9.9-3.9,13.1-8.5c2-3.8,4.8-7,7.5-10.2c0.4-0.3,0.8-0.6,1.3-0.9c0.4-0.3,0.9-0.6,1.4-0.8
		c1.5-0.6,3.3-4.2,4.3,0.4c-0.1,0.5-0.2,1.1-0.4,1.6s-0.4,1-0.6,1.5c-1.9,4.3-4.6,8-7.7,11.4c-1.3,1.7-2.5,3.6-3.9,5.2
		c-3.5,4-3.3,4.3,2.1,5.4c9.2,1.8,12.8,0.6,16.8-5.9c0.1-0.6,0.2-1.1,0.3-1.7c0.3-3.3-0.2-6.6,0.4-9.9c0.5-1.6,0.8-4.1,3-3.5
		c2.6,0.8,2.1,3.7,2.1,5.9C142.6,55.9,141.3,58.8,141.2,61.7z"/>
	<path class="st23" d="M123.5,44.5c-2.7,3.3-5.3,6.6-7.4,10.3c-0.3,0-0.5-0.1-0.8-0.1c-1-0.3-1.9-0.5-2.8-1
		c-9.2-4.8-16.9-3.2-22.9,5.4c-0.2,0.2-0.5,0.3-0.7,0.4c-4.1-5.1-9.4-7.5-15.9-7.4c3.6-0.4,6.2-2.4,8.6-4.8
		c3.6-3.5,7.1-6.9,10.7-10.4c2.2-2.1,4.2-2.5,7.4-1.4c8,2.8,16.1,5.7,24.6,6.9c0.1,0.2,0.2,0.5,0.3,0.7l-0.1,0.1
		C124.2,43.7,123.9,44.2,123.5,44.5z"/>
	<path class="st23" d="M64.1,63.7c0.6,4.5,3.3,8.1,5,12.2c-9.4,8.4-18.8,16.9-27.4,26.2c-1.8,1.9-3.9,3.3-6.7,3.4
		c-0.3-0.3-0.5-0.6-0.8-0.9c-5.9-4.3-5.8-4.2-1-9.7C42.9,83.9,53.7,74,64.1,63.7z"/>
	<path class="st24" d="M124.6,43.2c-0.1-0.2-0.2-0.5-0.3-0.7c7.7-7.9,14.1-5.8,17.4,5.7c-0.1,1.6,1.1,3.3-0.2,4.9
		c-0.7-1.7-0.4-3.9-2-5.2c-2,0.7-0.9,2.7-2,3.6c-1.5-0.6-1.9-2.1-2.4-3.4c-0.5-3-2.1-4.5-5.3-3.9c-0.5,0-1-0.2-1.5-0.5
		c0.1-1.3,0.5-3-1.7-1.4C126,42.6,125.3,42.9,124.6,43.2z"/>
	<path class="st23" d="M64.5,61.3c0.5,0.9,0.4,1.6-0.3,2.3C63.8,62.8,63.8,62,64.5,61.3z"/>
	<path class="st25" d="M78,132.9c-0.2,0-1.7,0.4-3.3,0.5c-3.8,0.1-5.2-0.9-6.5-4.6c-0.8-2.2-1.9-4.4-2.5-6.6
		c-1.6-5.4,0.7-8.7,6.3-8.5c3.3,0.1,6.6,0.9,10,0.6c0.4,0,0.8,0.2,1.1,0.3c3,1.1,5.5,6.4,5.2,11.2c-0.2,3.2-1.8,5.1-5.5,6.2
		C81.8,132.2,80.6,132.4,78,132.9z"/>
	<path class="st26" d="M115.2,124.3c1.2,5,0.3,9.4-4.2,12.6c-2.5,1.8-5.1,2-7.9,0.6c-0.7-0.3-1.4-0.8-2-1.2
		c-2.2-1.7-6.1-2.1-6.1-5.2c0-4.1,1.1-8.3,4-11.6c1.5-1.7,3.3-2.1,5.4-1.2c2.2,1,4.5,1.5,6.9,1.7
		C113.8,120.3,115.2,121.6,115.2,124.3z"/>
	<path class="st27" d="M136.9,62.5c-1.7,5.4-5.8,7.5-11.2,7.7c-4.2,0.1-8.2-0.6-12.1-2.1c-2.5-0.9-2.6-2.4-0.7-3.8
		c3-2.1,4.8-5.2,7-8c0.3,0.1,0.5,0.1,0.8,0.2C126,58.9,131.9,59.5,136.9,62.5z"/>
	<path class="st28" d="M116.1,54.9c-1.9,2-3.8,4-5.8,5.9c-1,1-2,2-3.6,1.6c-2-0.5-3.4,0.6-4.8,1.8c-2.7,2.2-4.6,2.2-7.6,0
		c-1.9-1.4-3.6-3.1-5.4-4.6l0.1-0.2c1.4-1.7,3.4-2.7,4.9-4.3c3.6-4,8-4.6,12.9-2.9c3,1,6,1.7,9,2.5L116.1,54.9z"/>
	<path class="st29" d="M87.2,63.5c2.7,1.9,5.5,3.8,8.2,5.7c2.5,1.8,2.7,2.5,0,4.3c-7.7,5.3-12.7,6.9-20.6,0.1
		c0.1-0.3,0.2-0.5,0.3-0.8C79.5,70.4,81.5,64.6,87.2,63.5z"/>
	<path class="st30" d="M136.4,46.9c0.4,1.5,0.7,3,1.1,4.5c-0.1,3.2-0.1,6.5-0.2,9.7c-5.9-1-11.3-3.5-17.2-4.7l-0.2-0.1
		c3-3.4,5.7-7,7.5-11.2c0.2-0.5,0.6-1,0.8-1.5l0,0c0.3,0,0.7,0,1,0C131.8,44.4,134.3,45.2,136.4,46.9z"/>
	<path class="st31" d="M74.7,73.7c-2.9-4.1-4.5-8.7-5.2-13.6c-0.3-2.3,0.4-3.7,3.2-3.7c5,0,9.3,1.5,12.8,5.1
		c-2.8,4.7-7.5,7.7-10.6,12.1L74.7,73.7z"/>
	<path class="st32" d="M120.2,56.5c0.9-0.3,2-0.9,2.8-0.7c4.9,1.4,10.3,1.6,14.4,5.4c-0.1,0.4-0.3,0.9-0.4,1.3
		c-5.5-0.2-10.4-2.6-15.5-4.2C120.6,58.1,120.3,57.3,120.2,56.5z"/>
	<path class="st33" d="M74.8,73.5c-0.3-1-0.5-2,0.3-2.7c3.4-3.2,6-7.1,10.3-9.3c0.6,0.7,1.2,1.4,1.8,2.1c-2.3,2.3-4.6,4.6-7,6.9
		C78.6,71.8,77.2,73.5,74.8,73.5z"/>
	<path class="st17" d="M119.2,74.9c-0.5,0-1.1,0-1.6-0.1C118.2,73.6,118.7,74.6,119.2,74.9L119.2,74.9z"/>
	<path class="st24" d="M128.3,43.6c-0.3,0.5-0.6,1-0.8,1.5C127.8,44.6,128,44.1,128.3,43.6z"/>
	<path class="st24" d="M123.5,44.5c0.4-0.4,0.7-0.9,1.1-1.3C124.4,43.9,124.1,44.3,123.5,44.5z"/>
	<path class="st20" d="M115.8,54.7c-1.7,0.9-3.3,0.9-5.1,0.2c-1.8-0.7-3.8-1.1-5.7-1.7c-3.7-1.1-6.8-0.6-9.6,2.3
		c-1.7,1.8-3.4,4-6.4,3.7c2.7-7.4,9.6-11.3,16.4-9.3c2.7,0.8,5.3,1.7,8,2.4C114.6,52.8,115.6,53.3,115.8,54.7z"/>
	<path class="st34" d="M136.4,46.9c-2.7-0.3-5.8,0-7.1-3.3C133.6,41.5,134.4,41.8,136.4,46.9z"/>
	<path class="st35" d="M76.5,120.9c0.9-0.4,1.8-1,2.7-1.1c1.2-0.1,2.4,0.5,2.7,1.8c0.3,1.1-0.6,1.8-1.6,2.1
		c-1.4,0.4-2.6,0.8-1.9,2.8c0.4,1.2-0.3,2.4-1.8,2.5c-1.4,0.1-2.2-0.8-2.5-2c-0.4-1.3-0.7-2.7-1-4C74.1,121.9,75.5,121.7,76.5,120.9
		z"/>
	<path class="st36" d="M76.5,120.9c0.4,3.1-1.6,2.4-3.3,2c-0.1-0.4-0.1-0.8-0.2-1.2C73.9,120.7,75.1,120.5,76.5,120.9L76.5,120.9z"
		/>
	<path class="st35" d="M76.5,120.9c-1.2,0.3-2.4,0.6-3.5,0.8C73.7,119.9,75,119.7,76.5,120.9z"/>
	<path class="st37" d="M102.7,128.8c-1.1-1.3-2.9-2.4-1-4.4c0.6-0.6,1.6-0.5,2.1,0.1c1.6,1.9,0.4,3.2-1.3,4.2L102.7,128.8z"/>
	<path class="st38" d="M108.5,127.5c1.1,0,2,0.4,2,1.6c0.1,1.2-0.8,1.9-1.9,1.8c-1-0.1-1.9-0.8-1.8-2
		C107,128,107.6,127.5,108.5,127.5z"/>
	<path class="st39" d="M102.6,128.8c0.1,0.1,0.3,0.3,0.4,0.4c1.2,1,2.5,2.1,0.9,3.8c-0.6,0.6-1.5,0.3-2.1-0.3
		C100.3,131.1,101.4,129.9,102.6,128.8C102.7,128.8,102.6,128.8,102.6,128.8z"/>
</g>
<g>
	<path class="st40" d="M97.8,235.5c-3,0.7-4.1,2.6-4.1,5.6c-0.1,3.5-1.4,6.7-3.4,9.7c-6.2,8.8-18.6,10-26,2.1
		c-2.4-2.6-4.2-2.9-7-1.6c-1.5,0.7-3.1,1-4.7,1.4c-10.9,2.4-17.9-1.6-20.9-12.3c-1.8-6.5-3.4-12.9-6-19.3
		c-3.7-9.3,3.2-21.1,13.2-23.5c4-0.9,5.7-2.7,6.6-6.5c1.3-5.2,5.1-8.8,9.3-11.8c3.7-2.6,8.1-2.6,12.1-1.4
		c9.4,2.7,16.2,8.3,17.9,18.5c0.4,2.6,1.5,3.8,4,4.3c4.5,1,8.6,3.1,11.6,6.8c6.6,8.2,5.9,19.2-1.6,26.7
		C98.4,234.6,98.1,235.1,97.8,235.5l0.2,0.2L97.8,235.5z"/>
	<path class="st41" d="M56.3,221.6h-0.5l-0.5-0.1c0.6-3,3.4-3.2,5.5-4.4c3.1-4.8,2.8-9.9,0.8-14.9c-0.7-1.7-1.1-3.2,0.7-4.2
		c1.8-1.1,3.1-0.1,4.2,1.3c0.8,1,0.6,2-0.1,3c-2.6,3.8-1.3,8.1-1.2,12.2c0.1,2.4,2.1,3.1,3.8,1.5c1.8-1.7,4-3.1,4.8-5.7
		c1.5-4.7,2-4.8,6.9-3c-2,1.5-3.1,3,0,4.5c-3.2,1.4-7.1,1.4-9.2,4.9c-0.6,1.1-2.2,1.8-1.6,3.2c0.6,1.6,2.3,1.5,3.8,1.5
		c2.5,0,5,0.2,7.3-1.5c1.8-1.2,3.6,0,4.6,1.6c0.9,1.4,0.3,2.8-0.8,3.9c-0.9,0.9-2.2,1.4-2.9,0.5c-3.1-3.9-7.1-2.6-11-2.4
		c-1.1,0.1-2.2,0.2-3.3,0.2c-3.6,4.5-6,4.2-8.2-1.1c-0.6-0.1-1.3-0.3-1.9-0.4C57.1,222.1,56.7,221.9,56.3,221.6z"/>
	<path class="st42" d="M59.5,222.7c3.3,4.2,3.8,4.3,8.2,1.1c1.3,3.8,7,9.6,10.8,10.8c1.9,0.6,3.7,0.9,2.1,3.5c-1.5-0.3-3-0.6-4.5,0
		c-2.3-4.9-6-8.3-11-11.2c-1.5,4.7-1.2,9,0.3,13.2c-1.2,0.5-2.3,0.6-3.5,0c0-4.1,0-8.2,0-13c-5.3,2.8-8.8,6.3-11.4,10.7
		c-0.5,0.8-0.5,1.8-1,2.5c-0.9,1.2-2.2,1.1-3.5,0.8c-1.2-0.2-1.9-1.2-2-2.3c-0.2-1.4,0.4-2.8,1.8-2.9c3.4-0.2,4.8-3,7-4.9
		c1.6-1.4,3.2-3,5-4.3C59.3,225.8,59.9,224.5,59.5,222.7z"/>
	<path class="st43" d="M60.8,217.2c-1.4,2-3.6,3-5.5,4.4c-2.5,0-5.1,0-7.6,0c-0.7-0.7-0.7-1.4,0-2.2c2.6,0,5.3,0,8.4,0
		c-1.8-3.5-4.8-5-6.3-7.6c-0.1-1.7-0.4-3.4,1.2-4.6C53.2,211.6,55.8,215.5,60.8,217.2z"/>
	<path class="st44" d="M47.7,219.4c0,0.7,0,1.4,0,2.2c-0.6,0.4-1.2,0.8-1.8,1.2c-1.3,1-2.7,1.3-3.8-0.1c-1.2-1.4-1.3-3,0-4.5
		c1.2-1.3,2.6-1,3.9-0.1C46.5,218.6,47.1,219,47.7,219.4z"/>
	<path class="st45" d="M51,207.2c-0.3,1.5,0.5,3.4-1.2,4.6c-0.5-0.2-1-0.5-1.5-0.7c-1.4-0.5-2.9-0.8-2.8-2.8c0.1-1.4,0.7-2.5,2-2.9
		C49.2,204.8,50.3,205.7,51,207.2z"/>
	<path class="st46" d="M80.7,211.8c-1.7-0.5-4.8,1-5-1.3c-0.3-2.7,2.6-3.2,5-3.3C83,208.8,82.9,210.3,80.7,211.8z"/>
	<path class="st41" d="M61.9,240.2c1.2-0.8,2.3-0.6,3.5,0c1.3,1.3,1,2.5-0.1,3.7c-0.7,0.7-1.6,0.9-2.4,0.4
		C61.2,243.3,61,241.8,61.9,240.2z"/>
	<path class="st47" d="M76.1,238.1c1.4-3,2.1-3,4.5,0C78.7,241.1,77.8,241.1,76.1,238.1z"/>
	<path class="st43" d="M56.3,221.6c0.4,0.2,0.8,0.5,1.2,0.7C56.9,222.4,56.6,222.1,56.3,221.6z"/>
</g>
<g>
	<g>
		<g>
			<g>
				<path class="st48" d="M668.9,126.2c19.9-3.7,46-12,48.1-27.2c2-15.2-55.1-69.4-68.9-66.8c-13.9,2.5-43.4,72.6-35,86
					C621.3,131.5,648.9,129.9,668.9,126.2z"/>
				<g>
					<path class="st49" d="M697,79c-21.7,9.7-56.4,3.8-77.5-1.2c-6.3,16.8-10,33.3-6.9,39.8c35.3,9.4,78.3-3.7,102.6-13.3
						c0.9-1.6,1.5-3.3,1.7-5.2c0.6-4.8-4.5-13.3-12.3-22.8C702.3,76.9,699.7,77.8,697,79z"/>
					<path class="st50" d="M716.2,102.1c0.4-1,0.6-2,0.8-3c0.6-4.7-4.4-13.1-11.9-22.3c-2.8,0.6-5.9,1.6-9.3,3.1
						c-21.6,9.5-56.5,3.5-76.4-1.3c-5.6,15.1-9,29.8-7.3,37.1C647.7,126,693,111.4,716.2,102.1z"/>
					<g>
						<path class="st48" d="M611.6,108.9c8.8,1.5,17.7,2,26.6,1.9c4.4-0.1,8.9-0.3,13.3-0.7c2.2-0.1,4.4-0.4,6.6-0.6
							c2.2-0.2,4.4-0.5,6.6-0.9l3.3-0.5l3.3-0.5l3.3-0.5l3.3-0.6c2.2-0.4,4.4-0.8,6.6-1.3c2.2-0.5,4.4-0.9,6.5-1.4
							c8.7-1.9,17.3-4.1,26-6.4c-8.3,3.4-16.8,6.3-25.5,8.7c-1.1,0.3-2.2,0.6-3.2,0.9l-3.3,0.8c-2.2,0.5-4.4,1-6.6,1.5l-3.3,0.7
							l-3.3,0.6l-3.3,0.6l-3.3,0.5c-8.9,1.2-17.9,1.9-26.9,1.6C629.1,112.8,620.1,111.6,611.6,108.9z"/>
					</g>
					<g>
						<path class="st48" d="M612.8,100.1c8.6,1.6,17.2,2.4,25.8,2.5c4.3,0,8.6,0,12.9-0.2c2.2-0.1,4.3-0.2,6.5-0.4
							c2.2-0.1,4.3-0.4,6.4-0.6c1.1-0.1,2.1-0.2,3.2-0.3l3.2-0.4l3.2-0.4l3.2-0.5l3.2-0.4l3.2-0.5c2.1-0.3,4.3-0.7,6.4-1.1
							c8.5-1.5,17-3.3,25.5-5.1c-8.2,3-16.6,5.4-25.1,7.4l-3.2,0.7l-3.2,0.6l-3.2,0.6l-3.2,0.6l-3.2,0.5l-3.2,0.4
							c-2.2,0.3-4.3,0.6-6.5,0.8c-8.7,0.8-17.5,1.2-26.2,0.6C629.8,104.4,621.1,103,612.8,100.1z"/>
					</g>
					<g>
						<path class="st48" d="M614.8,92.2c8.2,1.4,16.4,2.2,24.6,2.4c4.1,0.1,8.2,0.2,12.3,0c2.1,0,4.1-0.1,6.2-0.2
							c2.1-0.1,4.1-0.2,6.1-0.4l3.1-0.2l3.1-0.3l3.1-0.3l3.1-0.3c2-0.2,4.1-0.4,6.1-0.7c2-0.3,4.1-0.5,6.1-0.8
							c8.2-1.1,16.3-2.5,24.5-3.8c-7.9,2.6-15.9,4.6-24.1,6.1l-3.1,0.6l-3.1,0.5c-2,0.3-4.1,0.6-6.2,0.9c-2.1,0.3-4.1,0.5-6.2,0.7
							l-3.1,0.3l-3.1,0.2c-8.3,0.5-16.6,0.6-25-0.1C630.9,96.3,622.6,94.9,614.8,92.2z"/>
					</g>
					<g>
						<path class="st48" d="M617,84.8c7.7,1.5,15.5,2.4,23.3,2.9c3.9,0.2,7.8,0.4,11.7,0.4c2,0.1,3.9,0,5.9,0s3.9-0.1,5.9-0.1
							s3.9-0.1,5.9-0.2l2.9-0.1l2.9-0.2c2-0.1,3.9-0.2,5.9-0.4c2-0.2,3.9-0.3,5.9-0.5c7.8-0.7,15.6-1.6,23.4-2.5
							c-7.6,2.1-15.4,3.7-23.2,4.8l-2.9,0.4l-2.9,0.3c-2,0.2-3.9,0.5-5.9,0.6c-2,0.2-3.9,0.3-5.9,0.4s-3.9,0.2-5.9,0.3
							c-7.9,0.2-15.8,0-23.7-1C632.3,89.1,624.5,87.5,617,84.8z"/>
					</g>
				</g>
				<g>
					<path class="st49" d="M635.7,44.5c-6.4,9.8-13,24.1-17.8,37.7c29.7,13,68.8,10.9,95.9,7c-4.7-8.3-14-19.2-24.3-29.2
						C670.6,58.1,650.3,50.8,635.7,44.5z"/>
					<path class="st51" d="M634.9,45.7C629,55,623,67.9,618.5,80.3c28.8,14.4,68.8,11.7,94.5,7.6c-4.6-7.6-12.7-17.2-21.8-26.2
						C671.5,60.6,649.4,52.2,634.9,45.7z"/>
					<g>
						<path class="st50" d="M620.7,74.7c7,2.9,14.3,4.9,21.7,6.4s14.9,2.4,22.4,2.9s15.1,0.6,22.6,0.5c7.6-0.2,15.1-0.5,22.7-1
							c-7.5,1.3-15,2.2-22.6,2.6s-15.2,0.4-22.8-0.1s-15.2-1.6-22.6-3.4C634.7,80.9,627.4,78.3,620.7,74.7z"/>
					</g>
					<g>
						<path class="st50" d="M624.3,66c6.4,2.7,13,4.7,19.7,6.3s13.5,2.7,20.3,3.5c6.8,0.8,13.7,1.3,20.6,1.6
							c6.9,0.3,13.8,0.3,20.8,0.3c-6.9,0.8-13.8,1.2-20.8,1.2c-6.9,0-13.9-0.3-20.8-1.1c-6.9-0.8-13.8-2.1-20.5-4
							C636.9,71.9,630.4,69.4,624.3,66z"/>
					</g>
					<g>
						<path class="st50" d="M629.5,55.3c5.6,2.5,11.4,4.6,17.2,6.5c5.9,1.8,11.8,3.3,17.8,4.6c6,1.3,12,2.3,18.1,3.2
							s12.2,1.6,18.3,2.4c-6.2,0.1-12.4-0.2-18.5-0.8c-6.2-0.6-12.3-1.5-18.3-2.8c-6.1-1.3-12.1-2.9-17.9-5.1
							C640.4,61.2,634.7,58.6,629.5,55.3z"/>
					</g>
				</g>
			</g>
			<path class="st49" d="M648,32.2c-1.1,0.2-2.2,0.8-3.4,1.7c21.6,12.7,58.5,50.4,56.9,62.7c-2,15.2-28.1,23.5-48.1,27.2
				c-8.9,1.6-19.3,2.8-28.9,2.5c12.3,4.1,30.2,2.5,44.4-0.1c19.9-3.7,46-12,48.1-27.2C719,83.8,661.9,29.6,648,32.2z"/>
		</g>
		<g>
			<g>
				<path class="st49" d="M685,55.7C669,63,647,70,620.4,75.3c-0.5,1.3-1,2.5-1.4,3.8c0,0,0,0,0.1,0.1c0.1,0,0.1,0.1,0.2,0.1
					c0.1,0,0.2,0.1,0.3,0.1s0.2,0,0.3,0.1c0.1,0,0.1,0,0.2,0c0.2,0,0.4,0,0.6,0c13.8-2.7,27.3-6.2,39.8-10.2c4.2-1.3,8.2-2.7,12-4.1
					c5.2-1.9,10-3.9,14.5-5.9c0.2-0.1,0.3-0.2,0.4-0.3l0.1-0.1c0.1-0.1,0.1-0.1,0.2-0.2c0-0.1,0.1-0.1,0.1-0.2
					C686.9,57.5,686,56.6,685,55.7z"/>
				<path class="st49" d="M633,106c29.4,3.4,57.6,3.7,79.3,0.7c0.5-0.1,0.9-0.1,1.4-0.2c1-1.4,1.8-2.8,2.4-4.3c-0.1,0-0.3,0-0.4,0
					c-1.3,0.2-2.6,0.4-4,0.6c-21.3,2.9-49.1,2.7-78.1-0.7c-7-0.8-13.9-1.8-20.6-2.9c-0.3,1.3-0.5,2.6-0.8,3.9
					C619,104.1,625.9,105.1,633,106z"/>
				<path class="st49" d="M676.9,48.6c-10.8-2.4-22.4-4.4-34.3-5.9c-1.8-0.2-3.6-0.4-5.3-0.6c-0.8,1.1-1.6,2.4-2.4,3.6
					c0.1,0,0.2,0,0.3,0.1c2.3,0.2,4.6,0.5,6.9,0.8c6.7,0.9,13.4,1.9,19.8,3c3.2,0.6,6.4,1.2,9.5,1.8c1.6,0.3,3.1,0.6,4.6,1
					c1.5,0.3,3,0.7,4.5,1l0,0c0.1,0,0.2,0,0.4,0.1h0.1c0.1,0,0.2,0,0.2,0h0.1c0.1,0,0.1,0,0.2,0h0.1c0.1,0,0.1,0,0.2-0.1
					c0,0,0.1,0,0.1-0.1c0.1,0,0.1,0,0.1-0.1c0,0,0.1,0,0.1-0.1C680.4,51.6,678.7,50.1,676.9,48.6z"/>
			</g>
			<g>
				<path class="st52" d="M684.7,54.2c-16.1,7.4-38.3,14.5-65.2,19.8c-0.7,0.1-1.3,0.6-1.6,1.2c0,0.1,0,0.1-0.1,0.2
					c-0.6,1.4,0.8,2.9,2.5,2.5c24.4-4.9,48.3-12.1,66.4-20.3c1.3-0.6,1.6-2.2,0.6-3.1l0,0C686.6,54,685.6,53.8,684.7,54.2z"/>
				<path class="st49" d="M686.3,56.1c-18,8.2-41.9,15.4-66.4,20.3c-0.9,0.2-1.7-0.2-2.1-0.8c-0.4,1.4,1,2.6,2.5,2.3
					c24.4-4.9,48.3-12.1,66.4-20.3c1.2-0.5,1.5-1.9,0.8-2.9C687.3,55.3,686.9,55.8,686.3,56.1z"/>
			</g>
			<g>
				<path class="st52" d="M716.4,104.5c1.2-0.2,2-1.4,1.6-2.4l0,0c-0.1-1.2-1.4-1.6-2.7-1.4s-2.6,0.4-4,0.6
					c-21.3,2.9-49.1,2.7-78.1-0.7c-7.2-0.8-14.3-1.9-21.2-3c-1.2-0.2-2.4,0.5-2.6,1.5l0,0c-0.3,1.1,0.5,2.1,1.7,2.3
					c7,1.2,14.1,2.2,21.5,3.1c29.4,3.4,57.6,3.7,79.3,0.7c1.4-0.2,2.7-0.4,4-0.6L716.4,104.5z"/>
				<path class="st49" d="M717.8,101.3c-0.1,0.8-0.8,1.4-1.7,1.6l-0.4,0.1c-1.3,0.2-2.6,0.4-4,0.6c-21.7,3-49.9,2.7-79.3-0.7
					c-7.3-0.9-14.5-1.9-21.5-3.1c-0.6-0.1-1-0.4-1.4-0.8l0,0c-0.3,1.1,0.5,2.1,1.7,2.3c7,1.2,14.1,2.2,21.5,3.1
					c29.4,3.4,57.6,3.7,79.3,0.7c1.4-0.2,2.7-0.4,4-0.6l0.4-0.1c1.2-0.2,2-1.4,1.6-2.4C718,101.8,717.9,101.5,717.8,101.3z"/>
			</g>
			<g>
				<path class="st52" d="M633.3,41.3c0,0.1-0.1,0.1-0.1,0.2c-0.7,1.2,0.1,2.6,1.6,2.8c2.3,0.2,4.6,0.5,6.9,0.8
					c13.5,1.7,26.5,4,38.4,6.8c2.1,0.5,3.5-1.8,2-3.2c-0.1-0.1-0.2-0.1-0.2-0.2c-0.3-0.2-0.6-0.4-0.9-0.5
					c-12.1-2.8-25.1-5.2-38.6-6.9c-2.3-0.3-4.6-0.6-6.9-0.8C634.6,40.3,633.7,40.7,633.3,41.3z"/>
				<path class="st49" d="M679.8,50.4c-12-2.8-24.9-5.1-38.4-6.8c-2.3-0.3-4.6-0.6-6.9-0.8c-0.6-0.1-1.1-0.4-1.4-0.8
					c-0.3,1.1,0.5,2.2,1.8,2.4c2.3,0.2,4.6,0.5,6.9,0.8c13.5,1.7,26.5,4,38.4,6.8c2,0.5,3.3-1.6,2.2-3
					C682.1,49.9,681,50.7,679.8,50.4z"/>
			</g>
		</g>
	</g>
	<g>
		<g>
			<g>
				<g>
					<path class="st48" d="M700.8,139.7c20.3,0,47.7-3.4,53-18s-38.9-77.9-53-77.9s-58.3,63.4-53,77.9
						C653,136.3,680.4,139.7,700.8,139.7z"/>
					<path class="st49" d="M659.4,89.1c-2.8,4.7-5.3,9.3-7.3,13.6c-2.9,6.7-4.7,12.6-4.8,16.9c0,0.8,0.2,1.6,0.4,2.2
						c0.8,2.2,2.1,4.2,3.8,5.9c40,7.8,77.2-1.8,102.2-11.7c-0.7-3.7-2.2-8.2-4.4-13.2c-6.7-14.5-19.3-33-30.5-45.4
						C700.8,74.7,674.5,84.5,659.4,89.1z"/>
				</g>
				<g>
					<path class="st50" d="M753.8,115c-2.9-13.9-18.9-39.5-33.3-55.9c-18.4,17.3-46.4,26.9-61.7,31.1c-7.9,13.5-13,26-11,31.6
						c0.5,1.4,1.2,2.7,2.1,3.8C690.4,133.4,728.4,124.4,753.8,115z"/>
					<g>
						<path class="st48" d="M647.4,120.2c8.8,0.3,17.6,0.4,26.4,0.1l3.3-0.1l3.3-0.2l3.3-0.2c1.1-0.1,2.2-0.2,3.3-0.3
							c2.2-0.2,4.4-0.3,6.5-0.6c2.2-0.2,4.4-0.4,6.5-0.7c4.4-0.5,8.7-1.1,13-1.8c4.3-0.7,8.6-1.5,13-2.3c8.6-1.7,17.2-3.7,25.8-5.8
							c-8.2,3.3-16.7,5.9-25.3,8c-2.1,0.6-4.3,1-6.5,1.5s-4.3,0.9-6.5,1.3c-4.4,0.8-8.7,1.5-13.1,2c-2.2,0.3-4.4,0.5-6.6,0.7
							c-2.2,0.2-4.4,0.4-6.6,0.5c-1.1,0.1-2.2,0.1-3.3,0.2l-3.3,0.1l-3.3,0.1l-3.3-0.1C664.9,122.5,656.1,121.8,647.4,120.2z"/>
					</g>
					<g>
						<path class="st48" d="M647.8,114.7c8.4-0.4,16.8-1,25.1-1.9c2.1-0.2,4.2-0.5,6.2-0.8l3.1-0.4l3.1-0.5l3.1-0.5
							c1-0.2,2.1-0.3,3.1-0.5c2.1-0.4,4.1-0.7,6.2-1.1c2.1-0.4,4.1-0.8,6.1-1.2c2-0.4,4.1-0.9,6.1-1.4c4.1-0.9,8.1-1.9,12.2-3
							c8.1-2.1,16.1-4.5,24.2-7c-7.6,3.6-15.5,6.7-23.5,9.3l-3,1l-3,0.9c-2,0.6-4.1,1.1-6.1,1.7s-4.1,1-6.2,1.5
							c-2.1,0.5-4.1,0.9-6.2,1.3c-2.1,0.4-4.2,0.7-6.3,1.1s-4.2,0.7-6.3,0.9l-3.1,0.4l-3.2,0.3l-3.2,0.3c-1.1,0.1-2.1,0.1-3.2,0.2
							C664.6,115.7,656.2,115.6,647.8,114.7z"/>
					</g>
					<g>
						<path class="st48" d="M650,107.6c7.8-0.9,15.5-1.9,23.1-3.1c1.9-0.3,3.8-0.7,5.7-1s3.8-0.7,5.7-1.1l2.8-0.6l2.8-0.6
							c1.9-0.4,3.8-0.8,5.7-1.3c1.9-0.4,3.8-0.9,5.6-1.4c1.9-0.5,3.7-1,5.6-1.5c1.9-0.5,3.7-1,5.6-1.6c1.9-0.5,3.7-1.1,5.6-1.7
							c7.4-2.3,14.8-4.7,22.2-7.3c-6.9,3.7-14.1,6.8-21.4,9.5l-2.8,1l-2.8,0.9c-1.9,0.6-3.7,1.2-5.6,1.8c-1.9,0.6-3.8,1.1-5.7,1.6
							s-3.8,1-5.7,1.5s-3.8,0.9-5.7,1.3s-3.8,0.8-5.8,1.1c-1.9,0.3-3.9,0.7-5.8,0.9c-1.9,0.3-3.9,0.6-5.8,0.7
							C665.7,107.6,657.8,108,650,107.6z"/>
					</g>
					<g>
						<path class="st48" d="M653,100.8c6.7-1.8,13.4-3.6,20-5.7c3.3-1,6.6-2,9.9-3.2l2.5-0.8l2.4-0.9c1.6-0.6,3.3-1.2,4.9-1.8
							c1.6-0.6,3.2-1.2,4.8-1.8l2.4-0.9l2.4-1c1.6-0.6,3.2-1.3,4.8-2l4.8-2c6.4-2.7,12.7-5.6,19-8.5c-5.7,4-11.8,7.5-18,10.6
							l-2.3,1.2l-2.4,1.1c-1.6,0.7-3.2,1.5-4.8,2.2s-3.2,1.4-4.8,2c-1.6,0.7-3.2,1.3-4.9,1.9c-1.6,0.6-3.3,1.2-4.9,1.7
							c-1.7,0.6-3.3,1.1-5,1.6s-3.3,1-5,1.5s-3.4,0.9-5.1,1.3C666.9,99,660,100.2,653,100.8z"/>
					</g>
				</g>
			</g>
			<path class="st49" d="M700.8,43.8c-1.1,0-2.3,0.4-3.7,1.1c18.4,16.3,46.4,59.9,42.1,71.7c-5.3,14.6-32.7,18-53,18
				c-9.1,0-19.5-0.7-28.8-2.7c11.1,6.2,29.1,7.9,43.5,7.9c20.3,0,47.7-3.4,53-18C759.1,107.2,714.9,43.8,700.8,43.8z"/>
		</g>
		<g>
			<g>
				<path class="st49" d="M728.9,69.5c-0.9-1.2-1.8-2.3-2.7-3.5c-11.6,1.8-23.5,4.3-35.2,7.3c-9,2.3-18,5-26.6,7.9
					c-1.1,1.7-2.3,3.5-3.3,5.2c0.2,0,0.4,0,0.6-0.1c7-2.4,14.5-4.8,22.5-7c2.7-0.7,5.4-1.5,8.1-2.2c1.6-0.4,3.2-0.8,4.8-1.2
					c11.1-2.7,21.6-4.8,31.4-6.4C728.6,69.6,728.8,69.5,728.9,69.5z"/>
				<path class="st49" d="M717.8,56c-5.8-1.6-11.8-3.3-17.9-5.3c-2.7-0.9-5.3-1.7-7.8-2.6c-1,0.8-2,1.7-3,2.6c0,0.1,0,0.1,0.1,0.2
					c0,0.1,0.1,0.2,0.2,0.2c0,0.1,0.1,0.1,0.1,0.1c0.1,0.1,0.2,0.1,0.2,0.2l0.1,0.1c0.1,0.1,0.3,0.2,0.5,0.2l0,0
					c0.7,0.2,1.4,0.5,2,0.7c2,0.7,4.1,1.4,6.1,2c1.7,0.5,3.4,1.1,5.1,1.6c3.4,1,6.9,2,10.3,3c1.7,0.5,3.4,0.9,5.2,1.4
					c0.1,0,0.2,0,0.3,0.1h0.1c0.1,0,0.1,0,0.2,0h0.1c0.1,0,0.1,0,0.2,0h0.1c0.1,0,0.1,0,0.1,0s0.1,0,0.1-0.1c0,0,0.1,0,0.1-0.1
					c0.1,0,0.1-0.1,0.1-0.1s0.1,0,0.1-0.1c0.1,0,0.1-0.1,0.1-0.1s0,0,0.1,0c0.1-0.1,0.1-0.1,0.1-0.2l0,0c0,0,0-0.1,0.1-0.1
					C720,58.5,718.9,57.2,717.8,56z"/>
				<path class="st49" d="M753.8,115.3c-13.6,5.5-29,10.5-45.3,14.7c-12.4,3.2-24.2,5.6-35.1,7.4c4.1,0.8,8.5,1.4,12.8,1.8
					c7.8-1.5,15.7-3.3,23.5-5.3c4.2-1.1,8.3-2.2,12.3-3.4c8.1-2.3,15.8-4.9,23.2-7.6c3.1-1.1,6-2.2,8.9-3.4
					C754.3,118.3,754.1,116.9,753.8,115.3z"/>
				<path class="st49" d="M751.1,106.5c-0.5-1.2-1.1-2.5-1.7-3.8c-14.6,0.7-31.4,0.3-49.7-1.3c-15.4-1.4-30.2-3.5-43.7-6.4
					c-0.7,1.3-1.4,2.5-2,3.8c10.5,2.2,21.7,4.1,33.4,5.4c3.9,0.5,7.9,0.9,11.8,1.2c11.6,1,23.3,1.6,34.6,1.6c1.5,0,2.9,0,4.4,0
					c2.9,0,5.7-0.1,8.6-0.2C748.2,106.7,749.6,106.6,751.1,106.5C751,106.5,751,106.5,751.1,106.5z"/>
			</g>
			<g>
				<path class="st52" d="M690,46.7L690,46.7c-1.2,1-0.8,2.7,0.6,3.2c2.6,0.9,5.3,1.8,7.9,2.6c6.6,2.1,13.3,4,20,5.8
					c1.7,0.4,3-1.4,1.9-2.6c-0.2-0.3-0.5-0.5-0.7-0.8c-0.3-0.3-0.6-0.5-1-0.6c-6-1.6-12.3-3.4-18.7-5.5c-2.7-0.8-5.2-1.7-7.8-2.6
					C691.5,46,690.6,46.2,690,46.7z"/>
				<path class="st49" d="M718.6,56.4c-6.7-1.7-13.4-3.6-20-5.8c-2.7-0.8-5.3-1.7-7.9-2.6c-0.5-0.2-0.8-0.5-1.1-0.8
					c-0.6,1-0.2,2.3,1.1,2.8c2.6,0.9,5.3,1.8,7.9,2.6c6.6,2.1,13.3,4,20,5.8c1.7,0.4,2.9-1.3,1.9-2.5
					C720.1,56.3,719.4,56.6,718.6,56.4z"/>
			</g>
			<g>
				<path class="st52" d="M668.5,140.1L668.5,140.1c0.4,0.1,0.7,0.1,1,0.1c13.3-1.8,27.3-4.6,41-8.1c15.8-4.1,30.8-8.9,44-14.3
					c0.9-0.4,1.4-1.3,1.1-2.2c0-0.1,0-0.1,0-0.2c-0.3-1.1-1.6-1.7-2.8-1.2c-13,5.3-27.8,10.1-43.4,14.1c-14.6,3.7-28.2,6.4-40.5,8.1
					C666.6,136.8,666.4,139.5,668.5,140.1z"/>
				<path class="st49" d="M755.5,115.5c0-0.1-0.1-0.3-0.2-0.4c-0.2,0.3-0.5,0.6-0.9,0.8c-13.2,5.4-28.2,10.2-44,14.3
					c-13.7,3.5-27.7,6.3-41,8.1c-0.3,0-0.6,0-0.9-0.1h-0.1c-0.5-0.1-0.9-0.4-1.2-0.8c-0.6,0.9-0.2,2.3,1.2,2.7h0.1
					c0.3,0.1,0.6,0.1,0.9,0.1c13.3-1.8,27.3-4.6,41-8.1c15.8-4.1,30.8-8.9,44-14.3C755.3,117.4,755.8,116.5,755.5,115.5
					C755.5,115.6,755.5,115.6,755.5,115.5z"/>
			</g>
			<g>
				<path class="st52" d="M699.9,98.6c-15.2-1.4-29.7-3.5-43-6.3c-0.7-0.2-1.4,0.2-1.8,0.7c-0.2,0.3-0.4,0.6-0.5,1
					c-0.5,0.8,0.1,1.8,1.1,2.1c13.5,2.9,28.4,5.1,43.8,6.4c11.2,1,22.6,1.5,33.5,1.5c5.7,0,11.2-0.1,16.6-0.4c1.1-0.1,1.8-1.1,1.4-2
					c-0.1-0.3-0.3-0.6-0.4-0.9c-0.3-0.5-0.9-0.9-1.5-0.9C734.5,100.5,718,100.2,699.9,98.6z"/>
				<path class="st49" d="M750.6,101.1c-0.3,0.3-0.7,0.5-1.1,0.5c-5.4,0.3-10.9,0.4-16.6,0.4c-11,0-22.3-0.5-33.5-1.5
					c-15.4-1.4-30.3-3.6-43.8-6.4c-0.4-0.1-0.6-0.3-0.9-0.5c-0.1,0.1-0.1,0.2-0.2,0.4c-0.5,0.8,0.1,1.8,1.1,2.1
					c13.5,2.9,28.4,5.1,43.8,6.4c11.2,1,22.6,1.5,33.5,1.5c5.7,0,11.2-0.1,16.6-0.4c1.1-0.1,1.8-1.1,1.4-2
					C750.8,101.4,750.7,101.3,750.6,101.1z"/>
			</g>
			<g>
				<path class="st52" d="M728.5,66.2c-0.4-0.5-0.8-1-1.1-1.4s-0.7-0.5-1.2-0.5c-11.4,1.8-23.2,4.2-34.7,7.2
					c-9.4,2.4-18.8,5.2-27.8,8.3c-0.3,0.1-0.5,0.3-0.6,0.5c-0.5,0.7-1,1.5-1.4,2.2c-0.6,0.9,0.4,2,1.5,1.6c9.1-3.1,19-6.1,29.6-8.9
					c12.4-3.2,24.2-5.6,35.1-7.3C728.6,67.8,729,66.8,728.5,66.2z"/>
				<path class="st49" d="M728.2,65.8c-0.1,0.1-0.3,0.2-0.5,0.2c-10.9,1.7-22.6,4.1-35.1,7.3C682,76,672.1,79,663,82.1
					c-0.4,0.2-0.9,0.1-1.2-0.2c-0.1,0.2-0.2,0.3-0.3,0.5c-0.6,0.9,0.4,2,1.5,1.6c9.1-3.1,19-6.1,29.6-8.9
					c12.4-3.2,24.2-5.6,35.1-7.3c0.9-0.1,1.3-1.1,0.8-1.7C728.4,66,728.3,65.9,728.2,65.8z"/>
			</g>
		</g>
	</g>
</g>
</svg>
