<?xml version="1.0" encoding="utf-8"?>
<!-- Generator: Adobe Illustrator 21.1.0, SVG Export Plug-In . SVG Version: 6.00 Build 0)  -->
<svg version="1.1" id="圖層_1" xmlns="http://www.w3.org/2000/svg" xmlns:xlink="http://www.w3.org/1999/xlink" x="0px" y="0px"
	 viewBox="0 0 768 2200" style="enable-background:new 0 0 768 2200;" xml:space="preserve">
<style type="text/css">
	.st0{fill:#FFFFFF;stroke:#BC2424;stroke-width:6;stroke-linecap:round;stroke-linejoin:round;stroke-miterlimit:10;}
	.st1{fill:#D0AE55;}
	.st2{fill:#FAF7EF;}
	.st3{fill:#EEE3C3;}
	.st4{fill:#EBDCB6;}
	.st5{fill:#F3EAD2;}
	.st6{fill:#EEE2C2;}
	.st7{fill:#F0E5C8;}
	.st8{fill:#F4ECD7;}
	.st9{fill:#F1E8CE;}
	.st10{fill:#F2E8D0;}
	.st11{fill:#F6EFDD;}
	.st12{fill:#F8F4E6;}
	.st13{fill:#EA4D4B;}
	.st14{fill:#E83A37;}
	.st15{fill:#F7B9B8;}
	.st16{fill:#FEF7F7;}
	.st17{fill:#D0AE54;}
	.st18{fill:#D1AF57;}
	.st19{fill:#F3EAD4;}
	.st20{fill:#F4EBD6;}
	.st21{fill:#FDFDFD;}
	.st22{fill:#E5473A;}
	.st23{fill:#D1AF56;}
	.st24{fill:#EB5C57;}
	.st25{fill:#E5493A;}
	.st26{fill:#FBF4ED;}
	.st27{fill:#D1AC55;}
	.st28{fill:#D1AE56;}
	.st29{fill:#D1AD55;}
	.st30{fill:#D2AD57;}
	.st31{fill:#D2AB56;}
	.st32{fill:#F1E3CB;}
	.st33{fill:#F0E1C7;}
	.st34{fill:#F7E4D9;}
	.st35{fill:#EA854C;}
	.st36{fill:#EDA957;}
	.st37{fill:#F08280;}
	.st38{fill:#F29693;}
	.st39{fill:#F18D8B;}
	.st40{fill:#E83936;}
	.st41{fill:#EEB65A;}
	.st42{fill:#EEB55A;}
	.st43{fill:#EC9751;}
	.st44{fill:#EEAD58;}
	.st45{fill:#EEB45A;}
	.st46{fill:#EEB85B;}
	.st47{fill:#EEBC5C;}
</style>
<path class="st0" d="M685.8,2128.4H82.2c-16.6,0-30-13.4-30-30V101.6c0-16.6,13.4-30,30-30h603.6c16.6,0,30,13.4,30,30v1996.9
	C715.8,2115,702.4,2128.4,685.8,2128.4z"/>
<g>
	<path class="st1" d="M233.2,41.6c0.5-0.4,1.1-0.9,1.6-1.3c5.3-2.3,10.6-1.8,16-0.3c1,1.5,2.5,2.6,4.2,3.2c0.7,1.7,1.6,3.2,3.1,4.4
		c0.1,1.2,0.5,2.2,1.5,3c1.1,4.9,1.2,4.9,6.4,3.1c4.4,1.2,9,2.1,13,4.5c0.6,1.7,1.6,3.2,3.2,4.2c0.1,1.2,0.4,2.3,1.4,3
		c0.4,4.4,0.4,8.7-0.2,13.1c-0.5,1-1,1.9-1.6,2.9c-0.4,0.5-0.9,1.1-1.3,1.6c-0.5,0.5-1,1-1.5,1.5c-1.8,0.5-3.3,1.5-4.5,3
		c-5,2.1-0.4,4.3-0.1,6.5c0,1.9,0,3.7,0,5.6c-1.4,1.7-1.3,3.8-1.6,5.9c-0.5,1-1,1.9-1.5,2.9c-0.4,0.5-0.9,1.1-1.3,1.6
		c-0.5,0.5-1,1-1.5,1.5c-0.5,0.4-1.1,0.9-1.6,1.3c-1.1,0.2-2.2,0.6-2.9,1.6c-5,1.2-9.8-0.1-14.6-1.4c-2.1-1.2-2.6-5.6-6.4-3.1
		c-0.5,0.5-1,0.9-1.6,1.4c-1,0.5-1.9,1-2.9,1.5c-3.4,0.1-6.7,0.1-10.1,0.2c-1.2-1.4-2.8-1.5-4.4-1.6c-0.8-1-1.9-1.3-3.1-1.4
		c-2-2-3.9-4-5.9-6c-0.9-4.6-0.6-9,1.3-13.3c3.1-4.2-1.2-3.6-3-4.6c-2.5-2.5-4.9-5-7.4-7.5c-0.1-1.2-0.3-2.3-1.3-3.1
		c-0.6-4,0.7-7.7,1.4-11.6c1.5-1.1,2.6-2.5,3.1-4.4c0.5-0.5,0.9-1.1,1.4-1.6s1-0.9,1.5-1.4c4.1-2.4,8.5-2.2,13-1.5
		c1.6,1.3,2.6,0.9,2.9-1.1c0.3-2.1,0.4-4.3,0.6-6.4c1.4-1.2,2.5-2.7,3-4.5C232.2,42.6,232.7,42.1,233.2,41.6z"/>
	<path class="st2" d="M241.8,86.2c0-0.4-0.1-0.8-0.1-1.2c-1.6-1.2-1.8-3.2-3-4.7l0,0c-0.2-0.3-0.4-0.5-0.6-0.8
		c0.1-0.3,0.1-0.6,0.2-0.9c0.5-1.2,0.6-2.5,1.6-3.4c1.2-1.6,3.4-1.4,4.9-2.6l0,0c2.9-0.9,1.7,2.4,3.1,3h-0.1
		c0.7,1.5,2.6,2.5,1.7,4.6l0.1,0.1c-0.5,0.2-0.7,0.4-0.6,0.8c0.1,0.3,0.2,0.5,0.3,0.5c0.1,0.5,0.3,1,0.4,1.4c-1.9,1.5-4.1,2.4-6.4,3
		l0,0C242.9,86.7,242.4,86.8,241.8,86.2z"/>
	<path class="st3" d="M244.9,72.7c-0.9,1.9-3,2-4.4,3.1c-1,0.7-0.7,2.1-1.5,3l0,0c-0.7,0.7-1.3,0.6-1.8-0.2c-1-4.7-5.2-4.8-8.7-5.8
		c-0.3-1.5,0.2-2.1,1.8-1.6c3.3,0.1,5.6,3.3,9.5,2.7c-0.1-3.4-0.6-6.6-2.6-9.4c-0.9-1.3-1.6-2.5-0.1-3.8c0.3-0.3,1-0.6,1.3-0.5
		c1.7,0.5,1.8,2,2.1,3.5C241,67.1,240.4,71.2,244.9,72.7z"/>
	<path class="st4" d="M243.4,86.2c1.6-2.1,3.9-2.8,6.4-3c3.5,0.6,5.1,3.7,7.6,5.7c0.8,0.7,1,1.8,0.2,2.6c-1.1,1.1-2.4,0.7-3.2-0.4
		c-1.5-2.2-3-4.3-5.5-5.7c-1.1,2.2,1.1,3.5,0.6,5.2c-0.5,0.8-1.1,0.9-1.7,0C246,89.6,245.9,86.7,243.4,86.2z"/>
	<path class="st5" d="M249.6,80.4c-0.7-1.5-1.8-2.8-1.7-4.6c3.9,2.3,8.1,1.7,12.3,1.5c1.6-0.1,3.1,0.4,2.6,2.5
		c-0.3,1.6-1.6,1.6-2.9,1.2C256.5,79.8,253,80.5,249.6,80.4z"/>
	<path class="st6" d="M238.8,80.3c1.9,1,2.4,2.9,3,4.7c-3.4-0.3-4.5,2.8-6.5,4.4c-1.2,0.9-2.1,2.1-3.2,3.1c-1,0.9-2.3,1.2-3.1-0.2
		c-0.7-1.2-0.4-2.7,1.1-3c3.5-0.7,5.3-3.5,7.6-5.7C238.6,82.8,238.8,81.6,238.8,80.3z"/>
	<path class="st7" d="M237.1,78.6c0.6,0.1,1.2,0.1,1.8,0.2c-0.1,0.5-0.1,1.1-0.2,1.6c-3.6,0-7.3-0.2-10.8,1.1c-0.9,0.3-2-0.3-2-1.5
		c0-1,0.6-1.9,1.7-1.9C230.9,78.2,234,78.4,237.1,78.6z"/>
	<path class="st8" d="M246.3,66.6c-0.4-1.1-1-2.2-1.1-3.4c-0.2-1.4,0.8-2.4,2.2-2.3c1.4,0,2.2,1.1,1.9,2.5c-0.4,1.6-1,3.2-1.5,4.8
		C246.4,68.5,245.6,68.2,246.3,66.6z"/>
	<path class="st9" d="M258.2,69.5c-0.3,1.5-1.1,2.8-2.8,2.8c-1.4,0-1.4-1.2-1.2-2.1c0.2-1.5,0.7-3,2.6-2.9
		C257.9,67.2,258.2,68.3,258.2,69.5z"/>
	<path class="st3" d="M246.3,66.6c0.5,0.5,1,1,1.5,1.6c0.1,2.5,0.1,5,0.2,7.5c-1-1-2-2-3.1-3C244.9,70.6,244.6,68.4,246.3,66.6z"/>
	<path class="st4" d="M241.8,86.2c0.5,0,1,0,1.6,0c-0.4,2.7-1.1,5.4-2.8,7.7c-1-0.1-1.1-1-1.6-1.6C239.3,90,239.9,87.8,241.8,86.2z"
		/>
	<path class="st10" d="M239,92.3c0.5,0.5,1,1.1,1.6,1.6c-0.2,0.7-0.2,1.5-0.5,2.1c-0.7,1.3-1.6,2.8-3.2,1.8c-1.4-0.9-1.2-2.5,0-3.7
		C237.5,93.4,238.3,92.9,239,92.3z"/>
	<path class="st11" d="M230.2,71.2c-0.6,0.5-1.2,1.1-1.8,1.6c-1.4,0.1-2.5-0.4-2.4-2c0-1,0.8-1.9,1.8-2
		C229.4,68.7,229.9,69.9,230.2,71.2z"/>
	<path class="st12" d="M247.8,90.7c0.6,0,1.1,0,1.7,0c0.3,0.7,0.7,1.3,0.9,2c0.5,1.6,0,3.1-1.9,3c-1.6-0.1-1.5-1.5-1.1-2.8
		C247.6,92.2,247.6,91.5,247.8,90.7z"/>
	<path class="st4" d="M249.4,81.8c-1-0.7-1-1.1,0.3-1.3C249.6,80.9,249.5,81.4,249.4,81.8z"/>
	<path class="st7" d="M239,78.8c0-1.3,0.2-2.4,1.5-3C240.4,77,240.1,78.1,239,78.8z"/>
</g>
<g>
	<path class="st13" d="M319.3,96.8c-0.2-0.8-0.7-1.3-1.4-1.5c-2.8-5.6-5-11.2-4.5-17.7c0.6-7.6,3.4-13.8,8.8-19
		c2.9-1.3,5.8-2.8,8.8-4c13.9-5.5,26.5-0.3,32.6,13.3c5.6,12.3,4.7,20.5-3.6,27.8c-7.5,6.6-21.4,12.9-33.7,5.4
		C324,99.6,321.7,98.2,319.3,96.8z"/>
	<path class="st14" d="M322,81.8c1.1-5.4,1.7-12.5,9.6-15.6c1.9-0.8,3-2.2,4-4.1c2.2-4.6,6.7-6.3,11.8-5c4.9,1.2,8,5.1,7.4,10.6
		c-0.5,4.7-0.8,9.1-0.1,13.8c0.9,6-6.7,15.2-12.6,16.8C334.1,100.5,321.9,91.4,322,81.8z"/>
	<path class="st13" d="M348.8,62.8c3.5,1.6,3.8,4.3,2.1,7.3c-1.5,2.6-4.1,3.4-7,3c-1.9-0.2-3.4-1.1-3.7-3c-0.5-3-0.9-6.1,3.1-7.1
		c1.3,0.7,0.8,3.9,3.5,2.4c0.3-0.5,0.6-0.9,0.9-1.4C348.1,63.6,348.4,63.2,348.8,62.8z"/>
	<path class="st15" d="M348.9,65.8c0,2.8-1.7,3.6-3.9,2.9c-3-1-2.1-3.4-1.7-5.6c1.8-0.6,3.6-0.7,5.5-0.2c-0.1,0.5-0.1,1.1-0.2,1.6
		c-0.6,0.2-0.8,0.5-0.4,1.1C348.4,65.7,348.6,65.8,348.9,65.8z"/>
	<path class="st16" d="M348.9,65.8c-0.7,0.3-1.3,0.7-2,1s-1.5,0.3-1.8-0.5c-0.4-1.2,0.2-1.8,1.4-1.9c0.7-0.1,1.4,0,2.2,0
		C348.9,64.8,349,65.3,348.9,65.8z"/>
</g>
<g>
	<path class="st17" d="M175.3,64.9c-2.4,14.9-4.2,30-4.4,45.1c0,2.7-0.6,4.1-3.1,4.8c-2.1,0.5-4.1,1.5-6.3,2
		c-6.4,1.5-12.8,3.1-19.2,4.4c-20.8,3.9-40.9,10.6-61.6,14.7c-9.4,1.9-8.7,2.6-12.9-6.5c-6.1-13.1-14.6-24.7-23.4-36
		c-1.9-2.3-1.4-4.7,0.4-6.5c8.1-8.7,16.1-17.6,26.2-24.2c8.4,4.8,16.6,4.1,24.9-0.4c1.3-0.7,3.1-1.8,4.2,0.1
		c0.8,1.3-0.2,2.7-1.1,3.8c-3.4,4.2-7.7,7.5-12.3,10.3c-1.7,1-3.7,1.4-4.6,3.7c7.6-2.5,14-6.8,18.6-13.6c6-8.9,5.9-8.9,15.5-3.8
		c7.8,4.1,16.2,4.8,24.8,3.8c-3.9-1.8-8.2-1-12.3-1.9c-3.4-0.7-7.3-0.4-9.6-3.8c-0.1-0.6,0.1-1.1,0.6-1.5c0.9-0.6,1.8-0.9,2.8-0.8
		c8.1,0.3,14-3.4,18.5-9.9c7.8-0.2,15,3.1,22.4,4.8c2.1,0.5,4.1,1.3,6.2,2C176,57.2,176.4,57.9,175.3,64.9z"/>
	<path class="st18" d="M141.7,33c9.1,3.9,18.9,5.9,28.1,9.4c2.7,1,5.4,2.4,8.5,2.5c2,1.8,4.7,1.7,7,2.7c2,0.9,2.9,2.3,0.9,3.9
		c-2.3,1.8-3.2,5-6.2,6c-13.3-3-26.1-7.7-39.4-10.8c-1.4-2.9,0.1-5.8-0.3-8.7C140.7,36.4,140.3,34.5,141.7,33z"/>
	<path class="st19" d="M71.1,63c-7.9,7.8-16.5,14.9-24,23.1c-1.9,2.1-4.1,3.9-2.8,7.2c-1.1-0.3-1.5-1.2-1.8-2.2
		c-0.5-2-1.5-1.2-2.5-0.5c-0.3,0.4-0.6,0.9-1,1.4c-0.8,0.2-1.5,0.3-2.3,0.5c-0.5-0.3-0.9-0.6-1.4-0.8h-0.1c-0.1-0.4-0.1-0.8-0.2-1.2
		c10.2-8.3,18.8-18.3,28.8-26.7c1.7-1.4,3-3.2,5.5-3.4C70.8,60.6,71.5,61.5,71.1,63z"/>
	<path class="st20" d="M141.2,46.6c5.7-0.4,10.8,1.8,16.1,3.3c7.7,2.2,15.7,3.8,22.8,7.8c-1.6,0.4-4-0.3-3.3,3
		c0.3,1.4-0.1,3.1-1.4,4.2c-0.1-0.4-0.3-0.8-0.2-1.2c0.6-5.9-0.3-5.2-5.1-6.8c-9.4-3.1-19.1-5.5-28.7-7.9
		C140.5,48.2,140.3,47.4,141.2,46.6z"/>
	<path class="st21" d="M39.1,91.9c0.3-0.5,0.6-0.9,1-1.4C39.7,91,39.4,91.4,39.1,91.9z"/>
	<path class="st21" d="M35.4,91.6c0.5,0.3,1,0.5,1.4,0.8C36.3,92.1,35.9,91.8,35.4,91.6z"/>
	<path class="st22" d="M141.2,46.6c0,0.8,0,1.6,0,2.5c-3.3,8-9.9,10.7-18,10.7c-1.4,0-2.7-0.2-4.1,0.2v-0.1c2.5,2.8,6,2.7,9.3,3.1
		c3.9,0.4,7.9,0.6,11.9,0.8c1.8,0.1,4-0.2,3.9,2.3c-0.1,2.2-2.3,2.6-4.1,2.6c-6.7-0.1-13.5-0.3-20-2.6c-3.8-1.3-7.2-3.4-10.4-5.7
		c-2.2-1.5-3.7-1.7-4.9,1.3c-4,10.1-12.4,15.7-21.7,20.2c-0.7,0.3-1.5,0.6-2.2,0.6c-1,0-1.9-0.5-2.4-1.5c-0.4-1-0.2-2,0.8-2.6
		c1.4-0.8,2.8-1.6,4.2-2.3c5.7-2.7,10.3-6.7,14.5-11.2c0.6-0.7,1.4-1.4,1-2.7c-9.2,4-18.5,9.6-28,0.8c-0.4-1-0.9-1.7-1.9-2.2
		c-4.2-3-6.5-6.8-5-12.2v-0.2c0.4-0.7,0.2-1.5,0.3-2.3c0.2-7.3,1-8.2,8.5-9.1c7.1-2.1,12.3,0.9,16.6,6.2c1.5,1.3,3.1,2.4,4.6,3.7
		c2.3,2,4.4,2.3,7.5,0.7c4.7-2.4,9.9-3.9,13.1-8.5c2-3.8,4.8-7,7.5-10.2c0.4-0.3,0.8-0.6,1.3-0.9c0.4-0.3,0.9-0.6,1.4-0.8
		c1.5-0.6,3.3-4.2,4.3,0.4c-0.1,0.5-0.2,1.1-0.4,1.6s-0.4,1-0.6,1.5c-1.9,4.3-4.6,8-7.7,11.4c-1.3,1.7-2.5,3.6-3.9,5.2
		c-3.5,4-3.3,4.3,2.1,5.4c9.2,1.8,12.8,0.6,16.8-5.9c0.1-0.6,0.2-1.1,0.3-1.7c0.3-3.3-0.2-6.6,0.4-9.9c0.5-1.6,0.8-4.1,3-3.5
		c2.6,0.8,2.1,3.7,2.1,5.9C142.6,40.8,141.3,43.7,141.2,46.6z"/>
	<path class="st23" d="M123.5,29.4c-2.7,3.3-5.3,6.6-7.4,10.3c-0.3,0-0.5-0.1-0.8-0.1c-1-0.3-1.9-0.5-2.8-1
		c-9.2-4.8-16.9-3.2-22.9,5.4c-0.2,0.2-0.5,0.3-0.7,0.4c-4.1-5.1-9.4-7.5-15.9-7.4c3.6-0.4,6.2-2.4,8.6-4.8
		c3.6-3.5,7.1-6.9,10.7-10.4c2.2-2.1,4.2-2.5,7.4-1.4c8,2.8,16.1,5.7,24.6,6.9c0.1,0.2,0.2,0.5,0.3,0.7l-0.1,0.1
		C124.2,28.6,123.9,29.1,123.5,29.4z"/>
	<path class="st23" d="M64.1,48.6c0.6,4.5,3.3,8.1,5,12.2C59.7,69.2,50.3,77.7,41.7,87c-1.8,1.9-3.9,3.3-6.7,3.4
		c-0.3-0.3-0.5-0.6-0.8-0.9c-5.9-4.3-5.8-4.2-1-9.7C42.9,68.8,53.7,58.9,64.1,48.6z"/>
	<path class="st24" d="M124.6,28.1c-0.1-0.2-0.2-0.5-0.3-0.7c7.7-7.9,14.1-5.8,17.4,5.7c-0.1,1.6,1.1,3.3-0.2,4.9
		c-0.7-1.7-0.4-3.9-2-5.2c-2,0.7-0.9,2.7-2,3.6c-1.5-0.6-1.9-2.1-2.4-3.4c-0.5-3-2.1-4.5-5.3-3.9c-0.5,0-1-0.2-1.5-0.5
		c0.1-1.3,0.5-3-1.7-1.4C126,27.5,125.3,27.8,124.6,28.1z"/>
	<path class="st23" d="M64.5,46.2c0.5,0.9,0.4,1.6-0.3,2.3C63.8,47.7,63.8,46.9,64.5,46.2z"/>
	<path class="st25" d="M78,117.8c-0.2,0-1.7,0.4-3.3,0.5c-3.8,0.1-5.2-0.9-6.5-4.6c-0.8-2.2-1.9-4.4-2.5-6.6
		c-1.6-5.4,0.7-8.7,6.3-8.5c3.3,0.1,6.6,0.9,10,0.6c0.4,0,0.8,0.2,1.1,0.3c3,1.1,5.5,6.4,5.2,11.2c-0.2,3.2-1.8,5.1-5.5,6.2
		C81.8,117.1,80.6,117.3,78,117.8z"/>
	<path class="st26" d="M115.2,109.2c1.2,5,0.3,9.4-4.2,12.6c-2.5,1.8-5.1,2-7.9,0.6c-0.7-0.3-1.4-0.8-2-1.2
		c-2.2-1.7-6.1-2.1-6.1-5.2c0-4.1,1.1-8.3,4-11.6c1.5-1.7,3.3-2.1,5.4-1.2c2.2,1,4.5,1.5,6.9,1.7
		C113.8,105.2,115.2,106.5,115.2,109.2z"/>
	<path class="st27" d="M136.9,47.4c-1.7,5.4-5.8,7.5-11.2,7.7c-4.2,0.1-8.2-0.6-12.1-2.1c-2.5-0.9-2.6-2.4-0.7-3.8
		c3-2.1,4.8-5.2,7-8c0.3,0.1,0.5,0.1,0.8,0.2C126,43.8,131.9,44.4,136.9,47.4z"/>
	<path class="st28" d="M116.1,39.8c-1.9,2-3.8,4-5.8,5.9c-1,1-2,2-3.6,1.6c-2-0.5-3.4,0.6-4.8,1.8c-2.7,2.2-4.6,2.2-7.6,0
		c-1.9-1.4-3.6-3.1-5.4-4.6l0.1-0.2c1.4-1.7,3.4-2.7,4.9-4.3c3.6-4,8-4.6,12.9-2.9c3,1,6,1.7,9,2.5L116.1,39.8z"/>
	<path class="st29" d="M87.2,48.4c2.7,1.9,5.5,3.8,8.2,5.7c2.5,1.8,2.7,2.5,0,4.3c-7.7,5.3-12.7,6.9-20.6,0.1
		c0.1-0.3,0.2-0.5,0.3-0.8C79.5,55.3,81.5,49.5,87.2,48.4z"/>
	<path class="st30" d="M136.4,31.8c0.4,1.5,0.7,3,1.1,4.5c-0.1,3.2-0.1,6.5-0.2,9.7c-5.9-1-11.3-3.5-17.2-4.7l-0.2-0.1
		c3-3.4,5.7-7,7.5-11.2c0.2-0.5,0.6-1,0.8-1.5l0,0c0.3,0,0.7,0,1,0C131.8,29.3,134.3,30.1,136.4,31.8z"/>
	<path class="st31" d="M74.7,58.6c-2.9-4.1-4.5-8.7-5.2-13.6c-0.3-2.3,0.4-3.7,3.2-3.7c5,0,9.3,1.5,12.8,5.1
		c-2.8,4.7-7.5,7.7-10.6,12.1L74.7,58.6z"/>
	<path class="st32" d="M120.2,41.4c0.9-0.3,2-0.9,2.8-0.7c4.9,1.4,10.3,1.6,14.4,5.4c-0.1,0.4-0.3,0.9-0.4,1.3
		c-5.5-0.2-10.4-2.6-15.5-4.2C120.6,43,120.3,42.2,120.2,41.4z"/>
	<path class="st33" d="M74.8,58.4c-0.3-1-0.5-2,0.3-2.7c3.4-3.2,6-7.1,10.3-9.3c0.6,0.7,1.2,1.4,1.8,2.1c-2.3,2.3-4.6,4.6-7,6.9
		C78.6,56.7,77.2,58.4,74.8,58.4z"/>
	<path class="st17" d="M119.2,59.8c-0.5,0-1.1,0-1.6-0.1C118.2,58.5,118.7,59.5,119.2,59.8L119.2,59.8z"/>
	<path class="st24" d="M128.3,28.5c-0.3,0.5-0.6,1-0.8,1.5C127.8,29.5,128,29,128.3,28.5z"/>
	<path class="st24" d="M123.5,29.4c0.4-0.4,0.7-0.9,1.1-1.3C124.4,28.8,124.1,29.2,123.5,29.4z"/>
	<path class="st20" d="M115.8,39.6c-1.7,0.9-3.3,0.9-5.1,0.2c-1.8-0.7-3.8-1.1-5.7-1.7c-3.7-1.1-6.8-0.6-9.6,2.3
		c-1.7,1.8-3.4,4-6.4,3.7c2.7-7.4,9.6-11.3,16.4-9.3c2.7,0.8,5.3,1.7,8,2.4C114.6,37.7,115.6,38.2,115.8,39.6z"/>
	<path class="st34" d="M136.4,31.8c-2.7-0.3-5.8,0-7.1-3.3C133.6,26.4,134.4,26.7,136.4,31.8z"/>
	<path class="st35" d="M76.5,105.8c0.9-0.4,1.8-1,2.7-1.1c1.2-0.1,2.4,0.5,2.7,1.8c0.3,1.1-0.6,1.8-1.6,2.1
		c-1.4,0.4-2.6,0.8-1.9,2.8c0.4,1.2-0.3,2.4-1.8,2.5c-1.4,0.1-2.2-0.8-2.5-2c-0.4-1.3-0.7-2.7-1-4C74.1,106.8,75.5,106.6,76.5,105.8
		z"/>
	<path class="st36" d="M76.5,105.8c0.4,3.1-1.6,2.4-3.3,2c-0.1-0.4-0.1-0.8-0.2-1.2C73.9,105.6,75.1,105.4,76.5,105.8L76.5,105.8z"
		/>
	<path class="st35" d="M76.5,105.8c-1.2,0.3-2.4,0.6-3.5,0.8C73.7,104.8,75,104.6,76.5,105.8z"/>
	<path class="st37" d="M102.7,113.7c-1.1-1.3-2.9-2.4-1-4.4c0.6-0.6,1.6-0.5,2.1,0.1c1.6,1.9,0.4,3.2-1.3,4.2L102.7,113.7z"/>
	<path class="st38" d="M108.5,112.4c1.1,0,2,0.4,2,1.6c0.1,1.2-0.8,1.9-1.9,1.8c-1-0.1-1.9-0.8-1.8-2
		C107,112.9,107.6,112.4,108.5,112.4z"/>
	<path class="st39" d="M102.6,113.7c0.1,0.1,0.3,0.3,0.4,0.4c1.2,1,2.5,2.1,0.9,3.8c-0.6,0.6-1.5,0.3-2.1-0.3
		C100.3,116,101.4,114.8,102.6,113.7C102.7,113.7,102.6,113.7,102.6,113.7z"/>
</g>
<g>
	<path class="st40" d="M97.8,220.4c-3,0.7-4.1,2.6-4.1,5.6c-0.1,3.5-1.4,6.7-3.4,9.7c-6.2,8.8-18.6,10-26,2.1
		c-2.4-2.6-4.2-2.9-7-1.6c-1.5,0.7-3.1,1-4.7,1.4c-10.9,2.4-17.9-1.6-20.9-12.3c-1.8-6.5-3.4-12.9-6-19.3
		c-3.7-9.3,3.2-21.1,13.2-23.5c4-0.9,5.7-2.7,6.6-6.5c1.3-5.2,5.1-8.8,9.3-11.8c3.7-2.6,8.1-2.6,12.1-1.4
		c9.4,2.7,16.2,8.3,17.9,18.5c0.4,2.6,1.5,3.8,4,4.3c4.5,1,8.6,3.1,11.6,6.8c6.6,8.2,5.9,19.2-1.6,26.7
		C98.4,219.5,98.1,220,97.8,220.4l0.2,0.2L97.8,220.4z"/>
	<path class="st41" d="M56.3,206.5h-0.5l-0.5-0.1c0.6-3,3.4-3.2,5.5-4.4c3.1-4.8,2.8-9.9,0.8-14.9c-0.7-1.7-1.1-3.2,0.7-4.2
		c1.8-1.1,3.1-0.1,4.2,1.3c0.8,1,0.6,2-0.1,3c-2.6,3.8-1.3,8.1-1.2,12.2c0.1,2.4,2.1,3.1,3.8,1.5c1.8-1.7,4-3.1,4.8-5.7
		c1.5-4.7,2-4.8,6.9-3c-2,1.5-3.1,3,0,4.5c-3.2,1.4-7.1,1.4-9.2,4.9c-0.6,1.1-2.2,1.8-1.6,3.2c0.6,1.6,2.3,1.5,3.8,1.5
		c2.5,0,5,0.2,7.3-1.5c1.8-1.2,3.6,0,4.6,1.6c0.9,1.4,0.3,2.8-0.8,3.9c-0.9,0.9-2.2,1.4-2.9,0.5c-3.1-3.9-7.1-2.6-11-2.4
		c-1.1,0.1-2.2,0.2-3.3,0.2c-3.6,4.5-6,4.2-8.2-1.1c-0.6-0.1-1.3-0.3-1.9-0.4C57.1,207,56.7,206.8,56.3,206.5z"/>
	<path class="st42" d="M59.5,207.6c3.3,4.2,3.8,4.3,8.2,1.1c1.3,3.8,7,9.6,10.8,10.8c1.9,0.6,3.7,0.9,2.1,3.5c-1.5-0.3-3-0.6-4.5,0
		c-2.3-4.9-6-8.3-11-11.2c-1.5,4.7-1.2,9,0.3,13.2c-1.2,0.5-2.3,0.6-3.5,0c0-4.1,0-8.2,0-13c-5.3,2.8-8.8,6.3-11.4,10.7
		c-0.5,0.8-0.5,1.8-1,2.5c-0.9,1.2-2.2,1.1-3.5,0.8c-1.2-0.2-1.9-1.2-2-2.3c-0.2-1.4,0.4-2.8,1.8-2.9c3.4-0.2,4.8-3,7-4.9
		c1.6-1.4,3.2-3,5-4.3C59.3,210.7,59.9,209.4,59.5,207.6z"/>
	<path class="st43" d="M60.8,202.1c-1.4,2-3.6,3-5.5,4.4c-2.5,0-5.1,0-7.6,0c-0.7-0.7-0.7-1.4,0-2.2c2.6,0,5.3,0,8.4,0
		c-1.8-3.5-4.8-5-6.3-7.6c-0.1-1.7-0.4-3.4,1.2-4.6C53.2,196.5,55.8,200.4,60.8,202.1z"/>
	<path class="st44" d="M47.7,204.3c0,0.7,0,1.4,0,2.2c-0.6,0.4-1.2,0.8-1.8,1.2c-1.3,1-2.7,1.3-3.8-0.1c-1.2-1.4-1.3-3,0-4.5
		c1.2-1.3,2.6-1,3.9-0.1C46.5,203.5,47.1,203.9,47.7,204.3z"/>
	<path class="st45" d="M51,192.1c-0.3,1.5,0.5,3.4-1.2,4.6c-0.5-0.2-1-0.5-1.5-0.7c-1.4-0.5-2.9-0.8-2.8-2.8c0.1-1.4,0.7-2.5,2-2.9
		C49.2,189.7,50.3,190.6,51,192.1z"/>
	<path class="st46" d="M80.7,196.7c-1.7-0.5-4.8,1-5-1.3c-0.3-2.7,2.6-3.2,5-3.3C83,193.7,82.9,195.2,80.7,196.7z"/>
	<path class="st41" d="M61.9,225.1c1.2-0.8,2.3-0.6,3.5,0c1.3,1.3,1,2.5-0.1,3.7c-0.7,0.7-1.6,0.9-2.4,0.4
		C61.2,228.2,61,226.7,61.9,225.1z"/>
	<path class="st47" d="M76.1,223c1.4-3,2.1-3,4.5,0C78.7,226,77.8,226,76.1,223z"/>
	<path class="st43" d="M56.3,206.5c0.4,0.2,0.8,0.5,1.2,0.7C56.9,207.3,56.6,207,56.3,206.5z"/>
</g>
</svg>
