<?xml version="1.0" encoding="utf-8"?>
<!-- Generator: Adobe Illustrator 21.1.0, SVG Export Plug-In . SVG Version: 6.00 Build 0)  -->
<svg version="1.1" id="圖層_1" xmlns="http://www.w3.org/2000/svg" xmlns:xlink="http://www.w3.org/1999/xlink" x="0px" y="0px"
	 viewBox="0 0 330 376" style="enable-background:new 0 0 330 376;" xml:space="preserve">
<style type="text/css">
	.st0{fill:#FFC729;}
	.st1{opacity:0.5;enable-background:new    ;}
	.st2{clip-path:url(#SVGID_2_);}
	.st3{fill:#C6A160;}
	.st4{fill:#FFFFFF;stroke:#FFFFFF;stroke-width:3;stroke-linecap:round;stroke-linejoin:round;stroke-miterlimit:10;}
	.st5{fill:#FFFFFF;}
</style>
<g>
	<g>
		<path class="st0" d="M303.6,359.1H26.3c-4.7,0-8.6-3.9-8.6-8.6V92.3c0-2.1,0.8-4,2.1-5.6l57.2-66.8c1.6-1.9,4-3,6.5-3h162.8
			c2.5,0,4.9,1.1,6.5,3l57.2,66.8c1.4,1.5,2.1,3.5,2.1,5.6v258.3C312.1,355.3,308.3,359.1,303.6,359.1z"/>
	</g>
	<g class="st1">
		<g>
			<g>
				<g>
					<defs>
						<path id="SVGID_1_" d="M303.6,359.1H26.3c-4.7,0-8.6-3.9-8.6-8.6V92.3c0-2.1,0.8-4,2.1-5.6l57.2-66.8c1.6-1.9,4-3,6.5-3h162.8
							c2.5,0,4.9,1.1,6.5,3l57.2,66.8c1.4,1.5,2.1,3.5,2.1,5.6v258.3C312.1,355.3,308.3,359.1,303.6,359.1z"/>
					</defs>
					<clipPath id="SVGID_2_">
						<use xlink:href="#SVGID_1_"  style="overflow:visible;"/>
					</clipPath>
					<g class="st2">
						<path class="st3" d="M297.7,270.9c-3.9-5.5-11.3-7-17.1-3.8c0-1.3-0.3-2.7-0.7-3.9c-2.2-6.9-9.7-10.7-16.6-8.5
							c-6.4,2.1-10.1,8.6-8.9,15.1c-1.3-0.4-2.6-0.6-3.9-0.6c-7.3,0-13.2,5.9-13.2,13.2c0,6.8,5,12.3,11.6,13.1
							c-0.8,1-1.4,2.2-1.8,3.6c-2.2,6.9,1.5,14.4,8.5,16.6c6.4,2.1,13.3-1,16-7c0.8,1,1.7,2,2.8,2.8c5.9,4.3,14.1,3,18.4-2.9
							c3.9-5.5,3.2-12.9-1.7-17.4c1.2-0.4,2.5-1,3.6-1.8C300.7,285.1,301.9,276.8,297.7,270.9z M283.7,290.3
							c-0.3,1.4-1.7,2.2-3.2,1.9c-1.2-0.3-2-1.3-2-2.5l-7.9-1.9l2.3,7.8c1.1,0,2.2,0.7,2.6,1.9c0.4,1.4-0.3,2.8-1.8,3.3
							c-1.4,0.4-2.8-0.3-3.3-1.8c-0.3-1.1,0.2-2.3,1.1-2.9l-2.3-7.8l-5.6,5.8c0.6,0.9,0.5,2.3-0.3,3.2c-1,1-2.7,1.1-3.7,0.1
							c-1-1-1.1-2.7-0.1-3.7c0.9-0.9,2.1-1,3.1-0.5l5.6-5.8l-7.9-1.9c-0.5,1-1.7,1.5-2.9,1.3c-1.4-0.3-2.2-1.7-1.9-3.2
							c0.3-1.4,1.7-2.2,3.2-1.9c1.2,0.3,2,1.3,2,2.5l7.9,1.9l-2.3-7.8c-1.1,0-2.2-0.7-2.6-1.9c-0.4-1.4,0.3-2.8,1.8-3.3
							c1.4-0.4,2.8,0.3,3.3,1.8c0.3,1.1-0.2,2.3-1.1,2.9l2.3,7.8l5.6-5.8c-0.6-0.9-0.5-2.3,0.3-3.2c1-1,2.7-1.1,3.7-0.1
							c1,1,1.1,2.7,0.1,3.7c-0.9,0.9-2.1,1-3.1,0.5l-5.6,5.9l7.9,1.9c0.5-1,1.7-1.5,2.9-1.3C283.2,287.4,284.1,288.8,283.7,290.3z"
							/>
						<path class="st3" d="M174.2,338.1c-3.9-5.5-11.3-7-17.1-3.8c0-1.3-0.3-2.7-0.7-3.9c-2.2-6.9-9.7-10.7-16.6-8.5
							c-6.4,2.1-10.1,8.6-8.9,15.1c-1.3-0.4-2.6-0.6-3.9-0.6c-7.3,0-13.2,5.9-13.2,13.2c0,6.8,5,12.3,11.6,13.1
							c-0.8,1-1.4,2.2-1.8,3.6c-2.2,6.9,1.5,14.4,8.5,16.6c6.4,2.1,13.3-1,16-7c0.8,1,1.7,2,2.8,2.8c5.9,4.3,14.1,3,18.4-2.9
							c3.9-5.5,3.2-12.9-1.7-17.4c1.2-0.4,2.5-1,3.6-1.8C177.2,352.2,178.5,344,174.2,338.1z M160.3,357.3c-0.3,1.4-1.7,2.2-3.2,1.9
							c-1.2-0.3-2-1.3-2-2.5l-7.9-1.9l2.3,7.8c1.1,0,2.2,0.7,2.6,1.9c0.4,1.4-0.3,2.8-1.8,3.3c-1.4,0.4-2.8-0.3-3.3-1.8
							c-0.3-1.1,0.2-2.3,1.1-2.9l-2.3-7.8l-5.6,5.8c0.6,0.9,0.5,2.3-0.3,3.2c-1,1-2.7,1.1-3.7,0.1c-1-1-1.1-2.7-0.1-3.7
							c0.9-0.9,2.1-1,3.1-0.5l5.6-5.8l-7.9-1.9c-0.5,1-1.7,1.5-2.9,1.3c-1.4-0.3-2.2-1.7-1.9-3.2c0.3-1.4,1.7-2.2,3.2-1.9
							c1.2,0.3,2,1.3,2,2.5l7.9,1.9l-2.3-7.8c-1.1,0-2.2-0.7-2.6-1.9c-0.4-1.4,0.3-2.8,1.8-3.3c1.4-0.4,2.8,0.3,3.3,1.8
							c0.3,1.1-0.2,2.3-1.1,2.9l2.3,7.8l5.6-5.8c-0.6-0.9-0.5-2.3,0.3-3.2c1-1,2.7-1.1,3.7-0.1c1,1,1.1,2.7,0.1,3.7
							c-0.9,0.9-2.1,1-3.1,0.5l-5.6,5.8l7.9,1.9c0.5-1,1.7-1.5,2.9-1.3C159.7,354.6,160.6,356,160.3,357.3z"/>
						<path class="st3" d="M235.5,9.3c-3.9-5.5-11.3-7-17.1-3.8c0-1.3-0.3-2.7-0.7-3.9c-2.2-6.9-9.7-10.7-16.6-8.5
							c-6.4,2.1-10.1,8.6-8.9,15.1c-1.3-0.4-2.6-0.6-3.9-0.6c-7.3,0-13.2,5.9-13.2,13.2c0,6.8,5,12.3,11.6,13.1
							c-0.8,1-1.4,2.2-1.8,3.6c-2.2,6.9,1.5,14.4,8.5,16.6c6.4,2.1,13.3-1,16-7c0.8,1,1.7,2,2.8,2.8c5.9,4.3,14.1,3,18.4-2.9
							c3.9-5.5,3.2-12.9-1.7-17.4c1.2-0.4,2.5-1,3.6-1.8C238.5,23.5,239.8,15.2,235.5,9.3z M221.6,28.7c-0.3,1.4-1.7,2.2-3.2,1.9
							c-1.2-0.3-2-1.3-2-2.5l-7.9-1.9l2.3,7.8c1.1,0,2.2,0.7,2.6,1.9c0.4,1.4-0.3,2.8-1.8,3.3c-1.4,0.4-2.8-0.3-3.3-1.8
							c-0.3-1.1,0.2-2.3,1.1-2.9l-2.3-7.8l-5.6,5.8c0.6,0.9,0.5,2.3-0.3,3.2c-1,1-2.7,1.1-3.7,0.1c-1-1-1.1-2.7-0.1-3.7
							c0.9-0.9,2.1-1,3.1-0.5l5.6-5.8l-7.9-1.9c-0.5,1-1.7,1.5-2.9,1.3c-1.4-0.3-2.2-1.7-1.9-3.2c0.3-1.4,1.7-2.2,3.2-1.9
							c1.2,0.3,2,1.3,2,2.5l7.9,1.9l-2.3-7.8c-1.1,0-2.2-0.7-2.6-1.9c-0.4-1.4,0.3-2.8,1.8-3.3c1.4-0.4,2.8,0.3,3.3,1.8
							c0.3,1.1-0.2,2.3-1.1,2.9l2.3,7.8l5.6-5.8c-0.6-0.9-0.5-2.3,0.3-3.2c1-1,2.7-1.1,3.7-0.1c1,1,1.1,2.7,0.1,3.7
							c-0.9,0.9-2.1,1-3.1,0.5l-5.6,5.9l7.9,1.9c0.5-1,1.7-1.5,2.9-1.3C221.1,25.9,221.9,27.2,221.6,28.7z"/>
						<path class="st3" d="M297.7,102.9c-3.9-5.5-11.3-7-17.1-3.8c0-1.3-0.3-2.7-0.7-3.9c-2.2-6.9-9.7-10.7-16.6-8.5
							c-6.4,2.1-10.1,8.6-8.9,15.1c-1.3-0.4-2.6-0.6-3.9-0.6c-7.3,0-13.2,5.9-13.2,13.2c0,6.8,5,12.3,11.6,13.1
							c-0.8,1-1.4,2.2-1.8,3.6c-2.2,6.9,1.5,14.4,8.5,16.6c6.4,2.1,13.3-1,16-7c0.8,1,1.7,2,2.8,2.8c5.9,4.3,14.1,3,18.4-2.9
							c3.9-5.5,3.2-12.9-1.7-17.4c1.3-0.4,2.5-1,3.6-1.8C300.6,117.1,301.9,108.8,297.7,102.9z M283.7,122.2
							c-0.3,1.4-1.7,2.2-3.2,1.9c-1.2-0.3-2-1.3-2-2.5l-7.9-1.9l2.3,7.8c1.1,0,2.2,0.7,2.6,1.9c0.4,1.4-0.3,2.8-1.8,3.3
							c-1.4,0.4-2.8-0.3-3.3-1.8c-0.3-1.1,0.2-2.3,1.1-2.9l-2.3-7.8l-5.6,5.8c0.6,0.9,0.5,2.3-0.3,3.2c-1,1-2.7,1.1-3.7,0.1
							c-1-1-1.1-2.7-0.1-3.7c0.9-0.9,2.1-1,3.1-0.5l5.6-5.8l-7.9-1.9c-0.5,1-1.7,1.5-2.9,1.3c-1.4-0.3-2.2-1.7-1.9-3.2
							c0.3-1.4,1.7-2.2,3.2-1.9c1.2,0.3,2,1.3,2,2.5l7.9,1.9l-2.3-7.8c-1.1,0-2.2-0.7-2.6-1.9c-0.4-1.4,0.3-2.8,1.8-3.3
							c1.4-0.4,2.8,0.3,3.3,1.8c0.3,1.1-0.2,2.3-1.1,2.9l2.3,7.8l5.6-5.8c-0.6-0.9-0.5-2.3,0.3-3.2c1-1,2.7-1.1,3.7-0.1
							c1,1,1.1,2.7,0.1,3.7c-0.9,0.9-2.1,1-3.1,0.5l-5.6,5.9l7.9,1.9c0.5-1,1.7-1.5,2.9-1.3C283.1,119.4,284.1,120.8,283.7,122.2z"
							/>
						<path class="st3" d="M246.7,187.2c-3.9-5.5-11.3-7-17.1-3.8c0-1.3-0.3-2.7-0.7-3.9c-2.2-6.9-9.7-10.7-16.6-8.5
							c-6.4,2.1-10.1,8.6-8.9,15.1c-1.3-0.4-2.6-0.6-3.9-0.6c-7.3,0-13.2,5.9-13.2,13.2c0,6.8,5,12.3,11.6,13.1
							c-0.8,1-1.4,2.2-1.8,3.6c-2.2,6.9,1.5,14.4,8.5,16.6c6.4,2.1,13.3-1,16-7c0.8,1,1.7,2,2.8,2.8c5.9,4.3,14.1,3,18.4-2.9
							c3.9-5.5,3.2-12.9-1.7-17.4c1.2-0.4,2.4-1,3.6-1.8C249.7,201.3,251,193,246.7,187.2z M232.7,206.5c-0.3,1.4-1.7,2.2-3.2,1.9
							c-1.2-0.3-2-1.3-2-2.5l-7.9-1.9l2.3,7.8c1.1,0,2.2,0.7,2.6,1.9c0.4,1.4-0.3,2.8-1.8,3.3c-1.4,0.4-2.8-0.3-3.3-1.8
							c-0.3-1.1,0.2-2.3,1.1-2.9l-2.3-7.8l-5.6,5.9c0.6,0.9,0.5,2.3-0.3,3.2c-1,1-2.7,1.1-3.7,0.1c-1-1-1.1-2.7-0.1-3.7
							c0.9-0.9,2.1-1,3.1-0.5l5.6-5.8l-7.9-1.9c-0.5,1-1.7,1.5-2.9,1.3c-1.4-0.3-2.2-1.7-1.9-3.2c0.3-1.4,1.7-2.2,3.2-1.9
							c1.2,0.3,2,1.3,2,2.5l7.9,1.9l-2.3-7.8c-1.1,0-2.2-0.7-2.6-1.9c-0.4-1.4,0.3-2.8,1.8-3.3c1.4-0.4,2.8,0.3,3.3,1.8
							c0.3,1.1-0.2,2.3-1.1,2.9l2.3,7.8l5.6-5.8c-0.6-0.9-0.5-2.3,0.3-3.2c1-1,2.7-1.1,3.7-0.1c1,1,1.1,2.7,0.1,3.7
							c-0.9,0.9-2.1,1-3.1,0.5l-5.6,5.8l7.9,1.9c0.5-1,1.7-1.5,2.9-1.3C232.2,203.7,233.1,205.1,232.7,206.5z"/>
						<path class="st3" d="M35.2,289.4c1.1,0.8,2.3,1.5,3.6,1.8c-4.8,4.4-5.6,12-1.7,17.4c4.3,5.9,12.6,7.2,18.4,2.9
							c1.1-0.8,2.1-1.8,2.8-2.8c2.7,6,9.6,9.1,16,6.9c6.9-2.2,10.7-9.7,8.5-16.6c-0.4-1.3-1-2.5-1.8-3.6c6.5-0.8,11.6-6.3,11.6-13.1
							c0-7.3-5.9-13.2-13.2-13.2c-1.4,0-2.7,0.3-3.9,0.6c1.3-6.4-2.5-13-8.9-15.1c-6.9-2.2-14.4,1.5-16.6,8.5
							c-0.4,1.3-0.6,2.7-0.7,3.9c-5.7-3.2-13.1-1.7-17.1,3.8C28,276.9,29.3,285.1,35.2,289.4z M48.2,287.2c1.2-0.3,2.3,0.3,2.9,1.3
							l7.9-1.9l-5.6-5.8c-1,0.5-2.3,0.3-3.1-0.5c-1-1-0.9-2.7,0.1-3.7c1-1,2.7-0.9,3.7,0.1c0.9,0.9,0.9,2.1,0.3,3.2l5.6,5.8l2.3-7.8
							c-0.9-0.6-1.5-1.8-1.1-2.9c0.4-1.4,1.9-2.1,3.3-1.8c1.4,0.4,2.1,1.9,1.8,3.3c-0.3,1.1-1.4,1.9-2.6,1.9l-2.3,7.8l7.9-1.9
							c0-1.1,0.9-2.1,2-2.5c1.4-0.3,2.8,0.5,3.2,1.9c0.3,1.4-0.5,2.8-1.9,3.2c-1.2,0.3-2.3-0.3-2.9-1.3l-7.9,1.9l5.6,5.8
							c1-0.5,2.3-0.3,3.1,0.5c1,1,0.9,2.7-0.1,3.7c-1,1-2.7,0.9-3.7-0.1c-0.9-0.9-0.9-2.1-0.3-3.2l-5.6-5.8l-2.3,7.8
							c0.9,0.6,1.5,1.8,1.1,2.9c-0.4,1.4-1.9,2.1-3.3,1.8c-1.4-0.4-2.1-1.9-1.8-3.3c0.3-1.1,1.4-1.9,2.6-1.9l2.3-7.8l-7.9,1.9
							c0,1.1-0.9,2.1-2,2.5c-1.4,0.3-2.8-0.5-3.2-1.9C45.9,288.9,46.8,287.5,48.2,287.2z"/>
						<path class="st3" d="M35.2,121.4c1.1,0.8,2.3,1.5,3.6,1.8c-4.8,4.4-5.6,12-1.7,17.4c4.3,5.9,12.6,7.2,18.4,2.9
							c1.1-0.8,2.1-1.8,2.8-2.8c2.7,6,9.6,9.1,16,6.9c6.9-2.2,10.7-9.7,8.5-16.6c-0.4-1.3-1-2.5-1.8-3.6c6.5-0.8,11.6-6.3,11.6-13.1
							c0-7.3-5.9-13.2-13.2-13.2c-1.4,0-2.7,0.2-3.9,0.6c1.3-6.4-2.5-13-8.9-15.1c-6.9-2.2-14.4,1.5-16.6,8.5
							c-0.4,1.3-0.6,2.7-0.7,3.9c-5.7-3.2-13.1-1.7-17.1,3.8C28,108.9,29.2,117.2,35.2,121.4z M48.1,119.1c1.2-0.3,2.3,0.3,2.9,1.3
							l7.9-1.9l-5.6-5.8c-1,0.5-2.3,0.3-3.1-0.5c-1-1-0.9-2.7,0.1-3.7s2.7-0.9,3.7,0.1c0.9,0.9,0.9,2.1,0.3,3.2l5.6,5.8l2.3-7.8
							c-0.9-0.6-1.5-1.8-1.1-2.9c0.4-1.4,1.9-2.1,3.3-1.8c1.4,0.4,2.1,1.9,1.8,3.3c-0.3,1.1-1.4,1.9-2.6,1.9l-2.3,7.8l7.9-1.9
							c0-1.1,0.9-2.1,2-2.5c1.4-0.3,2.8,0.5,3.2,1.9c0.3,1.4-0.5,2.8-1.9,3.2c-1.2,0.3-2.3-0.3-2.9-1.3l-7.9,1.9l5.6,5.8
							c1-0.5,2.3-0.3,3.1,0.5c1,1,0.9,2.7-0.1,3.7c-1,1-2.7,0.9-3.7-0.1c-0.9-0.9-0.9-2.1-0.3-3.2l-5.6-5.8l-2.3,7.8
							c0.9,0.6,1.5,1.8,1.1,2.9c-0.4,1.4-1.9,2.1-3.3,1.8c-1.4-0.4-2.1-1.9-1.8-3.3c0.3-1.1,1.4-1.9,2.6-1.9l2.3-7.8l-7.9,1.9
							c0,1.1-0.9,2.1-2,2.5c-1.4,0.3-2.8-0.5-3.2-1.9C45.8,120.8,46.7,119.5,48.1,119.1z"/>
						<path class="st3" d="M86.2,205.6c1.1,0.8,2.3,1.5,3.6,1.8c-4.8,4.4-5.6,12-1.7,17.4c4.3,5.9,12.6,7.2,18.4,2.9
							c1.1-0.8,2.1-1.8,2.8-2.8c2.7,6,9.6,9.1,16,6.9c6.9-2.2,10.7-9.7,8.5-16.6c-0.4-1.3-1-2.5-1.8-3.6c6.5-0.8,11.6-6.3,11.6-13.1
							c0-7.3-5.9-13.2-13.2-13.2c-1.4,0-2.7,0.2-3.9,0.6c1.3-6.4-2.5-13-8.9-15.1c-6.9-2.2-14.4,1.5-16.6,8.5
							c-0.4,1.3-0.6,2.7-0.7,3.9c-5.7-3.2-13.1-1.7-17.1,3.8C79,193.1,80.3,201.3,86.2,205.6z M99.2,203.4c1.2-0.3,2.3,0.3,2.9,1.3
							l7.9-1.9l-5.6-5.8c-1,0.5-2.3,0.3-3.1-0.5c-1-1-0.9-2.7,0.1-3.7c1-1,2.7-0.9,3.7,0.1c0.9,0.9,0.9,2.1,0.3,3.2l5.6,5.8l2.3-7.8
							c-0.9-0.6-1.5-1.8-1.1-2.9c0.4-1.4,1.9-2.1,3.3-1.8c1.4,0.4,2.1,1.9,1.8,3.3c-0.3,1.1-1.4,1.9-2.6,1.9l-2.3,7.8l7.9-1.9
							c0-1.1,0.9-2.1,2-2.5c1.4-0.3,2.8,0.5,3.2,1.9c0.3,1.4-0.5,2.8-1.9,3.2c-1.2,0.3-2.3-0.3-2.9-1.3l-7.9,1.9l5.6,5.8
							c1-0.5,2.3-0.3,3.1,0.5c1,1,0.9,2.7-0.1,3.7c-1,1-2.7,0.9-3.7-0.1c-0.9-0.9-0.9-2.1-0.3-3.2l-5.6-5.8l-2.3,7.8
							c0.9,0.6,1.5,1.8,1.1,2.9c-0.4,1.4-1.9,2.1-3.3,1.8c-1.4-0.4-2.1-1.9-1.8-3.3c0.3-1.1,1.4-1.9,2.6-1.9l2.3-7.8l-7.9,1.9
							c0,1.1-0.9,2.1-2,2.5c-1.4,0.3-2.8-0.5-3.2-1.9C96.8,205.1,97.7,203.7,99.2,203.4z"/>
					</g>
				</g>
			</g>
		</g>
	</g>
	<path class="st4" d="M126.7,84.8c-18.7,0-26.5-6.6-27-22.7c-0.3-8.7,3.1-23.5,27.9-24.3c0.2,0,0.3,0,0.5,0c7.1,0,17.2,4.1,23.4,8.1
		l1.9,1.2l1.9-1.2c0.2-0.1,0.3-0.2,0.5-0.2c0.2,0,0.3,0,0.6,0.3l8,7.5c0.3,0.2,0.3,0.5,0.3,0.7v0.7l-0.7,0.2c-0.1,0-0.2,0-0.2,0
		c-0.1,0-0.2,0-0.3-0.1l-0.3-0.1l-6.3-6l-2.1,1c-0.1,0-2.1,0.6-2.1,0.6l-0.4,2c-0.1,0.3-0.2,0.3-0.2,0.4l-8,8.5l-0.6-0.3
		c-0.2-0.1-0.3-0.2-0.3-0.2c-0.3-0.3-0.3-0.9,0-1.2l3.2-3.3l-3.5-2.2c-5.1-3.3-10.3-4.9-15.2-4.9c-0.2,0-0.4,0-0.6,0
		c-13.1,0.3-15.7,6.9-15.5,12.4c0.2,5.6,1.5,11.6,14.6,11.6c0.5,0,0.9,0,1.5,0c5.3-0.2,10.8-2.3,16.3-6.3l2.4-1.7l0.4,0.2
		c0,0,0.1,0,0.1,0.1l1.1,0.7l-1.9,1.5c-4.2,3.3-10.8,7.3-18.3,7.5c-0.4,0-0.9,0-1.4,0c-8,0-16.3-1.5-16.6-13.3
		c-0.1-1.9,0.2-5.5,2.4-8.5c2.7-3.6,7.7-5.6,14.7-5.7c0.3,0,0.4,0,0.7,0c7.2,0,13.5,3.3,17.5,6l2.4,1.6l5.7-6.1l-3.6-2.2
		c-4.4-2.7-14-7.4-21.6-7.4c-0.2,0-0.3,0-0.5,0c-12.2,0.3-26.7,4.5-26.2,22.5c0.3,10.9,3.6,21,25.2,21c0.7,0,1.5,0,2.2,0
		c7.9-0.3,17.9-4.4,23.3-9.7l4-3.9c0.1,0,0.1,0,0.1,0s0.1,0,0.2,0.2l5.4-4.1c-0.1-0.2-0.2-0.3-0.1-0.5l0.1-0.7l0.6-0.1
		c0.1,0,0.1,0,0.2,0c0.1,0,0.3,0,0.3,0.1l0.2,0.1l9.1,8.6l-1.2,0.5c0,0-0.1,0-0.3,0.1l-0.4,0.1l-8.2-7.7c-0.1-0.1-0.1-0.1-0.2-0.2
		l-5.5,4.1c0.1,0.1,0.1,0.2,0.1,0.3l0.3,1l8.6,8.1l0.6-0.3l-1.2,1.1c-0.2,0.2-0.3,0.3-0.5,0.3l0,0c0,0-0.1,0-0.2,0l-2.2-0.4l0.5-1
		l-5.8-5.5l-2.1,3.9c-0.3,0.6-0.6,1.2-0.9,1.8l0.8-4l-6.6,4c-5.7,3.5-13,5.7-18.8,5.9C128.2,84.7,127.5,84.8,126.7,84.8z
		 M201.7,82.7c-5.6,0-12.3-1.7-18-4.6l-7-3.6l1.2,4c-0.8-1.5-1.6-2.7-2.1-3.4l-0.9-6.6l2,2.2c5.6,6.3,17.1,10.2,25,10.2
		c0.3,0,0.4,0,0.7,0c23.6-0.7,26.5-11.2,26.2-22.5c-0.5-17.3-14.2-21-25.7-21c-0.6,0-1.2,0-1.8,0c-7.6,0.3-18.2,5.8-23.3,9.8
		l-0.9,0.7l-2.9,0.3l1.3-1.1c5-4.4,17.1-11.1,25.8-11.3c0.6,0,1.2,0,1.7,0c23.4,0,27.3,14.2,27.6,22.7c0.3,8.3-1.7,14.2-6,18
		c-4.4,3.9-11.6,6-21.9,6.3C202.1,82.7,201.8,82.7,201.7,82.7z M202.3,72.9c-7.7,0-14.5-3.9-19-7.1c-0.1-0.1-0.2-0.2-0.3-0.3
		l-1.8-2.8l3.1,1.7c4.3,3.1,10.8,6.7,17.9,6.7c0.2,0,0.4,0,0.6,0c6.6-0.2,10.8-1.5,13.2-4.1c2.4-2.7,2.3-5.9,2.2-8.3
		c-0.2-5.2-2.9-11.6-15.1-11.6c-0.3,0-0.7,0-1.1,0c-5.7,0.2-11.8,2.7-17.5,7.2l-1.8,1.5l0.7,2.2c0,0.1,0.2,0.5-0.2,0.9l-2.7,2.8l0,0
		l-6.2,6.5l-0.1-1.7c0-0.2,0-0.5,0.2-0.8l8.5-8.9l-0.7-2c0,0,0-0.1,0-0.2l-0.1-0.5l0.4-0.3c4.4-3.8,11.4-8.2,19.6-8.5
		c0.4,0,0.8,0,1.1,0c13.6,0,16.7,7.2,16.9,13.3c0.2,4.7-1,8.1-3.7,10.4c-2.7,2.4-7.3,3.7-13.5,3.9C202.8,72.9,202.5,72.9,202.3,72.9
		z M150.4,67.5c-0.1,0-0.3-0.1-0.3-0.2l-0.9-0.6l8.3-8.7c0.2-0.2,0.3-0.3,0.5-0.3l0.9-0.1l0.1,0.9c0,0.1,0,0.3-0.1,0.5l-0.1,0.1
		l-8,8.4L150.4,67.5z M167.9,60.9l-0.2-0.6c-0.1-0.2,0-0.3,0.1-0.5l0.1-0.2l8.5-9l0.6,1c0.1,0.2,0.1,0.3,0.1,0.3l0.1,0.4l-7.9,8.3
		c-0.2,0.2-0.4,0.3-0.5,0.3L167.9,60.9z M170,48.5c-0.2,0-0.3-0.1-0.5-0.3l-8-7.5c-0.3-0.2-0.3-0.4-0.3-0.6s0-0.4,0.3-0.6
		c0.3-0.3,0.5-0.3,0.6-0.3c0.2,0,0.4,0,0.6,0.3l7.7,7.3l0.2,0.3l2.1,1.4l-2.4,0.2C170.1,48.4,170,48.4,170,48.5z"/>
	<g>
		<path class="st5" d="M58.3,124.2c0.2-0.5,0.5-0.8,1-1c0.3-0.1,0.5-0.2,0.8-0.2c0.2,0,0.4,0,0.6,0.1c0.5,0.2,0.8,0.5,1,0.9
			c0.1,0.2,0.2,0.5,0.2,0.7c0,0.2-0.1,0.4-0.2,0.6c-0.7,1.5-1.3,2.9-2,4.2c-0.1,0.2-0.1,0.3-0.1,0.5v19.4c0,0.5-0.2,0.9-0.5,1.2
			c-0.3,0.3-0.8,0.5-1.2,0.5s-0.9-0.2-1.2-0.5c-0.3-0.3-0.5-0.8-0.5-1.2v-14.1c0,0,0-0.1-0.1-0.1c-0.1,0-0.1,0-0.1,0
			c-0.3,0.3-0.5,0.7-0.8,0.9c-0.3,0.3-0.6,0.5-1,0.5c-0.1,0-0.2,0-0.2,0c-0.5-0.1-0.8-0.3-1.1-0.8c-0.2-0.4-0.4-0.9-0.4-1.4
			c0-0.1,0-0.3,0-0.4c0.1-0.6,0.3-1.1,0.7-1.6C55.3,130.1,57,127.3,58.3,124.2z M80.2,137.7c0.3,0.3,0.5,0.7,0.5,1.2
			s-0.2,0.8-0.5,1.2c-0.3,0.3-0.7,0.5-1.2,0.5h-4.2c-0.1,0-0.1,0-0.1,0.1c0,0.1,0,0.1,0,0.2c1.5,2.1,3.2,3.9,5.3,5.4
			c0.4,0.3,0.6,0.7,0.7,1.2c0,0.1,0,0.1,0,0.2c0,0.4-0.1,0.8-0.4,1.1c-0.4,0.4-0.8,0.6-1.4,0.7c-0.1,0-0.2,0-0.2,0
			c-0.4,0-0.8-0.1-1.1-0.4c-1.7-1.5-3.2-3.3-4.6-5.4c0,0-0.1,0-0.1,0c0,0-0.1,0.1-0.1,0.1v5.8c0,0.5-0.2,0.9-0.5,1.3
			c-0.4,0.4-0.8,0.5-1.3,0.5c-0.5,0-0.9-0.2-1.3-0.5c-0.4-0.4-0.5-0.8-0.5-1.3v-5.7c0,0,0-0.1-0.1-0.1c0,0-0.1,0-0.1,0
			c-1.4,2.1-3.1,3.8-4.9,5.3c-0.3,0.2-0.7,0.4-1.1,0.4c-0.1,0-0.2,0-0.3,0c-0.5-0.1-1-0.3-1.3-0.8c-0.3-0.3-0.4-0.7-0.4-1.1
			c0-0.1,0-0.1,0-0.2c0.1-0.5,0.3-0.9,0.7-1.1c2.2-1.4,4-3.2,5.6-5.4c0-0.1,0-0.1,0-0.2c0,0-0.1-0.1-0.1-0.1h-4.4
			c-0.5,0-0.9-0.2-1.2-0.5c-0.3-0.3-0.5-0.7-0.5-1.2s0.2-0.8,0.5-1.2c0.3-0.3,0.7-0.5,1.2-0.5h6.1c0.2,0,0.3-0.1,0.3-0.3v-2.2
			c0-0.2-0.1-0.3-0.3-0.3h-3.1c-0.7,0-1.3-0.3-1.9-0.8c-0.5-0.5-0.8-1.1-0.8-1.9v-5.3c0-0.7,0.3-1.3,0.8-1.9
			c0.5-0.5,1.1-0.8,1.9-0.8h10.9c0.7,0,1.3,0.3,1.9,0.8c0.5,0.5,0.8,1.1,0.8,1.9v5.3c0,0.7-0.3,1.3-0.8,1.9
			c-0.5,0.5-1.1,0.8-1.9,0.8H73c-0.2,0-0.3,0.1-0.3,0.3v2.2c0,0.2,0.1,0.3,0.3,0.3h6C79.5,137.2,79.9,137.3,80.2,137.7z M66.8,127
			c-0.2,0-0.3,0.1-0.3,0.3v3.5c0,0.2,0.1,0.3,0.3,0.3h8.4c0.2,0,0.3-0.1,0.3-0.3v-3.5c0-0.2-0.1-0.3-0.3-0.3H66.8z"/>
		<path class="st5" d="M93.9,127.6c0.4,0,0.7,0.1,1,0.4c0.3,0.3,0.4,0.6,0.4,1c0,0.4-0.1,0.7-0.4,1c-0.3,0.3-0.6,0.4-1,0.4h-8
			c-0.4,0-0.7-0.1-1-0.4c-0.3-0.3-0.4-0.6-0.4-1c0-0.4,0.1-0.7,0.4-1c0.3-0.3,0.6-0.4,1-0.4H93.9z M91.8,140.3
			c0.7,0,1.3,0.3,1.9,0.8c0.5,0.5,0.8,1.1,0.8,1.9v4c0,0.7-0.3,1.3-0.8,1.9c-0.5,0.5-1.1,0.8-1.9,0.8h-3c-0.1,0-0.1,0-0.1,0.1
			c0,0.3-0.1,0.6-0.3,0.8c-0.2,0.2-0.5,0.3-0.8,0.3h-0.4c-0.4,0-0.7-0.1-1-0.4c-0.3-0.3-0.4-0.6-0.4-1.1V143c0-0.7,0.3-1.3,0.8-1.9
			c0.5-0.5,1.1-0.8,1.9-0.8H91.8z M110.8,135.1C110.8,135.1,110.8,135.1,110.8,135.1l-0.1,4.8c0,0.7-0.3,1.3-0.8,1.9
			c-0.5,0.5-1.1,0.8-1.9,0.8h-0.6c0,0,0,0,0,0c0,0,0,0,0,0c0.6,0.1,1,0.5,1.3,1c0.1,0.3,0.2,0.6,0.2,0.9c0,0.2-0.1,0.5-0.2,0.7
			c-0.3,0.6-0.5,1.2-0.7,1.7c0,0.1,0,0.1,0,0.2c0,0.1,0.1,0.1,0.2,0.1h2.8c0.4,0,0.8,0.2,1.1,0.5c0.3,0.3,0.5,0.7,0.5,1.1
			c0,0.4-0.2,0.8-0.5,1.1c-0.3,0.3-0.7,0.5-1.1,0.5H97.1c-0.4,0-0.8-0.2-1.1-0.5c-0.3-0.3-0.5-0.7-0.5-1.1c0-0.4,0.2-0.8,0.5-1.1
			c0.3-0.3,0.7-0.5,1.1-0.5h2.3c0.1,0,0.1,0,0.2-0.1c0-0.1,0.1-0.1,0-0.2c-0.1-0.5-0.3-1.1-0.5-1.7c-0.1-0.2-0.1-0.4-0.1-0.7
			c0-0.3,0.1-0.6,0.2-0.9c0.2-0.5,0.6-0.8,1.2-1c0,0,0-0.1,0-0.1h-0.5c-0.7,0-1.3-0.3-1.9-0.8c-0.5-0.5-0.8-1.1-0.8-1.9v-4.5
			c0,0,0-0.1,0-0.1c0,0-0.1,0-0.1,0c-0.2,0.1-0.5,0.2-0.7,0.2c-0.1,0-0.2,0-0.3,0c-0.4-0.1-0.7-0.3-0.9-0.6
			c-0.3-0.4-0.6-0.8-0.8-1.1c0,0,0,0-0.1,0c0,0,0,0,0,0c0,0.2-0.1,0.4-0.2,0.6c-0.2,0.2-0.4,0.3-0.6,0.3h-6.3c-0.4,0-0.7-0.1-1-0.4
			c-0.3-0.3-0.4-0.6-0.4-1s0.1-0.7,0.4-1c0.3-0.3,0.6-0.4,1-0.4h6c0.3,0,0.6,0.1,0.8,0.3c0.2,0.2,0.3,0.5,0.3,0.8c0,0,0,0,0,0
			c0,0,0.1,0,0.1,0c1-0.6,2-1.4,2.8-2.3c0.1-0.1,0.1-0.3,0-0.4c-0.2-0.2-0.4-0.4-0.7-0.6c-0.3-0.3-0.5-0.6-0.5-1.1
			c0-0.3,0.1-0.6,0.3-0.8c0.3-0.3,0.6-0.5,1-0.5c0.1,0,0.2,0,0.2,0c0.3,0,0.6,0.1,0.9,0.3c0.2,0.1,0.3,0.2,0.5,0.3
			c0.1,0.1,0.2,0.1,0.3-0.1c0.2-0.4,0.4-0.9,0.6-1.3c0-0.1,0-0.1,0-0.2c0-0.1-0.1-0.1-0.2-0.1h-2.3c-0.4,0-0.7-0.1-1-0.4
			c-0.3-0.3-0.4-0.6-0.4-1c0-0.4,0.1-0.7,0.4-1c0.3-0.3,0.6-0.4,1-0.4h3.9c0,0,0.1,0,0.1,0l0.2,0c0.1,0,0.3,0,0.5,0h0h0c0,0,0,0,0,0
			l0.2,0.1c0.4,0.1,0.8,0.4,1,0.8c0.2,0.3,0.2,0.5,0.2,0.8c0,0.2,0,0.3-0.1,0.5c-0.5,1.7-1.2,3.3-2,4.8c0,0,0,0.1,0,0.2
			c0,0.1,0.1,0.1,0.2,0.1h4.9c0.1,0,0.1,0,0.2-0.1c0-0.1,0-0.1,0-0.2c-0.9-1.6-1.7-3.6-2.4-5.9c0-0.1-0.1-0.3-0.1-0.4
			c0-0.3,0.1-0.5,0.2-0.8c0.2-0.4,0.6-0.6,1-0.7c0.1,0,0.2,0,0.3,0c0.3,0,0.6,0.1,0.9,0.3c0.4,0.2,0.6,0.6,0.8,1
			c0.1,0.2,0.1,0.3,0.2,0.5c0.1,0.2,0.2,0.2,0.3,0.1c0.2-0.2,0.5-0.4,0.7-0.6c0.3-0.2,0.6-0.3,0.9-0.3c0,0,0,0,0.1,0
			c0.4,0,0.7,0.2,0.9,0.4c0.2,0.2,0.3,0.4,0.3,0.7c0,0.1,0,0.1,0,0.2c0,0.3-0.2,0.6-0.5,0.8c-0.7,0.4-1.2,0.7-1.5,0.9
			c-0.2,0.1-0.2,0.2-0.1,0.4c0.2,0.4,0.4,0.7,0.5,1c0.1,0.2,0.2,0.2,0.4,0.1c0.3-0.2,0.5-0.5,0.8-0.7c0.3-0.2,0.6-0.4,1-0.4
			c0,0,0,0,0.1,0c0.4,0,0.7,0.2,1,0.5c0.2,0.2,0.3,0.5,0.3,0.8c0,0.1,0,0.1,0,0.2c0,0.4-0.2,0.6-0.5,0.8c-0.2,0.1-0.4,0.2-0.7,0.4
			c-0.3,0.2-0.5,0.3-0.5,0.3c-0.2,0.1-0.2,0.2-0.1,0.4c0.4,0.5,0.9,0.9,1.4,1.3c0.3,0.3,0.5,0.6,0.6,1.1c0,0.1,0,0.2,0,0.2
			c0,0.4-0.1,0.7-0.4,1c-0.3,0.3-0.5,0.6-0.7,1c-0.1,0.1-0.2,0.2-0.4,0.3C111.1,135.2,111,135.2,110.8,135.1z M93,136.1
			c0.4,0,0.7,0.1,1,0.4c0.3,0.3,0.4,0.6,0.4,1c0,0.4-0.1,0.7-0.4,1c-0.3,0.3-0.6,0.4-1,0.4h-5.8c-0.4,0-0.7-0.1-0.9-0.4
			c-0.3-0.3-0.4-0.6-0.4-1c0-0.4,0.1-0.7,0.4-1c0.3-0.3,0.6-0.4,0.9-0.4H93z M92.9,123.4c0.4,0,0.7,0.1,1,0.4c0.3,0.3,0.4,0.6,0.4,1
			c0,0.4-0.1,0.7-0.4,1c-0.3,0.3-0.6,0.4-1,0.4h-5.5c-0.4,0-0.7-0.1-1-0.4c-0.3-0.3-0.4-0.6-0.4-1c0-0.4,0.1-0.7,0.4-1
			c0.3-0.3,0.6-0.4,1-0.4H92.9z M91.4,143.5c0-0.2-0.1-0.3-0.3-0.3H89c-0.2,0-0.3,0.1-0.3,0.3v2.9c0,0.2,0.1,0.3,0.3,0.3h2.1
			c0.2,0,0.3-0.1,0.3-0.3V143.5z M101.1,133.6c-0.3,0-0.5-0.1-0.7-0.3c-0.2-0.2-0.3-0.4-0.3-0.7c0,0-0.1,0-0.1,0
			c-0.6,0.8-1.4,1.6-2.1,2.2c0,0-0.1,0.1,0,0.1c0,0,0,0.1,0.1,0.1h12.4c0,0,0.1,0,0.1-0.1c0,0,0-0.1,0-0.1c-1-0.7-1.9-1.6-2.6-2.6
			c0,0,0,0-0.1,0c0,0,0,0,0,0c0,0.4-0.1,0.7-0.4,1c-0.3,0.3-0.6,0.4-1,0.4H101.1z M100.8,137.8c-0.2,0-0.3,0.1-0.3,0.3v1.4
			c0,0.2,0.1,0.3,0.3,0.3h6.1c0.2,0,0.3-0.1,0.3-0.3v-1.4c0-0.2-0.1-0.3-0.3-0.3H100.8z M106.5,147.1
			C106.6,147.1,106.6,147.1,106.5,147.1c-0.4-0.2-0.8-0.4-1-0.8c-0.1-0.2-0.2-0.5-0.2-0.7c0-0.2,0-0.4,0.1-0.5
			c0.3-0.9,0.6-1.6,0.7-2.3c0-0.1,0-0.2,0-0.2c0-0.1-0.1-0.1-0.2-0.1h-4.1c-0.1,0-0.1,0-0.2,0.1c0,0.1,0,0.1,0,0.2
			c0.3,0.7,0.6,1.5,0.9,2.3c0,0.2,0.1,0.3,0.1,0.5c0,0.3-0.1,0.5-0.2,0.8c-0.2,0.4-0.6,0.7-1,0.8c0,0,0,0,0,0.1H106.5z"/>
		<path class="st5" d="M136.5,142.1c0.2-0.5,0.6-0.8,1.1-1c0.3-0.1,0.5-0.2,0.8-0.2c0.2,0,0.5,0,0.7,0.1c0.4,0.2,0.7,0.5,0.9,0.9
			c0.1,0.2,0.1,0.3,0.1,0.5c0,0.3-0.1,0.5-0.3,0.8c0,0,0,0,0,0.1c0,0,0,0,0,0c-0.5,0.7-0.9,1.4-1.3,1.9c-0.3,0.4-0.6,0.8-0.9,1.1
			c0,0.1,0,0.1,0,0.2c0,0.1,0.1,0.1,0.1,0.1h5.1c0.4,0,0.8,0.2,1.1,0.5c0.3,0.3,0.5,0.7,0.5,1.1c0,0.4-0.2,0.8-0.5,1.1
			c-0.3,0.3-0.7,0.5-1.1,0.5h-22.9c-0.4,0-0.8-0.2-1.1-0.5c-0.3-0.3-0.5-0.7-0.5-1.1c0-0.4,0.2-0.8,0.5-1.1s0.7-0.5,1.1-0.5h4.2
			c0.1,0,0.1,0,0.2-0.1c0-0.1,0-0.1,0-0.2c-0.3-0.8-0.7-1.6-1.1-2.4c-0.2-0.4-0.3-0.8-0.3-1.2c0-0.2,0-0.5,0.1-0.7
			c0.2-0.6,0.6-1.1,1.2-1.4l0.1-0.1c0,0,0,0,0-0.1c0,0,0,0-0.1,0h-2.9c-0.4,0-0.8-0.2-1.1-0.5c-0.3-0.3-0.5-0.7-0.5-1.1
			c0-0.4,0.2-0.8,0.5-1.1s0.7-0.5,1.1-0.5h7.5c0.2,0,0.3-0.1,0.3-0.3v-2.5c0-0.2-0.1-0.3-0.3-0.3h-4c-0.4,0-0.7-0.1-1-0.4
			c-0.3-0.3-0.4-0.6-0.4-1c0,0,0,0,0-0.1c0,0-0.1,0-0.1,0c-0.9,0.6-1.8,1.2-2.9,1.9c-0.3,0.2-0.6,0.2-0.9,0.2c-0.2,0-0.3,0-0.5-0.1
			c-0.5-0.1-0.9-0.4-1.2-0.8c-0.2-0.3-0.3-0.6-0.3-0.9c0-0.1,0-0.2,0-0.3c0.1-0.5,0.3-0.8,0.7-1c1.9-1.1,3.8-2.4,5.6-4
			c1.7-1.5,3-3,4.1-4.4c0.8-1,1.8-1.6,3-1.6c1.2,0,2.2,0.5,3,1.5c1.4,1.7,3,3.3,4.8,4.7c1.7,1.4,3.5,2.5,5.3,3.4
			c0.4,0.2,0.7,0.6,0.8,1.1c0,0.1,0.1,0.3,0.1,0.4c0,0.3-0.1,0.7-0.3,0.9c-0.3,0.5-0.8,0.8-1.3,0.9c-0.2,0-0.4,0.1-0.5,0.1
			c-0.3,0-0.7-0.1-1-0.3c-1-0.6-1.9-1.2-2.8-1.8c0,0,0,0-0.1,0c0,0,0,0,0,0.1c0,0.4-0.1,0.7-0.4,1c-0.3,0.3-0.6,0.4-1,0.4h-4.2
			c-0.2,0-0.3,0.1-0.3,0.3v2.5c0,0.2,0.1,0.3,0.3,0.3h7.6c0.4,0,0.8,0.2,1.1,0.5c0.3,0.3,0.5,0.7,0.5,1.1c0,0.4-0.2,0.8-0.5,1.1
			c-0.3,0.3-0.7,0.5-1.1,0.5h-7.6c-0.2,0-0.3,0.1-0.3,0.3v5.6c0,0.2,0.1,0.3,0.3,0.3h2.9c0,0,0,0,0,0c0,0,0,0,0-0.1
			c-0.5-0.2-0.8-0.5-0.9-1c-0.1-0.2-0.1-0.3-0.1-0.5c0-0.3,0.1-0.6,0.3-0.9C135.8,143.4,136.1,142.8,136.5,142.1z M129.1,140.7
			c0-0.2-0.1-0.3-0.3-0.3h-3.9c-0.1,0-0.1,0-0.1,0.1c0,0.1,0,0.1,0,0.2c0.7,0.9,1.2,1.8,1.7,2.6c0.2,0.3,0.3,0.7,0.3,1
			c0,0.3-0.1,0.6-0.2,0.8c-0.3,0.6-0.7,1.1-1.4,1.4c0,0,0,0,0,0.1s0,0,0,0h3.6c0.2,0,0.3-0.1,0.3-0.3V140.7z M125.9,130.8
			c0,0-0.1,0.1,0,0.1c0,0.1,0,0.1,0.1,0.1h10.5c0,0,0.1,0,0.1-0.1c0,0,0-0.1,0-0.1c-2.1-1.7-3.9-3.5-5.2-5.3c-0.1-0.2-0.2-0.2-0.4,0
			C129.5,127.4,127.8,129.1,125.9,130.8z"/>
		<path class="st5" d="M160.3,123.7c0.9-0.8,1.9-1.2,3-1.2c1.1,0,2.1,0.4,3,1.1c2.8,2.3,6.2,4,10.1,5.2c0.4,0.1,0.7,0.4,0.8,0.8
			c0.1,0.2,0.1,0.3,0.1,0.5c0,0.3-0.1,0.5-0.2,0.7c0,0.1-0.1,0.1-0.1,0.2c-0.3,0.4-0.6,0.7-1.1,0.9c-0.2,0.1-0.4,0.1-0.7,0.1
			c-0.2,0-0.5,0-0.7-0.2c0,0-0.1,0-0.1,0c0,0-0.1,0.1-0.1,0.1v5.2c0,0.7-0.3,1.3-0.8,1.9c-0.5,0.5-1.1,0.8-1.9,0.8h-16.2
			c-0.7,0-1.3-0.3-1.9-0.8c-0.5-0.5-0.8-1.1-0.8-1.9v-5.2c0,0,0-0.1-0.1-0.1c-0.1,0-0.1,0-0.1,0c-0.1,0-0.2,0.1-0.2,0.1
			c-0.2,0.1-0.5,0.1-0.7,0.1c-0.2,0-0.5,0-0.7-0.1c-0.5-0.2-0.8-0.5-1.1-0.9c-0.2-0.2-0.2-0.5-0.2-0.7c0-0.1,0-0.3,0.1-0.4
			c0.1-0.4,0.4-0.7,0.8-0.8c1.8-0.7,3.6-1.5,5.3-2.4C157.6,125.7,159.1,124.7,160.3,123.7z M153.9,131.3
			C153.9,131.3,153.9,131.3,153.9,131.3c0,0.1,0,0.1,0,0.1h19.2c0,0,0,0,0-0.1c0,0,0-0.1,0-0.1c-1.4-0.6-2.8-1.3-4.1-2
			c-0.1,0-0.1,0-0.1,0.1c0,0.2-0.1,0.5-0.3,0.6c-0.2,0.2-0.4,0.3-0.7,0.3h-8.8c-0.3,0-0.6-0.1-0.8-0.3c-0.2-0.2-0.3-0.5-0.3-0.7
			c0-0.1,0-0.1-0.1-0.1C156.7,129.9,155.4,130.6,153.9,131.3z M156.4,151.3c-0.5,0-0.9-0.2-1.3-0.5c-0.4-0.4-0.5-0.8-0.5-1.3v-6.1
			c0-0.7,0.3-1.3,0.8-1.9c0.5-0.5,1.1-0.8,1.9-0.8h12.9c0.7,0,1.3,0.3,1.9,0.8c0.5,0.5,0.8,1.1,0.8,1.9v5.9c0,0.5-0.2,0.9-0.5,1.3
			c-0.4,0.4-0.8,0.6-1.3,0.6h-1.2c-0.2,0-0.3-0.1-0.5-0.2c-0.1-0.1-0.2-0.3-0.2-0.5c0-0.1,0-0.1-0.1-0.1h-10.6c-0.1,0-0.1,0-0.1,0.1
			c0,0.2-0.1,0.4-0.2,0.5c-0.2,0.1-0.3,0.2-0.5,0.2H156.4z M155.9,137.2c0,0.2,0.1,0.3,0.3,0.3h1.5c0.1,0,0.1,0,0.2-0.1
			c0-0.1,0.1-0.1,0-0.2c-0.1-0.3-0.1-0.6-0.2-0.9c-0.1-0.2-0.1-0.4-0.1-0.7c0-0.3,0.1-0.6,0.2-1c0.2-0.5,0.6-0.9,1.2-1
			c0-0.1,0-0.1,0-0.1h-2.9c-0.2,0-0.3,0.1-0.3,0.3V137.2z M168.9,143.5c0-0.2-0.1-0.3-0.3-0.3h-10.1c-0.2,0-0.3,0.1-0.3,0.3v0.6
			c0,0.2,0.1,0.3,0.3,0.3h10.1c0.2,0,0.3-0.1,0.3-0.3V143.5z M158.2,147.7c0,0.2,0.1,0.3,0.3,0.3h10.1c0.2,0,0.3-0.1,0.3-0.3v-0.6
			c0-0.2-0.1-0.3-0.3-0.3h-10.1c-0.2,0-0.3,0.1-0.3,0.3V147.7z M161.6,137.5c0.2,0,0.3-0.1,0.3-0.3v-3.3c0-0.2-0.1-0.3-0.3-0.3h-1.8
			c-0.1,0-0.1,0-0.2,0.1s0,0.1,0,0.2c0.2,0.4,0.4,0.8,0.6,1.3c0.1,0.2,0.1,0.4,0.1,0.6c0,0.3-0.1,0.5-0.2,0.8
			c-0.3,0.5-0.6,0.8-1.1,0.9c0,0,0,0,0,0.1H161.6z M160.3,127.7c0,0-0.1,0.1,0,0.1c0,0,0,0.1,0.1,0.1h6.1c0,0,0.1,0,0.1-0.1
			c0,0,0-0.1,0-0.1c-1.1-0.7-2.1-1.5-2.9-2.2c-0.1-0.1-0.3-0.1-0.4,0C162.4,126.2,161.5,127,160.3,127.7z M167,133.9
			c0-0.1,0-0.2,0-0.2c0-0.1-0.1-0.1-0.2-0.1h-1.7c-0.2,0-0.3,0.1-0.3,0.3v3.3c0,0.2,0.1,0.3,0.3,0.3h2.3c0,0,0,0,0,0c0,0,0,0,0,0
			c-0.4-0.1-0.7-0.4-0.9-0.8c-0.1-0.2-0.2-0.5-0.2-0.7c0-0.2,0-0.4,0.1-0.5C166.7,134.9,166.9,134.4,167,133.9z M170.8,137.5
			c0.2,0,0.3-0.1,0.3-0.3v-3.3c0-0.2-0.1-0.3-0.3-0.3H168c0,0,0,0,0,0c0,0,0,0,0,0c0.5,0.1,0.9,0.5,1.2,1c0.1,0.2,0.2,0.5,0.2,0.7
			c0,0.3-0.1,0.6-0.2,0.8c-0.2,0.4-0.4,0.8-0.5,1.1c0,0.1,0,0.1,0,0.2c0,0.1,0.1,0.1,0.2,0.1H170.8z"/>
		<path class="st5" d="M207.2,143.3c0,0.7-0.3,1.3-0.8,1.9c-0.5,0.5-1.1,0.8-1.9,0.8h-2c0,0,0,0,0,0c0,0,0,0,0,0.1
			c1.9,0.6,3.9,1.2,5.9,2c0.4,0.2,0.7,0.5,0.8,0.9c0,0.1,0,0.2,0,0.2c0,0.4-0.1,0.7-0.4,0.9c-0.5,0.4-1.1,0.6-1.7,0.7
			c-0.2,0-0.3,0-0.5,0c-0.5,0-0.9-0.1-1.3-0.3c-1.6-0.7-3.5-1.3-5.5-2c-0.5-0.2-0.8-0.5-0.9-1c0-0.1,0-0.2,0-0.3
			c0-0.4,0.2-0.7,0.5-1l0.2-0.1c0,0,0.1-0.1,0-0.1c0,0-0.1-0.1-0.1-0.1h-7.8c0,0-0.1,0-0.1,0.1c0,0,0,0.1,0,0.1
			c0.4,0.3,0.7,0.7,0.7,1.2c0,0.7-0.3,1.1-0.8,1.4c-1.7,0.8-3.5,1.4-5.4,2c-0.3,0.1-0.6,0.1-0.9,0.1c-0.3,0-0.5,0-0.8-0.1
			c-0.6-0.1-1.1-0.4-1.5-0.8c-0.2-0.2-0.3-0.4-0.3-0.7c0-0.1,0-0.2,0-0.3c0.1-0.4,0.3-0.6,0.7-0.7c2.2-0.6,4.1-1.3,5.8-2.1
			c0,0,0.1,0,0-0.1c0,0,0-0.1-0.1-0.1h-1.9c-0.7,0-1.3-0.3-1.9-0.8s-0.8-1.1-0.8-1.9v-8.4c0-0.7,0.3-1.3,0.8-1.9s1.1-0.8,1.9-0.8
			h17.3c0.7,0,1.3,0.3,1.9,0.8c0.5,0.5,0.8,1.1,0.8,1.9V143.3z M203.5,123.4c0.7,0,1.3,0.3,1.9,0.8c0.5,0.5,0.8,1.1,0.8,1.9v2.5
			c0,0.7-0.3,1.3-0.8,1.9s-1.1,0.8-1.9,0.8h-14.8c-0.7,0-1.3-0.3-1.9-0.8s-0.8-1.1-0.8-1.9v-2.5c0-0.7,0.3-1.3,0.8-1.9
			c0.5-0.5,1.1-0.8,1.9-0.8H203.5z M188.6,134.8c-0.2,0-0.3,0.1-0.3,0.3v0.7c0,0.2,0.1,0.3,0.3,0.3h14.5c0.2,0,0.3-0.1,0.3-0.3v-0.7
			c0-0.2-0.1-0.3-0.3-0.3H188.6z M188.6,138.4c-0.2,0-0.3,0.1-0.3,0.3v0.7c0,0.2,0.1,0.3,0.3,0.3h14.5c0.2,0,0.3-0.1,0.3-0.3v-0.7
			c0-0.2-0.1-0.3-0.3-0.3H188.6z M188.6,142.1c-0.2,0-0.3,0.1-0.3,0.3v0.8c0,0.2,0.1,0.3,0.3,0.3h14.5c0.2,0,0.3-0.1,0.3-0.3v-0.8
			c0-0.2-0.1-0.3-0.3-0.3H188.6z M201.9,128.3c0.2,0,0.3-0.1,0.3-0.3v-1.4c0-0.2-0.1-0.3-0.3-0.3H190c-0.2,0-0.3,0.1-0.3,0.3v1.4
			c0,0.2,0.1,0.3,0.3,0.3H201.9z"/>
		<path class="st5" d="M240.8,141.8c0.4,0,0.7,0.1,1,0.4c0.3,0.3,0.4,0.6,0.4,1c0,0.4-0.1,0.7-0.4,1c-0.3,0.3-0.6,0.4-1,0.4h-5.1
			c-0.2,0-0.3,0.1-0.3,0.3v2.7c0,0.9-0.1,1.6-0.3,2c-0.2,0.5-0.6,0.8-1.3,1.1c-0.8,0.3-2,0.4-3.6,0.5h0c-0.5,0-0.9-0.2-1.3-0.5
			c-0.4-0.3-0.7-0.7-0.8-1.2c0-0.1-0.1-0.3-0.1-0.4c0-0.2,0.1-0.5,0.2-0.7c0.2-0.3,0.5-0.5,0.9-0.5h0c0.6,0,1.3,0,2,0
			c0.3,0,0.4-0.1,0.5-0.1c0.1-0.1,0.1-0.2,0.1-0.4V145c0-0.2-0.1-0.3-0.3-0.3h-8.1c0,0-0.1,0-0.1,0.1c0,0,0,0.1,0,0.1
			c0.7,0.5,1.3,0.9,1.8,1.4c0.3,0.3,0.5,0.7,0.5,1.1c0,0.5-0.2,1-0.6,1.3c-0.3,0.3-0.7,0.4-1.2,0.4c0,0-0.1,0-0.1,0
			c-0.5,0-0.9-0.2-1.3-0.6c-0.6-0.6-1.4-1.3-2.2-1.9c-0.3-0.2-0.5-0.6-0.5-1c0-0.4,0.1-0.7,0.4-0.9c0,0,0,0,0-0.1c0,0,0,0,0,0h-4.5
			c-0.4,0-0.7-0.1-1-0.4c-0.3-0.3-0.4-0.6-0.4-1c0-0.4,0.1-0.7,0.4-1c0.3-0.3,0.6-0.4,1-0.4h15.9c0.2,0,0.3-0.1,0.3-0.3V141
			c0-0.1,0-0.2-0.1-0.2s-0.1-0.1-0.2-0.1c-7.6,0.2-12.5,0.2-14.6,0.2c-0.4,0-0.7-0.1-0.9-0.4c-0.3-0.3-0.4-0.6-0.4-1
			c0-0.3,0.1-0.6,0.3-0.9c0.3-0.3,0.6-0.4,0.9-0.4h1.3c0.7,0,1.7,0,3,0c2.6,0,4.2,0,4.9,0c0.2,0,0.3-0.1,0.3-0.3v-0.5
			c0-0.2-0.1-0.3-0.3-0.3h-6c-0.7,0-1.3-0.3-1.9-0.8c-0.5-0.5-0.8-1.1-0.8-1.9V131c0-0.7,0.3-1.3,0.8-1.9s1.1-0.8,1.9-0.8h6
			c0.2,0,0.3-0.1,0.3-0.3v-0.5c0-0.2-0.1-0.3-0.3-0.3h-9.6c-0.4,0-0.7-0.1-1-0.4s-0.4-0.6-0.4-1c0-0.4,0.1-0.7,0.4-1
			c0.3-0.3,0.6-0.4,1-0.4h9.7c0.1,0,0.2-0.1,0.2-0.2c0-0.5,0.2-0.9,0.5-1.2c0.3-0.3,0.7-0.5,1.2-0.5h0.1c0.5,0,0.9,0.2,1.2,0.5
			c0.3,0.3,0.5,0.8,0.5,1.2c0,0.1,0.1,0.2,0.2,0.2h9.7c0.4,0,0.7,0.1,1,0.4c0.3,0.3,0.4,0.6,0.4,1c0,0.4-0.1,0.7-0.4,1
			s-0.6,0.4-1,0.4h-9.6c-0.2,0-0.3,0.1-0.3,0.3v0.5c0,0.2,0.1,0.3,0.3,0.3h6.4c0.7,0,1.3,0.3,1.9,0.8s0.8,1.1,0.8,1.9v4.4
			c0,0.5-0.2,0.9-0.5,1.3c-0.4,0.4-0.8,0.5-1.3,0.5c0,0,0,0,0,0c0,0,0,0,0,0c0.9,0.5,1.8,1,2.6,1.5c0.3,0.2,0.5,0.5,0.5,0.9
			c0,0.3-0.1,0.6-0.4,0.8c-0.3,0.3-0.7,0.4-1.1,0.4c-0.4,0-0.8-0.1-1.2-0.4c-0.1-0.1-0.2-0.1-0.3-0.1l-1.8,0.1
			c-0.2,0-0.3,0.1-0.3,0.3v0.6c0,0.2,0.1,0.3,0.3,0.3H240.8z M221.2,130.6c-0.2,0-0.3,0.1-0.3,0.3v0.5c0,0.2,0.1,0.3,0.3,0.3h4.9
			c0.2,0,0.3-0.1,0.3-0.3v-0.5c0-0.2-0.1-0.3-0.3-0.3H221.2z M220.9,134.7c0,0.2,0.1,0.3,0.3,0.3h4.9c0.2,0,0.3-0.1,0.3-0.3v-0.6
			c0-0.2-0.1-0.3-0.3-0.3h-4.9c-0.2,0-0.3,0.1-0.3,0.3V134.7z M235.7,130.9c0-0.2-0.1-0.3-0.3-0.3h-5.1c-0.2,0-0.3,0.1-0.3,0.3v0.5
			c0,0.2,0.1,0.3,0.3,0.3h5.1c0.2,0,0.3-0.1,0.3-0.3V130.9z M229.9,134.7c0,0.2,0.1,0.3,0.3,0.3h5.1c0.2,0,0.3-0.1,0.3-0.3v-0.6
			c0-0.2-0.1-0.3-0.3-0.3h-5.1c-0.2,0-0.3,0.1-0.3,0.3V134.7z M230.2,137.2c-0.2,0-0.3,0.1-0.3,0.3v0.5c0,0.2,0.1,0.3,0.3,0.3l3.5,0
			c0,0,0-0.1,0-0.1c-0.1,0-0.2-0.1-0.5-0.2c-0.1-0.1-0.2-0.2-0.2-0.3c0-0.2,0-0.3,0.2-0.4c0,0,0-0.1,0-0.1H230.2z"/>
		<path class="st5" d="M259.2,140.1c0,0,0,0.1,0,0.2c0,0.1,0.1,0.1,0.1,0.1h11.6c0.7,0,1.3,0.3,1.8,0.8c0.5,0.5,0.7,1.1,0.7,1.7
			c0,1.6-0.2,3.4-0.5,5.2c-0.2,1.1-0.4,1.8-0.7,2.2c-0.4,0.5-1,0.9-1.8,1c-0.4,0.1-0.9,0.1-1.6,0.1c-0.1,0-0.2,0-0.3,0
			c-0.2,0-0.5-0.1-0.6-0.3s-0.3-0.4-0.3-0.6c0-0.1-0.1-0.1-0.1-0.1l-0.5,0.2c-0.2,0.1-0.4,0.1-0.6,0c-0.2-0.1-0.3-0.2-0.4-0.4
			c0-0.1-0.1-0.1-0.1-0.1c-2.9,0.1-6.8,0.3-11.7,0.5c-0.3,0-0.6-0.1-0.9-0.3c-0.3-0.2-0.4-0.5-0.4-0.8c0-0.3,0.1-0.6,0.3-0.8
			c0.2-0.2,0.5-0.4,0.8-0.4c0.5,0,2.3-0.1,5.2-0.1c0.2,0,0.3-0.1,0.3-0.3v-0.4c0-0.2-0.1-0.3-0.3-0.3h-2.3c-0.6,0-1.2-0.2-1.6-0.7
			c-0.4-0.4-0.7-1-0.7-1.6v-0.1c0,0,0-0.1,0-0.1c0,0-0.1,0-0.1,0c-0.3,0.2-0.6,0.3-0.9,0.3c-0.1,0-0.2,0-0.2,0
			c-0.4-0.1-0.8-0.2-1.1-0.5c-0.1-0.1-0.3-0.2-0.4-0.4c0,0-0.1,0-0.1,0c-0.1,0-0.1,0-0.1,0.1c-0.4,2.1-1,3.9-1.7,5.4
			c-0.2,0.4-0.5,0.7-1,0.8c-0.1,0-0.3,0.1-0.5,0.1c-0.3,0-0.6-0.1-0.9-0.3c-0.4-0.2-0.7-0.6-0.9-1c-0.1-0.2-0.1-0.4-0.1-0.6
			c0-0.3,0.1-0.5,0.2-0.8c0.9-2,1.5-4.3,1.8-6.8c0.3-2.5,0.4-5.1,0.4-8v-6.3c0-0.7,0.3-1.3,0.8-1.9c0.5-0.5,1.1-0.8,1.9-0.8h19
			c0.7,0,1.3,0.3,1.9,0.8c0.5,0.5,0.8,1.1,0.8,1.9v0.7c0,0.7-0.3,1.3-0.8,1.9c-0.5,0.5-1.1,0.8-1.9,0.8h-17.8
			c-0.2,0-0.3,0.1-0.3,0.3v2.7c0,3.6-0.2,6.8-0.7,9.7c0,0.1,0,0.1,0,0.1c0.1,0,0.1,0,0.2,0c1.6-0.9,2.8-2,3.8-3.1c0,0,0-0.1,0-0.1
			c0,0-0.1-0.1-0.1-0.1h-0.2c-0.6,0-1-0.2-1.4-0.6c-0.4-0.4-0.6-0.9-0.6-1.5s0.2-1.1,0.6-1.5c0.4-0.4,0.9-0.6,1.4-0.6h15.1
			c0.6,0,1,0.2,1.4,0.6c0.4,0.4,0.6,0.9,0.6,1.5s-0.2,1.1-0.6,1.5c-0.4,0.4-0.9,0.6-1.4,0.6h-10.7c-0.2,0-0.4,0.1-0.5,0.2
			C259.4,139.8,259.3,140,259.2,140.1z M269.6,126.6c0-0.2-0.1-0.3-0.3-0.3h-16.5c-0.2,0-0.3,0.1-0.3,0.3v0.7c0,0.2,0.1,0.3,0.3,0.3
			h16.5c0.2,0,0.3-0.1,0.3-0.3V126.6z M254.5,134.5c-0.2,0-0.4-0.1-0.5-0.2s-0.2-0.3-0.2-0.5s0.1-0.4,0.2-0.5
			c0.2-0.2,0.3-0.2,0.5-0.2h4.9c0.2,0,0.4,0.1,0.6,0.2c0.2,0.2,0.2,0.3,0.2,0.5s-0.1,0.4-0.2,0.5c-0.2,0.2-0.3,0.2-0.6,0.2H254.5z
			 M259.5,130.7c0.2,0,0.4,0.1,0.5,0.2c0.2,0.2,0.2,0.3,0.2,0.5s-0.1,0.4-0.2,0.5c-0.2,0.1-0.3,0.2-0.5,0.2h-4.9
			c-0.2,0-0.4-0.1-0.5-0.2c-0.1-0.1-0.2-0.3-0.2-0.5s0.1-0.4,0.2-0.5c0.1-0.2,0.3-0.2,0.5-0.2H259.5z M256.7,136.8
			c-0.2,0-0.3,0.1-0.3,0.3v0.5c0,0.2,0.1,0.3,0.3,0.3h2c0.2,0,0.3-0.1,0.3-0.3v-0.5c0-0.2-0.1-0.3-0.3-0.3H256.7z M259.4,142.6
			c0-0.2-0.1-0.3-0.3-0.3h-1.6c-0.2,0-0.4,0.1-0.5,0.2c-0.2,0.2-0.3,0.3-0.5,0.5c0,0-0.1,0.1,0,0.1c0,0.1,0.1,0.1,0.1,0.1h2.5
			c0.2,0,0.3-0.1,0.3-0.3V142.6z M257.1,145.3c0,0.2,0.1,0.3,0.3,0.3h1.7c0.2,0,0.3-0.1,0.3-0.3v-0.4c0-0.2-0.1-0.3-0.3-0.3h-1.7
			c-0.2,0-0.3,0.1-0.3,0.3V145.3z M264.7,133c0,0.5-0.2,0.9-0.5,1.2c-0.3,0.3-0.7,0.5-1.2,0.5s-0.9-0.2-1.2-0.5
			c-0.3-0.3-0.5-0.7-0.5-1.2v-1c0-0.5,0.2-0.9,0.5-1.2c0.3-0.3,0.7-0.5,1.2-0.5s0.9,0.2,1.2,0.5c0.3,0.3,0.5,0.7,0.5,1.2V133z
			 M262,136.8c-0.2,0-0.3,0.1-0.3,0.3v0.5c0,0.2,0.1,0.3,0.3,0.3h2c0.2,0,0.3-0.1,0.3-0.3v-0.5c0-0.2-0.1-0.3-0.3-0.3H262z
			 M267.6,146.3c0,0.2-0.1,0.4-0.2,0.5s-0.3,0.2-0.5,0.2c0,0,0,0,0,0c0,0,0,0,0,0c0.3,0.4,0.7,0.9,1,1.4c0.1,0.2,0.3,0.2,0.5,0.2
			h0.4c0.3,0,0.6-0.1,0.8-0.3c0.3-0.5,0.6-2.4,0.7-5.8c0-0.1,0-0.2-0.1-0.2s-0.1-0.1-0.2-0.1h-7.1c-0.2,0-0.3,0.1-0.3,0.3v0.3
			c0,0.2,0.1,0.3,0.3,0.3h2.8c0.5,0,1,0.2,1.4,0.6c0.4,0.4,0.6,0.8,0.6,1.4V146.3z M262.8,144.6c-0.2,0-0.3,0.1-0.3,0.3v0.4
			c0,0.2,0.1,0.3,0.3,0.3h1.7c0.2,0,0.3-0.1,0.3-0.3v-0.4c0-0.2-0.1-0.3-0.3-0.3H262.8z M262.5,147.7c0,0.1,0,0.1,0.1,0.2
			c0.1,0.1,0.1,0.1,0.2,0.1l1.7,0c0,0,0.1,0,0-0.1c-0.1-0.1-0.1-0.3-0.1-0.4c0-0.2,0.1-0.2,0.3-0.3l0.2-0.1c0,0,0,0,0,0c0,0,0,0,0,0
			h-2.1c-0.2,0-0.3,0.1-0.3,0.3V147.7z M266.2,131.9c-0.2-0.1-0.2-0.3-0.2-0.5s0.1-0.4,0.2-0.5c0.2-0.2,0.3-0.2,0.5-0.2h5.2
			c0.2,0,0.4,0.1,0.5,0.2s0.2,0.3,0.2,0.5s-0.1,0.4-0.2,0.5c-0.1,0.1-0.3,0.2-0.5,0.2h-5.2C266.5,132.2,266.3,132.1,266.2,131.9z
			 M266.7,134.5c-0.2,0-0.4-0.1-0.6-0.2c-0.2-0.2-0.2-0.3-0.2-0.5s0.1-0.4,0.2-0.5c0.2-0.2,0.3-0.2,0.6-0.2h5.2
			c0.2,0,0.4,0.1,0.5,0.2c0.2,0.2,0.2,0.3,0.2,0.5s-0.1,0.4-0.2,0.5s-0.3,0.2-0.5,0.2H266.7z M267.4,136.8c-0.2,0-0.3,0.1-0.3,0.3
			v0.5c0,0.2,0.1,0.3,0.3,0.3h2c0.2,0,0.3-0.1,0.3-0.3v-0.5c0-0.2-0.1-0.3-0.3-0.3H267.4z"/>
	</g>
</g>
</svg>
