<?xml version="1.0" encoding="utf-8"?>
<!-- Generator: Adobe Illustrator 21.1.0, SVG Export Plug-In . SVG Version: 6.00 Build 0)  -->
<svg version="1.1" id="圖層_1" xmlns="http://www.w3.org/2000/svg" xmlns:xlink="http://www.w3.org/1999/xlink" x="0px" y="0px"
	 viewBox="0 0 614 614" style="enable-background:new 0 0 614 614;" xml:space="preserve">
<style type="text/css">
	.st0{fill:#EDEDED;}
	.st1{fill:#D82533;}
	.st2{fill:#FFFFFF;}
</style>
<g>
	<rect x="7" y="7" class="st0" width="600" height="600"/>
	<path class="st1" d="M586.8,586.8H27.2V27.2h559.5V586.8z M31.2,582.8h551.5V31.2H31.2V582.8z"/>
	<path class="st1" d="M571,571H43V43H571V571z M44,570H570V44H44V570z"/>
	<rect x="74.1" y="150.3" class="st1" width="465.8" height="1"/>
	<g>
		<g>
			<path d="M192.5,93.6c4.3,4,7.7,6.7,12.4,9.6c2.3,1.4,4.3,2.4,6.3,3.5c0.5,0.3,0.9,0.7,0.9,1c0,0.5-0.4,0.7-1.3,0.9
				c-1.5,0.4-3.8,0.8-6.1,0.8c-1.3,0-1.6-0.1-2.3-0.7c-4.6-4.6-8.8-9.3-13.9-15.1c-1.6,0-4.3,0.1-6.4,0.3
				c-4.9,6.9-9.6,11.9-18.8,16.2c-0.4,0.2-1.2,0.4-1.5,0.4c-0.5,0-0.8-0.4-0.9-0.8c0-0.4,0.1-0.5,0.7-0.9c6.1-4.2,10.8-9,14.4-14.5
				c-3.1,0.3-6.3,0.7-9.7,1.3c-0.7,0-1.2-0.2-2.1-1.2c-1.3-1.3-1.7-1.9-1.7-2.2c0-0.3,0.2-0.4,1.3-0.5c4.7-0.4,9-0.8,13.1-1.1
				c-0.1-2.2-0.2-3.6-0.3-4.9c-1.6,0.1-3.4,0.3-4.9,0.4c-0.5,0-1-0.1-1.4-0.7c-1.2-1.3-1.8-2.3-1.8-2.7c0-0.2,0.1-0.4,1-0.5
				c2.3-0.1,4.6-0.2,6.8-0.4l-0.1-1.2c-0.2-2.1-0.5-3.4-1-4.5c-0.1-0.3-0.2-0.5-0.2-0.8c0-0.3,0.3-0.5,0.7-0.5
				c0.9,0,3.4,0.5,4.9,1.5c0.7,0.4,0.9,0.9,0.9,1.3c0,0.3-0.1,0.8-0.2,1.4c-0.1,0.7-0.2,1.4-0.2,2.5c2.9-0.2,5.7-0.4,8.5-0.5
				l0.1-0.8c0.1-1.3,0.1-2.1,0.1-2.9c0-1.2-0.1-1.8-0.3-2.5c-0.1-0.3-0.2-0.5-0.2-0.7c0-0.3,0.2-0.5,0.8-0.5c0.8,0,3.2,0.8,4.7,1.8
				c0.7,0.4,0.9,0.8,0.9,1.3c0,0.3-0.2,0.8-0.4,1.3c-0.4,0.8-0.5,1.5-0.8,2.7c1-0.2,1.8-0.4,3-0.8c2.3,0.5,4.7,1.8,4.7,3.4
				c0,0.8-0.1,1.5-2.7,1.5c-1.8,0-3.6,0-5.6,0.1c-0.4,2.3-0.5,3.7-0.8,5.1l5.3-0.2c1.5-0.1,3.2-0.4,4.2-0.9c4.3,1,5.8,2.5,5.8,3.8
				c0,1.2-0.7,1.5-2.3,1.5c-3.2-0.4-6.1-0.4-9.8-0.4H192.5z M171.3,117.1c-1.3,0-2.4-0.8-2.4-2.8c0-0.7,0.3-1.9,1.6-2.9
				c1.5-1.2,3-3,3.7-4.8c0.2-0.5,0.6-0.8,0.9-0.8c0.3,0,0.6,0.2,0.7,0.7c0.1,0.5,0.2,1.2,0.2,1.8c0,1.2-0.2,2.5-0.7,4.1
				C174.5,115.4,172.9,117.1,171.3,117.1z M180.3,102.4c0-0.9-0.3-1.9-0.5-2.5c-0.2-0.6-0.3-0.8-0.3-1.1s0.3-0.5,0.9-0.5
				c0.7,0,2.1,0.3,3.1,0.8c1.2,0.5,1.9,1,1.9,1.5c0,0.5-0.2,0.9-0.3,1.1c-0.3,0.6-0.5,1.3-0.5,2.8c0,7,0.2,10.3,0.2,12.1
				c-0.1,2.1-0.3,3.2-1.2,4.6c-0.7,1-1.3,1.5-1.8,1.5c-0.7,0-1.7-0.6-2.5-1.3c-1.4-1.3-2.8-2.7-3.7-4.1c-0.3-0.4-0.4-0.5-0.4-0.8
				s0.2-0.5,0.7-0.5c1.5,0.3,2.6,0.4,4.3,0.5V102.4z M181.2,90.3c2.3-0.1,5.2-0.3,7.5-0.4c0.2-1.5,0.4-3.5,0.5-5.1
				c-2.7,0.1-5.4,0.3-8.1,0.4L181.2,90.3z M188.4,106.1c0.2,0,0.5,0.1,0.8,0.3c1.4,1,2.6,2.3,3.7,4.1c0.6,0.9,1,2.2,1,3.1
				c0,1.5-0.8,2.5-1.9,2.5c-1,0-2.1-0.5-3.1-3.3c-0.4-1.2-1.1-4.8-1.1-5.9C187.8,106.5,188,106.1,188.4,106.1z M193.4,105.6
				c0-0.3,0.2-0.5,0.7-0.5c1.6,0,5.1,2.4,6.7,4.3c1.2,1.4,2,2.6,2,3.9c0,1.5-0.8,2.5-2,2.5c-1.2,0-2-0.7-3-2.2
				c-1.3-2.1-2.8-4.8-4-6.9C193.6,106.3,193.4,105.9,193.4,105.6z"/>
			<path d="M255.8,97.8c0.3,0.1,0.5,0.3,0.8,0.4c1.5,0.8,2,1.3,2,1.9c0,0.5-0.3,0.8-1.2,1.4c-0.7,0.4-1.3,0.9-1.9,1.3
				c2.2-0.1,4.3-0.2,6.3-0.3c1.4-0.1,2.5-0.4,3.3-0.8c4,1.2,5.4,2.3,5.4,3.5c0,1-0.6,1.4-2.5,1.4c-2.9-0.2-5.6-0.3-8.2-0.3
				c-2.6,0-5.2,0.1-7.6,0.2c-6.2,0.3-15.6,1.1-25.7,2.4c-0.7,0-1.1-0.1-1.5-0.5c-1.9-1.8-2.3-2.3-2.3-2.6s0.3-0.4,1.3-0.5
				c4.1-0.4,8.6-0.8,13-1.1c-1.2-1.6-1.9-2.7-2.6-3.8c-0.2-0.4-0.4-0.7-0.4-0.9c0-0.3,0.3-0.4,0.7-0.4c0.2,0,0.5,0.1,0.9,0.1
				c3.8,0.9,5.9,2.4,5.9,4.1c0,0.2,0,0.4-0.1,0.6c3.1-0.2,6.5-0.5,9.8-0.7c0.6-0.9,1-1.6,1.6-2.9c0.2-0.4,0.3-0.8,0.3-1.2
				c0-0.3-0.1-0.7-0.2-1.2c-4.3,0.1-8.6,0.4-13,0.8c-0.2,0.8-0.8,1.2-1.5,1.2c-1,0-2-0.8-2.6-2.4c-0.1-0.8-0.2-1.8-0.8-3.7
				c-0.4-1.4-0.8-2.2-1.1-2.7c-0.3-0.5-0.4-0.8-0.4-1.1s0.2-0.5,0.8-0.5c0.6,0,2.1,0.3,3.7,0.9c5.6-0.6,10.7-1,14.6-1.3
				c0.9-0.1,1.8-0.3,2.6-0.8c0.7,0,1.6,0.3,3.3,1.4c1.3,0.8,1.6,1.2,1.6,1.6c0,0.3-0.3,0.8-0.7,1.2c-0.5,0.4-0.8,0.7-1.3,1.7
				l-0.7,1.4c0.5,0.3,0.8,0.7,0.8,1.1c0,0.8-0.6,1-2,1H255.8z M248.7,84.1l2.5-0.2c1.3-0.1,2.1-0.3,3.1-0.8c2.9,0.5,4.3,1.4,4.3,2.4
				c0,0.8-0.8,1.1-2.7,1.2c-5.5,0.1-13,0.7-18.9,1.5c-0.6,0-0.9-0.1-1.4-0.5c-1.5-1.3-1.7-1.5-1.7-1.9c0-0.3,0.1-0.4,0.9-0.5
				c3.5-0.3,6.6-0.6,9.5-0.8v-2.7c-3.6,0.3-7.3,0.7-10.6,1.2c-0.7,0-1-0.1-1.4-0.5c-1.6-1.4-1.9-1.6-1.9-2c0-0.3,0.1-0.4,0.9-0.5
				c4.5-0.4,8.9-0.9,13.1-1.2c0-1.5-0.1-2.6-0.3-3.5c-0.1-0.7-0.4-1.3-0.5-1.8c0-0.5,0.2-0.7,0.7-0.7c0.5,0,2.2,0.4,3.5,1
				c1.5,0.7,2,1.2,2,1.7c0,0.3-0.1,0.6-0.3,1c-0.2,0.4-0.3,0.8-0.3,1.9c2-0.2,3.9-0.3,5.6-0.4c1.4-0.1,2.3-0.3,3.2-0.8
				c3,0.5,4.7,1.5,4.7,2.7c0,0.8-0.8,1-2.7,1.1c-3.4,0.1-7.1,0.3-11,0.5L248.7,84.1z M237.9,110.3c5.2-0.5,11.2-1.1,15.1-1.4
				c0.9-0.1,1.8-0.3,2.6-0.9c0.7,0,1.9,0.3,3.7,1.5c1.3,0.9,1.6,1.5,1.6,1.9c0,0.3-0.2,0.8-0.6,1.2c-0.3,0.3-0.8,0.9-1.3,2.1
				c-0.2,0.6-0.5,1.2-0.7,1.9c0.9,0.5,1.5,1.1,1.5,1.8c0,0.8-0.5,1.2-2.9,1.2c-5.8,0-11.3,0.2-17.3,0.7c0,1.5-0.8,2.1-1.6,2.1
				c-1.4,0-2.3-0.8-3-3.2c0-1.6-0.1-1.9-0.5-4.3c-0.5-2.6-0.9-3.4-1.2-4.1c-0.3-0.5-0.4-1-0.4-1.3c0-0.3,0.3-0.5,0.8-0.5
				c0.7,0,2.3,0.4,4,1.2L237.9,110.3z M239.5,117.3c4.9-0.4,9.8-0.8,14.7-1c0.3-1.4,0.6-2.8,0.9-4.3c-5.3,0.2-10.9,0.7-16.1,1.3
				L239.5,117.3z M239.9,95.9c4.9-0.5,9.6-0.8,13.5-0.9h0.4c0.3-1.1,0.5-2.2,0.8-3.2c-5,0.1-9.7,0.4-15.2,1.2L239.9,95.9z"/>
			<path d="M294.7,116.7c-0.1,3-0.6,4-2.4,4c-1.2,0-2.6-1.9-2.9-4.6c0.4-1.7,0.6-3.6,0.7-5.4c0.2-6,0.3-10.6,0.3-15.8
				c-1.8,2.2-3.8,4.3-6.1,6.2c-0.2,0.2-0.4,0.2-0.7,0.2c-0.4,0-0.7-0.3-0.7-0.8c0-0.2,0.1-0.4,0.3-0.7c4.9-6.8,8.1-12.8,10.6-20.7
				c0.3-0.9,0.3-1.6,0.3-2.1c0-0.9-0.1-1.3-0.4-2c0.1-0.5,0.5-0.9,1-0.9c1.1,0.1,3.4,1.3,4.8,2.7c0.5,0.6,0.8,1,0.8,1.4
				c0,0.4-0.2,0.8-0.6,1.4c-0.6,0.8-1.2,1.9-2,3.7c-1.1,2.3-2.5,4.8-4.2,7.4c0.4,0.4,0.8,0.8,1.1,1.2c0.5,0.7,0.6,1,0.6,1.6
				c0,0.4-0.2,1.4-0.3,2.1L294.7,116.7z M298.7,111c-0.3,0.2-0.7,0.3-0.9,0.3c-0.4,0-0.6-0.2-0.6-0.6c0-0.2,0.1-0.5,0.3-0.8
				c2.5-3.4,4-6.4,4.9-9.6c0.2-0.7,0.2-0.9,0.2-1.2c0-0.4-0.2-1.2-0.4-1.8c0-0.7,0.4-0.8,0.9-0.8c0.6,0,3.2,1,4.2,1.7
				c0.8,0.5,1,0.9,1,1.3c0,0.5-0.2,0.9-0.6,1.4C304.9,105.9,302.3,108.6,298.7,111z M311.4,94c0-3-0.2-4.6-0.4-5.6
				c-0.9,0.1-1.8,0.3-2.6,0.4c-0.5,0-1-0.1-2-0.6c-1.6,2.3-3.5,4.6-6.4,7.1c-0.2,0.2-0.5,0.3-0.7,0.3c-0.4,0-0.7-0.3-0.7-0.8
				c0-0.2,0.1-0.4,0.3-0.7c3.4-5.4,4.4-8.1,6-13.9c0.4-1.4,0.5-2.4,0.5-3.3c0-1-0.3-1.5-0.3-2c0-0.4,0.2-0.6,0.7-0.6
				c1,0,3.4,0.9,4.6,1.6c0.7,0.4,1.2,0.8,1.2,1.4c0,0.4-0.2,0.9-0.5,1.4c-0.5,1-1.1,2.1-1.7,3.5c-0.4,1-0.9,1.9-1.4,2.7
				c4.3-0.7,9.3-1.3,13.1-1.8c1-0.1,1.6-0.3,2.5-1c1.1,0.1,2.6,0.7,3.9,1.8c1.9,1.6,2.3,2.5,2.3,3.4c0,0.7-0.7,1.4-2.8,2.6
				c-2.1,1.2-3.2,1.7-5.1,2.4c-0.6,0.2-0.9,0.3-1,0.3c-0.3,0-0.6-0.3-0.6-0.7c0-0.2,0.1-0.4,0.2-0.6c1-1.7,1.6-2.7,2.4-4.6
				c-2.1,0.2-5.1,0.4-8.1,0.9c1.5,1,1.9,1.8,1.9,2.5c0,0.3-0.1,0.7-0.2,1c-0.3,0.8-0.3,1.6-0.3,3.3l0.1,12.6c0,3.2,0.2,5.2,0.2,8.7
				c-0.2,1.5-0.7,2.7-1.4,3.7c-0.7,1-1.3,1.3-2,1.3c-0.9,0-2.4-0.8-4.7-3c-1-1-2-2.1-2.7-3c-0.3-0.3-0.4-0.6-0.4-0.8
				c0-0.4,0.3-0.6,0.8-0.6c2,0.4,3.8,0.7,5.3,0.8V94z M323.7,107.3c-1.3-4-2.6-7.3-4.1-10.2c-0.2-0.3-0.2-0.5-0.2-0.7
				c0-0.4,0.3-0.6,0.6-0.6c0.3,0,0.6,0.1,0.9,0.3c2.9,1.9,5.1,4.3,6.7,6.8c1,1.5,1.6,3,1.6,4.3c0,1.8-1.2,3.2-2.6,3.2
				S324.4,109.5,323.7,107.3z"/>
			<path d="M355.6,99c-3.8,4.2-8.1,7.1-12.4,9.6c-0.2,0.1-0.4,0.2-0.6,0.2c-0.4,0-0.8-0.3-0.8-0.7c0-0.2,0.2-0.5,0.4-0.7
				c4.8-3.8,9-8.7,12.8-14.9c-0.2-1.5-0.5-2.9-1-4.3c-3.1,2.5-6.4,4.6-9.5,5.9c-0.2,0.1-0.4,0.1-0.5,0.1c-0.5,0-0.8-0.3-0.8-0.7
				c0-0.3,0.1-0.5,0.4-0.7c3-2.1,6.2-5.1,8.6-8.1c-1-1.4-2.3-2.6-4.1-4c-0.4-0.3-0.7-0.7-0.7-1c0-0.3,0.3-0.6,0.7-0.6
				c0.2,0,0.5,0.1,0.8,0.2c1.9,1,3.5,2.1,4.9,3.3c0.6-0.8,1.1-1.6,1.6-2.4c0.6-1,0.9-1.7,0.9-2.3c0-0.3-0.2-1.2-0.5-1.8
				c0-0.4,0.4-0.5,1-0.5c1,0,2.9,0.7,4.2,1.9c0.7,0.6,1,1.1,1,1.5c0,0.3-0.1,0.7-0.6,1.3c-0.8,0.9-1.4,1.7-2,2.4
				c-0.9,1.1-1.9,2.1-2.9,3.2c1.1,1.6,1.9,3.6,2.4,6c0.5,2.6,0.8,4.7,0.8,8.5c0,4.6-0.3,9.5-1,13c-0.5,2.9-1.5,4.7-3,6.1
				c-0.5,0.5-1.2,1-1.7,1c-0.5,0-1.1-0.3-1.9-1.1c-1.2-1.3-2.6-3.3-3.6-4.9c-0.2-0.3-0.3-0.6-0.3-0.8c0-0.3,0.2-0.4,0.4-0.4
				c0.2,0,0.3,0.1,0.5,0.1c1.4,0.5,3.1,0.9,4.7,1c0.9-3.4,1.5-8.3,1.5-13.5V99z M378.7,107.3c-2.6,0.3-5.9,0.9-8.9,1.6
				c-0.5,0-0.9-0.1-1.3-0.5c-1.3-1.3-1.5-1.6-1.5-2c0-0.3,0.2-0.4,0.6-0.4c4.2-0.5,7.8-1,10.9-1.5c0.7-0.1,1.3-0.3,2.2-1
				c0.8,0.2,1.4,0.4,2.6,1.1c1.5,0.8,1.8,1.3,1.8,1.8c0,0.5-0.2,1-0.9,1.7c-0.5,0.5-1.4,1.3-2.3,2.4c-1.2,1.3-2.4,2.5-3.8,3.6
				c1.3,0.6,2.9,1.2,4.7,1.9c1.2,0.4,4.3,1.4,6.4,2.1c0.9,0.3,2.4,0.9,3.5,1.4c0.5,0.2,0.8,0.5,0.8,0.8c0,0.4-0.4,0.7-1.2,0.9
				c-1.9,0.4-5.1,0.7-6.6,0.7c-1,0-1.6-0.1-2.4-0.6c-2.7-1.7-5.5-3.5-8.3-5.2c-3.5,2.1-9.3,4.2-14.6,5c-0.8,0-1-0.3-1-0.8
				c0-0.3,0.2-0.5,0.5-0.7c4.7-1.7,8.6-3.5,11.8-5.6c-1.1-0.7-2.2-1.4-3.3-2.1c-1.3-0.8-2.2-1.1-3.3-1.5c-0.2-0.1-0.4-0.3-0.4-0.5
				c0-0.2,0.1-0.4,0.5-0.5c0.8-0.3,1.6-0.4,2.1-0.4c0.4,0,1,0.2,1.4,0.4c1.8,1,3.5,1.9,5.4,2.9C376,110.8,377.5,109.1,378.7,107.3z
				 M378.2,91.6l2-0.2c0.8-0.1,1.4-0.3,2.4-0.7c2,0.3,3.4,1,3.4,1.9c0,0.6-0.8,0.7-2.5,0.8c-1.5,0.1-3.3,0.2-5.3,0.4l-0.1,2l1.8-0.2
				c0.8-0.1,1.6-0.2,2.4-0.7c2.5,0.3,3.5,1.2,3.5,2c0,0.4-0.8,0.7-2.5,0.8c-1.2,0.1-3.1,0.2-5.3,0.4l-0.1,2.2
				c1.9-0.2,3.6-0.3,5.1-0.4c0.8-0.1,1.5-0.3,2.4-0.7c2,0.3,4.2,1.2,4.2,2.3c0,0.7-0.8,0.9-2.5,1c-5.2,0.2-11.8,0.7-18.1,1.4
				c-0.1,1.2-0.5,1.6-1.5,1.6c-1.1,0-2.2-1.4-2.4-3.6c0.2-0.9,0.3-1.9,0.3-2.9v-4.8c-1.1,1.2-2.3,2.1-3.7,3.3
				c-0.2,0.1-0.4,0.3-0.7,0.3c-0.4,0-0.7-0.3-0.7-0.5c0-0.2,0.1-0.5,0.3-0.8c3-3.6,4.5-6.4,5.3-9.7c0.1-0.3,0.1-0.5,0.1-0.8
				c0-0.2,0-0.5-0.1-0.9c0-0.3,0.1-0.6,0.4-0.6c0.7,0,1.6,0.2,3.2,1.2c0.7,0.4,1.1,0.9,1.1,1.3c0,0.4-0.2,0.7-0.5,1.1l-0.1,0.2
				l4.1-0.5c0.4-2,0.4-2.6,0.4-3.4c0-0.3-0.1-0.5-0.2-0.9c0-0.3,0.3-0.5,0.6-0.5c0.5,0,1.6,0.4,2.7,1c0.7,0.4,0.9,0.8,0.9,1
				c0,0.4-0.2,0.7-0.9,1.2c-0.4,0.4-0.8,0.7-1.6,1.3l4.6-0.5c0.8-0.1,1.6-0.3,2.4-0.8c2,0.2,4.2,1.1,4.2,2.2c0,0.5-0.7,0.8-2.4,0.9
				c-1.6,0.1-4.1,0.3-6.6,0.5L378.2,91.6z M383.9,78.4c1.4-0.1,2.1-0.4,3-0.9c2.9,0.4,4.5,1.9,4.5,3c0,0.8-0.7,1-2.6,1.1
				c-2.4,0.1-4.8,0.2-7.1,0.3l-1,2.1c-0.3,0.6-0.8,0.9-1.2,0.9c-0.5,0-0.9-0.3-0.9-1.2l0.1-1.6c-2,0.1-4.1,0.3-6,0.5
				c-0.1,0.7-0.1,1.4-0.1,2.3c-0.1,0.7-0.6,1.1-1.2,1.1c-0.5,0-0.9-0.3-1.1-0.9c-0.2-0.8-0.4-1.5-0.6-2.2c-1.9,0.2-3.6,0.5-5.4,0.7
				c-0.4,0-0.8-0.1-1.2-0.5c-1.4-1.5-1.6-1.9-1.6-2.4c0-0.2,0.1-0.4,0.9-0.4c2.3-0.2,4.3-0.3,6.4-0.5c-0.2-0.5-0.3-1.2-0.5-1.8
				c-0.2-0.5-0.4-1-0.7-1.4c-0.4-0.5-0.5-0.9-0.5-1.3c0-0.4,0.3-0.6,0.7-0.6c1,0,2.1,0.2,3.6,0.7c0.9,0.3,1.6,0.9,1.6,1.6
				c-0.1,0.9-0.2,1.7-0.2,2.5c1.6-0.1,4.1-0.3,6.2-0.5v-2.5c0-0.4-0.1-0.9-0.2-1.5c-0.2-0.4-0.4-0.8-0.4-1.2c0-0.4,0.2-0.6,0.7-0.6
				c0.9,0,2.5,0.5,4.2,1.6c0.2,0.2,0.8,0.7,0.8,1c0,0.5-0.1,0.7-0.4,1.2c-0.3,0.5-0.4,1-0.6,1.5L383.9,78.4z M374.5,90
				c-1.8,0.2-3.7,0.4-5.5,0.6v1.9l5.5-0.5V90z M374.5,96.2v-2.1l-5.5,0.6v2L374.5,96.2z M369,101.2c3.1-0.3,4.3-0.4,5.5-0.6v-2.1
				c-1.8,0.2-3.7,0.3-5.5,0.5V101.2z"/>
			<path d="M412,100.5c-2.3,2.1-4.8,3.9-7.3,5.2c-0.2,0.1-0.4,0.2-0.7,0.2c-0.4,0-0.7-0.2-0.7-0.6c0-0.2,0.1-0.5,0.4-0.8
				c4.3-4.1,8.2-9.2,10.4-14.2c0.3-0.8,0.5-1.6,0.5-2.8c0-0.6,0.2-1,0.6-1c0.6,0,1.7,0.4,3.3,1.6c1.3,1,1.9,1.8,1.9,2.3
				c0,0.5-0.4,1-1,1.5c-1.3,1.9-2.7,3.7-4.2,5.3c1.3,1.2,1.4,1.6,1.4,2.3c0,0.3-0.1,1-0.2,1.7l-0.3,16.3c0,2.4-0.8,3.7-2.4,3.7
				c-1.3,0-2.5-1.8-2.9-4.6c0.4-1.4,0.5-3.1,0.7-4.7c0.2-2.4,0.3-6.7,0.3-9.6V100.5z M414,76.7c0-0.5,0.2-0.9,0.7-0.9
				c0.6,0,1.6,0.5,3.1,1.5c1.3,0.9,1.9,1.7,1.9,2.2c0,0.4-0.3,0.9-1,1.4c-4.2,3.9-9.1,6.8-14,8.3c-0.2,0.1-0.3,0.1-0.5,0.1
				c-0.4,0-0.7-0.3-0.7-0.7c0-0.2,0.1-0.4,0.4-0.7c3.6-2.5,7-5.7,9.3-8.6C413.7,78.6,414,77.9,414,76.7z M449.5,97.8
				c-2.3,0-4.4,0.1-6.6,0.2c1.5,0.8,1.9,1.2,1.9,1.6c0,0.3,0,0.5-0.2,1.1c-0.1,0.3-0.2,0.7-0.2,1.2l0.4-0.1c1.3-0.1,2.2-0.2,3.1-0.8
				c2.5,0.4,4.3,1.6,4.3,2.9s-0.8,1.3-2.7,1.4c-1.7,0.1-3.4,0.1-5.2,0.2c0.1,5.4,0.1,8.4,0.2,11c0,1.4-0.2,2.7-1.1,4.6
				c-0.6,1.2-1.5,1.5-2.1,1.5s-1.3-0.3-2.7-1.6c-1.3-1.2-2.4-2.6-3.5-4.2c-0.3-0.4-0.4-0.7-0.4-1s0.3-0.4,0.7-0.4l0.3,0.1
				c1.4,0.3,3.1,0.5,4.2,0.6v-10.2c-5.3,0.4-10.7,1-15.9,1.8c-0.3,0-0.8-0.2-1.6-1.3c-0.7-0.8-1-1.5-1-1.9c0-0.3,0.2-0.4,1-0.5
				c6.9-0.8,12.6-1.3,17.5-1.8c0-1.9-0.1-3.3-0.5-4.1c-5.4,0.4-10.9,1.1-17.6,2.1c-0.4,0-0.8-0.2-1.6-1.2c-1-1.3-1.2-1.6-1.2-1.9
				c0-0.3,0.2-0.4,0.7-0.4c11.7-1.3,18.6-1.9,25.6-2.5c0.9-0.1,2.1-0.3,3-0.8c1.6,0.2,3,0.8,3.9,1.4c0.8,0.6,1.2,1.1,1.2,1.8
				c0,0.8-0.4,1.2-2.7,1.2H449.5z M438.1,74.8c1.6-0.2,2.1-0.4,2.8-0.9c1.2,0.3,2.2,0.8,3.5,1.7c1,0.7,1.5,1.4,1.5,2
				c0,0.6-0.1,0.9-0.5,1.4c-0.5,0.7-0.6,1.3-0.6,2.4c0,1.9,0,6.7-0.1,8.9c-0.1,1.9-0.9,2.7-2.1,2.7c-0.9,0-1.8-0.7-2.3-2
				c-3.3,0.2-6.5,0.4-9.8,0.7c-0.2,1.4-1,2-1.6,2c-1.3,0-2.3-1.1-2.7-3.2c0.1-0.7,0.2-1.2,0.2-2.3c0-0.9-0.1-2.3-0.1-4.7
				c-0.1-4.1-0.2-5.4-0.6-6.8c-0.2-0.6-0.3-0.9-0.3-1.2c0-0.4,0.3-0.6,0.8-0.6c0.6,0,1.6,0.4,2.7,1
				C432.8,75.4,435.7,75.1,438.1,74.8z M427.6,109.1c-0.2-0.3-0.3-0.6-0.3-0.8c0-0.2,0.2-0.4,0.8-0.4c1.2,0,3.4,0.7,5,1.9
				c1.1,0.8,1.9,1.9,1.9,3c0,1.4-1,2.2-2.1,2.2c-0.4,0-1.3-0.3-1.9-0.9C429.4,112.3,428.4,110.7,427.6,109.1z M440.3,77.8
				c-3.1,0.3-7.5,0.7-10,1.2l0.1,3.2c2.5-0.3,4.6-0.6,6-0.7c1-0.1,1.5-0.4,2.1-0.7c0.5,0.1,1.2,0.2,1.8,0.4V77.8z M440.3,84.1
				c-3.3,0.1-6.7,0.4-10,0.9l0.1,3.6c3.3-0.3,6.6-0.5,9.8-0.8L440.3,84.1z"/>
		</g>
	</g>
	<g>
		<g>
			<circle class="st1" cx="106.5" cy="98.9" r="32.4"/>
			<g>
				<path class="st2" d="M108,95.3c1.2-0.1,2.2-0.1,3.1-0.2c1.4,0,2.7-0.3,3.5-0.8c2.9,0.6,4.6,1.8,4.6,2.9c0,0.8-0.6,1.2-1.4,1.2
					c-7.9,0-13.3,0.4-22,1.6c-0.6,0-1-0.2-1.4-0.6c-1.4-1.5-1.6-1.9-1.6-2.2c0-0.2,0.2-0.4,0.8-0.5c4-0.5,7.4-0.8,10.3-1.1l0-5.2
					c-4.6,0.4-9.2,0.9-14.1,1.7c-0.7,0-1-0.1-1.4-0.6c-1.4-1.7-1.7-2.1-1.7-2.5c0-0.2,0.2-0.3,0.8-0.4c6.3-0.7,11.6-1.2,16.3-1.6
					v-2.1c0-2.2-0.2-3.5-0.6-4.7c-0.1-0.3-0.3-1-0.3-1.3c0-0.3,0.2-0.5,0.7-0.5c0.8,0,3,0.6,4.3,1.3c0.9,0.5,1.2,0.9,1.2,1.3
					c0,0.5-0.2,1-0.4,1.4c-0.2,0.5-0.5,1.6-0.5,2.5l0,1.8c3.2-0.2,6.2-0.4,9.3-0.6c1.4-0.1,2.2-0.4,3.3-0.9c3,0.5,5.2,2,5.2,3.2
					c0,0.8-0.5,1.3-1.6,1.3c-5.8,0-11.1,0.1-16.3,0.5L108,95.3z M98.6,118.8c-1.4,0-2.2-1-2.7-3.1c0-1.9,0-2.1-0.6-5.5
					c-0.7-4.3-1-4.9-1.4-5.8c-0.2-0.3-0.3-0.7-0.3-1.1c0-0.3,0.2-0.5,0.7-0.5c0.7,0,1.9,0.4,3.1,0.9c5.2-0.6,9.4-1,14.3-1.4
					c1.2-0.1,2.1-0.2,3-0.7c1.2,0.2,2.3,0.8,3.2,1.4c1,0.8,1.7,1.6,1.7,2.1c0,0.5-0.2,0.9-0.7,1.4c-0.2,0.2-0.7,1.2-0.9,2.1
					c-0.6,1.6-1,3-1.6,4.6c0.9,0.5,1.4,1.2,1.4,1.9c0,0.7-0.9,1.1-2.5,1.1c-5,0-10,0.3-15.2,0.9C99.9,118.2,99.3,118.8,98.6,118.8z
					 M99.8,114c4.1-0.4,8.3-0.7,12.4-0.9l1.5-7.5c-4.2,0.2-9.3,0.6-14.7,1.3L99.8,114z"/>
			</g>
		</g>
		<g>
			<circle class="st1" cx="507.5" cy="98.9" r="32.4"/>
			<g>
				<path class="st2" d="M509,95.3c1.2-0.1,2.2-0.1,3.1-0.2c1.4,0,2.7-0.3,3.5-0.8c2.9,0.6,4.6,1.8,4.6,2.9c0,0.8-0.6,1.2-1.4,1.2
					c-7.9,0-13.3,0.4-22,1.6c-0.6,0-1-0.2-1.4-0.6c-1.4-1.5-1.6-1.9-1.6-2.2c0-0.2,0.2-0.4,0.8-0.5c4-0.5,7.4-0.8,10.3-1.1l0-5.2
					c-4.6,0.4-9.2,0.9-14.1,1.7c-0.7,0-1-0.1-1.4-0.6c-1.4-1.7-1.7-2.1-1.7-2.5c0-0.2,0.2-0.3,0.8-0.4c6.3-0.7,11.6-1.2,16.3-1.6
					v-2.1c0-2.2-0.2-3.5-0.6-4.7c-0.1-0.3-0.3-1-0.3-1.3c0-0.3,0.2-0.5,0.7-0.5c0.8,0,3,0.6,4.3,1.3c0.9,0.5,1.2,0.9,1.2,1.3
					c0,0.5-0.2,1-0.4,1.4c-0.2,0.5-0.5,1.6-0.5,2.5l0,1.8c3.2-0.2,6.2-0.4,9.3-0.6c1.4-0.1,2.2-0.4,3.3-0.9c3,0.5,5.2,2,5.2,3.2
					c0,0.8-0.5,1.3-1.6,1.3c-5.8,0-11.1,0.1-16.3,0.5L509,95.3z M499.7,118.8c-1.4,0-2.2-1-2.7-3.1c0-1.9,0-2.1-0.6-5.5
					c-0.7-4.3-1-4.9-1.4-5.8c-0.2-0.3-0.3-0.7-0.3-1.1c0-0.3,0.2-0.5,0.7-0.5c0.7,0,1.9,0.4,3.1,0.9c5.2-0.6,9.4-1,14.3-1.4
					c1.2-0.1,2.1-0.2,3-0.7c1.2,0.2,2.3,0.8,3.2,1.4c1,0.8,1.7,1.6,1.7,2.1c0,0.5-0.2,0.9-0.7,1.4c-0.2,0.2-0.7,1.2-0.9,2.1
					c-0.6,1.6-1,3-1.6,4.6c0.9,0.5,1.4,1.2,1.4,1.9c0,0.7-0.9,1.1-2.5,1.1c-5,0-10,0.3-15.2,0.9C501,118.2,500.4,118.8,499.7,118.8z
					 M500.9,114c4.1-0.4,8.3-0.7,12.4-0.9l1.5-7.5c-4.2,0.2-9.3,0.6-14.7,1.3L500.9,114z"/>
			</g>
		</g>
	</g>
</g>
</svg>
