<?xml version="1.0" encoding="utf-8"?>
<!-- Generator: Adobe Illustrator 21.1.0, SVG Export Plug-In . SVG Version: 6.00 Build 0)  -->
<svg version="1.1" id="圖層_1" xmlns="http://www.w3.org/2000/svg" xmlns:xlink="http://www.w3.org/1999/xlink" x="0px" y="0px"
	 viewBox="0 0 614 632.2" style="enable-background:new 0 0 614 632.2;" xml:space="preserve">
<style type="text/css">
	.st0{fill:#C5A900;}
	.st1{fill:#FFFFFF;}
	.st2{fill:#B79100;}
	.st3{fill:#9A6C00;}
</style>
<title>資產 3</title>
<g id="圖層_2">
	<g id="圖層_1-2">
		<polygon class="st0" points="470,594.4 585.3,479.2 606,384.6 511.4,405.3 396.2,520.6 375.5,615.1 		"/>
		<path class="st1" d="M393.3,517.7l115.3-115.3c0.5-0.5,1.2-0.9,2-1.1l94.6-20.7c2.2-0.5,4.3,0.9,4.8,3c0.1,0.6,0.1,1.2,0,1.7
			L589.2,480c-0.2,0.7-0.5,1.4-1.1,2L472.9,597.2c-0.5,0.5-1.2,0.9-2,1.1L376.3,619c-2.2,0.5-4.3-0.9-4.8-3c-0.1-0.6-0.1-1.2,0-1.7
			l20.7-94.6C392.4,518.9,392.8,518.3,393.3,517.7z M513.4,408.9L399.8,522.6l-19.1,87.3l87.3-19.1l113.6-113.6l19.1-87.3
			L513.4,408.9z"/>
		
			<rect x="188.2" y="19.3" transform="matrix(0.7071 -0.7071 0.7071 0.7071 -118.3084 272.714)" class="st2" width="163.7" height="519.7"/>
		<path class="st1" d="M25.6,150.5L141.3,34.7c1.6-1.6,4.1-1.6,5.7,0l367.5,367.5c1.6,1.6,1.6,4.1,0,5.7L398.8,523.6
			c-1.6,1.6-4.1,1.6-5.7,0L25.6,156.1C24,154.5,24,152,25.6,150.5z M144.2,43.2L34.1,153.3l361.8,361.8L506,405.1L144.2,43.2z"/>
		<polygon class="st3" points="243.4,22 144.1,37.5 511.7,405.1 605.9,384.4 		"/>
		<path class="st1" d="M141.3,34.7c0.6-0.6,1.4-1,2.2-1.1L242.8,18c1.3-0.2,2.5,0.2,3.4,1.1l362.4,362.4c1.6,1.6,1.6,4.1,0,5.7
			c-0.5,0.5-1.2,0.9-2,1.1L512.5,409c-1.3,0.3-2.7-0.1-3.7-1.1L141.3,40.4C139.8,38.8,139.8,36.3,141.3,34.7z M242,26.2l-89.5,14
			l360.4,360.4l84.9-18.6L242,26.2z"/>
		<polygon class="st0" points="12.9,252.5 28.4,153.3 395.9,520.8 375.3,615 		"/>
		<path class="st1" d="M25.6,150.5c1.6-1.6,4.1-1.6,5.7,0L398.8,518c1,1,1.4,2.4,1.1,3.7l-20.6,94.2c-0.5,2.2-2.7,3.5-4.8,3
			c-0.7-0.2-1.4-0.5-1.9-1L10.1,255.3c-0.9-0.9-1.3-2.2-1.1-3.4l15.5-99.3C24.6,151.8,25,151,25.6,150.5z M391.6,522.1L31.2,161.7
			l-14,89.4L373,606.9L391.6,522.1z M12.9,252.5L12.9,252.5z"/>
		<path class="st1" d="M514.3,497.2l-26.2,26.2c-5.8,5.8-15.2,5.8-20.9,0l0,0c-5.8-5.8-5.8-15.2,0-20.9l26.2-26.2
			c5.8-5.8,15.2-5.8,20.9,0l0,0C520.1,482,520.1,491.4,514.3,497.2z"/>
		<path class="st1" d="M148.5,207.2c0.4,3.6-0.5,5.5-1.9,6.8c-1.3,1.3-4.1,1.8-7.2,1.7c-4.2-0.1-7.3-0.8-8.8-2.3
			c-0.7-0.8-1.3-1.8-1.8-2.8c-0.2-0.5-0.2-0.9,0.1-1.2c0.2-0.2,0.4-0.3,0.7-0.4c2.8-0.4,4.2-1,4.9-1.7c1-1,1.6-2.5,2.7-6.3
			c2.4-7.5,4.4-14.7,6.4-20.7l-15.5-15.5c-0.4,0.7-0.7,1.4-1.2,2.2c-2.2,3.8-5.2,8.8-6.5,10.1c-1.1,1.1-2.5,1.9-4.1,2.1
			c-4.6,0.8-9.2,0.6-13.7-0.6c-0.7-0.2-0.7-0.2-0.9-0.4c-0.2-0.2-0.1-0.4,0.5-0.7c2-0.8,3.9-1.9,5.4-3.5c2.4-2.8,4.6-5.8,6.5-8.9
			c1.7-2.9,3.4-6.2,4.9-9.3c-2.4-2.4-4.9-4.9-7.3-7.2c-2.5-2.3-4.2-4.1-5.9-4.2s-3.5,1-4.9,2.1c-0.6,0.4-1.2,0.6-1.3,0.4
			c-0.2-0.2-0.3-0.6-0.2-1.2c0.3-3.8,1.6-7.8,2.8-9c1.2-1.2,3.2-2.3,7.3-3.3c4.4-1.1,6-0.7,7.3,0.5c0.8,0.8,1.3,1.8,1.5,2.9
			c0.7,2.3,1.6,3.4,6.4,8.3c0.8-1.7,1.4-3.4,1.9-5.2c4.7-4.9,9-5.7,10.9-3.8c2.7,2.7,2.1,4.9,0.4,8.8c-1.3,3.1-2.7,6.1-4.3,9.3
			c4.8,4.9,9.5,9.8,14.3,14.7c0.2-0.7,0.4-1.3,0.7-2c3.8-10,7.6-16.4,13.2-22c11.9-11.9,25.8-12.8,33.8-4.8
			c9.2,9.2,7.1,21.9-2.5,31.5c-7.2,7.2-16.6,9.2-25.4,8.9c-0.4,0-0.5-0.4-0.4-0.5c0.1-0.1,0.3-0.2,0.4-0.3c4.5-1.7,8.1-4.3,12.3-8.6
			c8.8-8.8,9.6-18.7,3.2-25.1c-5.4-5.4-12-4.1-18.5,2.4c-4,4-6.8,11.6-9.4,22.3c-0.4,1.6-0.8,3.2-1,4.9c1.9,1.9,5.4,5.4,7.3,7.2
			c2,1.8,3,2.8,4.2,4.1c1.2,1.2,2.4,2.5,3.5,3.8c5.4,6.8,5.5,12.2,2.3,15.4c-1.7,1.7-3.3,2-8.1-0.3c-2.8-1.4-7.3-1.7-14.8-0.3
			L148.5,207.2z M148.8,203.7c2.8-1.4,5.4-3.1,7.7-5.2c1.3-1.3,1.9-2.7-1.3-6.1c-1.5-1.5-2.9-3.1-4.4-4.6
			C149.9,193.1,149.3,198.4,148.8,203.7z M156.8,131.5c-0.4,0.4-0.7,0.4-1,0.1s-0.3-0.3-0.2-0.7c1.9-9.2,1.8-13.4,0.4-14.9
			c-2.5-2.5-11.2-2.2-16.8,3.4l-1.2,1.2c-0.4,0.4-0.9,0.5-1.2,0.3c-0.3-0.3-0.2-0.5,0.1-1.3c1.3-3.3,3.3-6.4,5.8-8.9
			c7.7-7.7,20.4-10.7,26.7-4.4c3.9,3.9,3.1,7,0.4,9.7c-0.8,0.7-1.6,1.4-2.4,2c-1,0.8-2,1.7-2.8,2.5c-1.2,1.2-3.7,4.4-7.7,10.9
			L156.8,131.5z"/>
		<path class="st1" d="M239.4,215c-1.8-1.8-3.8-2.6-7.2-1c-0.4,0.2-0.7,0.2-0.9,0s-0.3-0.4,0-1.1c0.8-1.8,1.9-3.6,3.2-5.1
			c1.3-1.3,3.5-2.1,9.4-2.7c4.5-0.1,5.9,0.3,7.5,1.9c1.3,1.3,4.2,6.6,6.1,11.2c4-1.4,8-2.5,12.1-3.3c3.7-0.7,7.5-0.4,10,2
			c3.1,3.1,2.6,6.5-0.1,9.1c-1.9,1.9-3.5,2.7-8.8,3.3c-2.9,0.3-5.6,0.6-8.6,1.1c3.7,13.1,3.2,25.7,0,35.2c-2.8,8.2-6.7,15.9-11.7,23
			c-0.3,0.3-0.4,0.4-0.6,0.3c-0.2-0.2-0.2-0.4-0.1-0.6c3.4-8.5,5-17.3,5.1-28.5c0-8.8-1.8-17.5-5.1-25.7
			c-9.2,3.3-17.8,8.1-25.5,14.1c3.1,12.7,4.8,22.5,4.2,29.2c-0.4,6.1-2.7,10.8-5.4,13.5c-3.1,3.1-8.6,3.5-14.3-2.3
			c-5.3-5.3-8.6-12.5-7-20.4c1.3-6.5,5.1-14,10.4-20.5c-4.3-12.3-9-24.1-12.3-31.9c-0.2-0.5-0.5-1-0.9-1.4c-0.3-0.4-1-0.5-1.4-0.2
			c-0.1,0.1-0.1,0.1-0.2,0.2c-1,1.2-3.3,6.6-5.2,12.1c-0.7,2.1-1,3.5-2.5,5.1c-1.5,1.7-3.6,1.7-8.9,0.4c-3.3-0.8-5.4-1.5-6.6-2.7
			c-0.6-0.6-1-1.3-1.3-2c-0.4-0.9-0.4-1.1-0.2-1.2c0.2-0.2,0.3-0.3,1.2-0.3c2.6-0.1,5.1-1,7.1-2.7c1.4-1.4,2.7-3,3.8-4.7
			c4.2-6.9,5.5-9.4,6.4-12.7c0.1-3.3-0.1-4.7,0.8-5.6c1.3-1.3,3-1.9,8.7-2.7c5.7-0.7,7.1-0.2,8.2,1s1.4,1.8,1.6,3.9
			c0.1,1.6,0.3,3.2,0.7,4.8c3.9,13.8,6.8,23.3,9.9,32.2c7.3-6.2,15.4-11.6,24-15.8C242.9,219.7,241.2,216.8,239.4,215z M218.7,278.9
			c-0.1-7.6-1.3-15.2-3.5-22.5c-5.7,6.1-9.2,11.2-10,14.6c-0.6,3.1,0.2,5.7,3.8,9.3c3.6,3.6,6.9,3.7,8.1,2.6
			C218.1,281.9,218.7,280.4,218.7,278.9L218.7,278.9z"/>
		<path class="st1" d="M268.9,286.8c-0.2-0.2-0.3-0.3-0.1-0.8c0.6-1.4,1.5-2.7,2.6-3.8c1.8-1.8,4.2-3,14.1-4
			c4.6-0.5,6.9,0.2,8.6,1.9c1.5,1.5,2,3.3,1.5,7.5c-1.8,13.4-2.5,26.9-2,40.4c0.1,2.4,0.7,3.5,1.6,4.4c1.2,1.2,3.1,1,9,0.2
			c20.8-2.7,30.7-2.9,38.9-1.6c7.2,1.2,10.4,3,12.4,4.9c4.4,4.4,4.1,9,1.1,12c-3.2,3.2-5.9,3.5-14.2,0.5c-10.2-3.8-27.1-6-41.2-5.9
			c-6.4,0-9.6-0.1-11.8-2.2c-2.1-2.1-3.3-4-3.9-9c-0.7-5.5-0.8-10.7-2.1-19.3c-1-6.6-1.8-11.3-3-17.2c-0.4-2.4-1.5-4.6-3.2-6.4
			c-1.4-1.4-3.8-2.2-7.4-1.8C269.1,287,269.1,287,268.9,286.8z"/>
		<path class="st1" d="M334.9,383.4c1.2-1.2,4.8-2.8,9.7-3.9c5.6-1.1,8.8-0.8,10.4,0.8c1,1.2,1.6,2.8,1.6,4.4
			c0.1,1.2,0.7,2.5,2.2,4.3c17.6,20.8,28.3,32.7,36.5,41s12.4,8.7,19.6,1.4c5.9-5.7,10.7-12.5,14.2-19.9c4.1-8.5,7.3-17.2,8.6-24.7
			c0-0.3,0.2-0.6,0.4-0.8c0.2-0.2,0.6-0.3,0.8-0.1c0.2,0.2,0.2,0.2,0.3,0.6c1.1,10.3,0.1,21.3-3.1,30.2c-3.2,9.2-6.8,16.9-13.3,23.4
			c-12.9,12.9-21.9,14-38.6-2.7c-11-11-26.9-28.7-38.9-41.4c-2.3-2.5-2.9-3.1-3.3-3.5c-2-2-3.1-2.6-4.9-2.4c-2,0.3-3.9,1-5.7,2.1
			c-0.4,0.3-0.7,0.2-1-0.1c-0.2-0.2-0.3-0.6-0.2-0.9C331.3,388.5,332.8,385.7,334.9,383.4z M386.7,359.7c5.2-1.1,8.6-0.3,11,2.1
			c2.4,2.4,2.1,5.7-0.3,8.1c-1.5,1.5-3.5,1.9-6.6,0.6c-4.3-2-11.2-3.5-16.3-2.5c-0.7,0.2-1.2,0.3-1.4,0s0-0.7,0.7-1.4
			C376.1,364.3,381.8,360.6,386.7,359.7L386.7,359.7z M387.3,342.4c5.2-1.5,8.1-1.1,10.6,1.4c2.5,2.5,2.5,5.5,0.1,7.9
			c-1.8,1.8-3.6,1.9-6.6,0.8c-3.8-1.5-11.2-1.9-15.4-0.7c-0.8,0.3-1.2,0.3-1.5-0.1s0-0.7,0.6-1.3
			C377.5,347.9,382.8,343.6,387.3,342.4L387.3,342.4z"/>
	</g>
</g>
</svg>
