<?xml version="1.0" encoding="UTF-8"?>
<svg width="140px" height="140px" viewBox="0 0 140 140" version="1.1" xmlns="http://www.w3.org/2000/svg" xmlns:xlink="http://www.w3.org/1999/xlink">
    <!-- Generator: Sketch 49.3 (51167) - http://www.bohemiancoding.com/sketch -->
    <title>Combined Shape</title>
    <desc>Created with Sketch.</desc>
    <defs></defs>
    <g id="login" stroke="none" stroke-width="1" fill="none" fill-rule="evenodd">
        <g id="forget-2-copy-2" transform="translate(-650.000000, -216.000000)" fill="#20DCB4">
            <path d="M720,356 C681.340068,356 650,324.659932 650,286 C650,247.340068 681.340068,216 720,216 C758.659932,216 790,247.340068 790,286 C790,324.659932 758.659932,356 720,356 Z M715.634837,308.812248 L749.966707,274.482655 C751.343943,273.103142 752.107683,271.272898 752.107683,269.327695 C752.107683,267.380215 751.343943,265.549972 750.001992,264.210297 C748.656626,262.80802 746.845732,262.023793 744.901667,262.003305 C743.065732,261.941842 741.100041,262.740866 739.702317,264.134037 L710.482154,293.351923 L699.439228,282.302167 C696.591423,279.465744 691.974837,279.46802 689.128171,282.305581 C686.29061,285.146557 686.29061,289.77111 689.128171,292.614362 L705.328333,308.812248 C706.680528,310.163305 708.557439,310.937289 710.482154,310.937289 C712.369309,310.937289 714.185894,310.197451 715.634837,308.812248 Z" id="Combined-Shape"></path>
        </g>
    </g>
</svg>