<?xml version="1.0" encoding="utf-8"?>
<!-- Generator: Adobe Illustrator 21.1.0, SVG Export Plug-In . SVG Version: 6.00 Build 0)  -->
<svg version="1.1" id="圖層_1" xmlns="http://www.w3.org/2000/svg" xmlns:xlink="http://www.w3.org/1999/xlink" x="0px" y="0px"
	 viewBox="0 0 40 40" style="enable-background:new 0 0 40 40;" xml:space="preserve">
<style type="text/css">
	.st0{fill:#F6F7F8;}
	.st1{fill:#EDEDED;}
	.st2{fill:#E5E5E5;}
	.st3{fill:#EFEFEF;}
	.st4{fill:#F4F4F4;}
	.st5{fill:#D8D8D8;}
	.st6{fill:#F2F2F2;}
</style>
<title>Group 11</title>
<desc>Created with Sketch.</desc>
<g id="member-V">
	<g id="member_x2F_order_x5F_inquire" transform="translate(-392.000000, -2958.000000)">
		<g id="order_x2F_order_x5F_1-copy-3" transform="translate(368.000000, 2853.000000)">
			<g id="Group-13" transform="translate(0.000000, 64.000000)">
				<g id="Group-16" transform="translate(24.000000, 41.000000)">
					<g id="Group-11">
						<rect id="Rectangle-2" class="st0" width="40" height="40"/>
						<g id="Group-2" transform="translate(26.666667, 26.666667)">
							<polygon id="svg_2" class="st1" points="-20,-13.3 -6.9,-20 6.2,-13.3 6.2,-12.5 -6.9,-5.8 -20,-12.4 							"/>
							<polygon id="svg_3" class="st2" points="-20,-13.3 -6.9,-6.7 6.2,-13.3 6.2,0 -6.9,6.7 -20,0 							"/>
							<polygon id="svg_5" class="st3" points="-1.6,-9.3 -1.6,-5.4 -0.5,-5.3 0.3,-6.2 1,-6.1 1,-10.7 							"/>
							<polygon id="svg_6" class="st4" points="-14.8,-16 -1.4,-9.2 1,-10.7 -12.1,-17.3 							"/>
							<polygon id="svg_4" class="st5" points="-6.9,6.6 -6.9,-6.7 -6.9,-6.7 -20,-13.3 -20,0 -6.9,6.7 							"/>
							<path id="svg_7" class="st6" d="M-9.5-0.8L-13.9-3c-0.2-0.1-0.4,0-0.4,0.3V0c0,0.3,0.2,0.7,0.4,0.8L-9.5,3
								c0.2,0.1,0.4,0,0.4-0.3v-2.8C-9.1-0.4-9.3-0.7-9.5-0.8z M-10.6,1.4L-13.2,0c-0.1-0.1-0.2-0.2-0.2-0.4s0.1-0.2,0.2-0.2
								l2.6,1.3c0.1,0.1,0.2,0.2,0.2,0.4C-10.4,1.4-10.5,1.4-10.6,1.4z M-10.2,0.5l-3.1-1.6c-0.1-0.1-0.2-0.2-0.2-0.4
								s0.1-0.2,0.2-0.2l3.1,1.6C-10.1,0-10,0.2-10,0.3C-10,0.5-10.1,0.6-10.2,0.5z"/>
						</g>
					</g>
				</g>
			</g>
		</g>
	</g>
</g>
</svg>
