<?xml version="1.0" encoding="UTF-8"?>
<svg width="38px" height="38px" viewBox="0 0 38 38" version="1.1" xmlns="http://www.w3.org/2000/svg" xmlns:xlink="http://www.w3.org/1999/xlink">
    <!-- Generator: Sketch 51.3 (57544) - http://www.bohemiancoding.com/sketch -->
    <title>Group 2</title>
    <desc>Created with Sketch.</desc>
    <defs></defs>
    <g id="cart" stroke="none" stroke-width="1" fill="none" fill-rule="evenodd">
        <g transform="translate(-681.000000, -228.000000)" id="Group-4" stroke="#D8D8D8">
            <g transform="translate(130.000000, 119.000000)">
                <g id="Group-2" transform="translate(552.000000, 110.000000)">
                    <rect id="Rectangle-2-Copy" x="-0.5" y="-0.5" width="37" height="37" rx="4"></rect>
                    <path d="M26.3846374,11.5783158 C25.3375121,10.5659211 23.9507535,10.0125263 22.4709891,10.0125263 C20.9912247,10.0125263 19.6007644,10.5699474 18.5531764,11.5823421 L18.0062466,12.1111316 L17.4509879,11.5742895 C16.4038626,10.5618947 15.0087751,10 13.5290107,10 C12.0534108,10 10.6629505,10.5574211 9.61952689,11.5662368 C8.57240156,12.5786316 7.99585796,13.9229737 8.0000224,15.3536579 C8.0000224,16.7843421 8.58073044,18.1251053 9.62831849,19.1375 L17.590728,26.8358158 C17.701317,26.9427368 17.849386,27 17.9937533,27 C18.1376578,27 18.2861895,26.9467632 18.3963158,26.8402895 L26.3763085,19.1540526 C27.4234338,18.1412105 27.9999774,16.7968684 27.9999774,15.3661842 C28.0041419,13.9355 27.4317627,12.5907105 26.3846374,11.5783158" id="icon_最愛"></path>
                </g>
            </g>
        </g>
    </g>
</svg>