<?xml version="1.0" encoding="UTF-8"?>
<svg width="63px" height="70px" viewBox="0 0 63 70" version="1.1" xmlns="http://www.w3.org/2000/svg" xmlns:xlink="http://www.w3.org/1999/xlink">
    <!-- Generator: Sketch 54.1 (76490) - https://sketchapp.com -->
    <title>Group 11</title>
    <desc>Created with Sketch.</desc>
    <g id="index-V" stroke="none" stroke-width="1" fill="none" fill-rule="evenodd">
        <g id="index-copy-2" transform="translate(-602.000000, -2727.000000)" fill="#F6AB18" fill-rule="nonzero">
            <g id="Group-2" transform="translate(0.000000, 2641.000000)">
                <g id="Group-11" transform="translate(602.000000, 86.000000)">
                    <path d="M43.1975099,69.9954539 L21.244186,69.9954539 L21.244186,66.8162565 L43.1975099,66.8162565 C43.384985,66.8210187 43.5669775,66.7526263 43.7051012,66.6255047 L50.8113794,59.5041024 C51.5383812,58.7826002 52.516585,58.372248 53.5396827,58.3595913 L59.1295319,58.3595913 C59.5135567,58.3561396 59.8240255,58.0450099 59.8274699,57.6601678 L59.8274699,57.6601678 L59.8274699,42.2283434 C59.8240255,41.8435013 59.5135567,41.5323717 59.1295319,41.52892 L53.228783,41.52892 C52.19995,41.5450004 51.2110782,41.1301731 50.5004797,40.3844089 L43.7114461,33.5809263 C43.5733224,33.4538047 43.3913299,33.3854123 43.2038548,33.3901745 L39.39692,33.3901745 L39.39692,30.210977 L43.2038548,30.210977 C44.2326877,30.1948965 45.2215595,30.6097239 45.932158,31.3554881 L52.7211917,38.1589707 C52.8593154,38.2860923 53.0413079,38.3544847 53.228783,38.3497225 L59.1295319,38.3497225 C60.1580946,38.3428961 61.1465046,38.7493429 61.8738242,39.4782104 C62.6011439,40.207078 63.0067275,41.1975916 62.9999156,42.2283434 L62.9999156,57.679243 C63.0067275,58.7099948 62.6011439,59.7005084 61.8738242,60.429376 C61.1465046,61.1582435 60.1580946,61.5646903 59.1295319,61.5578639 L53.5460276,61.5578639 C53.3585524,61.5531017 53.17656,61.6214941 53.0384363,61.7486158 L45.932158,68.8700181 C45.2341084,69.6356603 44.2310453,70.0484678 43.1975099,69.9954539 L43.1975099,69.9954539 Z" id="Shape"></path>
                    <path d="M28.5633621,43.4736842 L12.8062095,43.4736842 C9.37622496,43.4701181 6.59655387,40.6624623 6.59302326,37.1979461 L6.59302326,36.4862644 C6.59655387,33.0217482 9.37622496,30.2140925 12.8062095,30.2105263 L23.5735971,30.2105263 L23.5735971,33.4454429 L12.8126148,33.4454429 C12.0136556,33.4437203 11.2469286,33.7635385 10.6819778,34.334177 C10.117027,34.9048155 9.80039654,35.6792616 9.8021019,36.4862644 L9.8021019,37.1979461 C9.80039654,38.0049489 10.117027,38.779395 10.6819778,39.3500335 C11.2469286,39.920672 12.0136556,40.2404902 12.8126148,40.2387677 L28.5697674,40.2387677 L28.5633621,43.4736842 Z" id="Shape"></path>
                    <path d="M21.5705733,53.0526316 L12.7490502,53.0526316 C9.35062042,53.0490654 6.59652138,50.2414097 6.59302326,46.7768935 L6.59302326,46.0652118 C6.59652138,42.6006956 9.35062042,39.7930398 12.7490502,39.7894737 L20.3647536,39.7894737 L20.3647536,43.0243902 L12.7490502,43.0243902 C11.9574411,43.0226677 11.1977678,43.3424859 10.6380143,43.9131244 C10.0782609,44.4837629 9.76454335,45.258209 9.76623302,46.0652118 L9.76623302,46.7768935 C9.76454335,47.5838963 10.0782609,48.3583424 10.6380143,48.9289809 C11.1977678,49.4996194 11.9574411,49.8194375 12.7490502,49.817715 L21.5705733,49.817715 C28.6785632,49.817715 29.1862768,48.8472401 29.3766694,48.5237484 C29.523599,48.250495 29.6934719,47.9907307 29.8843829,47.7473684 L32.2325581,49.9471117 L32.2325581,49.9471117 C32.1690939,50.01181 32.1690939,50.0765083 32.1056297,50.1412067 C31.217131,51.758665 29.8843829,53.0526316 21.5705733,53.0526316 Z" id="Shape"></path>
                    <path d="M25.6944763,63.3684211 L13.1311045,63.3684211 C9.52022194,63.3684211 6.59302326,60.399362 6.59302326,56.7368421 C6.59302326,53.0743222 9.52022194,50.1052632 13.1311045,50.1052632 L25.6944763,50.1052632 C28.0303079,50.105263 30.1887054,51.3692347 31.3566213,53.4210525 C32.5245371,55.4728702 32.5245371,58.000814 31.3566213,60.0526317 C30.1887054,62.1044495 28.0303079,63.3684213 25.6944763,63.3684211 L25.6944763,63.3684211 Z M13.1311045,53.3105263 C11.2946311,53.3211809 9.80846944,54.8285954 9.79796505,56.6913313 C9.79106902,57.5901025 10.1400232,58.4540935 10.7666092,59.08964 C11.3931952,59.7251865 12.2450049,60.0791309 13.1311045,60.0721362 L25.6944763,60.0721362 C27.5309498,60.0614816 29.0171114,58.5540672 29.0276158,56.6913313 C29.0345118,55.79256 28.6855577,54.928569 28.0589717,54.2930225 C27.4323856,53.657476 26.5805759,53.3035317 25.6944763,53.3105263 L13.1311045,53.3105263 Z" id="Shape"></path>
                    <path d="M24.3700371,69.987278 L12.8084078,69.987278 C10.9419917,70.119268 9.15250492,69.2166395 8.14023561,67.6326223 C7.1279663,66.048605 7.05388514,64.0350889 7.94698265,62.3800324 C8.84008016,60.7249759 10.5583363,59.6915655 12.429338,59.6842105 L24.3700371,59.6842105 C25.7293203,59.7288406 27.0145539,60.3183101 27.9399714,61.3215527 C28.865389,62.3247954 29.3542811,63.6586509 29.2979447,65.0265418 C29.2507114,67.7463423 27.0718388,69.93973 24.3700371,69.987278 Z M12.8084078,62.8641696 C12.088568,62.7824889 11.3824736,63.1061496 10.97108,63.7063668 C10.5596864,64.306584 10.5097354,65.0859825 10.8411025,65.734439 C11.1724697,66.3828955 11.8313961,66.7952087 12.5556946,66.8073189 L24.3700371,66.8073189 C25.4494551,66.7324835 26.2671864,65.7957627 26.2022079,64.7085459 C26.1694604,63.7038965 25.368038,62.8971352 24.3700371,62.8641696 L12.8084078,62.8641696 Z" id="Shape"></path>
                    <path d="M34.4302326,52.3157249 C32.2904908,52.3243397 30.235921,51.4708986 28.7228831,49.9449676 C27.2098452,48.4190366 26.3636151,46.3469591 26.3721571,44.1889839 L26.3721571,36.1267409 C26.3721571,31.6384659 29.9798804,28 34.4302326,28 C38.8805848,28 42.488308,31.6384659 42.488308,36.1267409 L42.488308,44.1889839 C42.49685,46.3469591 41.65062,48.4190366 40.137582,49.9449676 C38.6245441,51.4708986 36.5699743,52.3243397 34.4302326,52.3157249 L34.4302326,52.3157249 Z M34.4302326,31.2248972 C31.7458931,31.2248972 29.5698061,33.4195274 29.5698061,36.1267409 L29.5698061,44.1889839 C29.5698061,46.8961975 31.7458931,49.0908277 34.4302326,49.0908277 C37.114572,49.0908277 39.290659,46.8961975 39.290659,44.1889839 L39.290659,36.1267409 C39.290659,33.4195274 37.114572,31.2248972 34.4302326,31.2248972 L34.4302326,31.2248972 Z" id="Shape"></path>
                    <path d="M29.6436311,33.1578947 L20.2618922,33.1578947 C18.7858373,33.1475539 17.5918272,31.9639671 17.5813953,30.5007974 L17.5813953,23.2886762 C17.5918272,21.8255066 18.7858373,20.6419198 20.2618922,20.6315789 L31.7497357,20.6315789 C33.2257906,20.6419198 34.4198007,21.8255066 34.4302326,23.2886762 L34.4302326,29.1089846 L31.2391649,29.1089846 L31.2391649,23.79479 L20.772463,23.79479 L20.772463,29.9946837 L29.6436311,29.9946837 L29.6436311,33.1578947 Z" id="Shape"></path>
                    <path d="M38.1752747,23.5789191 L14.5689113,23.5789191 C13.8125549,23.5822897 13.0861991,23.2845266 12.551369,22.7518456 C12.0165389,22.2191647 11.7175745,21.4957276 11.7209587,20.7424105 L11.7209587,5.04706318 C11.7175745,4.29374609 12.0165389,3.57030901 12.551369,3.03762806 C13.0861991,2.50494711 13.8125549,2.20718403 14.5689113,2.21055462 L38.1752747,2.21055462 C38.9316311,2.20718403 39.657987,2.50494711 40.1928171,3.03762806 C40.7276472,3.57030901 41.0266116,4.29374609 41.0232274,5.04706318 L41.0232274,20.7424105 C41.0266116,21.4957276 40.7276472,22.2191647 40.1928171,22.7518456 C39.657987,23.2845266 38.9316311,23.5822897 38.1752747,23.5789191 L38.1752747,23.5789191 Z M14.8853505,20.4272429 L37.8588355,20.4272429 L37.8588355,5.36223079 L14.8853505,5.36223079 L14.8853505,20.4272429 Z" id="Shape"></path>
                    <path d="M9.8976724,26.5263108 L4.02093225,26.5263108 C2.95401247,26.5280232 1.93031766,26.0876573 1.17589055,25.3024506 C0.421463438,24.517244 -0.00164043454,23.4517839 4.78008499e-06,22.3413354 L4.78008499e-06,4.18498041 C-0.00164043454,3.07453186 0.421463438,2.00907179 1.17589055,1.22386516 C1.93031766,0.43865853 2.95401247,-0.00170736187 4.02093225,4.97510542e-06 L9.8976724,4.97510542e-06 C10.9645922,-0.00170736187 11.988287,0.43865853 12.7427141,1.22386516 C13.4971412,2.00907179 13.9202451,3.07453186 13.9185999,4.18498041 L13.9185999,22.3413354 C13.9202451,23.4517839 13.4971412,24.517244 12.7427141,25.3024506 C11.988287,26.0876573 10.9645922,26.5280232 9.8976724,26.5263108 Z M4.02093225,3.15483261 C3.51394867,3.16836917 3.10603185,3.59292841 3.09302591,4.12059617 L3.09302591,22.3413354 C3.10603185,22.8690031 3.51394867,23.2935624 4.02093225,23.3070989 L9.8976724,23.3070989 C10.404656,23.2935624 10.8125728,22.8690031 10.8255787,22.3413354 L10.8255787,4.18498041 C10.8125728,3.65731265 10.404656,3.23275341 9.8976724,3.21921685 L4.02093225,3.15483261 Z" id="Shape"></path>
                    <path d="M47.2581375,26.5263108 L41.3813974,26.5263108 C40.3144776,26.5280232 39.2907828,26.0876573 38.5363557,25.3024506 C37.7819286,24.517244 37.3588247,23.4517839 37.3604699,22.3413354 L37.3604699,4.18498041 C37.3588247,3.07453186 37.7819286,2.00907179 38.5363557,1.22386516 C39.2907828,0.43865853 40.3144776,-0.00170736187 41.3813974,4.97510542e-06 L47.2581375,4.97510542e-06 C48.3250573,-0.00170736187 49.3487521,0.43865853 50.1031792,1.22386516 C50.8576063,2.00907179 51.2807102,3.07453186 51.279065,4.18498041 L51.279065,22.3413354 C51.2807102,23.4517839 50.8576063,24.517244 50.1031792,25.3024506 C49.3487521,26.0876573 48.3250573,26.5280232 47.2581375,26.5263108 Z M41.3813974,3.15483261 C40.8744138,3.16836917 40.466497,3.59292841 40.453491,4.12059617 L40.453491,22.3413354 C40.466497,22.8690031 40.8744138,23.2935624 41.3813974,23.3070989 L47.2581375,23.3070989 C47.7651211,23.2935624 48.1730379,22.8690031 48.1860439,22.3413354 L48.1860439,4.18498041 C48.1730379,3.65731265 47.7651211,3.23275341 47.2581375,3.21921685 L41.3813974,3.15483261 Z" id="Shape"></path>
                </g>
            </g>
        </g>
    </g>
</svg>