<?xml version="1.0" encoding="UTF-8"?>
<svg width="20px" height="20px" viewBox="0 0 20 20" version="1.1" xmlns="http://www.w3.org/2000/svg" xmlns:xlink="http://www.w3.org/1999/xlink">
    <!-- Generator: Sketch 52.6 (67491) - http://www.bohemiancoding.com/sketch -->
    <title>Group 3 Copy 7</title>
    <desc>Created with Sketch.</desc>
    <g id="Symbols" stroke="none" stroke-width="1" fill="none" fill-rule="evenodd">
        <g id="icon_分類" transform="translate(-4.000000, 0.000000)" fill="#333333">
            <g id="Group-6">
                <g transform="translate(4.000000, 0.000000)">
                    <path d="M1.05263158,8.42105263 L8.42105263,8.42105263 L8.42105263,1.05263158 L1.05263158,1.05263158 L1.05263158,8.42105263 Z M8.94736842,9.47368421 L0.526315789,9.47368421 C0.235438596,9.47368421 -7.10542736e-15,9.23824561 -7.10542736e-15,8.94736842 L-7.10542736e-15,0.526315789 C-7.10542736e-15,0.235438596 0.235438596,0 0.526315789,0 L8.94736842,0 C9.23824561,0 9.47368421,0.235438596 9.47368421,0.526315789 L9.47368421,8.94736842 C9.47368421,9.23824561 9.23824561,9.47368421 8.94736842,9.47368421 Z M11.5789474,8.42105263 L18.9473684,8.42105263 L18.9473684,1.05263158 L11.5789474,1.05263158 L11.5789474,8.42105263 Z M19.4736842,9.47368421 L11.0526316,9.47368421 C10.7617544,9.47368421 10.5263158,9.23824561 10.5263158,8.94736842 L10.5263158,0.526315789 C10.5263158,0.235438596 10.7617544,0 11.0526316,0 L19.4736842,0 C19.7645614,0 20,0.235438596 20,0.526315789 L20,8.94736842 C20,9.23824561 19.7645614,9.47368421 19.4736842,9.47368421 Z M1.05263158,18.9473684 L8.42105263,18.9473684 L8.42105263,11.5789474 L1.05263158,11.5789474 L1.05263158,18.9473684 Z M8.94736842,20 L0.526315789,20 C0.235438596,20 -7.10542736e-15,19.7645614 -7.10542736e-15,19.4736842 L-7.10542736e-15,11.0526316 C-7.10542736e-15,10.7617544 0.235438596,10.5263158 0.526315789,10.5263158 L8.94736842,10.5263158 C9.23824561,10.5263158 9.47368421,10.7617544 9.47368421,11.0526316 L9.47368421,19.4736842 C9.47368421,19.7645614 9.23824561,20 8.94736842,20 Z M11.5789474,18.9473684 L18.9473684,18.9473684 L18.9473684,11.5789474 L11.5789474,11.5789474 L11.5789474,18.9473684 Z M19.4736842,20 L11.0526316,20 C10.7617544,20 10.5263158,19.7645614 10.5263158,19.4736842 L10.5263158,11.0526316 C10.5263158,10.7617544 10.7617544,10.5263158 11.0526316,10.5263158 L19.4736842,10.5263158 C19.7645614,10.5263158 20,10.7617544 20,11.0526316 L20,19.4736842 C20,19.7645614 19.7645614,20 19.4736842,20 Z" id="Combined-Shape"></path>
                </g>
            </g>
        </g>
    </g>
</svg>