<svg id="圖層_1" data-name="圖層 1" xmlns="http://www.w3.org/2000/svg" viewBox="0 0 40 40"><title>icon-product</title><path d="M37.27,32.73H30.91a7.27,7.27,0,1,1,0-14.55h6.36a.91.91,0,0,0,.91-.91V14.55a3.63,3.63,0,0,0-3.35-3.61L29.61,1.82A3.6,3.6,0,0,0,24.68.49L6.78,10.91H3.64A3.64,3.64,0,0,0,0,14.55V36.36A3.64,3.64,0,0,0,3.64,40H34.55a3.64,3.64,0,0,0,3.64-3.64V33.64A.91.91,0,0,0,37.27,32.73ZM30.74,7.45l2,3.46H24.8ZM25.59,2.06a1.76,1.76,0,0,1,1.35-.18A1.78,1.78,0,0,1,28,2.72h0L14,10.91H10.39Zm-9.26,29a1.38,1.38,0,0,1,1.37,1.37,1.31,1.31,0,0,1-.41,1,1.36,1.36,0,0,1-1,.39h-8a1.56,1.56,0,0,1-1.13-.43,1.5,1.5,0,0,1-.45-1.13A3.87,3.87,0,0,1,7.52,30,7.63,7.63,0,0,1,9,28.38a28.81,28.81,0,0,1,2.52-1.75c.78-.5,1.44-.95,2-1.34,1-.77,1.54-1.52,1.54-2.22a1.81,1.81,0,0,0-.64-1.52A3.41,3.41,0,0,0,12.27,21a8.15,8.15,0,0,0-3.34.7,1.52,1.52,0,0,1-.58.14,1.24,1.24,0,0,1-.9-.37,1.26,1.26,0,0,1-.37-.92,1.31,1.31,0,0,1,.71-1.19,10.61,10.61,0,0,1,4.81-1.11,5.89,5.89,0,0,1,2.62.56,4.62,4.62,0,0,1,1.92,1.66,4.44,4.44,0,0,1,.69,2.45A4.36,4.36,0,0,1,17,25.45a8.83,8.83,0,0,1-1.66,1.82,29.55,29.55,0,0,1-2.76,1.95c-1,.7-1.76,1.23-2.19,1.59l-.31.28Z" style="fill:#d8d8d8"/><path d="M37.27,20H30.91a5.45,5.45,0,1,0,0,10.91h6.36A2.73,2.73,0,0,0,40,28.18V22.73A2.73,2.73,0,0,0,37.27,20Zm-6.36,7.27a1.82,1.82,0,1,1,1.82-1.82A1.82,1.82,0,0,1,30.91,27.27Z" style="fill:#d8d8d8"/></svg>