<?xml version="1.0" encoding="UTF-8"?>
<svg width="20px" height="20px" viewBox="0 0 20 20" version="1.1" xmlns="http://www.w3.org/2000/svg" xmlns:xlink="http://www.w3.org/1999/xlink">
    <!-- Generator: Sketch 52.6 (67491) - http://www.bohemiancoding.com/sketch -->
    <title>Group 3</title>
    <desc>Created with Sketch.</desc>
    <g id="Symbols" stroke="none" stroke-width="1" fill="none" fill-rule="evenodd">
        <g id="icon_購物車" transform="translate(-11.000000, 0.000000)" fill="#333333">
            <g id="Fill-1">
                <path d="M12.5820389,1.51888106 C12.2705125,1.51888106 12.0169523,1.7946582 12.0169523,2.13326634 C12.0169523,2.4722141 12.2705125,2.74765161 12.5820389,2.74765161 L14.3135697,2.74765161 C14.5566213,2.74765161 14.7657745,2.92018214 14.8125543,3.15927956 L17.1698498,15.2207935 C17.2108669,15.4313623 17.1159514,15.6449877 16.932561,15.7553665 C16.4054407,16.0729177 16.143067,16.6913785 16.2644233,17.3319151 C16.3695084,17.886526 16.7895097,18.3358526 17.3098503,18.449288 C17.7145973,18.537591 18.1139206,18.4441936 18.4335826,18.186077 C18.7786684,17.9072433 18.9766352,17.484068 18.9766352,17.024213 C18.9766352,16.6254909 18.8274822,16.2532597 18.5566338,15.9754448 C18.4139215,15.8290655 18.3725655,15.6106854 18.4518878,15.4218527 C18.53121,15.2330201 18.7159564,15.1100751 18.9203638,15.1100751 L25.9553011,15.1100751 C26.1600475,15.1100751 26.3447938,15.2330201 26.4237771,15.4218527 C26.5034384,15.6106854 26.4620824,15.8290655 26.3190311,15.9754448 C25.9715723,16.3317135 25.8281821,16.850324 25.9349621,17.3624815 C26.0468268,17.9004507 26.4634383,18.3368714 26.9715755,18.4486087 C27.3763225,18.5379306 27.7766627,18.4445332 28.0966637,18.1867563 C28.4424275,17.9082621 28.6407332,17.4844076 28.6407332,17.024213 C28.6407332,16.4662058 28.3342916,15.9496331 27.8597138,15.7084979 C27.6532725,15.6038928 27.5434417,15.3726068 27.5925944,15.1460756 L27.7776797,14.2932721 C27.8014086,14.1845915 27.7763238,14.0745523 27.7092049,13.9913437 C27.6763234,13.9502489 27.6037808,13.8813046 27.4895432,13.8813046 L18.4823963,13.8813046 C18.2210396,13.8813046 18.0023948,13.6829624 17.976293,13.4224685 L17.7566313,11.2148928 C17.742394,11.0715702 17.7891738,10.9292665 17.8857843,10.822284 C17.9820558,10.7156411 18.1190054,10.6548479 18.2627346,10.6548479 L28.0993756,10.6548479 C28.2366642,10.6548479 28.3553086,10.5499031 28.3878511,10.399788 C28.389207,10.3940143 28.390563,10.387901 28.3922579,10.3821274 L29.9783646,4.16083964 C29.9976867,4.07015923 29.9729408,3.96012007 29.905822,3.87657183 C29.8726015,3.83547696 29.8000589,3.76653267 29.6858213,3.76653267 L16.505441,3.76653267 C16.2623894,3.76653267 16.0532362,3.59400215 16.0064564,3.35490473 L15.6989978,1.78107312 C15.6691672,1.62925984 15.5474719,1.51888106 15.4088274,1.51888106 L12.5820389,1.51888106 Z M17.6013766,19.4997544 C17.4325625,19.4997544 17.2623925,19.4817541 17.0932394,19.4447348 C16.1800162,19.2453737 15.4454377,18.4723826 15.2654371,17.5217666 C15.0908603,16.6000189 15.4254376,15.6684219 16.1091686,15.0958108 L13.8949243,3.76653267 L12.5820389,3.76653267 C11.7094937,3.76653267 11,3.03395719 11,2.13326634 C11,1.23257548 11.7094937,0.5 12.5820389,0.5 L15.4088274,0.5 C16.0325581,0.5 16.5742548,0.956458714 16.696967,1.58544795 L16.9240864,2.74765161 L29.6858213,2.74765161 C30.0783649,2.74765161 30.4475186,2.92629543 30.6976888,3.23739378 C30.9587066,3.56207721 31.057012,3.98389397 30.9678592,4.39518229 L29.3793796,10.6263192 C29.2410741,11.2434215 28.7159877,11.6737289 28.0993756,11.6737289 L18.8244313,11.6737289 L18.9427368,12.8624235 L27.4895432,12.8624235 C27.8820868,12.8624235 28.2509015,13.0407277 28.5010718,13.3521657 C28.7620896,13.6765095 28.8607339,14.0986659 28.7715811,14.5096146 L28.6627672,15.0119229 C29.2844641,15.4717779 29.6576856,16.2114855 29.6576856,17.024213 C29.6576856,17.7944871 29.3210744,18.5077038 28.7339539,18.9808043 C28.177342,19.4294516 27.4553058,19.5989254 26.7532697,19.4437159 C25.8607245,19.2474115 25.1315697,18.494798 24.9393657,17.5710125 C24.8363145,17.0775344 24.8766537,16.5782827 25.0444508,16.1289562 L19.833248,16.1289562 C19.9386721,16.410507 19.9935875,16.7131147 19.9935875,17.024213 C19.9935875,17.7938078 19.6573153,18.5066849 19.0715507,18.9794458 C18.6495155,19.3200917 18.1325647,19.4997544 17.6013766,19.4997544 Z"></path>
            </g>
        </g>
    </g>
</svg>