<?xml version="1.0" encoding="utf-8"?>
<!-- Generator: Adobe Illustrator 21.1.0, SVG Export Plug-In . SVG Version: 6.00 Build 0)  -->
<svg version="1.1" id="圖層_1" xmlns="http://www.w3.org/2000/svg" xmlns:xlink="http://www.w3.org/1999/xlink" x="0px" y="0px"
	 viewBox="0 0 40 40" style="enable-background:new 0 0 40 40;" xml:space="preserve">
<style type="text/css">
	.st0{fill:#4D87E5;}
	.st1{fill:#FFFFFF;}
</style>
<title>Group 19</title>
<desc>Created with Sketch.</desc>
<path id="Rectangle-4-Copy-3" class="st0" d="M6.3,0h27.5C37.2,0,40,2.8,40,6.3v27.5c0,3.5-2.8,6.3-6.3,6.3H6.3
	C2.8,40,0,37.2,0,33.7V6.3C0,2.8,2.8,0,6.3,0z"/>
<path id="Shape" class="st1" d="M7.7,31.5V8.5c0-1.5,1.2-2.6,2.6-2.6h19.4c1.5,0,2.6,1.2,2.6,2.6v22.9c0,1.5-1.2,2.6-2.6,2.6H10.3
	C8.8,34.1,7.7,32.9,7.7,31.5z M28.8,15.8v-5.7c0-0.4-0.3-0.7-0.7-0.7H11.9c-0.4,0-0.7,0.3-0.7,0.7v5.7c0,0.4,0.3,0.7,0.7,0.7h16.3
	C28.5,16.5,28.8,16.2,28.8,15.8z M14.7,22.9v-2.2c0-0.4-0.3-0.7-0.7-0.7h-2.2c-0.4,0-0.7,0.3-0.7,0.7v2.2c0,0.4,0.3,0.7,0.7,0.7h2.2
	C14.4,23.5,14.7,23.2,14.7,22.9z M28.8,29.9v-9.2c0-0.4-0.3-0.7-0.7-0.7h-2.2c-0.4,0-0.7,0.3-0.7,0.7v9.2c0,0.4,0.3,0.7,0.7,0.7h2.2
	C28.5,30.6,28.8,30.3,28.8,29.9z M14.7,29.9v-2.2c0-0.4-0.3-0.7-0.7-0.7h-2.2c-0.4,0-0.7,0.3-0.7,0.7v2.2c0,0.4,0.3,0.7,0.7,0.7h2.2
	C14.4,30.6,14.7,30.3,14.7,29.9z M21.8,22.9v-2.2c0-0.4-0.3-0.7-0.7-0.7h-2.2c-0.4,0-0.7,0.3-0.7,0.7v2.2c0,0.4,0.3,0.7,0.7,0.7h2.2
	C21.5,23.5,21.8,23.2,21.8,22.9z M21.8,29.9v-2.2c0-0.4-0.3-0.7-0.7-0.7h-2.2c-0.4,0-0.7,0.3-0.7,0.7v2.2c0,0.4,0.3,0.7,0.7,0.7h2.2
	C21.5,30.6,21.8,30.3,21.8,29.9z"/>
</svg>
