<svg id="圖層_1" data-name="圖層 1" xmlns="http://www.w3.org/2000/svg" viewBox="0 0 40 40"><title>icon</title><path d="M10.35,40a5.9,5.9,0,0,1,0-11.79,5.9,5.9,0,0,1,0,11.79Z" style="fill:#f06441"/><path d="M33.18,40a5.9,5.9,0,1,1,5.71-5.89A5.81,5.81,0,0,1,33.18,40Z" style="fill:#f06441"/><path d="M36.1,30.33H10.35a1,1,0,0,1-1-.93L6.45,6.14A1.08,1.08,0,0,1,6.7,5.3a1,1,0,0,1,.77-.36H39a1,1,0,0,1,.77.36,1.08,1.08,0,0,1,.25.83L38.34,19.47a1,1,0,0,1-1,.93H17.52l.32,2.78H36.62a1,1,0,0,1,.76.35,1.08,1.08,0,0,1,.26.82l-.53,5A1,1,0,0,1,36.1,30.33Z" style="fill:#f06441"/><path d="M10.5,7.06H1A1,1,0,0,1,0,6V1.06A1,1,0,0,1,1,0H10.5a1,1,0,0,1,1,1.06V6A1,1,0,0,1,10.5,7.06Z" style="fill:#f06441"/></svg>