<?xml version="1.0" encoding="UTF-8"?>
<svg width="20px" height="20px" viewBox="0 0 20 20" version="1.1" xmlns="http://www.w3.org/2000/svg" xmlns:xlink="http://www.w3.org/1999/xlink">
    <!-- Generator: Sketch 54.1 (76490) - https://sketchapp.com -->
    <title>Shape</title>
    <desc>Created with Sketch.</desc>
    <g id="help" stroke="none" stroke-width="1" fill="none" fill-rule="evenodd">
        <g id="help-copy" transform="translate(-400.000000, -222.000000)" fill="#D8D8D8" fill-rule="nonzero">
            <path d="M419.555406,239.379973 L415.432817,235.2575 C416.426324,233.823297 416.923329,232.224447 416.923329,230.461793 C416.923329,229.315962 416.700885,228.220102 416.255996,227.174466 C415.811402,226.128661 415.210373,225.227253 414.453161,224.470031 C413.695949,223.71281 412.794679,223.111773 411.749097,222.667131 C410.703179,222.222363 409.607418,222 408.461602,222 C407.31587,222 406.220024,222.222363 405.1744,222.667131 C404.128609,223.111773 403.227212,223.71281 402.47,224.470031 C401.712704,225.227253 401.111759,226.128829 400.667081,227.174466 C400.22236,228.220229 400,229.315962 400,230.461793 C400,231.607539 400.22236,232.70302 400.667081,233.748951 C401.111717,234.794588 401.712704,235.69587 402.47,236.453091 C403.227212,237.210565 404.128777,237.811349 405.1744,238.256244 C406.22015,238.700928 407.31587,238.923249 408.461602,238.923249 C410.224612,238.923249 411.823189,238.426194 413.257459,237.43276 L417.380048,241.543276 C417.668501,241.847688 418.028605,242 418.461665,242 C418.878306,242 419.239083,241.847731 419.543324,241.543276 C419.84769,241.238906 420,240.878292 420,240.461645 C420.000126,240.037211 419.8519,239.676471 419.555406,239.379973 Z M412.265721,234.265539 C411.212057,235.319385 409.944115,235.846287 408.461602,235.846287 C406.979341,235.846287 405.711399,235.319258 404.657651,234.265539 C403.603902,233.211862 403.077049,231.944072 403.077049,230.46154 C403.077049,228.97926 403.604029,227.711092 404.657651,226.657541 C405.711189,225.603737 406.979341,225.07692 408.461602,225.07692 C409.943947,225.07692 411.211888,225.603948 412.265721,226.657541 C413.319553,227.711092 413.846406,228.97926 413.846406,230.46154 C413.846406,231.944072 413.319385,233.211862 412.265721,234.265539 Z" id="Shape"></path>
        </g>
    </g>
</svg>