<?xml version="1.0" encoding="UTF-8"?>
<svg width="40px" height="59px" viewBox="0 0 40 59" version="1.1" xmlns="http://www.w3.org/2000/svg" xmlns:xlink="http://www.w3.org/1999/xlink">
    <!-- Generator: Sketch 54.1 (76490) - https://sketchapp.com -->
    <title>Group</title>
    <desc>Created with Sketch.</desc>
    <defs>
        <polygon id="path-1" points="0 0.260590393 39.8726494 0.260590393 39.8726494 40 0 40"></polygon>
    </defs>
    <g id="member" stroke="none" stroke-width="1" fill="none" fill-rule="evenodd">
        <g id="V-member/upgrade-Copy" transform="translate(-1053.000000, -360.000000)">
            <g id="Group" transform="translate(1053.000000, 360.000000)">
                <path d="M19.5120637,51.4424425 C12.8497219,51.4424425 7.42950709,46.085141 7.42950709,39.5001299 C7.42950709,32.914859 12.8497219,27.5575575 19.5120637,27.5575575 C26.1744056,27.5575575 31.5948832,32.914859 31.5948832,39.5001299 C31.5948832,46.085141 26.1744056,51.4424425 19.5120637,51.4424425 M19.5120637,26 C11.9807322,26 5.85365854,32.0559558 5.85365854,39.5001299 C5.85365854,46.9440442 11.9807322,53 19.5120637,53 C27.0433953,53 33.1707317,46.9440442 33.1707317,39.5001299 C33.1707317,32.0559558 27.0433953,26 19.5120637,26" id="Fill-1" fill="#FFC200"></path>
                <g id="Group-5" transform="translate(0.000000, 19.000000)">
                    <mask id="mask-2" fill="white">
                        <use xlink:href="#path-1"></use>
                    </mask>
                    <g id="Clip-4"></g>
                    <path d="M37.4986234,22.0011921 C37.1066753,22.622649 36.7014805,23.2650331 36.5396623,23.990596 C36.3716104,24.7434437 36.4635584,25.5188079 36.5526494,26.2687417 C36.6440779,27.0377483 36.7300519,27.764106 36.4991429,28.2517881 C36.2604416,28.7550993 35.6414805,29.1423841 34.9853766,29.5524503 C34.3601818,29.9434437 33.7136883,30.347947 33.2497922,30.9394702 C32.7827792,31.5349669 32.5373247,32.2698013 32.3001818,32.9805298 C32.0534286,33.7193377 31.8204416,34.417351 31.3957662,34.7627815 C30.9747273,35.105298 30.2565455,35.1818543 29.4962857,35.2629139 C28.7617403,35.3415894 28.002,35.422649 27.3248571,35.7556291 C26.6612208,36.081457 26.1334286,36.6300662 25.623039,37.1603974 C25.0817403,37.7230464 24.5705714,38.2541722 24.0274545,38.38 C23.5178442,38.4978808 22.8464156,38.2525828 22.1357662,37.9921854 C21.4318701,37.734702 20.7040779,37.4682119 19.9362857,37.4682119 C19.1682338,37.4682119 18.4404416,37.734702 17.7365455,37.9921854 C17.0258961,38.2525828 16.3547273,38.4978808 15.8451169,38.38 C15.3017403,38.2541722 14.7903117,37.7230464 14.249013,37.1603974 C13.7386234,36.6300662 13.2108312,36.081457 12.5474545,35.7556291 C11.8703117,35.422649 11.1105714,35.3415894 10.3757662,35.2629139 C9.61550649,35.1821192 8.89758442,35.105298 8.47654545,34.7627815 C8.05187013,34.417351 7.81862338,33.7193377 7.57212987,32.9805298 C7.33498701,32.2700662 7.08979221,31.5349669 6.62277922,30.9394702 C6.15888312,30.347947 5.51238961,29.9434437 4.88667532,29.5524503 C4.23109091,29.1423841 3.61161039,28.7550993 3.37316883,28.2517881 C3.14225974,27.764106 3.22849351,27.0377483 3.31966234,26.2687417 C3.40875325,25.5188079 3.5007013,24.7434437 3.33290909,23.990596 C3.17083117,23.2650331 2.76563636,22.622649 2.37368831,22.0011921 C1.95394805,21.3354967 1.55758442,20.7068874 1.55758442,20.1304636 C1.55758442,19.5537748 1.95394805,18.9249007 2.37394805,18.2592053 C2.7658961,17.6377483 3.17109091,16.9953642 3.33316883,16.2698013 C3.50096104,15.5169536 3.40901299,14.7415894 3.31992208,13.9916556 C3.22875325,13.222649 3.14251948,12.4965563 3.37342857,12.0088742 C3.61187013,11.505298 4.23135065,11.1182781 4.88693506,10.707947 C5.51238961,10.3169536 6.15914286,9.91271523 6.62303896,9.32092715 C7.09005195,8.72543046 7.33524675,7.99059603 7.57238961,7.27986755 C7.81914286,6.5410596 8.05212987,5.84304636 8.47680519,5.49761589 C8.8981039,5.15536424 9.61602597,5.07854305 10.3762857,4.99748344 C11.1108312,4.91880795 11.8705714,4.83774834 12.5477143,4.50503311 C13.2113506,4.1789404 13.7388831,3.63059603 14.2495325,3.1 C14.7908312,2.53761589 15.3022597,2.00622517 15.8453766,1.88039735 C16.354987,1.76251656 17.0264156,2.00807947 17.7368052,2.26821192 C18.4407013,2.52569536 19.1684935,2.79218543 19.9362857,2.79218543 C20.7043377,2.79218543 21.4321299,2.52569536 22.136026,2.26821192 C22.8466753,2.00807947 23.5178442,1.76251656 24.0274545,1.88013245 C24.5708312,2.00596026 25.082,2.53735099 25.6232987,3.1 C26.1336883,3.63033113 26.6614805,4.1789404 27.3248571,4.50476821 C28.0022597,4.83748344 28.7617403,4.91880795 29.4965455,4.99721854 C30.2568052,5.07854305 30.974987,5.15536424 31.396026,5.49761589 C31.8207013,5.84278146 32.0536883,6.5410596 32.3001818,7.27986755 C32.5373247,7.99059603 32.783039,8.72543046 33.2500519,9.32092715 C33.7139481,9.91271523 34.3601818,10.3169536 34.9856364,10.707947 C35.6414805,11.1182781 36.2607013,11.505298 36.4991429,12.0088742 C36.7303117,12.4965563 36.6440779,13.222649 36.5526494,13.9916556 C36.4638182,14.7415894 36.3716104,15.5172185 36.5399221,16.2698013 C36.7017403,16.9953642 37.1069351,17.6377483 37.4988831,18.2592053 C37.9186234,18.9249007 38.3152468,19.5537748 38.3152468,20.1304636 C38.3152468,20.7068874 37.9183636,21.3354967 37.4986234,22.0011921 L37.4986234,22.0011921 Z M38.8084935,22.8607947 C39.3074545,22.0700662 39.8726494,21.1736424 39.8726494,20.1304636 C39.8726494,19.086755 39.3074545,18.190596 38.8084935,17.3998675 C38.4747273,16.870596 38.1594026,16.3707285 38.0581039,15.9174834 C37.9503117,15.4340397 38.0225195,14.8260927 38.0991429,14.182649 C38.2131688,13.2202649 38.3313506,12.2250331 37.9017403,11.3180132 C37.4643377,10.3950993 36.5799221,9.84198675 35.7996623,9.35403974 C35.2648571,9.0197351 34.7599221,8.70370861 34.4661558,8.32913907 C34.1695325,7.95033113 33.9775844,7.37629139 33.7747273,6.76807947 C33.480961,5.88807947 33.147974,4.89099338 32.3669351,4.25576159 C31.5897922,3.62397351 30.5640779,3.51430464 29.6586234,3.41761589 C29.029013,3.35033113 28.4342078,3.28675497 28.000961,3.07377483 C27.5825195,2.86821192 27.1708312,2.44039735 26.734987,1.98741722 C26.0913506,1.31854305 25.3614805,0.560397351 24.3721299,0.331258278 C23.4194026,0.110860927 22.4994026,0.447284768 21.6097922,0.773112583 C21.0045974,0.994569536 20.4331688,1.20357616 19.9362857,1.20357616 C19.4396623,1.20357616 18.8677143,0.994569536 18.2627792,0.773112583 C17.3734286,0.447284768 16.4534286,0.110860927 15.5007013,0.331258278 C14.5108312,0.560397351 13.7812208,1.31854305 13.1378442,1.98741722 C12.7017403,2.44039735 12.2900519,2.86821192 11.8718701,3.07377483 C11.4386234,3.28649007 10.8438182,3.35006623 10.2139481,3.41735099 C9.30875325,3.51403974 8.28303896,3.62397351 7.50563636,4.25576159 C6.72485714,4.89099338 6.39161039,5.88807947 6.09784416,6.76807947 C5.89498701,7.37602649 5.7032987,7.95033113 5.40641558,8.32913907 C5.11264935,8.70370861 4.60771429,9.0194702 4.07316883,9.35377483 C3.29290909,9.84198675 2.40823377,10.3948344 1.97109091,11.3177483 C1.54122078,12.2250331 1.65966234,13.2202649 1.77368831,14.182649 C1.85005195,14.8263576 1.92225974,15.4340397 1.81420779,15.9174834 C1.71342857,16.3707285 1.39784416,16.870596 1.06407792,17.3998675 C0.565376623,18.190596 -7.79220779e-05,19.086755 -7.79220779e-05,20.1304636 C-7.79220779e-05,21.1736424 0.565376623,22.0700662 1.06407792,22.8605298 C1.39784416,23.3898013 1.71342857,23.8899338 1.81420779,24.3431788 C1.92225974,24.8266225 1.85005195,25.4343046 1.77368831,26.0780132 C1.65966234,27.0401325 1.54122078,28.0356291 1.97109091,28.942649 C2.40823377,29.8655629 3.29264935,30.4186755 4.07316883,30.9066225 C4.60771429,31.2409272 5.11264935,31.5566887 5.40641558,31.9315232 C5.7032987,32.3100662 5.89498701,32.8843709 6.09784416,33.4923179 C6.39161039,34.3723179 6.7245974,35.3696689 7.50563636,36.0046358 C8.28303896,36.6366887 9.30875325,36.7463576 10.2136883,36.8430464 C10.8435584,36.9103311 11.4386234,36.9736424 11.8718701,37.1866225 C12.2900519,37.3924503 12.7017403,37.8202649 13.1378442,38.2729801 C13.7812208,38.9418543 14.5108312,39.7 15.5007013,39.929404 C16.4534286,40.1498013 17.3734286,39.8131126 18.2627792,39.4875497 C18.867974,39.2660927 19.4396623,39.0568212 19.9362857,39.0568212 C20.4331688,39.0568212 21.0045974,39.2660927 21.6097922,39.4875497 C22.3007013,39.7405298 23.0100519,39.9998675 23.7386234,39.9998675 C23.9482338,39.9998675 24.1594026,39.9784106 24.3721299,39.929404 C25.3614805,39.7 26.0913506,38.9418543 26.734987,38.273245 C27.1708312,37.8202649 27.5822597,37.3924503 28.000961,37.1866225 C28.4339481,36.9739073 29.029013,36.9103311 29.6586234,36.8430464 C30.5640779,36.7463576 31.5897922,36.6366887 32.3666753,36.0049007 C33.147974,35.3696689 33.4807013,34.3723179 33.7744675,33.4925828 C33.9775844,32.8843709 34.1692727,32.3100662 34.4661558,31.9315232 C34.7599221,31.5566887 35.2648571,31.2411921 35.7996623,30.9066225 C36.5799221,30.4186755 37.4643377,29.8655629 37.9017403,28.942649 C38.3313506,28.0356291 38.2131688,27.0401325 38.0991429,26.0780132 C38.0225195,25.4343046 37.9503117,24.8266225 38.0581039,24.3431788 C38.1594026,23.8899338 38.4747273,23.3898013 38.8084935,22.8605298 L38.8084935,22.8607947 Z" id="Fill-3" fill="#FFC200" mask="url(#mask-2)"></path>
                </g>
                <path d="M26.770659,37.1759359 L22.5988864,35.9395332 L20.1405249,32.3327205 C19.9982909,32.1246106 19.7633509,32 19.5121556,32 C19.2612142,32 19.0260202,32.1246106 18.8840403,32.3327205 L16.4254248,35.9395332 L12.2536521,37.1759359 C12.0126164,37.2471784 11.8223785,37.4335836 11.7446578,37.6736122 C11.6669371,37.9138961 11.7121472,38.1769062 11.8653027,38.3768449 L14.5177119,41.842194 L14.398083,46.213268 C14.3912253,46.4655533 14.5085683,46.7050712 14.7115057,46.8534293 C14.914697,47.0020428 15.1775758,47.0403452 15.4142938,46.9555692 L19.5121556,45.490884 L23.6100174,46.9558245 C23.6930718,46.9854451 23.7794282,47 23.8652765,47 C24.0240198,47 24.1809851,46.9499515 24.3128055,46.8536847 C24.5159969,46.7050712 24.6333399,46.4658087 24.6264822,46.213268 L24.5068532,41.8424493 L27.1590085,38.3771003 C27.312164,38.1769062 27.3573741,37.9138961 27.2799074,37.6736122 C27.2019327,37.4335836 27.0116948,37.2471784 26.770659,37.1759359" id="Fill-6" fill="#FFC200"></path>
                <path d="M35.2245922,11.2467173 C35.2245922,11.5921028 35.0430122,11.9101788 34.7495705,12.0780522 L25.9822199,17.0912297 L25.9822199,1.90256565 L34.300303,1.90256565 C34.8109643,1.90256565 35.2245922,2.32827342 35.2245922,2.85358074 L35.2245922,11.2467173 Z M3.79953788,11.2467173 L3.79953788,2.85358074 C3.79953788,2.32827342 4.21342593,1.90256565 4.72382714,1.90256565 L13.0421703,1.90256565 L13.0421703,17.0912297 L4.27455961,12.0809974 C3.98059764,11.9125885 3.79849731,11.592906 3.79953788,11.2467173 L3.79953788,11.2467173 Z M19.5121951,23 L35.647065,13.7407222 C36.5271299,13.2376374 37.0729106,12.2828739 37.0731707,11.2467173 L37.0731707,2.85358074 C37.0731707,1.27765878 35.8317668,0 34.300303,0 L4.72382714,0 C3.19262349,0 1.95121951,1.27765878 1.95121951,2.85358074 L1.95121951,11.2467173 C1.95147966,12.2828739 2.49700022,13.2376374 3.37732526,13.7407222 L19.5121951,23 Z" id="Fill-8" fill="#FFC200"></path>
            </g>
        </g>
    </g>
</svg>