<?xml version="1.0" encoding="UTF-8"?>
<svg width="34px" height="30px" viewBox="0 0 34 30" version="1.1" xmlns="http://www.w3.org/2000/svg" xmlns:xlink="http://www.w3.org/1999/xlink">
    <!-- Generator: Sketch 54.1 (76490) - https://sketchapp.com -->
    <title>Shape Copy 2</title>
    <desc>Created with Sketch.</desc>
    <g id="member" stroke="none" stroke-width="1" fill="none" fill-rule="evenodd">
        <g id="V-member/upgrade-Copy" transform="translate(-766.000000, -1007.000000)" fill="#404042" fill-rule="nonzero">
            <path d="M800,1017 L796,1008 C795.708004,1007.2358 795.349411,1007 795,1007 L771,1007 C770.650537,1007 770.291943,1007.2358 770,1008 L766,1017 C765.930181,1017.28593 765.991607,1017.69467 766,1018 L782,1037 C782.434325,1036.87307 782.709911,1037 783,1037 C783.290169,1037 783.565755,1036.87307 784,1037 L800,1018 C800.00834,1017.69467 800.069832,1017.28593 800,1017 Z M788,1018 L783,1032 L779,1018 L788,1018 Z M783,1010 L787,1017 L783,1010 Z M785,1009 L793,1009 L789,1016 L785,1009 Z M777,1016 L773,1009 L781,1009 L777,1016 Z M780,1031 L769,1018 L776,1018 L780,1031 Z M790,1018 L797,1018 L786,1031 L790,1018 Z M775,1016 L768,1016 L775,1016 Z" id="Shape-Copy-2"></path>
        </g>
    </g>
</svg>