<?xml version="1.0" encoding="UTF-8"?>
<svg width="20px" height="20px" viewBox="0 0 20 20" version="1.1" xmlns="http://www.w3.org/2000/svg" xmlns:xlink="http://www.w3.org/1999/xlink">
    <!-- Generator: Sketch 52.6 (67491) - http://www.bohemiancoding.com/sketch -->
    <title>Group 3</title>
    <desc>Created with Sketch.</desc>
    <g id="Symbols" stroke="none" stroke-width="1" fill="none" fill-rule="evenodd">
        <g id="icon_首頁" transform="translate(-4.000000, 0.000000)" fill="#333333">
            <g id="Group-3">
                <g transform="translate(4.000000, 0.000000)">
                    <path d="M3.55472782,19 L6.86572782,19 L6.86572782,14.004 C6.86572782,13.728 7.08939448,13.504 7.36572782,13.504 L12.1553945,13.504 C12.4317278,13.504 12.6553945,13.728 12.6553945,14.004 L12.6553945,18.843 L16.1260611,18.843 L16.1260611,10.8636667 C16.1260611,10.5873333 16.3497278,10.3636667 16.6260611,10.3636667 L18.3697278,10.3636667 L10.0767278,1.24 L1.64306115,10.3636667 L3.05472782,10.3636667 C3.33106115,10.3636667 3.55472782,10.5873333 3.55472782,10.8636667 L3.55472782,19 Z M7.36572782,20 L3.05472782,20 C2.77839448,20 2.55472782,19.7763333 2.55472782,19.5 L2.55472782,11.3636667 L0.500061149,11.3636667 C0.301394482,11.3636667 0.121727816,11.246 0.0417278155,11.064 C-0.0376055178,10.882 -0.00193885116,10.67 0.132727816,10.5243333 L9.71272782,0.160666667 C9.80739448,0.0583333333 9.94039448,0 10.0797278,0 L10.0820611,0 C10.2220611,0.000666666667 10.3553945,0.06 10.4497278,0.163666667 L19.8700611,10.5273333 C20.0030611,10.6736667 20.0373945,10.885 19.9573945,11.066 C19.8770611,11.247 19.6980611,11.3636667 19.5000611,11.3636667 L17.1260611,11.3636667 L17.1260611,19.343 C17.1260611,19.619 16.9020611,19.843 16.6260611,19.843 L12.1553945,19.843 C11.8793945,19.843 11.6553945,19.619 11.6553945,19.343 L11.6553945,14.504 L7.86572782,14.504 L7.86572782,19.5 C7.86572782,19.7763333 7.64172782,20 7.36572782,20 Z" id="Fill-1"></path>
                </g>
            </g>
        </g>
    </g>
</svg>