<svg id="圖層_1" data-name="圖層 1" xmlns="http://www.w3.org/2000/svg" viewBox="0 0 40 40"><title>icon-product</title><path d="M20.39,18H10.08A10.1,10.1,0,0,0,0,28.12a2.34,2.34,0,0,0,2.34,2.34H25.39l4.77-4.77A10.09,10.09,0,0,0,20.39,18Z" style="fill:#d8d8d8"/><ellipse cx="15.23" cy="8.3" rx="8.28" ry="8.3" style="fill:#d8d8d8"/><polygon points="30.16 25.69 25.39 30.47 22.14 33.72 26.21 37.79 36.51 27.49 32.44 23.42 30.16 25.69" style="fill:#d8d8d8"/><path d="M39.59,22.44l-1.81-1.81a1.8,1.8,0,0,0-2.54,0L33.5,22.36l4.07,4.07,2-2A1.39,1.39,0,0,0,39.59,22.44Z" style="fill:#d8d8d8"/><path d="M20,39.44a.46.46,0,0,0,.56.55l4.53-1.1L21,34.82Z" style="fill:#d8d8d8"/></svg>