<svg xmlns="http://www.w3.org/2000/svg" viewBox="0 0 183.95 240"><title>資產 7</title><g id="圖層_2" data-name="圖層 2"><g id="圖層_1-2" data-name="圖層 1"><polygon points="29.81 41.72 32.52 48.93 16.56 53.44 150.83 64.55 147.82 56.74 164.98 52.84 29.81 41.72" style="fill:#a81d1d"/><path d="M64.77,29.33a31.61,31.61,0,0,1,63.06,4.57L126,58.46l-5.1-.37,1.93-24.56a26.65,26.65,0,0,0-53.15-3.85L67.93,54.25l-5-.36Z" style="fill:#a81d1d"/><polygon points="132.16 240 136.68 107.81 4.51 94.89 0 223.48 132.16 240" style="fill:red"/><polygon points="183.95 198.84 132.16 240 155.95 204.24 183.95 198.84" style="fill:#ec1b22"/><polygon points="150.83 64.55 136.68 107.81 132.16 240 155.95 204.24 183.95 198.84 178.53 94.89 164.98 52.84 147.82 56.74 150.83 64.55" style="fill:#bd1124"/><path d="M48.09,37.81a31.61,31.61,0,1,1,63.06,4.57h0l-1.79,24.57-5.1-.37L106.2,42A26.65,26.65,0,0,0,53,38.17L51.26,62.74l-5-.36Z" style="fill:#ff4040"/><polygon points="16.56 53.44 4.51 94.89 136.68 107.81 150.83 64.55 16.56 53.44" style="fill:#ff4040"/></g></g></svg>