<?xml version="1.0" encoding="UTF-8"?>
<svg width="78px" height="70px" viewBox="0 0 78 70" version="1.1" xmlns="http://www.w3.org/2000/svg" xmlns:xlink="http://www.w3.org/1999/xlink">
    <!-- Generator: Sketch 54.1 (76490) - https://sketchapp.com -->
    <title>coins</title>
    <desc>Created with Sketch.</desc>
    <g id="index-V" stroke="none" stroke-width="1" fill="none" fill-rule="evenodd">
        <g id="index-copy-3" transform="translate(-595.000000, -2633.000000)" fill="#F6AB18" fill-rule="nonzero">
            <g id="Group-2" transform="translate(0.000000, 2551.000000)">
                <g id="coins" transform="translate(595.000000, 82.000000)">
                    <path d="M77.7635185,23.3333333 C77.6351852,21.1153704 74.9972222,19.3822222 69.7212963,18.06 C69.8988889,17.6711111 69.9987037,17.2666667 70,16.8466667 L70,7.77777778 L69.977963,7.77777778 C69.5138889,0.222962963 38.5557407,0 35,0 C31.4442593,0 0.486111111,0.222962963 0.022037037,7.77777778 L4.97379915e-14,7.77777778 L4.97379915e-14,7.9462963 L4.97379915e-14,7.9462963 L4.97379915e-14,7.9462963 L4.97379915e-14,16.8505556 C0.00648148148,19.3135185 3.185,21.2411111 7.91388889,22.6761111 C7.84907407,22.8912963 7.81018519,23.1103704 7.79722222,23.3333333 L7.77777778,23.3333333 L7.77777778,23.5018519 L7.77777778,23.5018519 L7.77777778,23.5018519 L7.77777778,32.3905556 C2.68333333,33.7024074 0.138703704,35.4109259 0.012962963,37.5925926 L4.97379915e-14,37.5925926 L4.97379915e-14,37.7611111 L4.97379915e-14,37.7611111 L4.97379915e-14,37.7611111 L4.97379915e-14,46.6653704 C0.00388888889,48.3803704 1.55037037,49.8348148 4.08074074,51.0468519 C3.98481481,51.31 3.92518519,51.5783333 3.90833333,51.8531481 L3.88888889,51.8531481 L3.88888889,52.0216667 L3.88888889,52.0216667 L3.88888889,52.0216667 L3.88888889,60.9259259 C3.89925926,65.2374074 13.6072222,67.9142593 24.3937037,69.1638889 C24.4727778,69.1794444 24.5453704,69.2118519 24.6296296,69.2118519 C24.6542593,69.2118519 24.675,69.1988889 24.6996296,69.1975926 C26.7788889,69.4322222 28.8918519,69.615 30.9827778,69.7459259 C31.0268519,69.7511111 31.0657407,69.7718519 31.1111111,69.7718519 C31.1357407,69.7718519 31.1551852,69.7588889 31.1785185,69.7575926 C33.8333333,69.9183333 36.4453704,70 38.8888889,70 C41.3324074,70 43.9444444,69.9183333 46.5992593,69.7562963 C46.6225926,69.7575926 46.6433333,69.7705556 46.6666667,69.7705556 C46.712037,69.7705556 46.7509259,69.7485185 46.795,69.7446296 C48.8859259,69.6137037 50.9988889,69.4322222 53.0781481,69.1962963 C53.1027778,69.1962963 53.1235185,69.2092593 53.1481481,69.2092593 C53.2324074,69.2092593 53.305,69.1768519 53.3840741,69.1612963 C64.1705556,67.9116667 73.8772222,65.2335185 73.8888889,60.9207407 L73.8888889,51.8518519 L73.8681481,51.8518519 C73.7774074,50.2625926 72.4227778,48.9364815 69.7472222,47.8281481 C69.9105556,47.4535185 70,47.0646296 70,46.6614815 L70,38.1888889 C74.6537037,36.7577778 77.7712963,34.8431481 77.7777778,32.4022222 L77.7777778,23.3333333 L77.7635185,23.3333333 Z M67.2674074,47.0827778 L66.8253704,47.4703704 C66.1448148,48.0705556 65.0105556,48.6759259 63.5185185,49.2592593 L63.5185185,43.0785185 C65.0598148,42.5418519 66.3716667,41.9468519 67.4074074,41.2948148 L67.4074074,46.6588889 C67.4074074,46.7924074 67.3581481,46.935 67.2674074,47.0827778 Z M38.2744444,53.1066667 C38.0851852,53.1118519 37.8946296,53.1144444 37.7040741,53.1183333 C37.2412963,53.1274074 36.7668519,53.13 36.2975926,53.1338889 L36.2975926,46.6588889 C36.6540741,46.655 37.0105556,46.6498148 37.367037,46.6433333 C37.4357407,46.642037 37.5044444,46.6407407 37.5731481,46.6394444 C38.8785185,46.6148148 40.1838889,46.5746296 41.4827778,46.515 L41.4827778,52.9874074 C41.2053704,53.0016667 40.9266667,53.0146296 40.6453704,53.0262963 C39.865,53.0612963 39.0768519,53.0872222 38.2744444,53.1066667 Z M32.6135185,53.1248148 C32.0198148,53.1144444 31.4287037,53.1001852 30.8414815,53.082037 C30.7688889,53.0794444 30.6962963,53.0768519 30.6237037,53.0742593 C29.9172222,53.0509259 29.2159259,53.0211111 28.5198148,52.9874074 L28.5198148,46.5162963 C29.8187037,46.5772222 31.1240741,46.6174074 32.4294444,46.6407407 C32.4981481,46.642037 32.5668519,46.6433333 32.6342593,46.6446296 C32.9907407,46.6511111 33.3472222,46.6562963 33.7037037,46.6601852 L33.7037037,53.1390741 C33.4522222,53.1364815 33.2007407,53.1364815 32.9505556,53.1325926 C32.8364815,53.13 32.7262963,53.1261111 32.6135185,53.1248148 Z M9.19981481,50.1692593 C9.15703704,50.1562963 9.11685185,50.1446296 9.07407407,50.132963 L9.07407407,43.8705556 C10.2848148,44.1972222 11.5862963,44.4953704 12.962963,44.7662963 L12.962963,51.0935185 C11.772963,50.8407407 10.675,50.575 9.67555556,50.3027778 C9.51740741,50.2574074 9.35407407,50.2146296 9.19981481,50.1692593 Z M36.5231481,60.9038889 C36.8796296,60.9103704 37.2361111,60.9155556 37.5925926,60.9194444 L37.5925926,67.3996296 C35.8011111,67.3827778 34.0718519,67.3309259 32.4074074,67.2492593 L32.4074074,60.7768519 C33.7062963,60.8377778 35.0116667,60.877963 36.317037,60.9012963 C36.3857407,60.9012963 36.4544444,60.9025926 36.5231481,60.9038889 Z M41.4607407,60.9 C42.7661111,60.8753704 44.0714815,60.8351852 45.3703704,60.7755556 L45.3703704,67.247963 C43.7059259,67.3296296 41.9766667,67.3814815 40.1851852,67.3983333 L40.1851852,60.9181481 C40.5416667,60.9142593 40.8981481,60.9090741 41.2546296,60.9025926 C41.3233333,60.9025926 41.392037,60.9012963 41.4607407,60.9 Z M51.8518519,60.3140741 L51.8518519,66.7514815 C50.6061111,66.8824074 49.3098148,66.9977778 47.962963,67.0924074 L47.962963,60.6277778 C49.2774074,60.5422222 50.5762963,60.4372222 51.8518519,60.3140741 Z M54.4444444,60.0340741 C55.7809259,59.8733333 57.0785185,59.6905556 58.3333333,59.487037 L58.3333333,65.8518519 C57.1122222,66.067037 55.8146296,66.2653704 54.4444444,66.4455556 L54.4444444,60.0340741 Z M60.9259259,59.0242593 C62.3025926,58.7533333 63.6040741,58.4551852 64.8148148,58.1285185 L64.8148148,64.3909259 C63.6598148,64.7240741 62.3596296,65.0468519 60.9259259,65.3514815 L60.9259259,59.0242593 Z M16.8518519,59.0242593 L16.8518519,65.3514815 C15.4181481,65.0468519 14.117963,64.7240741 12.962963,64.3909259 L12.962963,58.1285185 C14.1737037,58.4551852 15.4751852,58.7546296 16.8518519,59.0242593 Z M19.4444444,59.4883333 C20.6992593,59.6918519 21.9968519,59.8746296 23.3333333,60.0353704 L23.3333333,66.4468519 C21.9631481,66.2666667 20.6655556,66.0683333 19.4444444,65.8531481 L19.4444444,59.4883333 Z M25.9259259,60.3140741 C27.2014815,60.4372222 28.5003704,60.5422222 29.8148148,60.6290741 L29.8148148,67.0937037 C28.467963,66.9990741 27.1716667,66.8837037 25.9259259,66.7527778 L25.9259259,60.3140741 Z M22.7098148,52.5622222 C22.5775926,52.5492593 22.4466667,52.535 22.3157407,52.522037 C22.2224074,52.512963 22.1303704,52.5012963 22.037037,52.4922222 L22.037037,46.0561111 C23.3125926,46.1792593 24.6114815,46.2842593 25.9259259,46.3711111 L25.9259259,52.8305556 C24.837037,52.7527778 23.7611111,52.6646296 22.7098148,52.5622222 Z M19.4444444,45.7748148 L19.4444444,52.1862963 C18.0742593,52.0061111 16.7766667,51.8077778 15.5555556,51.5925926 L15.5555556,45.2277778 C16.8103704,45.4312963 18.107963,45.6153704 19.4444444,45.7748148 Z M44.9374074,52.7696296 C44.6522222,52.7916667 44.3644444,52.8137037 44.0740741,52.8344444 L44.0740741,46.3698148 C45.3885185,46.282963 46.6874074,46.1792593 47.962963,46.0548148 L47.962963,52.4922222 C47.1618519,52.5764815 46.3425926,52.6555556 45.5012963,52.7242593 C45.3133333,52.7411111 45.1253704,52.7553704 44.9374074,52.7696296 Z M50.5555556,52.1862963 L50.5555556,45.7748148 C51.892037,45.6140741 53.1896296,45.4312963 54.4444444,45.2277778 L54.4444444,51.5925926 C53.2233333,51.8077778 51.9257407,52.0074074 50.5555556,52.1862963 Z M57.037037,44.765 C58.4137037,44.4940741 59.7151852,44.1959259 60.9259259,43.8692593 L60.9259259,50.1316667 C59.7709259,50.4648148 58.4707407,50.7875926 57.037037,51.0922222 L57.037037,44.765 Z M39.3101852,38.8435185 C38.3353704,38.8188889 37.3825926,38.7812963 36.4466667,38.7359259 C36.3961111,38.7333333 36.3455556,38.7307407 36.2962963,38.7294444 L36.2962963,32.257037 C37.5951852,32.317963 38.9005556,32.3581481 40.2059259,32.3814815 C40.2746296,32.3827778 40.3433333,32.3840741 40.4107407,32.3853704 C40.7672222,32.3918519 41.1237037,32.397037 41.4801852,32.4009259 L41.4801852,38.8733333 C40.8488889,38.8668519 40.2124074,38.8642593 39.5966667,38.85 C39.502037,38.8474074 39.4048148,38.8461111 39.3101852,38.8435185 Z M9.07407407,20.3181481 L9.07407407,14.0557407 C10.2848148,14.3824074 11.5862963,14.6805556 12.962963,14.9514815 L12.962963,21.2787037 C12.8035185,21.245 12.6388889,21.2112963 12.4833333,21.1775926 C11.7937037,21.0259259 11.1209259,20.8677778 10.477963,20.7005556 C9.98796296,20.5748148 9.52259259,20.4464815 9.07407407,20.3181481 Z M32.6342593,16.8298148 C32.9907407,16.8362963 33.3472222,16.8414815 33.7037037,16.8453704 L33.7037037,23.3177778 C31.9588889,23.3009259 30.2244444,23.2555556 28.5185185,23.17 L28.5185185,16.7027778 C29.8174074,16.7637037 31.1227778,16.8038889 32.4281481,16.8272222 C32.4968519,16.8272222 32.5655556,16.8285185 32.6342593,16.8298148 Z M37.5718519,16.8259259 C38.8772222,16.8012963 40.1825926,16.7611111 41.4814815,16.7014815 L41.4814815,23.1687037 C41.2611111,23.1790741 41.0498148,23.1946296 40.8281481,23.205 C40.81,23.2062963 40.7918519,23.2062963 40.7724074,23.2075926 C39.9025926,23.2464815 39.0159259,23.275 38.1175926,23.2957407 C37.9775926,23.2996296 37.8375926,23.3009259 37.6975926,23.3048148 C37.2361111,23.3138889 36.7642593,23.3151852 36.2962963,23.3203704 L36.2962963,16.8453704 C36.6527778,16.8414815 37.0092593,16.8362963 37.3657407,16.8298148 C37.4344444,16.8285185 37.5031481,16.8272222 37.5718519,16.8259259 Z M67.1105556,17.4766667 L67.0742593,17.4688889 L66.6024074,17.8357407 C65.917963,18.3685185 64.8666667,18.9077778 63.5185185,19.4288889 L63.5185185,13.2624074 C65.0598148,12.7257407 66.3716667,12.1307407 67.4074074,11.4787037 L67.4074074,16.8427778 C67.4074074,17.0398148 67.3037037,17.2524074 67.1105556,17.4766667 Z M50.5555556,22.3637037 L50.5555556,15.96 C51.892037,15.7992593 53.1896296,15.6164815 54.4444444,15.412963 L54.4444444,21.7674074 C53.2155556,21.9851852 51.9218519,22.1848148 50.5555556,22.3637037 Z M57.037037,21.2683333 L57.037037,14.9514815 C58.4137037,14.6805556 59.7151852,14.3824074 60.9259259,14.0557407 L60.9259259,20.3038889 C59.7644444,20.6422222 58.4564815,20.965 57.037037,21.2683333 Z M47.962963,16.24 L47.962963,22.6696296 C46.7107407,22.8018519 45.4144444,22.9172222 44.0740741,23.0131481 L44.0740741,16.555 C45.3885185,16.4681481 46.6874074,16.3631481 47.962963,16.24 Z M22.037037,22.6722222 L22.037037,16.24 C23.3125926,16.3631481 24.6114815,16.4681481 25.9259259,16.555 L25.9259259,23.007963 C24.6062963,22.9133333 23.3048148,22.8057407 22.037037,22.6722222 Z M19.4444444,15.96 L19.4444444,22.365 C19.1877778,22.3312963 18.9207407,22.3040741 18.6666667,22.2690741 C18.5007407,22.2457407 18.3425926,22.2211111 18.1792593,22.1977778 C17.43,22.0901852 16.6975926,21.9748148 15.9794444,21.8542593 C15.8355556,21.8296296 15.6968519,21.8037037 15.5555556,21.7790741 L15.5555556,15.4142593 C16.8103704,15.6164815 18.107963,15.8005556 19.4444444,15.96 Z M33.3822222,38.5505556 C33.2072222,38.5375926 33.0309259,38.5246296 32.8572222,38.5116667 C32.0275926,38.4468519 31.2174074,38.3755556 30.4266667,38.2964815 C30.2568519,38.2796296 30.087037,38.2614815 29.9185185,38.2446296 C29.8835185,38.2407407 29.8498148,38.2355556 29.8148148,38.232963 L29.8148148,31.7955556 C31.0903704,31.9187037 32.3892593,32.0237037 33.7037037,32.1105556 L33.7037037,38.5712963 C33.5987037,38.5635185 33.4872222,38.5583333 33.3822222,38.5505556 Z M24.8175926,37.5822222 C24.3042593,37.5005556 23.822037,37.4124074 23.3333333,37.3268519 L23.3333333,30.9698148 C24.5881481,31.1733333 25.8857407,31.3561111 27.2222222,31.5168519 L27.2222222,37.9283333 C26.4288889,37.8233333 25.6524074,37.7144444 24.907037,37.5977778 C24.8772222,37.5912963 24.8474074,37.5861111 24.8175926,37.5822222 Z M20.7407407,30.5057407 L20.7407407,36.8225926 C19.3083333,36.5153704 18.0094444,36.1887037 16.8518519,35.8490741 L16.8518519,29.61 C18.0625926,29.9366667 19.3640741,30.2361111 20.7407407,30.5057407 Z M14.2592593,28.817963 L14.2592593,34.9766667 C12.2214815,34.1898148 10.907037,33.3861111 10.4792593,32.6705556 L10.3924074,32.5253704 C10.3846296,32.4851852 10.3716667,32.4424074 10.3703704,32.4022222 L10.3703704,27.0342593 C11.4061111,27.6862963 12.717963,28.2812963 14.2592593,28.817963 Z M45.3496296,32.3814815 C46.655,32.3568519 47.9603704,32.3166667 49.2592593,32.257037 L49.2592593,38.722963 C47.5559259,38.8072222 45.8240741,38.8538889 44.0740741,38.872037 L44.0740741,32.4009259 C44.4305556,32.397037 44.787037,32.3918519 45.1435185,32.3853704 C45.2122222,32.3840741 45.2809259,32.3827778 45.3496296,32.3814815 Z M62.1016667,37.3553704 C61.5325926,37.4538889 60.9583333,37.5511111 60.3685185,37.6405556 C60.0301852,37.6924074 59.6840741,37.7416667 59.3366667,37.7909259 C59.0087037,37.8375926 58.6677778,37.8777778 58.3346296,37.9205556 L58.3346296,31.5155556 C59.6711111,31.3548148 60.9687037,31.172037 62.2235185,30.9685185 L62.2235185,37.3333333 C62.182037,37.3411111 62.1418519,37.3488889 62.1016667,37.3553704 Z M53.3244444,38.4624074 C52.8409259,38.5025926 52.3418519,38.5285185 51.8518519,38.5635185 L51.8518519,32.1105556 C53.1662963,32.0237037 54.4651852,31.92 55.7407407,31.7955556 L55.7407407,38.2264815 C54.9875926,38.3055556 54.2357407,38.3846296 53.4618519,38.4494444 C53.4151852,38.4533333 53.3711111,38.4585185 53.3244444,38.4624074 Z M68.1385185,36.0318519 C67.492963,36.212037 66.8098148,36.3805556 66.1124074,36.5451852 C65.7896296,36.6203704 65.4603704,36.6955556 65.1233333,36.7681481 C65.0235185,36.7901852 64.9172222,36.8096296 64.8161111,36.8316667 L64.8161111,30.507037 C66.1927778,30.2361111 67.4942593,29.937963 68.705,29.6112963 L68.705,35.8737037 C68.5183333,35.9255556 68.3303704,35.9787037 68.1385185,36.0318519 Z M75.1709259,23.4175926 C75.0516667,24.2977778 73.0566667,25.4683333 69.4957407,26.5688889 L69.4957407,26.5688889 C64.9094444,27.9857407 57.7331481,29.2833333 48.6383333,29.6851852 C48.172963,29.7046296 47.7088889,29.7240741 47.2344444,29.7396296 C46.8468519,29.7525926 46.457963,29.7642593 46.0625926,29.7746296 C44.9892593,29.797963 43.9003704,29.8148148 42.7777778,29.8148148 C41.6551852,29.8148148 40.5662963,29.797963 39.492963,29.7733333 C39.0988889,29.7642593 38.71,29.7512963 38.3211111,29.7383333 C37.8453704,29.7240741 37.3812963,29.7033333 36.9172222,29.6838889 C27.8224074,29.282037 20.6448148,27.9844444 16.0598148,26.5675926 L16.0598148,26.5675926 C12.5274074,25.4761111 10.5362963,24.3146296 10.3885185,23.4383333 C10.395,23.4137037 10.395,23.392963 10.4105556,23.3618519 C10.4987037,23.3838889 10.5972222,23.402037 10.6866667,23.4240741 C11.1935185,23.5446296 11.7133333,23.6612963 12.2422222,23.7727778 C14.817963,24.3275926 17.6724074,24.7825926 20.7135185,25.13 C20.7238889,25.13 20.7316667,25.1351852 20.7407407,25.1351852 C20.7433333,25.1351852 20.7459259,25.1338889 20.7472222,25.1338889 C22.8187037,25.3698148 24.967963,25.5551852 27.1742593,25.6861111 C27.1911111,25.6861111 27.2053704,25.6951852 27.2222222,25.6951852 C27.2312963,25.6951852 27.2377778,25.69 27.2468519,25.69 C28.8348148,25.7833333 30.4435185,25.852037 32.0716667,25.8883333 C33.0685185,25.912963 34.0472222,25.9259259 35,25.9259259 C35.6805556,25.9259259 36.377963,25.9181481 37.0818519,25.9051852 C46.5007407,25.76 55.23,24.64 61.3044444,22.9042593 C61.5844444,22.8251852 61.857963,22.7435185 62.1275926,22.6618519 C62.2922222,22.6112963 62.4607407,22.562037 62.6201852,22.5114815 C63.0894444,22.3611111 63.5392593,22.2068519 63.9735185,22.0461111 C64.0487037,22.0175926 64.12,21.9890741 64.1951852,21.9605556 C64.562037,21.8218519 64.9146296,21.677963 65.2516667,21.5314815 C65.3488889,21.4887037 65.4487037,21.4472222 65.5433333,21.4044444 C65.9024074,21.2424074 66.2498148,21.0764815 66.5712963,20.9040741 C66.7164815,20.8275926 66.8422222,20.7485185 66.9783333,20.6707407 C67.1338889,20.5812963 67.2894444,20.4905556 67.4333333,20.3985185 C67.515,20.3466667 67.6122222,20.2974074 67.69,20.2455556 C73.4935185,21.5042593 75.0231481,22.8809259 75.1709259,23.4175926 Z M35,2.59259259 C56.3746296,2.59259259 67.1857407,5.95777778 67.387963,7.88925926 C67.2311111,8.76555556 65.2412963,9.92314815 61.717963,11.012037 L61.717963,11.012037 C57.1316667,12.4288889 49.9553704,13.7264815 40.8605556,14.1283333 C40.3951852,14.1477778 39.9311111,14.1672222 39.4566667,14.1827778 C39.0690741,14.1957407 38.6801852,14.2074074 38.2848148,14.2177778 C37.2114815,14.2424074 36.1225926,14.2592593 35,14.2592593 C33.8774074,14.2592593 32.7885185,14.2424074 31.7151852,14.2177778 C31.3211111,14.2087037 30.9322222,14.1957407 30.5433333,14.1827778 C30.0675926,14.1685185 29.6035185,14.1477778 29.1394444,14.1283333 C20.0446296,13.7264815 12.867037,12.4288889 8.28203704,11.012037 L8.28203704,11.012037 C4.75740741,9.92314815 2.76888889,8.76555556 2.61203704,7.88925926 C2.81425926,5.95777778 13.6253704,2.59259259 35,2.59259259 Z M2.59259259,16.8466667 L2.59259259,11.4787037 C3.62833333,12.1307407 4.94018519,12.7257407 6.48148148,13.2624074 L6.48148148,19.4690741 C3.96018519,18.5240741 2.59518519,17.5764815 2.59259259,16.8466667 Z M8.87185185,34.7861111 C8.8912963,34.8068519 8.92111111,34.825 8.94055556,34.8457407 C10.7151852,36.6372222 14.3901852,38.045 18.9648148,39.095 C19.0698148,39.1196296 19.1812963,39.142963 19.2875926,39.1675926 C19.6233333,39.2427778 19.9642593,39.3166667 20.3090741,39.387963 C24.5103704,40.2824074 29.5257407,40.9292593 34.9896296,41.2494444 C34.9935185,41.2494444 34.9961111,41.2507407 34.9987037,41.2507407 C35.0012963,41.2507407 35.0025926,41.2494444 35.0038889,41.2494444 C36.7590741,41.3518519 38.5544444,41.4231481 40.3874074,41.4542593 C41.1988889,41.4711111 41.9974074,41.4814815 42.7777778,41.4814815 C43.6722222,41.4814815 44.59,41.4711111 45.5233333,41.4490741 C47.2188889,41.4140741 48.8898148,41.3440741 50.5374074,41.2481481 C50.5438889,41.2481481 50.5490741,41.252037 50.5555556,41.252037 C50.5672222,41.252037 50.5762963,41.2455556 50.587963,41.2455556 C56.0661111,40.9227778 61.2059259,40.2694444 65.5524074,39.3296296 C64.6112963,39.8222222 63.3227778,40.3316667 61.717963,40.8281481 L61.717963,40.8281481 C56.8762963,42.3240741 49.1438889,43.6864815 39.3166667,44.0027778 C39.025,44.0118519 38.7372222,44.0222222 38.4416667,44.03 C38.1240741,44.0377778 37.8012963,44.042963 37.4785185,44.0494444 C36.6631481,44.0624074 35.8425926,44.0740741 35,44.0740741 C33.8774074,44.0740741 32.7885185,44.0572222 31.7151852,44.0325926 C31.3211111,44.0235185 30.9322222,44.0105556 30.5433333,43.9975926 C30.0675926,43.9833333 29.6035185,43.9625926 29.1394444,43.9431481 C20.0446296,43.5412963 12.867037,42.2437037 8.28203704,40.8268519 L8.28203704,40.8268519 C4.71722222,39.725 2.72222222,38.5531481 2.60685185,37.672963 C2.75074074,37.1855556 4.0612963,35.9657407 8.87185185,34.7861111 Z M2.59259259,46.6614815 L2.59259259,41.2935185 C3.62833333,41.9455556 4.94018519,42.5405556 6.48148148,43.0772222 L6.48148148,49.2592593 L5.7412963,48.9714815 L5.72574074,48.987037 C3.69055556,48.1431481 2.59518519,47.3148148 2.59259259,46.6614815 Z M6.48148148,60.9207407 L6.48148148,55.5527778 C7.51722222,56.2048148 8.82907407,56.7998148 10.3703704,57.3364815 L10.3703704,63.5431481 C7.84907407,62.5981481 6.48407407,61.6505556 6.48148148,60.9207407 Z M67.4074074,63.5431481 L67.4074074,57.3377778 C68.9487037,56.8011111 70.2605556,56.2061111 71.2962963,55.5540741 L71.2962963,60.9181481 C71.295,61.647963 69.9287037,62.5968519 67.4074074,63.5431481 Z M71.2794444,51.9516667 C71.1381481,52.8292593 69.147037,53.9933333 65.6068519,55.0874074 L65.6068519,55.0874074 C61.0205556,56.5042593 53.8442593,57.8018519 44.7494444,58.2037037 C44.2840741,58.2231481 43.82,58.2425926 43.3455556,58.2581481 C42.957963,58.2711111 42.5690741,58.2827778 42.1737037,58.2931481 C41.1003704,58.3164815 40.0114815,58.3333333 38.8888889,58.3333333 C37.7662963,58.3333333 36.6761111,58.3164815 35.6014815,58.2918519 C35.2112963,58.2827778 34.8262963,58.2698148 34.4412963,58.2568519 C33.962963,58.2412963 33.4962963,58.2218519 33.0283333,58.2024074 C23.9335185,57.8005556 16.7572222,56.502963 12.1709259,55.0861111 L12.1709259,55.0861111 C8.74222222,54.027037 6.76148148,52.9018519 6.51259259,52.0333333 C6.89888889,52.1681481 7.29944444,52.2990741 7.71037037,52.4274074 C7.75185185,52.4403704 7.79333333,52.4533333 7.83481481,52.465 C8.18481481,52.5725926 8.54259259,52.6762963 8.90944444,52.7774074 C9.04814815,52.8162963 9.18814815,52.8551852 9.32944444,52.8927778 C9.53685185,52.9485185 9.74944444,53.0016667 9.96203704,53.0561111 C14.6831481,54.2655556 20.7096296,55.1224074 27.2157407,55.5074074 C27.2183333,55.5074074 27.2196296,55.5087037 27.2222222,55.5087037 C27.2235185,55.5087037 27.2248148,55.5074074 27.2261111,55.5074074 C29.2353704,55.6266667 31.2874074,55.7005556 33.3614815,55.7251852 C33.9137037,55.7355556 34.462037,55.7407407 35,55.7407407 C35.7142593,55.7407407 36.4453704,55.7316667 37.1855556,55.7187037 C39.0768519,55.6875926 40.9435185,55.6175926 42.7687037,55.5087037 C42.7725926,55.5087037 42.7751852,55.5112963 42.7790741,55.5112963 C42.7855556,55.5112963 42.7894444,55.5074074 42.7959259,55.5074074 C45.0190741,55.3738889 47.1709259,55.1833333 49.2385185,54.9461111 C49.2462963,54.9461111 49.2527778,54.95 49.2605556,54.95 C49.2890741,54.95 49.3124074,54.9357407 49.3409259,54.9331481 C51.6431481,54.6674074 53.8261111,54.3407407 55.8522222,53.9609259 C56.2696296,53.8844444 56.6805556,53.8053704 57.0875926,53.7237037 C57.1783333,53.7055556 57.2690741,53.6874074 57.3598148,53.667963 C61.1877778,52.8824074 64.5011111,51.8648148 66.7748148,50.6035185 C66.8992593,50.5361111 67.0159259,50.4661111 67.1338889,50.3974074 C67.2777778,50.3118519 67.4151852,50.225 67.5487037,50.1368519 C67.6731481,50.0564815 67.817037,49.9787037 67.9311111,49.897037 C70.49,50.8096296 71.1951852,51.6262963 71.2794444,51.9516667 Z M71.2962963,35.0246296 L71.2962963,28.8192593 C72.8375926,28.2825926 74.1494444,27.6875926 75.1851852,27.0355556 L75.1851852,32.3996296 C75.1838889,33.1294444 73.8175926,34.0783333 71.2962963,35.0246296 Z" id="Shape"></path>
                </g>
            </g>
        </g>
    </g>
</svg>