<svg id="圖層_1" data-name="圖層 1" xmlns="http://www.w3.org/2000/svg" viewBox="0 0 40 40"><title>icon</title><path d="M13.39,33.52a1,1,0,0,1-.73-.3L.3,20.84a1,1,0,0,1,0-1.45L3.64,16a1.06,1.06,0,0,1,1.45,0L17.46,28.42a1,1,0,0,1,0,1.45l-3.34,3.35A1,1,0,0,1,13.39,33.52Z" style="fill:#f06441"/><path d="M26.46,30.15a1,1,0,0,1-.73-.3l-6.18-6.19a1,1,0,0,1,0-1.45l2.67-2.67a1,1,0,0,1,1.45,0l6.18,6.19a1,1,0,0,1,0,1.45l-2.67,2.67A1,1,0,0,1,26.46,30.15Z" style="fill:#f06441"/><path d="M34.62,40a1,1,0,0,1-.73-.3l-9-9a1,1,0,0,1,0-1.45l4.35-4.35a1.06,1.06,0,0,1,1.45,0l9,9a1,1,0,0,1,0,1.45L35.35,39.7A1,1,0,0,1,34.62,40Z" style="fill:#f06441"/><path d="M29.12,17.77a1,1,0,0,1-.73-.3L16,5.1a1,1,0,0,1,0-1.45L19.38.3a1,1,0,0,1,1.45,0L33.19,12.67a1,1,0,0,1,0,1.45l-3.34,3.35A1,1,0,0,1,29.12,17.77Z" style="fill:#f06441"/><path d="M15.4,28.84h0a1,1,0,0,1-.73-.3L5,18.83a1,1,0,0,1,0-1.45L17.39,5a1,1,0,0,1,1.45,0l9.7,9.71a1,1,0,0,1,0,1.45L16.13,28.54A1,1,0,0,1,15.4,28.84Z" style="fill:#f06441"/></svg>