<svg id="圖層_1" data-name="圖層 1" xmlns="http://www.w3.org/2000/svg" viewBox="0 0 40 40"><title>icon-product</title><path d="M32.25,5H25A5,5,0,0,0,15,5H7.75A3.75,3.75,0,0,0,4,8.75v27.5A3.75,3.75,0,0,0,7.75,40h24.5A3.75,3.75,0,0,0,36,36.25V8.75A3.75,3.75,0,0,0,32.25,5ZM20,3.13A1.88,1.88,0,1,1,18.13,5,1.87,1.87,0,0,1,20,3.13ZM29.54,33.2a1.48,1.48,0,0,1-1.08.46,1.43,1.43,0,0,1-1.08-.46l-4.12-4.11a8.23,8.23,0,0,1-4.8,1.49,8.32,8.32,0,0,1-3.29-.67,8.29,8.29,0,0,1-4.51-4.51,8.43,8.43,0,0,1,0-6.57,8.29,8.29,0,0,1,4.51-4.51,8.43,8.43,0,0,1,6.57,0,8.29,8.29,0,0,1,4.51,4.51,8.45,8.45,0,0,1-.82,8.08L29.56,31a1.52,1.52,0,0,1,0,2.16Z" style="fill:#d8d8d8"/><path d="M18.46,16.73a5.4,5.4,0,0,0-5.38,5.38,5.4,5.4,0,0,0,5.38,5.38,5.4,5.4,0,0,0,5.38-5.38,5.4,5.4,0,0,0-5.38-5.38Z" style="fill:#d8d8d8"/></svg>