<?xml version="1.0" encoding="utf-8"?>
<!-- Generator: Adobe Illustrator 21.1.0, SVG Export Plug-In . SVG Version: 6.00 Build 0)  -->
<svg version="1.1" id="圖層_1" xmlns="http://www.w3.org/2000/svg" xmlns:xlink="http://www.w3.org/1999/xlink" x="0px" y="0px"
	 viewBox="0 0 40 40" style="enable-background:new 0 0 40 40;" xml:space="preserve">
<style type="text/css">
	.st0{fill:#FFBC25;}
	.st1{fill:#FFFFFF;}
</style>
<title>Group 19</title>
<desc>Created with Sketch.</desc>
<path id="Rectangle-4-Copy-3" class="st0" d="M6.3,0h27.5C37.2,0,40,2.8,40,6.3v27.5c0,3.5-2.8,6.3-6.3,6.3H6.3
	C2.8,40,0,37.2,0,33.7V6.3C0,2.8,2.8,0,6.3,0z"/>
<path class="st1" d="M32,18.9c0.5-0.5,0.7-1.2,0.5-1.8c-0.2-0.7-0.8-1.1-1.5-1.2l-6.1-0.9c-0.3,0-0.5-0.2-0.6-0.4L21.6,9
	c-0.3-0.6-0.9-1-1.6-1c-0.7,0-1.3,0.4-1.6,1l-2.7,5.5c-0.1,0.2-0.3,0.4-0.6,0.4L9,15.8c-0.7,0.1-1.2,0.6-1.5,1.2
	c-0.2,0.7,0,1.4,0.5,1.8l4.4,4.3c0.2,0.2,0.3,0.4,0.2,0.7l-1,6c-0.1,0.5,0,1,0.4,1.5c0.5,0.6,1.5,0.8,2.2,0.4l5.4-2.9
	c0.2-0.1,0.5-0.1,0.7,0l5.4,2.9c0.3,0.1,0.5,0.2,0.8,0.2c0.5,0,1-0.2,1.4-0.6c0.3-0.4,0.5-0.9,0.4-1.5l-1-6c0-0.3,0-0.5,0.2-0.7
	L32,18.9z"/>
</svg>
