<?xml version="1.0" encoding="UTF-8"?>
<svg width="38px" height="38px" viewBox="0 0 38 38" version="1.1" xmlns="http://www.w3.org/2000/svg" xmlns:xlink="http://www.w3.org/1999/xlink">
    <!-- Generator: Sketch 51.3 (57544) - http://www.bohemiancoding.com/sketch -->
    <title>Group 14</title>
    <desc>Created with Sketch.</desc>
    <defs></defs>
    <g id="member" stroke="none" stroke-width="1" fill="none" fill-rule="evenodd">
        <g id="member/liked" transform="translate(-1214.000000, -318.000000)">
            <rect fill="#F6F7F8" x="0" y="0" width="1440" height="1380"></rect>
            <g id="Group-13" transform="translate(364.000000, 292.000000)">
                <polygon id="Rectangle-2-Copy-10" fill="#FFFFFF" points="792 0 946 0 946 90 792 90"></polygon>
                <g id="Group-14" transform="translate(850.000000, 26.000000)" stroke="#D8D8D8">
                    <path d="M5,0.5 L33,0.5 C35.4852814,0.5 37.5,2.51471863 37.5,5 L37.5,33 C37.5,35.4852814 35.4852814,37.5 33,37.5 L5,37.5 C2.51471863,37.5 0.5,35.4852814 0.5,33 L0.5,5 C0.5,2.51471863 2.51471863,0.5 5,0.5 Z M10.4975758,13.0407519 C10.4952026,13.041513 10.490651,13.0407519 10.4821429,13.0407519 L10.4975758,13.0407519 Z M10.4975758,13.0407519 L12.525442,13.0407519 L12.525442,27.9788232 C12.525442,28.274477 12.5775211,28.3640472 12.7061084,28.4176693 C12.8723803,28.4870061 13.1007057,28.5033315 13.7131783,28.4988844 C13.8311596,28.4980319 13.8852611,28.4977424 13.9540134,28.4977424 L24.0207006,28.4977424 C24.0894529,28.4977424 24.1435543,28.4980319 24.2615357,28.4988844 C24.8740083,28.5033315 25.1023337,28.4870061 25.2686055,28.4176693 C25.3971929,28.3640472 25.449272,28.274477 25.449272,27.9788232 L25.449272,13.0407519 L27.5024242,13.0407519 C27.5004844,13.0401298 27.5,13.0384907 27.5,13.0345877 L27.5,12.6458694 C27.5,12.5493294 27.4975799,12.5482265 27.0357143,12.5482265 L23.3139815,12.5482265 L23.1657015,12.3241657 L21.7818071,10.2310742 C21.6502214,10.0008408 21.4652269,9.81389995 21.2462388,9.68632761 C21.036816,9.56432758 20.8021046,9.49999758 20.5621593,9.5 L16.974553,9.5 C16.478571,9.49999499 16.0154007,9.77529834 15.7377666,10.2589158 L14.2226913,12.5482265 L10.9642857,12.5482265 C10.5024201,12.5482265 10.5,12.5493294 10.5,12.6458694 L10.5,13.0345877 C10.5,13.0384907 10.4995156,13.0401298 10.4975758,13.0407519 Z M27.5024242,13.0407519 L27.5178571,13.0407519 C27.509349,13.0407519 27.5047974,13.041513 27.5024242,13.0407519 Z M15.5605544,11.8052336 L16.2668228,10.5079651 C16.4039194,10.3008081 16.6384185,10.1804362 16.8853553,10.1804384 L20.569225,10.1804384 C20.8161662,10.1804362 21.0506652,10.3008081 21.2102539,10.5454083 L22.2947986,12.5437448 L15.1597239,12.5437448 L15.5605544,11.8052336 Z M25.2272727,13.0220621 L25.2272727,27.4764647 C25.2272727,27.8861138 24.9036556,28.2301811 24.4886364,28.2301811 L13.5113636,28.2301811 C13.0963444,28.2301811 12.7727273,27.8861138 12.7727273,27.4764647 L12.7727273,13.0220621 L25.2272727,13.0220621 Z M22.4909091,15.9789023 L21.9454545,15.9789023 C21.9134405,15.9789023 21.9,15.9915059 21.9,15.9903945 L21.9,25.1972556 C21.9,25.1961443 21.9134405,25.2087479 21.9454545,25.2087479 L22.4909091,25.2087479 C22.5229231,25.2087479 22.5363636,25.1961443 22.5363636,25.1972556 L22.5363636,15.9903945 C22.5363636,15.9915059 22.5229231,15.9789023 22.4909091,15.9789023 Z M19.3818182,15.9789023 L18.8363636,15.9789023 C18.8043496,15.9789023 18.7909091,15.9915059 18.7909091,15.9903945 L18.7909091,25.1972556 C18.7909091,25.1961443 18.8043496,25.2087479 18.8363636,25.2087479 L19.3818182,25.2087479 C19.4138322,25.2087479 19.4272727,25.1961443 19.4272727,25.1972556 L19.4272727,15.9903945 C19.4272727,15.9915059 19.4138322,15.9789023 19.3818182,15.9789023 Z M16.2727273,15.9789023 L15.7272727,15.9789023 C15.6952587,15.9789023 15.6818182,15.9915059 15.6818182,15.9903945 L15.6818182,25.1972556 C15.6818182,25.1961443 15.6952587,25.2087479 15.7272727,25.2087479 L16.2727273,25.2087479 C16.3047413,25.2087479 16.3181818,25.1961443 16.3181818,25.1972556 L16.3181818,15.9903945 C16.3181818,15.9915059 16.3047413,15.9789023 16.2727273,15.9789023 Z" id="Combined-Shape"></path>
                </g>
            </g>
        </g>
    </g>
</svg>