<svg id="圖層_1" data-name="圖層 1" xmlns="http://www.w3.org/2000/svg" viewBox="0 0 40 40"><title>icon-product</title><path d="M32.25,5H25A5,5,0,0,0,15,5H7.75A3.75,3.75,0,0,0,4,8.75v27.5A3.75,3.75,0,0,0,7.75,40h24.5A3.75,3.75,0,0,0,36,36.25V8.75A3.75,3.75,0,0,0,32.25,5ZM12.5,33.13a1.88,1.88,0,1,1,1.88-1.87A1.87,1.87,0,0,1,12.5,33.13Zm0-7.5a1.88,1.88,0,1,1,1.88-1.87A1.87,1.87,0,0,1,12.5,25.63Zm0-7.5a1.88,1.88,0,1,1,1.88-1.87A1.87,1.87,0,0,1,12.5,18.13Zm7.5-15A1.88,1.88,0,1,1,18.13,5,1.87,1.87,0,0,1,20,3.13ZM30,31.88a.63.63,0,0,1-.62.63H18.13a.63.63,0,0,1-.62-.62V30.63a.63.63,0,0,1,.63-.62H29.38a.63.63,0,0,1,.63.63Zm0-7.5a.63.63,0,0,1-.62.63H18.13a.63.63,0,0,1-.62-.62V23.13a.63.63,0,0,1,.63-.62H29.38a.63.63,0,0,1,.63.63Zm0-7.5a.63.63,0,0,1-.62.63H18.13a.63.63,0,0,1-.62-.62V15.63a.63.63,0,0,1,.63-.62H29.38a.63.63,0,0,1,.63.63Z" style="fill:#d8d8d8"/></svg>