<?xml version="1.0" encoding="UTF-8"?>
<svg width="20px" height="20px" viewBox="0 0 20 20" version="1.1" xmlns="http://www.w3.org/2000/svg" xmlns:xlink="http://www.w3.org/1999/xlink">
    <!-- Generator: Sketch 52.6 (67491) - http://www.bohemiancoding.com/sketch -->
    <title>Group 3 Copy 9</title>
    <desc>Created with Sketch.</desc>
    <g id="Symbols" stroke="none" stroke-width="1" fill="none" fill-rule="evenodd">
        <g id="icon_競標中" transform="translate(-11.000000, 0.000000)" fill="#333333">
            <g id="Fill-1">
                <path d="M22.8204082,13.3153333 L28.1901708,18.691 C28.5883382,19.0896667 29.292045,19.0896667 29.6905456,18.691 C29.8897959,18.4916667 29.9997501,18.225 29.9997501,17.9403333 C29.9997501,17.6556667 29.8897959,17.389 29.6905456,17.1896667 L24.3174511,11.814 L24.0042482,12.0663333 L20.2817993,8.34233333 L22.5301958,6.093 L22.8627239,6.286 C23.1522699,6.454 23.5161183,6.40933333 23.7480217,6.17766667 C23.8862974,6.03933333 23.9622657,5.85433333 23.9622657,5.65633333 C23.9622657,5.45833333 23.8862974,5.27333333 23.7480217,5.13466667 L19.825656,1.215 C19.5484382,0.938 19.0596418,0.938 18.7834236,1.21466667 C18.5501874,1.448 18.504873,1.81133333 18.6734694,2.09766667 L18.8693878,2.43133333 L13.439317,7.86366667 L13.107122,7.67066667 C12.817576,7.50233333 12.4500625,7.55033333 12.2138276,7.78666667 C12.0755519,7.925 11.9995835,8.11 11.9995835,8.308 C11.9995835,8.506 12.0755519,8.691 12.2138276,8.82933333 L16.1361933,12.7533333 C16.4237401,13.041 16.8915452,13.041 17.1787589,12.7533333 C17.4149938,12.517 17.4626406,12.1496667 17.2947105,11.86 L17.1017909,11.5276667 L19.3501874,9.27833333 L23.0723032,13.002 L22.8204082,13.3153333 Z M28.9401916,20.0003333 C28.3887547,20.0003333 27.8713036,19.7863333 27.483132,19.398 L22.0787172,13.9876667 C21.8548105,13.7633333 21.7651812,13.453 21.8158267,13.159 L19.3501874,10.6923333 L18.3186172,11.7243333 C18.5025406,12.3283333 18.3459392,12.9996667 17.8857976,13.4606667 C17.2084132,14.138 16.1068721,14.1376667 15.4294877,13.4606667 L11.507122,9.53666667 C11.179925,9.20933333 11,8.773 11,8.308 C11,7.843 11.179925,7.40666667 11.507122,7.07933333 C11.9675968,6.619 12.6383174,6.46166667 13.2427322,6.64633333 L17.6495627,2.23766667 C17.463307,1.63566667 17.6172428,0.967 18.0763848,0.507666667 C18.4035818,0.180333333 18.8394002,0 19.3042066,0 C19.7690129,0 20.2051645,0.180333333 20.5323615,0.507666667 L24.454394,4.42766667 C24.7819242,4.755 24.9618492,5.19133333 24.9618492,5.65633333 C24.9618492,6.12133333 24.7819242,6.55766667 24.4547272,6.88466667 C23.9979175,7.342 23.3295294,7.49533333 22.7267805,7.31066667 L21.6955435,8.34233333 L24.1611828,10.809 C24.4550604,10.7586667 24.7652645,10.848 24.9895044,11.0723333 L30.3972511,16.4823333 C31.2009163,17.2863333 31.2009163,18.594 30.3972511,19.398 C30.0094127,19.7863333 29.4916285,20.0003333 28.9401916,20.0003333 Z"></path>
            </g>
        </g>
    </g>
</svg>