<svg id="圖層_1" data-name="圖層 1" xmlns="http://www.w3.org/2000/svg" viewBox="0 0 40 40"><title>icon</title><path d="M36.93,40H3.07A3.08,3.08,0,0,1,0,36.92,13.26,13.26,0,0,1,13.23,23.65H26.77A13.26,13.26,0,0,1,40,36.92,3.08,3.08,0,0,1,36.93,40ZM13.23,25.71A11.21,11.21,0,0,0,2,36.92a1,1,0,0,0,1,1H36.93a1,1,0,0,0,1-1A11.21,11.21,0,0,0,26.77,25.71Z" style="fill:#d8d8d8"/><path d="M20,21.8A10.9,10.9,0,1,1,30.87,10.9,10.9,10.9,0,0,1,20,21.8ZM20,2.05a8.85,8.85,0,1,0,8.82,8.85A8.84,8.84,0,0,0,20,2.05Z" style="fill:#d8d8d8"/></svg>