<?xml version="1.0" encoding="UTF-8"?>
<svg width="67px" height="70px" viewBox="0 0 67 70" version="1.1" xmlns="http://www.w3.org/2000/svg" xmlns:xlink="http://www.w3.org/1999/xlink">
    <!-- Generator: Sketch 54.1 (76490) - https://sketchapp.com -->
    <title>Group 14</title>
    <desc>Created with Sketch.</desc>
    <g id="index-V" stroke="none" stroke-width="1" fill="none" fill-rule="evenodd">
        <g id="index-copy-3" transform="translate(-694.000000, -2632.000000)" fill="#F6AB18" fill-rule="nonzero">
            <g id="Group-2" transform="translate(0.000000, 2551.000000)">
                <g id="Group-14" transform="translate(694.000000, 81.000000)">
                    <g id="Group-13">
                        <path d="M33.3666403,49 C25.1949421,49 19.1863405,41.5817797 17.203502,29.1577684 C16.0017817,21.6792373 17.203502,15.3466102 20.6284049,11.3661017 C23.5125337,7.98870056 27.7786408,6.3 33.3666403,6.3 C39.4954139,6.3 44.0619511,8.0490113 46.9460799,11.5470339 C50.1907248,15.5275424 51.031929,21.4379944 49.5297786,29.2180791 L49.5297786,29.2180791 C47.0061659,41.8230226 41.1778224,49 33.3666403,49 Z M33.3666403,9.37584746 C28.6799311,9.37584746 25.1348561,10.7026836 22.9116735,13.3563559 C19.1262545,17.7590395 19.6069427,24.8757062 20.2078028,28.6752825 C22.6713295,44.2957627 30.2421675,45.9241525 33.3666403,45.9241525 C36.3108551,45.9241525 43.461091,44.235452 46.5855638,28.554661 L46.5855638,28.554661 C47.4868541,23.8504237 47.9074562,17.3971751 44.6628113,13.4166667 C42.3795427,10.7629944 38.5941237,9.37584746 33.3666403,9.37584746 Z" id="Shape"></path>
                        <path d="M14.8711452,21 L11.8645833,21 L11.8645833,16.9568966 C13.3678643,7.30172414 22.5078125,0 33.1510417,0 C43.7942708,0 52.8740878,7.30172414 54.4375,16.9568966 L54.4375,20.8793103 L51.4309381,20.8793103 L51.4309381,17.3189655 C50.1080508,9.17241379 42.2909899,3.01724138 33.2111729,3.01724138 C24.1313559,3.01724138 16.2541637,9.17241379 14.9312765,17.3189655 L14.9312765,21 L14.8711452,21 Z" id="Shape"></path>
                        <path d="M50.1079921,37.1 C48.8729866,37.0788942 47.6634299,36.7404154 46.5924318,36.1162162 L48.1077595,33.4722973 C48.7113111,33.8406473 49.4036572,34.0321897 50.1079921,34.0256757 C53.4417132,34.0256757 54.8358147,32.3040541 54.8358147,28.122973 C54.8358147,23.8189189 53.5629394,22.2202703 50.1079921,22.2202703 C49.4954525,22.2091694 48.8903114,22.3573427 48.350212,22.6506757 C43.1980976,25.2331081 39.2582455,23.45 37.6823046,22.4047297 C31.5766647,24.8211927 24.8141282,24.908581 18.649788,22.6506757 L18.5285618,22.5891892 C17.9884624,22.2958562 17.3833213,22.1476829 16.7707816,22.1587838 C13.3158344,22.1587838 12.0429591,23.7574324 12.0429591,28.0614865 C12.0429591,32.2425676 13.3764475,33.9641892 16.7707816,33.9641892 C17.4019471,33.9687014 18.0251564,33.8211906 18.5891749,33.5337838 L19.9832765,36.3006757 C19.0072348,36.8094747 17.9286418,37.0830083 16.8313947,37.1 C13.3158344,37.1 9.07291667,35.5628378 9.07291667,28.122973 C9.07291667,22.1587838 11.6792804,19.1459459 16.8313947,19.1459459 C17.8844848,19.1490108 18.9222977,19.4016748 19.8620502,19.8837838 C20.5287945,20.1297297 28.8327905,23.1425676 37.2580128,19.3304054 L38.1672095,18.9 L38.8945668,19.5763514 C39.015793,19.6993243 42.1676747,22.3432432 47.0773366,19.9452703 C48.0361561,19.4559617 49.0952989,19.2031607 50.1686053,19.2074324 C55.3207196,19.2074324 57.9270833,22.2202703 57.9270833,28.1844595 C57.8664702,35.5628378 53.6235525,37.1 50.1079921,37.1 Z" id="Shape"></path>
                        <path d="M33.4086877,58.0999923 C30.8405303,58.1032144 28.3766273,57.0889929 26.5606644,55.2811262 C24.7447014,53.4732595 23.7259379,51.0203415 23.7291744,48.463634 L23.7291667,44.1 L26.7730465,44.1 L26.7730465,48.463634 C26.7830801,52.1079129 29.7480884,55.059702 33.4086877,55.069691 C37.1465939,55.0599992 40.1837032,52.0634265 40.2269612,48.3424219 L40.2269612,44.160606 L43.2708333,44.160606 L43.2708333,48.3424219 C43.1820471,53.7178938 38.8086791,58.044888 33.4086877,58.0999923 L33.4086877,58.0999923 Z" id="Shape"></path>
                        <path d="M42.6427083,49.7 L41.1770833,49.4358491 L41.7354167,46.2 C42.2239583,46.2660377 42.7822917,46.3981132 43.2708333,46.4641509 L42.6427083,49.7 Z" id="Shape"></path>
                        <path d="M67,70 L0,70 L0,64.7935233 L0.0604147881,64.6139896 C2.47700631,55.9963731 12.3246168,49.0544041 25.0721371,46.9 L25.5554554,49.8323834 C14.0162308,51.8072539 5.19567178,57.8515544 3.0207394,65.2722798 L3.0207394,67.0676166 L63.9792606,67.0676166 L63.9792606,64.9132124 C62.1064022,59.2279793 56.1253381,54.2010363 47.9693417,51.5080311 L48.9359784,48.6953368 C58.2398557,51.8072539 64.8250676,57.492487 66.9395852,64.2549223 L67,64.4943005 L67,70 Z" id="Shape"></path>
                        <path d="M49.9909794,44.1 L47.4583333,42.6909677 C48.6671361,40.2446258 49.5942675,37.6637968 50.2212199,35 L53.0416667,35.6458065 C52.34424,38.5733279 51.3206872,41.4098407 49.9909794,44.1 L49.9909794,44.1 Z" id="Shape"></path>
                        <path d="M45.4149415,53.1988573 C44.4604506,53.2036728 43.5321123,52.8821451 42.7792768,52.2860013 L42.7792768,52.2860013 C40.9641872,50.8119884 40.6445659,48.1330466 42.0604592,46.2611517 L44.0971092,43.6442978 C45.5362053,41.7789191 48.1912666,41.4519596 50.0273546,42.9140132 C51.8634426,44.3760669 52.1852683,47.0734838 50.7461724,48.9388626 L48.7095224,51.5557165 C48.0155012,52.4425043 47.0023724,53.0118994 45.8941533,53.1380003 C45.7387526,53.1847055 45.5768768,53.2052628 45.4149415,53.1988573 L45.4149415,53.1988573 Z M44.6362224,49.8517186 C44.8903151,50.0617858 45.2161986,50.160583 45.5420514,50.1263363 C45.8679042,50.0920897 46.1669799,49.9276101 46.3733651,49.6691474 L48.4100151,47.0522936 C48.6167836,46.7941474 48.7140295,46.4630651 48.6803206,46.132014 C48.6466117,45.800963 48.4847149,45.4971162 48.2303106,45.2874386 C47.6920584,44.8822289 46.9383756,44.9614398 46.493168,45.4700098 L44.456518,48.0868637 C44.2497494,48.3450099 44.1525036,48.6760922 44.1862125,49.0071432 C44.2199214,49.3381943 44.3818182,49.6420411 44.6362224,49.8517186 L44.6362224,49.8517186 Z" id="Shape"></path>
                        <polygon id="Rectangle-path" points="31.40625 56.7 34.1979167 56.7 34.1979167 68.6 31.40625 68.6"></polygon>
                    </g>
                </g>
            </g>
        </g>
    </g>
</svg>