<?xml version="1.0" encoding="utf-8"?>
<!-- Generator: Adobe Illustrator 21.1.0, SVG Export Plug-In . SVG Version: 6.00 Build 0)  -->
<svg version="1.1" id="圖層_1" xmlns="http://www.w3.org/2000/svg" xmlns:xlink="http://www.w3.org/1999/xlink" x="0px" y="0px"
	 viewBox="0 0 40 40" style="enable-background:new 0 0 40 40;" xml:space="preserve">
<style type="text/css">
	.st0{fill:#E6193C;}
	.st1{fill:#FFFFFF;}
</style>
<title>Group 19</title>
<desc>Created with Sketch.</desc>
<path id="Rectangle-4-Copy-3" class="st0" d="M6.3,0h27.5C37.2,0,40,2.8,40,6.3v27.5c0,3.5-2.8,6.3-6.3,6.3H6.3
	C2.8,40,0,37.2,0,33.7V6.3C0,2.8,2.8,0,6.3,0z"/>
<path class="st1" d="M15.7,15.7c1.3-1.3,1.3-3.4,0-4.7c-1.3-1.3-3.4-1.3-4.7,0s-1.3,3.4,0,4.7C12.3,17,14.4,17,15.7,15.7z M29,24.4
	c-1.3-1.3-3.4-1.3-4.7,0c-1.3,1.3-1.3,3.4,0,4.7c1.3,1.3,3.4,1.3,4.7,0C30.3,27.8,30.3,25.7,29,24.4z M28.9,12.3l-1.2-1.2
	c-0.7-0.7-1.7-0.7-2.4,0L11.1,25.4c-0.7,0.7-0.7,1.7,0,2.4l1.2,1.2c0.7,0.7,1.7,0.7,2.4,0l14.3-14.3C29.6,14,29.6,13,28.9,12.3z"/>
</svg>
