<?xml version="1.0" encoding="utf-8"?>
<!-- Generator: Adobe Illustrator 21.1.0, SVG Export Plug-In . SVG Version: 6.00 Build 0)  -->
<svg version="1.1" id="圖層_1" xmlns="http://www.w3.org/2000/svg" xmlns:xlink="http://www.w3.org/1999/xlink" x="0px" y="0px"
	 viewBox="0 0 40 40" style="enable-background:new 0 0 40 40;" xml:space="preserve">
<style type="text/css">
	.st0{fill:#FFBC25;}
	.st1{fill:#FFFFFF;}
</style>
<title>Group 19</title>
<desc>Created with Sketch.</desc>
<path id="Rectangle-4-Copy-3" class="st0" d="M6.3,0h27.5C37.2,0,40,2.8,40,6.3v27.5c0,3.5-2.8,6.3-6.3,6.3H6.3
	C2.8,40,0,37.2,0,33.7V6.3C0,2.8,2.8,0,6.3,0z"/>
<g>
	<path class="st1" d="M19.5,33L19.5,33c-1.9,0-3.2-1.4-3.2-3.2c0-1.7,1.4-3.1,3.1-3.1h0.2c1.9,0,3.1,1.4,3.1,3.2
		C22.6,31.9,21.2,33,19.5,33z"/>
	<path class="st1" d="M27.2,17.8c-0.5,0.7-1.4,1.4-2.6,2.2l-1.4,0.9c-0.7,0.5-1.2,1-1.4,1.5c-0.2,0.3-0.2,0.5-0.2,1.4V24h-5v-0.3
		c0-1.7,0.2-2.7,0.9-3.6c1.2-1.4,3.6-2.9,3.8-3.1c0.3-0.3,0.7-0.5,0.9-0.9c0.5-0.7,0.7-1.4,0.7-1.9c0-0.9-0.2-1.5-0.7-2.1
		c-0.5-0.7-1.2-0.9-2.4-0.9s-2.1,0.3-2.6,1.2c-0.5,0.9-0.7,1.7-0.7,2.6v0.2h-5.1v-0.2c0.2-3.1,1.2-5.5,3.4-6.8
		C16.2,7.4,17.8,7,19.7,7c2.6,0,4.6,0.7,6.3,1.9c1.7,1.2,2.6,3.1,2.6,5.5C28.4,15.4,27.9,16.8,27.2,17.8z"/>
</g>
</svg>
