<?xml version="1.0" encoding="UTF-8"?>
<svg width="20px" height="20px" viewBox="0 0 20 20" version="1.1" xmlns="http://www.w3.org/2000/svg" xmlns:xlink="http://www.w3.org/1999/xlink">
    <!-- Generator: Sketch 52.6 (67491) - http://www.bohemiancoding.com/sketch -->
    <title>Group 3</title>
    <desc>Created with Sketch.</desc>
    <defs>
        <polygon id="path-1" points="0 0.246987736 17.2498904 0.246987736 17.2498904 9.49152542 0 9.49152542"></polygon>
    </defs>
    <g id="Symbols" stroke="none" stroke-width="1" fill="none" fill-rule="evenodd">
        <g id="icon_會員" transform="translate(-4.000000, 0.000000)">
            <g id="Group-6">
                <g transform="translate(5.500000, 0.000000)">
                    <path d="M8.62369492,1.01694915 C6.27555932,1.01694915 4.29149153,2.97932203 4.29149153,5.30169492 C4.29149153,7.66440678 6.21352542,9.58644068 8.57623729,9.58644068 C10.9389492,9.58644068 12.8609831,7.66440678 12.8609831,5.30169492 C12.8609831,2.93898305 10.9603051,1.01694915 8.62369492,1.01694915 M8.57623729,10.6033898 C5.65284746,10.6033898 3.27454237,8.22508475 3.27454237,5.30169492 C3.27454237,2.37830508 5.67420339,0 8.62369492,0 C11.5209831,0 13.8779322,2.37830508 13.8779322,5.30169492 C13.8779322,8.22508475 11.4992881,10.6033898 8.57623729,10.6033898" id="Fill-1" fill="#333333"></path>
                    <g id="Group-5" transform="translate(0.000000, 10.460983)">
                        <mask id="mask-2" fill="white">
                            <use xlink:href="#path-1"></use>
                        </mask>
                        <g id="Clip-4"></g>
                        <path d="M1.02538983,8.47457627 L16.2274237,8.47457627 C16.2325085,8.43084746 16.2352203,8.37288136 16.2311525,8.29694915 C16.2308136,8.28847458 16.2304746,8.27966102 16.2304746,8.27118644 L16.2304746,5.70847458 C16.2304746,3.90338983 15.0708136,2.28440678 13.3440339,1.68 L12.1704746,1.30474576 C11.9047119,1.2159322 11.5996271,1.27661017 11.3487797,1.46440678 L8.92742373,3.26881356 C8.74742373,3.40305085 8.4999661,3.40305085 8.3199661,3.26881356 L5.89962712,1.46542373 C5.60437288,1.2440678 5.25081356,1.27152542 5.05318644,1.31220339 L3.89047458,1.68440678 C2.17555932,2.26983051 1.01691525,3.88847458 1.01691525,5.70847458 L1.01691525,8.22372881 C1.01691525,8.3420339 1.02064407,8.42169492 1.02538983,8.47457627 M16.501661,9.49152542 L0.745728814,9.49152542 C0.628779661,9.49152542 0.515220339,9.45118644 0.424711864,9.37728814 C0.0636949153,9.08338983 -3.38983051e-05,8.77118644 -3.38983051e-05,8.22372881 L-3.38983051e-05,5.70847458 C-3.38983051e-05,3.45322034 1.43522034,1.44813559 3.57115254,0.718983051 L4.76708475,0.335932203 C4.782,0.331525424 4.79657627,0.327118644 4.81183051,0.324067797 C5.43962712,0.185084746 6.04166102,0.301016949 6.50844068,0.650847458 L8.62369492,2.22677966 L10.7399661,0.649830508 C11.2565763,0.262711864 11.9084407,0.145423729 12.4864068,0.337966102 L13.6667458,0.71559322 C15.8138644,1.46711864 17.2474237,3.47186441 17.2474237,5.70847458 L17.2474237,8.25898305 C17.2891186,9.17118644 16.7897966,9.4159322 16.6887797,9.4559322 C16.6291186,9.47932203 16.5657288,9.49152542 16.501661,9.49152542" id="Fill-3" fill="#333333" mask="url(#mask-2)"></path>
                    </g>
                </g>
            </g>
        </g>
    </g>
</svg>