<svg id="圖層_1" data-name="圖層 1" xmlns="http://www.w3.org/2000/svg" viewBox="0 0 40 40"><title>icon</title><path d="M39,40H22.89a1,1,0,0,1-1-1V27.49a1,1,0,0,1,1-1H39a1,1,0,0,1,1,1V39A1,1,0,0,1,39,40ZM23.92,38H38V28.51h-14Z" style="fill:#d8d8d8"/><path d="M39,22.62H22.89a1,1,0,0,1-1-1V1a1,1,0,0,1,1-1H39a1,1,0,0,1,1,1V21.6A1,1,0,0,1,39,22.62Zm-15.06-2H38V2h-14Z" style="fill:#d8d8d8"/><path d="M17.11,13.53H1a1,1,0,0,1-1-1V1A1,1,0,0,1,1,0H17.11a1,1,0,0,1,1,1V12.51A1,1,0,0,1,17.11,13.53ZM2,11.49h14V2H2Z" style="fill:#d8d8d8"/><path d="M17.11,40H1a1,1,0,0,1-1-1V18.4a1,1,0,0,1,1-1H17.11a1,1,0,0,1,1,1V39A1,1,0,0,1,17.11,40ZM2,38h14V19.43H2Z" style="fill:#d8d8d8"/></svg>