<svg id="圖層_1" data-name="圖層 1" xmlns="http://www.w3.org/2000/svg" viewBox="0 0 40 40"><title>icon-product</title><path d="M37.27,32.73H30.91a7.27,7.27,0,0,1,0-14.55h6.36a.91.91,0,0,0,.91-.91V14.55a3.63,3.63,0,0,0-3.35-3.61L29.61,1.82A3.6,3.6,0,0,0,24.68.49L6.78,10.91H3.64A3.64,3.64,0,0,0,0,14.55V36.36A3.64,3.64,0,0,0,3.64,40H34.55a3.64,3.64,0,0,0,3.64-3.64V33.64A.91.91,0,0,0,37.27,32.73ZM30.74,7.45l2,3.46H24.8ZM25.59,2.06a1.76,1.76,0,0,1,1.35-.18A1.78,1.78,0,0,1,28,2.72h0L14,10.91H10.39ZM17.28,33.43a1.41,1.41,0,0,1-1,.4H9.86a1.39,1.39,0,0,1-1.39-1.4,1.4,1.4,0,0,1,.4-1,1.35,1.35,0,0,1,1-.42h2V21.83l-1.38.67a1.41,1.41,0,0,1-2.11-1.24,1.41,1.41,0,0,1,.85-1.32L12,18.47a1.52,1.52,0,0,1,.81-.2h.44a1.53,1.53,0,0,1,1.52,1.52V31h1.54a1.42,1.42,0,0,1,1.42,1.42A1.36,1.36,0,0,1,17.28,33.43Z" style="fill:#d8d8d8"/><path d="M37.27,20H30.91a5.45,5.45,0,1,0,0,10.91h6.36A2.73,2.73,0,0,0,40,28.18V22.73A2.73,2.73,0,0,0,37.27,20Zm-6.36,7.27a1.82,1.82,0,1,1,1.82-1.82A1.82,1.82,0,0,1,30.91,27.27Z" style="fill:#d8d8d8"/></svg>