<?xml version="1.0" encoding="UTF-8"?>
<svg width="30px" height="30px" viewBox="0 0 30 30" version="1.1" xmlns="http://www.w3.org/2000/svg" xmlns:xlink="http://www.w3.org/1999/xlink">
    <!-- Generator: Sketch 54.1 (76490) - https://sketchapp.com -->
    <title>rakutensvg</title>
    <desc>Created with Sketch.</desc>
    <g id="webBuy" stroke="none" stroke-width="1" fill="none" fill-rule="evenodd">
        <g transform="translate(-290.000000, -535.000000)" id="rakutensvg">
            <g transform="translate(290.000000, 535.000000)">
                <rect id="Rectangle" fill="#FFFFFF" x="0" y="0" width="30" height="30"></rect>
                <polygon id="Path" fill="#BF0000" fill-rule="nonzero" points="5.065 30 1.03 26.61 29.22 26.61"></polygon>
                <path d="M9.62,24.09 L9.62,16.63 L12.85,16.63 L18.47,24.09 L24.185,24.09 L17.435,15.08 C19.535,13.5625 20.9225,11.1075 20.9225,8.2975 C20.9225,3.7125 17.2075,0 12.6225,0 L5.065,0 L5.065,24.09 C5.065,24.09 9.62,24.09 9.62,24.09 Z M9.62,4.585 L12.6225,4.585 C14.69,4.585 16.3675,6.2325 16.3675,8.2975 C16.3675,10.3625 14.6875,12.0425 12.6225,12.0425 L9.62,12.0425006 C9.62,12.045 9.62,4.585 9.62,4.585 Z" id="Shape" fill="#BF0000" fill-rule="nonzero"></path>
            </g>
        </g>
    </g>
</svg>