<?xml version="1.0" encoding="utf-8"?>
<!-- Generator: Adobe Illustrator 21.1.0, SVG Export Plug-In . SVG Version: 6.00 Build 0)  -->
<svg version="1.1" id="圖層_1" xmlns="http://www.w3.org/2000/svg" xmlns:xlink="http://www.w3.org/1999/xlink" x="0px" y="0px"
	 viewBox="0 0 130 60" style="enable-background:new 0 0 130 60;" xml:space="preserve">
<style type="text/css">
	.st0{fill:#FFFFFF;}
	.st1{fill:#FBD100;}
	.st2{fill:#201816;}
	.st3{fill:#DB3412;}
	.st4{fill:#595959;}
</style>
<g>
	<polygon id="path-3" class="st0" points="122.1,52.2 129.5,52.2 129.5,59.4 122.1,59.4 	"/>
</g>
<title>logo</title>
<desc>Created with Sketch.</desc>
<g id="Symbols">
	<g id="nav-bar_x2F_mall" transform="translate(-170.000000, -20.000000)">
		<g id="nav-bar">
			<g id="logo" transform="translate(170.000000, 20.000000)">
				<path id="Fill-1" class="st1" d="M24.7,3.7L5.4,14.8c-1.1,0.6-1.8,1.8-1.8,3.1v22.2c0,1.3,0.7,2.4,1.8,3.1l19.4,11.1
					c1.1,0.6,2.5,0.6,3.6,0l19.4-11.1c1.1-0.6,1.8-1.8,1.8-3.1V17.9c0-1.3-0.7-2.4-1.8-3.1L28.3,3.7C27.2,3,25.8,3,24.7,3.7"/>
				<g id="Group-5" transform="translate(0.000000, 0.094678)">
					<g id="Clip-4">
					</g>
					<path id="Fill-3" class="st1" d="M26.5-0.1c-1.7,0-3.3,0.4-4.8,1.3L4.8,10.9c-3,1.7-4.8,4.9-4.8,8.2v19.4
						c0,3.4,1.8,6.6,4.8,8.2l16.9,9.7c1.5,0.8,3.1,1.3,4.8,1.3c1.7,0,3.3-0.4,4.8-1.3l16.9-9.7c3-1.7,4.8-4.9,4.8-8.2V19.1
						c0-3.4-1.8-6.6-4.8-8.2L31.3,1.2C29.8,0.3,28.2-0.1,26.5-0.1 M26.5,3.5c1,0,2.1,0.3,3,0.8L46.4,14c1.9,1.1,3,3,3,5.2v19.4
						c0,2.1-1.1,4.1-3,5.2l-16.9,9.7c-0.9,0.5-2,0.8-3,0.8s-2.1-0.3-3-0.8L6.6,43.8c-1.9-1.1-3-3-3-5.2V19.2c0-2.1,1.1-4.1,3-5.2
						l16.9-9.7C24.4,3.7,25.5,3.5,26.5,3.5"/>
				</g>
				<path id="Fill-6" class="st2" d="M26.5,2.1c-1.3,0-2.6,0.3-3.7,1L5.9,12.8c-2.3,1.3-3.7,3.8-3.7,6.4v19.4c0,2.6,1.4,5.1,3.7,6.4
					l16.9,9.7c1.1,0.6,2.4,1,3.7,1s2.6-0.3,3.7-1L47.1,45c2.3-1.3,3.7-3.8,3.7-6.4V19.2c0-2.6-1.4-5.1-3.7-6.4L30.2,3.1
					C29.1,2.5,27.8,2.1,26.5,2.1 M26.5,3.5c1,0,2.1,0.3,3,0.8L46.4,14c1.9,1.1,3,3,3,5.2v19.4c0,2.1-1.1,4.1-3,5.2l-16.9,9.7
					c-0.9,0.5-2,0.8-3,0.8s-2.1-0.3-3-0.8L6.6,43.9c-1.9-1.1-3-3-3-5.2V19.3c0-2.1,1.1-4.1,3-5.2l16.9-9.7
					C24.4,3.8,25.5,3.5,26.5,3.5"/>
				<path id="Fill-8" class="st2" d="M37.5,43.2c-0.4,0-0.8-0.4-0.8-0.8v-8.9c0-0.4,0.4-0.8,0.8-0.8s0.8,0.4,0.8,0.8v8.9
					C38.3,42.8,37.9,43.2,37.5,43.2"/>
				<path id="Fill-10" class="st2" d="M34,43.2c-0.3,0-0.6-0.2-0.7-0.5l-3.6-7.5L26,42.7c-0.2,0.4-0.7,0.6-1.1,0.4
					c-0.4-0.2-0.6-0.7-0.4-1.1l4.4-8.9c0.1-0.3,0.4-0.5,0.7-0.5s0.6,0.2,0.7,0.5l4.4,8.9c0.2,0.4,0,0.9-0.4,1.1
					C34.2,43.2,34.1,43.2,34,43.2"/>
				<path id="Fill-12" class="st2" d="M15.3,43.2c-0.4,0-0.8-0.4-0.8-0.8v-8.9c0-0.4,0.4-0.8,0.8-0.8c0.4,0,0.8,0.4,0.8,0.8v8.9
					C16.1,42.8,15.8,43.2,15.3,43.2"/>
				<path id="Fill-14" class="st2" d="M22.4,43.1c-0.2,0-0.4-0.1-0.6-0.3l-4.1-4.4c-0.3-0.3-0.3-0.8,0-1.1l3.9-4.2
					c0.3-0.3,0.8-0.3,1.1,0c0.3,0.3,0.3,0.8,0,1.1L19.4,38l3.6,3.8c0.3,0.3,0.3,0.8,0,1.1C22.8,43.1,22.6,43.1,22.4,43.1"/>
				<path id="Fill-16" class="st2" d="M15.4,21.2H6.6c-0.4,0-0.8-0.4-0.8-0.8s0.4-0.8,0.8-0.8h8.8c0.4,0,0.8,0.4,0.8,0.8
					S15.8,21.2,15.4,21.2"/>
				<path id="Fill-18" class="st2" d="M11.1,29.9c-0.4,0-0.8-0.4-0.8-0.8v-8.5c0-0.4,0.4-0.8,0.8-0.8c0.4,0,0.8,0.4,0.8,0.8v8.5
					C11.9,29.5,11.5,29.9,11.1,29.9"/>
				<path id="Fill-20" class="st2" d="M28.2,29.9c-0.4,0-0.8-0.4-0.8-0.8v-8.9c0-0.4,0.4-0.8,0.8-0.8s0.8,0.4,0.8,0.8v8.9
					C29,29.5,28.7,29.9,28.2,29.9"/>
				<path id="Fill-22" class="st2" d="M43,30.1h-1.2c-2.2,0-4-1.8-4-4v-6c0-0.4,0.4-0.8,0.8-0.8c0.4,0,0.8,0.4,0.8,0.8v6
					c0,1.3,1.1,2.3,2.4,2.3H43c1.3,0,2.4-1.1,2.4-2.3v-6c0-0.4,0.4-0.8,0.8-0.8c0.4,0,0.8,0.4,0.8,0.8v6C47,28.3,45.2,30.1,43,30.1"
					/>
				<path id="Fill-24" class="st2" d="M35.4,29.8c-0.2,0-0.4-0.1-0.6-0.3l-4.1-4.4c-0.3-0.3-0.3-0.8,0-1.1l3.9-4.2
					c0.3-0.3,0.8-0.3,1.1,0s0.3,0.8,0,1.1l-3.4,3.6l3.6,3.8c0.3,0.3,0.3,0.8,0,1.1C35.8,29.8,35.6,29.8,35.4,29.8"/>
				<path id="Fill-26" class="st3" d="M20.7,20.9l-3.1,1.8c-0.1,0.1-0.1,0.1-0.1,0.3v3.6c0,0.1,0.1,0.2,0.1,0.3l3.1,1.8
					c0.1,0.1,0.2,0.1,0.3,0l3.1-1.8c0.1-0.1,0.1-0.1,0.1-0.3V23c0-0.1-0.1-0.2-0.1-0.3L21,20.9C20.9,20.9,20.7,20.9,20.7,20.9
					 M20.8,30.2c-0.3,0-0.7-0.1-1-0.3l-3.1-1.8c-0.6-0.3-1-1-1-1.6V23c0-0.7,0.4-1.3,1-1.6l3.1-1.8c0.6-0.3,1.3-0.3,1.9,0l3.1,1.8
					c0.6,0.3,1,1,1,1.6v3.6c0,0.7-0.4,1.3-1,1.6l-3,1.8C21.5,30.1,21.1,30.2,20.8,30.2"/>
				<path id="Fill-28" class="st3" d="M22,28.9v-4.8c0-0.1-0.1-0.2-0.1-0.2L18,21.5l1.2-0.7l4,2.3c0.1,0,0.1,0.1,0.1,0.2V28L22,28.9
					z"/>
				<path id="Fill-30" class="st4" d="M45.3,56.2C45.4,56.2,45.4,56.2,45.3,56.2c0.1-0.2,0.4-1.5,0.4-1.5s0-0.1-0.1-0.1
					c-0.3,0-0.8,0-1.1,0c-0.1,0-0.1,0-0.1,0.1l-0.3,1.4c0,0,0,0,0,0.1c0,0,0,0.1,0.1,0.1L45.3,56.2L45.3,56.2z M45.9,56.6
					C45.8,56.6,45.8,56.6,45.9,56.6c-0.2,0.8-0.4,1.6-0.4,1.9c0,0.2-0.1,0.2-0.3,0.2c-0.1,0-0.2-0.1-0.2-0.2c0,0,0,0,0-0.1
					c0.1-0.5,0.4-1.8,0.4-1.8s0,0-0.1,0h-1.1c-0.1,0-0.1,0-0.1,0.1c-0.1,0.7-0.3,1.5-0.3,1.8c0,0.2-0.1,0.2-0.3,0.2
					c-0.1,0-0.2-0.1-0.2-0.2c0,0,0,0,0-0.1c0.1-0.3,0.4-1.7,0.4-1.8v-0.1c-0.1,0-0.4,0-0.5,0c0,0-0.3,0-0.3-0.2
					c0-0.1,0.1-0.2,0.2-0.2l0,0c0.1,0,0.4,0,0.6,0c0.1,0,0.1,0,0.1-0.1c0-0.2,0.3-1.4,0.3-1.5c0,0,0,0-0.1,0s-0.4,0-0.5,0
					c0,0-0.3,0-0.3-0.2c0-0.1,0.1-0.2,0.2-0.2l0,0c0.1,0,0.4,0,0.6,0c0.1,0,0.1,0,0.1-0.1l0.3-1.4c0-0.1,0.1-0.2,0.3-0.2
					c0.1,0,0.2,0.1,0.2,0.2L44.6,54l0,0c0,0,0,0,0.1,0h1.1c0,0,0.1,0,0.1-0.1l0.3-1.4c0-0.1,0.1-0.2,0.3-0.2c0.1,0,0.2,0.1,0.2,0.2
					c0,0,0,0-0.3,1.4l0,0c0,0,0,0,0.1,0H47l0,0c0.2,0,0.3,0.1,0.3,0.2c0,0.1-0.1,0.2-0.3,0.2h-0.4c-0.2,0-0.2,0-0.3,0.1L46,55.8l0,0
					c0,0,0,0.1,0.1,0.1h0.5l0,0c0.2,0,0.3,0.1,0.3,0.2s-0.1,0.2-0.3,0.2h-0.7V56.6z"/>
				<path id="Fill-32" class="st4" d="M52.6,55c-0.1,0-0.2-0.1-0.2-0.2c0-0.1,0.1-0.2,0.2-0.2h2c0.1,0,0.2,0.1,0.2,0.2
					c0,0.1-0.1,0.2-0.2,0.2H52.6z M53.3,56.1c-0.1,0.2-0.1,0.5-0.2,0.8c0.4,0,1,0,1.3,0l0,0c0.5,0,0.7,0.3,0.7,0.6
					c0,0.2-0.1,0.7-0.3,1c-0.2,0.5-0.7,0.7-1.2,0.7c-0.3,0-0.6-0.1-1-0.2c-0.1,0-0.1-0.1-0.1-0.2c0-0.1,0.1-0.2,0.2-0.2h0.1
					c0.3,0.1,0.6,0.2,0.8,0.2c0.9,0,1-1.2,1-1.2c0-0.2-0.1-0.3-0.4-0.3c-0.3,0-0.9,0-1.4,0c-0.1,0.4-0.2,0.5-0.4,0.5
					c-0.1,0-0.2-0.1-0.2-0.2c0,0,0,0,0-0.1c0.2-0.5,0.4-0.9,0.5-1.4h-1.2c-0.1,0-0.2-0.1-0.2-0.2c0-0.1,0.1-0.2,0.2-0.2h4.1
					c0.1,0,0.2,0.1,0.2,0.2c0,0.1-0.1,0.2-0.2,0.2L53.3,56.1z M54.3,53.3c0.4,0.7,1,1.2,1.7,1.5c0.1,0,0.2,0.1,0.2,0.2
					c0,0.1-0.1,0.2-0.2,0.2c-0.2,0-1.5-0.7-2.1-1.9h-0.6c-0.6,1.3-1.7,2.1-2,2.1c-0.1,0-0.2-0.1-0.2-0.2c0-0.1,0-0.1,0.1-0.2
					c0.8-0.4,1.3-1,1.6-1.7h-1.2c-0.1,0-0.2-0.1-0.2-0.2c0-0.1,0.1-0.2,0.2-0.2H53c0.1-0.3,0.2-0.6,0.2-0.9c0-0.1,0.1-0.2,0.2-0.2
					c0.1,0,0.3,0.1,0.3,0.2c0,0.1-0.1,0.6-0.2,0.9l0,0h2.3c0.1,0,0.2,0.1,0.2,0.2c0,0.1-0.1,0.2-0.2,0.2L54.3,53.3z M49.9,52.5
					c-0.8,0-0.9,0-0.9,0.8s0,0.8,0.8,0.8c1,0,1,0,1-0.8C50.7,52.6,50.7,52.5,49.9,52.5z M49.8,54.5c-0.7,0-1.2,0-1.2-0.6
					c0-0.2,0-0.3,0-0.5s0-0.4,0-0.6c0-0.3,0.2-0.6,0.7-0.6c0.2,0,0.4,0,0.6,0c0.2,0,0.4,0,0.6,0c0.4,0,0.7,0.3,0.7,0.6
					c0,0.2,0,0.5,0,0.7c0,0.6,0,1-0.8,1.1h-0.1v1.3h0.9c0.1,0,0.2,0.1,0.2,0.2c0,0.1-0.1,0.2-0.2,0.2h-0.9v1.6
					c0.4-0.1,0.8-0.3,1.1-0.4h0.1c0.1,0,0.2,0.1,0.2,0.2c0,0.1,0,0.2-0.1,0.2c-1,0.4-2.9,1.1-3.1,1.1c-0.1,0-0.2-0.1-0.2-0.2
					c0-0.2,0-0.2,0.5-0.3v-2.8c0-0.1,0.1-0.2,0.2-0.2c0.1,0,0.2,0.1,0.2,0.2v2.7c0.2-0.1,0.5-0.1,0.7-0.2v-3.7H49.8z"/>
				<path id="Fill-34" class="st4" d="M61.1,56.2c0,0.1,0,0.2,0,0.3c0,0.2,0.1,0.3,0.5,0.4c0.3,0,0.6,0,1,0s0.8,0,1.1,0
					s0.4-0.1,0.4-0.4c0-0.1,0-0.2,0-0.3H61.1z M64.1,55.8c0-0.1,0-0.2,0-0.3c0-0.3-0.2-0.3-1.3-0.3c-0.4,0-0.9,0-1.2,0
					s-0.4,0.1-0.5,0.3c0,0.1,0,0.2,0,0.3H64.1z M65,57.7c0.1,0,0.2,0.1,0.2,0.2V58c0,1.1-0.5,1.2-1.4,1.2c-0.7,0-1-0.2-1-0.8
					c0-0.3,0-0.9,0-1.2c-0.5,0-1.1,0-1.5,0c-0.8,0-0.8-0.4-0.8-1.1c0-0.7,0-1.1,0.8-1.1c0.4,0,0.9,0,1.3,0c0.3,0,0.7,0,1,0
					c0.6,0,0.8,0.3,0.8,0.6c0,0.2,0,0.4,0,0.6c0,0.6,0,1-0.8,1c-0.1,0-0.3,0-0.4,0c0,0.4,0,0.9,0,1.2c0,0.4,0.2,0.5,0.6,0.5
					c0.6,0,0.9,0,0.9-0.9v-0.1C64.8,57.7,64.9,57.7,65,57.7z M60.6,53.1c-0.1,0-0.2-0.1-0.2-0.2c0-0.1,0.1-0.2,0.2-0.2h1.7v-0.6
					c0-0.1,0.1-0.2,0.3-0.2c0.1,0,0.2,0.1,0.2,0.2v0.6h1.8c0.1,0,0.2,0.1,0.2,0.2c0,0.1-0.1,0.2-0.2,0.2H60.6z M60.3,54.4
					c-0.1,0-0.2-0.1-0.2-0.2c0-0.1,0.1-0.2,0.2-0.2h1.3c-0.1-0.2-0.2-0.4-0.3-0.6c0,0,0,0,0-0.1s0.1-0.2,0.2-0.2
					c0.3,0,0.5,0.6,0.6,0.7c0,0,0,0,0,0.1H63c0.1-0.2,0.2-0.5,0.3-0.7c0-0.1,0.1-0.1,0.2-0.1c0.1,0,0.3,0.1,0.3,0.2
					c0,0.1-0.2,0.5-0.3,0.6H65c0.1,0,0.2,0.1,0.2,0.2c0,0.1-0.1,0.2-0.2,0.2L60.3,54.4L60.3,54.4z M59.5,59.3L59.5,59.3
					c-0.2,0-0.3-0.1-0.3-0.2c0-0.1,0.1-0.2,0.2-0.2c1.2-0.1,2-0.5,2.4-1.4c0-0.1,0.1-0.2,0.2-0.2c0.1,0,0.2,0.1,0.2,0.2
					C62.2,57.5,61.9,59,59.5,59.3z M58.6,54.3h-0.9c-0.1,0-0.2-0.1-0.2-0.2c0-0.1,0.1-0.2,0.2-0.2h0.9v-1.7c0-0.1,0.1-0.2,0.2-0.2
					c0.1,0,0.2,0.1,0.2,0.2v1.7h0.8c0.1,0,0.2,0.1,0.2,0.2c0,0.1-0.1,0.2-0.2,0.2H59v2.3c0.3-0.1,0.6-0.3,0.9-0.4H60
					c0.1,0,0.2,0.1,0.2,0.2c0,0.1,0,0.1-0.1,0.2c-0.8,0.4-2.3,0.9-2.5,0.9s-0.2-0.1-0.2-0.2c0-0.1,0.1-0.2,0.2-0.2
					c0.4-0.1,0.7-0.2,1.1-0.3L58.6,54.3z"/>
				<path id="Fill-36" class="st4" d="M73.6,55.8c0-0.6,0-1.1,0-1.6c0-0.4-0.3-0.5-0.6-0.5c-0.3,0-0.6,0-0.9,0s-0.6,0-0.9,0
					c-0.4,0-0.6,0.2-0.6,0.5c0,0.4,0,1,0,1.6H73.6z M70.5,56.2c0,0.7,0,1.4,0,1.9s0.3,0.6,1.6,0.6c0.9,0,1.4,0,1.4-0.6
					c0-0.5,0-1.2,0-1.9H70.5z M73,53.3c0.6,0,1,0.3,1,0.8c0,0.6,0,1.4,0,2.1c0,0.7,0,1.4,0,2c0,0.5-0.4,0.8-1,0.8
					c-0.3,0-0.7,0-1.1,0c-0.3,0-0.6,0-0.9,0c-0.7,0-1-0.4-1-0.8c0-0.6,0-1.2,0-1.9c0-0.8,0-1.6,0-2.3c0-0.4,0.4-0.8,0.9-0.8
					c0.2,0,0.3,0,0.5,0c0.1-0.4,0.3-0.9,0.3-1.2c0-0.1,0.1-0.2,0.3-0.2c0.2,0,0.3,0.1,0.3,0.2c0,0.2-0.4,1.1-0.4,1.2
					C72.9,53.3,72.9,53.3,73,53.3z M68,56.3c-0.9,0.3-1,0.3-1.1,0.3c-0.2,0-0.2-0.1-0.2-0.2c0-0.1,0.1-0.2,0.2-0.2
					c0.4-0.1,0.8-0.2,1.1-0.4V54h-1.1c-0.1,0-0.2-0.1-0.2-0.2s0.1-0.2,0.2-0.2H68V52c0-0.2,0.1-0.2,0.2-0.2s0.2,0.1,0.2,0.2v1.6h0.8
					c0.1,0,0.2,0.1,0.2,0.2S69.3,54,69.2,54h-0.8v1.6c0.3-0.1,0.5-0.2,0.8-0.4h0.1c0.1,0,0.2,0.1,0.2,0.2c0,0.1-0.1,0.2-1.1,0.6
					c0,0.6,0,1.1,0,1.2c0,0.1,0,0.7,0,1.1l0,0c0,0.5-0.2,0.8-0.9,0.8c-0.6,0-0.7-0.1-0.7-0.3c0-0.1,0.1-0.2,0.2-0.2l0,0
					c0.2,0,0.3,0.1,0.5,0.1c0.3,0,0.4-0.1,0.4-0.4v-2H68z"/>
				<path id="Fill-38" class="st4" d="M82.1,55c0.4,0,0.5-0.1,0.5-0.4c0-0.2,0-0.4-0.5-0.4c-0.3,0-0.7,0-1.1,0V55H82.1z M83.1,59.3
					c-0.2,0-1.4-0.1-2.5-0.6c-0.1,0-0.1-0.1-0.1-0.2c0-0.1,0.1-0.2,0.2-0.2h0.1c0.7,0.3,1.6,0.5,2.3,0.5c0.2,0,0.2,0.1,0.2,0.2
					C83.4,59.2,83.3,59.3,83.1,59.3z M79.1,55h1.4v-0.8h-1.4V55z M81.8,56.4c0-0.2-0.2-0.4-0.5-0.4c-0.5,0-1.2,0-1.9,0
					c-0.4,0-0.8,0-1.1,0c-0.4,0-0.5,0.2-0.6,0.4l0,0H81.8L81.8,56.4z M81.8,57.5h-4.1v0.1c0,0.3,0.2,0.4,0.6,0.4c0.5,0,1.1,0,1.7,0
					c0.4,0,0.9,0,1.2,0C81.6,57.9,81.8,57.8,81.8,57.5L81.8,57.5z M77.7,56.7c0,0.1,0,0.3,0,0.5h4.1c0-0.1,0-0.2,0-0.2
					c0-0.1,0-0.2,0-0.2L77.7,56.7L77.7,56.7z M81.4,58.3c-0.4,0-0.9,0-1.4,0c-0.6,0-1.3,0-1.8,0c-0.6,0-0.9-0.3-0.9-0.6
					c0-0.2,0-0.4,0-0.6c0-0.2,0-0.5,0-0.7c0-0.3,0.3-0.6,0.9-0.6c0.4,0,0.8,0,1.2,0c0.7,0,1.4,0,2.1,0c0.5,0,0.8,0.3,0.8,0.6
					c0,0.2,0,0.4,0,0.7c0,0.2,0,0.4,0,0.6C82.3,58,82,58.2,81.4,58.3z M78.6,54.2c-0.4,0-0.8,0-1,0c-0.4,0-0.5,0.1-0.5,0.4
					c0,0.3,0.1,0.4,0.5,0.4h1V54.2z M82.1,55.3c-0.6,0-1.4,0-2.2,0c-0.8,0-1.7,0-2.4,0c-0.9,0-0.9-0.3-0.9-0.7s0-0.7,0.9-0.7
					c0.6,0,1.5,0,2.3,0c0.9,0,1.7,0,2.3,0c0.8,0,0.8,0.3,0.8,0.7C83,55.1,82.9,55.3,82.1,55.3z M76.9,53.5c-0.1,0-0.2-0.1-0.2-0.2
					c0-0.1,0.1-0.2,0.2-0.2h2.6v-0.5h-3.2c-0.1,0-0.2-0.1-0.2-0.2c0-0.1,0.1-0.2,0.2-0.2h3.2v-0.4c0-0.1,0.1-0.2,0.2-0.2
					s0.2,0.1,0.2,0.2v0.4h3.2c0.1,0,0.2,0.1,0.2,0.2c0,0.1-0.1,0.2-0.2,0.2h-3.2v0.5h2.7c0.1,0,0.2,0.1,0.2,0.2
					c0,0.1-0.1,0.2-0.2,0.2H76.9z M78.6,58.4L78.6,58.4c0.2,0,0.3,0.1,0.3,0.2c0,0.1,0,0.1-0.1,0.2c-0.8,0.4-2,0.6-2.5,0.6
					c-0.2,0-0.3-0.1-0.3-0.2c0-0.1,0.1-0.2,0.2-0.2C77.1,58.9,77.9,58.7,78.6,58.4z"/>
				<path id="Fill-40" class="st4" d="M90.6,56.8v0.7h1.2c0-0.2,0-0.5,0-0.7H90.6z M91.9,56.5c0-0.1,0-0.2,0-0.3
					c0-0.4-0.3-0.4-1.2-0.4v0.7H91.9z M89.8,53.6H91V53h-1.2V53.6z M91,54h-1.2v0.6h0.6H91V54z M90.2,55.8c-0.9,0-1.2,0-1.2,0.4v0.3
					h1.2V55.8z M90.2,56.8H89v0.7h1.2V56.8z M92.3,57.9v0.3l0,0c0,0.4-0.1,1-1.1,1c-0.6,0-0.8-0.1-0.8-0.3c0-0.1,0.1-0.2,0.2-0.2
					l0,0c0.2,0,0.4,0.1,0.6,0.1c0.4,0,0.6-0.2,0.6-0.6v-0.3H89c0,0.5,0,0.9,0,1.3c0,0.1-0.1,0.2-0.2,0.2s-0.2-0.1-0.2-0.2
					c0-0.4,0-0.9,0-1.3h-0.5c-0.1,0-0.2-0.1-0.2-0.2c0-0.1,0.1-0.2,0.2-0.2h0.5v-1.4c0-0.4,0.3-0.7,0.9-0.7c0.2,0,0.5,0,0.7,0v-0.5
					h-0.7h-1.3c-0.1,0-0.2-0.1-0.2-0.2c0-0.1,0.1-0.2,0.2-0.2h1.2V54h-0.8c-0.1,0-0.2-0.1-0.2-0.2c0-0.1,0.1-0.2,0.2-0.2h0.8V53h-1
					c-0.1,0-0.2-0.1-0.2-0.2c0-0.1,0.1-0.2,0.2-0.2h1V52c0-0.1,0.1-0.2,0.2-0.2s0.2,0.1,0.2,0.2v0.6H91V52c0-0.1,0.1-0.2,0.2-0.2
					s0.2,0.1,0.2,0.2v0.6h1.1c0.1,0,0.2,0.1,0.2,0.2c0,0.1-0.1,0.2-0.2,0.2h-1.1v0.6h0.7c0.1,0,0.2,0.1,0.2,0.2
					c0,0.1-0.1,0.2-0.2,0.2h-0.7v0.6h1.4c0.1,0,0.2,0.1,0.2,0.2c0,0.1-0.1,0.2-0.2,0.2H91h-0.4v0.5c1.1,0,1.6,0,1.7,0.7
					c0,0.4,0,1,0,1.4h0.6c0.1,0,0.2,0.1,0.2,0.2c0,0.1-0.1,0.2-0.2,0.2h-0.6V57.9z M87.4,58.9c-0.1-0.4-0.4-0.8-0.6-1.1v-0.1
					c0-0.1,0.1-0.2,0.2-0.2c0.3,0,0.8,1,0.8,1.2c0,0.1-0.1,0.3-0.3,0.3C87.5,59,87.4,58.9,87.4,58.9z M87.2,53.7c0-0.3,0-0.6,0-0.9
					c0-0.3-0.2-0.4-0.6-0.4c-0.6,0-0.6,0.1-0.6,0.4c0,0.2,0,0.5,0,0.9H87.2z M85.9,55.6c0,0.3,0,0.7,0,0.9c0,0.3,0.1,0.4,0.6,0.4
					c0.7,0,0.7,0,0.7-1.3C87.2,55.6,85.9,55.6,85.9,55.6z M85.9,54.1v1.2h1.3c0-0.4,0-0.8,0-1.2H85.9z M86.5,57.3
					c-0.6,0-1-0.1-1-0.7v-3.8c0-0.6,0.5-0.7,1-0.7c0.6,0,1.1,0.1,1.1,0.6s0,1.1,0,1.7c0,0.7,0,1.5,0,2.1
					C87.6,57.2,87.1,57.3,86.5,57.3z M84.9,59c0-0.1,0-0.1,0.1-0.2c0.4-0.3,0.7-0.7,0.9-1.2c0-0.1,0.1-0.1,0.2-0.1s0.3,0.1,0.3,0.2
					c0,0.1-0.8,1.4-1.2,1.4C85,59.2,84.9,59.1,84.9,59z"/>
				<path id="Fill-42" class="st4" d="M100.7,53.8c-0.1,1.6-0.7,3.9-2.9,5.1c-0.1,0-0.1,0-0.2,0s-0.2-0.1-0.2-0.2
					c0-0.1,0-0.1,0.1-0.2c2.2-1.2,2.6-3.3,2.7-4.7c-0.2,0-0.5,0-0.8,0c-0.5,2.4-1.9,3.5-2.2,3.5c-0.1,0-0.2-0.1-0.2-0.2
					c0-0.1,0-0.1,0.1-0.2c1.1-0.8,1.6-2,1.9-3.1c-0.3,0-0.5,0-0.7,0c-0.2,0.4-0.4,0.9-0.6,1.1C97.5,55,97.5,55,97.4,55
					s-0.2-0.1-0.2-0.2c0,0,0-0.1,0.1-0.1c0.5-0.7,1-1.9,1.2-2.7c0-0.1,0.1-0.1,0.2-0.1S99,52,99,52.1c0,0.2-0.4,1.2-0.5,1.3h2.4
					c0.6,0,0.9,0.3,0.9,0.8c0,0.4,0,0.8,0,1.3c0,2.5-0.6,3.6-1.9,3.6c-0.2,0-0.5,0-0.7-0.1c-0.1,0-0.2-0.1-0.2-0.2
					c0-0.1,0.1-0.2,0.2-0.2h0.1c0.2,0.1,0.4,0.1,0.6,0.1c0.7,0,1.4-0.4,1.4-3.3c0-0.4,0-0.8,0-1.1C101.3,53.9,101.1,53.8,100.7,53.8
					L100.7,53.8z M95.8,56.5c-0.5,0.2-1.2,0.4-1.3,0.4c-0.2,0-0.2-0.1-0.2-0.2c0-0.1,0.1-0.2,0.2-0.2c0.5-0.1,1-0.3,1.4-0.4v-1.9
					h-0.8c-0.3,1.3-0.4,1.4-0.7,1.4c-0.1,0-0.2-0.1-0.2-0.2v-0.1c0.4-0.8,0.5-1.7,0.6-2.5c0-0.1,0.1-0.2,0.2-0.2s0.2,0.1,0.2,0.2
					c0,0.1,0,0.5-0.1,0.9h0.7V52c0-0.1,0.1-0.2,0.2-0.2s0.2,0.1,0.2,0.2v1.7H97c0.1,0,0.2,0.1,0.2,0.2c0,0.1-0.1,0.2-0.2,0.2h-0.8
					v1.7c0.3-0.1,0.6-0.2,0.9-0.4c0,0,0,0,0.1,0s0.2,0.1,0.2,0.2c0,0.1-0.1,0.2-1.1,0.6V59c0,0.1-0.1,0.2-0.2,0.2s-0.2-0.1-0.2-0.2
					L95.8,56.5z"/>
				<path id="Fill-44" class="st4" d="M107.7,59.2c-0.1,0-0.2-0.1-0.2-0.2c0-0.1,0-0.2,0.1-0.2c0.5-0.2,1-0.4,1.3-0.7
					c-0.7-0.7-0.9-1.3-0.9-1.4c0-0.1,0.1-0.2,0.2-0.2s0.1,0,0.1,0.1c0.2,0.5,0.5,0.9,0.8,1.2c0.5-0.6,0.7-1.1,0.7-1.3
					c0-0.1-0.1-0.2-0.3-0.2h-0.3c-0.5,0-1,0-1.6,0c-0.1,0-0.2-0.1-0.2-0.2c0-0.1,0.1-0.2,0.2-0.2c0.5,0,0.8,0,1.1,0
					c0.3,0,0.5,0,0.8,0c0.4,0,0.6,0.2,0.6,0.5c0,0.6-0.8,1.5-0.9,1.6c0.4,0.3,1,0.6,1.6,0.7c0.1,0,0.2,0.1,0.2,0.2
					c0,0.1-0.1,0.2-0.3,0.2c-0.1,0-1-0.2-1.8-0.9C108.4,59,107.7,59.2,107.7,59.2z M105.5,53.3c0,0.5,0,0.7,0.5,0.7
					c0.4,0,0.9,0,1.4,0s1.1,0,1.5,0s0.5-0.2,0.5-0.4c0-0.1,0-0.2,0-0.3H105.5z M109.5,53c0-0.4,0-0.6-0.5-0.6c-0.4,0-1,0-1.6,0
					s-1.1,0-1.4,0c-0.4,0-0.5,0.2-0.5,0.4c0,0.1,0,0.1,0,0.2C105.5,53,109.5,53,109.5,53z M106.8,57.2h-1.5v0.9
					c0.6-0.1,1.1-0.3,1.5-0.4V57.2z M105.2,56.9h1.5v-0.6h-1.5V56.9z M105.2,55.9h1.5v-0.6h-1.5V55.9z M109,54.3c-0.5,0-1,0-1.4,0
					c-0.6,0-1.1,0-1.7,0c-0.9,0-0.9-0.4-0.9-1.1c0-0.2,0-0.4,0-0.5c0-0.4,0.3-0.7,0.9-0.7c0.5,0,1.1,0,1.7,0c0.5,0,1,0,1.5,0
					c0.8,0,0.8,0.5,0.8,1.1c0,0.2,0,0.4,0,0.6C109.9,54.1,109.6,54.3,109,54.3z M107.2,55.3v3.9c0,0.1-0.1,0.2-0.2,0.2
					s-0.2-0.1-0.2-0.2v-1c-1.4,0.5-2.8,0.8-3,0.8c-0.1,0-0.2-0.1-0.2-0.2c0-0.1,0.1-0.2,0.2-0.2c0.3-0.1,0.7-0.1,1-0.2v-3h-1
					c-0.1,0-0.2-0.1-0.2-0.2c0-0.1,0.1-0.2,0.2-0.2h7.3c0.1,0,0.2,0.1,0.2,0.2c0,0.1-0.1,0.2-0.2,0.2L107.2,55.3z"/>
				<path id="Fill-46" class="st4" d="M119,55.8c0,0.2,0,0.4,0,0.7c0,0.4-0.1,0.9-0.2,1.3c-0.1,0.7-0.6,1.3-1.6,1.3
					c-0.2,0-0.5,0-0.8-0.1c-0.1,0-0.2-0.1-0.2-0.2c0-0.1,0.1-0.2,0.2-0.2c0,0,0,0,0.1,0c0.3,0.1,0.5,0.1,0.7,0.1
					c0.6,0,1-0.4,1.1-0.9c0.1-0.4,0.1-0.9,0.1-1.3c0-0.2,0-0.4,0-0.6H116c-0.1,0-0.2-0.1-0.2-0.2c0-0.1,0.1-0.2,0.2-0.2h2.3
					c-0.1-0.6-0.4-1-0.9-1.3c-0.1,0-0.1-0.1-0.1-0.1c0-0.1,0.1-0.2,0.2-0.2s0.3,0.1,0.4,0.2C118,54,119,53.2,119,53
					c0-0.1-0.2-0.1-0.5-0.1c-0.5,0-1.4,0-2.1,0l0,0c-0.1,0-0.2-0.1-0.2-0.2s0.1-0.2,0.2-0.2c0.5,0,0.9,0,1.4,0c0.4,0,0.8,0,1.2,0
					c0.4,0,0.6,0.2,0.6,0.4c0,0.1,0,0.4-1.3,1.4c0.2,0.3,0.4,0.7,0.5,1.1h1.5c0.1,0,0.2,0.1,0.2,0.2c0,0.1-0.1,0.2-0.2,0.2
					C120.3,55.8,119,55.8,119,55.8z M115.3,54.4c0-0.2-0.1-0.4-0.4-0.4c-0.2,0-0.4,0-0.7,0c-0.1,0.8-0.3,1.6-0.6,2.4
					c0.4,0,0.8,0.1,1.1,0.3C115.2,55.8,115.3,54.9,115.3,54.4z M113.5,57c0,0.1-0.2,0.2-0.3,0.2c-0.1,0-0.2-0.1-0.2-0.2v-0.1
					c0.3-0.9,0.6-1.8,0.7-2.8h-0.8l0,0c-0.1,0-0.2-0.1-0.2-0.2c0-0.1,0.1-0.2,0.2-0.2h0.9c0.1-0.6,0.2-1.1,0.2-1.6
					c0-0.1,0.1-0.2,0.2-0.2s0.3,0.1,0.3,0.2c0,0-0.1,0.7-0.2,1.6c0.2,0,0.5,0,0.7,0c0.5,0,0.8,0.3,0.8,0.7c0,0.7-0.2,1.7-0.6,2.5
					c0.1,0.1,1,0.5,1,0.8c0,0.1-0.1,0.3-0.2,0.3s-0.1,0-0.2-0.1c-0.2-0.2-0.5-0.4-0.8-0.6c-0.7,1.3-1.8,1.8-2,1.8s-0.3-0.1-0.3-0.2
					c0-0.1,0-0.1,0.1-0.2c0.8-0.3,1.4-0.9,1.8-1.6c-0.3-0.1-0.7-0.2-1-0.3L113.5,57z"/>
				<g id="Group-50" transform="translate(121.002304, 51.765470)">
					<g id="Clip-49">
					</g>
					<path id="Fill-48" class="st4" d="M6.1,0.8v1c0.5,0,0.9,0,1.3,0c0.4,0,0.5-0.1,0.5-0.5c0-0.3,0-0.5-0.5-0.5
						C7.4,0.8,6.1,0.8,6.1,0.8z M8.2,7.6c-0.3,0-1.5-0.3-2.5-0.9C5.6,6.6,5.6,6.6,5.6,6.5s0.1-0.2,0.2-0.2h0.1
						C6.7,6.7,7.5,7,8.3,7.1c0.2,0,0.2,0.1,0.2,0.2C8.5,7.5,8.4,7.6,8.2,7.6z M5.6,0.8H4.1v1c0.5,0,1,0,1.5,0V0.8z M2.7,5v0.2
						c0,0.3,0.2,0.5,0.6,0.5c0.5,0,1.1,0,1.7,0c0.5,0,1,0,1.5,0S7,5.4,7,5H2.7z M7,3.7c0-0.1,0-0.2,0-0.2C7,3.2,6.8,3,6.4,3
						C5.9,3,5.2,3,4.5,3C4.1,3,3.7,3,3.3,3S2.8,3.2,2.8,3.4c0,0.1,0,0.2,0,0.2L7,3.7L7,3.7z M2.7,4v0.7H7c0-0.1,0-0.2,0-0.4
						C7,4.2,7,4.1,7,4H2.7z M6.6,6.1c-0.5,0-1,0-1.5,0c-0.7,0-1.4,0-1.9,0c-0.6,0-0.9-0.3-0.9-0.7c0-0.3,0-0.6,0-1s0-0.7,0-1.1
						s0.3-0.7,0.9-0.7c0.4,0,0.8,0,1.2,0c0.7,0,1.5,0,2.2,0c0.5,0,0.8,0.3,0.8,0.6s0,0.6,0,1s0,0.7,0,1.1C7.5,5.8,7.1,6.1,6.6,6.1z
						 M3.6,0.8H2.4C2,0.8,2,1,2,1.3s0,0.5,0.5,0.5h1.1V0.8z M7.4,2.1c-0.8,0-1.7,0-2.6,0s-1.8,0-2.5,0C1.5,2,1.5,1.8,1.5,1.4
						c0-0.2,0-0.4,0-0.5c0-0.3,0.2-0.5,0.8-0.5c0.7,0,1.6,0,2.5,0s1.8,0,2.6,0c0.6,0,0.8,0.2,0.8,0.5c0,0.1,0,0.2,0,0.4
						C8.3,1.7,8.2,2,7.4,2.1z M1.4,7.6c-0.2,0-0.3-0.1-0.3-0.2s0.1-0.2,0.2-0.2C2.1,7.1,3,6.8,3.7,6.3h0.1C3.9,6.3,4,6.4,4,6.5
						s0,0.1-0.1,0.2C2.9,7.4,1.5,7.6,1.4,7.6z"/>
				</g>
				<path id="Fill-51" class="st2" d="M68.4,43.8c-0.8,0-1.5-0.7-1.5-1.5V25.4c0-0.8,0.7-1.5,1.5-1.5s1.5,0.7,1.5,1.5v16.9
					C69.9,43.1,69.2,43.8,68.4,43.8"/>
				<path id="Fill-53" class="st2" d="M73.6,34.7h-4.4c-0.8,0-1.5-0.7-1.5-1.5s0.7-1.5,1.5-1.5h4.4c0.8,0,1.5,0.7,1.5,1.5
					S74.4,34.7,73.6,34.7"/>
				<path id="Fill-55" class="st2" d="M64.2,44.6c-0.8,0-1.5-0.7-1.5-1.5V30.4c0-0.8,0.7-1.5,1.5-1.5c0.8,0,1.5,0.7,1.5,1.5v12.7
					C65.7,43.9,65,44.6,64.2,44.6"/>
				<path id="Fill-57" class="st2" d="M68,44.7h-5.5c-0.8,0-1.5-0.7-1.5-1.5s0.7-1.5,1.5-1.5H68c1.4,0,2.7-0.4,3.8-1.3l3-2.2
					c0.7-0.5,1.6-0.4,2.1,0.3s0.4,1.6-0.3,2.1l-3,2.2C72,44.1,70,44.7,68,44.7"/>
				<path id="Fill-59" class="st2" d="M125.2,15.6H76.9c-0.8,0-1.5-0.7-1.5-1.5s0.7-1.5,1.5-1.5h48.3c0.8,0,1.5,0.7,1.5,1.5
					C126.7,15,126,15.6,125.2,15.6"/>
				<path id="Fill-61" class="st2" d="M86,15.3c-0.8,0-1.5-0.7-1.5-1.5v-1.3c0-0.8,0.7-1.5,1.5-1.5s1.5,0.7,1.5,1.5v1.3
					C87.5,14.6,86.8,15.3,86,15.3"/>
				<path id="Fill-63" class="st2" d="M89.5,25.3h-7.2c-0.8,0-1.5-0.7-1.5-1.5s0.7-1.5,1.5-1.5h7.2c0.8,0,1.5,0.7,1.5,1.5
					C91,24.7,90.4,25.3,89.5,25.3"/>
				<path id="Fill-65" class="st2" d="M95.2,31H76.7c-0.8,0-1.5-0.7-1.5-1.5s0.7-1.5,1.5-1.5h18.5c0.8,0,1.5,0.7,1.5,1.5
					S96,31,95.2,31"/>
				<path id="Fill-67" class="st2" d="M83.1,35.2L83.1,35.2L83.1,35.2 M90.4,45.4h-8.7c-0.8,0-1.5-0.7-1.5-1.5s0.7-1.5,1.5-1.5h8.7
					c1.3,0,2.4-1.1,2.4-2.4c0-1.3-1.1-2.4-2.4-2.4h-7.8c-0.8,0-1.6-0.4-2-1.1c-0.5-0.7-0.6-1.5-0.3-2.3l1.9-5.2
					c0.3-0.8,1.1-1.2,1.9-0.9c0.8,0.3,1.2,1.1,0.9,1.9l-1.6,4.6h7.1c3,0,5.4,2.4,5.4,5.4S93.4,45.4,90.4,45.4"/>
				<path id="Fill-69" class="st2" d="M101.3,15.6c-0.2,0-0.4,0.2-0.4,0.4v2.3c0,0.2,0.2,0.4,0.4,0.4h24.3c0.2,0,0.4-0.2,0.4-0.4V16
					c0-0.2-0.2-0.4-0.4-0.4C125.6,15.6,101.3,15.6,101.3,15.6z M125.6,21.8h-24.3c-1.9,0-3.5-1.5-3.5-3.4v-2.3
					c0-1.9,1.5-3.4,3.5-3.4h24.3c1.9,0,3.5,1.5,3.5,3.4v2.3C129.1,20.3,127.5,21.8,125.6,21.8z"/>
				<path id="Fill-71" class="st2" d="M109.8,21.6c-0.6,0-1.1-0.3-1.4-0.8l-2.8-5.7c-0.4-0.7-0.1-1.6,0.7-2c0.7-0.4,1.7-0.1,2,0.7
					l2.8,5.7c0.4,0.7,0.1,1.6-0.7,2C110.3,21.5,110.1,21.6,109.8,21.6"/>
				<path id="Fill-73" class="st2" d="M119.7,21.6c-0.6,0-1.1-0.3-1.4-0.8l-2.8-5.7c-0.4-0.7-0.1-1.6,0.7-2c0.7-0.4,1.7-0.1,2,0.7
					l2.8,5.7c0.4,0.7,0.1,1.6-0.7,2C120.1,21.5,119.9,21.6,119.7,21.6"/>
				<path id="Fill-75" class="st2" d="M104,26c-0.2,0-0.4,0.2-0.4,0.4v9.2c0,0.2,0.2,0.4,0.4,0.4h18.9c0.2,0,0.4-0.2,0.4-0.4v-9.2
					c0-0.2-0.2-0.4-0.4-0.4C122.9,26,104,26,104,26z M122.9,39.1H104c-1.9,0-3.5-1.5-3.5-3.4v-9.2c0-1.9,1.5-3.4,3.5-3.4h18.9
					c1.9,0,3.5,1.5,3.5,3.4v9.2C126.4,37.6,124.8,39.1,122.9,39.1z"/>
				<path id="Fill-77" class="st2" d="M124.9,30.3h-22.8c-0.8,0-1.5-0.7-1.5-1.5s0.7-1.5,1.5-1.5h22.8c0.8,0,1.5,0.7,1.5,1.5
					C126.4,29.6,125.7,30.3,124.9,30.3"/>
				<path id="Fill-79" class="st2" d="M124.9,34.7h-22.8c-0.8,0-1.5-0.7-1.5-1.5s0.7-1.5,1.5-1.5h22.8c0.8,0,1.5,0.7,1.5,1.5
					C126.4,34,125.7,34.7,124.9,34.7"/>
				<g id="Group-83" transform="translate(116.647465, 39.389233)">
					<g id="Clip-82">
					</g>
					<path id="Fill-81" class="st2" d="M11.6,6.1C8.9,6.1,3.4,4.4,1.7,3C1,2.5,0.9,1.5,1.5,0.9C2,0.2,2.9,0.1,3.6,0.7
						c1.1,0.9,6.3,2.5,8.2,2.4c0.8-0.1,1.6,0.6,1.6,1.4C13.5,5.3,12.8,6,12,6.1C11.8,6.1,11.7,6.1,11.6,6.1"/>
				</g>
				<path id="Fill-84" class="st2" d="M98.8,45.4c-0.2,0-0.3,0-0.5,0c-0.8-0.1-1.4-0.8-1.4-1.6s0.8-1.4,1.6-1.4
					c1.9,0.2,7-1.4,8.2-2.3c0.7-0.5,1.6-0.4,2.1,0.3s0.4,1.6-0.3,2.1C106.9,43.8,101.5,45.4,98.8,45.4"/>
				<path id="Fill-86" class="st2" d="M68.4,12.5c-1.8,0-3.5,0.7-4.7,1.9s-1.9,2.8-1.9,4.6c0,2,0.9,4,2.8,5.8l0,0l0.1,0.1
					c0.6,0.6,1.8,1.9,3.7,1.9c1.9,0,3.1-1.3,3.7-1.9c0-0.1,0.1-0.1,0.1-0.1l0,0C74.1,22.9,75,21,75,19C75,15.3,72.1,12.5,68.4,12.5
					 M68.4,15.5c2.1,0,3.6,1.6,3.6,3.5s-1.6,3.3-1.9,3.7c-0.4,0.4-1,1.2-1.6,1.2c-0.7,0-1.3-0.8-1.6-1.2C66.5,22.3,65,20.9,65,19
					C64.8,17.1,66.3,15.5,68.4,15.5"/>
				<path id="Fill-88" class="st2" d="M96.1,26.9c-0.4,0-0.9-0.2-1.2-0.5l-9.2-11.1c-0.5-0.6-0.4-1.6,0.2-2.1s1.6-0.4,2.1,0.2
					l9.2,11.1c0.5,0.6,0.4,1.6-0.2,2.1C96.8,26.8,96.5,26.9,96.1,26.9"/>
				<path id="Fill-90" class="st2" d="M75.7,26.9c-0.3,0-0.7-0.1-1-0.4C74.1,26,74,25,74.5,24.4l9.4-11.1c0.5-0.6,1.5-0.7,2.1-0.2
					s0.7,1.5,0.2,2.1l-9.4,11.1C76.6,26.7,76.2,26.9,75.7,26.9"/>
			</g>
		</g>
	</g>
</g>
</svg>
