<?xml version="1.0" encoding="UTF-8"?>
<svg width="142px" height="26px" viewBox="0 0 142 26" version="1.1" xmlns="http://www.w3.org/2000/svg" xmlns:xlink="http://www.w3.org/1999/xlink">
    <!-- Generator: Sketch 54.1 (76490) - https://sketchapp.com -->
    <title>下載</title>
    <desc>Created with Sketch.</desc>
    <g id="index" stroke="none" stroke-width="1" fill="none" fill-rule="evenodd">
        <g id="index#mercari" transform="translate(-768.000000, -510.000000)" fill-rule="nonzero">
            <g id="btn_mercari-copy" transform="translate(730.000000, 501.000000)">
                <g id="下載" transform="translate(38.449541, 9.321101)">
                    <path d="M21.1754386,0 C23.1973684,0 24.8508772,1.65350877 24.8508772,3.6754386 L24.8508772,21.1754386 C24.8508772,23.1973684 23.1973684,24.8508772 21.1754386,24.8508772 L3.6754386,24.8508772 C1.65350877,24.8508772 0,23.1973684 0,21.1754386 L0,7.77631579 L0.00877192982,3.47807018 C0.114035088,1.54824561 1.71929825,0 3.6754386,0 L21.1754386,0 Z" id="Path" fill="#FFFFFF"></path>
                    <path d="M70.5877193,4.64464912 C69.1622807,4.64464912 68.5570175,4.64464912 68.5570175,4.64464912 L66.1842105,4.64464912 C65.7807018,4.64464912 65.4561404,4.96921053 65.4561404,5.3727193 L65.4561404,19.2411404 L68.5570175,19.2411404 L68.5570175,14.280614 C68.5570175,14.280614 69.4605263,14.280614 70.5877193,14.280614 C73.5877193,14.280614 76.3070175,12.407807 76.3070175,9.23675439 C76.3070175,6.06570175 73.5877193,4.64464912 70.5877193,4.64464912 Z M68.5570175,12.789386 L68.5570175,6.13587719 C68.5570175,6.13587719 69.5131579,6.14026316 70.5877193,6.14026316 C72.1096491,6.14026316 73.7850877,7.29377193 73.7850877,9.27184211 C73.7850877,11.2499123 72.1052632,12.789386 70.5877193,12.789386 C69.1140351,12.789386 68.5570175,12.789386 68.5570175,12.789386 Z M81.5877193,8.31131579 C79.2412281,8.31131579 78.0350877,8.88587719 78.0350877,8.88587719 L78.3201754,9.75429825 C78.3201754,9.75429825 79.2061404,9.34640351 80.9342105,9.34640351 C82.8596491,9.34640351 83.25,10.280614 83.25,11.5569298 L83.2236842,12.1271053 C82.8114035,12.0042982 81.8464912,11.8464035 80.8596491,11.8464035 C79.3903509,11.8464035 76.9692982,12.7499123 76.9692982,15.7060526 C76.9692982,18.5174561 79.1052632,19.4341228 80.6184211,19.4341228 C81.8684211,19.4341228 82.6315789,19.0481579 83.245614,18.6665789 L83.245614,19.2455263 L86.3421053,19.2455263 L86.3421053,11.5569298 C86.3552632,9.12710526 83.9385965,8.31131579 81.5877193,8.31131579 Z M81.7192982,18.0613158 C80.372807,18.0613158 79.4078947,17.0700877 79.4078947,15.6007895 C79.4078947,14.1314912 80.7017544,13.2718421 81.877193,13.2718421 C82.4692982,13.2718421 83.0350877,13.4341228 83.254386,13.6227193 L83.254386,17.3814912 C82.877193,17.7148246 82.4342105,18.0613158 81.7192982,18.0613158 Z M93.5964912,20.5657018 C92.6535088,22.6490351 91.1052632,22.9165789 90.4122807,22.9999123 C89.6842105,23.0832456 88.9035088,23.0481579 88.9035088,23.0481579 L88.9035088,21.3464035 C90.2850877,21.3464035 91.0350877,21.4560526 91.8508772,19.8376316 L92.4035088,18.4341228 L87.3114035,8.30692982 L90.5614035,8.30692982 L93.8991228,15.039386 L96.8508772,8.30692982 L98.9649155,8.30692982 C98.9692982,8.31131579 94.5394737,18.4867544 93.5964912,20.5657018 Z M35.127193,4.64464912 C33.7017544,4.64464912 33.0964912,4.64464912 33.0964912,4.64464912 L30.7236842,4.64464912 C30.3201754,4.64464912 29.995614,4.96921053 29.995614,5.3727193 L29.995614,19.2411404 L33.0964912,19.2411404 L33.0964912,14.280614 C33.0964912,14.280614 34,14.280614 35.127193,14.280614 C38.127193,14.280614 40.8464912,12.407807 40.8464912,9.23675439 C40.8508772,6.06570175 38.1315789,4.64464912 35.127193,4.64464912 Z M33.1008772,12.789386 L33.1008772,6.13587719 C33.1008772,6.13587719 34.0570175,6.14026316 35.1315789,6.14026316 C36.6535088,6.14026316 38.3289474,7.29377193 38.3289474,9.27184211 C38.3289474,11.2499123 36.6491228,12.789386 35.1315789,12.789386 C33.6535088,12.789386 33.1008772,12.789386 33.1008772,12.789386 Z M46.1315789,8.31131579 C43.7850877,8.31131579 42.5789474,8.88587719 42.5789474,8.88587719 L42.8640351,9.75429825 C42.8640351,9.75429825 43.745614,9.34640351 45.4780702,9.34640351 C47.4035088,9.34640351 47.7938596,10.280614 47.7938596,11.5569298 L47.7675439,12.1271053 C47.3552632,12.0042982 46.3903509,11.8464035 45.4035088,11.8464035 C43.9385965,11.8464035 41.5131579,12.7499123 41.5131579,15.7060526 C41.5131579,18.5174561 43.6491228,19.4341228 45.1622807,19.4341228 C46.4122807,19.4341228 47.1710526,19.0481579 47.7894737,18.6665789 L47.7894737,19.2455263 L50.8859649,19.2455263 L50.8859649,11.5569298 C50.8947368,9.12710526 48.4780702,8.31131579 46.1315789,8.31131579 Z M46.2631579,18.0613158 C44.9166667,18.0613158 43.9517544,17.0700877 43.9517544,15.6007895 C43.9517544,14.1314912 45.245614,13.2718421 46.4210526,13.2718421 C47.0131579,13.2718421 47.5789474,13.4341228 47.7982456,13.6227193 L47.7982456,17.3814912 C47.4166667,17.7148246 46.9736842,18.0613158 46.2631579,18.0613158 Z M58.1359649,20.5657018 C57.1929825,22.6490351 55.6447368,22.9165789 54.9517544,22.9999123 C54.2236842,23.0832456 53.4429825,23.0481579 53.4429825,23.0481579 L53.4429825,21.3464035 C54.8245614,21.3464035 55.5745614,21.4560526 56.3903509,19.8376316 L56.9429825,18.4341228 L51.8508772,8.30692982 L55.1008772,8.30692982 L58.4385965,15.039386 L61.3903509,8.30692982 L63.5043892,8.30692982 C63.5087719,8.31131579 59.0789474,18.4867544 58.1359649,20.5657018 Z" id="Shape" fill="#3F3A39"></path>
                    <path d="M4.8377193,24.8508772 L3.6754386,24.8508772 C1.65350877,24.8508772 0,23.1973684 0,21.1754386 L0,7.77631579 C3.29824561,7.44298246 6.37280702,7.45175439 9.07017544,7.71052632 L4.8377193,24.8508772 Z M19.7850877,13.2675439 C20.3684211,10.8947368 16.5394737,8.69736842 10.4122807,7.86842105 L8.18859649,17.122807 C13.3245614,17.3684211 19.1578947,15.8201754 19.7850877,13.2675439 Z M21.1754386,0 L3.6754386,0 C1.71929825,0 0.114035088,1.54824561 0.00877192982,3.47807018 C14.6622807,3.06578947 21.7894737,8.1622807 20.6710526,13.245614 C19.6622807,17.8201754 15.0131579,19.5745614 7.46052632,20.1535088 L6.32894737,24.8552632 L21.1754386,24.8552632 C23.1973684,24.8552632 24.8508772,23.2017544 24.8508772,21.1798246 L24.8508772,3.6754386 C24.8508772,1.65350877 23.1973684,0 21.1754386,0 Z" id="Shape" fill="#FF0033"></path>
                    <polygon id="Path" fill="#3F3A39" points="120.460526 7.79385965 118.109649 7.79385965 118.109649 15.0087719 120.460526 15.0087719"></polygon>
                    <path d="M120.04386,18.8464912 L120.04386,19.9912281 C120.469298,19.9692982 123.513158,19.6052632 125.004386,18.3070175 C126.311404,17.1535088 126.995614,15.4122807 127.070175,13.1798246 L127.087719,13.1798246 L127.087719,12.4166667 L127.087719,7.79385965 L124.714912,7.79385965 L124.714912,8.44298246 L124.714912,12.6052632 C124.714912,15.9342105 123.97807,18.2280702 120.057018,18.8421053 C120.057018,18.8421053 120.048246,18.8464912 120.04386,18.8464912 Z" id="Path" fill="#3F3A39"></path>
                    <path d="M135,15.4692982 L132.79386,13.2675439 C132.789474,13.2631579 132.789474,13.2587719 132.785088,13.25 L131.763158,14.1140351 C131.767544,14.1184211 131.77193,14.122807 131.776316,14.127193 L135.780702,19.7982456 C135.785088,19.8026316 135.785088,19.8070175 135.789474,19.8157895 C135.97807,20.0394737 136.315789,20.0701754 136.539474,19.8815789 L137.644737,18.9473684 C137.649123,18.9429825 137.653509,18.9429825 137.662281,18.9385965 C137.885965,18.75 137.916667,18.4122807 137.72807,18.1885965 C137.723684,18.1842105 137.719298,18.1798246 137.714912,18.1754386 L135.969298,16.4385965 C139.057018,13.245614 140.942982,10.6184211 140.942982,9.15350877 C140.942982,8.75877193 140.600877,8.35087719 140.179825,8.35087719 C140.171053,8.35087719 139.776316,8.35087719 139.776316,8.35087719 L139.421053,8.35087719 L138.912281,8.35087719 L132.070175,8.35087719 L130.162281,8.35087719 L130.162281,9.27192982 L130.162281,9.85087719 L130.162281,10.0087719 L138.192982,10.0087719 C137.745614,11.6052632 136.394737,13.7412281 135,15.4692982 Z" id="Path" fill="#3F3A39"></path>
                    <path d="M104.837719,18.1710526 L104.837719,19.6140351 C104.850877,19.6140351 104.864035,19.6184211 104.881579,19.6184211 C105.241228,19.6184211 108.912281,18.4517544 111.434211,16.0482456 C113.02193,14.5307018 113.885965,12.5614035 114.324561,11.2061404 L114.324561,11.2105263 C114.324561,11.2105263 114.710526,10.0175439 114.75,9.37719298 L114.754386,9.37719298 L114.754386,9.21929825 L114.754386,9.07894737 C114.754386,8.65789474 114.412281,8.31578947 113.991228,8.31578947 C113.982456,8.31578947 113.973684,8.32017544 113.964912,8.32017544 L113.964912,8.31578947 L104.122807,8.31578947 L104.122807,8.32017544 L104.122807,8.32894737 L104.122807,8.34649123 L104.122807,10.004386 L111.885965,10.004386 C111.407895,13.8684211 108.570175,17.0438596 104.837719,18.1710526 Z" id="Path" fill="#3F3A39"></path>
                </g>
            </g>
        </g>
    </g>
</svg>