<?xml version="1.0" encoding="UTF-8"?>
<svg width="30px" height="30px" viewBox="0 0 30 30" version="1.1" xmlns="http://www.w3.org/2000/svg" xmlns:xlink="http://www.w3.org/1999/xlink">
    <!-- Generator: Sketch 49.3 (51167) - http://www.bohemiancoding.com/sketch -->
    <title>mall/menu</title>
    <desc>Created with Sketch.</desc>
    <defs></defs>
    <g id="Symbols" stroke="none" stroke-width="1" fill="none" fill-rule="evenodd">
        <g id="mall/menu" transform="translate(-24.000000, -12.000000)" fill="#FF0132" fill-rule="nonzero">
            <g id="Combined-Shape">
                <path d="M47.4027778,22.9549203 C46.9861111,23.0236394 45.25,23.3672347 44.6944444,23.4359538 C44.0694444,23.573392 38.1666667,28.1775701 37.75,29.2770753 C37.6805556,29.6206707 37.75,33.6063771 37.75,33.6063771 L41.0833333,33.8125344 L40.9444444,34.9120396 C40.4583333,34.8433205 37.4027778,34.9120396 35.3888889,34.9120396 C34.4166667,34.9120396 31.4305556,35.0494777 30.3888889,34.9807587 L30.5277778,33.9499725 C31.1527778,34.0186916 32.125,33.8812534 32.75,33.7438153 C33.3055556,33.6063771 33.7916667,33.3315008 33.7916667,32.7817482 L33.7916667,29.3457944 C33.5833333,28.7273227 28.6527778,22.6113249 27.4027778,21.6492578 C27.0555556,21.5118197 24.5555556,21.2369434 24,21.1682243 L24.1388889,20.1374382 L35.3888889,20.1374382 L35.25,21.0995052 C34.7638889,21.2369434 32.3333333,21.2369434 31.7083333,21.4431006 C33.3055556,23.7795492 35.875,26.8719076 36.6388889,28.0401319 C37.125,27.4216603 41.4305556,24.3980209 41.5694444,23.5046729 C40.9444444,23.3672347 38.9305556,23.0923584 38.5833333,23.0923584 L38.375,21.9928532 L48.0972222,21.9928532 L47.4027778,22.9549203 Z M50.3888889,32.8504673 L49.1388889,32.8504673 L49.4166667,30.788895 L50.5972222,30.8576141 L51.7777778,30.788895 L51.5,32.8504673 L50.3888889,32.8504673 Z M51.7777778,29.1396372 L49.9722222,29.1396372 L49.9722222,20 L54,20 L53.6527778,21.3743815 L51.7777778,29.1396372 Z"></path>
            </g>
        </g>
    </g>
</svg>