<?xml version="1.0" encoding="UTF-8"?>
<svg width="30px" height="30px" viewBox="0 0 30 30" version="1.1" xmlns="http://www.w3.org/2000/svg" xmlns:xlink="http://www.w3.org/1999/xlink">
    <!-- Generator: Sketch 54.1 (76490) - https://sketchapp.com -->
    <title>Group 3</title>
    <desc>Created with Sketch.</desc>
    <defs>
        <polygon id="path-1" points="7.5e-05 8 30 8 30 23 7.5e-05 23"></polygon>
    </defs>
    <g id="webBuy" stroke="none" stroke-width="1" fill="none" fill-rule="evenodd">
        <g transform="translate(-256.000000, -534.000000)" id="Group-3">
            <g transform="translate(256.000000, 534.000000)">
                <rect id="Rectangle" fill="#FFFFFF" x="0" y="0" width="30" height="30"></rect>
                <mask id="mask-2" fill="white">
                    <use xlink:href="#path-1"></use>
                </mask>
                <g id="Clip-2"></g>
                <path d="M27.777825,17.139875 L25.972575,17.139875 L25.972575,7.999625 L30.000075,7.999625 L29.652825,9.374375 L27.777825,17.139875 Z M26.388825,20.850125 L25.138575,20.850125 L25.416825,18.788375 L26.597325,18.857375 L27.777825,18.788375 L27.500325,20.850125 L26.388825,20.850125 Z M23.403075,10.954625 C22.986075,11.023625 21.249825,11.367125 20.694825,11.436125 C20.069325,11.573375 14.166825,16.177625 13.749825,17.277125 C13.680825,17.620625 13.749825,21.606125 13.749825,21.606125 L17.082825,21.812375 L16.944825,22.911875 C16.458075,22.842875 13.402575,22.911875 11.388825,22.911875 C10.416825,22.911875 7.430325,23.049875 6.388575,22.980875 L6.528075,21.949625 C7.152825,22.018625 8.124825,21.881375 8.749575,21.744125 C9.305325,21.606125 9.792075,21.331625 9.792075,20.781125 L9.792075,17.345375 C9.583575,16.727375 4.653075,10.611125 3.402825,9.649625 C3.055575,9.511625 0.555825,9.237125 7.5e-05,9.168125 L0.138825,8.137625 L11.388825,8.137625 L11.250075,9.099125 C10.764075,9.237125 8.333325,9.237125 7.708575,9.443375 C9.305325,11.779625 11.874825,14.871875 12.639075,16.040375 C13.125075,15.421625 17.430825,12.398375 17.569575,11.504375 C16.944825,11.367125 14.930325,11.092625 14.583075,11.092625 L14.374575,9.993125 L24.097575,9.993125 L23.403075,10.954625 Z" id="Fill-1" fill="#FF0132" mask="url(#mask-2)"></path>
            </g>
        </g>
    </g>
</svg>