<?xml version="1.0" encoding="UTF-8"?>
<svg width="30px" height="30px" viewBox="0 0 30 30" version="1.1" xmlns="http://www.w3.org/2000/svg" xmlns:xlink="http://www.w3.org/1999/xlink">
    <!-- Generator: Sketch 49.3 (51167) - http://www.bohemiancoding.com/sketch -->
    <title>mall/menu</title>
    <desc>Created with Sketch.</desc>
    <defs></defs>
    <g id="Symbols" stroke="none" stroke-width="1" fill="none" fill-rule="evenodd">
        <g id="mall/menu" transform="translate(-24.000000, -62.000000)" fill-rule="nonzero">
            <g id="rakuten">
                <g transform="translate(24.000000, 62.000000)">
                    <path d="M30,15 C30,23.3 23.3,30 15,30 C6.7,30 0,23.3 0,15 C0,6.7 6.7,0 15,0 C23.3,0 30,6.7 30,15 Z" id="Shape" fill="#BF0000"></path>
                    <path d="M13,23.05 L13,18.05 L15.15,18.05 L18.9,23.05 L22.75,23.05 L18.2,17 C19.6,16 20.55,14.35 20.55,12.45 C20.55,9.4 18.05,6.9 15,6.9 L9.95,6.9 L9.95,23 L13,23.05 Z M13,10 L15,10 C16.4,10 17.5,11.1 17.5,12.5 C17.5,13.9 16.35,15 15,15 L13,15 L13,10 Z" id="Shape" fill="#FFFFFF"></path>
                </g>
            </g>
        </g>
    </g>
</svg>