<?xml version="1.0" encoding="UTF-8"?>
<svg width="40px" height="40px" viewBox="0 0 40 40" version="1.1" xmlns="http://www.w3.org/2000/svg" xmlns:xlink="http://www.w3.org/1999/xlink">
    <!-- Generator: Sketch 49.3 (51167) - http://www.bohemiancoding.com/sketch -->
    <title>shoplogo</title>
    <desc>Created with Sketch.</desc>
    <defs></defs>
    <g id="webBuy" stroke="none" stroke-width="1" fill="none" fill-rule="evenodd">
        <g transform="translate(-586.000000, -296.000000)">
            <rect id="Rectangle" fill="#FFFFFF" x="176" y="174" width="1180" height="703"></rect>
            <g id="shoplogo" transform="translate(231.000000, 296.000000)" fill="#000000" fill-rule="nonzero">
                <g id="logo_francfranc_square" transform="translate(359.000000, 4.000000)">
                    <path d="M0,0 L0,31.9805128 L31.9805128,31.9805128 L31.9805128,0 L0,0 Z M15.0830769,30.1128205 L15.1066667,30.1128205 L15.1066667,30.4307692 C15.1066667,30.905641 15.2061538,31.2820513 15.8389744,31.3107692 L13.7405128,31.3107692 C14.4112821,31.0861538 14.8820513,30.6235897 15.0830769,30.1128205 Z M12.8451282,31.0666667 C11.785641,31.0666667 11.2553846,30.4779487 11.2553846,29.7476923 C11.2553846,28.84 11.8564103,28.4635897 12.9158974,28.345641 C13.7876923,28.2276923 14.7528205,28.2748718 15.1066667,27.8748718 L15.1066667,29.0051282 C15.1066667,29.3230769 14.8830769,31.0666667 12.8451282,31.0666667 Z M21.9353846,31.3107692 L18.0369231,31.3107692 L18.0369231,28.0389744 C18.0369231,26.5548718 18.8615385,25.5066667 20.2164103,25.5066667 C21.865641,25.5066667 21.9353846,26.8615385 21.9353846,27.4851282 L21.9353846,31.3107692 Z M26.9579487,31.3107692 C27.825641,31.0164103 28.4635897,30.2779487 28.6153846,29.1815385 L28.1671795,29.1815385 C28.014359,30.2892308 27.1897436,31.065641 26.0594872,31.065641 C24.4933333,31.065641 23.7271795,29.8646154 23.7271795,28.2276923 C23.7271795,26.8492308 24.5394872,25.5066667 26.0594872,25.5066667 C27.1548718,25.5066667 28.0266667,26.0605128 28.1087179,27.1323077 L28.5558974,27.1323077 C28.425641,25.7538462 27.3661538,25.1179487 26.0584615,25.1179487 C24.2687179,25.1179487 23.2789744,26.5435897 23.2789744,28.2276923 C23.2789744,29.6071795 23.8235897,30.8902564 25.1015385,31.3107692 L22.3835897,31.3107692 L22.3835897,27.5682051 C22.3835897,26.8266667 22.36,25.1179487 20.2287179,25.1179487 C19.2861538,25.1179487 18.3682051,25.6482051 18.0615385,26.5548718 L18.0379487,26.5548718 L18.0379487,25.2594872 L17.5907692,25.2594872 L17.5907692,31.3107692 L15.9835897,31.3107692 C16.0810256,31.3046154 16.1794872,31.2861538 16.2861538,31.2666667 L16.2861538,30.8902564 C16.1446154,30.9138462 16.0379487,30.9251282 15.9558974,30.9251282 C15.5558974,30.9251282 15.5558974,30.5476923 15.5558974,30.1948718 L15.5558974,26.6974359 C15.5558974,25.4482051 14.4953846,25.1189744 13.4358974,25.1189744 C12.0112821,25.1189744 11.1866667,25.7897436 11.1271795,27.1210256 L11.574359,27.1210256 C11.6338462,26.0728205 12.3517949,25.5076923 13.4358974,25.5076923 C14.8133333,25.5076923 15.12,26.4266667 15.12,26.6974359 C15.12,27.6871795 15.0379487,27.8164103 13.0358974,27.9569231 C12.0338462,28.04 10.8102564,28.334359 10.8102564,29.7476923 C10.8102564,30.6164103 11.2225641,31.0953846 11.8482051,31.3107692 L8.15692308,31.3107692 L8.15692308,28.0041026 C8.20410256,27.0974359 8.39282051,26.72 8.84,26.2605128 C9.38153846,25.7302564 10.0410256,25.6123077 10.5128205,25.6717949 L10.5128205,25.2246154 C9.4174359,25.1774359 8.42769231,25.8133333 8.19282051,26.6020513 L8.15794872,26.6020513 L8.15794872,25.2594872 L7.71076923,25.2594872 L7.71076923,31.3107692 L4.8974359,31.3107692 L4.8974359,25.6482051 L6.15794872,25.6482051 L6.15794872,25.2594872 L4.8974359,25.2594872 L4.8974359,24.0461538 C4.8974359,23.374359 5.28615385,23.1979487 5.78051282,23.1979487 C5.95794872,23.1979487 6.13435897,23.2215385 6.31076923,23.2574359 L6.31076923,22.8687179 C6.13435897,22.8338462 5.95794872,22.8102564 5.78051282,22.8102564 C5.05025641,22.8102564 4.45025641,23.1641026 4.45025641,24.0112821 L4.45025641,25.2594872 L3.36615385,25.2594872 L3.36615385,25.6482051 L4.45025641,25.6482051 L4.45025641,31.3107692 L0.66974359,31.3107692 L0.66974359,22.2441026 L1.93025641,22.2441026 L1.93025641,18.5107692 L5.73435897,18.5107692 L5.73435897,17.3097436 L1.93128205,17.3097436 L1.93128205,15.1076923 L6.26564103,15.1076923 L6.26564103,13.8358974 L0.66974359,13.8358974 L0.66974359,0.66974359 L31.3097436,0.66974359 L31.3097436,17.3630769 C30.8841026,16.4338462 29.8974359,15.9897436 28.7774359,15.9897436 C26.7753846,15.9897436 25.774359,17.4266667 25.774359,19.2635897 C25.774359,21.0533333 26.8225641,22.4082051 28.7302564,22.4082051 C30.0071795,22.4082051 30.8923077,21.8287179 31.3097436,20.76 L31.3097436,31.3097436 L26.9579487,31.3097436 L26.9579487,31.3107692 Z M31.3107692,18.1917949 L31.3107692,19.9579487 L30.1794872,19.9579487 C30.0502564,20.8297436 29.5076923,21.3476923 28.7312821,21.3476923 C27.5651282,21.3476923 27.1179487,20.2758974 27.1179487,19.2625641 C27.1179487,17.4133333 28.0953846,17.0482051 28.7907692,17.0482051 C29.5333333,17.0482051 30.0748718,17.4492308 30.1805128,18.1907692 L31.3107692,18.1907692 L31.3107692,18.1917949 Z" id="Shape"></path>
                    <path d="M8.78461538,17.3323077 L8.76,17.3323077 L8.76,16.1548718 L7.50051282,16.1548718 L7.50051282,22.2441026 L8.84307692,22.2441026 L8.84307692,19.3466667 C8.84307692,18.0041026 9.57333333,17.2615385 10.4923077,17.2615385 C10.6810256,17.2615385 10.8810256,17.2974359 11.0687179,17.32 L11.0687179,16.0246154 C10.9517949,16.0123077 10.8687179,15.9897436 10.5630769,15.9897436 C9.7374359,15.9897436 8.9374359,16.6851282 8.78461538,17.3323077 Z M17.2153846,20.8892308 L17.2153846,17.7569231 C17.2153846,16.4728205 15.9671795,15.9897436 14.7774359,15.9897436 C13.4348718,15.9897436 12.1046154,16.4492308 12.0102564,18.0153846 L13.3528205,18.0153846 C13.4112821,17.3558974 13.9415385,17.0492308 14.6953846,17.0492308 C15.2369231,17.0492308 15.9558974,17.1784615 15.9558974,17.8738462 C15.9558974,18.6625641 15.0964103,18.5569231 14.1302564,18.7333333 C13,18.8625641 11.7866667,19.1097436 11.7866667,20.6297436 C11.7866667,21.8194872 12.7753846,22.4082051 13.8707692,22.4082051 C14.5897436,22.4082051 15.4492308,22.1846154 15.9794872,21.665641 C16.0861538,22.2194872 16.4738462,22.4082051 17.0164103,22.4082051 C17.24,22.4082051 17.6635897,22.3251282 17.8646154,22.2553846 L17.8646154,21.3251282 C17.7230769,21.3487179 17.6174359,21.3487179 17.534359,21.3487179 C17.2861538,21.3487179 17.2153846,21.2194872 17.2153846,20.8892308 Z M15.8728205,20.1948718 C15.8728205,21.0430769 14.9538462,21.3487179 14.3651282,21.3487179 C13.8933333,21.3487179 13.1282051,21.1723077 13.1282051,20.5712821 C13.1282051,19.8646154 13.6461538,19.6533333 14.2235897,19.5589744 C14.8123077,19.4533333 15.4605128,19.4646154 15.8717949,19.1938462 L15.8717949,20.1948718 L15.8728205,20.1948718 Z M22.454359,15.9897436 C21.6533333,15.9897436 20.9589744,16.4020513 20.5579487,17.0728205 L20.534359,17.0492308 L20.534359,16.1538462 L19.2625641,16.1538462 L19.2625641,22.2430769 L20.6051282,22.2430769 L20.6051282,18.6512821 C20.6051282,17.7558974 21.1825641,17.0492308 22.0779487,17.0492308 C22.8676923,17.0492308 23.2441026,17.4615385 23.2676923,18.4153846 L23.2676923,22.2430769 L24.6102564,22.2430769 L24.6102564,18.0625641 C24.6102564,16.6964103 23.7733333,15.9897436 22.454359,15.9897436 Z" id="Shape"></path>
                </g>
            </g>
        </g>
    </g>
</svg>