<?xml version="1.0" encoding="utf-8"?>
<!-- Generator: Adobe Illustrator 21.1.0, SVG Export Plug-In . SVG Version: 6.00 Build 0)  -->
<svg version="1.1" id="圖層_1" xmlns="http://www.w3.org/2000/svg" xmlns:xlink="http://www.w3.org/1999/xlink" x="0px" y="0px"
	 viewBox="0 0 148.8 56" style="enable-background:new 0 0 148.8 56;" xml:space="preserve">
<style type="text/css">
	.st0{fill:url(#SVGID_2_);}
	.st1{fill:#FFFFFF;}
	.st2{fill:#FBD100;}
	.st3{fill:#201816;}
	.st4{fill:#DB3412;}
	.st5{fill:#98A32F;}
	.st6{fill:#773F36;}
	.st7{fill:#F2C873;}
	.st8{fill:#ACB559;}
	.st9{fill:#A9B352;}
	.st10{fill:#B3BC67;}
	.st11{fill:#F7EDD7;}
	.st12{fill:url(#SVGID_4_);}
</style>
<g>
	
		<radialGradient id="SVGID_2_" cx="18.8678" cy="-14.3189" r="7.0352" gradientTransform="matrix(0.8929 -0.4503 0.4503 0.8929 -0.7827 30.6049)" gradientUnits="userSpaceOnUse">
		<stop  offset="0" style="stop-color:#610B12"/>
		<stop  offset="0.9981" style="stop-color:#EE1522"/>
	</radialGradient>
	<path class="st0" d="M14.2,8.4c1-1.1,1.4-2.5,1-3.4L14,5.4l0.3-1.3c-1-0.3-2.3,0.1-3.4,1.2c-0.3,0.3-0.5,0.7-0.7,1.2
		c0-0.6-0.1-1.2-0.4-1.6C9.2,3.5,8,2.7,7,2.7L6.9,4L5.8,3.3c-0.6,0.8-0.7,2.2,0,3.6c0.2,0.4,0.6,0.9,1.1,1.2C6.5,8,6,8,5.6,8
		c-1.5,0.2-2.7,1-3,2l1.2,0.5l-1.1,0.8c0.5,0.9,1.9,1.4,3.4,1.2c0.6-0.1,1.2-0.4,1.8-0.7c-0.4,0.6-0.8,1.3-0.9,1.9
		c-0.2,1.5,0.3,2.9,1.1,3.4l0.8-1l0.5,1.2c1-0.3,1.8-1.4,2-2.9c0.1-0.5,0-1.1-0.2-1.7c0.4,0.5,0.8,0.9,1.2,1.1
		c1.3,0.7,2.8,0.7,3.6,0.1l-0.7-1.1l1.3,0c0.1-1-0.7-2.2-2.1-2.9c-0.6-0.3-1.3-0.4-2.1-0.4C13.2,9.2,13.8,8.8,14.2,8.4z"/>
	<path class="st1" d="M11.2,9C11.2,9,11.2,9,11.2,9C11.2,9,11.2,9,11.2,9C11.2,9,11.2,8.9,11.2,9C11.2,8.9,11.2,8.9,11.2,9
		C11.2,8.9,11.2,8.9,11.2,9C11.2,8.9,11.2,8.9,11.2,9C11.2,8.9,11.2,8.9,11.2,9c-0.1-0.1-0.1-0.1-0.1-0.1c0,0,0,0,0,0c0,0,0,0,0,0
		c0,0,0,0,0,0c0,0,0,0,0,0c0,0,0,0,0,0c0,0,0,0,0,0c0,0,0,0,0,0c0,0,0,0,0,0c0,0,0,0,0,0c0,0,0,0,0,0c0,0,0,0,0,0c0,0,0,0,0,0
		c0,0,0,0,0,0c0,0,0,0,0,0c0,0,0,0,0,0c0,0,0,0,0,0c0,0,0,0,0,0c0,0,0,0,0,0c0,0,0,0,0,0c0,0,0,0,0,0c0,0,0,0,0,0c0,0,0,0,0,0
		c0,0,0,0,0,0c0,0,0,0,0,0c0,0,0,0,0,0l-1,0.5l0.3-1c0,0,0,0,0,0c0,0,0,0,0,0c0,0,0,0,0,0c0,0,0,0,0,0c0,0,0,0,0,0c0,0,0,0,0,0
		c0,0,0,0,0,0s0,0,0,0c0,0,0,0,0,0c0,0,0,0,0,0c0,0,0,0,0,0c0,0,0,0,0,0c0,0,0,0,0,0c0,0,0,0,0,0c0,0,0,0,0,0c0,0,0,0,0,0
		c0,0,0,0,0,0c0,0,0,0,0,0c0,0,0,0,0,0c0,0,0,0,0,0c0,0,0,0,0,0c0,0,0,0,0,0c0,0,0,0,0,0c0,0,0,0,0,0c0,0,0,0,0,0s0,0,0,0
		c0,0,0,0,0,0c0,0,0,0,0,0c0,0,0,0,0,0c0,0,0,0,0,0c0,0,0,0,0,0c0,0,0,0,0,0c0,0,0,0,0,0c0,0,0,0,0,0c0,0,0,0,0,0c0,0,0,0,0,0
		c0,0,0,0,0,0c0,0,0,0,0,0c0,0,0,0,0,0c0,0,0,0,0,0c0,0,0,0,0,0c0,0,0,0,0,0c0,0,0,0,0,0c0,0,0,0,0,0c0,0,0,0,0,0c0,0,0,0,0,0
		c0,0,0,0,0,0c0,0,0,0,0,0c0,0,0,0,0,0c0,0,0,0,0,0c0,0,0,0,0,0c0,0,0,0,0,0c0,0,0,0,0,0c0,0,0,0,0,0c0,0,0,0,0,0c0,0,0,0,0,0
		c0,0,0,0,0,0c0,0,0,0,0,0c0,0,0,0,0,0c0,0,0,0,0,0c0,0,0,0,0,0c0,0,0,0,0,0c0,0,0,0,0,0c0,0,0,0,0,0c0,0,0,0,0,0c0,0,0,0,0,0
		c0,0,0,0,0,0c0,0,0,0,0,0l-0.3,1l-0.5-1c0,0,0,0,0,0c0,0,0,0,0,0c0,0,0,0,0,0c0,0,0,0,0,0c0,0,0,0,0,0c0,0,0,0,0,0c0,0,0,0,0,0
		c0,0,0,0,0,0c0,0,0,0,0,0c0,0,0,0,0,0c0,0,0,0,0,0c0,0,0,0,0,0c0,0,0,0,0,0c0,0,0,0,0,0c0,0,0,0,0,0c0,0,0,0,0,0c0,0,0,0,0,0
		c0,0,0,0,0,0c0,0,0,0,0,0c0,0,0,0,0,0c0,0,0,0,0,0c0,0,0,0,0,0c0,0,0,0,0,0c0,0,0,0,0,0c0,0,0,0,0,0c0,0,0,0,0,0c0,0,0,0,0,0
		c0,0,0,0,0,0c0,0,0,0,0,0c0,0,0,0,0,0c0,0,0,0,0,0c0,0,0,0,0,0c0,0,0,0,0,0c0,0,0,0,0,0c0,0,0,0,0,0c0,0,0,0,0,0c0,0,0,0,0,0
		c0,0,0,0,0,0c0,0,0,0,0,0c0,0,0,0,0,0c0,0,0,0,0,0c0,0,0,0,0,0c0,0,0,0,0,0c0,0,0,0,0,0c0,0,0,0,0,0c0,0,0,0,0,0c0,0,0,0,0,0
		c0,0,0,0,0,0c0,0,0,0,0,0c0,0,0,0,0,0c0,0,0,0,0,0c0,0,0,0,0,0c0,0,0,0,0,0c0,0,0,0,0,0c0,0,0,0,0,0c0,0,0,0,0,0c0,0,0,0,0,0
		c0,0,0,0,0,0c0,0,0,0,0,0c0,0,0,0,0,0c0,0,0,0,0,0c0,0,0,0,0,0c0,0,0,0,0,0c0,0,0,0,0,0c0,0,0,0,0,0c0,0,0,0,0,0c0,0,0,0,0,0
		c0,0,0,0,0,0l0.5,1l-1-0.3c0,0,0,0,0,0c0,0,0,0,0,0c0,0,0,0,0,0c0,0,0,0,0,0c0,0,0,0,0,0c0,0,0,0,0,0c0,0,0,0,0,0c0,0,0,0,0,0
		c0,0,0,0,0,0c0,0,0,0,0,0c0,0,0,0,0,0c0,0,0,0,0,0c0,0,0,0,0,0c0,0,0,0,0,0c0,0,0,0,0,0c0,0,0,0,0,0c0,0,0,0,0,0c0,0,0,0,0,0
		c0,0,0,0,0,0c0,0,0,0,0,0c0,0,0,0,0,0c0,0,0,0,0,0c0,0,0,0,0,0c0,0,0,0,0,0c0,0,0,0,0,0c0,0,0,0,0,0c0,0,0,0,0,0c0,0,0,0,0,0
		c0,0,0,0,0,0c0,0,0,0,0,0c0,0,0,0,0,0c0,0,0,0,0,0c0,0,0,0,0,0c0,0,0,0,0,0c0,0,0,0,0,0c0,0,0,0,0,0c0,0,0,0,0,0c0,0,0,0,0,0
		c0,0,0,0,0,0c0,0,0,0,0,0c0,0,0,0,0,0c0,0,0,0,0,0c0,0,0,0,0,0c0,0,0,0,0,0c0,0,0,0,0,0c0,0,0,0,0,0c0,0,0,0,0,0c0,0,0,0,0,0
		c0,0,0,0,0,0c0,0,0,0,0,0c0,0,0,0,0,0c0,0,0,0,0,0c0,0,0,0,0,0c0,0,0,0,0,0c0,0,0,0,0,0c0,0,0,0,0,0c0,0,0,0,0,0c0,0,0,0,0,0
		c0,0,0,0,0,0c0,0,0,0,0,0c0,0,0,0,0,0c0,0,0,0,0,0c0,0,0,0,0,0c0,0,0,0,0,0c0,0,0,0,0,0c0,0,0,0,0,0c0,0,0,0,0,0c0,0,0,0,0,0l1,0.3
		l-1,0.5c0,0,0,0,0,0c0,0,0,0,0,0c0,0,0,0,0,0c0,0,0,0,0,0c0,0,0,0,0,0c0,0,0,0,0,0c0,0,0,0,0,0c0,0,0,0,0,0c0,0,0,0,0,0
		c0,0,0,0,0,0c0,0,0,0,0,0c0,0,0,0,0,0c0,0,0,0,0,0c0,0,0,0,0,0c0,0,0,0,0,0c0,0,0,0,0,0c0,0,0,0,0,0c0,0,0,0,0,0c0,0,0,0,0,0
		c0,0,0,0,0,0c0,0,0,0,0,0c0,0,0,0,0,0c0,0,0,0,0,0c0,0,0,0,0,0c0,0,0,0,0,0c0,0,0,0,0,0c0,0,0,0,0,0c0,0,0,0,0,0c0,0,0,0,0,0
		c0,0,0,0,0,0c0,0,0,0,0,0c0,0,0,0,0,0c0,0,0,0,0,0c0,0,0,0,0,0s0,0,0,0c0,0,0,0,0,0c0,0,0,0,0,0c0,0,0,0,0,0c0,0,0,0,0,0
		c0,0,0,0,0,0c0,0,0,0,0,0c0,0,0,0,0,0c0,0,0,0,0,0c0,0,0,0,0,0c0,0,0,0,0,0c0,0,0,0,0,0c0,0,0,0,0,0c0,0,0,0,0,0c0,0,0,0,0,0
		c0,0,0,0,0,0c0,0,0,0,0,0c0,0,0,0,0,0c0,0,0,0,0,0c0,0,0,0,0,0c0,0,0,0,0,0c0,0,0,0,0,0c0,0,0,0,0,0c0,0,0,0,0,0c0,0,0,0,0,0
		c0,0,0,0,0,0c0,0,0,0,0,0c0,0,0,0,0,0c0,0,0,0,0,0c0,0,0,0,0,0c0,0,0,0,0,0c0,0,0,0,0,0c0,0,0,0,0,0c0,0,0,0,0,0l1-0.5l-0.3,1
		c0,0,0,0,0,0c0,0,0,0,0,0c0,0,0,0,0,0c0,0,0,0,0,0c0,0,0,0,0,0c0,0,0,0,0,0c0,0,0,0,0,0c0,0,0,0,0,0c0,0,0,0,0,0c0,0,0,0,0,0
		c0,0,0,0,0,0c0,0,0,0,0,0c0,0,0,0,0,0c0,0,0,0,0,0c0,0,0,0,0,0c0,0,0,0,0,0c0,0,0,0,0,0c0,0,0,0,0,0c0,0,0,0,0,0c0,0,0,0,0,0
		c0,0,0,0,0,0c0,0,0,0,0,0c0,0,0,0,0,0c0,0,0,0,0,0c0,0,0,0,0,0c0,0,0,0,0,0c0,0,0,0,0,0c0,0,0,0,0,0c0,0,0,0,0,0c0,0,0,0,0,0
		c0,0,0,0,0,0c0,0,0,0,0,0c0,0,0,0,0,0c0,0,0,0,0,0c0,0,0,0,0,0c0,0,0,0,0,0c0,0,0,0,0,0c0,0,0,0,0,0c0,0,0,0,0,0c0,0,0,0,0,0
		c0,0,0,0,0,0c0,0,0,0,0,0c0,0,0,0,0,0c0,0,0,0,0,0c0,0,0,0,0,0c0,0,0,0,0,0c0,0,0,0,0,0c0,0,0,0,0,0c0,0,0,0,0,0c0,0,0,0,0,0
		c0,0,0,0,0,0c0,0,0,0,0,0c0,0,0,0,0,0c0,0,0,0,0,0c0,0,0,0,0,0c0,0,0,0,0,0c0,0,0,0,0,0c0,0,0,0,0,0c0,0,0,0,0,0c0,0,0,0,0,0
		c0,0,0,0,0,0s0,0,0,0c0,0,0,0,0,0c0,0,0,0,0,0c0,0,0,0,0,0c0,0,0,0,0,0c0,0,0,0,0,0c0,0,0,0,0,0l0.3-1l0.5,1c0,0,0,0,0,0
		c0,0,0,0,0,0c0,0,0,0,0,0c0,0,0,0,0,0c0,0,0,0,0,0c0,0,0,0,0,0c0,0,0,0,0,0c0,0,0,0,0,0c0,0,0,0,0,0c0,0,0,0,0,0c0,0,0,0,0,0
		c0,0,0,0,0,0c0,0,0,0,0,0c0,0,0,0,0,0c0,0,0,0,0,0c0,0,0,0,0,0c0,0,0,0,0,0c0,0,0,0,0,0c0,0,0,0,0,0c0,0,0,0,0,0c0,0,0,0,0,0
		c0,0,0,0,0,0c0,0,0,0,0,0c0,0,0,0,0,0c0,0,0,0,0,0c0,0,0,0,0,0c0,0,0,0,0,0c0,0,0,0,0,0c0,0,0,0,0,0c0,0,0,0,0,0c0,0,0,0,0,0
		c0,0,0,0,0,0c0,0,0,0,0,0c0,0,0,0,0,0c0,0,0,0,0,0c0,0,0,0,0,0c0,0,0,0,0,0c0,0,0,0,0,0c0,0,0,0,0,0c0,0,0,0,0,0c0,0,0,0,0,0
		c0,0,0,0,0,0c0,0,0,0,0,0c0,0,0,0,0,0c0,0,0,0,0,0c0,0,0,0,0,0c0,0,0,0,0,0c0,0,0,0,0,0c0,0,0,0,0,0c0,0,0,0,0,0c0,0,0,0,0,0
		c0,0,0,0,0,0c0,0,0,0,0,0c0,0,0,0,0,0c0,0,0,0,0,0c0,0,0,0,0,0c0,0,0,0,0,0c0,0,0,0,0,0c0,0,0,0,0,0c0,0,0,0,0,0c0,0,0,0,0,0
		c0,0,0,0,0,0c0,0,0,0,0,0c0,0,0,0,0,0c0,0,0,0,0,0c0,0,0,0,0,0c0,0,0,0,0,0c0,0,0,0,0,0l-0.5-1l1,0.3c0,0,0,0,0,0c0,0,0,0,0,0
		c0,0,0,0,0,0c0,0,0,0,0,0c0,0,0,0,0,0c0,0,0,0,0,0c0,0,0,0,0,0c0,0,0,0,0,0c0,0,0,0,0,0c0,0,0,0,0,0c0,0,0,0,0,0c0,0,0,0,0,0
		c0,0,0,0,0,0c0,0,0,0,0,0c0,0,0,0,0,0c0,0,0,0,0,0c0,0,0,0,0,0c0,0,0,0,0,0c0,0,0,0,0,0c0,0,0,0,0,0c0,0,0,0,0,0c0,0,0,0,0,0
		c0,0,0,0,0,0c0,0,0,0,0,0c0,0,0,0,0,0s0,0,0,0c0,0,0,0,0,0c0,0,0,0,0,0c0,0,0,0,0,0c0,0,0,0,0,0c0,0,0,0,0,0c0,0,0,0,0,0
		c0,0,0,0,0,0c0,0,0,0,0,0c0,0,0,0,0,0c0,0,0,0,0,0c0,0,0,0,0,0c0,0,0,0,0,0c0,0,0,0,0,0c0,0,0,0,0,0c0,0,0,0,0,0c0,0,0,0,0,0
		c0,0,0,0,0,0c0,0,0,0,0,0c0,0,0,0,0,0c0,0,0,0,0,0c0,0,0,0,0,0c0,0,0,0,0,0c0,0,0,0,0,0c0,0,0,0,0,0c0,0,0,0,0,0c0,0,0,0,0,0
		c0,0,0,0,0,0c0,0,0,0,0,0c0,0,0,0,0,0c0,0,0,0,0,0c0,0,0,0,0,0c0,0,0,0,0,0c0,0,0,0,0,0c0,0,0,0,0,0c0,0,0,0,0,0c0,0,0,0,0,0
		c0,0,0,0,0,0c0,0,0,0,0,0c0,0,0,0,0,0c0,0,0,0,0,0c0,0,0,0,0,0c0,0,0,0,0,0l-1-0.3l1-0.5c0,0,0,0,0,0c0,0,0,0,0,0c0,0,0,0,0,0
		c0,0,0,0,0,0c0,0,0,0,0,0c0,0,0,0,0,0c0,0,0,0,0,0c0,0,0,0,0,0c0,0,0,0,0,0c0,0,0,0,0,0c0,0,0,0,0,0c0,0,0,0,0,0c0,0,0,0,0,0
		c0,0,0,0,0,0c0,0,0,0,0,0c0,0,0,0,0,0c0,0,0,0,0,0c0,0,0,0,0,0c0,0,0,0,0,0c0,0,0,0,0,0c0,0,0,0,0,0c0,0,0,0,0,0c0,0,0,0,0,0
		c0,0,0,0,0,0c0,0,0,0,0,0c0,0,0,0,0,0c0,0,0,0,0,0c0,0,0,0,0,0c0,0,0,0,0,0C11.3,9.1,11.3,9.1,11.2,9C11.3,9.1,11.3,9.1,11.2,9
		C11.3,9.1,11.3,9,11.2,9C11.3,9,11.3,9,11.2,9C11.3,9,11.3,9,11.2,9C11.3,9,11.3,9,11.2,9z"/>
</g>
<title>Group 6</title>
<desc>Created with Sketch.</desc>
<g id="index-V">
	<g id="index-copy-6" transform="translate(-264.000000, -1132.000000)">
		<g id="Group-16" transform="translate(0.000000, 986.000000)">
			<g id="Group-6" transform="translate(264.000000, 146.000000)">
				<path id="Fill-1" class="st2" d="M51.5,4.9L33.8,15c-1,0.6-1.6,1.7-1.6,2.8v20.3c0,1.2,0.6,2.2,1.6,2.8l17.7,10.2
					c1,0.6,2.3,0.6,3.3,0L72.6,41c1-0.6,1.6-1.7,1.6-2.8V17.9c0-1.2-0.6-2.2-1.6-2.8L54.8,4.9C53.8,4.3,52.5,4.3,51.5,4.9"/>
				<g id="Group-5">
					<g id="Clip-4">
					</g>
					<path id="Fill-3" class="st2" d="M53.2,1.5c-1.5,0-3.1,0.4-4.4,1.2l-15.5,8.9c-2.7,1.5-4.4,4.4-4.4,7.5v17.8
						c0,3.1,1.7,6,4.4,7.5l15.5,8.9c1.3,0.8,2.8,1.2,4.4,1.2c1.5,0,3.1-0.4,4.4-1.2l15.5-8.9c2.7-1.5,4.4-4.4,4.4-7.5V19.1
						c0-3.1-1.7-6-4.4-7.5L57.5,2.7C56.2,1.9,54.7,1.5,53.2,1.5 M53.2,4.8c0.9,0,1.9,0.2,2.8,0.7l15.5,8.9c1.7,1,2.8,2.8,2.8,4.7
						v17.8c0,1.9-1,3.8-2.8,4.7l-15.5,8.9c-0.9,0.5-1.8,0.7-2.8,0.7s-1.9-0.2-2.8-0.7l-15.5-8.9c-1.7-1-2.8-2.8-2.8-4.7V19.1
						c0-1.9,1-3.8,2.8-4.7l15.5-8.9C51.2,5,52.2,4.8,53.2,4.8"/>
				</g>
				<path id="Fill-6" class="st3" d="M53.2,3.5c-1.2,0-2.4,0.3-3.4,0.9l-15.5,8.9c-2.1,1.2-3.4,3.4-3.4,5.8v17.8
					c0,2.4,1.3,4.6,3.4,5.8l15.5,8.9c1,0.6,2.2,0.9,3.4,0.9s2.4-0.3,3.4-0.9l15.5-8.9c2.1-1.2,3.4-3.4,3.4-5.8V19.1
					c0-2.4-1.3-4.6-3.4-5.8L56.5,4.4C55.5,3.8,54.3,3.5,53.2,3.5 M53.2,4.8c0.9,0,1.9,0.2,2.8,0.7l15.5,8.9c1.7,1,2.8,2.8,2.8,4.7
					v17.8c0,1.9-1,3.8-2.8,4.7l-15.5,8.9c-0.9,0.5-1.8,0.7-2.8,0.7s-1.9-0.2-2.8-0.7l-15.5-8.9c-1.7-1-2.8-2.8-2.8-4.7V19.1
					c0-1.9,1-3.8,2.8-4.7l15.5-8.9C51.2,5,52.2,4.8,53.2,4.8"/>
				<path id="Fill-8" class="st3" d="M63.2,41c-0.4,0-0.7-0.3-0.7-0.7v-8.2c0-0.4,0.3-0.7,0.7-0.7s0.7,0.3,0.7,0.7v8.2
					C64,40.6,63.5,41,63.2,41"/>
				<path id="Fill-10" class="st3" d="M59.3,40.6L56,33.8l-3.3,6.8c-0.2,0.4-0.6,0.5-1,0.3s-0.5-0.6-0.3-1l4-8.2
					c0.1-0.3,0.4-0.4,0.7-0.4s0.5,0.2,0.7,0.4l4,8.2c0.2,0.4,0,0.8-0.3,1C60.2,41,60.2,41,60,41C59.8,41,59.5,40.8,59.3,40.6z"/>
				<path id="Fill-12" class="st3" d="M42.8,41c-0.4,0-0.7-0.3-0.7-0.7v-8.2c0-0.4,0.3-0.7,0.7-0.7s0.7,0.3,0.7,0.7v8.2
					C43.7,40.6,43.3,41,42.8,41"/>
				<path id="Fill-14" class="st3" d="M49.5,40.9c-0.2,0-0.4-0.1-0.5-0.2l-3.8-4c-0.3-0.3-0.3-0.7,0-1l3.6-3.8
					c0.3-0.3,0.8-0.3,1.1,0c0.3,0.3,0.3,0.7,0,1l-3.1,3.3l3.3,3.5c0.3,0.3,0.3,0.8,0,1S49.7,40.9,49.5,40.9"/>
				<path id="Fill-16" class="st3" d="M43,20.9h-8c-0.4,0-0.7-0.3-0.7-0.7c0-0.4,0.3-0.7,0.7-0.7h8c0.4,0,0.7,0.3,0.7,0.7
					S43.3,20.9,43,20.9"/>
				<path id="Fill-18" class="st3" d="M39,28.8c-0.4,0-0.7-0.3-0.7-0.7v-7.8c0-0.4,0.3-0.7,0.7-0.7s0.7,0.3,0.7,0.7v7.8
					C39.8,28.5,39.3,28.8,39,28.8"/>
				<path id="Fill-20" class="st3" d="M54.8,28.8c-0.4,0-0.7-0.3-0.7-0.7v-8.2c0-0.4,0.3-0.7,0.7-0.7s0.7,0.3,0.7,0.7v8.2
					C55.5,28.5,55.2,28.8,54.8,28.8"/>
				<path id="Fill-22" class="st3" d="M68.2,29h-1.1c-2,0-3.6-1.6-3.6-3.6v-5.5c0-0.4,0.3-0.7,0.7-0.7c0.4,0,0.7,0.3,0.7,0.7v5.5
					c0,1.2,1,2.1,2.2,2.1h1.1c1.2,0,2.2-1,2.2-2.1v-5.5c0-0.4,0.3-0.7,0.7-0.7c0.4,0,0.7,0.3,0.7,0.7v5.5C71.9,27.4,70.2,29,68.2,29
					"/>
				<path id="Fill-24" class="st3" d="M61.2,28.8c-0.2,0-0.4-0.1-0.5-0.2l-3.8-4c-0.3-0.3-0.3-0.7,0-1l3.6-3.8
					c0.3-0.3,0.8-0.3,1.1,0s0.3,0.7,0,1L58.5,24l3.3,3.5c0.3,0.3,0.3,0.8,0,1C61.7,28.7,61.5,28.8,61.2,28.8"/>
				<path id="Fill-26" class="st4" d="M47.8,20.6l-2.9,1.6c-0.1,0-0.1,0.1-0.1,0.2v3.3c0,0.1,0.1,0.2,0.1,0.2l2.9,1.6
					c0.1,0,0.2,0,0.3,0l2.9-1.6c0.1,0,0.1-0.1,0.1-0.2v-3.3c0-0.1-0.1-0.2-0.1-0.2L48,20.6C48,20.6,47.8,20.6,47.8,20.6 M48,29.1
					c-0.3,0-0.6-0.1-0.9-0.2l-2.9-1.6c-0.5-0.3-0.9-0.9-0.9-1.5v-3.3c0-0.6,0.3-1.2,0.9-1.5l2.9-1.6c0.5-0.3,1.2-0.3,1.8,0l2.9,1.6
					c0.5,0.3,0.9,0.9,0.9,1.5v3.3c0,0.6-0.3,1.2-0.9,1.5l-3,1.6C48.5,29,48.2,29.1,48,29.1"/>
				<path id="Fill-28" class="st4" d="M49,27.9v-4.4c0-0.1,0-0.2-0.1-0.2l-3.6-2.1l1.1-0.6l3.7,2.1c0.1,0,0.1,0.1,0.1,0.2v4.3
					L49,27.9z"/>
				<path id="Fill-51" class="st3" d="M91.6,41.5c-0.8,0-1.4-0.6-1.4-1.4V24.7c0-0.8,0.6-1.4,1.4-1.4s1.4,0.6,1.4,1.4v15.4
					C92.9,40.9,92.3,41.5,91.6,41.5"/>
				<path id="Fill-53" class="st3" d="M96.2,33.2h-4c-0.8,0-1.4-0.6-1.4-1.4c0-0.8,0.6-1.4,1.4-1.4h4c0.8,0,1.4,0.6,1.4,1.4
					C97.7,32.6,97.1,33.2,96.2,33.2"/>
				<path id="Fill-55" class="st3" d="M87.7,42.3c-0.8,0-1.4-0.6-1.4-1.4V29.3c0-0.8,0.6-1.4,1.4-1.4s1.4,0.6,1.4,1.4v11.6
					C89.1,41.6,88.4,42.3,87.7,42.3"/>
				<path id="Fill-57" class="st3" d="M91.2,42.4h-5c-0.8,0-1.4-0.6-1.4-1.4c0-0.8,0.6-1.4,1.4-1.4h5c1.2,0,2.5-0.4,3.5-1.2l2.7-2
					c0.6-0.5,1.5-0.3,1.9,0.3c0.5,0.6,0.3,1.5-0.3,1.9l-2.7,2C94.8,41.8,93.1,42.4,91.2,42.4"/>
				<path id="Fill-59" class="st3" d="M143.6,15.8H99.3c-0.8,0-1.4-0.6-1.4-1.4c0-0.8,0.6-1.4,1.4-1.4h44.2c0.8,0,1.4,0.6,1.4,1.4
					S144.4,15.8,143.6,15.8"/>
				<path id="Fill-61" class="st3" d="M107.7,15.5c-0.8,0-1.4-0.6-1.4-1.4v-1.2c0-0.8,0.6-1.4,1.4-1.4s1.4,0.6,1.4,1.4v1.2
					C109.1,14.9,108.4,15.5,107.7,15.5"/>
				<path id="Fill-63" class="st3" d="M110.8,24.7h-6.6c-0.8,0-1.4-0.6-1.4-1.4s0.6-1.4,1.4-1.4h6.6c0.8,0,1.4,0.6,1.4,1.4
					S111.7,24.7,110.8,24.7"/>
				<path id="Fill-65" class="st3" d="M116.1,29.8h-17c-0.8,0-1.4-0.6-1.4-1.4s0.6-1.4,1.4-1.4h17c0.8,0,1.4,0.6,1.4,1.4
					C117.4,29.2,116.8,29.8,116.1,29.8"/>
				<path id="Fill-67" class="st3" d="M105.1,33.7L105.1,33.7L105.1,33.7 M111.8,43h-8c-0.8,0-1.4-0.6-1.4-1.4
					c0-0.8,0.6-1.4,1.4-1.4h8c1.2,0,2.2-1,2.2-2.2s-1-2.2-2.2-2.2h-7.2c-0.8,0-1.5-0.4-1.9-1s-0.5-1.4-0.2-2.1l1.7-4.8
					c0.3-0.7,1-1.1,1.8-0.8c0.7,0.3,1.1,1,0.8,1.8l-1.5,4.2h6.5c2.7,0,5,2.2,5,4.9C116.7,40.8,114.4,43,111.8,43"/>
				<path id="Fill-69" class="st3" d="M121.7,15.8c-0.2,0-0.4,0.2-0.4,0.4v2.1c0,0.2,0.2,0.4,0.4,0.4h22.3c0.2,0,0.4-0.2,0.4-0.4
					v-2.1c0-0.2-0.2-0.4-0.4-0.4C143.9,15.8,121.7,15.8,121.7,15.8z M143.9,21.5h-22.3c-1.7,0-3.2-1.4-3.2-3.1v-2.1
					c0-1.7,1.4-3.1,3.2-3.1h22.3c1.7,0,3.2,1.4,3.2,3.1v2.1C147.1,20.1,145.8,21.5,143.9,21.5L143.9,21.5z"/>
				<path id="Fill-71" class="st3" d="M129.6,21.2c-0.5,0-1-0.3-1.2-0.8l-2.6-5.2c-0.3-0.7-0.1-1.5,0.6-1.8s1.5,0,1.8,0.6l2.6,5.2
					c0.3,0.7,0.1,1.5-0.6,1.8C129.9,21.2,129.8,21.2,129.6,21.2"/>
				<path id="Fill-73" class="st3" d="M138.6,21.2c-0.5,0-1-0.3-1.2-0.8l-2.6-5.2c-0.3-0.7-0.1-1.5,0.6-1.8c0.7-0.3,1.5,0,1.8,0.6
					l2.6,5.2c0.3,0.7,0.1,1.5-0.6,1.8C138.9,21.2,138.8,21.2,138.6,21.2"/>
				<path id="Fill-75" class="st3" d="M124.2,25.3c-0.2,0-0.4,0.2-0.4,0.4v8.4c0,0.2,0.2,0.4,0.4,0.4h17.3c0.2,0,0.4-0.2,0.4-0.4
					v-8.4c0-0.2-0.2-0.4-0.4-0.4H124.2z M141.4,37.3h-17.3c-1.7,0-3.2-1.4-3.2-3.1v-8.4c0-1.7,1.4-3.1,3.2-3.1h17.3
					c1.7,0,3.2,1.4,3.2,3.1v8.4C144.6,35.9,143.2,37.3,141.4,37.3L141.4,37.3z"/>
				<path id="Fill-77" class="st3" d="M143.2,29.2h-20.9c-0.8,0-1.4-0.6-1.4-1.4s0.6-1.4,1.4-1.4h20.9c0.8,0,1.4,0.6,1.4,1.4
					S144.1,29.2,143.2,29.2"/>
				<path id="Fill-79" class="st3" d="M143.2,33.2h-20.9c-0.8,0-1.4-0.6-1.4-1.4c0-0.8,0.6-1.4,1.4-1.4h20.9c0.8,0,1.4,0.6,1.4,1.4
					C144.6,32.6,144.1,33.2,143.2,33.2"/>
				<g id="Group-83" transform="translate(99.006336, 33.249238)">
					<g id="Clip-82">
					</g>
					<path id="Fill-81" class="st3" d="M47.3,9.8c-2.4,0-7.5-1.5-9.1-2.8c-0.6-0.5-0.7-1.3-0.2-1.9s1.4-0.7,1.9-0.2
						c1,0.8,5.8,2.3,7.5,2.2c0.8,0,1.4,0.5,1.5,1.3s-0.5,1.4-1.3,1.5C47.5,9.8,47.5,9.8,47.3,9.8"/>
				</g>
				<path id="Fill-84" class="st3" d="M119.3,43c-0.2,0-0.3,0-0.4,0c-0.8-0.1-1.3-0.7-1.3-1.5c0.1-0.8,0.7-1.3,1.5-1.2
					c1.7,0.1,6.5-1.3,7.5-2.1c0.6-0.5,1.5-0.4,1.9,0.2c0.5,0.6,0.4,1.5-0.2,1.9C126.8,41.6,121.8,43,119.3,43"/>
				<path id="Fill-86" class="st3" d="M91.6,12.9L91.6,12.9c-1.6,0-3.2,0.6-4.3,1.7c-1.1,1.1-1.7,2.6-1.7,4.2c0,1.8,0.9,3.6,2.5,5.3
					l0,0l0.1,0.1c0.5,0.6,1.6,1.8,3.4,1.8s2.8-1.2,3.4-1.8l0.1-0.1l0,0c1.7-1.7,2.5-3.4,2.5-5.3C97.6,15.5,94.9,12.9,91.6,12.9
					 M91.6,15.7c1.9,0,3.3,1.5,3.3,3.2c0,1.7-1.4,3-1.8,3.4c-0.3,0.3-0.9,1.1-1.5,1.1s-1.2-0.8-1.5-1.1c-0.3-0.3-1.8-1.7-1.8-3.4
					C88.2,17.1,89.7,15.7,91.6,15.7"/>
				<path id="Fill-88" class="st3" d="M116.9,26.1c-0.4,0-0.8-0.2-1.1-0.5l-8.4-10.1c-0.5-0.6-0.4-1.4,0.2-1.9s1.5-0.4,1.9,0.2
					l8.4,10.1c0.5,0.6,0.4,1.4-0.2,1.9C117.6,26,117.2,26.1,116.9,26.1"/>
				<path id="Fill-90" class="st3" d="M98.2,26.1c-0.3,0-0.6-0.1-0.9-0.3c-0.6-0.5-0.7-1.4-0.2-1.9l8.6-10.1
					c0.5-0.6,1.4-0.7,1.9-0.2c0.6,0.5,0.7,1.4,0.2,1.9l-8.6,10.1C99.1,25.9,98.7,26.1,98.2,26.1"/>
			</g>
		</g>
	</g>
</g>
<g>
	<g>
		<g>
			<g>
				<g>
					<rect id="SVGID_1_" x="17.8" y="8.7" class="st5" width="6.5" height="33.5"/>
				</g>
			</g>
			<g>
				<path class="st6" d="M21,13.8c1.6,0,2.9-2.5,2.9-5.5S22.6,2.8,21,2.8s-2.9,2.5-2.9,5.5C18.2,11.2,19.5,13.8,21,13.8L21,13.8z"/>
				<path class="st7" d="M21,3.2c1.2,0,2.5,2.1,2.5,5.1s-1.3,5.1-2.5,5.1s-2.5-2.1-2.5-5.1C18.6,5.3,19.9,3.2,21,3.2 M21,2.4
					c-1.8,0-3.3,2.6-3.3,5.9s1.5,5.9,3.3,5.9s3.3-2.6,3.3-5.9S22.9,2.4,21,2.4L21,2.4z"/>
			</g>
		</g>
		<g>
			<g>
				<g>
					<rect id="SVGID_3_" x="12.5" y="18.5" class="st8" width="6.5" height="33.5"/>
				</g>
			</g>
			<g>
				<path class="st6" d="M15.8,23.6c1.6,0,2.9-2.5,2.9-5.5s-1.3-5.5-2.9-5.5s-2.9,2.5-2.9,5.5S14.3,23.6,15.8,23.6L15.8,23.6z"/>
				<path class="st7" d="M15.8,13c1.2,0,2.5,2.1,2.5,5.1s-1.3,5.1-2.5,5.1s-2.5-2.1-2.5-5.1S14.6,13,15.8,13 M15.8,12.2
					c-1.8,0-3.3,2.6-3.3,5.9S14,24,15.8,24c1.8,0,3.3-2.6,3.3-5.9C19.1,14.8,17.6,12.2,15.8,12.2L15.8,12.2z"/>
			</g>
		</g>
		<g>
			<g>
				<g>
					<rect id="SVGID_5_" x="23" y="18.5" class="st8" width="6.5" height="33.5"/>
				</g>
			</g>
			<g>
				<path class="st6" d="M26.3,23.6c1.6,0,2.9-2.5,2.9-5.5s-1.3-5.5-2.9-5.5s-2.9,2.5-2.9,5.5S24.7,23.6,26.3,23.6L26.3,23.6z"/>
				<path class="st7" d="M26.3,13c1.2,0,2.5,2.1,2.5,5.1s-1.3,5.1-2.5,5.1s-2.5-2.1-2.5-5.1S25.1,13,26.3,13 M26.3,12.2
					c-1.8,0-3.3,2.6-3.3,5.9s1.5,5.9,3.3,5.9s3.3-2.6,3.3-5.9C29.6,14.8,28.1,12.2,26.3,12.2L26.3,12.2z"/>
			</g>
		</g>
	</g>
	<g>
		<path class="st5" d="M12.9,28.8c1.8,1,3.8,1.2,5.7,0.8c0.3-0.1,0.2-0.5-0.1-0.5c-1.8,0.4-3.7,0.2-5.3-0.7
			C12.9,28.2,12.7,28.6,12.9,28.8L12.9,28.8z"/>
	</g>
	<g>
		<path class="st5" d="M23.9,29.8c1.6,0.5,3.4,0.3,4.9-0.3c0.3-0.1,0.2-0.6-0.1-0.5c-1.5,0.6-3.1,0.8-4.6,0.3
			C23.7,29.3,23.6,29.7,23.9,29.8L23.9,29.8z"/>
	</g>
	<g>
		<path class="st9" d="M19.3,23.7c0.9,0.9,2.3,0.7,3.4,0.5c0.3-0.1,0.2-0.5-0.1-0.5c-0.9,0.2-2.2,0.4-2.9-0.4
			C19.4,23.2,19,23.5,19.3,23.7L19.3,23.7z"/>
	</g>
	<g>
		<path class="st10" d="M30.8,39.3c0.5-0.5,0.8-1,1.3-1.5c0.2-0.2-0.1-0.6-0.3-0.3c-0.5,0.5-0.8,1-1.3,1.5
			C30.2,39.2,30.6,39.5,30.8,39.3L30.8,39.3z"/>
	</g>
	<g>
		<polygon class="st5" points="7.3,47.1 7.6,47.5 7.5,48.1 8,48.4 8.1,49 8.6,49.1 8.8,49.7 9.3,49.7 9.5,50.3 10.1,50.2 10.4,50.7 
			10.9,50.6 11.2,51.1 11.7,51 12.1,51.5 12.6,51.3 12.9,51.8 13.5,51.6 13.8,52 14.3,51.8 14.7,52.2 15.2,52 15.6,52.4 16.1,52.2 
			16.5,52.5 17,52.3 17.4,52.7 17.9,52.4 18.3,52.7 18.8,52.5 19.2,52.8 19.7,52.5 20.1,52.8 20.6,52.5 21,52.9 21.5,52.5 22,52.8 
			22.4,52.5 22.9,52.8 23.3,52.5 23.8,52.7 24.2,52.4 24.7,52.7 25.1,52.3 25.6,52.5 26,52.2 26.5,52.4 26.9,52 27.4,52.2 
			27.8,51.8 28.3,52 28.6,51.6 29.2,51.8 29.5,51.3 30,51.5 30.4,51 30.9,51.1 31.2,50.6 31.7,50.7 32,50.2 32.6,50.3 32.8,49.7 
			33.3,49.7 33.5,49.1 34,49 34.1,48.4 34.6,48.1 34.5,47.5 34.8,47.1 34.5,46.6 34.6,46 34.1,45.7 34,45.1 33.5,45 33.3,44.4 
			32.8,44.4 32.6,43.8 32,43.9 31.7,43.4 31.2,43.5 30.9,43 30.4,43.1 30,42.6 29.5,42.8 29.2,42.3 28.6,42.5 28.3,42.1 27.8,42.3 
			27.4,41.9 26.9,42.1 26.5,41.7 26,41.9 25.6,41.6 25.1,41.8 24.7,41.4 24.2,41.7 23.8,41.4 23.3,41.6 22.9,41.3 22.4,41.6 
			22,41.3 21.5,41.6 21,41.2 20.6,41.6 20.1,41.3 19.7,41.6 19.2,41.3 18.8,41.6 18.3,41.4 17.9,41.7 17.4,41.4 17,41.8 16.5,41.6 
			16.1,41.9 15.6,41.7 15.2,42.1 14.7,41.9 14.3,42.3 13.8,42.1 13.5,42.5 12.9,42.3 12.6,42.8 12.1,42.6 11.7,43.1 11.2,43 
			10.9,43.5 10.4,43.4 10.1,43.9 9.5,43.8 9.3,44.4 8.8,44.4 8.6,45 8.1,45.1 8,45.7 7.5,46 7.6,46.6 		"/>
		<g>
			<g>
				<path class="st5" d="M14.6,40.6c-0.7-4.1-3-7.1-3.1-7.2c-0.1-0.1-0.1-0.1-0.2-0.1c-0.1,0-0.2,0.1-0.2,0.1c0,0.1-0.7,2-0.9,4.6
					c-2.3-2.9-5.1-4.4-5.3-4.5c-0.1,0-0.2,0-0.2,0c-0.1,0-0.1,0.1-0.1,0.2c0,0.1,0.2,3,1.8,6c-2.6-1.3-4.8-1.7-5-1.7
					c-0.1,0-0.2,0-0.2,0.1c-0.1,0.1-0.1,0.2,0,0.2C1.3,38.4,2.8,42,6,44.5c2.8,2.2,5.9,2.9,6.9,3.1c0.3,0.5,0.6,0.8,0.6,0.8
					c0,0.1,0.1,0.1,0.2,0.1l0,0c0.1,0,0.2-0.1,0.2-0.1C14,48.3,15.3,44.7,14.6,40.6z"/>
				<path class="st5" d="M40.9,38.1C40.8,38,40.7,38,40.7,38c-0.1,0-2.4,0.4-5,1.7c1.5-3,1.8-5.8,1.8-6c0-0.1,0-0.2-0.1-0.2
					s-0.2-0.1-0.2,0c-0.1,0.1-3,1.5-5.3,4.5c-0.1-2.6-0.8-4.5-0.9-4.6c0-0.1-0.1-0.1-0.2-0.1s-0.2,0-0.2,0.1
					c-0.1,0.1-2.5,3.1-3.1,7.2c-0.7,4.1,0.6,7.7,0.7,7.9c0,0.1,0.1,0.1,0.2,0.1l0,0c0.1,0,0.1,0,0.2-0.1c0,0,0.3-0.3,0.6-0.8
					c1-0.2,4.1-0.9,6.9-3.1c3.3-2.6,4.8-6.1,4.8-6.2C40.9,38.3,40.9,38.2,40.9,38.1z"/>
			</g>
			<g>
				<path class="st10" d="M3.9,40.7c1.6,1.8,3.6,3.2,6,3.4c0.4,0,0.4-0.5,0-0.6c-2.2-0.2-4.1-1.6-5.6-3.3C4,40,3.6,40.4,3.9,40.7
					L3.9,40.7z"/>
			</g>
			<g>
				<path class="st10" d="M5.7,36.7c1.2,2.3,2.5,4.7,4.6,6.3c0.3,0.2,0.6-0.3,0.3-0.5c-2-1.5-3.3-3.8-4.4-6.1
					C6,36.1,5.5,36.4,5.7,36.7L5.7,36.7z"/>
			</g>
			<g>
				<path class="st10" d="M7.4,37.3c0.8,1.2,1.7,2.3,2.7,3.4c0.2,0.3,0.6-0.1,0.4-0.4c-0.9-1.1-1.8-2.1-2.6-3.3
					C7.7,36.7,7.2,37,7.4,37.3L7.4,37.3z"/>
			</g>
			<g>
				<path class="st10" d="M31.7,41.6c1.1-1.4,2.4-2.6,3.5-3.9c0.2-0.3-0.2-0.7-0.4-0.4c-1.1,1.3-2.5,2.5-3.5,3.9
					C31.1,41.5,31.5,41.9,31.7,41.6L31.7,41.6z"/>
			</g>
			<g>
				<path class="st10" d="M33.3,44.1c1.7-1,3.3-2,4.7-3.4c0.3-0.3-0.1-0.6-0.4-0.4c-1.4,1.3-2.9,2.4-4.6,3.3
					C32.7,43.8,33,44.3,33.3,44.1L33.3,44.1z"/>
			</g>
			<g>
				<path class="st10" d="M30.1,36.8c-0.4,0.7-0.7,1.5-1.1,2.2c-0.2,0.3,0.3,0.6,0.5,0.3c0.4-0.7,0.7-1.5,1.1-2.2
					C30.8,36.8,30.3,36.5,30.1,36.8L30.1,36.8z"/>
			</g>
			<g>
				<path class="st10" d="M11.8,37.1c0,0.9,0.2,1.7,0.2,2.6c0,0.4,0.6,0.4,0.6,0c0-0.9-0.2-1.7-0.2-2.6
					C12.4,36.8,11.8,36.8,11.8,37.1L11.8,37.1z"/>
			</g>
		</g>
	</g>
	<g>
		<g>
			<g>
				<g>
					<path class="st6" d="M29.3,48.4c-0.1-0.2-0.3-0.2-0.5-0.1l-5.2,2.3l4.6-3.4c0.2-0.1,0.2-0.3,0.1-0.5c-0.1-0.1-0.3-0.1-0.5,0
						l-4.6,3.4l3.8-4.3c0.1-0.2,0.2-0.4,0-0.5c-0.1-0.1-0.3-0.1-0.5,0.1l-3.8,4.3l2.9-5c0.1-0.2,0.1-0.4-0.1-0.5
						c-0.1-0.1-0.4,0-0.5,0.2l-2.9,5l1.8-5.5c0.1-0.2,0-0.4-0.2-0.5s-0.3,0.1-0.4,0.3l-1.8,5.5l0.6-5.7c0-0.2-0.1-0.4-0.3-0.4
						c-0.2,0-0.3,0.1-0.3,0.4l-0.6,5.7l-0.5-5.8c0-0.2-0.2-0.4-0.3-0.4c-0.2,0-0.3,0.2-0.3,0.4l0.6,5.7l-1.8-5.5
						c-0.1-0.2-0.3-0.3-0.4-0.3C18,43.4,18,43.6,18,43.8l1.8,5.5l-2.9-5c-0.1-0.2-0.3-0.3-0.5-0.2c-0.1,0.1-0.2,0.3-0.1,0.5l2.9,5
						l-3.8-4.3c-0.1-0.2-0.4-0.2-0.5-0.1c-0.1,0.1-0.1,0.3,0,0.5l3.8,4.3l-4.6-3.4c-0.2-0.1-0.4-0.1-0.5,0s0,0.4,0.1,0.5l4.6,3.4
						l-5.2-2.3c-0.2-0.1-0.4,0-0.5,0.1c-0.1,0.2,0,0.4,0.2,0.4l7.3,3.2L20,52c-0.2,0.1-0.3,0.3-0.2,0.4c0,0,0,0.1,0.1,0.1v0.1
						l0.1,0.1c0,0,0,0.1,0.1,0.1c0,0,0.1,0,0.1,0.1l0.1,0.1h0.1l0.1,0.1h0.1h0.1h0.1h0.1H21h0.1c0,0,0.1,0,0.1-0.1h0.1l0.1-0.1
						c0,0,0.1,0,0.1-0.1l0.1-0.1c0,0,0.1,0,0.1-0.1v-0.1l0.1-0.1c0.1-0.2,0-0.4-0.2-0.4h0.2l7.3-3.2C29.3,48.7,29.4,48.5,29.3,48.4z
						"/>
				</g>
				<g>
					<g>
						<path id="SVGID_7_" class="st11" d="M26.5,50.5c-0.1-0.4-0.2-0.7-0.3-1c-0.1-0.3-0.3-0.6-0.5-0.9c-0.2-0.3-0.4-0.6-0.7-0.8
							c-0.3-0.3-0.5-0.5-0.8-0.7s-0.6-0.4-0.9-0.5s-0.7-0.2-1-0.3c-0.7-0.1-1.5-0.1-2.2,0c-0.4,0.1-0.7,0.2-1,0.3s-0.6,0.3-0.9,0.5
							s-0.6,0.4-0.8,0.7c-0.3,0.3-0.5,0.5-0.7,0.8s-0.4,0.6-0.5,0.9c-0.1,0.3-0.2,0.7-0.3,1l-9.8-2c0.2-1,0.5-2,0.9-2.9
							s0.9-1.8,1.4-2.6c0.6-0.8,1.2-1.6,1.9-2.3s1.5-1.3,2.3-1.9c0.8-0.6,1.7-1,2.6-1.4c0.9-0.4,1.9-0.7,2.9-0.9s2.1-0.3,3.1-0.3
							c1.1,0,2.1,0.1,3.1,0.3s2,0.5,2.9,0.9s1.8,0.9,2.6,1.4c0.8,0.6,1.6,1.2,2.3,1.9c0.7,0.7,1.3,1.5,1.9,2.3s1,1.7,1.4,2.6
							c0.4,0.9,0.7,1.9,0.9,2.9L26.5,50.5L26.5,50.5z"/>
					</g>
				</g>
			</g>
		</g>
		<g>
			<g>
				<path class="st1" d="M15,48.3h-0.1l-6.6-1.9C8.1,46.3,8,46.1,8.1,46c0.1-0.2,0.3-0.3,0.4-0.2l6.6,1.9c0.2,0.1,0.3,0.3,0.2,0.4
					C15.3,48.2,15.1,48.3,15,48.3L15,48.3z"/>
			</g>
			<g>
				<path class="st1" d="M16.8,46c-0.1,0-0.2,0-0.2-0.1l-4.5-4.4c-0.1-0.1-0.1-0.4,0-0.5s0.4-0.1,0.5,0l4.5,4.4
					c0.1,0.1,0.1,0.4,0,0.5C17,46,16.9,46,16.8,46L16.8,46z"/>
			</g>
			<g>
				<path class="st1" d="M19.6,44.7c-0.2,0-0.3-0.1-0.3-0.3L18,38.5c0-0.2,0.1-0.4,0.3-0.4c0.2,0,0.4,0.1,0.4,0.3l1.3,5.9
					C20,44.5,19.9,44.7,19.6,44.7C19.7,44.7,19.6,44.7,19.6,44.7L19.6,44.7z"/>
			</g>
			<g>
				<path class="st1" d="M27.1,48.3c-0.2,0-0.3-0.1-0.3-0.3c-0.1-0.2,0.1-0.4,0.2-0.4l6.6-1.9c0.2-0.1,0.4,0.1,0.4,0.2
					c0.1,0.2-0.1,0.4-0.2,0.4l-6.6,1.9C27.2,48.3,27.2,48.3,27.1,48.3L27.1,48.3z"/>
			</g>
			<g>
				<path class="st1" d="M25.3,46c-0.1,0-0.2,0-0.3-0.1c-0.1-0.1-0.1-0.4,0-0.5l4.5-4.4c0.1-0.1,0.4-0.1,0.5,0s0.1,0.4,0,0.5
					l-4.5,4.4C25.5,46,25.4,46,25.3,46L25.3,46z"/>
			</g>
			<g>
				<path class="st1" d="M22.5,44.7C22.5,44.7,22.4,44.7,22.5,44.7c-0.3-0.1-0.4-0.2-0.3-0.4l1.3-5.9c0-0.2,0.2-0.3,0.4-0.3
					c0.2,0,0.3,0.2,0.3,0.4l-1.3,5.9C22.8,44.6,22.6,44.7,22.5,44.7L22.5,44.7z"/>
			</g>
		</g>
	</g>
	<g>
		<g>
			<path class="st6" d="M12.4,28.8c1.2,0.8,2.7,1.1,4.2,1.2c1.5,0.2,3,0.3,4.5,0.1c0.2,0,0.3-0.1,0.3-0.3c-0.1-0.9-0.9-1.7-1.7-2
				c-0.7-0.3-1.9-0.2-2.2,0.7c-0.2,0.7,0.7,1.3,1.2,1.6c0.7,0.3,1.6,0.4,2.3-0.1c-0.2-0.1-0.4-0.2-0.5-0.3c-0.3,1-0.5,1.9-1.7,2
				c-0.4,0.1-0.2,0.7,0.2,0.6c1.4-0.2,1.8-1.3,2.2-2.5c0.1-0.3-0.3-0.5-0.5-0.3c-0.6,0.5-2.3,0-2.5-0.8c0-0.2,0.3-0.3,0.4-0.4
				c0.3-0.1,0.7,0,1,0.1c0.5,0.2,1.2,0.8,1.2,1.4c0.1-0.1,0.2-0.2,0.3-0.3c-1.4,0.2-2.8,0.1-4.2,0c-1.4-0.2-3-0.4-4.2-1.2
				C12.4,28,12,28.6,12.4,28.8L12.4,28.8z"/>
		</g>
		<g>
			<path class="st6" d="M29.4,28.2c-1.2,0.8-2.8,1-4.2,1.2c-1.4,0.2-2.8,0.2-4.2,0c0.1,0.1,0.2,0.2,0.3,0.3c0-0.6,0.6-1,1.1-1.3
				c0.3-0.2,0.7-0.3,1-0.2c0.2,0,0.6,0.2,0.5,0.4c-0.1,0.4-0.7,0.7-1,0.8c-0.4,0.2-1.1,0.3-1.5,0c-0.2-0.2-0.6,0-0.5,0.3
				c0.3,1.2,0.7,2.3,2.2,2.5c0.4,0.1,0.6-0.6,0.2-0.6c-1.2-0.2-1.4-1-1.7-2c-0.2,0.1-0.4,0.2-0.5,0.3c0.7,0.5,1.6,0.4,2.3,0.1
				c0.6-0.3,1.4-0.8,1.2-1.6c-0.1-1-1.5-0.9-2.2-0.7c-0.8,0.3-1.7,1.1-1.7,2c0,0.2,0.2,0.3,0.3,0.3c1.5,0.2,3,0.1,4.5-0.1
				c1.4-0.2,2.9-0.5,4.2-1.2C30.1,28.6,29.7,28,29.4,28.2L29.4,28.2z"/>
		</g>
	</g>
	<g>
		<g>
			<path class="st1" d="M30.6,44.3L30.6,44.3c0.4,0.4,0.8,0.7,1.3,0.8c0.5,0.1,1,0.1,1.5-0.1c1-0.4,1.6-1.3,1.5-2.4
				c0,0,0-0.1,0.1-0.1c1-0.4,1.6-1.3,1.5-2.4c-0.1-1-0.8-1.9-1.8-2.2c0,0-0.1,0-0.1-0.1c-0.1-1-0.8-1.9-1.8-2.2
				c-1-0.3-2.1,0.1-2.6,1h-0.1l0,0c-1-0.3-2.1,0.1-2.6,1c-0.6,0.9-0.5,2,0.1,2.8v0.1c-0.6,0.9-0.5,2,0.1,2.8
				c0.3,0.4,0.8,0.7,1.2,0.8C29.5,44.5,30,44.5,30.6,44.3C30.5,44.3,30.6,44.3,30.6,44.3L30.6,44.3z"/>
			<g>
				<g>
					<path class="st4" d="M31.8,38.9c-0.3,0.8-0.4,1.7-0.6,2.5c0,0.2,0.3,0.3,0.3,0.1c0.2-0.8,0.3-1.7,0.6-2.5
						C32.1,38.8,31.8,38.8,31.8,38.9L31.8,38.9z"/>
				</g>
				<g>
					<path class="st4" d="M30.5,39.5c0.5,0.7,1.2,1.2,1.9,1.8c0.1,0.1,0.4-0.1,0.2-0.2c-0.6-0.6-1.3-1.1-1.9-1.8
						C30.6,39.2,30.4,39.4,30.5,39.5L30.5,39.5z"/>
				</g>
				<g>
					<path class="st4" d="M30.4,40.9c0.9-0.1,1.7-0.5,2.5-0.7c0.2-0.1,0.1-0.4-0.1-0.3c-0.8,0.3-1.6,0.6-2.5,0.7
						C30.1,40.7,30.2,41,30.4,40.9L30.4,40.9z"/>
				</g>
				<g>
					<path class="st4" d="M31.8,38.6c-0.1-0.1-0.1-0.3,0.1-0.3c0.2-0.1,0.3,0.2,0.3,0.3C32.2,38.9,31.8,39,31.8,38.6
						c0-0.2-0.3-0.2-0.3,0c0,0.3,0.2,0.5,0.5,0.5s0.5-0.3,0.5-0.6c0-0.4-0.3-0.6-0.7-0.6c-0.4,0.1-0.5,0.5-0.3,0.8
						S31.9,38.8,31.8,38.6L31.8,38.6z"/>
				</g>
				<g>
					<path class="st4" d="M31.2,42.3c-0.1-0.1-0.1-0.3,0-0.4c0.1-0.1,0.3,0,0.4,0.1s0,0.3-0.1,0.4C31.3,42.4,31.2,42.4,31.2,42.3
						c-0.2-0.2-0.4,0-0.2,0.2c0.2,0.2,0.5,0.3,0.7,0c0.2-0.2,0.3-0.5,0.1-0.7c-0.1-0.3-0.6-0.4-0.8-0.2c-0.3,0.2-0.3,0.6-0.1,0.9
						C31,42.6,31.3,42.5,31.2,42.3L31.2,42.3z"/>
				</g>
				<g>
					<path class="st4" d="M30.3,39.3c-0.1,0-0.3-0.1-0.2-0.2c0-0.2,0.2-0.2,0.4-0.2C30.6,39,30.6,39.5,30.3,39.3
						c-0.2-0.1-0.3,0.2-0.1,0.3c0.3,0.2,0.6,0.1,0.7-0.2s-0.1-0.6-0.3-0.7c-0.3-0.1-0.7,0-0.8,0.4c-0.1,0.4,0.2,0.6,0.5,0.6
						C30.5,39.6,30.5,39.3,30.3,39.3L30.3,39.3z"/>
				</g>
				<g>
					<path class="st4" d="M33.1,41.7c-0.2,0-0.4-0.1-0.4-0.3s0.2-0.2,0.3-0.2s0.2,0.2,0.2,0.3C33.3,41.7,33.2,41.7,33.1,41.7
						c-0.2,0-0.2,0.3,0,0.3c0.7-0.1,0.4-1-0.1-1.1c-0.3-0.1-0.6,0.2-0.7,0.5c0,0.4,0.4,0.6,0.7,0.6S33.3,41.7,33.1,41.7L33.1,41.7z"
						/>
				</g>
				<g>
					<path class="st4" d="M30.1,41c-0.1,0.1-0.2,0.2-0.3,0.1c-0.1-0.1-0.1-0.3,0-0.4C30,40.5,30.4,40.8,30.1,41
						c-0.1,0.1,0,0.4,0.2,0.3c0.3-0.2,0.3-0.5,0.1-0.7c-0.2-0.2-0.6-0.3-0.8-0.1c-0.3,0.2-0.3,0.6-0.1,0.9c0.3,0.2,0.6,0.1,0.8-0.2
						C30.4,41,30.2,40.8,30.1,41L30.1,41z"/>
				</g>
				<g>
					<path class="st4" d="M33.6,39.8c-0.1,0.1-0.2,0.3-0.4,0.2c-0.1,0-0.2-0.3-0.1-0.4c0.1-0.1,0.2-0.1,0.4-0.1
						C33.6,39.6,33.6,39.7,33.6,39.8c-0.1,0.2,0.2,0.3,0.3,0.1c0.2-0.6-0.7-0.9-1-0.4c-0.2,0.2-0.1,0.7,0.2,0.8
						c0.3,0.2,0.7-0.1,0.8-0.3C33.9,39.7,33.6,39.6,33.6,39.8L33.6,39.8z"/>
				</g>
			</g>
		</g>
		<g>
			<path class="st4" d="M11.5,44.3L11.5,44.3c-0.4,0.4-0.8,0.7-1.3,0.8s-1,0.1-1.5-0.1c-1-0.4-1.6-1.3-1.5-2.4c0,0,0-0.1-0.1-0.1
				c-1-0.4-1.6-1.3-1.5-2.4c0-1,0.8-1.8,1.8-2.1c0,0,0.1,0,0.1-0.1c0.1-1,0.8-1.9,1.8-2.2s2.1,0.1,2.6,1H12l0,0c1-0.3,2.1,0.1,2.6,1
				c0.6,0.9,0.5,2-0.1,2.8v0.1c0.6,0.9,0.5,2-0.1,2.8c-0.3,0.4-0.8,0.7-1.2,0.8C12.6,44.5,12.1,44.5,11.5,44.3
				C11.6,44.3,11.5,44.3,11.5,44.3L11.5,44.3z"/>
			<g>
				<g>
					<path class="st1" d="M10,39c0.3,0.8,0.4,1.7,0.6,2.5c0,0.2,0.3,0.1,0.3-0.1c-0.2-0.8-0.3-1.7-0.6-2.5C10.3,38.8,10,38.8,10,39
						L10,39z"/>
				</g>
				<g>
					<path class="st1" d="M11.4,39.3c-0.5,0.7-1.2,1.2-1.9,1.8c-0.2,0.1,0.1,0.3,0.2,0.2c0.6-0.6,1.3-1.1,1.9-1.8
						C11.7,39.4,11.5,39.2,11.4,39.3L11.4,39.3z"/>
				</g>
				<g>
					<path class="st1" d="M11.8,40.6c-0.9-0.1-1.7-0.5-2.5-0.7c-0.2-0.1-0.3,0.2-0.1,0.3c0.8,0.3,1.6,0.6,2.5,0.7
						C11.9,41,12,40.7,11.8,40.6L11.8,40.6z"/>
				</g>
				<g>
					<path class="st1" d="M10.5,38.8c0.2-0.3,0.1-0.7-0.3-0.8c-0.4-0.1-0.7,0.2-0.7,0.5S9.7,39,10,39.1s0.6-0.2,0.6-0.5
						c0-0.2-0.3-0.2-0.3,0c0,0.3-0.4,0.2-0.4-0.1c0-0.1,0.1-0.3,0.3-0.3s0.2,0.2,0.1,0.3C10.2,38.8,10.4,39,10.5,38.8L10.5,38.8z"/>
				</g>
				<g>
					<path class="st1" d="M11.2,42.5c0.2-0.2,0.2-0.6-0.1-0.9c-0.2-0.2-0.6-0.1-0.8,0.2c-0.1,0.2,0,0.6,0.1,0.8
						C10.7,42.8,11,42.7,11.2,42.5c0.1-0.1-0.1-0.3-0.2-0.2c-0.1,0.1-0.2,0.1-0.3,0s-0.1-0.2-0.1-0.4c0-0.1,0.2-0.2,0.3-0.1
						c0.1,0.1,0.1,0.3,0,0.5S11.1,42.6,11.2,42.5L11.2,42.5z"/>
				</g>
				<g>
					<path class="st1" d="M11.8,39.6c0.3,0,0.6-0.3,0.5-0.6c-0.1-0.4-0.5-0.5-0.8-0.4s-0.4,0.4-0.3,0.7
						C11.3,39.6,11.6,39.7,11.8,39.6c0.3-0.1,0.1-0.4-0.1-0.3c-0.3,0.2-0.3-0.3-0.1-0.4c0.1-0.1,0.3,0,0.4,0.1
						c0,0.2-0.1,0.3-0.2,0.3C11.6,39.3,11.6,39.6,11.8,39.6L11.8,39.6z"/>
				</g>
				<g>
					<path class="st1" d="M9,42c0.3,0,0.7-0.2,0.7-0.6c0-0.3-0.4-0.6-0.7-0.5c-0.2,0-0.4,0.3-0.5,0.5C8.5,41.8,8.7,42,9,42
						c0.2,0,0.2-0.3,0-0.3c-0.1,0-0.2-0.1-0.2-0.2c0-0.1,0.1-0.2,0.2-0.3c0.1-0.1,0.3,0,0.3,0.2c0,0.1-0.1,0.2-0.1,0.2
						c-0.1,0.1-0.2,0.1-0.3,0.1S8.8,42,9,42L9,42z"/>
				</g>
				<g>
					<path class="st1" d="M11.8,41.2c0.2,0.3,0.5,0.4,0.8,0.2s0.2-0.6,0-0.9c-0.2-0.2-0.6-0.2-0.8,0s-0.2,0.6,0.1,0.7
						c0.2,0.1,0.3-0.2,0.2-0.3c-0.3-0.2,0.1-0.4,0.3-0.3c0.1,0.1,0.2,0.3,0.1,0.4c-0.1,0.1-0.3,0-0.3-0.1
						C11.9,40.8,11.7,41,11.8,41.2L11.8,41.2z"/>
				</g>
				<g>
					<path class="st1" d="M8.3,39.9c0.1,0.3,0.5,0.5,0.8,0.4s0.4-0.5,0.2-0.8C9,39,8,39.2,8.3,39.9C8.4,40,8.7,40,8.6,39.8
						c0-0.1,0-0.2,0.1-0.3c0.1,0,0.3,0,0.4,0.1C9.2,39.7,9.2,39.9,9,40c-0.2,0.1-0.4-0.1-0.4-0.2C8.5,39.6,8.2,39.7,8.3,39.9
						L8.3,39.9z"/>
				</g>
			</g>
		</g>
	</g>
	<g>
		<g>
			<path class="st1" d="M9.6,54.4C9.6,54.4,9.7,54.4,9.6,54.4c0.3,0.3,0.6,0.5,1,0.6s0.8,0.1,1.1-0.1c0.7-0.3,1.2-1,1.2-1.8V53
				c0.7-0.3,1.2-1,1.2-1.8s-0.6-1.4-1.3-1.6c0,0,0,0-0.1-0.1c0-0.8-0.6-1.4-1.3-1.6c-0.8-0.2-1.5,0.1-2,0.8c0,0,0,0-0.1,0l0,0
				c-0.8-0.2-1.5,0.1-2,0.8c-0.4,0.7-0.4,1.5,0.1,2.1v0.1C7,52.4,7,53.2,7.5,53.8c0.2,0.3,0.6,0.5,0.9,0.6
				C8.8,54.6,9.2,54.6,9.6,54.4L9.6,54.4L9.6,54.4z"/>
			<g>
				<g>
					<path class="st4" d="M10.5,50.5c-0.2,0.6-0.3,1.2-0.4,1.9c0,0.1,0.2,0.2,0.2,0.1c0.1-0.6,0.2-1.3,0.4-1.9
						C10.8,50.4,10.6,50.3,10.5,50.5L10.5,50.5z"/>
				</g>
				<g>
					<path class="st4" d="M9.6,50.9c0.4,0.5,0.9,0.9,1.4,1.3c0.1,0.1,0.3-0.1,0.2-0.2c-0.5-0.4-1-0.8-1.4-1.3
						C9.6,50.6,9.5,50.8,9.6,50.9L9.6,50.9z"/>
				</g>
				<g>
					<path class="st4" d="M9.5,51.9c0.6-0.1,1.2-0.3,1.8-0.6c0.1,0,0.1-0.3-0.1-0.2c-0.6,0.2-1.2,0.5-1.8,0.6
						C9.3,51.7,9.3,52,9.5,51.9L9.5,51.9z"/>
				</g>
				<g>
					<path class="st4" d="M10.6,50.2c-0.1-0.1,0-0.2,0.1-0.2s0.2,0.1,0.2,0.2C10.9,50.4,10.6,50.5,10.6,50.2c0-0.1-0.3-0.1-0.2,0
						c0,0.2,0.2,0.4,0.4,0.4s0.4-0.2,0.4-0.4c0-0.3-0.2-0.5-0.5-0.4s-0.3,0.4-0.2,0.6C10.4,50.5,10.6,50.4,10.6,50.2L10.6,50.2z"/>
				</g>
				<g>
					<path class="st4" d="M10.1,53c-0.1-0.1-0.1-0.2,0-0.3s0.2,0,0.3,0.1c0,0.1,0,0.2-0.1,0.3C10.2,53,10.1,53,10.1,53
						c-0.1-0.1-0.3,0-0.2,0.1c0.1,0.2,0.4,0.2,0.5,0c0.1-0.1,0.2-0.4,0.1-0.6c-0.1-0.2-0.4-0.3-0.6-0.1c-0.2,0.2-0.2,0.5-0.1,0.6
						C10,53.2,10.2,53.1,10.1,53L10.1,53z"/>
				</g>
				<g>
					<path class="st4" d="M9.4,50.7c-0.1,0-0.2-0.1-0.2-0.2c0-0.1,0.2-0.2,0.3-0.1C9.7,50.5,9.6,50.9,9.4,50.7
						c-0.1,0-0.2,0.2-0.1,0.2c0.2,0.1,0.4,0,0.5-0.2s0-0.5-0.3-0.6c-0.2-0.1-0.5,0-0.6,0.3c0,0.4,0.3,0.6,0.5,0.6S9.6,50.7,9.4,50.7
						L9.4,50.7z"/>
				</g>
				<g>
					<path class="st4" d="M11.5,52.5c-0.1,0-0.3-0.1-0.3-0.2c0-0.1,0.2-0.2,0.2-0.1C11.5,52.2,11.5,52.3,11.5,52.5
						C11.6,52.5,11.6,52.5,11.5,52.5c-0.2,0-0.1,0.3,0,0.2c0.5-0.1,0.3-0.7-0.1-0.8c-0.2-0.1-0.5,0.1-0.5,0.4c0,0.3,0.3,0.5,0.5,0.4
						C11.7,52.7,11.7,52.5,11.5,52.5L11.5,52.5z"/>
				</g>
				<g>
					<path class="st4" d="M9.3,52c-0.1,0.1-0.2,0.1-0.2,0.1C9,52,9,51.9,9.1,51.8S9.5,51.9,9.3,52c-0.1,0.1,0,0.3,0.1,0.2
						c0.2-0.1,0.3-0.4,0.1-0.5c-0.1-0.2-0.4-0.2-0.6-0.1c-0.2,0.2-0.3,0.5-0.1,0.6c0.2,0.2,0.5,0.1,0.6-0.1C9.5,52,9.3,51.9,9.3,52
						L9.3,52z"/>
				</g>
				<g>
					<path class="st4" d="M11.9,51.1c0,0.1-0.2,0.2-0.3,0.2s-0.1-0.2-0.1-0.3c0.1-0.1,0.2-0.1,0.3-0.1S11.9,51,11.9,51.1
						c-0.1,0.2,0.2,0.2,0.2,0.1c0.2-0.5-0.5-0.6-0.8-0.3c-0.1,0.2-0.1,0.5,0.2,0.6c0.2,0.1,0.5-0.1,0.6-0.3
						C12.1,51.1,11.9,50.9,11.9,51.1L11.9,51.1z"/>
				</g>
			</g>
		</g>
		<g>
			<path class="st4" d="M32.5,54.4C32.4,54.4,32.4,54.4,32.5,54.4c-0.3,0.3-0.6,0.5-1,0.6s-0.8,0.1-1.1-0.1c-0.7-0.3-1.2-1-1.2-1.8
				V53c-0.7-0.3-1.2-1-1.2-1.8s0.6-1.4,1.3-1.6c0,0,0,0,0.1-0.1c0-0.8,0.6-1.4,1.3-1.6c0.8-0.2,1.5,0.1,2,0.8c0,0,0,0,0.1,0l0,0
				c0.8-0.2,1.5,0.1,2,0.8c0.4,0.7,0.4,1.5-0.1,2.1v0.1c0.4,0.7,0.4,1.5-0.1,2.1c-0.2,0.3-0.6,0.5-0.9,0.6
				C33.3,54.6,32.9,54.6,32.5,54.4L32.5,54.4L32.5,54.4z"/>
			<g>
				<g>
					<path class="st1" d="M31.4,50.5c0.2,0.6,0.3,1.2,0.4,1.9c0,0.1,0.3,0.1,0.2-0.1c-0.1-0.6-0.2-1.3-0.4-1.9
						C31.5,50.3,31.3,50.4,31.4,50.5L31.4,50.5z"/>
				</g>
				<g>
					<path class="st1" d="M32.4,50.7C32,51.2,31.5,51.6,31,52c-0.1,0.1,0.1,0.3,0.2,0.2c0.5-0.4,1-0.8,1.4-1.3
						C32.6,50.8,32.5,50.6,32.4,50.7L32.4,50.7z"/>
				</g>
				<g>
					<path class="st1" d="M32.7,51.7c-0.6-0.1-1.2-0.3-1.8-0.6c-0.1,0-0.2,0.2-0.1,0.2c0.6,0.2,1.2,0.5,1.8,0.6
						C32.8,52,32.8,51.7,32.7,51.7L32.7,51.7z"/>
				</g>
				<g>
					<path class="st1" d="M31.7,50.4c0.1-0.2,0.1-0.5-0.2-0.6C31.2,49.7,31,50,31,50.2s0.2,0.4,0.4,0.4
						C31.6,50.7,31.8,50.5,31.7,50.4c0.1-0.2-0.2-0.2-0.2-0.1c0,0.2-0.3,0.1-0.3-0.1c0-0.1,0.1-0.3,0.2-0.2c0.1,0,0.2,0.2,0.1,0.3
						C31.5,50.4,31.7,50.5,31.7,50.4L31.7,50.4z"/>
				</g>
				<g>
					<path class="st1" d="M32.2,53.1c0.1-0.2,0.1-0.5,0-0.6c-0.2-0.2-0.5-0.1-0.6,0.1c-0.1,0.2,0,0.4,0.1,0.6
						C31.8,53.3,32.1,53.3,32.2,53.1c0.1-0.1-0.1-0.3-0.2-0.1c-0.1,0.1-0.1,0.1-0.2,0s-0.1-0.2-0.1-0.3s0.2-0.2,0.3-0.1
						c0.1,0.1,0.1,0.3,0,0.3C31.9,53.1,32.1,53.2,32.2,53.1L32.2,53.1z"/>
				</g>
				<g>
					<path class="st1" d="M32.7,51c0.2,0,0.4-0.2,0.4-0.4c0-0.3-0.3-0.4-0.6-0.3c-0.2,0.1-0.3,0.3-0.3,0.5
						C32.3,51,32.5,51.1,32.7,51c0.1-0.1,0-0.3-0.1-0.2c-0.2,0.1-0.3-0.2-0.1-0.3c0.1-0.1,0.2,0,0.3,0.1c0,0.1-0.1,0.2-0.2,0.2
						C32.5,50.7,32.5,51,32.7,51L32.7,51z"/>
				</g>
				<g>
					<path class="st1" d="M30.6,52.8c0.3,0,0.5-0.2,0.5-0.4S30.8,52,30.6,52s-0.3,0.2-0.4,0.4C30.2,52.6,30.4,52.7,30.6,52.8
						c0.1,0,0.2-0.2,0-0.2c-0.1,0-0.2,0-0.1-0.1c0-0.1,0.1-0.2,0.2-0.2s0.2,0,0.2,0.1s0,0.1-0.1,0.1c-0.1,0.1-0.1,0.1-0.2,0.1
						C30.4,52.5,30.4,52.7,30.6,52.8L30.6,52.8z"/>
				</g>
				<g>
					<path class="st1" d="M32.6,52.1c0.1,0.2,0.4,0.3,0.6,0.1c0.2-0.2,0.2-0.5,0-0.6c-0.2-0.2-0.4-0.1-0.6,0
						C32.4,51.8,32.5,52.1,32.6,52.1c0.2,0.2,0.3,0,0.2-0.1c-0.2-0.1,0.1-0.3,0.2-0.2c0.1,0.1,0.1,0.2,0.1,0.3
						c-0.1,0.1-0.2,0-0.3-0.1C32.8,51.9,32.6,52,32.6,52.1L32.6,52.1z"/>
				</g>
				<g>
					<path class="st1" d="M30,51.2c0.1,0.2,0.4,0.4,0.6,0.3c0.2-0.1,0.3-0.4,0.2-0.6C30.5,50.5,29.8,50.7,30,51.2
						c0,0.1,0.3,0.1,0.2-0.1c0-0.1,0-0.2,0.1-0.2s0.2,0,0.3,0.1c0.1,0.1,0.1,0.2,0,0.3s-0.3-0.1-0.3-0.2C30.2,50.9,30,51.1,30,51.2
						L30,51.2z"/>
				</g>
			</g>
		</g>
	</g>
</g>
<g>
	
		<radialGradient id="SVGID_4_" cx="63.5018" cy="43.8987" r="7.8511" gradientTransform="matrix(0.9713 -0.2379 0.2379 0.9713 1.8991 16.8828)" gradientUnits="userSpaceOnUse">
		<stop  offset="0" style="stop-color:#610B12"/>
		<stop  offset="0.9981" style="stop-color:#EE1522"/>
	</radialGradient>
	<path class="st12" d="M79.3,44.6c1.4-0.9,2.2-2.4,2-3.5l-1.5,0.1l0.7-1.3c-1-0.6-2.6-0.4-4,0.5c-0.4,0.3-0.7,0.6-1,1.1
		c0.1-0.7,0.2-1.3,0-1.8c-0.4-1.6-1.5-2.8-2.6-3L72.4,38l-1-1.1c-0.9,0.7-1.3,2.3-0.9,3.9c0.1,0.5,0.5,1.1,0.9,1.6
		c-0.5-0.2-1-0.4-1.4-0.5c-1.7-0.2-3.2,0.4-3.7,1.4l1.2,0.9l-1.3,0.6c0.4,1.1,1.7,2,3.4,2.2c0.6,0.1,1.4-0.1,2.1-0.4
		c-0.6,0.6-1.2,1.2-1.5,1.9c-0.6,1.6-0.4,3.2,0.4,4l1.1-0.9l0.2,1.5c1.1-0.1,2.4-1.1,3-2.7c0.2-0.5,0.3-1.2,0.2-1.9
		c0.3,0.6,0.6,1.2,1.1,1.6c1.3,1.1,2.8,1.5,3.9,1l-0.5-1.4l1.4,0.3c0.3-1.1-0.2-2.6-1.5-3.7c-0.5-0.5-1.3-0.8-2.2-1
		C78,45.1,78.7,44.9,79.3,44.6z"/>
	<path class="st1" d="M75.9,44.5C75.9,44.5,75.9,44.4,75.9,44.5C75.9,44.4,75.9,44.4,75.9,44.5C75.9,44.4,75.9,44.4,75.9,44.5
		C75.8,44.4,75.8,44.4,75.9,44.5C75.8,44.4,75.8,44.4,75.9,44.5c-0.1-0.1-0.1-0.1-0.1-0.1c0,0,0,0,0,0c0,0,0,0,0,0c0,0,0,0,0,0
		c0,0,0,0,0,0c0,0,0,0,0,0c0,0,0,0,0,0c0,0,0,0,0,0c0,0,0,0,0,0c0,0,0,0,0,0c0,0,0,0,0,0c0,0,0,0,0,0c0,0,0,0,0,0c0,0,0,0,0,0
		c0,0,0,0,0,0c0,0,0,0,0,0c0,0,0,0,0,0c0,0,0,0,0,0c0,0,0,0,0,0c0,0,0,0,0,0c0,0,0,0,0,0c0,0,0,0,0,0c0,0,0,0,0,0c0,0,0,0,0,0
		c0,0,0,0,0,0c0,0,0,0,0,0c0,0,0,0,0,0c0,0,0,0,0,0l-1.2,0.3l0.6-1c0,0,0,0,0,0c0,0,0,0,0,0c0,0,0,0,0,0c0,0,0,0,0,0c0,0,0,0,0,0
		c0,0,0,0,0,0c0,0,0,0,0,0c0,0,0,0,0,0c0,0,0,0,0,0c0,0,0,0,0,0c0,0,0,0,0,0c0,0,0,0,0,0c0,0,0,0,0,0c0,0,0,0,0,0c0,0,0,0,0,0
		c0,0,0,0,0,0c0,0,0,0,0,0c0,0,0,0,0,0c0,0,0,0,0,0c0,0,0,0,0,0c0,0,0,0,0,0c0,0,0,0,0,0c0,0,0,0,0,0c0,0,0,0,0,0c0,0,0,0,0,0
		s0,0,0,0c0,0,0,0,0,0c0,0,0,0,0,0c0,0,0,0,0,0c0,0,0,0,0,0c0,0,0,0,0,0c0,0,0,0,0,0c0,0,0,0,0,0c0,0,0,0,0,0c0,0,0,0,0,0
		c0,0,0,0,0,0c0,0,0,0,0,0c0,0,0,0,0,0c0,0,0,0,0,0c0,0,0,0,0,0c0,0,0,0,0,0c0,0,0,0,0,0c0,0,0,0,0,0c0,0,0,0,0,0c0,0,0,0,0,0
		c0,0,0,0,0,0c0,0,0,0,0,0c0,0,0,0,0,0c0,0,0,0,0,0c0,0,0,0,0,0c0,0,0,0,0,0c0,0,0,0,0,0c0,0,0,0,0,0c0,0,0,0,0,0c0,0,0,0,0,0
		c0,0,0,0,0,0c0,0,0,0,0,0c0,0,0,0,0,0c0,0,0,0,0,0c0,0,0,0,0,0c0,0,0,0,0,0c0,0,0,0,0,0s0,0,0,0c0,0,0,0,0,0c0,0,0,0,0,0
		c0,0,0,0,0,0c0,0,0,0,0,0c0,0,0,0,0,0l-0.6,1l-0.3-1.2c0,0,0,0,0,0c0,0,0,0,0,0c0,0,0,0,0,0c0,0,0,0,0,0c0,0,0,0,0,0s0,0,0,0
		c0,0,0,0,0,0c0,0,0,0,0,0c0,0,0,0,0,0c0,0,0,0,0,0c0,0,0,0,0,0c0,0,0,0,0,0c0,0,0,0,0,0c0,0,0,0,0,0c0,0,0,0,0,0c0,0,0,0,0,0
		c0,0,0,0,0,0c0,0,0,0,0,0c0,0,0,0,0,0c0,0,0,0,0,0c0,0,0,0,0,0c0,0,0,0,0,0c0,0,0,0,0,0c0,0,0,0,0,0c0,0,0,0,0,0c0,0,0,0,0,0
		c0,0,0,0,0,0c0,0,0,0,0,0c0,0,0,0,0,0c0,0,0,0,0,0c0,0,0,0,0,0c0,0,0,0,0,0c0,0,0,0,0,0c0,0,0,0,0,0c0,0,0,0,0,0c0,0,0,0,0,0
		c0,0,0,0,0,0c0,0,0,0,0,0c0,0,0,0,0,0c0,0,0,0,0,0c0,0,0,0,0,0c0,0,0,0,0,0c0,0,0,0,0,0c0,0,0,0,0,0c0,0,0,0,0,0c0,0,0,0,0,0
		c0,0,0,0,0,0c0,0,0,0,0,0c0,0,0,0,0,0c0,0,0,0,0,0c0,0,0,0,0,0c0,0,0,0,0,0c0,0,0,0,0,0c0,0,0,0,0,0c0,0,0,0,0,0c0,0,0,0,0,0
		c0,0,0,0,0,0c0,0,0,0,0,0c0,0,0,0,0,0s0,0,0,0c0,0,0,0,0,0c0,0,0,0,0,0c0,0,0,0,0,0c0,0,0,0,0,0c0,0,0,0,0,0c0,0,0,0,0,0
		c0,0,0,0,0,0c0,0,0,0,0,0l0.3,1.2l-1-0.6c0,0,0,0,0,0c0,0,0,0,0,0c0,0,0,0,0,0c0,0,0,0,0,0c0,0,0,0,0,0c0,0,0,0,0,0c0,0,0,0,0,0
		s0,0,0,0c0,0,0,0,0,0c0,0,0,0,0,0c0,0,0,0,0,0c0,0,0,0,0,0c0,0,0,0,0,0c0,0,0,0,0,0c0,0,0,0,0,0c0,0,0,0,0,0c0,0,0,0,0,0
		c0,0,0,0,0,0c0,0,0,0,0,0c0,0,0,0,0,0c0,0,0,0,0,0c0,0,0,0,0,0c0,0,0,0,0,0c0,0,0,0,0,0c0,0,0,0,0,0c0,0,0,0,0,0c0,0,0,0,0,0
		c0,0,0,0,0,0c0,0,0,0,0,0c0,0,0,0,0,0c0,0,0,0,0,0c0,0,0,0,0,0c0,0,0,0,0,0c0,0,0,0,0,0c0,0,0,0,0,0c0,0,0,0,0,0c0,0,0,0,0,0
		c0,0,0,0,0,0c0,0,0,0,0,0c0,0,0,0,0,0c0,0,0,0,0,0c0,0,0,0,0,0s0,0,0,0c0,0,0,0,0,0c0,0,0,0,0,0c0,0,0,0,0,0c0,0,0,0,0,0
		c0,0,0,0,0,0c0,0,0,0,0,0c0,0,0,0,0,0c0,0,0,0,0,0c0,0,0,0,0,0c0,0,0,0,0,0c0,0,0,0,0,0c0,0,0,0,0,0c0,0,0,0,0,0c0,0,0,0,0,0
		c0,0,0,0,0,0c0,0,0,0,0,0c0,0,0,0,0,0c0,0,0,0,0,0c0,0,0,0,0,0c0,0,0,0,0,0c0,0,0,0,0,0c0,0,0,0,0,0c0,0,0,0,0,0c0,0,0,0,0,0
		c0,0,0,0,0,0l1,0.6l-1.2,0.3c0,0,0,0,0,0c0,0,0,0,0,0c0,0,0,0,0,0c0,0,0,0,0,0c0,0,0,0,0,0c0,0,0,0,0,0c0,0,0,0,0,0c0,0,0,0,0,0
		c0,0,0,0,0,0c0,0,0,0,0,0c0,0,0,0,0,0c0,0,0,0,0,0c0,0,0,0,0,0c0,0,0,0,0,0c0,0,0,0,0,0c0,0,0,0,0,0c0,0,0,0,0,0c0,0,0,0,0,0
		c0,0,0,0,0,0c0,0,0,0,0,0c0,0,0,0,0,0c0,0,0,0,0,0c0,0,0,0,0,0c0,0,0,0,0,0c0,0,0,0,0,0c0,0,0,0,0,0c0,0,0,0,0,0c0,0,0,0,0,0
		c0,0,0,0,0,0c0,0,0,0,0,0c0,0,0,0,0,0c0,0,0,0,0,0c0,0,0,0,0,0c0,0,0,0,0,0c0,0,0,0,0,0c0,0,0,0,0,0c0,0,0,0,0,0c0,0,0,0,0,0
		c0,0,0,0,0,0c0,0,0,0,0,0c0,0,0,0,0,0c0,0,0,0,0,0c0,0,0,0,0,0c0,0,0,0,0,0c0,0,0,0,0,0c0,0,0,0,0,0c0,0,0,0,0,0c0,0,0,0,0,0
		c0,0,0,0,0,0c0,0,0,0,0,0c0,0,0,0,0,0c0,0,0,0,0,0c0,0,0,0,0,0c0,0,0,0,0,0c0,0,0,0,0,0c0,0,0,0,0,0c0,0,0,0,0,0c0,0,0,0,0,0
		c0,0,0,0,0,0c0,0,0,0,0,0c0,0,0,0,0,0c0,0,0,0,0,0c0,0,0,0,0,0c0,0,0,0,0,0c0,0,0,0,0,0c0,0,0,0,0,0c0,0,0,0,0,0c0,0,0,0,0,0L74,45
		l-0.6,1c0,0,0,0,0,0c0,0,0,0,0,0c0,0,0,0,0,0c0,0,0,0,0,0c0,0,0,0,0,0c0,0,0,0,0,0c0,0,0,0,0,0c0,0,0,0,0,0c0,0,0,0,0,0
		c0,0,0,0,0,0c0,0,0,0,0,0c0,0,0,0,0,0c0,0,0,0,0,0c0,0,0,0,0,0c0,0,0,0,0,0c0,0,0,0,0,0c0,0,0,0,0,0c0,0,0,0,0,0c0,0,0,0,0,0
		c0,0,0,0,0,0c0,0,0,0,0,0c0,0,0,0,0,0c0,0,0,0,0,0c0,0,0,0,0,0c0,0,0,0,0,0c0,0,0,0,0,0c0,0,0,0,0,0c0,0,0,0,0,0c0,0,0,0,0,0
		c0,0,0,0,0,0c0,0,0,0,0,0c0,0,0,0,0,0c0,0,0,0,0,0c0,0,0,0,0,0c0,0,0,0,0,0c0,0,0,0,0,0c0,0,0,0,0,0c0,0,0,0,0,0c0,0,0,0,0,0
		c0,0,0,0,0,0c0,0,0,0,0,0c0,0,0,0,0,0c0,0,0,0,0,0c0,0,0,0,0,0c0,0,0,0,0,0c0,0,0,0,0,0c0,0,0,0,0,0c0,0,0,0,0,0c0,0,0,0,0,0
		c0,0,0,0,0,0c0,0,0,0,0,0c0,0,0,0,0,0c0,0,0,0,0,0c0,0,0,0,0,0c0,0,0,0,0,0c0,0,0,0,0,0c0,0,0,0,0,0c0,0,0,0,0,0c0,0,0,0,0,0
		c0,0,0,0,0,0c0,0,0,0,0,0s0,0,0,0c0,0,0,0,0,0c0,0,0,0,0,0c0,0,0,0,0,0c0,0,0,0,0,0c0,0,0,0,0,0c0,0,0,0,0,0l0.6-1l0.3,1.2
		c0,0,0,0,0,0c0,0,0,0,0,0c0,0,0,0,0,0c0,0,0,0,0,0c0,0,0,0,0,0c0,0,0,0,0,0c0,0,0,0,0,0c0,0,0,0,0,0c0,0,0,0,0,0c0,0,0,0,0,0
		c0,0,0,0,0,0c0,0,0,0,0,0c0,0,0,0,0,0c0,0,0,0,0,0c0,0,0,0,0,0c0,0,0,0,0,0c0,0,0,0,0,0c0,0,0,0,0,0c0,0,0,0,0,0c0,0,0,0,0,0
		c0,0,0,0,0,0c0,0,0,0,0,0c0,0,0,0,0,0c0,0,0,0,0,0c0,0,0,0,0,0c0,0,0,0,0,0c0,0,0,0,0,0c0,0,0,0,0,0c0,0,0,0,0,0c0,0,0,0,0,0
		c0,0,0,0,0,0c0,0,0,0,0,0c0,0,0,0,0,0c0,0,0,0,0,0c0,0,0,0,0,0c0,0,0,0,0,0c0,0,0,0,0,0c0,0,0,0,0,0c0,0,0,0,0,0c0,0,0,0,0,0
		c0,0,0,0,0,0c0,0,0,0,0,0c0,0,0,0,0,0c0,0,0,0,0,0c0,0,0,0,0,0c0,0,0,0,0,0c0,0,0,0,0,0c0,0,0,0,0,0c0,0,0,0,0,0c0,0,0,0,0,0
		c0,0,0,0,0,0c0,0,0,0,0,0c0,0,0,0,0,0c0,0,0,0,0,0c0,0,0,0,0,0c0,0,0,0,0,0c0,0,0,0,0,0c0,0,0,0,0,0c0,0,0,0,0,0c0,0,0,0,0,0
		c0,0,0,0,0,0c0,0,0,0,0,0c0,0,0,0,0,0c0,0,0,0,0,0c0,0,0,0,0,0c0,0,0,0,0,0c0,0,0,0,0,0c0,0,0,0,0,0L74.2,45l1,0.6c0,0,0,0,0,0
		c0,0,0,0,0,0c0,0,0,0,0,0c0,0,0,0,0,0c0,0,0,0,0,0c0,0,0,0,0,0c0,0,0,0,0,0c0,0,0,0,0,0c0,0,0,0,0,0c0,0,0,0,0,0c0,0,0,0,0,0
		c0,0,0,0,0,0c0,0,0,0,0,0c0,0,0,0,0,0c0,0,0,0,0,0c0,0,0,0,0,0c0,0,0,0,0,0c0,0,0,0,0,0c0,0,0,0,0,0c0,0,0,0,0,0c0,0,0,0,0,0
		c0,0,0,0,0,0c0,0,0,0,0,0c0,0,0,0,0,0c0,0,0,0,0,0c0,0,0,0,0,0c0,0,0,0,0,0c0,0,0,0,0,0c0,0,0,0,0,0c0,0,0,0,0,0c0,0,0,0,0,0
		c0,0,0,0,0,0c0,0,0,0,0,0c0,0,0,0,0,0c0,0,0,0,0,0c0,0,0,0,0,0c0,0,0,0,0,0c0,0,0,0,0,0c0,0,0,0,0,0c0,0,0,0,0,0c0,0,0,0,0,0
		c0,0,0,0,0,0c0,0,0,0,0,0s0,0,0,0c0,0,0,0,0,0c0,0,0,0,0,0c0,0,0,0,0,0c0,0,0,0,0,0c0,0,0,0,0,0c0,0,0,0,0,0c0,0,0,0,0,0
		c0,0,0,0,0,0c0,0,0,0,0,0c0,0,0,0,0,0c0,0,0,0,0,0c0,0,0,0,0,0c0,0,0,0,0,0c0,0,0,0,0,0c0,0,0,0,0,0c0,0,0,0,0,0c0,0,0,0,0,0
		c0,0,0,0,0,0c0,0,0,0,0,0c0,0,0,0,0,0c0,0,0,0,0,0c0,0,0,0,0,0c0,0,0,0,0,0c0,0,0,0,0,0l-1-0.6l1.2-0.3c0,0,0,0,0,0c0,0,0,0,0,0
		c0,0,0,0,0,0c0,0,0,0,0,0c0,0,0,0,0,0c0,0,0,0,0,0c0,0,0,0,0,0c0,0,0,0,0,0c0,0,0,0,0,0c0,0,0,0,0,0c0,0,0,0,0,0c0,0,0,0,0,0
		c0,0,0,0,0,0c0,0,0,0,0,0c0,0,0,0,0,0c0,0,0,0,0,0c0,0,0,0,0,0c0,0,0,0,0,0c0,0,0,0,0,0c0,0,0,0,0,0c0,0,0,0,0,0c0,0,0,0,0,0
		c0,0,0,0,0,0c0,0,0,0,0,0c0,0,0,0,0,0c0,0,0,0,0,0c0,0,0,0,0,0c0,0,0,0,0,0c0,0,0,0,0,0c0,0,0,0,0,0C75.9,44.6,75.9,44.6,75.9,44.5
		C75.9,44.5,75.9,44.5,75.9,44.5C75.9,44.5,75.9,44.5,75.9,44.5C75.9,44.5,75.9,44.5,75.9,44.5C75.9,44.5,75.9,44.5,75.9,44.5z"/>
</g>
</svg>
