<?xml version="1.0" encoding="UTF-8"?>
<svg width="219px" height="100px" viewBox="0 0 219 100" version="1.1" xmlns="http://www.w3.org/2000/svg" xmlns:xlink="http://www.w3.org/1999/xlink">
    <!-- Generator: Sketch 54.1 (76490) - https://sketchapp.com -->
    <title>logo</title>
    <desc>Created with Sketch.</desc>
    <defs>
        <polygon id="path-1" points="0 0.370854835 89.2121016 0.370854835 89.2121016 99.5586278 0 99.5586278"></polygon>
        <polygon id="path-3" points="0.20028009 0.497820417 20.781826 0.497820417 20.781826 10.3659296 0.20028009 10.3659296"></polygon>
    </defs>
    <g id="member" stroke="none" stroke-width="1" fill="none" fill-rule="evenodd">
        <g id="member/dashboard" transform="translate(-220.000000, -16.000000)">
            <g id="header">
                <g id="logo">
                    <g transform="translate(220.000000, 16.000000)">
                        <path d="M41.5949645,6.62142313 L9.01263921,25.6557172 C7.15079205,26.7435438 6.00337462,28.7540995 6.00337462,30.930287 L6.00548675,68.9994094 C6.00548675,71.1745283 7.15237615,73.185084 9.01475134,74.2729106 L41.5986607,93.3077389 C43.4610359,94.3955655 45.7548147,94.3955655 47.6171899,93.3077389 L80.1995152,74.2734449 C82.0613623,73.1856183 83.2087798,71.1750626 83.2087798,68.9994094 L83.2071957,30.930287 C83.2066676,28.7546338 82.0597782,26.7440781 80.197403,25.6562515 L47.6134937,6.62142313 C45.7511185,5.53359653 43.4568116,5.53359653 41.5949645,6.62142313" id="Fill-1" fill="#FBD100"></path>
                        <g id="Group-5">
                            <mask id="mask-2" fill="white">
                                <use xlink:href="#path-1"></use>
                            </mask>
                            <g id="Clip-4"></g>
                            <path d="M44.6043347,0.370854835 C41.7798819,0.370854835 38.9945036,1.12634934 36.5486511,2.55452248 L8.05594758,19.1999792 C3.08662154,22.1033435 -0.000264016897,27.5136245 -0.000264016897,33.3192846 L0.00132008449,66.6107324 C0.00132008449,72.4158581 3.08820565,77.8256048 8.05753168,80.7284348 L36.5523474,97.3744259 C38.9981999,98.8036676 41.7835781,99.5586278 44.6080309,99.5586278 C47.4319556,99.5586278 50.2178619,98.8036676 52.6637145,97.3744259 L81.156418,80.7289691 C86.125744,77.8261391 89.2126296,72.4158581 89.2121016,66.6096638 L89.2110455,33.3187503 C89.2105175,27.5130903 86.1236319,22.1033435 81.1548339,19.2010478 L52.6594902,2.55452248 C50.2141657,1.12634934 47.4282594,0.370854835 44.6043347,0.370854835 M44.6043347,6.44580005 C46.3489583,6.44580005 48.0946381,6.9026231 49.6581461,7.81573492 L78.1529618,24.461726 C81.280506,26.2890182 83.2067732,29.6652344 83.2067732,33.3192846 L83.2083573,66.6101981 C83.2088854,70.2642482 81.2820901,73.6409988 78.1545459,75.468291 L49.6618424,92.1137477 C48.0978063,93.0268595 46.3531826,93.4836826 44.6080309,93.4836826 C42.8628792,93.4836826 41.1177275,93.0268595 39.5542195,92.1137477 L11.0594038,75.4672224 C7.93185964,73.6404645 6.00506432,70.2642482 6.00506432,66.6101981 L6.00348022,33.3192846 C6.00348022,29.6652344 7.9297475,26.2884839 11.0578197,24.4611917 L39.5505232,7.81573492 C41.1140313,6.9026231 42.858655,6.44580005 44.6043347,6.44580005" id="Fill-3" fill="#FBD100" mask="url(#mask-2)"></path>
                        </g>
                        <path d="M44.6043347,4.01566167 C42.4114103,4.01566167 40.2485839,4.60231865 38.3497744,5.71151709 L9.85654282,22.3569738 C5.99872792,24.6106342 3.60198253,28.8112692 3.60251056,33.3191243 L3.60356663,66.6100378 C3.60409466,71.1178929 6.00031202,75.3179935 9.85865495,77.5716539 L38.3534706,94.217645 C40.2522801,95.3273777 42.4151066,95.9135004 44.6080309,95.9135004 C46.8009553,95.9135004 48.9632536,95.3268434 50.8625912,94.217645 L79.3552947,77.5721882 C83.2136377,75.3185278 85.6103831,71.1178929 85.609855,66.6100378 L85.608799,33.3191243 C85.6082709,28.8112692 83.2115255,24.6111685 79.3537106,22.3575081 L50.858895,5.71151709 C48.9595574,4.60231865 46.796731,4.01566167 44.6043347,4.01566167 M44.6043347,6.44563976 C46.3489583,6.44563976 48.0946381,6.90246281 49.6581461,7.81557463 L78.1529618,24.4621 C81.280506,26.2888579 83.2067732,29.6650741 83.2067732,33.3191243 L83.2083573,66.6100378 C83.2088854,70.2640879 81.2820901,73.6408385 78.1545459,75.4681307 L49.6618424,92.1135874 C48.0978063,93.0272336 46.3531826,93.4835223 44.6080309,93.4835223 C42.8628792,93.4835223 41.1177275,93.0266993 39.5542195,92.1135874 L11.0594038,75.4670621 C7.93185964,73.6403042 6.00506432,70.2640879 6.00506432,66.6100378 L6.00348022,33.3191243 C6.00348022,29.6650741 7.9297475,26.2883236 11.0578197,24.4610314 L39.5505232,7.81557463 C41.1140313,6.90246281 42.858655,6.44563976 44.6043347,6.44563976" id="Fill-6" fill="#201816"></path>
                        <path d="M63.0486079,74.320463 C62.2945757,74.320463 61.6831125,73.7022825 61.6831125,72.9393079 L61.6831125,57.625851 C61.6831125,56.8628763 62.2945757,56.2441616 63.0486079,56.2441616 C63.8026402,56.2441616 64.4135753,56.8628763 64.4135753,57.625851 L64.4135753,72.9393079 C64.4135753,73.7022825 63.8026402,74.320463 63.0486079,74.320463" id="Fill-8" fill="#201816"></path>
                        <path d="M55.9958189,73.536811 L49.8574261,60.7815633 L43.7179772,73.536811 C43.3884841,74.2233814 42.5710877,74.5092297 41.8930924,74.1742261 C41.215097,73.8402912 40.9331269,73.013201 41.263148,72.3276993 L48.6297475,57.0211882 C48.8583861,56.5461991 49.3352007,56.2443219 49.8574261,56.2443219 C50.3796515,56.2443219 50.855938,56.5461991 51.0845766,57.0211882 L58.450648,72.3276993 C58.7811972,73.0137353 58.4992272,73.8402912 57.8212318,74.1742261 C57.6290275,74.2693308 57.4246784,74.3142117 57.2245536,74.3142117 C56.7186972,74.3142117 56.2323781,74.0283633 55.9958189,73.536811 Z" id="Fill-10" fill="#201816"></path>
                        <path d="M25.7716926,74.2831691 C25.0176603,74.2831691 24.4067252,73.6649887 24.4067252,72.902014 L24.4067252,57.6259578 C24.4067252,56.8629832 25.0176603,56.2442685 25.7716926,56.2442685 C26.5257248,56.2442685 27.137188,56.8629832 27.137188,57.6259578 L27.137188,72.902014 C27.137188,73.6649887 26.5257248,74.2831691 25.7716926,74.2831691" id="Fill-12" fill="#201816"></path>
                        <path d="M37.7780194,74.2393568 C37.4142041,74.2393568 37.0509169,74.0929597 36.7816196,73.802837 L29.8263585,66.2997187 C29.334231,65.7686285 29.333703,64.9420726 29.8253024,64.4104481 L36.4230847,57.275994 C36.9384457,56.7192576 37.8017809,56.6904056 38.3530482,57.2113442 C38.9032594,57.732817 38.9323013,58.6074595 38.4169403,59.164196 L32.693054,65.3534805 L38.7733631,71.9130322 C39.2892521,72.4692343 39.2617944,73.3433425 38.7115831,73.8653496 C38.4480943,74.1154002 38.1127928,74.2393568 37.7780194,74.2393568" id="Fill-14" fill="#201816"></path>
                        <path d="M25.8457229,36.6969434 L11.0708093,36.6969434 C10.3167771,36.6969434 9.70531394,36.0782287 9.70531394,35.3152541 C9.70531394,34.5522794 10.3167771,33.934099 11.0708093,33.934099 L25.8457229,33.934099 C26.5997552,33.934099 27.2106903,34.5522794 27.2106903,35.3152541 C27.2106903,36.0782287 26.5997552,36.6969434 25.8457229,36.6969434" id="Fill-16" fill="#201816"></path>
                        <path d="M18.603053,51.5231758 C17.8490207,51.5231758 17.2380856,50.9049954 17.2380856,50.1420207 L17.2380856,35.5589464 C17.2380856,34.7954375 17.8490207,34.1772571 18.603053,34.1772571 C19.3570853,34.1772571 19.9680204,34.7954375 19.9680204,35.5589464 L19.9680204,50.1420207 C19.9680204,50.9049954 19.3570853,51.5231758 18.603053,51.5231758" id="Fill-18" fill="#201816"></path>
                        <path d="M47.4884025,51.5179397 C46.7343702,51.5179397 46.1234351,50.899225 46.1234351,50.1362503 L46.1234351,34.8607285 C46.1234351,34.0977538 46.7343702,33.4790391 47.4884025,33.4790391 C48.2424347,33.4790391 48.8533698,34.0977538 48.8533698,34.8607285 L48.8533698,50.1362503 C48.8533698,50.899225 48.2424347,51.5179397 47.4884025,51.5179397" id="Fill-20" fill="#201816"></path>
                        <path d="M72.4214718,51.852409 L70.45613,51.852409 C66.7651738,51.852409 63.7627736,48.8144021 63.7627736,45.0796732 L63.7627736,34.8607285 C63.7627736,34.0977538 64.3737087,33.4790391 65.127741,33.4790391 C65.8817732,33.4790391 66.4932364,34.0977538 66.4932364,34.8607285 L66.4932364,45.0796732 C66.4932364,47.29059 68.2711262,49.0895645 70.45613,49.0895645 L72.4214718,49.0895645 C74.6064756,49.0895645 76.3843654,47.29059 76.3843654,45.0796732 L76.3843654,34.8607285 C76.3843654,34.0977538 76.9953005,33.4790391 77.7493328,33.4790391 C78.503893,33.4790391 79.1148281,34.0977538 79.1148281,34.8607285 L79.1148281,45.0796732 C79.1148281,48.8144021 76.112428,51.852409 72.4214718,51.852409" id="Fill-22" fill="#201816"></path>
                        <path d="M59.5102007,51.4694256 C59.1469134,51.4694256 58.7841542,51.3235628 58.515385,51.0345087 L51.5442828,43.5356647 C51.0505712,43.0045745 51.0495152,42.1769501 51.5416427,41.6447913 L58.1394249,34.5108715 C58.6547859,33.9541351 59.5186492,33.9247488 60.0699165,34.4462217 C60.6201277,34.9676945 60.6486415,35.8418027 60.1338086,36.3990734 L54.4109783,42.5867551 L60.5044883,49.1414981 C61.0209053,49.6971659 60.9950317,50.5712741 60.4453485,51.0938156 C60.1818596,51.3449347 59.8455021,51.4694256 59.5102007,51.4694256" id="Fill-24" fill="#201816"></path>
                        <path d="M34.7593558,36.1762186 L29.5223166,39.2366659 C29.3702429,39.325359 29.2757248,39.4904565 29.2757248,39.6678428 L29.2757248,45.7876688 C29.2757248,45.9650551 29.3702429,46.1306869 29.5223166,46.21938 L34.7593558,49.2787587 C34.9114295,49.3679862 35.0999376,49.3674519 35.2520113,49.2787587 L40.4890505,46.2188457 C40.6411242,46.1301526 40.7351142,45.9645208 40.7351142,45.7871345 L40.7351142,39.6673085 C40.7351142,39.4899222 40.6411242,39.3248248 40.4890505,39.2355973 L35.2520113,36.1762186 C35.0999376,36.0875255 34.9109015,36.0875255 34.7593558,36.1762186 M35.0054195,52.1073216 C34.4483439,52.1073216 33.8907402,51.9619931 33.3938604,51.6713361 L28.1568212,48.6124916 C27.1625336,48.0311776 26.5452621,46.9492283 26.5452621,45.7876688 L26.5452621,39.6678428 C26.5452621,38.5062833 27.1625336,37.424334 28.1568212,36.8435543 L33.3938604,33.7836412 C34.38762,33.2028615 35.6232191,33.2028615 36.6169787,33.7836412 L41.8545459,36.84302 C42.8483055,37.4232654 43.466105,38.505749 43.466105,39.6673085 L43.466105,45.7871345 C43.466105,46.9492283 42.8483055,48.0311776 41.8545459,48.6114231 L36.6175067,51.6713361 C36.1206269,51.9619931 35.5630232,52.1073216 35.0054195,52.1073216" id="Fill-26" fill="#DB3412"></path>
                        <path d="M36.9965822,49.8563327 L36.9965822,41.5576476 C36.9965822,41.3888101 36.9068164,41.2311928 36.7616071,41.146774 L30.2398618,37.2229044 L32.2606471,36.0405074 L39.02476,39.9921604 C39.1699693,40.0765792 39.259735,40.2341965 39.259735,40.403034 L39.259735,48.5334158 L36.9965822,49.8563327 Z" id="Fill-28" fill="#DB3412"></path>
                        <path d="M115.123406,75.3290535 C113.721477,75.3290535 112.58462,74.1787142 112.58462,72.7601584 L112.58462,43.8723781 C112.58462,42.4538223 113.721477,41.3040173 115.123406,41.3040173 C116.525336,41.3040173 117.662193,42.4538223 117.662193,43.8723781 L117.662193,72.7601584 C117.662193,74.1787142 116.525336,75.3290535 115.123406,75.3290535" id="Fill-51" fill="#201816"></path>
                        <path d="M123.807608,59.7217872 L116.45157,59.7217872 C115.04964,59.7217872 113.912783,58.571448 113.912783,57.1528922 C113.912783,55.7343364 115.04964,54.5839972 116.45157,54.5839972 L123.807608,54.5839972 C125.209538,54.5839972 126.346395,55.7343364 126.346395,57.1528922 C126.346395,58.571448 125.209538,59.7217872 123.807608,59.7217872" id="Fill-53" fill="#201816"></path>
                        <path d="M108.027688,76.7232454 C106.625758,76.7232454 105.488902,75.5729061 105.488902,74.1543503 L105.488902,52.4742226 C105.488902,51.0556668 106.625758,49.9058619 108.027688,49.9058619 C109.429618,49.9058619 110.566475,51.0556668 110.566475,52.4742226 L110.566475,74.1543503 C110.566475,75.5729061 109.429618,76.7232454 108.027688,76.7232454" id="Fill-55" fill="#201816"></path>
                        <path d="M114.440131,76.9692352 L105.206932,76.9692352 C103.805002,76.9692352 102.668673,75.8194303 102.668673,74.4003402 C102.668673,72.9817844 103.805002,71.8314452 105.206932,71.8314452 L114.440131,71.8314452 C116.724405,71.8314452 118.984917,71.0631276 120.806106,69.6675465 L125.819787,65.827027 C126.937106,64.9721535 128.530184,65.1938863 129.376623,66.3244566 C130.222533,67.4555611 130.002343,69.0669978 128.884495,69.9234742 L123.870814,73.7639937 C121.173618,75.8311848 117.823771,76.9692352 114.440131,76.9692352" id="Fill-57" fill="#201816"></path>
                        <path d="M210.736439,27.1552722 L129.47415,27.1552722 C128.072221,27.1552722 126.935364,26.0054673 126.935364,24.5863772 C126.935364,23.1678214 128.072221,22.0174822 129.47415,22.0174822 L210.736439,22.0174822 C212.138369,22.0174822 213.275226,23.1678214 213.275226,24.5863772 C213.275226,26.0054673 212.138369,27.1552722 210.736439,27.1552722" id="Fill-59" fill="#201816"></path>
                        <path d="M144.759567,26.512995 C143.357637,26.512995 142.220781,25.3626558 142.220781,23.9441 L142.220781,21.6989883 C142.220781,20.2804325 143.357637,19.1300933 144.759567,19.1300933 C146.161497,19.1300933 147.298353,20.2804325 147.298353,21.6989883 L147.298353,23.9441 C147.298353,25.3626558 146.161497,26.512995 144.759567,26.512995" id="Fill-61" fill="#201816"></path>
                        <path d="M150.680093,43.7701138 L138.573334,43.7701138 C137.171405,43.7701138 136.03402,42.6203089 136.03402,41.2012188 C136.03402,39.782663 137.171405,38.6323237 138.573334,38.6323237 L150.680093,38.6323237 C152.082023,38.6323237 153.219408,39.782663 153.219408,41.2012188 C153.219408,42.6203089 152.082023,43.7701138 150.680093,43.7701138" id="Fill-63" fill="#201816"></path>
                        <path d="M160.192411,53.3913417 L129.060594,53.3913417 C127.658665,53.3913417 126.521808,52.2415368 126.521808,50.8224466 C126.521808,49.4038908 127.658665,48.2535516 129.060594,48.2535516 L160.192411,48.2535516 C161.59434,48.2535516 162.731197,49.4038908 162.731197,50.8224466 C162.731197,52.2415368 161.59434,53.3913417 160.192411,53.3913417" id="Fill-65" fill="#201816"></path>
                        <path d="M139.894316,60.6979994 L139.8827,60.7311258 C139.886924,60.7204398 139.89062,60.7097539 139.894316,60.6979994 M152.208065,78.0481925 L137.521333,78.0481925 C136.119403,78.0481925 134.982546,76.8978533 134.982546,75.4792975 C134.982546,74.0607417 136.119403,72.9104025 137.521333,72.9104025 L152.208065,72.9104025 C154.440063,72.9104025 156.255444,71.0724243 156.255444,68.8144895 C156.255444,66.5346486 154.440063,64.6972048 152.208065,64.6972048 L139.014084,64.6972048 C137.633276,64.6972048 136.344345,64.0090315 135.566551,62.8554865 C134.787702,61.7019415 134.623483,60.236902 135.125643,58.9364256 L138.254772,50.0222316 C138.724722,48.6843545 140.176815,47.9865639 141.497427,48.461553 C142.819096,48.9365422 143.509236,50.4053218 143.039814,51.7421303 L140.294566,59.5594147 L152.208065,59.5594147 C157.239699,59.5594147 161.333017,63.7012771 161.333017,68.7931177 C161.333017,73.9063301 157.239699,78.0481925 152.208065,78.0481925" id="Fill-67" fill="#201816"></path>
                        <path d="M170.46948,27.1584246 C170.065534,27.1584246 169.737097,27.491291 169.737097,27.8994931 L169.737097,31.8954927 C169.737097,32.3042291 170.065534,32.6370955 170.46948,32.6370955 L211.446486,32.6370955 C211.850432,32.6370955 212.178869,32.3042291 212.178869,31.8954927 L212.178869,27.8994931 C212.178869,27.491291 211.850432,27.1584246 211.446486,27.1584246 L170.46948,27.1584246 Z M211.446486,37.7748856 L170.46948,37.7748856 C167.265899,37.7748856 164.659524,35.1376006 164.659524,31.8954927 L164.659524,27.8994931 C164.659524,24.6579194 167.265899,22.0206345 170.46948,22.0206345 L211.446486,22.0206345 C214.650067,22.0206345 217.256442,24.6579194 217.256442,27.8994931 L217.256442,31.8954927 C217.256442,35.1376006 214.650067,37.7748856 211.446486,37.7748856 L211.446486,37.7748856 Z" id="Fill-69" fill="#201816"></path>
                        <path d="M184.874136,37.3447239 C183.934236,37.3447239 183.031298,36.8147023 182.590918,35.902659 L177.87188,26.1245084 C177.25672,24.849144 177.778946,23.3109059 179.039363,22.688451 C180.298195,22.0670648 181.818932,22.5949493 182.43462,23.8697794 L187.153658,33.64793 C187.768817,34.9227602 187.246592,36.4609983 185.986175,37.0834531 C185.62764,37.2608394 185.247984,37.3447239 184.874136,37.3447239" id="Fill-71" fill="#201816"></path>
                        <path d="M201.444787,37.3447239 C200.505415,37.3447239 199.601949,36.8147023 199.161569,35.902659 L194.443059,26.1245084 C193.827899,24.849144 194.350125,23.3109059 195.610541,22.688451 C196.869374,22.0670648 198.390639,22.5949493 199.006327,23.8697794 L203.724837,33.64793 C204.339996,34.9227602 203.817243,36.4609983 202.557354,37.0834531 C202.198819,37.2608394 201.818635,37.3447239 201.444787,37.3447239" id="Fill-73" fill="#201816"></path>
                        <path d="M175.041302,44.9099274 C174.637356,44.9099274 174.308391,45.2422595 174.308391,45.6509959 L174.308391,61.4768426 C174.308391,61.8855791 174.637356,62.2184455 175.041302,62.2184455 L206.874875,62.2184455 C207.278821,62.2184455 207.607258,61.8855791 207.607258,61.4768426 L207.607258,45.6509959 C207.607258,45.2422595 207.278821,44.9099274 206.874875,44.9099274 L175.041302,44.9099274 Z M206.874875,67.3562355 L175.041302,67.3562355 C171.837193,67.3562355 169.231346,64.7189506 169.231346,61.4768426 L169.231346,45.6509959 C169.231346,42.4094223 171.837193,39.771603 175.041302,39.771603 L206.874875,39.771603 C210.078456,39.771603 212.684831,42.4094223 212.684831,45.6509959 L212.684831,61.4768426 C212.684831,64.7189506 210.078456,67.3562355 206.874875,67.3562355 L206.874875,67.3562355 Z" id="Fill-75" fill="#201816"></path>
                        <path d="M210.146256,52.2400942 L171.769816,52.2400942 C170.367886,52.2400942 169.231029,51.0897549 169.231029,49.6706648 C169.231029,48.252109 170.367886,47.1012355 171.769816,47.1012355 L210.146256,47.1012355 C211.548185,47.1012355 212.685042,48.252109 212.685042,49.6706648 C212.685042,51.0897549 211.548185,52.2400942 210.146256,52.2400942" id="Fill-77" fill="#201816"></path>
                        <path d="M210.146256,59.7715836 L171.769816,59.7715836 C170.367886,59.7715836 169.231029,58.6212444 169.231029,57.2021543 C169.231029,55.7835985 170.367886,54.6332592 171.769816,54.6332592 L210.146256,54.6332592 C211.548185,54.6332592 212.685042,55.7835985 212.685042,57.2021543 C212.685042,58.6212444 211.548185,59.7715836 210.146256,59.7715836" id="Fill-79" fill="#201816"></path>
                        <g id="Group-83" transform="translate(198.012673, 67.855589)">
                            <mask id="mask-4" fill="white">
                                <use xlink:href="#path-3"></use>
                            </mask>
                            <g id="Clip-82"></g>
                            <path d="M17.822355,10.3659296 C13.3298435,10.3659296 4.05598598,7.46149669 1.13701517,5.059302 C0.049265553,4.16435624 -0.114952957,2.54650804 0.769503648,1.44532404 C1.65396025,0.345742924 3.25284658,0.178508285 4.34165227,1.07345404 C6.25735887,2.65016145 14.9282018,5.43384347 18.0710589,5.22065938 C19.4772129,5.12822618 20.68113,6.19468094 20.7761761,7.61003097 C20.8706941,9.0259153 19.8135705,10.251056 18.4148089,10.3472292 C18.2289411,10.3600523 18.0304003,10.3659296 17.822355,10.3659296" id="Fill-81" fill="#201816" mask="url(#mask-4)"></path>
                        </g>
                        <path d="M166.230794,78.092646 C165.950408,78.092646 165.687975,78.0824943 165.444552,78.0616568 C164.047374,77.9409059 163.011372,76.6970649 163.130708,75.2833177 C163.250043,73.8695706 164.481946,72.8164732 165.876483,72.9425671 C169.020397,73.2097151 177.732954,70.5804446 179.67559,69.0379321 C180.779709,68.1627553 182.374899,68.357239 183.240875,69.4733833 C184.106322,70.5895276 183.91359,72.20417 182.810527,73.0804154 C179.89314,75.3971228 170.792478,78.092646 166.230794,78.092646" id="Fill-84" fill="#201816"></path>
                        <path d="M115.123142,21.7590966 L115.123142,21.7590966 C112.097509,21.7590966 109.283617,22.9195875 107.201051,25.0273851 C105.145416,27.106865 104.013311,29.8771896 104.013311,32.827572 C104.013311,36.2876727 105.585796,39.6190081 108.686938,42.7275421 L108.756111,42.7970006 C108.817891,42.8611161 108.888647,42.9423291 108.966268,43.0294193 C109.933098,44.1086972 111.944907,46.3548774 115.12367,46.3548774 C118.302434,46.3548774 120.314243,44.1081629 121.281072,43.028885 C121.358693,42.9417948 121.42945,42.8605818 121.494398,42.7937948 L121.559874,42.7275421 C124.661017,39.6184738 126.234029,36.2876727 126.233501,32.8270377 C126.233501,26.6206557 121.352885,21.7590966 115.123142,21.7590966 M115.123142,26.897421 C118.632455,26.897421 121.1554,29.6228648 121.1554,32.8270377 C121.155928,36.031745 118.520512,38.5365245 117.900072,39.1643222 C117.279632,39.7915857 116.261055,41.2165531 115.12367,41.2165531 C113.986286,41.2165531 112.96718,39.7915857 112.346741,39.1643222 C111.726301,38.5365245 109.091412,36.031745 109.091412,32.8270377 C109.091412,29.6228648 111.61383,26.897421 115.123142,26.897421" id="Fill-86" fill="#201816"></path>
                        <path d="M161.779099,46.3682883 C161.047773,46.3682883 160.321726,46.0498479 159.819038,45.4343389 L144.331807,26.4438572 C143.439958,25.3490847 143.593088,23.7301679 144.674501,22.8266734 C145.75697,21.9253161 147.356384,22.0797276 148.24929,23.1734315 L163.736521,42.1639133 C164.62837,43.2586857 164.47524,44.8770682 163.393827,45.7805627 C162.920709,46.1759417 162.347792,46.3682883 161.779099,46.3682883" id="Fill-88" fill="#201816"></path>
                        <path d="M127.47417,46.3682883 C126.898613,46.3682883 126.318832,46.1705988 125.843073,45.7672053 C124.769052,44.8546278 124.629123,43.2341081 125.531005,42.1473501 L141.284365,23.1568683 C142.185719,22.0706446 143.786718,21.9285219 144.861266,22.8410994 C145.935287,23.7531426 146.075216,25.3736623 145.173862,26.4604203 L129.420502,45.4509021 C128.917814,46.0562594 128.198632,46.3682883 127.47417,46.3682883" id="Fill-90" fill="#201816"></path>
                    </g>
                </g>
            </g>
        </g>
    </g>
</svg>