<?xml version="1.0" encoding="UTF-8"?>
<svg width="40px" height="40px" viewBox="0 0 40 40" version="1.1" xmlns="http://www.w3.org/2000/svg" xmlns:xlink="http://www.w3.org/1999/xlink">
    <!-- Generator: Sketch 49.3 (51167) - http://www.bohemiancoding.com/sketch -->
    <title>shoplogo</title>
    <desc>Created with Sketch.</desc>
    <defs></defs>
    <g id="webBuy" stroke="none" stroke-width="1" fill="none" fill-rule="evenodd">
        <g transform="translate(-226.000000, -296.000000)">
            <rect id="Rectangle" fill="#FFFFFF" x="130" y="174" width="1180" height="703"></rect>
            <g id="shoplogo" transform="translate(226.000000, 296.000000)" fill-rule="nonzero">
                <g id="Amazon.com_Favicon" transform="translate(5.000000, 8.000000)">
                    <path d="M22.0958433,9.13969072 C22.0958433,10.1686598 22.1324872,11.1914433 22.0836286,12.2204124 C22.03477,13.3910825 22.3890971,14.3953608 23.1221295,15.2825773 C23.207632,15.3873196 23.2871039,15.4920619 23.3603407,15.6029897 C23.6230835,16.0035052 23.5741738,16.2807216 23.2137649,16.5888144 C22.4439864,17.2419588 21.6803918,17.9011856 20.9107155,18.5543299 C20.4525383,18.9424742 20.1654174,18.9363402 19.7011584,18.5543299 C19.0780579,18.0429381 18.5893186,17.4144845 18.1556218,16.7428351 C18.0517717,16.5826804 17.9967802,16.5888144 17.8685009,16.7120103 C17.0987223,17.4698454 16.2862692,18.172268 15.2539012,18.5235052 C13.6594549,19.0718557 12.0405792,19.1581443 10.4400511,18.5851031 C8.90059625,18.030567 7.97816014,16.8845361 7.6360477,15.2887629 C7.25729131,13.5080928 7.45277683,11.8137113 8.54013629,10.3041753 C9.3648552,9.1643299 10.5072061,8.49273196 11.8206133,8.07994845 C13.1767973,7.66097938 14.575707,7.5007732 15.9807496,7.35907216 C16.3778535,7.31592784 16.7688245,7.27896907 17.1658773,7.24201031 C17.2635945,7.23582474 17.3491482,7.22350515 17.3430153,7.09412371 C17.3308518,6.44103093 17.3980068,5.77556701 17.2452981,5.13479381 C17.0498126,4.31536082 16.5182964,3.83474227 15.7058433,3.65603093 C15.1255196,3.52664948 14.5512777,3.56360825 13.9892504,3.75463918 C13.1340204,4.05036082 12.6025043,4.64804124 12.3887223,5.53525773 C12.2726576,6.02201031 12.0466099,6.19453608 11.5762181,6.14520619 C10.5743612,6.04046392 9.57250426,5.93572165 8.57678024,5.83097938 C8.16746167,5.78783505 7.95367973,5.47360825 8.03918228,5.07309278 C8.55843271,2.51613402 10.2200852,1.08051546 12.61477,0.421237113 C14.4535605,-0.0839690722 16.3167802,-0.114793814 18.1616525,0.408917526 C19.6461158,0.827886598 20.892368,1.56726804 21.5887564,3.03365979 C21.9858603,3.86546392 22.0774957,4.765 22.0897104,5.66458763 C22.101925,6.81685567 22.0897104,7.98134021 22.0958433,9.13969072 C22.0897104,9.13969072 22.0958433,9.13969072 22.0958433,9.13969072 Z M17.3430664,11.0620619 C17.3430664,10.7539691 17.3309029,10.4459278 17.3491993,10.1378351 C17.361414,9.94680412 17.2942078,9.87902062 17.1048552,9.89752577 C16.6405451,9.94061856 16.1702044,9.94680412 15.7058944,10.0084021 C14.8934412,10.1131443 14.0992334,10.3164948 13.4394889,10.8340206 C12.4803578,11.5919072 12.2787905,12.6270103 12.4375809,13.7914948 C12.6269847,15.1592784 13.8365417,15.9171649 15.1316525,15.4612371 C16.0113118,15.1531443 16.5488586,14.5001031 16.9215332,13.680567 C17.3125043,12.848866 17.3430664,11.9554639 17.3430664,11.0620619 Z" id="Shape" fill="#050606"></path>
                    <path d="M15.0827428,24.9683505 C10.4216525,24.9375258 6.23703578,23.7299485 2.45560477,21.1852577 C1.68587734,20.6676804 0.952793867,20.1008247 0.256405451,19.4785567 C0.195332198,19.4230928 0.134207836,19.3676804 0.0853492334,19.2998454 C0.0181431005,19.2074227 -0.0307155026,19.0965464 0.0487052811,18.9856186 C0.128126065,18.8623711 0.26253833,18.8500515 0.378603066,18.9055155 C0.647376491,19.0348969 0.903986371,19.1765979 1.16662692,19.3121649 C3.57357751,20.5937113 6.10875639,21.5179381 8.76613288,22.1032474 C11.1730324,22.6331443 13.6043612,22.8796392 16.072385,22.8118041 C19.5972572,22.7132474 22.993799,21.9985052 26.2620613,20.6737629 C26.4209029,20.6060309 26.5858773,20.5382474 26.7508007,20.5012371 C26.9829813,20.4580928 27.2151107,20.4889175 27.3189608,20.7415464 C27.416678,20.9756701 27.2883986,21.1605155 27.1173424,21.3084021 C26.9951448,21.4130928 26.8546508,21.4993814 26.7141567,21.5918041 C24.6065928,22.9719588 22.2974106,23.8591753 19.8538671,24.4075773 C18.2410733,24.7773711 16.6039012,24.9559794 15.0827428,24.9683505 Z" id="Shape" fill="#F6A61F"></path>
                    <path d="M26.8424361,19.4785567 C26.1399148,19.4723711 25.4435264,19.5647938 24.7470869,19.6387113 C24.6126746,19.6510309 24.4599659,19.6879897 24.3988927,19.5401546 C24.3256048,19.3737629 24.4660988,19.2752062 24.5821635,19.1951031 C25.4496593,18.6159794 26.420954,18.3879897 27.4411584,18.3325258 C28.1436797,18.289433 28.8400681,18.3202577 29.524293,18.5296907 C29.8358433,18.6221134 29.988552,18.8069588 29.9824702,19.1273711 C29.9458262,20.8402062 29.3776661,22.3312887 28.1498126,23.5451031 C28.1070358,23.5882474 28.0581772,23.6252062 28.0093186,23.6621649 C27.8993867,23.7423196 27.7649744,23.8161856 27.6488586,23.7176289 C27.5389267,23.6252062 27.6,23.4896392 27.6488586,23.3787629 C28.0093186,22.4730412 28.3758603,21.5735052 28.5529472,20.606134 C28.5774276,20.4828866 28.5835094,20.3596907 28.5896422,20.2425773 C28.595724,19.8420619 28.45523,19.6695876 28.0642589,19.5710309 C27.6549404,19.4600515 27.2456218,19.4785567 26.8424361,19.4785567 Z" id="Shape" fill="#F6A61F"></path>
                </g>
            </g>
        </g>
    </g>
</svg>