<svg id="圖層_1" data-name="圖層 1" xmlns="http://www.w3.org/2000/svg" viewBox="0 0 1040 912"><defs><style>.cls-1{fill:#ffd522;}.cls-2{fill:#0e314e;}.cls-3{fill:#606060;}.cls-4{fill:#ef4736;}.cls-5,.cls-6{fill:#ffda04;}.cls-6{opacity:0.4;}.cls-12,.cls-6{isolation:isolate;}.cls-7{fill:#002242;}.cls-8{fill:#a3a7af;}.cls-9{fill:#b5bcbc;}.cls-10{fill:#dedede;}.cls-11,.cls-12{fill:#001335;}.cls-12{opacity:0.3;}.cls-13{fill:#f6f7f8;}.cls-14{fill:none;}.cls-15{fill:#dd3a56;}</style></defs><title>190907_error_820</title><circle class="cls-1" cx="858.13" cy="241.96" r="11.68"/><circle class="cls-2" cx="181.87" cy="232.56" r="11.68"/><circle class="cls-1" cx="305.04" cy="224.01" r="6.87"/><circle class="cls-2" cx="619.31" cy="290.43" r="6.87"/><polygon class="cls-1" points="710.19 212.14 706.4 205.21 702.61 212.14 695.68 215.93 702.61 219.72 706.4 226.65 710.19 219.72 717.12 215.93 710.19 212.14"/><polygon class="cls-1" points="244.6 309.24 240.81 302.31 237.02 309.24 230.09 313.03 237.02 316.82 240.81 323.75 244.6 316.82 251.53 313.03 244.6 309.24"/><polygon class="cls-2" points="754.57 279.02 750.77 272.09 746.99 279.02 740.05 282.81 746.99 286.6 750.77 293.53 754.57 286.6 761.49 282.81 754.57 279.02"/><polygon class="cls-2" points="386.48 262.51 382.69 255.58 378.9 262.51 371.97 266.3 378.9 270.09 382.69 277.02 386.48 270.09 393.41 266.3 386.48 262.51"/><path class="cls-3" d="M488.2,332.6v15.69h63.9V332.6a4.11,4.11,0,0,0,0-.68,17.35,17.35,0,0,0-17.35-16.71h-29.2A17.38,17.38,0,0,0,488.2,332.6Z"/><circle class="cls-4" cx="519.7" cy="267.87" r="49.51"/><path class="cls-5" d="M496.24,303.49a.77.77,0,0,1-.43-.13,43.17,43.17,0,0,1-13.43-14.57.77.77,0,1,1,1.34-.76,41.61,41.61,0,0,0,13,14,.77.77,0,0,1-.43,1.41Z"/><path class="cls-5" d="M518.12,310.62h0a42.81,42.81,0,0,1-9.39-1.4.77.77,0,1,1,.4-1.49,41.24,41.24,0,0,0,9,1.35.77.77,0,0,1,0,1.54Z"/><path class="cls-5" d="M554.06,244.47a.77.77,0,0,1-.63-.33,41.8,41.8,0,0,0-3.82-4.66.77.77,0,0,1,1.12-1.06,43.18,43.18,0,0,1,4,4.83.77.77,0,0,1-.63,1.22Z"/><path class="cls-5" d="M542.27,233.21a.76.76,0,0,1-.41-.12A41.28,41.28,0,0,0,499.32,232a.77.77,0,1,1-.76-1.34h0a42.82,42.82,0,0,1,44.12,1.11.77.77,0,0,1-.41,1.42Z"/><circle class="cls-6" cx="519.7" cy="267.87" r="33.6"/><circle class="cls-5" cx="519.7" cy="267.87" r="22.07"/><ellipse class="cls-7" cx="508.76" cy="584.73" rx="145.41" ry="15.2"/><ellipse class="cls-8" cx="519.71" cy="745.21" rx="194.46" ry="17.58"/><rect class="cls-9" x="442.37" y="659.61" width="154.67" height="64.56"/><rect class="cls-10" x="383.03" y="724.17" width="272.34" height="18.18" rx="6.17" ry="6.17"/><path class="cls-10" d="M768.68,633.73a48.47,48.47,0,0,1-48.46,48.47h-401a48.47,48.47,0,0,1-48.46-48.47V382a48.47,48.47,0,0,1,48.46-48.46h401A48.47,48.47,0,0,1,768.68,382Z"/><path class="cls-2" d="M720.22,333.49h-401a48.47,48.47,0,0,0-48.49,48.45s0,0,0,.06V633.73h498V382a48.47,48.47,0,0,0-48.43-48.51Z"/><circle class="cls-11" cx="519.34" cy="657.22" r="9.09"/><polygon class="cls-12" points="442.37 682.2 442.37 724.17 597.04 699.45 597.04 682.2 442.37 682.2"/><path class="cls-7" d="M720.22,333.49h-401a48.47,48.47,0,0,0-48.49,48.45s0,0,0,.06V633.73h498V382a48.47,48.47,0,0,0-48.43-48.51Zm33.93,285.7H285.27V382a34,34,0,0,1,33.92-34h401a34,34,0,0,1,34,34Z"/><polygon class="cls-13" points="708.11 331.95 667.74 386.21 690.81 393.21 679.27 405.46 690.81 414.21 685.04 466.71 708.11 405.46 696.58 401.96 705.23 387.96 687.92 380.96 739.83 331.95 708.11 331.95"/><polygon class="cls-13" points="333.24 684.15 382.46 617.99 354.33 609.45 368.4 594.51 354.33 583.84 361.37 519.82 333.24 594.51 347.3 598.78 336.75 615.85 357.85 624.39 294.56 684.15 333.24 684.15"/><line class="cls-14" x1="439.89" y1="432.58" x2="399.48" y2="482.35"/><path class="cls-15" d="M399.48,487a4.63,4.63,0,0,1-3.59-7.54l40.41-49.77a4.63,4.63,0,0,1,7.47,5.48q-.13.18-.29.35l-40.41,49.77A4.62,4.62,0,0,1,399.48,487Z"/><line class="cls-14" x1="394.8" y1="437.26" x2="444.57" y2="477.67"/><path class="cls-15" d="M444.57,482.29a4.61,4.61,0,0,1-2.91-1l-49.77-40.41a4.63,4.63,0,0,1,5.83-7.18l49.77,40.41a4.63,4.63,0,0,1-2.92,8.22Z"/><line class="cls-14" x1="599.52" y1="432.58" x2="639.93" y2="482.35"/><path class="cls-15" d="M639.93,487a4.62,4.62,0,0,1-3.59-1.71l-40.41-49.77a4.63,4.63,0,0,1,7.18-5.83l40.41,49.77a4.63,4.63,0,0,1-3.59,7.54Z"/><line class="cls-14" x1="644.61" y1="437.26" x2="594.84" y2="477.67"/><path class="cls-15" d="M594.84,482.29a4.63,4.63,0,0,1-2.92-8.22l49.77-40.41a4.63,4.63,0,0,1,5.83,7.18l-49.77,40.41A4.61,4.61,0,0,1,594.84,482.29Z"/><path class="cls-15" d="M491.17,560.13a4.63,4.63,0,0,1-3.42-7.74c.93-1,23.29-25,61.28-18.35a4.63,4.63,0,1,1-1.21,9.18l-.4-.07c-33-5.83-52.63,15.25-52.83,15.46A4.61,4.61,0,0,1,491.17,560.13Z"/><path class="cls-2" d="M128,71.68a3.77,3.77,0,0,1,1.11,2.72,3.8,3.8,0,0,1-3.81,3.81h-2.64a.28.28,0,0,0-.26.18.44.44,0,0,0,0,.35,25.69,25.69,0,0,0,4.1,5.21A5,5,0,0,1,128,87.29a1.75,1.75,0,0,1,.06.41,4.89,4.89,0,0,1-1.11,3.11,31,31,0,0,0-2.05,2.7q-.12.18.12.18a1.8,1.8,0,0,1,1.82,1.82v1.64a3.28,3.28,0,0,1-1,2.4,3.34,3.34,0,0,1-2.46,1H111.63a.74.74,0,0,0-.76.59l-.18.64a.44.44,0,0,0,.09.41.47.47,0,0,0,.38.18h9.2a4.35,4.35,0,0,1,3.4,1.52,4.2,4.2,0,0,1,1.23,3,3,3,0,0,1-.06.59,54.6,54.6,0,0,1-1.41,8.32,9.16,9.16,0,0,1-2.11,4.16,8.69,8.69,0,0,1-5.74,2.4,44.8,44.8,0,0,1-4.51.18,4.25,4.25,0,0,1-2.9-1.11,6.47,6.47,0,0,1-1.85-2.87,2.21,2.21,0,0,1-.18-.88,2.34,2.34,0,0,1,.47-1.41,2.07,2.07,0,0,1,1.88-1.05h.12q1.87.06,3.4.06a3.79,3.79,0,0,0,2.4-.59q1-.88,1.64-4.8a.44.44,0,0,0-.09-.41.47.47,0,0,0-.38-.18h-7a.23.23,0,0,0-.23.18,2.19,2.19,0,0,1-.94,1.14,2.06,2.06,0,0,1-1.41.26l-2.23-.35a3.23,3.23,0,0,1-2.4-1.58,3.7,3.7,0,0,1-.47-1.76,3.88,3.88,0,0,1,.18-1.11q.76-2.46,1.46-5a.39.39,0,0,0-.06-.35.34.34,0,0,0-.29-.18H101a3.4,3.4,0,0,1-3.4-3.4v-2.7a.8.8,0,0,1,.76-.76c.08,0,.1,0,.06-.12a25.54,25.54,0,0,0-3.22-4.51,1.17,1.17,0,0,0-.94-.41H90.65a.52.52,0,0,0-.59.59v4.1a.47.47,0,0,0,.53.53h.94a3.61,3.61,0,0,1,2.61,1.05,3.46,3.46,0,0,1,1.08,2.58,3.7,3.7,0,0,1-3.69,3.69H90.6a.47.47,0,0,0-.53.53v6.74a.39.39,0,0,0,.18.35.63.63,0,0,0,.35.12l2.7-.59a2.8,2.8,0,0,1,.76-.12,3.12,3.12,0,0,1,1.88.64,3.07,3.07,0,0,1,1.35,2.34,2,2,0,0,1,.06.47,4.22,4.22,0,0,1-.29,1.52,4.06,4.06,0,0,1-2.87,2.52l-16.23,3.87a4.41,4.41,0,0,1-.94.12,4.1,4.1,0,0,1-2.11-.59,4,4,0,0,1-1.76-2.58l-.35-1.87a1.9,1.9,0,0,1-.06-.47,2,2,0,0,1,.35-1.11,1.94,1.94,0,0,1,1.35-.88.28.28,0,0,0,.23-.29V95.38a3.18,3.18,0,0,1,1-2.37A3.29,3.29,0,0,1,78,92a3.19,3.19,0,0,1,2.34,1,3.23,3.23,0,0,1,1,2.37v14.88a.42.42,0,0,0,.18.32.44.44,0,0,0,.41.09l.29-.06a.65.65,0,0,0,.59-.7V89.23a.52.52,0,0,0-.59-.59H80.4a5.1,5.1,0,0,1-5.1-5.1V72.88a5.1,5.1,0,0,1,5.1-5.1h9.43a5.1,5.1,0,0,1,5.1,5.1V85.54a.29.29,0,0,0,.15.26.28.28,0,0,0,.32,0,25.31,25.31,0,0,0,6.8-7,.33.33,0,0,0,0-.35.28.28,0,0,0-.26-.18h-2a3.74,3.74,0,0,1-2.75-1.11,3.67,3.67,0,0,1-1.11-2.7,3.77,3.77,0,0,1,1.11-2.72A3.69,3.69,0,0,1,100,70.54h5.21a.59.59,0,0,0,.64-.47.66.66,0,0,0,.06-.29A5,5,0,0,1,107.71,67a4.11,4.11,0,0,1,2.64-.94,2,2,0,0,1,.47.06h.47a3.48,3.48,0,0,1,2.46,1.41,3.2,3.2,0,0,1,.64,1.93,4.32,4.32,0,0,1-.06.7q-.12.41.35.41h10.61A3.63,3.63,0,0,1,128,71.68ZM83,74.93a.52.52,0,0,0-.59.59v5.39a.52.52,0,0,0,.59.59h3.75a.52.52,0,0,0,.59-.59V75.52a.52.52,0,0,0-.59-.59Zm16.05,18.4a.22.22,0,0,0,0,.21c0,.1.07.15.15.15h24.73a.18.18,0,0,0,.21-.15.17.17,0,0,0-.09-.21,28.5,28.5,0,0,1-4-3.87s0,0-.06,0a.09.09,0,0,0-.06.09,2.1,2.1,0,0,1-2.11,2.11h-12a1.9,1.9,0,0,1-1.87-1.87.1.1,0,0,0-.06-.09.1.1,0,0,0-.12,0A32.7,32.7,0,0,1,99.09,93.33ZM113.62,78.8a.83.83,0,0,0-.82-.59h-.47a.83.83,0,0,0-.82.59,42.32,42.32,0,0,1-3,5.39.23.23,0,0,0,0,.29.28.28,0,0,0,.26.18H116a.34.34,0,0,0,.29-.18.29.29,0,0,0,0-.35A39.59,39.59,0,0,1,113.62,78.8Z"/><path class="cls-2" d="M185.24,107.27a5,5,0,0,1-1.46,3.6,4.88,4.88,0,0,1-3.63,1.49h-2.7s-.07,0-.09.09,0,.09.09.09q5.45,1.93,10.55,4a2,2,0,0,1,1.35,2.05,2,2,0,0,1-1.29,2l-.29.12a10.45,10.45,0,0,1-4.28.94,11.63,11.63,0,0,1-4.92-1.17q-3.46-1.58-7.21-3a2.44,2.44,0,0,1-1.64-2.11v-.35a2.34,2.34,0,0,1,1.17-2.05l.35-.23a.18.18,0,0,0,0-.18.14.14,0,0,0-.15-.12H156.94a.14.14,0,0,0-.15.12c0,.08,0,.12.09.12l.18.06a2.6,2.6,0,0,1,1.58,2.52,2.18,2.18,0,0,1-1.35,2.11,77.26,77.26,0,0,1-10.84,4.39,6.64,6.64,0,0,1-2.11.35,6.27,6.27,0,0,1-1.87-.29A7.71,7.71,0,0,1,139,119.7a2.14,2.14,0,0,1-.59-2.29,2.1,2.1,0,0,1,1.7-1.64,65.24,65.24,0,0,0,10.61-3.16.2.2,0,0,0,.06-.15c0-.06,0-.09-.12-.09h-2.34a5.1,5.1,0,0,1-5.1-5.1V90.69a5.1,5.1,0,0,1,5.1-5.1h31.82a4.88,4.88,0,0,1,3.63,1.49,5,5,0,0,1,1.46,3.6ZM183.36,68a5.1,5.1,0,0,1,5.1,5.1v5.51a5.1,5.1,0,0,1-5.1,5.1h-38.2a5.1,5.1,0,0,1-5.1-5.1V73.11a5.1,5.1,0,0,1,5.1-5.1Zm-30.12,9.32a.52.52,0,0,0,.59-.59V75a.52.52,0,0,0-.59-.59h-4.51a.52.52,0,0,0-.59.59v1.76a.52.52,0,0,0,.59.59ZM152.54,91a.52.52,0,0,0-.59.59v.82a.52.52,0,0,0,.59.59h23a.52.52,0,0,0,.59-.59v-.82a.52.52,0,0,0-.59-.59Zm0,7a.52.52,0,0,0-.59.59v.88a.52.52,0,0,0,.59.59h23a.52.52,0,0,0,.59-.59v-.88a.52.52,0,0,0-.59-.59Zm0,7a.52.52,0,0,0-.59.59v.94a.52.52,0,0,0,.59.59h23a.52.52,0,0,0,.59-.59v-.94a.52.52,0,0,0-.59-.59Zm13.65-27.66a.52.52,0,0,0,.59-.59V75a.52.52,0,0,0-.59-.59h-4.57A.52.52,0,0,0,161,75v1.76a.52.52,0,0,0,.59.59Zm13.18,0a.52.52,0,0,0,.59-.59V75a.52.52,0,0,0-.59-.59h-4.8A.52.52,0,0,0,174,75v1.76a.52.52,0,0,0,.59.59Z"/><path class="cls-2" d="M232.72,117a4.88,4.88,0,0,1-3.63-1.49,5,5,0,0,1-1.46-3.6V81.84a.52.52,0,0,0-.59-.59h-7.09a4.18,4.18,0,0,1-3.11-1.32,4.46,4.46,0,0,1,0-6.27,4.18,4.18,0,0,1,3.11-1.32H246a4.45,4.45,0,0,1,0,8.91h-7.09a.52.52,0,0,0-.59.59V111.9a5.1,5.1,0,0,1-5.1,5.1Z"/><path class="cls-2" d="M269.53,117.82a16.52,16.52,0,0,1-6.3-1.23,17.05,17.05,0,0,1-5.36-3.46,15.75,15.75,0,0,1-3.72-5.65,20,20,0,0,1-1.38-7.53,20.24,20.24,0,0,1,1.38-7.56,15.72,15.72,0,0,1,3.72-5.68,17.07,17.07,0,0,1,5.36-3.46,16.52,16.52,0,0,1,6.3-1.23,16.16,16.16,0,0,1,6.21,1.23,17.18,17.18,0,0,1,5.33,3.46,15.75,15.75,0,0,1,3.72,5.68,20.26,20.26,0,0,1,1.38,7.56,20,20,0,0,1-1.38,7.53,15.78,15.78,0,0,1-3.72,5.65,17.16,17.16,0,0,1-5.33,3.46A16.16,16.16,0,0,1,269.53,117.82Zm0-8.61a4.68,4.68,0,0,0,4.31-2.43,13.5,13.5,0,0,0,1.44-6.83,13.68,13.68,0,0,0-1.44-6.86,4.68,4.68,0,0,0-4.31-2.46,4.79,4.79,0,0,0-4.39,2.46,13.44,13.44,0,0,0-1.46,6.86,13.27,13.27,0,0,0,1.46,6.83A4.8,4.8,0,0,0,269.53,109.21Z"/><path class="cls-2" d="M301,117a5.1,5.1,0,0,1-5.1-5.1V74.17a5.1,5.1,0,0,1,5.1-5.1h.18a5.1,5.1,0,0,1,5.1,5.1v21.5c0,.12,0,.18.12.18a.19.19,0,0,0,.18-.12l7.15-8.91a10.15,10.15,0,0,1,3.66-2.93,10.5,10.5,0,0,1,4.6-1.05h1.41a2.18,2.18,0,0,1,2.11,1.41,2.47,2.47,0,0,1,.23,1,2.12,2.12,0,0,1-.59,1.46l-8.38,9.79a.77.77,0,0,0-.06.94l9.84,15.29a2.61,2.61,0,0,1,.47,1.46,2.77,2.77,0,0,1-.35,1.35,2.65,2.65,0,0,1-2.46,1.46H322.8a8.54,8.54,0,0,1-4.39-1.2,8.71,8.71,0,0,1-3.22-3.25l-4.57-8a.28.28,0,0,0-.29-.23.48.48,0,0,0-.35.12l-3.28,3.75a1.56,1.56,0,0,0-.41,1.05v2.64a5.1,5.1,0,0,1-5.1,5.1Z"/><path class="cls-2" d="M346,117.82q-5.45,0-8-3.6T335.41,104V87.94a5.1,5.1,0,0,1,5.1-5.1H341a5.1,5.1,0,0,1,5.1,5.1v14.71q0,3.46.91,4.78a3.4,3.4,0,0,0,3,1.32,5.81,5.81,0,0,0,2.93-.7,8.51,8.51,0,0,0,2.46-2.34,1.56,1.56,0,0,0,.35-1.05V87.94a5.1,5.1,0,0,1,5.1-5.1h.47a5.1,5.1,0,0,1,5.1,5.1v24.73a4.3,4.3,0,0,1-4.34,4.34H362a4.82,4.82,0,0,1-3.22-1.2,4.87,4.87,0,0,1-1.7-3l-.06-.35a.19.19,0,0,0-.18-.12.19.19,0,0,0-.18.12,17.64,17.64,0,0,1-4.8,4A11.91,11.91,0,0,1,346,117.82Z"/><path class="cls-2" d="M383.06,117a5.1,5.1,0,0,1-5.1-5.1V74.17a5.1,5.1,0,0,1,5.1-5.1h.18a5.1,5.1,0,0,1,5.1,5.1v21.5c0,.12,0,.18.12.18a.19.19,0,0,0,.18-.12l7.15-8.91a10.15,10.15,0,0,1,3.66-2.93,10.5,10.5,0,0,1,4.6-1.05h1.41a2.18,2.18,0,0,1,2.11,1.41,2.47,2.47,0,0,1,.23,1,2.12,2.12,0,0,1-.59,1.46l-8.38,9.79a.77.77,0,0,0-.06.94l9.84,15.29a2.61,2.61,0,0,1,.47,1.46,2.77,2.77,0,0,1-.35,1.35,2.65,2.65,0,0,1-2.46,1.46h-1.41a8.54,8.54,0,0,1-4.39-1.2,8.71,8.71,0,0,1-3.22-3.25l-4.57-8a.28.28,0,0,0-.29-.23.48.48,0,0,0-.35.12l-3.28,3.75a1.56,1.56,0,0,0-.41,1.05v2.64a5.1,5.1,0,0,1-5.1,5.1Z"/><path class="cls-2" d="M427,117.82a9.57,9.57,0,0,1-7.35-3,10.42,10.42,0,0,1-2.78-7.38,9.58,9.58,0,0,1,4.39-8.35q4.39-3,14-4.13.59-.06.47-.64-.59-3.81-5-3.81a14,14,0,0,0-5.39,1.23,4.12,4.12,0,0,1-1.76.41,4.24,4.24,0,0,1-1.35-.23A3.77,3.77,0,0,1,419.87,90a4.27,4.27,0,0,1-.47-1.93,4.07,4.07,0,0,1,.18-1.17,3.54,3.54,0,0,1,1.93-2.29A26.45,26.45,0,0,1,432.7,82q13.83,0,13.83,15.59v15.06a4.14,4.14,0,0,1-1.29,3.08,4.21,4.21,0,0,1-3,1.26H441a3.84,3.84,0,0,1-2.43-.85,3.71,3.71,0,0,1-1.38-2.2l-.06-.23a.19.19,0,0,0-.18-.12.24.24,0,0,0-.18.06Q432,117.82,427,117.82Zm3.69-8.26a6.73,6.73,0,0,0,4.75-2.29,1.36,1.36,0,0,0,.41-1V102a.56.56,0,0,0-.18-.41.63.63,0,0,0-.35-.12h-.06Q427,102.7,427,106.63a2.58,2.58,0,0,0,1,2.2A4.43,4.43,0,0,0,430.71,109.56Z"/><path class="cls-2" d="M463.06,78.09a6.44,6.44,0,0,1-4.42-1.52,5,5,0,0,1-1.73-3.93,5.08,5.08,0,0,1,1.73-4,6.37,6.37,0,0,1,4.42-1.55,6.18,6.18,0,0,1,4.34,1.55,5.12,5.12,0,0,1,1.7,4,5,5,0,0,1-1.7,3.93A6.25,6.25,0,0,1,463.06,78.09ZM462.83,117a5.1,5.1,0,0,1-5.1-5.1v-24a5.1,5.1,0,0,1,5.1-5.1h.41a5.1,5.1,0,0,1,5.1,5.1v24a5.1,5.1,0,0,1-5.1,5.1Z"/><path class="cls-2" d="M486.16,117.82a6,6,0,0,1-4.54-1.9,7.12,7.12,0,0,1,0-9.43,6,6,0,0,1,4.54-1.9,6.05,6.05,0,0,1,4.57,1.9,7,7,0,0,1,0,9.43A6.05,6.05,0,0,1,486.16,117.82Z"/><path class="cls-2" d="M519,117.82a16.49,16.49,0,0,1-12.22-4.8q-4.78-4.8-4.78-13.07a18.18,18.18,0,0,1,2.52-9.61,16.35,16.35,0,0,1,6.56-6.24A19.06,19.06,0,0,1,520,82a15.25,15.25,0,0,1,6.45,1.35,3.09,3.09,0,0,1,1.82,2.52,4.38,4.38,0,0,1,.06.7,4.14,4.14,0,0,1-.82,2.52l-.23.23a4.26,4.26,0,0,1-3.75,1.58,11.83,11.83,0,0,1-1.93-.18,4.12,4.12,0,0,0-1-.12A6.82,6.82,0,0,0,515,93.15a10.35,10.35,0,0,0-2.08,6.8,10.37,10.37,0,0,0,2.05,6.71,6.41,6.41,0,0,0,5.21,2.55,7.21,7.21,0,0,0,2.4-.41,5.3,5.3,0,0,1,1.88-.35,7.25,7.25,0,0,1,1.29.12,3.64,3.64,0,0,1,2.4,1.76,4,4,0,0,1,.7,2.29,3.85,3.85,0,0,1-.12.94,3.4,3.4,0,0,1-1.87,2.52A17.79,17.79,0,0,1,519,117.82Z"/><path class="cls-2" d="M552.16,117.82a16.52,16.52,0,0,1-6.3-1.23,17,17,0,0,1-5.36-3.46,15.75,15.75,0,0,1-3.72-5.65,20,20,0,0,1-1.38-7.53,20.25,20.25,0,0,1,1.38-7.56,15.72,15.72,0,0,1,3.72-5.68,17.06,17.06,0,0,1,5.36-3.46,16.52,16.52,0,0,1,6.3-1.23,16.16,16.16,0,0,1,6.21,1.23,17.18,17.18,0,0,1,5.33,3.46,15.75,15.75,0,0,1,3.72,5.68,20.27,20.27,0,0,1,1.38,7.56,20,20,0,0,1-1.38,7.53,15.78,15.78,0,0,1-3.72,5.65,17.16,17.16,0,0,1-5.33,3.46A16.16,16.16,0,0,1,552.16,117.82Zm0-8.61a4.69,4.69,0,0,0,4.31-2.43,13.5,13.5,0,0,0,1.44-6.83,13.67,13.67,0,0,0-1.44-6.86,4.68,4.68,0,0,0-4.31-2.46,4.79,4.79,0,0,0-4.39,2.46,13.44,13.44,0,0,0-1.46,6.86,13.28,13.28,0,0,0,1.46,6.83A4.8,4.8,0,0,0,552.16,109.21Z"/><path class="cls-2" d="M583.64,117a5.1,5.1,0,0,1-5.1-5.1V87.23a4.28,4.28,0,0,1,1.26-3.11,4.14,4.14,0,0,1,3.08-1.29h.41a4.44,4.44,0,0,1,3,1.11,4.63,4.63,0,0,1,1.58,2.75l.06.35c0,.08,0,.12.15.12a.29.29,0,0,0,.21-.06,22.64,22.64,0,0,1,4.8-3.78A11,11,0,0,1,598.58,82q6.39,0,9.08,5.1a.43.43,0,0,0,.32.26.44.44,0,0,0,.38-.15,23.57,23.57,0,0,1,4.86-3.84A10.65,10.65,0,0,1,618.62,82q5.39,0,8,3.63t2.64,10.25v16a5.1,5.1,0,0,1-5.1,5.1h-.47a5.1,5.1,0,0,1-5.1-5.1V97.2q0-3.4-.91-4.72a3.4,3.4,0,0,0-3-1.32q-2.29,0-5,2.64a1.36,1.36,0,0,0-.41,1V111.9a5.1,5.1,0,0,1-5.1,5.1h-.53a5.1,5.1,0,0,1-5.1-5.1V97.2q0-3.4-.91-4.72a3.4,3.4,0,0,0-3-1.32q-2.29,0-5,2.64a1.36,1.36,0,0,0-.41,1V111.9A5.1,5.1,0,0,1,584,117Z"/><path class="cls-2" d="M705.89,68.13a5.1,5.1,0,0,1,5.1,5.1v41.25a12,12,0,0,1-.64,4.42,5.18,5.18,0,0,1-2.23,2.49,15.34,15.34,0,0,1-5.92,1.29H702a4.11,4.11,0,0,1-2.64-.94,5.63,5.63,0,0,1-1.82-2.7,3.59,3.59,0,0,1-.12-.88,2.59,2.59,0,0,1,.47-1.46,2.32,2.32,0,0,1,2-1.11H702a1,1,0,0,0,1.17-1.17V76.22a.52.52,0,0,0-.59-.59H686.32a.52.52,0,0,0-.59.59v42.71a3.69,3.69,0,0,1-1.14,2.75,3.81,3.81,0,0,1-2.75,1.11,3.7,3.7,0,0,1-2.72-1.11,3.74,3.74,0,0,1-1.11-2.75v-6.15a.34.34,0,0,0-.18-.29.39.39,0,0,0-.35-.06,4.07,4.07,0,0,1-1.17.18,3.58,3.58,0,0,1-1.87-.53,4.18,4.18,0,0,1-1.87-2.64q-.53-2.4-1.23-4.57s0,0-.09,0-.09,0-.09.09V119a3.56,3.56,0,0,1-1.08,2.61,3.75,3.75,0,0,1-5.27,0A3.55,3.55,0,0,1,663.7,119V105s0-.06,0-.06,0,0,0,.06a65.83,65.83,0,0,1-2,10.08,2.48,2.48,0,0,1-1.7,1.76,2.72,2.72,0,0,1-1.11.23,3.12,3.12,0,0,1-1.41-.35,3.4,3.4,0,0,1-1.82-1.93,4.13,4.13,0,0,1-.35-1.64,5.61,5.61,0,0,1,.12-1.11,40.74,40.74,0,0,0,1.05-5.51,4.8,4.8,0,0,1,1.93-3.28,4.5,4.5,0,0,1,2.81-1,5.88,5.88,0,0,1,.82.06l1.11.23a.62.62,0,0,0,.41-.15.47.47,0,0,0,.18-.38V99.3a.56.56,0,0,0-.18-.41.41.41,0,0,0-.41-.12l-3.46.29h-.41a3.65,3.65,0,0,1-2.4-.88,3.72,3.72,0,0,1-1.41-2.58v-.47a3.34,3.34,0,0,1,.82-2.17,3.17,3.17,0,0,1,2.46-1.23l.29-.06a1,1,0,0,0,.76-.35,9.6,9.6,0,0,1,.62-.94q.5-.7.79-1.05a.85.85,0,0,0,.06-1,52.05,52.05,0,0,0-3.81-5,4.46,4.46,0,0,1-1.11-2.81,1,1,0,0,1-.06-.29,4.39,4.39,0,0,1,.82-2.58l1.35-1.87a1,1,0,0,1,.82-.5,1.29,1.29,0,0,1,.94.32.12.12,0,0,0,.18-.06q1.35-2.93,2.46-6a4,4,0,0,1,2.05-2.29,3.7,3.7,0,0,1,3-.18A3.16,3.16,0,0,1,669.91,69a3.1,3.1,0,0,1,.29,1.29,3.54,3.54,0,0,1-.41,1.58q-2.87,5.33-4.63,8.26a.68.68,0,0,0,.06.94l.41.53a.37.37,0,0,0,.32.18.36.36,0,0,0,.32-.23q1.58-2.64,2.87-5.1a4.24,4.24,0,0,1,2.29-2,3.92,3.92,0,0,1,1.35-.23,3.65,3.65,0,0,1,1.64.41,3,3,0,0,1,1.76,2.05,2.66,2.66,0,0,1,.18.94,3,3,0,0,1-.59,1.76q-2.7,3.93-5.27,7.5s0,.09,0,.15a.19.19,0,0,0,.18.09,4.65,4.65,0,0,1,2-.47,4.7,4.7,0,0,1,1.76.35,4.63,4.63,0,0,1,2.7,2.52,14.59,14.59,0,0,1,.64,1.35s0,0,.12,0,.12,0,.12-.09V73.23a5.1,5.1,0,0,1,5.1-5.1ZM667.51,90.75a.31.31,0,0,0,0,.26.23.23,0,0,0,.23.15L670,91a.35.35,0,0,0,.29-.18.29.29,0,0,0,0-.35,15.61,15.61,0,0,1-.64-1.52.36.36,0,0,0-.32-.23.37.37,0,0,0-.32.18Q668.1,90,667.51,90.75Zm3.63,11.66a.47.47,0,0,0,.18.38.27.27,0,0,0,.35,0l1.93-.59a3.32,3.32,0,0,1,1.05-.18,3.36,3.36,0,0,1,1.52.35,3.19,3.19,0,0,1,1.7,1.93.06.06,0,1,0,.12,0V99.71a.29.29,0,0,0-.15-.26.37.37,0,0,0-.32,0l-1.11.53a2.08,2.08,0,0,1-.94.23,2.25,2.25,0,0,1-1.11-.29,2.49,2.49,0,0,1-1.29-1.64.32.32,0,0,0-.41-.29l-.94.06a.58.58,0,0,0-.59.64ZM698.68,114h-2.34q-4.75,0-6.33-1.87t-1.58-6.86v-3.28a.16.16,0,0,0-.18-.18,1.5,1.5,0,0,1-1.46-1.46V98.54A3.2,3.2,0,0,1,690,95.32h.41a.36.36,0,0,0,.41-.41v-3a.36.36,0,0,0-.41-.41H690a3.2,3.2,0,0,1-3.22-3.22V86.53a1.5,1.5,0,0,1,1.46-1.46c.12,0,.16-.06.12-.18a27.72,27.72,0,0,0-.88-4,2.93,2.93,0,0,1-.12-.82,2.74,2.74,0,0,1,1.82-2.58,2.81,2.81,0,0,1,1-.18,3,3,0,0,1,1.11.23,2.47,2.47,0,0,1,1.41,1.52q.29.94.59,1.93a3,3,0,0,1,.12.82,2.69,2.69,0,0,1-.47,1.52,3.25,3.25,0,0,1-1.87,1.58c0,.08,0,.12.06.12H697s0-.06,0-.06a2.56,2.56,0,0,1-1.41-1.23,2.36,2.36,0,0,1-.29-1.17,2,2,0,0,1,.12-.64q.29-1.17.53-2.34a3.3,3.3,0,0,1,1.41-2.05,2.91,2.91,0,0,1,2.4-.35,2.64,2.64,0,0,1,1.82,1.58A2.72,2.72,0,0,1,701.9,80a3.15,3.15,0,0,1-.23,1.17l-.82,1.93-.76,1.76c-.08.12,0,.18.12.18a1.69,1.69,0,0,1,1.23.53,1.75,1.75,0,0,1,.53,1.29v1.41a3.2,3.2,0,0,1-3.22,3.22h-.23a.36.36,0,0,0-.41.41v3a.36.36,0,0,0,.41.41h.23a3.22,3.22,0,1,1,0,6.45h-2.52a.52.52,0,0,0-.59.59v2.93a6.09,6.09,0,0,0,.12,1.46.51.51,0,0,0,.53.41h2a3.61,3.61,0,0,1,2.37.85,3.05,3.05,0,0,1,1.14,2.14v.35a3.86,3.86,0,0,1-.7,2.29A2.73,2.73,0,0,1,698.8,114Z"/><path class="cls-2" d="M739.88,105.16a.28.28,0,0,0,.09.21.16.16,0,0,0,.21,0,3,3,0,0,1,.59-.06,2.41,2.41,0,0,1,1.46.53,2.52,2.52,0,0,1,1.11,1.88l.12,1.11v.53a4.4,4.4,0,0,1-.82,2.58,4.72,4.72,0,0,1-2.7,1.82q-7.09,1.7-15.35,3.52a4.12,4.12,0,0,1-1,.12,4,4,0,0,1-2.29-.7,4.17,4.17,0,0,1-1.87-2.81,6.21,6.21,0,0,1-.06-.88,4.36,4.36,0,0,1,.76-2.4A4.42,4.42,0,0,1,723,108.8q4.28-.76,9.84-1.87a.72.72,0,0,1-.53-.35.92.92,0,0,1-.12-.64A154.1,154.1,0,0,0,734,89.58a3.49,3.49,0,0,1,1.41-2.75,3.57,3.57,0,0,1,2.34-.88,4,4,0,0,1,.64.06,4.41,4.41,0,0,1,2.87,1.76,4.2,4.2,0,0,1,.88,2.58,3,3,0,0,1-.06.59Q741.06,99.13,739.88,105.16Zm-.64-28.71a4,4,0,0,1,2.9,1.17,4,4,0,0,1,0,5.74,4,4,0,0,1-2.9,1.17H724.06a3.93,3.93,0,0,1-2.84-1.17,4,4,0,0,1,0-5.74,3.93,3.93,0,0,1,2.84-1.17h3.28a.52.52,0,0,0,.59-.59V70.65a3.86,3.86,0,0,1,1.2-2.87,4.1,4.1,0,0,1,5.74,0,3.86,3.86,0,0,1,1.2,2.87v5.21a.52.52,0,0,0,.59.59Zm-8.91,25.37v.35a4,4,0,0,1-.88,2.52,4.39,4.39,0,0,1-2.64,1.64,3.89,3.89,0,0,1-.64.06,3,3,0,0,1-1.93-.7,3.23,3.23,0,0,1-1.17-2.46,121.18,121.18,0,0,0-1.35-12.54,3,3,0,0,1-.06-.59,3.54,3.54,0,0,1,.64-2.05,3.46,3.46,0,0,1,2.29-1.52,4.32,4.32,0,0,1,.7-.06,3.56,3.56,0,0,1,3.46,2.81A107.87,107.87,0,0,1,730.33,101.82Zm43.74-24.64a4.17,4.17,0,0,1,0,5.86,4,4,0,0,1-2.9,1.2H763a.52.52,0,0,0-.59.59v8.32a.52.52,0,0,0,.59.59h5.45a5.1,5.1,0,0,1,5.1,5.1v19.1a4.28,4.28,0,0,1-1.32,3.13,4.35,4.35,0,0,1-3.19,1.32H766.9a2.27,2.27,0,0,1-1.67-.67,2.2,2.2,0,0,1-.67-1.61c0-.2-.08-.29-.23-.29H752.78a.26.26,0,0,0-.29.29,2.5,2.5,0,0,1-2.52,2.52h-1.7a4.2,4.2,0,0,1-4.22-4.22V98.84a5.1,5.1,0,0,1,5.1-5.1h3.69a.52.52,0,0,0,.59-.59v-23a4.48,4.48,0,1,1,9,0V75.4A.52.52,0,0,0,763,76h8.2A4,4,0,0,1,774.07,77.19ZM764,111.73a.52.52,0,0,0,.59-.59v-8.73a.52.52,0,0,0-.59-.59h-10.9a.52.52,0,0,0-.59.59v8.73a.52.52,0,0,0,.59.59Z"/><path class="cls-2" d="M834.76,112.43a3.81,3.81,0,1,1,0,7.62H816.54c-.16,0-.23.1-.23.29a2.22,2.22,0,0,1-.7,1.67,2.37,2.37,0,0,1-1.7.67h-1.64a3.93,3.93,0,0,1-2.84-1.17,3.79,3.79,0,0,1-1.2-2.81V90c0-.08,0-.12-.06-.12A.17.17,0,0,0,808,90a2.46,2.46,0,0,1-1.87.82h-.06a2.44,2.44,0,0,1-1.93-.88q-.59-.7-1.23-1.41a.07.07,0,0,0-.12,0,.17.17,0,0,0-.06.12,63.29,63.29,0,0,1,2.52,6.21,4.07,4.07,0,0,1,.18,1.17,3.77,3.77,0,0,1-.41,1.7,4.05,4.05,0,0,1-2.11,2l-.53.23a2.08,2.08,0,0,1-.94.23,2.25,2.25,0,0,1-1.11-.29,2.49,2.49,0,0,1-1.29-1.64.32.32,0,0,0-.41-.29l-.94.06a.58.58,0,0,0-.59.64v3.81a.47.47,0,0,0,.18.38.35.35,0,0,0,.35.09l.47-.18a6,6,0,0,1,1.64-.23,5.8,5.8,0,0,1,2.4.53,5,5,0,0,1,2.58,3q.41,1.52.76,3a3,3,0,0,1,.12.82,3.58,3.58,0,0,1-.53,1.88,4.12,4.12,0,0,1-2.23,1.76,3.62,3.62,0,0,1-.88.12,2.86,2.86,0,0,1-1.46-.41,3.1,3.1,0,0,1-1.41-2.05,58.09,58.09,0,0,0-1.82-6.86s0-.06-.09-.06-.09,0-.09.12V119a3.56,3.56,0,0,1-1.08,2.61,3.75,3.75,0,0,1-5.27,0A3.55,3.55,0,0,1,789.7,119V105s0-.06,0-.06,0,0,0,.06a65.83,65.83,0,0,1-2,10.08,2.48,2.48,0,0,1-1.7,1.76,2.72,2.72,0,0,1-1.11.23,3.12,3.12,0,0,1-1.41-.35,3.4,3.4,0,0,1-1.82-1.93,4.13,4.13,0,0,1-.35-1.64,5.61,5.61,0,0,1,.12-1.11,40.74,40.74,0,0,0,1.05-5.51,4.8,4.8,0,0,1,1.93-3.28,4.5,4.5,0,0,1,2.81-1,5.88,5.88,0,0,1,.82.06l1.11.23a.62.62,0,0,0,.41-.15.47.47,0,0,0,.18-.38V99.3a.56.56,0,0,0-.18-.41.41.41,0,0,0-.41-.12l-3.46.29h-.41a3.65,3.65,0,0,1-2.4-.88,3.72,3.72,0,0,1-1.41-2.58v-.47a3.34,3.34,0,0,1,.82-2.17,3.17,3.17,0,0,1,2.46-1.23l.29-.06a1,1,0,0,0,.76-.35,9.6,9.6,0,0,1,.62-.94q.5-.7.79-1.05a.85.85,0,0,0,.06-1,52.05,52.05,0,0,0-3.81-5,4.46,4.46,0,0,1-1.11-2.81,1,1,0,0,1-.06-.29,4.39,4.39,0,0,1,.82-2.58l1.35-1.87a1,1,0,0,1,.82-.5,1.29,1.29,0,0,1,.94.32.12.12,0,0,0,.18-.06q1.35-2.93,2.46-6a4,4,0,0,1,2.05-2.29,3.7,3.7,0,0,1,3-.18A3.16,3.16,0,0,1,795.91,69a3.1,3.1,0,0,1,.29,1.29,3.54,3.54,0,0,1-.41,1.58q-2.87,5.33-4.63,8.26a.68.68,0,0,0,.06.94l.41.53a.37.37,0,0,0,.32.18.36.36,0,0,0,.32-.23q1.58-2.64,2.87-5.1a4.24,4.24,0,0,1,2.29-2,3.92,3.92,0,0,1,1.35-.23,3.65,3.65,0,0,1,1.64.41,3,3,0,0,1,1.76,2.05,2.66,2.66,0,0,1,.18.94,3,3,0,0,1-.59,1.76q-2.7,3.93-5.27,7.5s0,.09,0,.15a.19.19,0,0,0,.18.09l4.1-1.76c.16-.08.29,0,.41.18h.06a55,55,0,0,0,9.14-15.88,4.82,4.82,0,0,1,2.23-2.58,4.44,4.44,0,0,1,2.11-.53,4.07,4.07,0,0,1,1.17.18,3.73,3.73,0,0,1,2.46,2,3.66,3.66,0,0,1,.41,1.64,3.49,3.49,0,0,1-.35,1.46q-1.11,2.64-2.23,5a.29.29,0,0,0,0,.35.34.34,0,0,0,.29.18h4.63a.83.83,0,0,0,.82-.53q1.29-2.93,2.29-5.92A5.24,5.24,0,0,1,826.5,68a4.54,4.54,0,0,1,2.52-.76,5.47,5.47,0,0,1,1.05.12,3.51,3.51,0,0,1,2.52,2,3.25,3.25,0,0,1,.41,1.55,3.6,3.6,0,0,1-.41,1.61q-1.11,2.29-2.17,4.28a.29.29,0,0,0,0,.35.34.34,0,0,0,.29.18h3.34a3.62,3.62,0,0,1,2.7,1.14,3.77,3.77,0,0,1,1.11,2.72A3.8,3.8,0,0,1,834.06,85H830a.52.52,0,0,0-.59.59v2.81A.52.52,0,0,0,830,89h2.4A3.63,3.63,0,0,1,835,90.08a3.59,3.59,0,0,1,1.08,2.64A3.69,3.69,0,0,1,835,95.38a3.58,3.58,0,0,1-2.67,1.11H830a.52.52,0,0,0-.59.59v2.87a.52.52,0,0,0,.59.59h2.64a3.61,3.61,0,0,1,2.64,1.11,3.64,3.64,0,0,1,1.11,2.67,3.54,3.54,0,0,1-1.11,2.64,3.65,3.65,0,0,1-2.64,1.08H830a.52.52,0,0,0-.59.59v3.22a.52.52,0,0,0,.59.59ZM793.51,90.75a.31.31,0,0,0,0,.26.23.23,0,0,0,.23.15L796,91a.35.35,0,0,0,.29-.18.29.29,0,0,0,0-.35,15.61,15.61,0,0,1-.64-1.52.36.36,0,0,0-.32-.23.37.37,0,0,0-.32.18Q794.1,90,793.51,90.75Zm28.13-5.16A.52.52,0,0,0,821,85h-4.16a.52.52,0,0,0-.59.59v2.81a.52.52,0,0,0,.59.59H821a.52.52,0,0,0,.59-.59ZM821,100.54a.52.52,0,0,0,.59-.59V97.08a.52.52,0,0,0-.59-.59h-4.16a.52.52,0,0,0-.59.59v2.87a.52.52,0,0,0,.59.59Zm-4.16,7.5a.52.52,0,0,0-.59.59v3.22a.52.52,0,0,0,.59.59H821a.52.52,0,0,0,.59-.59v-3.22A.52.52,0,0,0,821,108Z"/><path class="cls-2" d="M861.31,75.63a3.4,3.4,0,0,1,0,6.8H847.78a3.18,3.18,0,0,1-2.37-1,3.47,3.47,0,0,1,0-4.8,3.18,3.18,0,0,1,2.37-1ZM858,101a5.1,5.1,0,0,1,5.1,5.1v8.32a5.1,5.1,0,0,1-5.1,5.1h-4.34a.21.21,0,0,0-.23.23,2,2,0,0,1-.59,1.44,1.94,1.94,0,0,1-1.46.62h-1.29a3.18,3.18,0,0,1-2.37-1,3.26,3.26,0,0,1-1-2.34V106.1a5,5,0,0,1,1.46-3.6,4.88,4.88,0,0,1,3.63-1.49Zm14-25.14c.16,0,.23,0,.23-.18V75a.52.52,0,0,0-.59-.59H868.4a3,3,0,0,1-2.17-.88,3,3,0,0,1,0-4.28,3,3,0,0,1,2.17-.88h3.52a.26.26,0,0,0,.29-.29,2.41,2.41,0,0,1,.7-1.73,2.27,2.27,0,0,1,1.7-.73h2.81a2.34,2.34,0,0,1,1.76.73,2.41,2.41,0,0,1,.7,1.73.26.26,0,0,0,.29.29h5.27a.26.26,0,0,0,.29-.29,2.41,2.41,0,0,1,.7-1.73,2.27,2.27,0,0,1,1.7-.73h2.93a2.27,2.27,0,0,1,1.7.73,2.41,2.41,0,0,1,.7,1.73.26.26,0,0,0,.29.29h3.69a3,3,0,0,1,2.17.88,3,3,0,0,1,0,4.28,3,3,0,0,1-2.17.88h-3.69a.26.26,0,0,0-.29.29A2.3,2.3,0,0,1,891.2,77h-.06a.42.42,0,0,0-.41.23c-.12.2-.23.39-.32.59s-.21.41-.35.64-.23.41-.29.53a.37.37,0,0,0,0,.35.33.33,0,0,0,.32.18h6.15a2.48,2.48,0,0,1,1.82.76,2.62,2.62,0,0,1,0,3.69,2.48,2.48,0,0,1-1.82.76h-6.86a.59.59,0,0,0,0,1.17h6.21a2,2,0,0,1,1.44.59,2,2,0,0,1,0,2.87,2,2,0,0,1-1.44.59h-6.21a.52.52,0,0,0-.59.59v.06a.52.52,0,0,0,.59.59h6.21a2,2,0,0,1,1.44.59,2,2,0,0,1,0,2.87,2,2,0,0,1-1.44.59h-6.21a.52.52,0,0,0-.59.59v.12a.52.52,0,0,0,.59.59h8.32a2.55,2.55,0,0,1,1.88.76,2.62,2.62,0,0,1,0,3.69,2.55,2.55,0,0,1-1.87.76H874a5.1,5.1,0,0,1-5.1-5.1V90.28s-.06,0-.06,0a1,1,0,0,1-1.41,0,50.11,50.11,0,0,0-3.87-3.22.25.25,0,0,0-.23,0,.19.19,0,0,0-.12.18,3.3,3.3,0,0,1-1,2.46,3.44,3.44,0,0,1-2.49,1h-9.49a3.22,3.22,0,1,1,0-6.45h11.37a1.7,1.7,0,0,1,1.64,1.64.09.09,0,0,0,.06.09.09.09,0,0,0,.12,0A25.93,25.93,0,0,0,869.69,77a1.93,1.93,0,0,1,.94-1A1.9,1.9,0,0,1,872,75.87ZM850.18,99a3.06,3.06,0,0,1-2.29-1,3.25,3.25,0,0,1,0-4.57,3.06,3.06,0,0,1,2.29-1H860a3.06,3.06,0,0,1,2.29,1,3.25,3.25,0,0,1,0,4.57A3.06,3.06,0,0,1,860,99Zm9.61-31.58a3.06,3.06,0,0,1,2.29,1,3.25,3.25,0,0,1,0,4.57,3.06,3.06,0,0,1-2.29,1h-9.26a3.06,3.06,0,0,1-2.29-1,3.25,3.25,0,0,1,0-4.57,3.06,3.06,0,0,1,2.29-1Zm-3.63,40.84a.52.52,0,0,0-.59-.59H854a.52.52,0,0,0-.59.59v3.93a.52.52,0,0,0,.59.59h1.58a.52.52,0,0,0,.59-.59Zm37.21-5.21a2.41,2.41,0,0,1,.76-.12,3.3,3.3,0,0,1,1.58.41l1.35.64a2.7,2.7,0,0,1,1.35,1.58,4.38,4.38,0,0,1,.06.7,2.2,2.2,0,0,1-.41,1.29,25.58,25.58,0,0,1-6.21,6.45c-.12.08-.17.17-.15.26a.27.27,0,0,0,.21.21q2.69.53,5.57.88a2.19,2.19,0,0,1,1.82,1.41,2.65,2.65,0,0,1,.18.94,2.26,2.26,0,0,1-.47,1.35,7.75,7.75,0,0,1-2.81,2.46,5.81,5.81,0,0,1-2.52.59,4.12,4.12,0,0,1-1-.12,60.46,60.46,0,0,1-9.84-2.7,1.81,1.81,0,0,0-1.11,0,68.32,68.32,0,0,1-11.48,3,4.7,4.7,0,0,1-.76.06,4.42,4.42,0,0,1-2.17-.59,5.56,5.56,0,0,1-2.17-2.29,2.49,2.49,0,0,1-.06-2.23,2,2,0,0,1,1.76-1.29q3.57-.47,6.62-1.17a.19.19,0,0,0,.21-.18.28.28,0,0,0-.15-.29l-.06-.06a2.46,2.46,0,0,1-1.11-2.05,3,3,0,0,1,.06-.59,3,3,0,0,1,1.93-2.29s0,0,0-.09,0-.09-.09-.09h-5.16a3,3,0,0,1-2.14-.88,2.86,2.86,0,0,1-.91-2.14,3.1,3.1,0,0,1,3-3.08h24.26ZM885.75,75a.52.52,0,0,0-.59-.59h-5c-.16,0-.23.1-.23.29a2.2,2.2,0,0,1-.67,1.61,2.27,2.27,0,0,1-1.67.67h-1.11a.53.53,0,0,1,.35.29.62.62,0,0,1,0,.53l-.64,1.46c-.08.16,0,.23.18.23h5a.54.54,0,0,0,.59-.41c.16-.35.29-.7.41-1.05a2.75,2.75,0,0,1,1.29-1.52A2.43,2.43,0,0,1,885,76a1.75,1.75,0,0,1,.41.06q.29.06.29-.23Zm-5,10.9q.53,0,.53-.59t-.53-.59H877a.59.59,0,0,0,0,1.17Zm-.06,5.27a.52.52,0,0,0,.59-.59v-.06a.52.52,0,0,0-.59-.59H877a.52.52,0,0,0-.59.59v.06a.52.52,0,0,0,.59.59Zm0,5.33a.52.52,0,0,0,.59-.59v-.12a.52.52,0,0,0-.59-.59H877a.52.52,0,0,0-.59.59v.12a.52.52,0,0,0,.59.59Zm5.86,13a.24.24,0,0,0,.09-.23.14.14,0,0,0-.15-.12h-8.09a.19.19,0,0,0-.18.12.19.19,0,0,0,.06.23,21.43,21.43,0,0,0,3.75,2.05,1.24,1.24,0,0,0,1.05,0A33.5,33.5,0,0,0,886.57,109.5Z"/><path class="cls-2" d="M940.43,75.4A.52.52,0,0,0,941,76h15.06a5.1,5.1,0,0,1,5.1,5.1v21.5a4.6,4.6,0,0,1-4.57,4.57h-2.05a2.53,2.53,0,0,1-1.82-.73,2.38,2.38,0,0,1-.76-1.79.26.26,0,0,0-.29-.29H941a.52.52,0,0,0-.59.59v13.13a4.63,4.63,0,1,1-9.26,0V104.93a.52.52,0,0,0-.59-.59H920c-.23,0-.35.1-.35.29a2.76,2.76,0,0,1-.79,2,2.62,2.62,0,0,1-2,.82h-1.58a4.4,4.4,0,0,1-4.39-4.39v-22A5.1,5.1,0,0,1,916,76h14.59a.52.52,0,0,0,.59-.59V70.3A4.49,4.49,0,0,1,932.52,67a4.6,4.6,0,0,1,6.56,0,4.5,4.5,0,0,1,1.35,3.25Zm-20.8,19.8a.52.52,0,0,0,.59.59h10.37a.52.52,0,0,0,.59-.59V85.13a.52.52,0,0,0-.59-.59H920.21a.52.52,0,0,0-.59.59Zm20.8,0a.52.52,0,0,0,.59.59h10.37a.52.52,0,0,0,.59-.59V85.13a.52.52,0,0,0-.59-.59H941a.52.52,0,0,0-.59.59Z"/><path class="cls-2" d="M259.53,819.31a27.07,27.07,0,0,1,4.31.23,2.44,2.44,0,0,1,1.5.84,2.3,2.3,0,0,1,.52,1.45,49.27,49.27,0,0,1-4,19.17.69.69,0,0,0,.19.75q1.27,1,2.25,1.92a3.82,3.82,0,0,1,1.31,2.63v.42a4.61,4.61,0,0,1-.75,2.53,2.66,2.66,0,0,1-2.11,1.17h-.23a2.83,2.83,0,0,1-2.06-.89q-.84-.84-1.83-1.73a.35.35,0,0,0-.61,0,26.56,26.56,0,0,1-6.33,5.91,3.29,3.29,0,0,1-1.73.52,4.1,4.1,0,0,1-.89-.09,4,4,0,0,1-2.3-1.64,3.13,3.13,0,0,1-.52-1.73,4.63,4.63,0,0,1,0-.66,3.23,3.23,0,0,1,1.36-2,19.65,19.65,0,0,0,5-4.69.41.41,0,0,0-.09-.66,5,5,0,0,0-.63-.47,5,5,0,0,1-.73-.56c-.09-.06-.16,0-.19.09a1.06,1.06,0,0,1-.61.73,1.15,1.15,0,0,1-1,0l-1.69-.8a3.47,3.47,0,0,1-1.83-1.87,3.71,3.71,0,0,1-.37-1.59,3.9,3.9,0,0,1,.14-1q1.36-5.3,2.53-10.92a.34.34,0,0,0,0-.3.29.29,0,0,0-.23-.12h0a3.22,3.22,0,0,1-2.37-1,3.16,3.16,0,0,1-1-2.32,3.24,3.24,0,0,1,1-2.34,3.18,3.18,0,0,1,2.37-1h1.27a.52.52,0,0,0,.56-.47q.52-2.53,1-5.58a3.59,3.59,0,0,1,1.36-2.3,3.43,3.43,0,0,1,2.11-.7h.42a2.9,2.9,0,0,1,2.16,1.27,2.86,2.86,0,0,1,.61,1.78,4.71,4.71,0,0,1,0,.66q-.52,2.53-1,4.88a.35.35,0,0,0,.07.33.38.38,0,0,0,.3.14Zm-.75,7.08a.5.5,0,0,0-.12-.33.38.38,0,0,0-.3-.14h-3a.52.52,0,0,0-.56.47q-1.87,8.11-1.92,8.25a.6.6,0,0,0,.33.7q.94.61,2.48,1.69.42.28.56-.14A48.74,48.74,0,0,0,258.78,826.39Zm9-7.55A4,4,0,0,1,269,816a3.91,3.91,0,0,1,2.91-1.2h12a4.08,4.08,0,0,1,4.08,4.08V850a3.31,3.31,0,0,1-1,2.46,3.37,3.37,0,0,1-2.44,1h-1A2.48,2.48,0,0,1,281,851a.25.25,0,0,0-.28-.28h-6a.33.33,0,0,0-.37.38,3.2,3.2,0,0,1-3.19,3.19h-.09a3.16,3.16,0,0,1-2.32-1,3.22,3.22,0,0,1-1-2.37Zm6.56,24.8a.41.41,0,0,0,.47.47h5.67a.41.41,0,0,0,.47-.47V821.8a.41.41,0,0,0-.47-.47h-5.67a.41.41,0,0,0-.47.47Z"/><path class="cls-2" d="M320.43,817.2a.41.41,0,0,0,.47.47h13.92a4.08,4.08,0,0,1,4.08,4.08v2.44a3.21,3.21,0,0,1-6.42,0v-1.45a.41.41,0,0,0-.47-.47H320.9a.41.41,0,0,0-.47.47v5.91a3.18,3.18,0,0,1-1,2.37,3.4,3.4,0,0,1-4.73,0,3.18,3.18,0,0,1-1-2.37v-5.91a.41.41,0,0,0-.47-.47H302.2a.41.41,0,0,0-.47.47v1.59a3,3,0,0,1-3,3,3,3,0,0,1-2.18-.89,2.9,2.9,0,0,1-.91-2.16v-2.58a4.08,4.08,0,0,1,4.08-4.08h13.59a.41.41,0,0,0,.47-.47V817a.41.41,0,0,0-.47-.47H301.73a2.45,2.45,0,0,1-1.83-.77,2.6,2.6,0,0,1,0-3.66,2.45,2.45,0,0,1,1.83-.77h30.75a2.45,2.45,0,0,1,1.83.77,2.6,2.6,0,0,1,0,3.66,2.45,2.45,0,0,1-1.83.77H320.9a.41.41,0,0,0-.47.47Zm-22.17,21.28a2.54,2.54,0,0,1-1.9-.8,2.63,2.63,0,0,1-.77-1.9,2.55,2.55,0,0,1,.77-1.87,2.58,2.58,0,0,1,1.9-.77h37.92a2.58,2.58,0,0,1,1.9.77,2.55,2.55,0,0,1,.77,1.88,2.63,2.63,0,0,1-.77,1.9,2.54,2.54,0,0,1-1.9.8H320.9a.61.61,0,0,0-.66.42,2,2,0,0,1-.12.35l-.19.47a.3.3,0,0,0,0,.3.28.28,0,0,0,.23.14h12.14a4.08,4.08,0,0,1,4.08,4.08v5.11a9.14,9.14,0,0,1-.47,3.28,3.55,3.55,0,0,1-1.69,1.83,8.63,8.63,0,0,1-3.37.84.88.88,0,0,1-.28,0,3.29,3.29,0,0,1-2-.7,4.85,4.85,0,0,1-1.5-2.11,2.12,2.12,0,0,1-.14-.75,1.8,1.8,0,0,1,.38-1.08,1.78,1.78,0,0,1,1.59-.89H329q.66,0,.66-.56V846a.41.41,0,0,0-.47-.47h-3a.41.41,0,0,0-.47.47v6a3.14,3.14,0,1,1-6.28,0v-6a.41.41,0,0,0-.47-.47H316a.41.41,0,0,0-.47.47v6a3.14,3.14,0,1,1-6.28,0v-6a.41.41,0,0,0-.47-.47h-2.72a.41.41,0,0,0-.47.47v6.09a3.28,3.28,0,1,1-6.56,0v-7.83a4.08,4.08,0,0,1,4.08-4.08h9.42a.52.52,0,0,0,.56-.47,1.64,1.64,0,0,1,.07-.4,1.65,1.65,0,0,0,.07-.35.35.35,0,0,0-.07-.33.38.38,0,0,0-.3-.14Zm5.63-6.42a1.89,1.89,0,0,1-1.38-.59,1.92,1.92,0,0,1-.59-1.41,1.84,1.84,0,0,1,.59-1.38,1.93,1.93,0,0,1,1.38-.56h6.7a1.93,1.93,0,0,1,1.38.56,1.84,1.84,0,0,1,.59,1.38,1.92,1.92,0,0,1-.59,1.41,1.89,1.89,0,0,1-1.38.59Zm6.7-8.86a2,2,0,0,1,0,3.94H305a1.87,1.87,0,0,1-1.41-.59,2,2,0,0,1,0-2.77,1.87,1.87,0,0,1,1.41-.59Zm11.65,3.35a2,2,0,0,1,1.38-3.35h5.63a2,2,0,0,1,0,3.94h-5.62A1.89,1.89,0,0,1,322.24,826.55Zm1.43,5.55a2,2,0,0,1-2-2,1.87,1.87,0,0,1,.59-1.41,2,2,0,0,1,1.43-.56h6.61a2,2,0,0,1,1.43.56,1.87,1.87,0,0,1,.59,1.41,2,2,0,0,1-2,2Z"/><path class="cls-2" d="M359.3,811.58a4.08,4.08,0,0,1,4.08,4.08v32.58a13,13,0,0,1-.45,3.8,4.22,4.22,0,0,1-1.66,2.25,7.5,7.5,0,0,1-3.42,1.13,2.18,2.18,0,0,1-.42,0,3.13,3.13,0,0,1-2.16-.84,4.9,4.9,0,0,1-1.59-2.48,3.06,3.06,0,0,1-.09-.75,2.43,2.43,0,0,1,.52-1.45,2.21,2.21,0,0,1,1.92-1h.19a.75.75,0,0,0,.59-.19.92.92,0,0,0,.16-.61v-7.83a.41.41,0,0,0-.47-.47h-2.62a.46.46,0,0,0-.52.47,59.24,59.24,0,0,1-2.16,12.38,2.15,2.15,0,0,1-1.55,1.5,2.65,2.65,0,0,1-.84.14,2.79,2.79,0,0,1-1.41-.37,3.77,3.77,0,0,1-1.69-1.92,3.3,3.3,0,0,1-.14-2.53q2-6.75,2-20.25V815.66a4.08,4.08,0,0,1,4.08-4.08Zm-5.58,21.19a.48.48,0,0,0,.47.47h2.3a.41.41,0,0,0,.47-.47V829.2a.41.41,0,0,0-.47-.47h-2.25a.41.41,0,0,0-.47.47Q353.77,831.5,353.72,832.77ZM357,818.52a.41.41,0,0,0-.47-.47h-2.25a.41.41,0,0,0-.47.47v3.33a.41.41,0,0,0,.47.47h2.25a.41.41,0,0,0,.47-.47Zm26.67,10a16,16,0,0,1,4.22.42,2.55,2.55,0,0,1,1.41,1.08,2.64,2.64,0,0,1,.33,1.27v.47a43.49,43.49,0,0,1-4.69,13.55.52.52,0,0,0,.09.7,20.69,20.69,0,0,0,3.23,2.48,2.73,2.73,0,0,1,1.27,2,2.67,2.67,0,0,1,0,.52,2.8,2.8,0,0,1-.61,1.73,4.14,4.14,0,0,1-2.34,1.5,6,6,0,0,1-.75,0,3.38,3.38,0,0,1-1.83-.56,27.27,27.27,0,0,1-2.91-2.44.41.41,0,0,0-.66,0,25.33,25.33,0,0,1-2.11,2,3.54,3.54,0,0,1-2.2.8,3.08,3.08,0,0,1-.75-.09,4.7,4.7,0,0,1-2.72-1.69,6.61,6.61,0,0,0-.61-.7c0-.06-.09-.08-.16,0a.18.18,0,0,0-.12.19v.56a3.28,3.28,0,1,1-6.56,0V815.66a4.08,4.08,0,0,1,4.08-4.08h15a4.08,4.08,0,0,1,4.08,4.08v5.25a8.24,8.24,0,0,1-.61,3.54,4,4,0,0,1-2.25,1.9,17.33,17.33,0,0,1-5.67.84h-.09a3.48,3.48,0,0,1-2.25-.84,4.39,4.39,0,0,1-1.55-2.11,2.12,2.12,0,0,1-.14-.75,2,2,0,0,1,2-2h1.45q1,0,1.45,0a1.64,1.64,0,0,0,.8-.14.6.6,0,0,0,.23-.56v-2.25a.41.41,0,0,0-.47-.47h-9a.41.41,0,0,0-.47.47v9.56a.41.41,0,0,0,.47.47ZM371.91,836q0-.09-.07-.07s-.07,0-.07.07v13.69a.23.23,0,0,0,.14.21.26.26,0,0,0,.28,0,20.75,20.75,0,0,0,4.17-3.61.54.54,0,0,0,0-.75A45.66,45.66,0,0,1,371.91,836Zm10.36-.7a.29.29,0,0,0-.07-.28.38.38,0,0,0-.3-.14h-4a.32.32,0,0,0-.28.14.23.23,0,0,0,0,.28A29.23,29.23,0,0,0,380,840a.27.27,0,0,0,.47,0A32,32,0,0,0,382.27,835.25Z"/><path class="cls-2" d="M440,818.33a2.06,2.06,0,0,1-.61,1.48,2,2,0,0,1-1.5.63.34.34,0,0,0-.33.19,23,23,0,0,1-3.75,5.67.35.35,0,0,0,0,.3.45.45,0,0,0,.19.26,39.25,39.25,0,0,0,3.84,1.22,2.14,2.14,0,0,1,1.55,1.45,2.52,2.52,0,0,1,.14.8,2.31,2.31,0,0,1-.47,1.36,6,6,0,0,1-2.53,2,4.76,4.76,0,0,1-1.59.28,4.42,4.42,0,0,1-1.41-.23,30.89,30.89,0,0,1-5.25-2.39.82.82,0,0,0-.84,0q-1.41.75-2.72,1.31a.16.16,0,0,0,0,.12s0,.07.09.07H426a3.22,3.22,0,0,1,2.48,1.08,3.13,3.13,0,0,1,.84,2.16v.38a.3.3,0,0,0,.07.3.41.41,0,0,0,.3.12h5.91a3.62,3.62,0,0,1,2.77,1.22,3.41,3.41,0,0,1,1,2.44v.42a63.35,63.35,0,0,1-1.17,7.9,8.9,8.9,0,0,1-1.64,3.82,6.14,6.14,0,0,1-3.8,2q-.8.09-2.06.19h-.14a3.43,3.43,0,0,1-2.3-.89,5.2,5.2,0,0,1-1.5-2.39,2.88,2.88,0,0,1-.09-.7,2.26,2.26,0,0,1,.42-1.31,1.93,1.93,0,0,1,1.69-.89h.47a2,2,0,0,0,1.5-.56q.89-.89,1.45-5a.5.5,0,0,0-.12-.33.38.38,0,0,0-.3-.14h-3.19a.58.58,0,0,0-.61.42,19.57,19.57,0,0,1-3.42,6.38,19.91,19.91,0,0,1-6,4.83,3.3,3.3,0,0,1-2.62.19,4.34,4.34,0,0,1-2.2-1.64,2.55,2.55,0,0,1-.52-1.55,2.21,2.21,0,0,1,.09-.61,2.4,2.4,0,0,1,1.31-1.73,13.41,13.41,0,0,0,6-5.86.23.23,0,0,0,0-.28.32.32,0,0,0-.28-.14h-.19a4.08,4.08,0,0,1-4.08-4.08v-1.17a0,0,0,0,0-.09,0q-.19.7-.33,1.27a2.11,2.11,0,0,1-1.22,1.41,2.4,2.4,0,0,1-.89.19,2.17,2.17,0,0,1-1-.23,3.22,3.22,0,0,1-1.5-1.45,3.72,3.72,0,0,1-.33-1.5,4.33,4.33,0,0,1,0-.61q.28-1.5.47-3a.35.35,0,0,0-.07-.33.38.38,0,0,0-.3-.14h-.56a.41.41,0,0,0-.47.47v14.91a11.61,11.61,0,0,1-.49,3.77,4.06,4.06,0,0,1-1.85,2.18,10.33,10.33,0,0,1-3.8,1,1.54,1.54,0,0,1-.37,0,3.3,3.3,0,0,1-2.2-.84,4.92,4.92,0,0,1-1.64-2.44,3.65,3.65,0,0,1-.09-.8,2.37,2.37,0,0,1,.47-1.41,2.12,2.12,0,0,1,1.88-1h.75a1.21,1.21,0,0,0,.63-.19.66.66,0,0,0,.16-.52V841a.11.11,0,0,0-.09-.12.11.11,0,0,0-.14.07,28.1,28.1,0,0,1-2.62,4.17,2,2,0,0,1-1.59.8,2.38,2.38,0,0,1-.47,0,2.55,2.55,0,0,1-1.87-1.5,5.48,5.48,0,0,1-.47-2.2q0-.42,0-.89a5.93,5.93,0,0,1,1.36-2.86,29,29,0,0,0,3.42-5.16.23.23,0,0,0,0-.28.28.28,0,0,0-.23-.14h-1.83a3,3,0,0,1,0-6h6.19a.11.11,0,0,0,.12-.09.11.11,0,0,0-.07-.14q-2.16-1.12-4.83-2.25a1.88,1.88,0,0,1-1.22-1.5,1.63,1.63,0,0,1-.09-.52,2,2,0,0,1,.61-1.41,5,5,0,0,1,2.39-1.36,6.83,6.83,0,0,1,1.13-.09,4.76,4.76,0,0,1,1.59.28.63.63,0,0,0,.61-.14q.89-.84,1.45-1.41a.19.19,0,0,0,0-.23.23.23,0,0,0-.21-.14h-7a2.83,2.83,0,0,1-2-.84,2.83,2.83,0,0,1,0-4.08,2.83,2.83,0,0,1,2-.84h12.14a.52.52,0,0,0,.23,0,3.42,3.42,0,0,1,.56,0,2.38,2.38,0,0,1,1.22.33l1.36.89a2.42,2.42,0,0,1,1.17,1.59,1.77,1.77,0,0,1,.09.56,2.31,2.31,0,0,1-.47,1.36,37.12,37.12,0,0,1-4.92,5.34q-.28.28,0,.42a2.31,2.31,0,0,1,1.31,1.83,1.77,1.77,0,0,1,0,.42,2.41,2.41,0,0,1-.7,1.69l-.14.14a.2.2,0,0,0,0,.19.15.15,0,0,0,.14.09h1.13a.42.42,0,0,0,.19,0,3.64,3.64,0,0,1,1.64,0l3.09,1a.34.34,0,0,1,.23.42h0a23.7,23.7,0,0,0,3.89-1.27.45.45,0,0,0,.19-.26.21.21,0,0,0-.09-.26q-1-1-2-2.34c-.06-.12-.14-.14-.23,0a1.81,1.81,0,0,1-1.27.54,2.21,2.21,0,0,1-1.36-.4l-1.41-1a2.42,2.42,0,0,1-1.08-2.11,2.62,2.62,0,0,1,.8-1.92,29.5,29.5,0,0,0,5.06-6.23,4.6,4.6,0,0,1,2.06-1.87,4.51,4.51,0,0,1,1.64-.33,4.08,4.08,0,0,1,1.08.14l.33.09a2.4,2.4,0,0,1,1.64,1.41,2.52,2.52,0,0,1,.19.94,2.22,2.22,0,0,1-.33,1.13.3.3,0,0,0,0,.23.19.19,0,0,0,.19.09h10a2.88,2.88,0,0,1,2.86,2.86Zm-23.86,18a.57.57,0,0,0,.09.33.32.32,0,0,0,.28.14h5.34a.46.46,0,0,0,.52-.47q.14-.94.23-2.48a.23.23,0,0,0-.09-.26.28.28,0,0,0-.28-.07q-1,.38-1.73.61a3.68,3.68,0,0,1-.8.09,3,3,0,0,1-1-.19,3.18,3.18,0,0,1-1.5-1.22.11.11,0,0,0-.12,0,.29.29,0,0,0-.12.07Q416.64,834.36,416.13,836.38Zm13.45-15.56a.3.3,0,0,0,0-.26.23.23,0,0,0-.21-.12h-4.41a.19.19,0,0,0-.14.33,12.57,12.57,0,0,0,2.39,2.25.48.48,0,0,0,.7,0A18.27,18.27,0,0,0,429.58,820.81Z"/><path class="cls-2" d="M448.29,823.34a2.54,2.54,0,0,1-1.9-.8,2.77,2.77,0,0,1,0-3.84,2.54,2.54,0,0,1,1.9-.8h13.22a2.72,2.72,0,0,1,0,5.44Zm10.36,14.86a4.08,4.08,0,0,1,4.08,4.08V849a4.08,4.08,0,0,1-4.08,4.08h-4.92q-.14,0-.14.19a1.46,1.46,0,0,1-.47,1.1,1.52,1.52,0,0,1-1.08.45h-1.36a2.88,2.88,0,0,1-2.91-2.91v-9.66a4.08,4.08,0,0,1,4.08-4.08Zm1.41-13.41a2.58,2.58,0,1,1,0,5.16h-9.56a2.58,2.58,0,1,1,0-5.16Zm-9.56,11.81a2.45,2.45,0,0,1-1.83-.77,2.6,2.6,0,0,1,0-3.66,2.45,2.45,0,0,1,1.83-.77h9.56a2.45,2.45,0,0,1,1.83.77,2.6,2.6,0,0,1,0,3.66,2.45,2.45,0,0,1-1.83.77ZM460,811.34a2.45,2.45,0,0,1,1.83.77,2.6,2.6,0,0,1,0,3.66,2.45,2.45,0,0,1-1.83.77h-9.33a2.45,2.45,0,0,1-1.83-.77,2.6,2.6,0,0,1,0-3.66,2.45,2.45,0,0,1,1.83-.77Zm-3.14,32.72a.41.41,0,0,0-.47-.47h-2.3a.41.41,0,0,0-.47.47v3.14a.41.41,0,0,0,.47.47h2.3a.41.41,0,0,0,.47-.47Zm24-20.62a.41.41,0,0,0,.47.47h7.17a2.32,2.32,0,0,1,1.73.73,2.49,2.49,0,0,1,0,3.47,2.32,2.32,0,0,1-1.73.73h-21.7a2.34,2.34,0,0,1-1.71-.73,2.43,2.43,0,0,1,0-3.47,2.34,2.34,0,0,1,1.71-.73h7a.41.41,0,0,0,.47-.47v-.23a.41.41,0,0,0-.47-.47h-4.87a2.32,2.32,0,0,1-2.3-2.3,2.13,2.13,0,0,1,.68-1.59,2.25,2.25,0,0,1,1.62-.66h4.88a.41.41,0,0,0,.47-.47v-.19a.41.41,0,0,0-.47-.47h-6a2.3,2.3,0,0,1-1.69-.7,2.43,2.43,0,0,1,0-3.42,2.3,2.3,0,0,1,1.69-.7H474a.21.21,0,0,0,.23-.23,2,2,0,0,1,.59-1.45,1.91,1.91,0,0,1,1.43-.61h2.53a1.91,1.91,0,0,1,1.43.61,2,2,0,0,1,.59,1.45.21.21,0,0,0,.23.23h6.61a2.36,2.36,0,0,1,1.73.7,2.43,2.43,0,0,1,0,3.42,2.36,2.36,0,0,1-1.73.7h-6.37a.41.41,0,0,0-.47.47v.19a.41.41,0,0,0,.47.47h5.77a2.24,2.24,0,0,1,2.25,2.25,2.25,2.25,0,0,1-.66,1.62,2.13,2.13,0,0,1-1.59.68h-5.77a.41.41,0,0,0-.47.47Zm3.56,6.66a4,4,0,0,1,2.88,1.17,3.91,3.91,0,0,1,1.2,2.91v15.14a8.52,8.52,0,0,1-.52,3.33,3.72,3.72,0,0,1-1.83,1.83,12.25,12.25,0,0,1-4.5.89h-.14a3.23,3.23,0,0,1-2.06-.75,4.53,4.53,0,0,1-1.36-2,2.36,2.36,0,0,1-.09-.66,1.87,1.87,0,0,1,.38-1.12,1.76,1.76,0,0,1,1.55-.84l.75,0,.52,0a1.14,1.14,0,0,0,.66-.14.68.68,0,0,0,.19-.56v-2.06a.41.41,0,0,0-.47-.47h-7.27a.41.41,0,0,0-.47.47v5.16a3.21,3.21,0,0,1-6.42,0V834.17a3.91,3.91,0,0,1,1.2-2.91,4,4,0,0,1,2.88-1.17Zm-2.39,5.3a.41.41,0,0,0-.47-.47h-7.27a.41.41,0,0,0-.47.47v.47a.41.41,0,0,0,.47.47h7.27a.41.41,0,0,0,.47-.47Zm-8.2,6.42a.41.41,0,0,0,.47.47h7.27a.41.41,0,0,0,.47-.47v-.61a.41.41,0,0,0-.47-.47h-7.27a.41.41,0,0,0-.47.47Z"/><path class="cls-2" d="M514.91,815.94a1.78,1.78,0,0,1-.56,1.34,1.84,1.84,0,0,1-1.31.54.21.21,0,0,0-.23.23v34.64a2.88,2.88,0,0,1-5.77,0v-4.5a.32.32,0,0,0-.14-.28.58.58,0,0,0-.33-.09q-2.25.47-6.52,1.27a4.64,4.64,0,0,1-.66,0,3,3,0,0,1-1.78-.61,3,3,0,0,1-1.36-2.06l-.09-.56a2.38,2.38,0,0,1,0-.47,2.36,2.36,0,0,1,.52-1.5,2.47,2.47,0,0,1,1.73-1,.34.34,0,0,0,.33-.37V818c0-.16-.06-.23-.19-.23a1.72,1.72,0,0,1-1.27-.52,1.66,1.66,0,0,1-.52-1.22v-1.36a3.12,3.12,0,0,1,3.09-3.09h12a3.12,3.12,0,0,1,3.09,3.09Zm-8.34,6a.41.41,0,0,0,.47-.47v-3.19a.41.41,0,0,0-.47-.47h-1.73a.41.41,0,0,0-.47.47v3.19a.41.41,0,0,0,.47.47Zm-1.73,5.63a.41.41,0,0,0-.47.47v3.14a.41.41,0,0,0,.47.47h1.73a.41.41,0,0,0,.47-.47V828a.41.41,0,0,0-.47-.47Zm-.47,14a.41.41,0,0,0,.14.28.33.33,0,0,0,.33.09l1.73-.28a.52.52,0,0,0,.47-.56v-3.37a.41.41,0,0,0-.47-.47h-1.73a.41.41,0,0,0-.47.47Zm23.39-8.81a.09.09,0,0,0-.14,0l-2.58.75a.52.52,0,0,1-.52-.09.74.74,0,0,1-.28-.47.08.08,0,0,0-.09-.09l-7.92.84h-.28a2.36,2.36,0,0,1-1.5-.56,2.42,2.42,0,0,1-.89-1.59,1,1,0,0,1,0-.33,2.05,2.05,0,0,1,.52-1.36,2.09,2.09,0,0,1,1.59-.8l.23,0a.5.5,0,0,0,.47-.23,38.16,38.16,0,0,0,2.06-3.23.68.68,0,0,0,0-.8q-1.12-1.36-2.72-3a2.72,2.72,0,0,1-.89-1.78,1.38,1.38,0,0,1,0-.33,2.55,2.55,0,0,1,.52-1.55l.94-1.41a.61.61,0,0,1,.47-.28.7.7,0,0,1,.56.14s.06,0,.09,0q.7-1.83,1.31-3.75A3.09,3.09,0,0,1,520,811a2.7,2.7,0,0,1,1.36-.37,2.65,2.65,0,0,1,.84.14,2.25,2.25,0,0,1,1.45,1.31,2.41,2.41,0,0,1,.19.89,2.22,2.22,0,0,1-.33,1.13l-2.86,5a.58.58,0,0,0,.09.75l.14.14a.25.25,0,0,0,.26.12.24.24,0,0,0,.21-.16,4.42,4.42,0,0,1,2.3-2.16,4.13,4.13,0,0,1,1.69-.37,4.57,4.57,0,0,1,1.45.23l.7.28a.34.34,0,0,0,.42-.14l.7-1.22a1,1,0,0,1,.61-.42.82.82,0,0,1,.7.14q.09.09.14,0,.66-1.64,1.31-3.52a2.84,2.84,0,0,1,1.5-1.73,2.7,2.7,0,0,1,1.36-.37,4.55,4.55,0,0,1,.89.09,2.25,2.25,0,0,1,1.5,1.41,2.65,2.65,0,0,1,.14.84,2.3,2.3,0,0,1-.33,1.17q-2.11,3.66-2.81,4.83a.48.48,0,0,0,0,.7l.19.19a.29.29,0,0,0,.26.07.36.36,0,0,0,.26-.16q.23-.52.47-1.08a3.08,3.08,0,0,1,1.59-1.55,3.37,3.37,0,0,1,1.22-.23,2.88,2.88,0,0,1,1,.19,2,2,0,0,1,1.36,1.36,2.12,2.12,0,0,1,.14.75,2.08,2.08,0,0,1-.37,1.17q-2,3.09-3.7,5.67a.13.13,0,0,0,0,.19.12.12,0,0,0,.16,0,4.76,4.76,0,0,1,1.31-.19,4.13,4.13,0,0,1,1.78.42,3.54,3.54,0,0,1,1.92,2.2q.38,1.22.61,2.3a2.67,2.67,0,0,1,0,.52,2.63,2.63,0,0,1-.37,1.31,2.91,2.91,0,0,1-1.55,1.17l-.37.09a1.36,1.36,0,0,1-1.27-.16,1.68,1.68,0,0,1-.75-1.15.22.22,0,0,0-.23-.19q-1,.14-8.39,1a1.07,1.07,0,0,1-.77-.21A.94.94,0,0,1,527.75,832.77Zm-7.31,9.42a.41.41,0,0,0,.47-.47v-4.78a2.58,2.58,0,0,1,.82-1.92,2.77,2.77,0,0,1,3.89,0,2.58,2.58,0,0,1,.82,1.92v6.23a18.63,18.63,0,0,1-1.1,6.82,9.42,9.42,0,0,1-4.2,4.62,2.63,2.63,0,0,1-1.31.38,2.65,2.65,0,0,1-.84-.14,3.78,3.78,0,0,1-1.83-1.41,2.11,2.11,0,0,1-.47-1.31,2.38,2.38,0,0,1,0-.47,2.68,2.68,0,0,1,1.08-1.59,6.39,6.39,0,0,0,2.44-2.91.23.23,0,0,0,0-.28.32.32,0,0,0-.28-.14h-.52q-.19,0-.19.14a1.35,1.35,0,0,1-.37,1,1.23,1.23,0,0,1-.94.4h-1.12a2.48,2.48,0,0,1-2.48-2.48v-7.83a2.39,2.39,0,0,1,.73-1.76,2.43,2.43,0,0,1,3.47,0,2.39,2.39,0,0,1,.73,1.76v3.8a.41.41,0,0,0,.47.47Zm.89-13.92a.16.16,0,0,0,0,.21.23.23,0,0,0,.21.12l1.64-.14q.19,0,.14-.23a1.76,1.76,0,0,1-.09-.56,1.8,1.8,0,0,1,.23-.89,1.86,1.86,0,0,1,1.13-.94h.09a2.24,2.24,0,0,1,1.64.14,2,2,0,0,1,1,1.22,10,10,0,0,1,.42,1.41.45.45,0,0,0,.52.33h.47a1,1,0,0,0,.75-.42q1.13-1.73,1.83-3a.68.68,0,0,0,0-.8,27.94,27.94,0,0,0-4.17-4.22q-.38-.28-.61.09Q523.63,825.13,521.33,828.27Zm13.31,13.92a.41.41,0,0,0,.47-.47V838a2.58,2.58,0,1,1,5.16,0v7.64a2.56,2.56,0,0,1-2.58,2.58h-1.22a1.36,1.36,0,0,1-1.36-1.36.12.12,0,0,0-.14-.14h-1.12a.41.41,0,0,0-.47.47v5.58a2.7,2.7,0,0,1-.8,1.95,2.77,2.77,0,0,1-3.94,0,2.7,2.7,0,0,1-.8-1.95V836.94a2.77,2.77,0,1,1,5.53,0v4.78a.41.41,0,0,0,.47.47Zm0-14a.16.16,0,0,0,0,.21.23.23,0,0,0,.21.12l1.17-.09a.46.46,0,0,0,.28-.19.4.4,0,0,0,0-.33q-.14-.42-.37-1a.23.23,0,0,0-.42,0Q535.16,827.38,534.64,828.17Z"/><path class="cls-2" d="M585,814a4.32,4.32,0,0,1,.61,0,2.64,2.64,0,0,1,1.27.33l1.27.66a2.6,2.6,0,0,1,1.27,1.5,3.1,3.1,0,0,1,.14.89,2.8,2.8,0,0,1-.23,1.08,37.36,37.36,0,0,1-6,9.14q-.33.38,0,.61a43.16,43.16,0,0,0,5.48,2.81,2.7,2.7,0,0,1,1.64,2,3.08,3.08,0,0,1,.09.75,3,3,0,0,1-.61,1.78q-.33.42-.61.84a1.37,1.37,0,0,0-.28.84v14.77a3.27,3.27,0,0,1-1,2.44,3.33,3.33,0,0,1-2.41,1h-2a1.36,1.36,0,0,1-1.36-1.36.17.17,0,0,0-.19-.19h-8.39a.17.17,0,0,0-.19.19,1.52,1.52,0,0,1-1.55,1.55h-1.69a3.2,3.2,0,0,1-3.23-3.23V838.72a0,0,0,0,0,0,0,.28.28,0,0,1-.37-.14q-.47-.84-1.17-1.87a.28.28,0,0,0-.37-.14l-1.83.8a1.44,1.44,0,0,1-1.36,0,1.8,1.8,0,0,1-.89-1.1.21.21,0,0,0-.28-.19l-.89,0a.46.46,0,0,0-.47.52v2.53a.28.28,0,0,0,.14.23.31.31,0,0,0,.28,0,4.76,4.76,0,0,1,1.31-.19,4.13,4.13,0,0,1,1.69.38,3.68,3.68,0,0,1,2,2.25q.47,1.31.84,2.48a3,3,0,0,1,.14.84,2.64,2.64,0,0,1-.33,1.27,2.72,2.72,0,0,1-1.64,1.41,2,2,0,0,1-.8.19,2.05,2.05,0,0,1-1.12-.33,2.4,2.4,0,0,1-1.27-1.55q-.42-1.55-1.12-3.7s0,0-.07,0-.07,0-.07,0v10.13a3,3,0,0,1-6,0V842h0a48.36,48.36,0,0,1-1.5,7.45,2.25,2.25,0,0,1-1.41,1.5,2.51,2.51,0,0,1-.94.19,2.59,2.59,0,0,1-1.17-.28,3.06,3.06,0,0,1-1.55-1.64,3.42,3.42,0,0,1-.28-1.36,4.51,4.51,0,0,1,.09-.89,33,33,0,0,0,.84-4.31A3.84,3.84,0,0,1,549,840a3.54,3.54,0,0,1,2.2-.8,2.55,2.55,0,0,1,.7.09l1,.19a.5.5,0,0,0,.33-.12.38.38,0,0,0,.14-.3V837a.48.48,0,0,0-.47-.47l-3.19.23h-.23a2.87,2.87,0,0,1-2-.75,2.82,2.82,0,0,1-1.08-2.06,1,1,0,0,1,0-.33,2.68,2.68,0,0,1,.7-1.83,2.82,2.82,0,0,1,2.06-1h.23a.76.76,0,0,0,.61-.28q.61-.8,1.22-1.64a.68.68,0,0,0,0-.8,49.12,49.12,0,0,0-3.14-3.89,3.6,3.6,0,0,1-.94-2.2,1,1,0,0,1,0-.33,3.56,3.56,0,0,1,.61-2l1-1.5a.89.89,0,0,1,.66-.37,1,1,0,0,1,.75.23q.09.09.14,0,1.13-2.44,2.06-5a3.17,3.17,0,0,1,1.64-1.78,3,3,0,0,1,2.39-.14,2.53,2.53,0,0,1,1.64,1.64,2.74,2.74,0,0,1-.14,2.3q-2.3,4.31-3.61,6.52a.61.61,0,0,0,0,.75l.38.47a.29.29,0,0,0,.26.14.29.29,0,0,0,.26-.19q1.31-2.16,2.34-4.17a3.2,3.2,0,0,1,1.83-1.55,2.8,2.8,0,0,1,1.08-.23,2.91,2.91,0,0,1,1.31.33,2.54,2.54,0,0,1,1.45,1.64,3.08,3.08,0,0,1,.09.75,2.38,2.38,0,0,1-.47,1.41q-2.06,3.09-4.08,5.86s0,.07,0,.12a.16.16,0,0,0,.14.07,3.71,3.71,0,0,1,1.5-.33,4.29,4.29,0,0,1,1.36.23,3.39,3.39,0,0,1,2.06,1.92q.7,1.55,1.31,3.09.14.47.56.28a40.68,40.68,0,0,0,7.13-3.75q.38-.23,0-.56-1.27-1.31-2.44-2.72a.41.41,0,0,0-.66,0q-.28.23-.52.47a3,3,0,0,1-2,.75H567a3.74,3.74,0,0,1-2.3-1.12,2.81,2.81,0,0,1-.84-2.06,2.58,2.58,0,0,1,.94-2.06,28.9,28.9,0,0,0,6.38-8,4.76,4.76,0,0,1,2-2.06,4,4,0,0,1,2-.56,2.55,2.55,0,0,1,.7.09l.56.09a2.15,2.15,0,0,1,1.59,1.13,2.38,2.38,0,0,1,.23,1,2.08,2.08,0,0,1-.23.94.17.17,0,0,0,0,.19.2.2,0,0,0,.16.09H585Zm-28.87,16.27a.25.25,0,0,0,0,.21.18.18,0,0,0,.19.12l2.34-.09a.26.26,0,0,0,.26-.14.36.36,0,0,0,0-.28q-.66-1.5-.75-1.78a.29.29,0,0,0-.26-.14.35.35,0,0,0-.26.09Q557.29,828.83,556.17,830.23ZM572,836.42a.11.11,0,0,0-.07.14.11.11,0,0,0,.12.09h12.8a.11.11,0,0,0,.12-.09.11.11,0,0,0-.07-.14,42.79,42.79,0,0,1-6.23-3.75.57.57,0,0,0-.75,0A44.22,44.22,0,0,1,572,836.42Zm1.59,10.92a.41.41,0,0,0,.47.47h7.83a.41.41,0,0,0,.47-.47V843a.41.41,0,0,0-.47-.47h-7.83a.41.41,0,0,0-.47.47Zm7.45-27a.36.36,0,0,0,0-.28.23.23,0,0,0-.21-.14h-6.19a.41.41,0,0,0-.33.19.23.23,0,0,0,0,.33,38.8,38.8,0,0,0,3.28,3.47q.33.33.66,0A26.75,26.75,0,0,0,581.06,820.3Z"/><path class="cls-2" d="M641.12,814.74a3,3,0,0,1,.89,2.18,3,3,0,0,1-3,3h-2.11a.23.23,0,0,0-.21.14.36.36,0,0,0,0,.28,20.58,20.58,0,0,0,3.28,4.17,4,4,0,0,1,1.22,2.67,1.4,1.4,0,0,1,0,.33,3.91,3.91,0,0,1-.89,2.48,24.78,24.78,0,0,0-1.64,2.16c-.06.09,0,.14.09.14a1.44,1.44,0,0,1,1.45,1.45v1.31a2.62,2.62,0,0,1-.8,1.92,2.68,2.68,0,0,1-2,.8H628a.59.59,0,0,0-.61.47l-.14.52a.35.35,0,0,0,.07.33.38.38,0,0,0,.3.14H635a3.48,3.48,0,0,1,2.72,1.22,3.36,3.36,0,0,1,1,2.39,2.42,2.42,0,0,1,0,.47,43.6,43.6,0,0,1-1.12,6.66,7.32,7.32,0,0,1-1.69,3.33,7,7,0,0,1-4.59,1.92,35.84,35.84,0,0,1-3.61.14,3.4,3.4,0,0,1-2.32-.89,5.17,5.17,0,0,1-1.48-2.3,1.77,1.77,0,0,1-.14-.7,1.87,1.87,0,0,1,.38-1.12,1.65,1.65,0,0,1,1.5-.84h.09q1.5,0,2.72,0a3,3,0,0,0,1.92-.47q.8-.7,1.31-3.84a.35.35,0,0,0-.07-.33.38.38,0,0,0-.3-.14h-5.62a.18.18,0,0,0-.19.14,1.75,1.75,0,0,1-.75.91,1.65,1.65,0,0,1-1.12.21l-1.78-.28a2.59,2.59,0,0,1-1.92-1.27,3,3,0,0,1-.37-1.41,3.1,3.1,0,0,1,.14-.89q.61-2,1.17-4a.31.31,0,0,0,0-.28.28.28,0,0,0-.23-.14h-1a2.72,2.72,0,0,1-2.72-2.72V833a.64.64,0,0,1,.61-.61c.06,0,.08,0,0-.09a20.41,20.41,0,0,0-2.58-3.61.94.94,0,0,0-.75-.33h-2.91a.41.41,0,0,0-.47.47v3.28a.37.37,0,0,0,.42.42H612a2.88,2.88,0,0,1,2.09.84,2.77,2.77,0,0,1,.87,2.06,3,3,0,0,1-3,3h-.75a.37.37,0,0,0-.42.42v5.39a.32.32,0,0,0,.14.28.5.5,0,0,0,.28.09l2.16-.47A2.22,2.22,0,0,1,614,844a2.49,2.49,0,0,1,1.5.52,2.45,2.45,0,0,1,1.08,1.88,1.57,1.57,0,0,1,0,.38,3.37,3.37,0,0,1-.23,1.22,3.25,3.25,0,0,1-2.3,2l-13,3.09a3.51,3.51,0,0,1-.75.09,3.28,3.28,0,0,1-1.69-.47,3.2,3.2,0,0,1-1.41-2.06l-.28-1.5a1.54,1.54,0,0,1,0-.37,1.58,1.58,0,0,1,.28-.89,1.55,1.55,0,0,1,1.08-.7.22.22,0,0,0,.19-.23V833.7a2.54,2.54,0,0,1,.8-1.9,2.63,2.63,0,0,1,1.9-.77,2.55,2.55,0,0,1,1.88.77,2.58,2.58,0,0,1,.77,1.9v11.91a.34.34,0,0,0,.14.26.35.35,0,0,0,.33.07l.23,0a.52.52,0,0,0,.47-.56V828.78a.41.41,0,0,0-.47-.47h-1.45a4.08,4.08,0,0,1-4.08-4.08V815.7a4.08,4.08,0,0,1,4.08-4.08h7.55a4.08,4.08,0,0,1,4.08,4.08v10.13a.23.23,0,0,0,.12.21.23.23,0,0,0,.26,0,20.26,20.26,0,0,0,5.44-5.62.26.26,0,0,0,0-.28.23.23,0,0,0-.21-.14h-1.59a3,3,0,0,1-2.2-.89,2.94,2.94,0,0,1-.89-2.16,3,3,0,0,1,.89-2.18,3,3,0,0,1,2.2-.91h4.17a.47.47,0,0,0,.52-.37.53.53,0,0,0,0-.23A4,4,0,0,1,624.9,811a3.29,3.29,0,0,1,2.11-.75,1.54,1.54,0,0,1,.38,0h.38a2.78,2.78,0,0,1,2,1.13,2.56,2.56,0,0,1,.52,1.55,3.47,3.47,0,0,1,0,.56q-.09.33.28.33H639A2.9,2.9,0,0,1,641.12,814.74Zm-36,2.6a.41.41,0,0,0-.47.47v4.31a.41.41,0,0,0,.47.47h3a.41.41,0,0,0,.47-.47v-4.31a.41.41,0,0,0-.47-.47ZM618,832.06a.18.18,0,0,0,0,.16c0,.08.05.12.12.12h19.78a.14.14,0,0,0,.16-.12.13.13,0,0,0-.07-.16,22.79,22.79,0,0,1-3.23-3.09s0,0,0,0a.08.08,0,0,0,0,.07A1.68,1.68,0,0,1,633,830.7h-9.61a1.52,1.52,0,0,1-1.5-1.5.08.08,0,0,0-.14,0A26.22,26.22,0,0,1,618,832.06Zm11.63-11.62A.66.66,0,0,0,629,820h-.37a.66.66,0,0,0-.66.47,33.79,33.79,0,0,1-2.39,4.31.19.19,0,0,0,0,.23.23.23,0,0,0,.21.14h5.77a.28.28,0,0,0,.23-.14.23.23,0,0,0,0-.28A31.69,31.69,0,0,1,629.63,820.44Z"/><path class="cls-2" d="M686.92,843.22a4,4,0,0,1-1.17,2.88,3.91,3.91,0,0,1-2.91,1.2h-2.16s-.05,0-.07.07,0,.07.07.07q4.36,1.55,8.44,3.19a1.61,1.61,0,0,1,1.08,1.64,1.63,1.63,0,0,1-1,1.59l-.23.09a8.35,8.35,0,0,1-3.42.75,9.3,9.3,0,0,1-3.94-.94q-2.77-1.27-5.77-2.44a2,2,0,0,1-1.31-1.69v-.28a1.87,1.87,0,0,1,.94-1.64l.28-.19a.14.14,0,0,0,0-.14.11.11,0,0,0-.12-.09H664.28a.11.11,0,0,0-.12.09q0,.09.07.09l.14,0a2.08,2.08,0,0,1,1.27,2,1.75,1.75,0,0,1-1.08,1.69,61.69,61.69,0,0,1-8.67,3.52,5.31,5.31,0,0,1-1.69.28,5,5,0,0,1-1.5-.23,6.17,6.17,0,0,1-2.77-1.64,1.71,1.71,0,0,1-.47-1.83,1.68,1.68,0,0,1,1.36-1.31,52.26,52.26,0,0,0,8.48-2.53.16.16,0,0,0,0-.12s0-.07-.09-.07h-1.87a4.08,4.08,0,0,1-4.08-4.08V830a4.08,4.08,0,0,1,4.08-4.08h25.45a3.91,3.91,0,0,1,2.91,1.2,4,4,0,0,1,1.17,2.88Zm-1.5-31.41a4.08,4.08,0,0,1,4.08,4.08v4.41a4.08,4.08,0,0,1-4.08,4.08H654.86a4.08,4.08,0,0,1-4.08-4.08v-4.41a4.08,4.08,0,0,1,4.08-4.08Zm-24.09,7.45a.41.41,0,0,0,.47-.47v-1.41a.41.41,0,0,0-.47-.47h-3.61a.41.41,0,0,0-.47.47v1.41a.41.41,0,0,0,.47.47Zm-.56,10.92a.41.41,0,0,0-.47.47v.66a.41.41,0,0,0,.47.47h18.38a.41.41,0,0,0,.47-.47v-.66a.41.41,0,0,0-.47-.47Zm0,5.58a.41.41,0,0,0-.47.47v.7a.41.41,0,0,0,.47.47h18.38a.41.41,0,0,0,.47-.47v-.7a.41.41,0,0,0-.47-.47Zm0,5.63a.41.41,0,0,0-.47.47v.75a.41.41,0,0,0,.47.47h18.38a.41.41,0,0,0,.47-.47v-.75a.41.41,0,0,0-.47-.47Zm10.92-22.12a.41.41,0,0,0,.47-.47v-1.41a.41.41,0,0,0-.47-.47H668a.41.41,0,0,0-.47.47v1.41a.41.41,0,0,0,.47.47Zm10.55,0a.41.41,0,0,0,.47-.47v-1.41a.41.41,0,0,0-.47-.47h-3.84a.41.41,0,0,0-.47.47v1.41a.41.41,0,0,0,.47.47Z"/><path class="cls-2" d="M741.31,821.09a4,4,0,0,1-1.17,2.88,3.91,3.91,0,0,1-2.91,1.2h-2.34a.76.76,0,0,0-.7.42,28.31,28.31,0,0,1-6.75,7.5.25.25,0,0,0-.07.23.23.23,0,0,0,.16.19,73.35,73.35,0,0,0,11.67,2.34,2.1,2.1,0,0,1,1.83,1.36,2.88,2.88,0,0,1,.19,1,2.41,2.41,0,0,1-.42,1.31,2.46,2.46,0,0,1-.23.38,6,6,0,0,1-2.34,2.16,4.76,4.76,0,0,1-2.16.52,3.88,3.88,0,0,1-.84-.09.5.5,0,0,0-.28.09.32.32,0,0,0-.14.28v9a3.6,3.6,0,0,1-3.61,3.61h-2.44a1.08,1.08,0,0,1-.8-.33,1.14,1.14,0,0,1-.33-.84q0-.09-.14-.09H713.6a.12.12,0,0,0-.14.14,1.18,1.18,0,0,1-.4.89,1.3,1.3,0,0,1-.91.38H710a3.33,3.33,0,0,1-2.41-1,3.22,3.22,0,0,1-1-2.39v-9.09a.38.38,0,0,0-.14-.3.35.35,0,0,0-.33-.07q-.89.23-1.92.47a4.55,4.55,0,0,1-.89.09,3.94,3.94,0,0,1-1.92-.52,5,5,0,0,1-2.06-2.11,2.29,2.29,0,0,1-.33-1.17,2.47,2.47,0,0,1,.23-1,2.16,2.16,0,0,1,1.73-1.31A66.33,66.33,0,0,0,712.76,834a.24.24,0,0,0,.16-.21.29.29,0,0,0-.07-.26q-1.36-1-2.39-1.92a.57.57,0,0,0-.75-.09l-1.36.75a3.84,3.84,0,0,1-1.73.42,3.9,3.9,0,0,1-1-.14,4.76,4.76,0,0,1-2.44-1.59,2.3,2.3,0,0,1-.56-1.55,2.38,2.38,0,0,1,0-.47,2,2,0,0,1,1.27-1.64,25,25,0,0,0,9.56-7,.3.3,0,0,0,0-.23.18.18,0,0,0-.19-.14h-6.47a.41.41,0,0,0-.47.47v1.36a3.44,3.44,0,0,1-3.42,3.42,3.22,3.22,0,0,1-2.39-1,3.33,3.33,0,0,1-1-2.41v-4a4.08,4.08,0,0,1,4.08-4.08h12.66a.33.33,0,0,0,.38-.37,3.08,3.08,0,0,1,1-2.3,3.2,3.2,0,0,1,2.32-.94h.66a3.2,3.2,0,0,1,2.32.94,3.08,3.08,0,0,1,1,2.3.33.33,0,0,0,.38.38h13a3.91,3.91,0,0,1,2.91,1.2,4,4,0,0,1,1.17,2.88Zm-27.84,27a.41.41,0,0,0,.47.47h13.22a.41.41,0,0,0,.47-.47v-1.5a.41.41,0,0,0-.47-.47H713.93a.41.41,0,0,0-.47.47Zm.94-7.83a.16.16,0,0,0,0,.12s0,.07.09.07H726s.05,0,.07-.07,0-.07,0-.07a53.76,53.76,0,0,1-5.62-2.2.82.82,0,0,0-.84,0Q717.21,839.19,714.4,840.22Zm1.27-12.8a.42.42,0,0,0-.21.07q-.12.07,0,.16a31.07,31.07,0,0,0,4,2.67.74.74,0,0,0,.8,0,23.9,23.9,0,0,0,3.42-2.58.18.18,0,0,0,0-.21q0-.12-.14-.12Zm18.52-7a.41.41,0,0,0-.47-.47H718s0,0,0,.09l2,.42a1,1,0,0,1,.8.66,1,1,0,0,1-.14,1q-.14.19,0,.19h8.06a.77.77,0,0,0,.23,0,2.33,2.33,0,0,1,1.92.28l2.91,1.73a.36.36,0,0,0,.28,0,.23.23,0,0,0,.14-.21Z"/><path class="cls-2" d="M762.5,811.58a4.08,4.08,0,0,1,4.08,4.08v32.58a13,13,0,0,1-.45,3.8,4.21,4.21,0,0,1-1.66,2.25,7.5,7.5,0,0,1-3.42,1.13,2.17,2.17,0,0,1-.42,0,3.13,3.13,0,0,1-2.16-.84,4.9,4.9,0,0,1-1.59-2.48,3.08,3.08,0,0,1-.09-.75,2.43,2.43,0,0,1,.52-1.45,2.21,2.21,0,0,1,1.92-1h.19a.75.75,0,0,0,.59-.19.92.92,0,0,0,.16-.61v-7.83a.41.41,0,0,0-.47-.47h-2.62a.46.46,0,0,0-.52.47,59.24,59.24,0,0,1-2.16,12.38,2.15,2.15,0,0,1-1.55,1.5,2.65,2.65,0,0,1-.84.14,2.79,2.79,0,0,1-1.41-.37,3.77,3.77,0,0,1-1.69-1.92,3.3,3.3,0,0,1-.14-2.53q2-6.75,2-20.25V815.66a4.08,4.08,0,0,1,4.08-4.08Zm-5.58,21.19a.48.48,0,0,0,.47.47h2.3a.41.41,0,0,0,.47-.47V829.2a.41.41,0,0,0-.47-.47h-2.25a.41.41,0,0,0-.47.47Q757,831.5,756.92,832.77Zm3.23-14.25a.41.41,0,0,0-.47-.47h-2.25a.41.41,0,0,0-.47.47v3.33a.41.41,0,0,0,.47.47h2.25a.41.41,0,0,0,.47-.47Zm26.67,10A16,16,0,0,1,791,829a2.54,2.54,0,0,1,1.41,1.08,2.64,2.64,0,0,1,.33,1.27v.47a43.49,43.49,0,0,1-4.69,13.55.52.52,0,0,0,.09.7,20.69,20.69,0,0,0,3.23,2.48,2.73,2.73,0,0,1,1.27,2,2.63,2.63,0,0,1,0,.52,2.8,2.8,0,0,1-.61,1.73,4.14,4.14,0,0,1-2.34,1.5,6,6,0,0,1-.75,0,3.38,3.38,0,0,1-1.83-.56,27.27,27.27,0,0,1-2.91-2.44.41.41,0,0,0-.66,0,25.33,25.33,0,0,1-2.11,2,3.54,3.54,0,0,1-2.2.8,3.08,3.08,0,0,1-.75-.09,4.7,4.7,0,0,1-2.72-1.69,6.55,6.55,0,0,0-.61-.7q0-.09-.16,0a.18.18,0,0,0-.12.19v.56a3.28,3.28,0,1,1-6.56,0V815.66a4.08,4.08,0,0,1,4.08-4.08h15a4.08,4.08,0,0,1,4.08,4.08v5.25a8.23,8.23,0,0,1-.61,3.54,4,4,0,0,1-2.25,1.9,17.33,17.33,0,0,1-5.67.84h-.09a3.48,3.48,0,0,1-2.25-.84,4.4,4.4,0,0,1-1.55-2.11,2.12,2.12,0,0,1-.14-.75,2,2,0,0,1,2-2h1.45q1,0,1.45,0a1.64,1.64,0,0,0,.8-.14.6.6,0,0,0,.23-.56v-2.25a.41.41,0,0,0-.47-.47h-9a.41.41,0,0,0-.47.47v9.56a.41.41,0,0,0,.47.47ZM775.11,836q0-.09-.07-.07s-.07,0-.07.07v13.69a.23.23,0,0,0,.14.21.26.26,0,0,0,.28,0,20.74,20.74,0,0,0,4.17-3.61.54.54,0,0,0,0-.75A45.66,45.66,0,0,1,775.11,836Zm10.36-.7a.28.28,0,0,0-.07-.28.38.38,0,0,0-.3-.14h-4a.32.32,0,0,0-.28.14.23.23,0,0,0,0,.28,29.23,29.23,0,0,0,2.39,4.73.27.27,0,0,0,.47,0A32,32,0,0,0,785.47,835.25Z"/></svg>