<svg id="圖層_1" data-name="圖層 1" xmlns="http://www.w3.org/2000/svg" viewBox="0 0 27 27"><defs><style>.cls-1{fill:#14c1b8;}.cls-2{fill:#fff;}</style></defs><title>瓶蓋加強</title><circle class="cls-1" cx="13.5" cy="13.5" r="12.5"/><path class="cls-2" d="M17.13,10.42c.69-.9.76-1,.9-1s.27.06.89.62.62.61.62.76-.09.3-.53.48A23.54,23.54,0,0,0,18.91,14a10.65,10.65,0,0,0,.5,3.21c.17.47.25.61.36.61s.36-.3.79-1.5c0-.09.14-.06.13,0-.11,1-.22,1.65-.22,2a1.75,1.75,0,0,0,.14.7,2.57,2.57,0,0,1,.2,1,.72.72,0,0,1-.76.78A1.72,1.72,0,0,1,18.73,20a6.59,6.59,0,0,1-1-2c-1.22.73-2.84,1.61-4.27,2.39-.14.36-.27.44-.44.44s-.33-.22-1.12-2.4l1.62-.14c.13-1.62.23-3.09.31-4.52H11.74v1.93c0,2.26.09,4.2.09,4.62s-.28.64-1.14.64c-.56,0-.67-.14-.67-.53s.09-2.45.09-4.73V13.71H9.24a10.07,10.07,0,0,1-1,4.79,6.92,6.92,0,0,1-2.12,2.39c-.08.06-.17,0-.11-.11a5.35,5.35,0,0,0,1.12-2.21,16.68,16.68,0,0,0,.5-4.85H7.57a15.14,15.14,0,0,0-1.64.11l-.16-.53a16.7,16.7,0,0,0,1.79.11h.09V13c0-2,0-2.67,0-3a12.83,12.83,0,0,0-1.53.11l-.16-.53a16.84,16.84,0,0,0,1.79.11h2c.27-.83.47-1.67.67-2.5a6.74,6.74,0,0,0,.17-.9c1.9.65,2.09.8,2.09,1.06s-.2.22-.69.33c-.47.61-.9,1.22-1.5,2h.61c.76-1.06.84-1.14,1-1.14s.25.06.89.67c.45.44.48.51.48.61a.16.16,0,0,1-.17.17H12.08c0,.14-.12.23-.34.36v3h0c.72-1.06.78-1.14.89-1.14s.22.06.86.67a2.79,2.79,0,0,1,.39.41c.08-1.36.16-2.7.23-4.12,0-.47,0-.84,0-1.34-.34,0-.75,0-1.25.11l-.16-.55a15.41,15.41,0,0,0,1.84.13h3.2C18.91,6.21,19,6.18,19.08,6.18s.19,0,.87.72.67.7.67.83-.06.16-.17.16H16.32v0c0,.13-.08.2-.33.34l-.17,2.17ZM7,6.44c1.59.25,2.39,1,2.39,2.06a1,1,0,0,1-1,1.08.77.77,0,0,1-.76-.84c0-1.22-.16-1.73-.67-2.15C6.84,6.52,6.92,6.43,7,6.44Zm3.1,7V10.87a8.18,8.18,0,0,0,0-.87H9.63c0,.13-.11.22-.37.36v3ZM15.2,18c.8-.12,1.65-.27,2.48-.42a12.91,12.91,0,0,1-.33-2.12.87.87,0,0,1-.94.83c-.42,0-.59-.28-.59-.73a4.24,4.24,0,0,1,.09-.72,2.7,2.7,0,0,0-.28-2.11Zm.59-7.3-.14,1.82a2.8,2.8,0,0,1,1.64,1.7c0-1,0-2.2.06-3.52Z"/></svg>