<?xml version="1.0" encoding="utf-8"?>
<!-- Generator: Adobe Illustrator 21.1.0, SVG Export Plug-In . SVG Version: 6.00 Build 0)  -->
<svg version="1.1" id="圖層_1" xmlns="http://www.w3.org/2000/svg" xmlns:xlink="http://www.w3.org/1999/xlink" x="0px" y="0px"
	 viewBox="0 0 27 27" style="enable-background:new 0 0 27 27;" xml:space="preserve">
<style type="text/css">
	.st0{fill:#F45249;}
	.st1{fill:#FFFFFF;}
</style>
<title>開箱拍照</title>
<circle class="st0" cx="13.5" cy="13.5" r="12.5"/>
<path class="st1" d="M8.8,16.7c0.5,0.7,0.7,1.5,0.7,2.3c0.1,0.9-0.5,1.7-1.4,1.8c-0.1,0-0.1,0-0.2,0c-0.6,0-1-0.4-1-1
	c0-0.4,0.2-0.8,0.6-1c0.8-0.4,1.2-1.2,1.1-2.1C8.6,16.6,8.8,16.6,8.8,16.7z M15.1,16c0,0.5-0.3,0.8-1.1,0.8c-0.5,0-0.6-0.1-0.6-0.6
	s0.1-1.1,0.1-2.3c0-0.8,0-1.2,0-1.8c-0.4,0.2-0.8,0.5-1.3,0.6c0,1.6,0.1,2.7,0.1,2.9c0,0.5-0.3,0.7-1.1,0.7c-0.6,0-0.7-0.1-0.7-0.6
	v-0.5H8.9V16c0,0.5-0.3,0.7-1,0.7c-0.6,0-0.7-0.1-0.7-0.6s0.1-2.8,0.1-5s0-3.4-0.1-4.4C8,6.9,8.7,7.1,9.3,7.5h1
	c0.6-0.8,0.6-0.8,0.8-0.8s0.2,0,0.8,0.6s0.6,0.6,0.6,0.8c0,0.1,0,0.2-0.4,0.4v1.7c0,0.9,0,1.6,0,2.3c1.4-1.3,2.3-3,2.4-4.9h-0.1
	c-0.5,0-1.1,0-1.6,0.1l-0.2-0.5c0.6,0.1,1.2,0.1,1.8,0.1h3.9c0.7-0.8,0.8-0.8,0.9-0.8s0.2,0,0.9,0.6s0.6,0.5,0.6,0.7s0,0.2-0.5,0.5
	c0,0.7-0.2,1.5-0.5,2.1c-0.4,0.9-1.3,1.4-2.3,1.3c-0.3,0-0.4-0.1-0.5-0.4c-0.2-0.6-0.4-1-0.9-1.1c0,0-0.1,0-0.1-0.1
	c0,0,0-0.1,0.1-0.1c0.6,0,1.1,0,1.4,0s0.6-0.2,0.8-0.8c0.1-0.5,0.2-1.1,0.2-1.6h-1.6c0,0.1-0.1,0.2-0.4,0.3c-0.3,1.6-1.3,3.1-2.7,4
	c1.1,0.3,1.5,0.4,1.6,0.6h2.3c0.7-0.8,0.8-0.8,0.9-0.8s0.2,0,0.9,0.6s0.6,0.5,0.6,0.6s-0.1,0.2-0.5,0.5v0.7c0,0.9,0.1,1.6,0.1,2
	c0,0.4-0.4,0.7-1.2,0.7c-0.5,0-0.6-0.1-0.6-0.5v-0.5h-2.8V16z M9.3,7.8C9.2,8,9.1,8,8.9,8.1v3.1h1.4V7.8H9.3z M10.4,15v-3.5H8.9V15
	H10.4z M13.1,19.4c0.1,0.6-0.4,1.2-1,1.3c0,0-0.1,0-0.1,0c-0.5,0-0.9-0.3-0.9-0.8c0,0,0-0.1,0-0.1c0-0.2,0-0.4,0-0.5
	c0.2-0.8,0-1.6-0.4-2.3c-0.1-0.1,0-0.2,0.1-0.1C12.1,17.1,13,18.2,13.1,19.4L13.1,19.4z M16.6,19.4c0.1,0.6-0.4,1.2-1.1,1.3
	c0,0,0,0,0,0c-0.5,0-1-0.3-1-0.9c0,0,0-0.1,0-0.1c0.1-1-0.2-2-0.9-2.7c-0.1-0.1,0-0.1,0.1-0.1C15.8,17.3,16.6,18.4,16.6,19.4
	L16.6,19.4z M17.8,15.6v-2.7h-2.5c-0.1,0.1-0.1,0.1-0.2,0.2v2.5H17.8z M20.5,19.5c0,0.7-0.4,1.2-1.1,1.3c0,0-0.1,0-0.1,0
	c-0.5,0-0.9-0.3-1-1c-0.1-1.1-0.7-2-1.6-2.6c-0.1,0,0-0.2,0.1-0.2C19.2,17.2,20.5,18.1,20.5,19.5L20.5,19.5z"/>
</svg>
