<svg id="圖層_1" data-name="圖層 1" xmlns="http://www.w3.org/2000/svg" viewBox="0 0 27 27"><defs><style>.cls-1{fill:#34314c;}.cls-2{fill:#fff;}</style></defs><title>加強包裝</title><circle class="cls-1" cx="13.5" cy="13.5" r="12.5"/><path class="cls-2" d="M9.42,14.15c.61-.69.67-.7.8-.7s.27,0,1,.61.62.55.62.65,0,.17-.42.53a17.89,17.89,0,0,1-.53,4.12,2.06,2.06,0,0,1-2,1.51c-.37,0-.47-.08-.55-.34A2.51,2.51,0,0,0,6.75,19c-.08,0-.09-.16,0-.16a9.09,9.09,0,0,0,1.64,0c.55-.06.72-.23.86-.84a19.44,19.44,0,0,0,.34-3.52H8.51l0,.66c0,.59-.44.7-1.19.7-.48,0-.59-.16-.59-.42a3.32,3.32,0,0,1,0-.42C6.86,13.6,7,12.45,7,11.4A9.19,9.19,0,0,0,7,10a6.86,6.86,0,0,1,2.14.7h.5v-3H8.48a11.64,11.64,0,0,0-1.79.11l-.14-.53a18,18,0,0,0,1.93.11h1c.62-.72.69-.75.84-.75s.23,0,.83.5.72.61.72.75,0,.19-.41.5V8.8c0,.9.06,2,.06,2.31s-.27.76-1.17.76c-.55,0-.69-.11-.69-.55V11H9.15a1.09,1.09,0,0,1-.41.19c-.06,1-.12,1.87-.2,2.93Zm7.42,4.09,1.5-.08a3.52,3.52,0,0,0-.9-1.26c-.08-.06,0-.17.09-.16,2.23.39,3.27,1.56,3.27,2.7a1.1,1.1,0,0,1-1.08,1.23c-.58,0-.87-.3-1-1a5.49,5.49,0,0,0-.23-1c-1.62.53-3.74,1.15-5.68,1.62-.17.31-.22.36-.39.36s-.3-.11-.86-2.32c.51,0,.79,0,1.17,0,.7,0,1.5,0,2.32,0V16.07H14v.23c0,.44-.34.62-1.09.62-.45,0-.58-.09-.58-.51,0-.16,0-1.26,0-2.17s0-1.34,0-2c1.28.27,1.75.44,1.89.61h.9v-.78c0-.62,0-1,0-1.31l-2.14.45c-.16.28-.23.34-.39.34s-.27-.08-.7-2.07c.45,0,.7,0,1.37,0h.67a18.06,18.06,0,0,0,.51-2.17c.06-.41.09-.64.12-1,2.4.39,2.51.51,2.51.75s-.09.28-.62.48c-.59.72-1.06,1.26-1.64,1.9,1.06,0,2.26,0,3.49-.09A3.67,3.67,0,0,0,17,7.93c-.08,0,0-.16.08-.14,2.25.23,3.42,1.29,3.42,2.42,0,.73-.41,1.14-1,1.14a.84.84,0,0,1-.92-.8c0-.2-.09-.41-.16-.61-1,.27-2,.51-3.17.78,1.82.16,2,.31,2,.48s-.08.28-.48.45v1.22H17.9c.69-.76.75-.78.87-.78s.23,0,1,.58c.42.33.48.39.48.53s0,.19-.42.5v.55c0,.73.06,1.48.06,1.72,0,.48-.33.69-1.14.69-.53,0-.65-.08-.65-.51v-.06H16.84ZM14,15.75h1.14V13.18h-.92a.89.89,0,0,1-.22.13Zm4.1,0V13.18H16.84v2.57Z"/></svg>