<?xml version="1.0" encoding="utf-8"?>
<!-- Generator: Adobe Illustrator 21.1.0, SVG Export Plug-In . SVG Version: 6.00 Build 0)  -->
<svg version="1.1" id="圖層_1" xmlns="http://www.w3.org/2000/svg" xmlns:xlink="http://www.w3.org/1999/xlink" x="0px" y="0px"
	 viewBox="0 0 40 40" style="enable-background:new 0 0 40 40;" xml:space="preserve">
<style type="text/css">
	.st0{fill:#FFFCF8;}
	.st1{fill:#E2D2B3;}
	.st2{fill:#CCB992;}
	.st3{fill:#D8D5CE;}
	.st4{fill:#EDE9E2;}
	.st5{fill:#B2A58A;}
	.st6{fill:#F4F2EF;}
</style>
<title>Group 11</title>
<desc>Created with Sketch.</desc>
<rect id="Rectangle-2" class="st0" width="40" height="40"/>
<polygon id="svg_2" class="st1" points="3.1,11.6 19.8,3 36.4,11.6 36.4,12.6 19.8,21.1 3.1,12.7 "/>
<polygon id="svg_3" class="st2" points="3.1,11.6 19.8,20 36.4,11.6 36.4,27.2 19.8,37 3.1,28.5 "/>
<polygon id="svg_5" class="st3" points="26.5,16.6 26.5,21.6 27.9,21.7 28.9,20.6 29.8,20.7 29.8,14.9 "/>
<polygon id="svg_6" class="st4" points="9.7,8.1 26.5,16.6 29.8,14.9 13.2,6.5 "/>
<polygon id="svg_4" class="st5" points="19.8,36.9 19.8,20 19.8,20 3.1,11.6 3.1,28.5 19.8,37 "/>
<path id="svg_7" class="st6" d="M16.5,27.5l-5.6-2.8c-0.3-0.1-0.5,0-0.5,0.4v3.4c0,0.4,0.3,0.9,0.5,1l5.6,2.8c0.3,0.1,0.5,0,0.5-0.4
	v-3.6C17,28,16.7,27.6,16.5,27.5z M15.1,30.2l-3.3-1.8c-0.1-0.1-0.3-0.3-0.3-0.5c0-0.3,0.1-0.3,0.3-0.3l3.3,1.7
	c0.1,0.1,0.3,0.3,0.3,0.5C15.3,30.2,15.2,30.2,15.1,30.2z M15.6,29.1l-3.9-2c-0.1-0.1-0.3-0.3-0.3-0.5s0.1-0.3,0.3-0.3l3.9,2
	c0.1,0.1,0.3,0.4,0.3,0.5C15.8,29.1,15.7,29.2,15.6,29.1z"/>
</svg>
