<?xml version="1.0" encoding="utf-8"?>
<!-- Generator: Adobe Illustrator 21.1.0, SVG Export Plug-In . SVG Version: 6.00 Build 0)  -->
<svg version="1.1" id="f8e7fb86-f4c5-45a2-a9d6-6001fa0cc87b"
	 xmlns="http://www.w3.org/2000/svg" xmlns:xlink="http://www.w3.org/1999/xlink" x="0px" y="0px" viewBox="0 0 912 200"
	 style="enable-background:new 0 0 912 200;" xml:space="preserve">
<style type="text/css">
	.st0{opacity:0.25;}
	.st1{opacity:0.2;fill:#FFFFFF;}
</style>
<title>through_the_window</title>
<title>through_the_window</title>
<title>through_the_window</title>
<title>through_the_window</title>
<title>through_the_window</title>
<title>through_the_window</title>
<title>through_the_window</title>
<title>through_the_window</title>
<g class="st0">
	<path class="st1" d="M25,21.9c0-0.3-0.1-0.5-0.4-0.6l-8.2-4.9l-3.3,1.9c-0.2,0.1-0.4,0.4-0.4,0.7v9.6c0,0.3,0.2,0.5,0.4,0.7
		l8.3,4.8c0.2,0.1,0.5,0.1,0.8,0l2.8-1.6L25,21.9z M28.6,30.3l2-1.1c0.2-0.1,0.4-0.4,0.4-0.7V19c0-0.3-0.1-0.5-0.4-0.7l-8.3-4.8
		c-0.2-0.1-0.5-0.1-0.8,0l-1.8,1l8.6,4.9c0.2,0.1,0.4,0.4,0.4,0.6L28.6,30.3z M21.9,38.4c-0.9,0-1.8-0.2-2.6-0.7L11,32.9
		c-1.6-0.9-2.6-2.6-2.6-4.4V19c0-1.8,1-3.5,2.6-4.4l8.3-4.8c1.6-0.9,3.5-0.9,5.1,0l8.3,4.8c1.6,0.9,2.6,2.6,2.6,4.4v9.6
		c0,1.8-1,3.5-2.6,4.4l-8.3,4.8C23.6,38.2,22.7,38.4,21.9,38.4"/>
	<path class="st1" d="M25,60c0-0.3-0.1-0.5-0.4-0.6l-8.2-4.9l-3.3,1.9c-0.2,0.1-0.4,0.4-0.4,0.7v9.6c0,0.3,0.2,0.5,0.4,0.7l8.3,4.8
		c0.2,0.1,0.5,0.1,0.8,0l2.8-1.6L25,60z M28.6,68.4l2-1.1c0.2-0.1,0.4-0.4,0.4-0.7v-9.6c0-0.3-0.1-0.5-0.4-0.7l-8.3-4.8
		c-0.2-0.1-0.5-0.1-0.8,0l-1.8,1l8.6,4.9c0.2,0.1,0.4,0.4,0.4,0.6L28.6,68.4z M21.9,76.5c-0.9,0-1.8-0.2-2.6-0.7L11,71.1
		c-1.6-0.9-2.6-2.6-2.6-4.4v-9.6c0-1.8,1-3.5,2.6-4.4l8.3-4.8c1.6-0.9,3.5-0.9,5.1,0l8.3,4.8c1.6,0.9,2.6,2.6,2.6,4.4v9.6
		c0,1.8-1,3.5-2.6,4.4l-8.3,4.8C23.6,76.3,22.7,76.5,21.9,76.5"/>
	<path class="st1" d="M25,98.2c0-0.3-0.1-0.5-0.4-0.6l-8.2-4.9l-3.3,1.9c-0.2,0.1-0.4,0.4-0.4,0.7v9.6c0,0.3,0.2,0.5,0.4,0.7
		l8.3,4.8c0.2,0.1,0.5,0.1,0.8,0l2.8-1.6L25,98.2z M28.6,106.6l2-1.1c0.2-0.1,0.4-0.4,0.4-0.7v-9.6c0-0.3-0.1-0.5-0.4-0.7l-8.3-4.8
		c-0.2-0.1-0.5-0.1-0.8,0l-1.8,1l8.6,4.9c0.2,0.1,0.4,0.4,0.4,0.6L28.6,106.6z M21.9,114.7c-0.9,0-1.8-0.2-2.6-0.7l-8.3-4.8
		c-1.6-0.9-2.6-2.6-2.6-4.4v-9.6c0-1.8,1-3.5,2.6-4.4l8.3-4.8c1.6-0.9,3.5-0.9,5.1,0l8.3,4.8c1.6,0.9,2.6,2.6,2.6,4.4v9.6
		c0,1.8-1,3.5-2.6,4.4l-8.3,4.8C23.6,114.4,22.7,114.7,21.9,114.7"/>
	<path class="st1" d="M25,136.3c0-0.3-0.1-0.5-0.4-0.6l-8.2-4.9l-3.3,1.9c-0.2,0.1-0.4,0.4-0.4,0.7v9.6c0,0.3,0.2,0.5,0.4,0.7
		l8.3,4.8c0.2,0.1,0.5,0.1,0.8,0l2.8-1.6L25,136.3z M28.6,144.7l2-1.1c0.2-0.1,0.4-0.4,0.4-0.7v-9.6c0-0.3-0.1-0.5-0.4-0.7l-8.3-4.8
		c-0.2-0.1-0.5-0.1-0.8,0l-1.8,1l8.6,4.9c0.2,0.1,0.4,0.4,0.4,0.6L28.6,144.7z M21.9,152.8c-0.9,0-1.8-0.2-2.6-0.7l-8.3-4.8
		c-1.6-0.9-2.6-2.6-2.6-4.4v-9.6c0-1.8,1-3.5,2.6-4.4l8.3-4.8c1.6-0.9,3.5-0.9,5.1,0l8.3,4.8c1.6,0.9,2.6,2.6,2.6,4.4v9.6
		c0,1.8-1,3.5-2.6,4.4l-8.3,4.8C23.6,152.6,22.7,152.8,21.9,152.8"/>
	<path class="st1" d="M25,174.4c0-0.3-0.1-0.5-0.4-0.6l-8.2-4.9l-3.3,1.9c-0.2,0.1-0.4,0.4-0.4,0.7v9.6c0,0.3,0.2,0.5,0.4,0.7
		l8.3,4.8c0.2,0.1,0.5,0.1,0.8,0l2.8-1.6L25,174.4z M28.6,182.8l2-1.1c0.2-0.1,0.4-0.4,0.4-0.7v-9.6c0-0.3-0.1-0.5-0.4-0.7l-8.3-4.8
		c-0.2-0.1-0.5-0.1-0.8,0l-1.8,1l8.6,4.9c0.2,0.1,0.4,0.4,0.4,0.6L28.6,182.8z M21.9,190.9c-0.9,0-1.8-0.2-2.6-0.7l-8.3-4.8
		c-1.6-0.9-2.6-2.6-2.6-4.4v-9.6c0-1.8,1-3.5,2.6-4.4l8.3-4.8c1.6-0.9,3.5-0.9,5.1,0l8.3,4.8c1.6,0.9,2.6,2.6,2.6,4.4v9.6
		c0,1.8-1,3.5-2.6,4.4l-8.3,4.8C23.6,190.7,22.7,190.9,21.9,190.9"/>
	<path class="st1" d="M63,21.9c0-0.3-0.1-0.5-0.4-0.6l-8.2-4.9l-3.3,1.9c-0.2,0.1-0.4,0.4-0.4,0.7v9.6c0,0.3,0.2,0.5,0.4,0.7
		l8.3,4.8c0.2,0.1,0.5,0.1,0.8,0l2.8-1.6L63,21.9z M66.6,30.3l2-1.1c0.2-0.1,0.4-0.4,0.4-0.7V19c0-0.3-0.1-0.5-0.4-0.7l-8.3-4.8
		c-0.2-0.1-0.5-0.1-0.8,0l-1.8,1l8.6,4.9c0.2,0.1,0.4,0.4,0.4,0.6L66.6,30.3z M59.8,38.4c-0.9,0-1.8-0.2-2.6-0.7l-8.3-4.8
		c-1.6-0.9-2.6-2.6-2.6-4.4V19c0-1.8,1-3.5,2.6-4.4l8.3-4.8c1.6-0.9,3.5-0.9,5.1,0l8.3,4.8c1.6,0.9,2.6,2.6,2.6,4.4v9.6
		c0,1.8-1,3.5-2.6,4.4l-8.3,4.8C61.6,38.2,60.7,38.4,59.8,38.4"/>
	<path class="st1" d="M63,60c0-0.3-0.1-0.5-0.4-0.6l-8.2-4.9l-3.3,1.9c-0.2,0.1-0.4,0.4-0.4,0.7v9.6c0,0.3,0.2,0.5,0.4,0.7l8.3,4.8
		c0.2,0.1,0.5,0.1,0.8,0l2.8-1.6L63,60z M66.6,68.4l2-1.1c0.2-0.1,0.4-0.4,0.4-0.7v-9.6c0-0.3-0.1-0.5-0.4-0.7l-8.3-4.8
		c-0.2-0.1-0.5-0.1-0.8,0l-1.8,1l8.6,4.9c0.2,0.1,0.4,0.4,0.4,0.6L66.6,68.4z M59.8,76.5c-0.9,0-1.8-0.2-2.6-0.7l-8.3-4.8
		c-1.6-0.9-2.6-2.6-2.6-4.4v-9.6c0-1.8,1-3.5,2.6-4.4l8.3-4.8c1.6-0.9,3.5-0.9,5.1,0l8.3,4.8c1.6,0.9,2.6,2.6,2.6,4.4v9.6
		c0,1.8-1,3.5-2.6,4.4l-8.3,4.8C61.6,76.3,60.7,76.5,59.8,76.5"/>
	<path class="st1" d="M63,98.2c0-0.3-0.1-0.5-0.4-0.6l-8.2-4.9l-3.3,1.9c-0.2,0.1-0.4,0.4-0.4,0.7v9.6c0,0.3,0.2,0.5,0.4,0.7
		l8.3,4.8c0.2,0.1,0.5,0.1,0.8,0l2.8-1.6L63,98.2z M66.6,106.6l2-1.1c0.2-0.1,0.4-0.4,0.4-0.7v-9.6c0-0.3-0.1-0.5-0.4-0.7l-8.3-4.8
		c-0.2-0.1-0.5-0.1-0.8,0l-1.8,1l8.6,4.9c0.2,0.1,0.4,0.4,0.4,0.6L66.6,106.6z M59.8,114.7c-0.9,0-1.8-0.2-2.6-0.7l-8.3-4.8
		c-1.6-0.9-2.6-2.6-2.6-4.4v-9.6c0-1.8,1-3.5,2.6-4.4l8.3-4.8c1.6-0.9,3.5-0.9,5.1,0l8.3,4.8c1.6,0.9,2.6,2.6,2.6,4.4v9.6
		c0,1.8-1,3.5-2.6,4.4l-8.3,4.8C61.6,114.4,60.7,114.7,59.8,114.7"/>
	<path class="st1" d="M63,136.3c0-0.3-0.1-0.5-0.4-0.6l-8.2-4.9l-3.3,1.9c-0.2,0.1-0.4,0.4-0.4,0.7v9.6c0,0.3,0.2,0.5,0.4,0.7
		l8.3,4.8c0.2,0.1,0.5,0.1,0.8,0l2.8-1.6L63,136.3z M66.6,144.7l2-1.1c0.2-0.1,0.4-0.4,0.4-0.7v-9.6c0-0.3-0.1-0.5-0.4-0.7l-8.3-4.8
		c-0.2-0.1-0.5-0.1-0.8,0l-1.8,1l8.6,4.9c0.2,0.1,0.4,0.4,0.4,0.6L66.6,144.7z M59.8,152.8c-0.9,0-1.8-0.2-2.6-0.7l-8.3-4.8
		c-1.6-0.9-2.6-2.6-2.6-4.4v-9.6c0-1.8,1-3.5,2.6-4.4l8.3-4.8c1.6-0.9,3.5-0.9,5.1,0l8.3,4.8c1.6,0.9,2.6,2.6,2.6,4.4v9.6
		c0,1.8-1,3.5-2.6,4.4l-8.3,4.8C61.6,152.6,60.7,152.8,59.8,152.8"/>
	<path class="st1" d="M63,174.4c0-0.3-0.1-0.5-0.4-0.6l-8.2-4.9l-3.3,1.9c-0.2,0.1-0.4,0.4-0.4,0.7v9.6c0,0.3,0.2,0.5,0.4,0.7
		l8.3,4.8c0.2,0.1,0.5,0.1,0.8,0l2.8-1.6L63,174.4z M66.6,182.8l2-1.1c0.2-0.1,0.4-0.4,0.4-0.7v-9.6c0-0.3-0.1-0.5-0.4-0.7l-8.3-4.8
		c-0.2-0.1-0.5-0.1-0.8,0l-1.8,1l8.6,4.9c0.2,0.1,0.4,0.4,0.4,0.6L66.6,182.8z M59.8,190.9c-0.9,0-1.8-0.2-2.6-0.7l-8.3-4.8
		c-1.6-0.9-2.6-2.6-2.6-4.4v-9.6c0-1.8,1-3.5,2.6-4.4l8.3-4.8c1.6-0.9,3.5-0.9,5.1,0l8.3,4.8c1.6,0.9,2.6,2.6,2.6,4.4v9.6
		c0,1.8-1,3.5-2.6,4.4l-8.3,4.8C61.6,190.7,60.7,190.9,59.8,190.9"/>
	<path class="st1" d="M101,21.9c0-0.3-0.1-0.5-0.4-0.6l-8.2-4.9l-3.3,1.9c-0.2,0.1-0.4,0.4-0.4,0.7v9.6c0,0.3,0.2,0.5,0.4,0.7
		l8.3,4.8c0.2,0.1,0.5,0.1,0.8,0l2.8-1.6L101,21.9z M104.6,30.3l2-1.1c0.2-0.1,0.4-0.4,0.4-0.7V19c0-0.3-0.1-0.5-0.4-0.7l-8.3-4.8
		c-0.2-0.1-0.5-0.1-0.8,0l-1.8,1l8.6,4.9c0.2,0.1,0.4,0.4,0.4,0.6L104.6,30.3z M97.8,38.4c-0.9,0-1.8-0.2-2.6-0.7l-8.3-4.8
		c-1.6-0.9-2.6-2.6-2.6-4.4V19c0-1.8,1-3.5,2.6-4.4l8.3-4.8c1.6-0.9,3.5-0.9,5.1,0l8.3,4.8c1.6,0.9,2.6,2.6,2.6,4.4v9.6
		c0,1.8-1,3.5-2.6,4.4l-8.3,4.8C99.6,38.2,98.7,38.4,97.8,38.4"/>
	<path class="st1" d="M101,60c0-0.3-0.1-0.5-0.4-0.6l-8.2-4.9l-3.3,1.9c-0.2,0.1-0.4,0.4-0.4,0.7v9.6c0,0.3,0.2,0.5,0.4,0.7l8.3,4.8
		c0.2,0.1,0.5,0.1,0.8,0l2.8-1.6L101,60z M104.6,68.4l2-1.1c0.2-0.1,0.4-0.4,0.4-0.7v-9.6c0-0.3-0.1-0.5-0.4-0.7l-8.3-4.8
		c-0.2-0.1-0.5-0.1-0.8,0l-1.8,1l8.6,4.9c0.2,0.1,0.4,0.4,0.4,0.6L104.6,68.4z M97.8,76.5c-0.9,0-1.8-0.2-2.6-0.7l-8.3-4.8
		c-1.6-0.9-2.6-2.6-2.6-4.4v-9.6c0-1.8,1-3.5,2.6-4.4l8.3-4.8c1.6-0.9,3.5-0.9,5.1,0l8.3,4.8c1.6,0.9,2.6,2.6,2.6,4.4v9.6
		c0,1.8-1,3.5-2.6,4.4l-8.3,4.8C99.6,76.3,98.7,76.5,97.8,76.5"/>
	<path class="st1" d="M101,98.2c0-0.3-0.1-0.5-0.4-0.6l-8.2-4.9l-3.3,1.9c-0.2,0.1-0.4,0.4-0.4,0.7v9.6c0,0.3,0.2,0.5,0.4,0.7
		l8.3,4.8c0.2,0.1,0.5,0.1,0.8,0l2.8-1.6L101,98.2z M104.6,106.6l2-1.1c0.2-0.1,0.4-0.4,0.4-0.7v-9.6c0-0.3-0.1-0.5-0.4-0.7
		l-8.3-4.8c-0.2-0.1-0.5-0.1-0.8,0l-1.8,1l8.6,4.9c0.2,0.1,0.4,0.4,0.4,0.6L104.6,106.6z M97.8,114.7c-0.9,0-1.8-0.2-2.6-0.7
		l-8.3-4.8c-1.6-0.9-2.6-2.6-2.6-4.4v-9.6c0-1.8,1-3.5,2.6-4.4l8.3-4.8c1.6-0.9,3.5-0.9,5.1,0l8.3,4.8c1.6,0.9,2.6,2.6,2.6,4.4v9.6
		c0,1.8-1,3.5-2.6,4.4l-8.3,4.8C99.6,114.4,98.7,114.7,97.8,114.7"/>
	<path class="st1" d="M101,136.3c0-0.3-0.1-0.5-0.4-0.6l-8.2-4.9l-3.3,1.9c-0.2,0.1-0.4,0.4-0.4,0.7v9.6c0,0.3,0.2,0.5,0.4,0.7
		l8.3,4.8c0.2,0.1,0.5,0.1,0.8,0l2.8-1.6L101,136.3z M104.6,144.7l2-1.1c0.2-0.1,0.4-0.4,0.4-0.7v-9.6c0-0.3-0.1-0.5-0.4-0.7
		l-8.3-4.8c-0.2-0.1-0.5-0.1-0.8,0l-1.8,1l8.6,4.9c0.2,0.1,0.4,0.4,0.4,0.6L104.6,144.7z M97.8,152.8c-0.9,0-1.8-0.2-2.6-0.7
		l-8.3-4.8c-1.6-0.9-2.6-2.6-2.6-4.4v-9.6c0-1.8,1-3.5,2.6-4.4l8.3-4.8c1.6-0.9,3.5-0.9,5.1,0l8.3,4.8c1.6,0.9,2.6,2.6,2.6,4.4v9.6
		c0,1.8-1,3.5-2.6,4.4l-8.3,4.8C99.6,152.6,98.7,152.8,97.8,152.8"/>
	<path class="st1" d="M101,174.4c0-0.3-0.1-0.5-0.4-0.6l-8.2-4.9l-3.3,1.9c-0.2,0.1-0.4,0.4-0.4,0.7v9.6c0,0.3,0.2,0.5,0.4,0.7
		l8.3,4.8c0.2,0.1,0.5,0.1,0.8,0l2.8-1.6L101,174.4z M104.6,182.8l2-1.1c0.2-0.1,0.4-0.4,0.4-0.7v-9.6c0-0.3-0.1-0.5-0.4-0.7
		l-8.3-4.8c-0.2-0.1-0.5-0.1-0.8,0l-1.8,1l8.6,4.9c0.2,0.1,0.4,0.4,0.4,0.6L104.6,182.8z M97.8,190.9c-0.9,0-1.8-0.2-2.6-0.7
		l-8.3-4.8c-1.6-0.9-2.6-2.6-2.6-4.4v-9.6c0-1.8,1-3.5,2.6-4.4l8.3-4.8c1.6-0.9,3.5-0.9,5.1,0l8.3,4.8c1.6,0.9,2.6,2.6,2.6,4.4v9.6
		c0,1.8-1,3.5-2.6,4.4l-8.3,4.8C99.6,190.7,98.7,190.9,97.8,190.9"/>
	<path class="st1" d="M138.9,21.9c0-0.3-0.1-0.5-0.4-0.6l-8.2-4.9l-3.3,1.9c-0.2,0.1-0.4,0.4-0.4,0.7v9.6c0,0.3,0.2,0.5,0.4,0.7
		l8.3,4.8c0.2,0.1,0.5,0.1,0.8,0l2.8-1.6L138.9,21.9z M142.5,30.3l2-1.1c0.2-0.1,0.4-0.4,0.4-0.7V19c0-0.3-0.1-0.5-0.4-0.7l-8.3-4.8
		c-0.2-0.1-0.5-0.1-0.8,0l-1.8,1l8.6,4.9c0.2,0.1,0.4,0.4,0.4,0.6L142.5,30.3z M135.8,38.4c-0.9,0-1.8-0.2-2.6-0.7l-8.3-4.8
		c-1.6-0.9-2.6-2.6-2.6-4.4V19c0-1.8,1-3.5,2.6-4.4l8.3-4.8c1.6-0.9,3.5-0.9,5.1,0l8.3,4.8c1.6,0.9,2.6,2.6,2.6,4.4v9.6
		c0,1.8-1,3.5-2.6,4.4l-8.3,4.8C137.5,38.2,136.7,38.4,135.8,38.4"/>
	<path class="st1" d="M138.9,60c0-0.3-0.1-0.5-0.4-0.6l-8.2-4.9l-3.3,1.9c-0.2,0.1-0.4,0.4-0.4,0.7v9.6c0,0.3,0.2,0.5,0.4,0.7
		l8.3,4.8c0.2,0.1,0.5,0.1,0.8,0l2.8-1.6L138.9,60z M142.5,68.4l2-1.1c0.2-0.1,0.4-0.4,0.4-0.7v-9.6c0-0.3-0.1-0.5-0.4-0.7l-8.3-4.8
		c-0.2-0.1-0.5-0.1-0.8,0l-1.8,1l8.6,4.9c0.2,0.1,0.4,0.4,0.4,0.6L142.5,68.4z M135.8,76.5c-0.9,0-1.8-0.2-2.6-0.7l-8.3-4.8
		c-1.6-0.9-2.6-2.6-2.6-4.4v-9.6c0-1.8,1-3.5,2.6-4.4l8.3-4.8c1.6-0.9,3.5-0.9,5.1,0l8.3,4.8c1.6,0.9,2.6,2.6,2.6,4.4v9.6
		c0,1.8-1,3.5-2.6,4.4l-8.3,4.8C137.5,76.3,136.7,76.5,135.8,76.5"/>
	<path class="st1" d="M138.9,98.2c0-0.3-0.1-0.5-0.4-0.6l-8.2-4.9l-3.3,1.9c-0.2,0.1-0.4,0.4-0.4,0.7v9.6c0,0.3,0.2,0.5,0.4,0.7
		l8.3,4.8c0.2,0.1,0.5,0.1,0.8,0l2.8-1.6L138.9,98.2z M142.5,106.6l2-1.1c0.2-0.1,0.4-0.4,0.4-0.7v-9.6c0-0.3-0.1-0.5-0.4-0.7
		l-8.3-4.8c-0.2-0.1-0.5-0.1-0.8,0l-1.8,1l8.6,4.9c0.2,0.1,0.4,0.4,0.4,0.6L142.5,106.6z M135.8,114.7c-0.9,0-1.8-0.2-2.6-0.7
		l-8.3-4.8c-1.6-0.9-2.6-2.6-2.6-4.4v-9.6c0-1.8,1-3.5,2.6-4.4l8.3-4.8c1.6-0.9,3.5-0.9,5.1,0l8.3,4.8c1.6,0.9,2.6,2.6,2.6,4.4v9.6
		c0,1.8-1,3.5-2.6,4.4l-8.3,4.8C137.5,114.4,136.7,114.7,135.8,114.7"/>
	<path class="st1" d="M138.9,136.3c0-0.3-0.1-0.5-0.4-0.6l-8.2-4.9l-3.3,1.9c-0.2,0.1-0.4,0.4-0.4,0.7v9.6c0,0.3,0.2,0.5,0.4,0.7
		l8.3,4.8c0.2,0.1,0.5,0.1,0.8,0l2.8-1.6L138.9,136.3z M142.5,144.7l2-1.1c0.2-0.1,0.4-0.4,0.4-0.7v-9.6c0-0.3-0.1-0.5-0.4-0.7
		l-8.3-4.8c-0.2-0.1-0.5-0.1-0.8,0l-1.8,1l8.6,4.9c0.2,0.1,0.4,0.4,0.4,0.6L142.5,144.7z M135.8,152.8c-0.9,0-1.8-0.2-2.6-0.7
		l-8.3-4.8c-1.6-0.9-2.6-2.6-2.6-4.4v-9.6c0-1.8,1-3.5,2.6-4.4l8.3-4.8c1.6-0.9,3.5-0.9,5.1,0l8.3,4.8c1.6,0.9,2.6,2.6,2.6,4.4v9.6
		c0,1.8-1,3.5-2.6,4.4l-8.3,4.8C137.5,152.6,136.7,152.8,135.8,152.8"/>
	<path class="st1" d="M138.9,174.4c0-0.3-0.1-0.5-0.4-0.6l-8.2-4.9l-3.3,1.9c-0.2,0.1-0.4,0.4-0.4,0.7v9.6c0,0.3,0.2,0.5,0.4,0.7
		l8.3,4.8c0.2,0.1,0.5,0.1,0.8,0l2.8-1.6L138.9,174.4z M142.5,182.8l2-1.1c0.2-0.1,0.4-0.4,0.4-0.7v-9.6c0-0.3-0.1-0.5-0.4-0.7
		l-8.3-4.8c-0.2-0.1-0.5-0.1-0.8,0l-1.8,1l8.6,4.9c0.2,0.1,0.4,0.4,0.4,0.6L142.5,182.8z M135.8,190.9c-0.9,0-1.8-0.2-2.6-0.7
		l-8.3-4.8c-1.6-0.9-2.6-2.6-2.6-4.4v-9.6c0-1.8,1-3.5,2.6-4.4l8.3-4.8c1.6-0.9,3.5-0.9,5.1,0l8.3,4.8c1.6,0.9,2.6,2.6,2.6,4.4v9.6
		c0,1.8-1,3.5-2.6,4.4l-8.3,4.8C137.5,190.7,136.7,190.9,135.8,190.9"/>
	<path class="st1" d="M176.9,21.9c0-0.3-0.1-0.5-0.4-0.6l-8.2-4.9l-3.3,1.9c-0.2,0.1-0.4,0.4-0.4,0.7v9.6c0,0.3,0.2,0.5,0.4,0.7
		l8.3,4.8c0.2,0.1,0.5,0.1,0.8,0l2.8-1.6L176.9,21.9z M180.5,30.3l2-1.1c0.2-0.1,0.4-0.4,0.4-0.7V19c0-0.3-0.1-0.5-0.4-0.7l-8.3-4.8
		c-0.2-0.1-0.5-0.1-0.8,0l-1.8,1l8.6,4.9c0.2,0.1,0.4,0.4,0.4,0.6L180.5,30.3z M173.7,38.4c-0.9,0-1.8-0.2-2.6-0.7l-8.3-4.8
		c-1.6-0.9-2.6-2.6-2.6-4.4V19c0-1.8,1-3.5,2.6-4.4l8.3-4.8c1.6-0.9,3.5-0.9,5.1,0l8.3,4.8c1.6,0.9,2.6,2.6,2.6,4.4v9.6
		c0,1.8-1,3.5-2.6,4.4l-8.3,4.8C175.5,38.2,174.6,38.4,173.7,38.4"/>
	<path class="st1" d="M176.9,60c0-0.3-0.1-0.5-0.4-0.6l-8.2-4.9l-3.3,1.9c-0.2,0.1-0.4,0.4-0.4,0.7v9.6c0,0.3,0.2,0.5,0.4,0.7
		l8.3,4.8c0.2,0.1,0.5,0.1,0.8,0l2.8-1.6L176.9,60z M180.5,68.4l2-1.1c0.2-0.1,0.4-0.4,0.4-0.7v-9.6c0-0.3-0.1-0.5-0.4-0.7l-8.3-4.8
		c-0.2-0.1-0.5-0.1-0.8,0l-1.8,1l8.6,4.9c0.2,0.1,0.4,0.4,0.4,0.6L180.5,68.4z M173.7,76.5c-0.9,0-1.8-0.2-2.6-0.7l-8.3-4.8
		c-1.6-0.9-2.6-2.6-2.6-4.4v-9.6c0-1.8,1-3.5,2.6-4.4l8.3-4.8c1.6-0.9,3.5-0.9,5.1,0l8.3,4.8c1.6,0.9,2.6,2.6,2.6,4.4v9.6
		c0,1.8-1,3.5-2.6,4.4l-8.3,4.8C175.5,76.3,174.6,76.5,173.7,76.5"/>
	<path class="st1" d="M176.9,98.2c0-0.3-0.1-0.5-0.4-0.6l-8.2-4.9l-3.3,1.9c-0.2,0.1-0.4,0.4-0.4,0.7v9.6c0,0.3,0.2,0.5,0.4,0.7
		l8.3,4.8c0.2,0.1,0.5,0.1,0.8,0l2.8-1.6L176.9,98.2z M180.5,106.6l2-1.1c0.2-0.1,0.4-0.4,0.4-0.7v-9.6c0-0.3-0.1-0.5-0.4-0.7
		l-8.3-4.8c-0.2-0.1-0.5-0.1-0.8,0l-1.8,1l8.6,4.9c0.2,0.1,0.4,0.4,0.4,0.6L180.5,106.6z M173.7,114.7c-0.9,0-1.8-0.2-2.6-0.7
		l-8.3-4.8c-1.6-0.9-2.6-2.6-2.6-4.4v-9.6c0-1.8,1-3.5,2.6-4.4l8.3-4.8c1.6-0.9,3.5-0.9,5.1,0l8.3,4.8c1.6,0.9,2.6,2.6,2.6,4.4v9.6
		c0,1.8-1,3.5-2.6,4.4l-8.3,4.8C175.5,114.4,174.6,114.7,173.7,114.7"/>
	<path class="st1" d="M176.9,136.3c0-0.3-0.1-0.5-0.4-0.6l-8.2-4.9l-3.3,1.9c-0.2,0.1-0.4,0.4-0.4,0.7v9.6c0,0.3,0.2,0.5,0.4,0.7
		l8.3,4.8c0.2,0.1,0.5,0.1,0.8,0l2.8-1.6L176.9,136.3z M180.5,144.7l2-1.1c0.2-0.1,0.4-0.4,0.4-0.7v-9.6c0-0.3-0.1-0.5-0.4-0.7
		l-8.3-4.8c-0.2-0.1-0.5-0.1-0.8,0l-1.8,1l8.6,4.9c0.2,0.1,0.4,0.4,0.4,0.6L180.5,144.7z M173.7,152.8c-0.9,0-1.8-0.2-2.6-0.7
		l-8.3-4.8c-1.6-0.9-2.6-2.6-2.6-4.4v-9.6c0-1.8,1-3.5,2.6-4.4l8.3-4.8c1.6-0.9,3.5-0.9,5.1,0l8.3,4.8c1.6,0.9,2.6,2.6,2.6,4.4v9.6
		c0,1.8-1,3.5-2.6,4.4l-8.3,4.8C175.5,152.6,174.6,152.8,173.7,152.8"/>
	<path class="st1" d="M176.9,174.4c0-0.3-0.1-0.5-0.4-0.6l-8.2-4.9l-3.3,1.9c-0.2,0.1-0.4,0.4-0.4,0.7v9.6c0,0.3,0.2,0.5,0.4,0.7
		l8.3,4.8c0.2,0.1,0.5,0.1,0.8,0l2.8-1.6L176.9,174.4z M180.5,182.8l2-1.1c0.2-0.1,0.4-0.4,0.4-0.7v-9.6c0-0.3-0.1-0.5-0.4-0.7
		l-8.3-4.8c-0.2-0.1-0.5-0.1-0.8,0l-1.8,1l8.6,4.9c0.2,0.1,0.4,0.4,0.4,0.6L180.5,182.8z M173.7,190.9c-0.9,0-1.8-0.2-2.6-0.7
		l-8.3-4.8c-1.6-0.9-2.6-2.6-2.6-4.4v-9.6c0-1.8,1-3.5,2.6-4.4l8.3-4.8c1.6-0.9,3.5-0.9,5.1,0l8.3,4.8c1.6,0.9,2.6,2.6,2.6,4.4v9.6
		c0,1.8-1,3.5-2.6,4.4l-8.3,4.8C175.5,190.7,174.6,190.9,173.7,190.9"/>
	<path class="st1" d="M214.9,21.9c0-0.3-0.1-0.5-0.4-0.6l-8.2-4.9l-3.3,1.9c-0.2,0.1-0.4,0.4-0.4,0.7v9.6c0,0.3,0.2,0.5,0.4,0.7
		l8.3,4.8c0.2,0.1,0.5,0.1,0.8,0l2.8-1.6L214.9,21.9z M218.5,30.3l2-1.1c0.2-0.1,0.4-0.4,0.4-0.7V19c0-0.3-0.1-0.5-0.4-0.7l-8.3-4.8
		c-0.2-0.1-0.5-0.1-0.8,0l-1.8,1l8.6,4.9c0.2,0.1,0.4,0.4,0.4,0.6L218.5,30.3z M211.7,38.4c-0.9,0-1.8-0.2-2.6-0.7l-8.3-4.8
		c-1.6-0.9-2.6-2.6-2.6-4.4V19c0-1.8,1-3.5,2.6-4.4l8.3-4.8c1.6-0.9,3.5-0.9,5.1,0l8.3,4.8c1.6,0.9,2.6,2.6,2.6,4.4v9.6
		c0,1.8-1,3.5-2.6,4.4l-8.3,4.8C213.5,38.2,212.6,38.4,211.7,38.4"/>
	<path class="st1" d="M214.9,60c0-0.3-0.1-0.5-0.4-0.6l-8.2-4.9l-3.3,1.9c-0.2,0.1-0.4,0.4-0.4,0.7v9.6c0,0.3,0.2,0.5,0.4,0.7
		l8.3,4.8c0.2,0.1,0.5,0.1,0.8,0l2.8-1.6L214.9,60z M218.5,68.4l2-1.1c0.2-0.1,0.4-0.4,0.4-0.7v-9.6c0-0.3-0.1-0.5-0.4-0.7l-8.3-4.8
		c-0.2-0.1-0.5-0.1-0.8,0l-1.8,1l8.6,4.9c0.2,0.1,0.4,0.4,0.4,0.6L218.5,68.4z M211.7,76.5c-0.9,0-1.8-0.2-2.6-0.7l-8.3-4.8
		c-1.6-0.9-2.6-2.6-2.6-4.4v-9.6c0-1.8,1-3.5,2.6-4.4l8.3-4.8c1.6-0.9,3.5-0.9,5.1,0l8.3,4.8c1.6,0.9,2.6,2.6,2.6,4.4v9.6
		c0,1.8-1,3.5-2.6,4.4l-8.3,4.8C213.5,76.3,212.6,76.5,211.7,76.5"/>
	<path class="st1" d="M214.9,98.2c0-0.3-0.1-0.5-0.4-0.6l-8.2-4.9l-3.3,1.9c-0.2,0.1-0.4,0.4-0.4,0.7v9.6c0,0.3,0.2,0.5,0.4,0.7
		l8.3,4.8c0.2,0.1,0.5,0.1,0.8,0l2.8-1.6L214.9,98.2z M218.5,106.6l2-1.1c0.2-0.1,0.4-0.4,0.4-0.7v-9.6c0-0.3-0.1-0.5-0.4-0.7
		l-8.3-4.8c-0.2-0.1-0.5-0.1-0.8,0l-1.8,1l8.6,4.9c0.2,0.1,0.4,0.4,0.4,0.6L218.5,106.6z M211.7,114.7c-0.9,0-1.8-0.2-2.6-0.7
		l-8.3-4.8c-1.6-0.9-2.6-2.6-2.6-4.4v-9.6c0-1.8,1-3.5,2.6-4.4l8.3-4.8c1.6-0.9,3.5-0.9,5.1,0l8.3,4.8c1.6,0.9,2.6,2.6,2.6,4.4v9.6
		c0,1.8-1,3.5-2.6,4.4l-8.3,4.8C213.5,114.4,212.6,114.7,211.7,114.7"/>
	<path class="st1" d="M214.9,136.3c0-0.3-0.1-0.5-0.4-0.6l-8.2-4.9l-3.3,1.9c-0.2,0.1-0.4,0.4-0.4,0.7v9.6c0,0.3,0.2,0.5,0.4,0.7
		l8.3,4.8c0.2,0.1,0.5,0.1,0.8,0l2.8-1.6L214.9,136.3z M218.5,144.7l2-1.1c0.2-0.1,0.4-0.4,0.4-0.7v-9.6c0-0.3-0.1-0.5-0.4-0.7
		l-8.3-4.8c-0.2-0.1-0.5-0.1-0.8,0l-1.8,1l8.6,4.9c0.2,0.1,0.4,0.4,0.4,0.6L218.5,144.7z M211.7,152.8c-0.9,0-1.8-0.2-2.6-0.7
		l-8.3-4.8c-1.6-0.9-2.6-2.6-2.6-4.4v-9.6c0-1.8,1-3.5,2.6-4.4l8.3-4.8c1.6-0.9,3.5-0.9,5.1,0l8.3,4.8c1.6,0.9,2.6,2.6,2.6,4.4v9.6
		c0,1.8-1,3.5-2.6,4.4l-8.3,4.8C213.5,152.6,212.6,152.8,211.7,152.8"/>
	<path class="st1" d="M214.9,174.4c0-0.3-0.1-0.5-0.4-0.6l-8.2-4.9l-3.3,1.9c-0.2,0.1-0.4,0.4-0.4,0.7v9.6c0,0.3,0.2,0.5,0.4,0.7
		l8.3,4.8c0.2,0.1,0.5,0.1,0.8,0l2.8-1.6L214.9,174.4z M218.5,182.8l2-1.1c0.2-0.1,0.4-0.4,0.4-0.7v-9.6c0-0.3-0.1-0.5-0.4-0.7
		l-8.3-4.8c-0.2-0.1-0.5-0.1-0.8,0l-1.8,1l8.6,4.9c0.2,0.1,0.4,0.4,0.4,0.6L218.5,182.8z M211.7,190.9c-0.9,0-1.8-0.2-2.6-0.7
		l-8.3-4.8c-1.6-0.9-2.6-2.6-2.6-4.4v-9.6c0-1.8,1-3.5,2.6-4.4l8.3-4.8c1.6-0.9,3.5-0.9,5.1,0l8.3,4.8c1.6,0.9,2.6,2.6,2.6,4.4v9.6
		c0,1.8-1,3.5-2.6,4.4l-8.3,4.8C213.5,190.7,212.6,190.9,211.7,190.9"/>
	<path class="st1" d="M252.9,21.9c0-0.3-0.1-0.5-0.4-0.6l-8.2-4.9l-3.3,1.9c-0.2,0.1-0.4,0.4-0.4,0.7v9.6c0,0.3,0.2,0.5,0.4,0.7
		l8.3,4.8c0.2,0.1,0.5,0.1,0.8,0l2.8-1.6L252.9,21.9z M256.5,30.3l2-1.1c0.2-0.1,0.4-0.4,0.4-0.7V19c0-0.3-0.1-0.5-0.4-0.7l-8.3-4.8
		c-0.2-0.1-0.5-0.1-0.8,0l-1.8,1l8.6,4.9c0.2,0.1,0.4,0.4,0.4,0.6L256.5,30.3z M249.7,38.4c-0.9,0-1.8-0.2-2.6-0.7l-8.3-4.8
		c-1.6-0.9-2.6-2.6-2.6-4.4V19c0-1.8,1-3.5,2.6-4.4l8.3-4.8c1.6-0.9,3.5-0.9,5.1,0l8.3,4.8c1.6,0.9,2.6,2.6,2.6,4.4v9.6
		c0,1.8-1,3.5-2.6,4.4l-8.3,4.8C251.5,38.2,250.6,38.4,249.7,38.4"/>
	<path class="st1" d="M252.9,60c0-0.3-0.1-0.5-0.4-0.6l-8.2-4.9l-3.3,1.9c-0.2,0.1-0.4,0.4-0.4,0.7v9.6c0,0.3,0.2,0.5,0.4,0.7
		l8.3,4.8c0.2,0.1,0.5,0.1,0.8,0l2.8-1.6L252.9,60z M256.5,68.4l2-1.1c0.2-0.1,0.4-0.4,0.4-0.7v-9.6c0-0.3-0.1-0.5-0.4-0.7l-8.3-4.8
		c-0.2-0.1-0.5-0.1-0.8,0l-1.8,1l8.6,4.9c0.2,0.1,0.4,0.4,0.4,0.6L256.5,68.4z M249.7,76.5c-0.9,0-1.8-0.2-2.6-0.7l-8.3-4.8
		c-1.6-0.9-2.6-2.6-2.6-4.4v-9.6c0-1.8,1-3.5,2.6-4.4l8.3-4.8c1.6-0.9,3.5-0.9,5.1,0l8.3,4.8c1.6,0.9,2.6,2.6,2.6,4.4v9.6
		c0,1.8-1,3.5-2.6,4.4l-8.3,4.8C251.5,76.3,250.6,76.5,249.7,76.5"/>
	<path class="st1" d="M252.9,98.2c0-0.3-0.1-0.5-0.4-0.6l-8.2-4.9l-3.3,1.9c-0.2,0.1-0.4,0.4-0.4,0.7v9.6c0,0.3,0.2,0.5,0.4,0.7
		l8.3,4.8c0.2,0.1,0.5,0.1,0.8,0l2.8-1.6L252.9,98.2z M256.5,106.6l2-1.1c0.2-0.1,0.4-0.4,0.4-0.7v-9.6c0-0.3-0.1-0.5-0.4-0.7
		l-8.3-4.8c-0.2-0.1-0.5-0.1-0.8,0l-1.8,1l8.6,4.9c0.2,0.1,0.4,0.4,0.4,0.6L256.5,106.6z M249.7,114.7c-0.9,0-1.8-0.2-2.6-0.7
		l-8.3-4.8c-1.6-0.9-2.6-2.6-2.6-4.4v-9.6c0-1.8,1-3.5,2.6-4.4l8.3-4.8c1.6-0.9,3.5-0.9,5.1,0l8.3,4.8c1.6,0.9,2.6,2.6,2.6,4.4v9.6
		c0,1.8-1,3.5-2.6,4.4l-8.3,4.8C251.5,114.4,250.6,114.7,249.7,114.7"/>
	<path class="st1" d="M252.9,136.3c0-0.3-0.1-0.5-0.4-0.6l-8.2-4.9l-3.3,1.9c-0.2,0.1-0.4,0.4-0.4,0.7v9.6c0,0.3,0.2,0.5,0.4,0.7
		l8.3,4.8c0.2,0.1,0.5,0.1,0.8,0l2.8-1.6L252.9,136.3z M256.5,144.7l2-1.1c0.2-0.1,0.4-0.4,0.4-0.7v-9.6c0-0.3-0.1-0.5-0.4-0.7
		l-8.3-4.8c-0.2-0.1-0.5-0.1-0.8,0l-1.8,1l8.6,4.9c0.2,0.1,0.4,0.4,0.4,0.6L256.5,144.7z M249.7,152.8c-0.9,0-1.8-0.2-2.6-0.7
		l-8.3-4.8c-1.6-0.9-2.6-2.6-2.6-4.4v-9.6c0-1.8,1-3.5,2.6-4.4l8.3-4.8c1.6-0.9,3.5-0.9,5.1,0l8.3,4.8c1.6,0.9,2.6,2.6,2.6,4.4v9.6
		c0,1.8-1,3.5-2.6,4.4l-8.3,4.8C251.5,152.6,250.6,152.8,249.7,152.8"/>
	<path class="st1" d="M252.9,174.4c0-0.3-0.1-0.5-0.4-0.6l-8.2-4.9l-3.3,1.9c-0.2,0.1-0.4,0.4-0.4,0.7v9.6c0,0.3,0.2,0.5,0.4,0.7
		l8.3,4.8c0.2,0.1,0.5,0.1,0.8,0l2.8-1.6L252.9,174.4z M256.5,182.8l2-1.1c0.2-0.1,0.4-0.4,0.4-0.7v-9.6c0-0.3-0.1-0.5-0.4-0.7
		l-8.3-4.8c-0.2-0.1-0.5-0.1-0.8,0l-1.8,1l8.6,4.9c0.2,0.1,0.4,0.4,0.4,0.6L256.5,182.8z M249.7,190.9c-0.9,0-1.8-0.2-2.6-0.7
		l-8.3-4.8c-1.6-0.9-2.6-2.6-2.6-4.4v-9.6c0-1.8,1-3.5,2.6-4.4l8.3-4.8c1.6-0.9,3.5-0.9,5.1,0l8.3,4.8c1.6,0.9,2.6,2.6,2.6,4.4v9.6
		c0,1.8-1,3.5-2.6,4.4l-8.3,4.8C251.5,190.7,250.6,190.9,249.7,190.9"/>
	<path class="st1" d="M290.8,21.9c0-0.3-0.1-0.5-0.4-0.6l-8.2-4.9l-3.3,1.9c-0.2,0.1-0.4,0.4-0.4,0.7v9.6c0,0.3,0.2,0.5,0.4,0.7
		l8.3,4.8c0.2,0.1,0.5,0.1,0.8,0l2.8-1.6L290.8,21.9z M294.4,30.3l2-1.1c0.2-0.1,0.4-0.4,0.4-0.7V19c0-0.3-0.1-0.5-0.4-0.7l-8.3-4.8
		c-0.2-0.1-0.5-0.1-0.8,0l-1.8,1l8.6,4.9c0.2,0.1,0.4,0.4,0.4,0.6L294.4,30.3z M287.7,38.4c-0.9,0-1.8-0.2-2.6-0.7l-8.3-4.8
		c-1.6-0.9-2.6-2.6-2.6-4.4V19c0-1.8,1-3.5,2.6-4.4l8.3-4.8c1.6-0.9,3.5-0.9,5.1,0l8.3,4.8c1.6,0.9,2.6,2.6,2.6,4.4v9.6
		c0,1.8-1,3.5-2.6,4.4l-8.3,4.8C289.4,38.2,288.5,38.4,287.7,38.4"/>
	<path class="st1" d="M290.8,60c0-0.3-0.1-0.5-0.4-0.6l-8.2-4.9l-3.3,1.9c-0.2,0.1-0.4,0.4-0.4,0.7v9.6c0,0.3,0.2,0.5,0.4,0.7
		l8.3,4.8c0.2,0.1,0.5,0.1,0.8,0l2.8-1.6L290.8,60z M294.4,68.4l2-1.1c0.2-0.1,0.4-0.4,0.4-0.7v-9.6c0-0.3-0.1-0.5-0.4-0.7l-8.3-4.8
		c-0.2-0.1-0.5-0.1-0.8,0l-1.8,1l8.6,4.9c0.2,0.1,0.4,0.4,0.4,0.6L294.4,68.4z M287.7,76.5c-0.9,0-1.8-0.2-2.6-0.7l-8.3-4.8
		c-1.6-0.9-2.6-2.6-2.6-4.4v-9.6c0-1.8,1-3.5,2.6-4.4l8.3-4.8c1.6-0.9,3.5-0.9,5.1,0l8.3,4.8c1.6,0.9,2.6,2.6,2.6,4.4v9.6
		c0,1.8-1,3.5-2.6,4.4l-8.3,4.8C289.4,76.3,288.5,76.5,287.7,76.5"/>
	<path class="st1" d="M290.8,98.2c0-0.3-0.1-0.5-0.4-0.6l-8.2-4.9l-3.3,1.9c-0.2,0.1-0.4,0.4-0.4,0.7v9.6c0,0.3,0.2,0.5,0.4,0.7
		l8.3,4.8c0.2,0.1,0.5,0.1,0.8,0l2.8-1.6L290.8,98.2z M294.4,106.6l2-1.1c0.2-0.1,0.4-0.4,0.4-0.7v-9.6c0-0.3-0.1-0.5-0.4-0.7
		l-8.3-4.8c-0.2-0.1-0.5-0.1-0.8,0l-1.8,1l8.6,4.9c0.2,0.1,0.4,0.4,0.4,0.6L294.4,106.6z M287.7,114.7c-0.9,0-1.8-0.2-2.6-0.7
		l-8.3-4.8c-1.6-0.9-2.6-2.6-2.6-4.4v-9.6c0-1.8,1-3.5,2.6-4.4l8.3-4.8c1.6-0.9,3.5-0.9,5.1,0l8.3,4.8c1.6,0.9,2.6,2.6,2.6,4.4v9.6
		c0,1.8-1,3.5-2.6,4.4l-8.3,4.8C289.4,114.4,288.5,114.7,287.7,114.7"/>
	<path class="st1" d="M290.8,136.3c0-0.3-0.1-0.5-0.4-0.6l-8.2-4.9l-3.3,1.9c-0.2,0.1-0.4,0.4-0.4,0.7v9.6c0,0.3,0.2,0.5,0.4,0.7
		l8.3,4.8c0.2,0.1,0.5,0.1,0.8,0l2.8-1.6L290.8,136.3z M294.4,144.7l2-1.1c0.2-0.1,0.4-0.4,0.4-0.7v-9.6c0-0.3-0.1-0.5-0.4-0.7
		l-8.3-4.8c-0.2-0.1-0.5-0.1-0.8,0l-1.8,1l8.6,4.9c0.2,0.1,0.4,0.4,0.4,0.6L294.4,144.7z M287.7,152.8c-0.9,0-1.8-0.2-2.6-0.7
		l-8.3-4.8c-1.6-0.9-2.6-2.6-2.6-4.4v-9.6c0-1.8,1-3.5,2.6-4.4l8.3-4.8c1.6-0.9,3.5-0.9,5.1,0l8.3,4.8c1.6,0.9,2.6,2.6,2.6,4.4v9.6
		c0,1.8-1,3.5-2.6,4.4l-8.3,4.8C289.4,152.6,288.5,152.8,287.7,152.8"/>
	<path class="st1" d="M290.8,174.4c0-0.3-0.1-0.5-0.4-0.6l-8.2-4.9l-3.3,1.9c-0.2,0.1-0.4,0.4-0.4,0.7v9.6c0,0.3,0.2,0.5,0.4,0.7
		l8.3,4.8c0.2,0.1,0.5,0.1,0.8,0l2.8-1.6L290.8,174.4z M294.4,182.8l2-1.1c0.2-0.1,0.4-0.4,0.4-0.7v-9.6c0-0.3-0.1-0.5-0.4-0.7
		l-8.3-4.8c-0.2-0.1-0.5-0.1-0.8,0l-1.8,1l8.6,4.9c0.2,0.1,0.4,0.4,0.4,0.6L294.4,182.8z M287.7,190.9c-0.9,0-1.8-0.2-2.6-0.7
		l-8.3-4.8c-1.6-0.9-2.6-2.6-2.6-4.4v-9.6c0-1.8,1-3.5,2.6-4.4l8.3-4.8c1.6-0.9,3.5-0.9,5.1,0l8.3,4.8c1.6,0.9,2.6,2.6,2.6,4.4v9.6
		c0,1.8-1,3.5-2.6,4.4l-8.3,4.8C289.4,190.7,288.5,190.9,287.7,190.9"/>
	<path class="st1" d="M328.8,21.9c0-0.3-0.1-0.5-0.4-0.6l-8.2-4.9l-3.3,1.9c-0.2,0.1-0.4,0.4-0.4,0.7v9.6c0,0.3,0.2,0.5,0.4,0.7
		l8.3,4.8c0.2,0.1,0.5,0.1,0.8,0l2.8-1.6L328.8,21.9z M332.4,30.3l2-1.1c0.2-0.1,0.4-0.4,0.4-0.7V19c0-0.3-0.1-0.5-0.4-0.7l-8.3-4.8
		c-0.2-0.1-0.5-0.1-0.8,0l-1.8,1l8.6,4.9c0.2,0.1,0.4,0.4,0.4,0.6L332.4,30.3z M325.6,38.4c-0.9,0-1.8-0.2-2.6-0.7l-8.3-4.8
		c-1.6-0.9-2.6-2.6-2.6-4.4V19c0-1.8,1-3.5,2.6-4.4l8.3-4.8c1.6-0.9,3.5-0.9,5.1,0l8.3,4.8c1.6,0.9,2.6,2.6,2.6,4.4v9.6
		c0,1.8-1,3.5-2.6,4.4l-8.3,4.8C327.4,38.2,326.5,38.4,325.6,38.4"/>
	<path class="st1" d="M328.8,60c0-0.3-0.1-0.5-0.4-0.6l-8.2-4.9l-3.3,1.9c-0.2,0.1-0.4,0.4-0.4,0.7v9.6c0,0.3,0.2,0.5,0.4,0.7
		l8.3,4.8c0.2,0.1,0.5,0.1,0.8,0l2.8-1.6L328.8,60z M332.4,68.4l2-1.1c0.2-0.1,0.4-0.4,0.4-0.7v-9.6c0-0.3-0.1-0.5-0.4-0.7l-8.3-4.8
		c-0.2-0.1-0.5-0.1-0.8,0l-1.8,1l8.6,4.9c0.2,0.1,0.4,0.4,0.4,0.6L332.4,68.4z M325.6,76.5c-0.9,0-1.8-0.2-2.6-0.7l-8.3-4.8
		c-1.6-0.9-2.6-2.6-2.6-4.4v-9.6c0-1.8,1-3.5,2.6-4.4l8.3-4.8c1.6-0.9,3.5-0.9,5.1,0l8.3,4.8c1.6,0.9,2.6,2.6,2.6,4.4v9.6
		c0,1.8-1,3.5-2.6,4.4l-8.3,4.8C327.4,76.3,326.5,76.5,325.6,76.5"/>
	<path class="st1" d="M328.8,98.2c0-0.3-0.1-0.5-0.4-0.6l-8.2-4.9l-3.3,1.9c-0.2,0.1-0.4,0.4-0.4,0.7v9.6c0,0.3,0.2,0.5,0.4,0.7
		l8.3,4.8c0.2,0.1,0.5,0.1,0.8,0l2.8-1.6L328.8,98.2z M332.4,106.6l2-1.1c0.2-0.1,0.4-0.4,0.4-0.7v-9.6c0-0.3-0.1-0.5-0.4-0.7
		l-8.3-4.8c-0.2-0.1-0.5-0.1-0.8,0l-1.8,1l8.6,4.9c0.2,0.1,0.4,0.4,0.4,0.6L332.4,106.6z M325.6,114.7c-0.9,0-1.8-0.2-2.6-0.7
		l-8.3-4.8c-1.6-0.9-2.6-2.6-2.6-4.4v-9.6c0-1.8,1-3.5,2.6-4.4l8.3-4.8c1.6-0.9,3.5-0.9,5.1,0l8.3,4.8c1.6,0.9,2.6,2.6,2.6,4.4v9.6
		c0,1.8-1,3.5-2.6,4.4l-8.3,4.8C327.4,114.4,326.5,114.7,325.6,114.7"/>
	<path class="st1" d="M328.8,136.3c0-0.3-0.1-0.5-0.4-0.6l-8.2-4.9l-3.3,1.9c-0.2,0.1-0.4,0.4-0.4,0.7v9.6c0,0.3,0.2,0.5,0.4,0.7
		l8.3,4.8c0.2,0.1,0.5,0.1,0.8,0l2.8-1.6L328.8,136.3z M332.4,144.7l2-1.1c0.2-0.1,0.4-0.4,0.4-0.7v-9.6c0-0.3-0.1-0.5-0.4-0.7
		l-8.3-4.8c-0.2-0.1-0.5-0.1-0.8,0l-1.8,1l8.6,4.9c0.2,0.1,0.4,0.4,0.4,0.6L332.4,144.7z M325.6,152.8c-0.9,0-1.8-0.2-2.6-0.7
		l-8.3-4.8c-1.6-0.9-2.6-2.6-2.6-4.4v-9.6c0-1.8,1-3.5,2.6-4.4l8.3-4.8c1.6-0.9,3.5-0.9,5.1,0l8.3,4.8c1.6,0.9,2.6,2.6,2.6,4.4v9.6
		c0,1.8-1,3.5-2.6,4.4l-8.3,4.8C327.4,152.6,326.5,152.8,325.6,152.8"/>
	<path class="st1" d="M328.8,174.4c0-0.3-0.1-0.5-0.4-0.6l-8.2-4.9l-3.3,1.9c-0.2,0.1-0.4,0.4-0.4,0.7v9.6c0,0.3,0.2,0.5,0.4,0.7
		l8.3,4.8c0.2,0.1,0.5,0.1,0.8,0l2.8-1.6L328.8,174.4z M332.4,182.8l2-1.1c0.2-0.1,0.4-0.4,0.4-0.7v-9.6c0-0.3-0.1-0.5-0.4-0.7
		L326,166c-0.2-0.1-0.5-0.1-0.8,0l-1.8,1l8.6,4.9c0.2,0.1,0.4,0.4,0.4,0.6L332.4,182.8z M325.6,190.9c-0.9,0-1.8-0.2-2.6-0.7
		l-8.3-4.8c-1.6-0.9-2.6-2.6-2.6-4.4v-9.6c0-1.8,1-3.5,2.6-4.4l8.3-4.8c1.6-0.9,3.5-0.9,5.1,0l8.3,4.8c1.6,0.9,2.6,2.6,2.6,4.4v9.6
		c0,1.8-1,3.5-2.6,4.4l-8.3,4.8C327.4,190.7,326.5,190.9,325.6,190.9"/>
	<path class="st1" d="M366.8,21.9c0-0.3-0.1-0.5-0.4-0.6l-8.2-4.9l-3.3,1.9c-0.2,0.1-0.4,0.4-0.4,0.7v9.6c0,0.3,0.2,0.5,0.4,0.7
		l8.3,4.8c0.2,0.1,0.5,0.1,0.8,0l2.8-1.6L366.8,21.9z M370.4,30.3l2-1.1c0.2-0.1,0.4-0.4,0.4-0.7V19c0-0.3-0.1-0.5-0.4-0.7l-8.3-4.8
		c-0.2-0.1-0.5-0.1-0.8,0l-1.8,1l8.6,4.9c0.2,0.1,0.4,0.4,0.4,0.6L370.4,30.3z M363.6,38.4c-0.9,0-1.8-0.2-2.6-0.7l-8.3-4.8
		c-1.6-0.9-2.6-2.6-2.6-4.4V19c0-1.8,1-3.5,2.6-4.4l8.3-4.8c1.6-0.9,3.5-0.9,5.1,0l8.3,4.8c1.6,0.9,2.6,2.6,2.6,4.4v9.6
		c0,1.8-1,3.5-2.6,4.4l-8.3,4.8C365.4,38.2,364.5,38.4,363.6,38.4"/>
	<path class="st1" d="M366.8,60c0-0.3-0.1-0.5-0.4-0.6l-8.2-4.9l-3.3,1.9c-0.2,0.1-0.4,0.4-0.4,0.7v9.6c0,0.3,0.2,0.5,0.4,0.7
		l8.3,4.8c0.2,0.1,0.5,0.1,0.8,0l2.8-1.6L366.8,60z M370.4,68.4l2-1.1c0.2-0.1,0.4-0.4,0.4-0.7v-9.6c0-0.3-0.1-0.5-0.4-0.7l-8.3-4.8
		c-0.2-0.1-0.5-0.1-0.8,0l-1.8,1l8.6,4.9c0.2,0.1,0.4,0.4,0.4,0.6L370.4,68.4z M363.6,76.5c-0.9,0-1.8-0.2-2.6-0.7l-8.3-4.8
		c-1.6-0.9-2.6-2.6-2.6-4.4v-9.6c0-1.8,1-3.5,2.6-4.4l8.3-4.8c1.6-0.9,3.5-0.9,5.1,0l8.3,4.8c1.6,0.9,2.6,2.6,2.6,4.4v9.6
		c0,1.8-1,3.5-2.6,4.4l-8.3,4.8C365.4,76.3,364.5,76.5,363.6,76.5"/>
	<path class="st1" d="M366.8,98.2c0-0.3-0.1-0.5-0.4-0.6l-8.2-4.9l-3.3,1.9c-0.2,0.1-0.4,0.4-0.4,0.7v9.6c0,0.3,0.2,0.5,0.4,0.7
		l8.3,4.8c0.2,0.1,0.5,0.1,0.8,0l2.8-1.6L366.8,98.2z M370.4,106.6l2-1.1c0.2-0.1,0.4-0.4,0.4-0.7v-9.6c0-0.3-0.1-0.5-0.4-0.7
		l-8.3-4.8c-0.2-0.1-0.5-0.1-0.8,0l-1.8,1l8.6,4.9c0.2,0.1,0.4,0.4,0.4,0.6L370.4,106.6z M363.6,114.7c-0.9,0-1.8-0.2-2.6-0.7
		l-8.3-4.8c-1.6-0.9-2.6-2.6-2.6-4.4v-9.6c0-1.8,1-3.5,2.6-4.4L361,86c1.6-0.9,3.5-0.9,5.1,0l8.3,4.8c1.6,0.9,2.6,2.6,2.6,4.4v9.6
		c0,1.8-1,3.5-2.6,4.4l-8.3,4.8C365.4,114.4,364.5,114.7,363.6,114.7"/>
	<path class="st1" d="M366.8,136.3c0-0.3-0.1-0.5-0.4-0.6l-8.2-4.9l-3.3,1.9c-0.2,0.1-0.4,0.4-0.4,0.7v9.6c0,0.3,0.2,0.5,0.4,0.7
		l8.3,4.8c0.2,0.1,0.5,0.1,0.8,0l2.8-1.6L366.8,136.3z M370.4,144.7l2-1.1c0.2-0.1,0.4-0.4,0.4-0.7v-9.6c0-0.3-0.1-0.5-0.4-0.7
		l-8.3-4.8c-0.2-0.1-0.5-0.1-0.8,0l-1.8,1l8.6,4.9c0.2,0.1,0.4,0.4,0.4,0.6L370.4,144.7z M363.6,152.8c-0.9,0-1.8-0.2-2.6-0.7
		l-8.3-4.8c-1.6-0.9-2.6-2.6-2.6-4.4v-9.6c0-1.8,1-3.5,2.6-4.4l8.3-4.8c1.6-0.9,3.5-0.9,5.1,0l8.3,4.8c1.6,0.9,2.6,2.6,2.6,4.4v9.6
		c0,1.8-1,3.5-2.6,4.4l-8.3,4.8C365.4,152.6,364.5,152.8,363.6,152.8"/>
	<path class="st1" d="M366.8,174.4c0-0.3-0.1-0.5-0.4-0.6l-8.2-4.9l-3.3,1.9c-0.2,0.1-0.4,0.4-0.4,0.7v9.6c0,0.3,0.2,0.5,0.4,0.7
		l8.3,4.8c0.2,0.1,0.5,0.1,0.8,0l2.8-1.6L366.8,174.4z M370.4,182.8l2-1.1c0.2-0.1,0.4-0.4,0.4-0.7v-9.6c0-0.3-0.1-0.5-0.4-0.7
		L364,166c-0.2-0.1-0.5-0.1-0.8,0l-1.8,1l8.6,4.9c0.2,0.1,0.4,0.4,0.4,0.6L370.4,182.8z M363.6,190.9c-0.9,0-1.8-0.2-2.6-0.7
		l-8.3-4.8c-1.6-0.9-2.6-2.6-2.6-4.4v-9.6c0-1.8,1-3.5,2.6-4.4l8.3-4.8c1.6-0.9,3.5-0.9,5.1,0l8.3,4.8c1.6,0.9,2.6,2.6,2.6,4.4v9.6
		c0,1.8-1,3.5-2.6,4.4l-8.3,4.8C365.4,190.7,364.5,190.9,363.6,190.9"/>
	<path class="st1" d="M404.7,21.9c0-0.3-0.1-0.5-0.4-0.6l-8.2-4.9l-3.3,1.9c-0.2,0.1-0.4,0.4-0.4,0.7v9.6c0,0.3,0.2,0.5,0.4,0.7
		l8.3,4.8c0.2,0.1,0.5,0.1,0.8,0l2.8-1.6L404.7,21.9z M408.3,30.3l2-1.1c0.2-0.1,0.4-0.4,0.4-0.7V19c0-0.3-0.1-0.5-0.4-0.7l-8.3-4.8
		c-0.2-0.1-0.5-0.1-0.8,0l-1.8,1l8.6,4.9c0.2,0.1,0.4,0.4,0.4,0.6L408.3,30.3z M401.6,38.4c-0.9,0-1.8-0.2-2.6-0.7l-8.3-4.8
		c-1.6-0.9-2.6-2.6-2.6-4.4V19c0-1.8,1-3.5,2.6-4.4l8.3-4.8c1.6-0.9,3.5-0.9,5.1,0l8.3,4.8c1.6,0.9,2.6,2.6,2.6,4.4v9.6
		c0,1.8-1,3.5-2.6,4.4l-8.3,4.8C403.4,38.2,402.5,38.4,401.6,38.4"/>
	<path class="st1" d="M404.7,60c0-0.3-0.1-0.5-0.4-0.6l-8.2-4.9l-3.3,1.9c-0.2,0.1-0.4,0.4-0.4,0.7v9.6c0,0.3,0.2,0.5,0.4,0.7
		l8.3,4.8c0.2,0.1,0.5,0.1,0.8,0l2.8-1.6L404.7,60z M408.3,68.4l2-1.1c0.2-0.1,0.4-0.4,0.4-0.7v-9.6c0-0.3-0.1-0.5-0.4-0.7l-8.3-4.8
		c-0.2-0.1-0.5-0.1-0.8,0l-1.8,1l8.6,4.9c0.2,0.1,0.4,0.4,0.4,0.6L408.3,68.4z M401.6,76.5c-0.9,0-1.8-0.2-2.6-0.7l-8.3-4.8
		c-1.6-0.9-2.6-2.6-2.6-4.4v-9.6c0-1.8,1-3.5,2.6-4.4l8.3-4.8c1.6-0.9,3.5-0.9,5.1,0l8.3,4.8c1.6,0.9,2.6,2.6,2.6,4.4v9.6
		c0,1.8-1,3.5-2.6,4.4l-8.3,4.8C403.4,76.3,402.5,76.5,401.6,76.5"/>
	<path class="st1" d="M404.7,98.2c0-0.3-0.1-0.5-0.4-0.6l-8.2-4.9l-3.3,1.9c-0.2,0.1-0.4,0.4-0.4,0.7v9.6c0,0.3,0.2,0.5,0.4,0.7
		l8.3,4.8c0.2,0.1,0.5,0.1,0.8,0l2.8-1.6L404.7,98.2z M408.3,106.6l2-1.1c0.2-0.1,0.4-0.4,0.4-0.7v-9.6c0-0.3-0.1-0.5-0.4-0.7
		l-8.3-4.8c-0.2-0.1-0.5-0.1-0.8,0l-1.8,1l8.6,4.9c0.2,0.1,0.4,0.4,0.4,0.6L408.3,106.6z M401.6,114.7c-0.9,0-1.8-0.2-2.6-0.7
		l-8.3-4.8c-1.6-0.9-2.6-2.6-2.6-4.4v-9.6c0-1.8,1-3.5,2.6-4.4L399,86c1.6-0.9,3.5-0.9,5.1,0l8.3,4.8c1.6,0.9,2.6,2.6,2.6,4.4v9.6
		c0,1.8-1,3.5-2.6,4.4l-8.3,4.8C403.4,114.4,402.5,114.7,401.6,114.7"/>
	<path class="st1" d="M404.7,136.3c0-0.3-0.1-0.5-0.4-0.6l-8.2-4.9l-3.3,1.9c-0.2,0.1-0.4,0.4-0.4,0.7v9.6c0,0.3,0.2,0.5,0.4,0.7
		l8.3,4.8c0.2,0.1,0.5,0.1,0.8,0l2.8-1.6L404.7,136.3z M408.3,144.7l2-1.1c0.2-0.1,0.4-0.4,0.4-0.7v-9.6c0-0.3-0.1-0.5-0.4-0.7
		l-8.3-4.8c-0.2-0.1-0.5-0.1-0.8,0l-1.8,1l8.6,4.9c0.2,0.1,0.4,0.4,0.4,0.6L408.3,144.7z M401.6,152.8c-0.9,0-1.8-0.2-2.6-0.7
		l-8.3-4.8c-1.6-0.9-2.6-2.6-2.6-4.4v-9.6c0-1.8,1-3.5,2.6-4.4l8.3-4.8c1.6-0.9,3.5-0.9,5.1,0l8.3,4.8c1.6,0.9,2.6,2.6,2.6,4.4v9.6
		c0,1.8-1,3.5-2.6,4.4l-8.3,4.8C403.4,152.6,402.5,152.8,401.6,152.8"/>
	<path class="st1" d="M404.7,174.4c0-0.3-0.1-0.5-0.4-0.6l-8.2-4.9l-3.3,1.9c-0.2,0.1-0.4,0.4-0.4,0.7v9.6c0,0.3,0.2,0.5,0.4,0.7
		l8.3,4.8c0.2,0.1,0.5,0.1,0.8,0l2.8-1.6L404.7,174.4z M408.3,182.8l2-1.1c0.2-0.1,0.4-0.4,0.4-0.7v-9.6c0-0.3-0.1-0.5-0.4-0.7
		L402,166c-0.2-0.1-0.5-0.1-0.8,0l-1.8,1l8.6,4.9c0.2,0.1,0.4,0.4,0.4,0.6L408.3,182.8z M401.6,190.9c-0.9,0-1.8-0.2-2.6-0.7
		l-8.3-4.8c-1.6-0.9-2.6-2.6-2.6-4.4v-9.6c0-1.8,1-3.5,2.6-4.4l8.3-4.8c1.6-0.9,3.5-0.9,5.1,0l8.3,4.8c1.6,0.9,2.6,2.6,2.6,4.4v9.6
		c0,1.8-1,3.5-2.6,4.4l-8.3,4.8C403.4,190.7,402.5,190.9,401.6,190.9"/>
	<path class="st1" d="M442.7,21.9c0-0.3-0.1-0.5-0.4-0.6l-8.2-4.9l-3.3,1.9c-0.2,0.1-0.4,0.4-0.4,0.7v9.6c0,0.3,0.2,0.5,0.4,0.7
		l8.3,4.8c0.2,0.1,0.5,0.1,0.8,0l2.8-1.6L442.7,21.9z M446.3,30.3l2-1.1c0.2-0.1,0.4-0.4,0.4-0.7V19c0-0.3-0.1-0.5-0.4-0.7l-8.3-4.8
		c-0.2-0.1-0.5-0.1-0.8,0l-1.8,1l8.6,4.9c0.2,0.1,0.4,0.4,0.4,0.6L446.3,30.3z M439.5,38.4c-0.9,0-1.8-0.2-2.6-0.7l-8.3-4.8
		c-1.6-0.9-2.6-2.6-2.6-4.4V19c0-1.8,1-3.5,2.6-4.4l8.3-4.8c1.6-0.9,3.5-0.9,5.1,0l8.3,4.8c1.6,0.9,2.6,2.6,2.6,4.4v9.6
		c0,1.8-1,3.5-2.6,4.4l-8.3,4.8C441.3,38.2,440.4,38.4,439.5,38.4"/>
	<path class="st1" d="M442.7,60c0-0.3-0.1-0.5-0.4-0.6l-8.2-4.9l-3.3,1.9c-0.2,0.1-0.4,0.4-0.4,0.7v9.6c0,0.3,0.2,0.5,0.4,0.7
		l8.3,4.8c0.2,0.1,0.5,0.1,0.8,0l2.8-1.6L442.7,60z M446.3,68.4l2-1.1c0.2-0.1,0.4-0.4,0.4-0.7v-9.6c0-0.3-0.1-0.5-0.4-0.7l-8.3-4.8
		c-0.2-0.1-0.5-0.1-0.8,0l-1.8,1l8.6,4.9c0.2,0.1,0.4,0.4,0.4,0.6L446.3,68.4z M439.5,76.5c-0.9,0-1.8-0.2-2.6-0.7l-8.3-4.8
		c-1.6-0.9-2.6-2.6-2.6-4.4v-9.6c0-1.8,1-3.5,2.6-4.4l8.3-4.8c1.6-0.9,3.5-0.9,5.1,0l8.3,4.8c1.6,0.9,2.6,2.6,2.6,4.4v9.6
		c0,1.8-1,3.5-2.6,4.4l-8.3,4.8C441.3,76.3,440.4,76.5,439.5,76.5"/>
	<path class="st1" d="M442.7,98.2c0-0.3-0.1-0.5-0.4-0.6l-8.2-4.9l-3.3,1.9c-0.2,0.1-0.4,0.4-0.4,0.7v9.6c0,0.3,0.2,0.5,0.4,0.7
		l8.3,4.8c0.2,0.1,0.5,0.1,0.8,0l2.8-1.6L442.7,98.2z M446.3,106.6l2-1.1c0.2-0.1,0.4-0.4,0.4-0.7v-9.6c0-0.3-0.1-0.5-0.4-0.7
		l-8.3-4.8c-0.2-0.1-0.5-0.1-0.8,0l-1.8,1l8.6,4.9c0.2,0.1,0.4,0.4,0.4,0.6L446.3,106.6z M439.5,114.7c-0.9,0-1.8-0.2-2.6-0.7
		l-8.3-4.8c-1.6-0.9-2.6-2.6-2.6-4.4v-9.6c0-1.8,1-3.5,2.6-4.4L437,86c1.6-0.9,3.5-0.9,5.1,0l8.3,4.8c1.6,0.9,2.6,2.6,2.6,4.4v9.6
		c0,1.8-1,3.5-2.6,4.4l-8.3,4.8C441.3,114.4,440.4,114.7,439.5,114.7"/>
	<path class="st1" d="M442.7,136.3c0-0.3-0.1-0.5-0.4-0.6l-8.2-4.9l-3.3,1.9c-0.2,0.1-0.4,0.4-0.4,0.7v9.6c0,0.3,0.2,0.5,0.4,0.7
		l8.3,4.8c0.2,0.1,0.5,0.1,0.8,0l2.8-1.6L442.7,136.3z M446.3,144.7l2-1.1c0.2-0.1,0.4-0.4,0.4-0.7v-9.6c0-0.3-0.1-0.5-0.4-0.7
		l-8.3-4.8c-0.2-0.1-0.5-0.1-0.8,0l-1.8,1l8.6,4.9c0.2,0.1,0.4,0.4,0.4,0.6L446.3,144.7z M439.5,152.8c-0.9,0-1.8-0.2-2.6-0.7
		l-8.3-4.8c-1.6-0.9-2.6-2.6-2.6-4.4v-9.6c0-1.8,1-3.5,2.6-4.4l8.3-4.8c1.6-0.9,3.5-0.9,5.1,0l8.3,4.8c1.6,0.9,2.6,2.6,2.6,4.4v9.6
		c0,1.8-1,3.5-2.6,4.4l-8.3,4.8C441.3,152.6,440.4,152.8,439.5,152.8"/>
	<path class="st1" d="M442.7,174.4c0-0.3-0.1-0.5-0.4-0.6l-8.2-4.9l-3.3,1.9c-0.2,0.1-0.4,0.4-0.4,0.7v9.6c0,0.3,0.2,0.5,0.4,0.7
		l8.3,4.8c0.2,0.1,0.5,0.1,0.8,0l2.8-1.6L442.7,174.4z M446.3,182.8l2-1.1c0.2-0.1,0.4-0.4,0.4-0.7v-9.6c0-0.3-0.1-0.5-0.4-0.7
		l-8.3-4.8c-0.2-0.1-0.5-0.1-0.8,0l-1.8,1l8.6,4.9c0.2,0.1,0.4,0.4,0.4,0.6L446.3,182.8z M439.5,190.9c-0.9,0-1.8-0.2-2.6-0.7
		l-8.3-4.8c-1.6-0.9-2.6-2.6-2.6-4.4v-9.6c0-1.8,1-3.5,2.6-4.4l8.3-4.8c1.6-0.9,3.5-0.9,5.1,0l8.3,4.8c1.6,0.9,2.6,2.6,2.6,4.4v9.6
		c0,1.8-1,3.5-2.6,4.4l-8.3,4.8C441.3,190.7,440.4,190.9,439.5,190.9"/>
	<path class="st1" d="M480.7,21.9c0-0.3-0.1-0.5-0.4-0.6l-8.2-4.9l-3.3,1.9c-0.2,0.1-0.4,0.4-0.4,0.7v9.6c0,0.3,0.2,0.5,0.4,0.7
		l8.3,4.8c0.2,0.1,0.5,0.1,0.8,0l2.8-1.6L480.7,21.9z M484.3,30.3l2-1.1c0.2-0.1,0.4-0.4,0.4-0.7V19c0-0.3-0.1-0.5-0.4-0.7l-8.3-4.8
		c-0.2-0.1-0.5-0.1-0.8,0l-1.8,1l8.6,4.9c0.2,0.1,0.4,0.4,0.4,0.6L484.3,30.3z M477.5,38.4c-0.9,0-1.8-0.2-2.6-0.7l-8.3-4.8
		c-1.6-0.9-2.6-2.6-2.6-4.4V19c0-1.8,1-3.5,2.6-4.4l8.3-4.8c1.6-0.9,3.5-0.9,5.1,0l8.3,4.8c1.6,0.9,2.6,2.6,2.6,4.4v9.6
		c0,1.8-1,3.5-2.6,4.4l-8.3,4.8C479.3,38.2,478.4,38.4,477.5,38.4"/>
	<path class="st1" d="M480.7,60c0-0.3-0.1-0.5-0.4-0.6l-8.2-4.9l-3.3,1.9c-0.2,0.1-0.4,0.4-0.4,0.7v9.6c0,0.3,0.2,0.5,0.4,0.7
		l8.3,4.8c0.2,0.1,0.5,0.1,0.8,0l2.8-1.6L480.7,60z M484.3,68.4l2-1.1c0.2-0.1,0.4-0.4,0.4-0.7v-9.6c0-0.3-0.1-0.5-0.4-0.7l-8.3-4.8
		c-0.2-0.1-0.5-0.1-0.8,0l-1.8,1l8.6,4.9c0.2,0.1,0.4,0.4,0.4,0.6L484.3,68.4z M477.5,76.5c-0.9,0-1.8-0.2-2.6-0.7l-8.3-4.8
		c-1.6-0.9-2.6-2.6-2.6-4.4v-9.6c0-1.8,1-3.5,2.6-4.4l8.3-4.8c1.6-0.9,3.5-0.9,5.1,0l8.3,4.8c1.6,0.9,2.6,2.6,2.6,4.4v9.6
		c0,1.8-1,3.5-2.6,4.4l-8.3,4.8C479.3,76.3,478.4,76.5,477.5,76.5"/>
	<path class="st1" d="M480.7,98.2c0-0.3-0.1-0.5-0.4-0.6l-8.2-4.9l-3.3,1.9c-0.2,0.1-0.4,0.4-0.4,0.7v9.6c0,0.3,0.2,0.5,0.4,0.7
		l8.3,4.8c0.2,0.1,0.5,0.1,0.8,0l2.8-1.6L480.7,98.2z M484.3,106.6l2-1.1c0.2-0.1,0.4-0.4,0.4-0.7v-9.6c0-0.3-0.1-0.5-0.4-0.7
		l-8.3-4.8c-0.2-0.1-0.5-0.1-0.8,0l-1.8,1l8.6,4.9c0.2,0.1,0.4,0.4,0.4,0.6L484.3,106.6z M477.5,114.7c-0.9,0-1.8-0.2-2.6-0.7
		l-8.3-4.8c-1.6-0.9-2.6-2.6-2.6-4.4v-9.6c0-1.8,1-3.5,2.6-4.4L475,86c1.6-0.9,3.5-0.9,5.1,0l8.3,4.8c1.6,0.9,2.6,2.6,2.6,4.4v9.6
		c0,1.8-1,3.5-2.6,4.4l-8.3,4.8C479.3,114.4,478.4,114.7,477.5,114.7"/>
	<path class="st1" d="M480.7,136.3c0-0.3-0.1-0.5-0.4-0.6l-8.2-4.9l-3.3,1.9c-0.2,0.1-0.4,0.4-0.4,0.7v9.6c0,0.3,0.2,0.5,0.4,0.7
		l8.3,4.8c0.2,0.1,0.5,0.1,0.8,0l2.8-1.6L480.7,136.3z M484.3,144.7l2-1.1c0.2-0.1,0.4-0.4,0.4-0.7v-9.6c0-0.3-0.1-0.5-0.4-0.7
		l-8.3-4.8c-0.2-0.1-0.5-0.1-0.8,0l-1.8,1l8.6,4.9c0.2,0.1,0.4,0.4,0.4,0.6L484.3,144.7z M477.5,152.8c-0.9,0-1.8-0.2-2.6-0.7
		l-8.3-4.8c-1.6-0.9-2.6-2.6-2.6-4.4v-9.6c0-1.8,1-3.5,2.6-4.4l8.3-4.8c1.6-0.9,3.5-0.9,5.1,0l8.3,4.8c1.6,0.9,2.6,2.6,2.6,4.4v9.6
		c0,1.8-1,3.5-2.6,4.4l-8.3,4.8C479.3,152.6,478.4,152.8,477.5,152.8"/>
	<path class="st1" d="M480.7,174.4c0-0.3-0.1-0.5-0.4-0.6l-8.2-4.9l-3.3,1.9c-0.2,0.1-0.4,0.4-0.4,0.7v9.6c0,0.3,0.2,0.5,0.4,0.7
		l8.3,4.8c0.2,0.1,0.5,0.1,0.8,0l2.8-1.6L480.7,174.4z M484.3,182.8l2-1.1c0.2-0.1,0.4-0.4,0.4-0.7v-9.6c0-0.3-0.1-0.5-0.4-0.7
		l-8.3-4.8c-0.2-0.1-0.5-0.1-0.8,0l-1.8,1l8.6,4.9c0.2,0.1,0.4,0.4,0.4,0.6L484.3,182.8z M477.5,190.9c-0.9,0-1.8-0.2-2.6-0.7
		l-8.3-4.8c-1.6-0.9-2.6-2.6-2.6-4.4v-9.6c0-1.8,1-3.5,2.6-4.4l8.3-4.8c1.6-0.9,3.5-0.9,5.1,0l8.3,4.8c1.6,0.9,2.6,2.6,2.6,4.4v9.6
		c0,1.8-1,3.5-2.6,4.4l-8.3,4.8C479.3,190.7,478.4,190.9,477.5,190.9"/>
	<path class="st1" d="M518.7,21.9c0-0.3-0.1-0.5-0.4-0.6l-8.2-4.9l-3.3,1.9c-0.2,0.1-0.4,0.4-0.4,0.7v9.6c0,0.3,0.2,0.5,0.4,0.7
		l8.3,4.8c0.2,0.1,0.5,0.1,0.8,0l2.8-1.6L518.7,21.9z M522.3,30.3l2-1.1c0.2-0.1,0.4-0.4,0.4-0.7V19c0-0.3-0.1-0.5-0.4-0.7l-8.3-4.8
		c-0.2-0.1-0.5-0.1-0.8,0l-1.8,1l8.6,4.9c0.2,0.1,0.4,0.4,0.4,0.6L522.3,30.3z M515.5,38.4c-0.9,0-1.8-0.2-2.6-0.7l-8.3-4.8
		c-1.6-0.9-2.6-2.6-2.6-4.4V19c0-1.8,1-3.5,2.6-4.4l8.3-4.8c1.6-0.9,3.5-0.9,5.1,0l8.3,4.8c1.6,0.9,2.6,2.6,2.6,4.4v9.6
		c0,1.8-1,3.5-2.6,4.4l-8.3,4.8C517.3,38.2,516.4,38.4,515.5,38.4"/>
	<path class="st1" d="M518.7,60c0-0.3-0.1-0.5-0.4-0.6l-8.2-4.9l-3.3,1.9c-0.2,0.1-0.4,0.4-0.4,0.7v9.6c0,0.3,0.2,0.5,0.4,0.7
		l8.3,4.8c0.2,0.1,0.5,0.1,0.8,0l2.8-1.6L518.7,60z M522.3,68.4l2-1.1c0.2-0.1,0.4-0.4,0.4-0.7v-9.6c0-0.3-0.1-0.5-0.4-0.7l-8.3-4.8
		c-0.2-0.1-0.5-0.1-0.8,0l-1.8,1l8.6,4.9c0.2,0.1,0.4,0.4,0.4,0.6L522.3,68.4z M515.5,76.5c-0.9,0-1.8-0.2-2.6-0.7l-8.3-4.8
		c-1.6-0.9-2.6-2.6-2.6-4.4v-9.6c0-1.8,1-3.5,2.6-4.4l8.3-4.8c1.6-0.9,3.5-0.9,5.1,0l8.3,4.8c1.6,0.9,2.6,2.6,2.6,4.4v9.6
		c0,1.8-1,3.5-2.6,4.4l-8.3,4.8C517.3,76.3,516.4,76.5,515.5,76.5"/>
	<path class="st1" d="M518.7,98.2c0-0.3-0.1-0.5-0.4-0.6l-8.2-4.9l-3.3,1.9c-0.2,0.1-0.4,0.4-0.4,0.7v9.6c0,0.3,0.2,0.5,0.4,0.7
		l8.3,4.8c0.2,0.1,0.5,0.1,0.8,0l2.8-1.6L518.7,98.2z M522.3,106.6l2-1.1c0.2-0.1,0.4-0.4,0.4-0.7v-9.6c0-0.3-0.1-0.5-0.4-0.7
		l-8.3-4.8c-0.2-0.1-0.5-0.1-0.8,0l-1.8,1l8.6,4.9c0.2,0.1,0.4,0.4,0.4,0.6L522.3,106.6z M515.5,114.7c-0.9,0-1.8-0.2-2.6-0.7
		l-8.3-4.8c-1.6-0.9-2.6-2.6-2.6-4.4v-9.6c0-1.8,1-3.5,2.6-4.4l8.3-4.8c1.6-0.9,3.5-0.9,5.1,0l8.3,4.8c1.6,0.9,2.6,2.6,2.6,4.4v9.6
		c0,1.8-1,3.5-2.6,4.4l-8.3,4.8C517.3,114.4,516.4,114.7,515.5,114.7"/>
	<path class="st1" d="M518.7,136.3c0-0.3-0.1-0.5-0.4-0.6l-8.2-4.9l-3.3,1.9c-0.2,0.1-0.4,0.4-0.4,0.7v9.6c0,0.3,0.2,0.5,0.4,0.7
		l8.3,4.8c0.2,0.1,0.5,0.1,0.8,0l2.8-1.6L518.7,136.3z M522.3,144.7l2-1.1c0.2-0.1,0.4-0.4,0.4-0.7v-9.6c0-0.3-0.1-0.5-0.4-0.7
		l-8.3-4.8c-0.2-0.1-0.5-0.1-0.8,0l-1.8,1l8.6,4.9c0.2,0.1,0.4,0.4,0.4,0.6L522.3,144.7z M515.5,152.8c-0.9,0-1.8-0.2-2.6-0.7
		l-8.3-4.8c-1.6-0.9-2.6-2.6-2.6-4.4v-9.6c0-1.8,1-3.5,2.6-4.4l8.3-4.8c1.6-0.9,3.5-0.9,5.1,0l8.3,4.8c1.6,0.9,2.6,2.6,2.6,4.4v9.6
		c0,1.8-1,3.5-2.6,4.4l-8.3,4.8C517.3,152.6,516.4,152.8,515.5,152.8"/>
	<path class="st1" d="M518.7,174.4c0-0.3-0.1-0.5-0.4-0.6l-8.2-4.9l-3.3,1.9c-0.2,0.1-0.4,0.4-0.4,0.7v9.6c0,0.3,0.2,0.5,0.4,0.7
		l8.3,4.8c0.2,0.1,0.5,0.1,0.8,0l2.8-1.6L518.7,174.4z M522.3,182.8l2-1.1c0.2-0.1,0.4-0.4,0.4-0.7v-9.6c0-0.3-0.1-0.5-0.4-0.7
		l-8.3-4.8c-0.2-0.1-0.5-0.1-0.8,0l-1.8,1l8.6,4.9c0.2,0.1,0.4,0.4,0.4,0.6L522.3,182.8z M515.5,190.9c-0.9,0-1.8-0.2-2.6-0.7
		l-8.3-4.8c-1.6-0.9-2.6-2.6-2.6-4.4v-9.6c0-1.8,1-3.5,2.6-4.4l8.3-4.8c1.6-0.9,3.5-0.9,5.1,0l8.3,4.8c1.6,0.9,2.6,2.6,2.6,4.4v9.6
		c0,1.8-1,3.5-2.6,4.4l-8.3,4.8C517.3,190.7,516.4,190.9,515.5,190.9"/>
	<path class="st1" d="M556.6,21.9c0-0.3-0.1-0.5-0.4-0.6l-8.2-4.9l-3.3,1.9c-0.2,0.1-0.4,0.4-0.4,0.7v9.6c0,0.3,0.2,0.5,0.4,0.7
		l8.3,4.8c0.2,0.1,0.5,0.1,0.8,0l2.8-1.6L556.6,21.9z M560.2,30.3l2-1.1c0.2-0.1,0.4-0.4,0.4-0.7V19c0-0.3-0.1-0.5-0.4-0.7l-8.3-4.8
		c-0.2-0.1-0.5-0.1-0.8,0l-1.8,1l8.6,4.9c0.2,0.1,0.4,0.4,0.4,0.6L560.2,30.3z M553.5,38.4c-0.9,0-1.8-0.2-2.6-0.7l-8.3-4.8
		c-1.6-0.9-2.6-2.6-2.6-4.4V19c0-1.8,1-3.5,2.6-4.4l8.3-4.8c1.6-0.9,3.5-0.9,5.1,0l8.3,4.8c1.6,0.9,2.6,2.6,2.6,4.4v9.6
		c0,1.8-1,3.5-2.6,4.4l-8.3,4.8C555.2,38.2,554.4,38.4,553.5,38.4"/>
	<path class="st1" d="M556.6,60c0-0.3-0.1-0.5-0.4-0.6l-8.2-4.9l-3.3,1.9c-0.2,0.1-0.4,0.4-0.4,0.7v9.6c0,0.3,0.2,0.5,0.4,0.7
		l8.3,4.8c0.2,0.1,0.5,0.1,0.8,0l2.8-1.6L556.6,60z M560.2,68.4l2-1.1c0.2-0.1,0.4-0.4,0.4-0.7v-9.6c0-0.3-0.1-0.5-0.4-0.7l-8.3-4.8
		c-0.2-0.1-0.5-0.1-0.8,0l-1.8,1l8.6,4.9c0.2,0.1,0.4,0.4,0.4,0.6L560.2,68.4z M553.5,76.5c-0.9,0-1.8-0.2-2.6-0.7l-8.3-4.8
		c-1.6-0.9-2.6-2.6-2.6-4.4v-9.6c0-1.8,1-3.5,2.6-4.4l8.3-4.8c1.6-0.9,3.5-0.9,5.1,0l8.3,4.8c1.6,0.9,2.6,2.6,2.6,4.4v9.6
		c0,1.8-1,3.5-2.6,4.4l-8.3,4.8C555.2,76.3,554.4,76.5,553.5,76.5"/>
	<path class="st1" d="M556.6,98.2c0-0.3-0.1-0.5-0.4-0.6l-8.2-4.9l-3.3,1.9c-0.2,0.1-0.4,0.4-0.4,0.7v9.6c0,0.3,0.2,0.5,0.4,0.7
		l8.3,4.8c0.2,0.1,0.5,0.1,0.8,0l2.8-1.6L556.6,98.2z M560.2,106.6l2-1.1c0.2-0.1,0.4-0.4,0.4-0.7v-9.6c0-0.3-0.1-0.5-0.4-0.7
		l-8.3-4.8c-0.2-0.1-0.5-0.1-0.8,0l-1.8,1l8.6,4.9c0.2,0.1,0.4,0.4,0.4,0.6L560.2,106.6z M553.5,114.7c-0.9,0-1.8-0.2-2.6-0.7
		l-8.3-4.8c-1.6-0.9-2.6-2.6-2.6-4.4v-9.6c0-1.8,1-3.5,2.6-4.4l8.3-4.8c1.6-0.9,3.5-0.9,5.1,0l8.3,4.8c1.6,0.9,2.6,2.6,2.6,4.4v9.6
		c0,1.8-1,3.5-2.6,4.4L556,114C555.2,114.4,554.4,114.7,553.5,114.7"/>
	<path class="st1" d="M556.6,136.3c0-0.3-0.1-0.5-0.4-0.6l-8.2-4.9l-3.3,1.9c-0.2,0.1-0.4,0.4-0.4,0.7v9.6c0,0.3,0.2,0.5,0.4,0.7
		l8.3,4.8c0.2,0.1,0.5,0.1,0.8,0l2.8-1.6L556.6,136.3z M560.2,144.7l2-1.1c0.2-0.1,0.4-0.4,0.4-0.7v-9.6c0-0.3-0.1-0.5-0.4-0.7
		l-8.3-4.8c-0.2-0.1-0.5-0.1-0.8,0l-1.8,1l8.6,4.9c0.2,0.1,0.4,0.4,0.4,0.6L560.2,144.7z M553.5,152.8c-0.9,0-1.8-0.2-2.6-0.7
		l-8.3-4.8c-1.6-0.9-2.6-2.6-2.6-4.4v-9.6c0-1.8,1-3.5,2.6-4.4l8.3-4.8c1.6-0.9,3.5-0.9,5.1,0l8.3,4.8c1.6,0.9,2.6,2.6,2.6,4.4v9.6
		c0,1.8-1,3.5-2.6,4.4l-8.3,4.8C555.2,152.6,554.4,152.8,553.5,152.8"/>
	<path class="st1" d="M556.6,174.4c0-0.3-0.1-0.5-0.4-0.6l-8.2-4.9l-3.3,1.9c-0.2,0.1-0.4,0.4-0.4,0.7v9.6c0,0.3,0.2,0.5,0.4,0.7
		l8.3,4.8c0.2,0.1,0.5,0.1,0.8,0l2.8-1.6L556.6,174.4z M560.2,182.8l2-1.1c0.2-0.1,0.4-0.4,0.4-0.7v-9.6c0-0.3-0.1-0.5-0.4-0.7
		l-8.3-4.8c-0.2-0.1-0.5-0.1-0.8,0l-1.8,1l8.6,4.9c0.2,0.1,0.4,0.4,0.4,0.6L560.2,182.8z M553.5,190.9c-0.9,0-1.8-0.2-2.6-0.7
		l-8.3-4.8c-1.6-0.9-2.6-2.6-2.6-4.4v-9.6c0-1.8,1-3.5,2.6-4.4l8.3-4.8c1.6-0.9,3.5-0.9,5.1,0l8.3,4.8c1.6,0.9,2.6,2.6,2.6,4.4v9.6
		c0,1.8-1,3.5-2.6,4.4l-8.3,4.8C555.2,190.7,554.4,190.9,553.5,190.9"/>
	<path class="st1" d="M594.6,21.9c0-0.3-0.1-0.5-0.4-0.6l-8.2-4.9l-3.3,1.9c-0.2,0.1-0.4,0.4-0.4,0.7v9.6c0,0.3,0.2,0.5,0.4,0.7
		L591,34c0.2,0.1,0.5,0.1,0.8,0l2.8-1.6L594.6,21.9z M598.2,30.3l2-1.1c0.2-0.1,0.4-0.4,0.4-0.7V19c0-0.3-0.1-0.5-0.4-0.7l-8.3-4.8
		c-0.2-0.1-0.5-0.1-0.8,0l-1.8,1l8.6,4.9c0.2,0.1,0.4,0.4,0.4,0.6L598.2,30.3z M591.4,38.4c-0.9,0-1.8-0.2-2.6-0.7l-8.3-4.8
		c-1.6-0.9-2.6-2.6-2.6-4.4V19c0-1.8,1-3.5,2.6-4.4l8.3-4.8c1.6-0.9,3.5-0.9,5.1,0l8.3,4.8c1.6,0.9,2.6,2.6,2.6,4.4v9.6
		c0,1.8-1,3.5-2.6,4.4l-8.3,4.8C593.2,38.2,592.3,38.4,591.4,38.4"/>
	<path class="st1" d="M594.6,60c0-0.3-0.1-0.5-0.4-0.6l-8.2-4.9l-3.3,1.9c-0.2,0.1-0.4,0.4-0.4,0.7v9.6c0,0.3,0.2,0.5,0.4,0.7
		l8.3,4.8c0.2,0.1,0.5,0.1,0.8,0l2.8-1.6L594.6,60z M598.2,68.4l2-1.1c0.2-0.1,0.4-0.4,0.4-0.7v-9.6c0-0.3-0.1-0.5-0.4-0.7l-8.3-4.8
		c-0.2-0.1-0.5-0.1-0.8,0l-1.8,1l8.6,4.9c0.2,0.1,0.4,0.4,0.4,0.6L598.2,68.4z M591.4,76.5c-0.9,0-1.8-0.2-2.6-0.7l-8.3-4.8
		c-1.6-0.9-2.6-2.6-2.6-4.4v-9.6c0-1.8,1-3.5,2.6-4.4l8.3-4.8c1.6-0.9,3.5-0.9,5.1,0l8.3,4.8c1.6,0.9,2.6,2.6,2.6,4.4v9.6
		c0,1.8-1,3.5-2.6,4.4l-8.3,4.8C593.2,76.3,592.3,76.5,591.4,76.5"/>
	<path class="st1" d="M594.6,98.2c0-0.3-0.1-0.5-0.4-0.6l-8.2-4.9l-3.3,1.9c-0.2,0.1-0.4,0.4-0.4,0.7v9.6c0,0.3,0.2,0.5,0.4,0.7
		l8.3,4.8c0.2,0.1,0.5,0.1,0.8,0l2.8-1.6L594.6,98.2z M598.2,106.6l2-1.1c0.2-0.1,0.4-0.4,0.4-0.7v-9.6c0-0.3-0.1-0.5-0.4-0.7
		l-8.3-4.8c-0.2-0.1-0.5-0.1-0.8,0l-1.8,1l8.6,4.9c0.2,0.1,0.4,0.4,0.4,0.6L598.2,106.6z M591.4,114.7c-0.9,0-1.8-0.2-2.6-0.7
		l-8.3-4.8c-1.6-0.9-2.6-2.6-2.6-4.4v-9.6c0-1.8,1-3.5,2.6-4.4l8.3-4.8c1.6-0.9,3.5-0.9,5.1,0l8.3,4.8c1.6,0.9,2.6,2.6,2.6,4.4v9.6
		c0,1.8-1,3.5-2.6,4.4L594,114C593.2,114.4,592.3,114.7,591.4,114.7"/>
	<path class="st1" d="M594.6,136.3c0-0.3-0.1-0.5-0.4-0.6l-8.2-4.9l-3.3,1.9c-0.2,0.1-0.4,0.4-0.4,0.7v9.6c0,0.3,0.2,0.5,0.4,0.7
		l8.3,4.8c0.2,0.1,0.5,0.1,0.8,0l2.8-1.6L594.6,136.3z M598.2,144.7l2-1.1c0.2-0.1,0.4-0.4,0.4-0.7v-9.6c0-0.3-0.1-0.5-0.4-0.7
		l-8.3-4.8c-0.2-0.1-0.5-0.1-0.8,0l-1.8,1l8.6,4.9c0.2,0.1,0.4,0.4,0.4,0.6L598.2,144.7z M591.4,152.8c-0.9,0-1.8-0.2-2.6-0.7
		l-8.3-4.8c-1.6-0.9-2.6-2.6-2.6-4.4v-9.6c0-1.8,1-3.5,2.6-4.4l8.3-4.8c1.6-0.9,3.5-0.9,5.1,0l8.3,4.8c1.6,0.9,2.6,2.6,2.6,4.4v9.6
		c0,1.8-1,3.5-2.6,4.4l-8.3,4.8C593.2,152.6,592.3,152.8,591.4,152.8"/>
	<path class="st1" d="M594.6,174.4c0-0.3-0.1-0.5-0.4-0.6l-8.2-4.9l-3.3,1.9c-0.2,0.1-0.4,0.4-0.4,0.7v9.6c0,0.3,0.2,0.5,0.4,0.7
		l8.3,4.8c0.2,0.1,0.5,0.1,0.8,0l2.8-1.6L594.6,174.4z M598.2,182.8l2-1.1c0.2-0.1,0.4-0.4,0.4-0.7v-9.6c0-0.3-0.1-0.5-0.4-0.7
		l-8.3-4.8c-0.2-0.1-0.5-0.1-0.8,0l-1.8,1l8.6,4.9c0.2,0.1,0.4,0.4,0.4,0.6L598.2,182.8z M591.4,190.9c-0.9,0-1.8-0.2-2.6-0.7
		l-8.3-4.8c-1.6-0.9-2.6-2.6-2.6-4.4v-9.6c0-1.8,1-3.5,2.6-4.4l8.3-4.8c1.6-0.9,3.5-0.9,5.1,0l8.3,4.8c1.6,0.9,2.6,2.6,2.6,4.4v9.6
		c0,1.8-1,3.5-2.6,4.4l-8.3,4.8C593.2,190.7,592.3,190.9,591.4,190.9"/>
	<path class="st1" d="M632.6,21.9c0-0.3-0.1-0.5-0.4-0.6l-8.2-4.9l-3.3,1.9c-0.2,0.1-0.4,0.4-0.4,0.7v9.6c0,0.3,0.2,0.5,0.4,0.7
		L629,34c0.2,0.1,0.5,0.1,0.8,0l2.8-1.6L632.6,21.9z M636.2,30.3l2-1.1c0.2-0.1,0.4-0.4,0.4-0.7V19c0-0.3-0.1-0.5-0.4-0.7l-8.3-4.8
		c-0.2-0.1-0.5-0.1-0.8,0l-1.8,1l8.6,4.9c0.2,0.1,0.4,0.4,0.4,0.6L636.2,30.3z M629.4,38.4c-0.9,0-1.8-0.2-2.6-0.7l-8.3-4.8
		c-1.6-0.9-2.6-2.6-2.6-4.4V19c0-1.8,1-3.5,2.6-4.4l8.3-4.8c1.6-0.9,3.5-0.9,5.1,0l8.3,4.8c1.6,0.9,2.6,2.6,2.6,4.4v9.6
		c0,1.8-1,3.5-2.6,4.4l-8.3,4.8C631.2,38.2,630.3,38.4,629.4,38.4"/>
	<path class="st1" d="M632.6,60c0-0.3-0.1-0.5-0.4-0.6l-8.2-4.9l-3.3,1.9c-0.2,0.1-0.4,0.4-0.4,0.7v9.6c0,0.3,0.2,0.5,0.4,0.7
		l8.3,4.8c0.2,0.1,0.5,0.1,0.8,0l2.8-1.6L632.6,60z M636.2,68.4l2-1.1c0.2-0.1,0.4-0.4,0.4-0.7v-9.6c0-0.3-0.1-0.5-0.4-0.7l-8.3-4.8
		c-0.2-0.1-0.5-0.1-0.8,0l-1.8,1l8.6,4.9c0.2,0.1,0.4,0.4,0.4,0.6L636.2,68.4z M629.4,76.5c-0.9,0-1.8-0.2-2.6-0.7l-8.3-4.8
		c-1.6-0.9-2.6-2.6-2.6-4.4v-9.6c0-1.8,1-3.5,2.6-4.4l8.3-4.8c1.6-0.9,3.5-0.9,5.1,0l8.3,4.8c1.6,0.9,2.6,2.6,2.6,4.4v9.6
		c0,1.8-1,3.5-2.6,4.4l-8.3,4.8C631.2,76.3,630.3,76.5,629.4,76.5"/>
	<path class="st1" d="M632.6,98.2c0-0.3-0.1-0.5-0.4-0.6l-8.2-4.9l-3.3,1.9c-0.2,0.1-0.4,0.4-0.4,0.7v9.6c0,0.3,0.2,0.5,0.4,0.7
		l8.3,4.8c0.2,0.1,0.5,0.1,0.8,0l2.8-1.6L632.6,98.2z M636.2,106.6l2-1.1c0.2-0.1,0.4-0.4,0.4-0.7v-9.6c0-0.3-0.1-0.5-0.4-0.7
		l-8.3-4.8c-0.2-0.1-0.5-0.1-0.8,0l-1.8,1l8.6,4.9c0.2,0.1,0.4,0.4,0.4,0.6L636.2,106.6z M629.4,114.7c-0.9,0-1.8-0.2-2.6-0.7
		l-8.3-4.8c-1.6-0.9-2.6-2.6-2.6-4.4v-9.6c0-1.8,1-3.5,2.6-4.4l8.3-4.8c1.6-0.9,3.5-0.9,5.1,0l8.3,4.8c1.6,0.9,2.6,2.6,2.6,4.4v9.6
		c0,1.8-1,3.5-2.6,4.4L632,114C631.2,114.4,630.3,114.7,629.4,114.7"/>
	<path class="st1" d="M632.6,136.3c0-0.3-0.1-0.5-0.4-0.6l-8.2-4.9l-3.3,1.9c-0.2,0.1-0.4,0.4-0.4,0.7v9.6c0,0.3,0.2,0.5,0.4,0.7
		l8.3,4.8c0.2,0.1,0.5,0.1,0.8,0l2.8-1.6L632.6,136.3z M636.2,144.7l2-1.1c0.2-0.1,0.4-0.4,0.4-0.7v-9.6c0-0.3-0.1-0.5-0.4-0.7
		l-8.3-4.8c-0.2-0.1-0.5-0.1-0.8,0l-1.8,1l8.6,4.9c0.2,0.1,0.4,0.4,0.4,0.6L636.2,144.7z M629.4,152.8c-0.9,0-1.8-0.2-2.6-0.7
		l-8.3-4.8c-1.6-0.9-2.6-2.6-2.6-4.4v-9.6c0-1.8,1-3.5,2.6-4.4l8.3-4.8c1.6-0.9,3.5-0.9,5.1,0l8.3,4.8c1.6,0.9,2.6,2.6,2.6,4.4v9.6
		c0,1.8-1,3.5-2.6,4.4l-8.3,4.8C631.2,152.6,630.3,152.8,629.4,152.8"/>
	<path class="st1" d="M632.6,174.4c0-0.3-0.1-0.5-0.4-0.6l-8.2-4.9l-3.3,1.9c-0.2,0.1-0.4,0.4-0.4,0.7v9.6c0,0.3,0.2,0.5,0.4,0.7
		l8.3,4.8c0.2,0.1,0.5,0.1,0.8,0l2.8-1.6L632.6,174.4z M636.2,182.8l2-1.1c0.2-0.1,0.4-0.4,0.4-0.7v-9.6c0-0.3-0.1-0.5-0.4-0.7
		l-8.3-4.8c-0.2-0.1-0.5-0.1-0.8,0l-1.8,1l8.6,4.9c0.2,0.1,0.4,0.4,0.4,0.6L636.2,182.8z M629.4,190.9c-0.9,0-1.8-0.2-2.6-0.7
		l-8.3-4.8c-1.6-0.9-2.6-2.6-2.6-4.4v-9.6c0-1.8,1-3.5,2.6-4.4l8.3-4.8c1.6-0.9,3.5-0.9,5.1,0l8.3,4.8c1.6,0.9,2.6,2.6,2.6,4.4v9.6
		c0,1.8-1,3.5-2.6,4.4l-8.3,4.8C631.2,190.7,630.3,190.9,629.4,190.9"/>
	<path class="st1" d="M670.5,21.9c0-0.3-0.1-0.5-0.4-0.6l-8.2-4.9l-3.3,1.9c-0.2,0.1-0.4,0.4-0.4,0.7v9.6c0,0.3,0.2,0.5,0.4,0.7
		L667,34c0.2,0.1,0.5,0.1,0.8,0l2.8-1.6L670.5,21.9z M674.1,30.3l2-1.1c0.2-0.1,0.4-0.4,0.4-0.7V19c0-0.3-0.1-0.5-0.4-0.7l-8.3-4.8
		c-0.2-0.1-0.5-0.1-0.8,0l-1.8,1l8.6,4.9c0.2,0.1,0.4,0.4,0.4,0.6L674.1,30.3z M667.4,38.4c-0.9,0-1.8-0.2-2.6-0.7l-8.3-4.8
		c-1.6-0.9-2.6-2.6-2.6-4.4V19c0-1.8,1-3.5,2.6-4.4l8.3-4.8c1.6-0.9,3.5-0.9,5.1,0l8.3,4.8c1.6,0.9,2.6,2.6,2.6,4.4v9.6
		c0,1.8-1,3.5-2.6,4.4l-8.3,4.8C669.2,38.2,668.3,38.4,667.4,38.4"/>
	<path class="st1" d="M670.5,60c0-0.3-0.1-0.5-0.4-0.6l-8.2-4.9l-3.3,1.9c-0.2,0.1-0.4,0.4-0.4,0.7v9.6c0,0.3,0.2,0.5,0.4,0.7
		l8.3,4.8c0.2,0.1,0.5,0.1,0.8,0l2.8-1.6L670.5,60z M674.1,68.4l2-1.1c0.2-0.1,0.4-0.4,0.4-0.7v-9.6c0-0.3-0.1-0.5-0.4-0.7l-8.3-4.8
		c-0.2-0.1-0.5-0.1-0.8,0l-1.8,1l8.6,4.9c0.2,0.1,0.4,0.4,0.4,0.6L674.1,68.4z M667.4,76.5c-0.9,0-1.8-0.2-2.6-0.7l-8.3-4.8
		c-1.6-0.9-2.6-2.6-2.6-4.4v-9.6c0-1.8,1-3.5,2.6-4.4l8.3-4.8c1.6-0.9,3.5-0.9,5.1,0l8.3,4.8c1.6,0.9,2.6,2.6,2.6,4.4v9.6
		c0,1.8-1,3.5-2.6,4.4l-8.3,4.8C669.2,76.3,668.3,76.5,667.4,76.5"/>
	<path class="st1" d="M670.5,98.2c0-0.3-0.1-0.5-0.4-0.6l-8.2-4.9l-3.3,1.9c-0.2,0.1-0.4,0.4-0.4,0.7v9.6c0,0.3,0.2,0.5,0.4,0.7
		l8.3,4.8c0.2,0.1,0.5,0.1,0.8,0l2.8-1.6L670.5,98.2z M674.1,106.6l2-1.1c0.2-0.1,0.4-0.4,0.4-0.7v-9.6c0-0.3-0.1-0.5-0.4-0.7
		l-8.3-4.8c-0.2-0.1-0.5-0.1-0.8,0l-1.8,1l8.6,4.9c0.2,0.1,0.4,0.4,0.4,0.6L674.1,106.6z M667.4,114.7c-0.9,0-1.8-0.2-2.6-0.7
		l-8.3-4.8c-1.6-0.9-2.6-2.6-2.6-4.4v-9.6c0-1.8,1-3.5,2.6-4.4l8.3-4.8c1.6-0.9,3.5-0.9,5.1,0l8.3,4.8c1.6,0.9,2.6,2.6,2.6,4.4v9.6
		c0,1.8-1,3.5-2.6,4.4l-8.3,4.8C669.2,114.4,668.3,114.7,667.4,114.7"/>
	<path class="st1" d="M670.5,136.3c0-0.3-0.1-0.5-0.4-0.6l-8.2-4.9l-3.3,1.9c-0.2,0.1-0.4,0.4-0.4,0.7v9.6c0,0.3,0.2,0.5,0.4,0.7
		l8.3,4.8c0.2,0.1,0.5,0.1,0.8,0l2.8-1.6L670.5,136.3z M674.1,144.7l2-1.1c0.2-0.1,0.4-0.4,0.4-0.7v-9.6c0-0.3-0.1-0.5-0.4-0.7
		l-8.3-4.8c-0.2-0.1-0.5-0.1-0.8,0l-1.8,1l8.6,4.9c0.2,0.1,0.4,0.4,0.4,0.6L674.1,144.7z M667.4,152.8c-0.9,0-1.8-0.2-2.6-0.7
		l-8.3-4.8c-1.6-0.9-2.6-2.6-2.6-4.4v-9.6c0-1.8,1-3.5,2.6-4.4l8.3-4.8c1.6-0.9,3.5-0.9,5.1,0l8.3,4.8c1.6,0.9,2.6,2.6,2.6,4.4v9.6
		c0,1.8-1,3.5-2.6,4.4l-8.3,4.8C669.2,152.6,668.3,152.8,667.4,152.8"/>
	<path class="st1" d="M670.5,174.4c0-0.3-0.1-0.5-0.4-0.6l-8.2-4.9l-3.3,1.9c-0.2,0.1-0.4,0.4-0.4,0.7v9.6c0,0.3,0.2,0.5,0.4,0.7
		l8.3,4.8c0.2,0.1,0.5,0.1,0.8,0l2.8-1.6L670.5,174.4z M674.1,182.8l2-1.1c0.2-0.1,0.4-0.4,0.4-0.7v-9.6c0-0.3-0.1-0.5-0.4-0.7
		l-8.3-4.8c-0.2-0.1-0.5-0.1-0.8,0l-1.8,1l8.6,4.9c0.2,0.1,0.4,0.4,0.4,0.6L674.1,182.8z M667.4,190.9c-0.9,0-1.8-0.2-2.6-0.7
		l-8.3-4.8c-1.6-0.9-2.6-2.6-2.6-4.4v-9.6c0-1.8,1-3.5,2.6-4.4l8.3-4.8c1.6-0.9,3.5-0.9,5.1,0l8.3,4.8c1.6,0.9,2.6,2.6,2.6,4.4v9.6
		c0,1.8-1,3.5-2.6,4.4l-8.3,4.8C669.2,190.7,668.3,190.9,667.4,190.9"/>
	<path class="st1" d="M708.5,21.9c0-0.3-0.1-0.5-0.4-0.6l-8.2-4.9l-3.3,1.9c-0.2,0.1-0.4,0.4-0.4,0.7v9.6c0,0.3,0.2,0.5,0.4,0.7
		L705,34c0.2,0.1,0.5,0.1,0.8,0l2.8-1.6L708.5,21.9z M712.1,30.3l2-1.1c0.2-0.1,0.4-0.4,0.4-0.7V19c0-0.3-0.1-0.5-0.4-0.7l-8.3-4.8
		c-0.2-0.1-0.5-0.1-0.8,0l-1.8,1l8.6,4.9c0.2,0.1,0.4,0.4,0.4,0.6L712.1,30.3z M705.4,38.4c-0.9,0-1.8-0.2-2.6-0.7l-8.3-4.8
		c-1.6-0.9-2.6-2.6-2.6-4.4V19c0-1.8,1-3.5,2.6-4.4l8.3-4.8c1.6-0.9,3.5-0.9,5.1,0l8.3,4.8c1.6,0.9,2.6,2.6,2.6,4.4v9.6
		c0,1.8-1,3.5-2.6,4.4l-8.3,4.8C707.1,38.2,706.2,38.4,705.4,38.4"/>
	<path class="st1" d="M708.5,60c0-0.3-0.1-0.5-0.4-0.6l-8.2-4.9l-3.3,1.9c-0.2,0.1-0.4,0.4-0.4,0.7v9.6c0,0.3,0.2,0.5,0.4,0.7
		l8.3,4.8c0.2,0.1,0.5,0.1,0.8,0l2.8-1.6L708.5,60z M712.1,68.4l2-1.1c0.2-0.1,0.4-0.4,0.4-0.7v-9.6c0-0.3-0.1-0.5-0.4-0.7l-8.3-4.8
		c-0.2-0.1-0.5-0.1-0.8,0l-1.8,1l8.6,4.9c0.2,0.1,0.4,0.4,0.4,0.6L712.1,68.4z M705.4,76.5c-0.9,0-1.8-0.2-2.6-0.7l-8.3-4.8
		c-1.6-0.9-2.6-2.6-2.6-4.4v-9.6c0-1.8,1-3.5,2.6-4.4l8.3-4.8c1.6-0.9,3.5-0.9,5.1,0l8.3,4.8c1.6,0.9,2.6,2.6,2.6,4.4v9.6
		c0,1.8-1,3.5-2.6,4.4l-8.3,4.8C707.1,76.3,706.2,76.5,705.4,76.5"/>
	<path class="st1" d="M708.5,98.2c0-0.3-0.1-0.5-0.4-0.6l-8.2-4.9l-3.3,1.9c-0.2,0.1-0.4,0.4-0.4,0.7v9.6c0,0.3,0.2,0.5,0.4,0.7
		l8.3,4.8c0.2,0.1,0.5,0.1,0.8,0l2.8-1.6L708.5,98.2z M712.1,106.6l2-1.1c0.2-0.1,0.4-0.4,0.4-0.7v-9.6c0-0.3-0.1-0.5-0.4-0.7
		l-8.3-4.8c-0.2-0.1-0.5-0.1-0.8,0l-1.8,1l8.6,4.9c0.2,0.1,0.4,0.4,0.4,0.6L712.1,106.6z M705.4,114.7c-0.9,0-1.8-0.2-2.6-0.7
		l-8.3-4.8c-1.6-0.9-2.6-2.6-2.6-4.4v-9.6c0-1.8,1-3.5,2.6-4.4l8.3-4.8c1.6-0.9,3.5-0.9,5.1,0l8.3,4.8c1.6,0.9,2.6,2.6,2.6,4.4v9.6
		c0,1.8-1,3.5-2.6,4.4l-8.3,4.8C707.1,114.4,706.2,114.7,705.4,114.7"/>
	<path class="st1" d="M708.5,136.3c0-0.3-0.1-0.5-0.4-0.6l-8.2-4.9l-3.3,1.9c-0.2,0.1-0.4,0.4-0.4,0.7v9.6c0,0.3,0.2,0.5,0.4,0.7
		l8.3,4.8c0.2,0.1,0.5,0.1,0.8,0l2.8-1.6L708.5,136.3z M712.1,144.7l2-1.1c0.2-0.1,0.4-0.4,0.4-0.7v-9.6c0-0.3-0.1-0.5-0.4-0.7
		l-8.3-4.8c-0.2-0.1-0.5-0.1-0.8,0l-1.8,1l8.6,4.9c0.2,0.1,0.4,0.4,0.4,0.6L712.1,144.7z M705.4,152.8c-0.9,0-1.8-0.2-2.6-0.7
		l-8.3-4.8c-1.6-0.9-2.6-2.6-2.6-4.4v-9.6c0-1.8,1-3.5,2.6-4.4l8.3-4.8c1.6-0.9,3.5-0.9,5.1,0l8.3,4.8c1.6,0.9,2.6,2.6,2.6,4.4v9.6
		c0,1.8-1,3.5-2.6,4.4l-8.3,4.8C707.1,152.6,706.2,152.8,705.4,152.8"/>
	<path class="st1" d="M708.5,174.4c0-0.3-0.1-0.5-0.4-0.6l-8.2-4.9l-3.3,1.9c-0.2,0.1-0.4,0.4-0.4,0.7v9.6c0,0.3,0.2,0.5,0.4,0.7
		l8.3,4.8c0.2,0.1,0.5,0.1,0.8,0l2.8-1.6L708.5,174.4z M712.1,182.8l2-1.1c0.2-0.1,0.4-0.4,0.4-0.7v-9.6c0-0.3-0.1-0.5-0.4-0.7
		l-8.3-4.8c-0.2-0.1-0.5-0.1-0.8,0l-1.8,1l8.6,4.9c0.2,0.1,0.4,0.4,0.4,0.6L712.1,182.8z M705.4,190.9c-0.9,0-1.8-0.2-2.6-0.7
		l-8.3-4.8c-1.6-0.9-2.6-2.6-2.6-4.4v-9.6c0-1.8,1-3.5,2.6-4.4l8.3-4.8c1.6-0.9,3.5-0.9,5.1,0l8.3,4.8c1.6,0.9,2.6,2.6,2.6,4.4v9.6
		c0,1.8-1,3.5-2.6,4.4l-8.3,4.8C707.1,190.7,706.2,190.9,705.4,190.9"/>
	<path class="st1" d="M746.5,21.9c0-0.3-0.1-0.5-0.4-0.6l-8.2-4.9l-3.3,1.9c-0.2,0.1-0.4,0.4-0.4,0.7v9.6c0,0.3,0.2,0.5,0.4,0.7
		l8.3,4.8c0.2,0.1,0.5,0.1,0.8,0l2.8-1.6L746.5,21.9z M750.1,30.3l2-1.1c0.2-0.1,0.4-0.4,0.4-0.7V19c0-0.3-0.1-0.5-0.4-0.7l-8.3-4.8
		c-0.2-0.1-0.5-0.1-0.8,0l-1.8,1l8.6,4.9c0.2,0.1,0.4,0.4,0.4,0.6L750.1,30.3z M743.3,38.4c-0.9,0-1.8-0.2-2.6-0.7l-8.3-4.8
		c-1.6-0.9-2.6-2.6-2.6-4.4V19c0-1.8,1-3.5,2.6-4.4l8.3-4.8c1.6-0.9,3.5-0.9,5.1,0l8.3,4.8c1.6,0.9,2.6,2.6,2.6,4.4v9.6
		c0,1.8-1,3.5-2.6,4.4l-8.3,4.8C745.1,38.2,744.2,38.4,743.3,38.4"/>
	<path class="st1" d="M746.5,60c0-0.3-0.1-0.5-0.4-0.6l-8.2-4.9l-3.3,1.9c-0.2,0.1-0.4,0.4-0.4,0.7v9.6c0,0.3,0.2,0.5,0.4,0.7
		l8.3,4.8c0.2,0.1,0.5,0.1,0.8,0l2.8-1.6L746.5,60z M750.1,68.4l2-1.1c0.2-0.1,0.4-0.4,0.4-0.7v-9.6c0-0.3-0.1-0.5-0.4-0.7l-8.3-4.8
		c-0.2-0.1-0.5-0.1-0.8,0l-1.8,1l8.6,4.9c0.2,0.1,0.4,0.4,0.4,0.6L750.1,68.4z M743.3,76.5c-0.9,0-1.8-0.2-2.6-0.7l-8.3-4.8
		c-1.6-0.9-2.6-2.6-2.6-4.4v-9.6c0-1.8,1-3.5,2.6-4.4l8.3-4.8c1.6-0.9,3.5-0.9,5.1,0l8.3,4.8c1.6,0.9,2.6,2.6,2.6,4.4v9.6
		c0,1.8-1,3.5-2.6,4.4l-8.3,4.8C745.1,76.3,744.2,76.5,743.3,76.5"/>
	<path class="st1" d="M746.5,98.2c0-0.3-0.1-0.5-0.4-0.6l-8.2-4.9l-3.3,1.9c-0.2,0.1-0.4,0.4-0.4,0.7v9.6c0,0.3,0.2,0.5,0.4,0.7
		l8.3,4.8c0.2,0.1,0.5,0.1,0.8,0l2.8-1.6L746.5,98.2z M750.1,106.6l2-1.1c0.2-0.1,0.4-0.4,0.4-0.7v-9.6c0-0.3-0.1-0.5-0.4-0.7
		l-8.3-4.8c-0.2-0.1-0.5-0.1-0.8,0l-1.8,1l8.6,4.9c0.2,0.1,0.4,0.4,0.4,0.6L750.1,106.6z M743.3,114.7c-0.9,0-1.8-0.2-2.6-0.7
		l-8.3-4.8c-1.6-0.9-2.6-2.6-2.6-4.4v-9.6c0-1.8,1-3.5,2.6-4.4l8.3-4.8c1.6-0.9,3.5-0.9,5.1,0l8.3,4.8c1.6,0.9,2.6,2.6,2.6,4.4v9.6
		c0,1.8-1,3.5-2.6,4.4l-8.3,4.8C745.1,114.4,744.2,114.7,743.3,114.7"/>
	<path class="st1" d="M746.5,136.3c0-0.3-0.1-0.5-0.4-0.6l-8.2-4.9l-3.3,1.9c-0.2,0.1-0.4,0.4-0.4,0.7v9.6c0,0.3,0.2,0.5,0.4,0.7
		l8.3,4.8c0.2,0.1,0.5,0.1,0.8,0l2.8-1.6L746.5,136.3z M750.1,144.7l2-1.1c0.2-0.1,0.4-0.4,0.4-0.7v-9.6c0-0.3-0.1-0.5-0.4-0.7
		l-8.3-4.8c-0.2-0.1-0.5-0.1-0.8,0l-1.8,1l8.6,4.9c0.2,0.1,0.4,0.4,0.4,0.6L750.1,144.7z M743.3,152.8c-0.9,0-1.8-0.2-2.6-0.7
		l-8.3-4.8c-1.6-0.9-2.6-2.6-2.6-4.4v-9.6c0-1.8,1-3.5,2.6-4.4l8.3-4.8c1.6-0.9,3.5-0.9,5.1,0l8.3,4.8c1.6,0.9,2.6,2.6,2.6,4.4v9.6
		c0,1.8-1,3.5-2.6,4.4l-8.3,4.8C745.1,152.6,744.2,152.8,743.3,152.8"/>
	<path class="st1" d="M746.5,174.4c0-0.3-0.1-0.5-0.4-0.6l-8.2-4.9l-3.3,1.9c-0.2,0.1-0.4,0.4-0.4,0.7v9.6c0,0.3,0.2,0.5,0.4,0.7
		l8.3,4.8c0.2,0.1,0.5,0.1,0.8,0l2.8-1.6L746.5,174.4z M750.1,182.8l2-1.1c0.2-0.1,0.4-0.4,0.4-0.7v-9.6c0-0.3-0.1-0.5-0.4-0.7
		l-8.3-4.8c-0.2-0.1-0.5-0.1-0.8,0l-1.8,1l8.6,4.9c0.2,0.1,0.4,0.4,0.4,0.6L750.1,182.8z M743.3,190.9c-0.9,0-1.8-0.2-2.6-0.7
		l-8.3-4.8c-1.6-0.9-2.6-2.6-2.6-4.4v-9.6c0-1.8,1-3.5,2.6-4.4l8.3-4.8c1.6-0.9,3.5-0.9,5.1,0l8.3,4.8c1.6,0.9,2.6,2.6,2.6,4.4v9.6
		c0,1.8-1,3.5-2.6,4.4l-8.3,4.8C745.1,190.7,744.2,190.9,743.3,190.9"/>
	<path class="st1" d="M784.5,21.9c0-0.3-0.1-0.5-0.4-0.6l-8.2-4.9l-3.3,1.9c-0.2,0.1-0.4,0.4-0.4,0.7v9.6c0,0.3,0.2,0.5,0.4,0.7
		l8.3,4.8c0.2,0.1,0.5,0.1,0.8,0l2.8-1.6L784.5,21.9z M788.1,30.3l2-1.1c0.2-0.1,0.4-0.4,0.4-0.7V19c0-0.3-0.1-0.5-0.4-0.7l-8.3-4.8
		c-0.2-0.1-0.5-0.1-0.8,0l-1.8,1l8.6,4.9c0.2,0.1,0.4,0.4,0.4,0.6L788.1,30.3z M781.3,38.4c-0.9,0-1.8-0.2-2.6-0.7l-8.3-4.8
		c-1.6-0.9-2.6-2.6-2.6-4.4V19c0-1.8,1-3.5,2.6-4.4l8.3-4.8c1.6-0.9,3.5-0.9,5.1,0l8.3,4.8c1.6,0.9,2.6,2.6,2.6,4.4v9.6
		c0,1.8-1,3.5-2.6,4.4l-8.3,4.8C783.1,38.2,782.2,38.4,781.3,38.4"/>
	<path class="st1" d="M784.5,60c0-0.3-0.1-0.5-0.4-0.6l-8.2-4.9l-3.3,1.9c-0.2,0.1-0.4,0.4-0.4,0.7v9.6c0,0.3,0.2,0.5,0.4,0.7
		l8.3,4.8c0.2,0.1,0.5,0.1,0.8,0l2.8-1.6L784.5,60z M788.1,68.4l2-1.1c0.2-0.1,0.4-0.4,0.4-0.7v-9.6c0-0.3-0.1-0.5-0.4-0.7l-8.3-4.8
		c-0.2-0.1-0.5-0.1-0.8,0l-1.8,1l8.6,4.9c0.2,0.1,0.4,0.4,0.4,0.6L788.1,68.4z M781.3,76.5c-0.9,0-1.8-0.2-2.6-0.7l-8.3-4.8
		c-1.6-0.9-2.6-2.6-2.6-4.4v-9.6c0-1.8,1-3.5,2.6-4.4l8.3-4.8c1.6-0.9,3.5-0.9,5.1,0l8.3,4.8c1.6,0.9,2.6,2.6,2.6,4.4v9.6
		c0,1.8-1,3.5-2.6,4.4l-8.3,4.8C783.1,76.3,782.2,76.5,781.3,76.5"/>
	<path class="st1" d="M784.5,98.2c0-0.3-0.1-0.5-0.4-0.6l-8.2-4.9l-3.3,1.9c-0.2,0.1-0.4,0.4-0.4,0.7v9.6c0,0.3,0.2,0.5,0.4,0.7
		l8.3,4.8c0.2,0.1,0.5,0.1,0.8,0l2.8-1.6L784.5,98.2z M788.1,106.6l2-1.1c0.2-0.1,0.4-0.4,0.4-0.7v-9.6c0-0.3-0.1-0.5-0.4-0.7
		l-8.3-4.8c-0.2-0.1-0.5-0.1-0.8,0l-1.8,1l8.6,4.9c0.2,0.1,0.4,0.4,0.4,0.6L788.1,106.6z M781.3,114.7c-0.9,0-1.8-0.2-2.6-0.7
		l-8.3-4.8c-1.6-0.9-2.6-2.6-2.6-4.4v-9.6c0-1.8,1-3.5,2.6-4.4l8.3-4.8c1.6-0.9,3.5-0.9,5.1,0l8.3,4.8c1.6,0.9,2.6,2.6,2.6,4.4v9.6
		c0,1.8-1,3.5-2.6,4.4l-8.3,4.8C783.1,114.4,782.2,114.7,781.3,114.7"/>
	<path class="st1" d="M784.5,136.3c0-0.3-0.1-0.5-0.4-0.6l-8.2-4.9l-3.3,1.9c-0.2,0.1-0.4,0.4-0.4,0.7v9.6c0,0.3,0.2,0.5,0.4,0.7
		l8.3,4.8c0.2,0.1,0.5,0.1,0.8,0l2.8-1.6L784.5,136.3z M788.1,144.7l2-1.1c0.2-0.1,0.4-0.4,0.4-0.7v-9.6c0-0.3-0.1-0.5-0.4-0.7
		l-8.3-4.8c-0.2-0.1-0.5-0.1-0.8,0l-1.8,1l8.6,4.9c0.2,0.1,0.4,0.4,0.4,0.6L788.1,144.7z M781.3,152.8c-0.9,0-1.8-0.2-2.6-0.7
		l-8.3-4.8c-1.6-0.9-2.6-2.6-2.6-4.4v-9.6c0-1.8,1-3.5,2.6-4.4l8.3-4.8c1.6-0.9,3.5-0.9,5.1,0l8.3,4.8c1.6,0.9,2.6,2.6,2.6,4.4v9.6
		c0,1.8-1,3.5-2.6,4.4l-8.3,4.8C783.1,152.6,782.2,152.8,781.3,152.8"/>
	<path class="st1" d="M784.5,174.4c0-0.3-0.1-0.5-0.4-0.6l-8.2-4.9l-3.3,1.9c-0.2,0.1-0.4,0.4-0.4,0.7v9.6c0,0.3,0.2,0.5,0.4,0.7
		l8.3,4.8c0.2,0.1,0.5,0.1,0.8,0l2.8-1.6L784.5,174.4z M788.1,182.8l2-1.1c0.2-0.1,0.4-0.4,0.4-0.7v-9.6c0-0.3-0.1-0.5-0.4-0.7
		l-8.3-4.8c-0.2-0.1-0.5-0.1-0.8,0l-1.8,1l8.6,4.9c0.2,0.1,0.4,0.4,0.4,0.6L788.1,182.8z M781.3,190.9c-0.9,0-1.8-0.2-2.6-0.7
		l-8.3-4.8c-1.6-0.9-2.6-2.6-2.6-4.4v-9.6c0-1.8,1-3.5,2.6-4.4l8.3-4.8c1.6-0.9,3.5-0.9,5.1,0l8.3,4.8c1.6,0.9,2.6,2.6,2.6,4.4v9.6
		c0,1.8-1,3.5-2.6,4.4l-8.3,4.8C783.1,190.7,782.2,190.9,781.3,190.9"/>
	<path class="st1" d="M822.4,21.9c0-0.3-0.1-0.5-0.4-0.6l-8.2-4.9l-3.3,1.9c-0.2,0.1-0.4,0.4-0.4,0.7v9.6c0,0.3,0.2,0.5,0.4,0.7
		l8.3,4.8c0.2,0.1,0.5,0.1,0.8,0l2.8-1.6L822.4,21.9z M826,30.3l2-1.1c0.2-0.1,0.4-0.4,0.4-0.7V19c0-0.3-0.1-0.5-0.4-0.7l-8.3-4.8
		c-0.2-0.1-0.5-0.1-0.8,0l-1.8,1l8.6,4.9c0.2,0.1,0.4,0.4,0.4,0.6L826,30.3z M819.3,38.4c-0.9,0-1.8-0.2-2.6-0.7l-8.3-4.8
		c-1.6-0.9-2.6-2.6-2.6-4.4V19c0-1.8,1-3.5,2.6-4.4l8.3-4.8c1.6-0.9,3.5-0.9,5.1,0l8.3,4.8c1.6,0.9,2.6,2.6,2.6,4.4v9.6
		c0,1.8-1,3.5-2.6,4.4l-8.3,4.8C821,38.2,820.2,38.4,819.3,38.4"/>
	<path class="st1" d="M822.4,60c0-0.3-0.1-0.5-0.4-0.6l-8.2-4.9l-3.3,1.9c-0.2,0.1-0.4,0.4-0.4,0.7v9.6c0,0.3,0.2,0.5,0.4,0.7
		l8.3,4.8c0.2,0.1,0.5,0.1,0.8,0l2.8-1.6L822.4,60z M826,68.4l2-1.1c0.2-0.1,0.4-0.4,0.4-0.7v-9.6c0-0.3-0.1-0.5-0.4-0.7l-8.3-4.8
		c-0.2-0.1-0.5-0.1-0.8,0l-1.8,1l8.6,4.9c0.2,0.1,0.4,0.4,0.4,0.6L826,68.4z M819.3,76.5c-0.9,0-1.8-0.2-2.6-0.7l-8.3-4.8
		c-1.6-0.9-2.6-2.6-2.6-4.4v-9.6c0-1.8,1-3.5,2.6-4.4l8.3-4.8c1.6-0.9,3.5-0.9,5.1,0l8.3,4.8c1.6,0.9,2.6,2.6,2.6,4.4v9.6
		c0,1.8-1,3.5-2.6,4.4l-8.3,4.8C821,76.3,820.2,76.5,819.3,76.5"/>
	<path class="st1" d="M822.4,98.2c0-0.3-0.1-0.5-0.4-0.6l-8.2-4.9l-3.3,1.9c-0.2,0.1-0.4,0.4-0.4,0.7v9.6c0,0.3,0.2,0.5,0.4,0.7
		l8.3,4.8c0.2,0.1,0.5,0.1,0.8,0l2.8-1.6L822.4,98.2z M826,106.6l2-1.1c0.2-0.1,0.4-0.4,0.4-0.7v-9.6c0-0.3-0.1-0.5-0.4-0.7
		l-8.3-4.8c-0.2-0.1-0.5-0.1-0.8,0l-1.8,1l8.6,4.9c0.2,0.1,0.4,0.4,0.4,0.6L826,106.6z M819.3,114.7c-0.9,0-1.8-0.2-2.6-0.7
		l-8.3-4.8c-1.6-0.9-2.6-2.6-2.6-4.4v-9.6c0-1.8,1-3.5,2.6-4.4l8.3-4.8c1.6-0.9,3.5-0.9,5.1,0l8.3,4.8c1.6,0.9,2.6,2.6,2.6,4.4v9.6
		c0,1.8-1,3.5-2.6,4.4l-8.3,4.8C821,114.4,820.2,114.7,819.3,114.7"/>
	<path class="st1" d="M822.4,136.3c0-0.3-0.1-0.5-0.4-0.6l-8.2-4.9l-3.3,1.9c-0.2,0.1-0.4,0.4-0.4,0.7v9.6c0,0.3,0.2,0.5,0.4,0.7
		l8.3,4.8c0.2,0.1,0.5,0.1,0.8,0l2.8-1.6L822.4,136.3z M826,144.7l2-1.1c0.2-0.1,0.4-0.4,0.4-0.7v-9.6c0-0.3-0.1-0.5-0.4-0.7
		l-8.3-4.8c-0.2-0.1-0.5-0.1-0.8,0l-1.8,1l8.6,4.9c0.2,0.1,0.4,0.4,0.4,0.6L826,144.7z M819.3,152.8c-0.9,0-1.8-0.2-2.6-0.7
		l-8.3-4.8c-1.6-0.9-2.6-2.6-2.6-4.4v-9.6c0-1.8,1-3.5,2.6-4.4l8.3-4.8c1.6-0.9,3.5-0.9,5.1,0l8.3,4.8c1.6,0.9,2.6,2.6,2.6,4.4v9.6
		c0,1.8-1,3.5-2.6,4.4l-8.3,4.8C821,152.6,820.2,152.8,819.3,152.8"/>
	<path class="st1" d="M822.4,174.4c0-0.3-0.1-0.5-0.4-0.6l-8.2-4.9l-3.3,1.9c-0.2,0.1-0.4,0.4-0.4,0.7v9.6c0,0.3,0.2,0.5,0.4,0.7
		l8.3,4.8c0.2,0.1,0.5,0.1,0.8,0l2.8-1.6L822.4,174.4z M826,182.8l2-1.1c0.2-0.1,0.4-0.4,0.4-0.7v-9.6c0-0.3-0.1-0.5-0.4-0.7
		l-8.3-4.8c-0.2-0.1-0.5-0.1-0.8,0l-1.8,1l8.6,4.9c0.2,0.1,0.4,0.4,0.4,0.6L826,182.8z M819.3,190.9c-0.9,0-1.8-0.2-2.6-0.7
		l-8.3-4.8c-1.6-0.9-2.6-2.6-2.6-4.4v-9.6c0-1.8,1-3.5,2.6-4.4l8.3-4.8c1.6-0.9,3.5-0.9,5.1,0l8.3,4.8c1.6,0.9,2.6,2.6,2.6,4.4v9.6
		c0,1.8-1,3.5-2.6,4.4l-8.3,4.8C821,190.7,820.2,190.9,819.3,190.9"/>
	<path class="st1" d="M860.4,21.9c0-0.3-0.1-0.5-0.4-0.6l-8.2-4.9l-3.3,1.9c-0.2,0.1-0.4,0.4-0.4,0.7v9.6c0,0.3,0.2,0.5,0.4,0.7
		l8.3,4.8c0.2,0.1,0.5,0.1,0.8,0l2.8-1.6L860.4,21.9z M864,30.3l2-1.1c0.2-0.1,0.4-0.4,0.4-0.7V19c0-0.3-0.1-0.5-0.4-0.7l-8.3-4.8
		c-0.2-0.1-0.5-0.1-0.8,0l-1.8,1l8.6,4.9c0.2,0.1,0.4,0.4,0.4,0.6L864,30.3z M857.2,38.4c-0.9,0-1.8-0.2-2.6-0.7l-8.3-4.8
		c-1.6-0.9-2.6-2.6-2.6-4.4V19c0-1.8,1-3.5,2.6-4.4l8.3-4.8c1.6-0.9,3.5-0.9,5.1,0l8.3,4.8c1.6,0.9,2.6,2.6,2.6,4.4v9.6
		c0,1.8-1,3.5-2.6,4.4l-8.3,4.8C859,38.2,858.1,38.4,857.2,38.4"/>
	<path class="st1" d="M860.4,60c0-0.3-0.1-0.5-0.4-0.6l-8.2-4.9l-3.3,1.9c-0.2,0.1-0.4,0.4-0.4,0.7v9.6c0,0.3,0.2,0.5,0.4,0.7
		l8.3,4.8c0.2,0.1,0.5,0.1,0.8,0l2.8-1.6L860.4,60z M864,68.4l2-1.1c0.2-0.1,0.4-0.4,0.4-0.7v-9.6c0-0.3-0.1-0.5-0.4-0.7l-8.3-4.8
		c-0.2-0.1-0.5-0.1-0.8,0l-1.8,1l8.6,4.9c0.2,0.1,0.4,0.4,0.4,0.6L864,68.4z M857.2,76.5c-0.9,0-1.8-0.2-2.6-0.7l-8.3-4.8
		c-1.6-0.9-2.6-2.6-2.6-4.4v-9.6c0-1.8,1-3.5,2.6-4.4l8.3-4.8c1.6-0.9,3.5-0.9,5.1,0l8.3,4.8c1.6,0.9,2.6,2.6,2.6,4.4v9.6
		c0,1.8-1,3.5-2.6,4.4l-8.3,4.8C859,76.3,858.1,76.5,857.2,76.5"/>
	<path class="st1" d="M860.4,98.2c0-0.3-0.1-0.5-0.4-0.6l-8.2-4.9l-3.3,1.9c-0.2,0.1-0.4,0.4-0.4,0.7v9.6c0,0.3,0.2,0.5,0.4,0.7
		l8.3,4.8c0.2,0.1,0.5,0.1,0.8,0l2.8-1.6L860.4,98.2z M864,106.6l2-1.1c0.2-0.1,0.4-0.4,0.4-0.7v-9.6c0-0.3-0.1-0.5-0.4-0.7
		l-8.3-4.8c-0.2-0.1-0.5-0.1-0.8,0l-1.8,1l8.6,4.9c0.2,0.1,0.4,0.4,0.4,0.6L864,106.6z M857.2,114.7c-0.9,0-1.8-0.2-2.6-0.7
		l-8.3-4.8c-1.6-0.9-2.6-2.6-2.6-4.4v-9.6c0-1.8,1-3.5,2.6-4.4l8.3-4.8c1.6-0.9,3.5-0.9,5.1,0l8.3,4.8c1.6,0.9,2.6,2.6,2.6,4.4v9.6
		c0,1.8-1,3.5-2.6,4.4l-8.3,4.8C859,114.4,858.1,114.7,857.2,114.7"/>
	<path class="st1" d="M860.4,136.3c0-0.3-0.1-0.5-0.4-0.6l-8.2-4.9l-3.3,1.9c-0.2,0.1-0.4,0.4-0.4,0.7v9.6c0,0.3,0.2,0.5,0.4,0.7
		l8.3,4.8c0.2,0.1,0.5,0.1,0.8,0l2.8-1.6L860.4,136.3z M864,144.7l2-1.1c0.2-0.1,0.4-0.4,0.4-0.7v-9.6c0-0.3-0.1-0.5-0.4-0.7
		l-8.3-4.8c-0.2-0.1-0.5-0.1-0.8,0l-1.8,1l8.6,4.9c0.2,0.1,0.4,0.4,0.4,0.6L864,144.7z M857.2,152.8c-0.9,0-1.8-0.2-2.6-0.7
		l-8.3-4.8c-1.6-0.9-2.6-2.6-2.6-4.4v-9.6c0-1.8,1-3.5,2.6-4.4l8.3-4.8c1.6-0.9,3.5-0.9,5.1,0l8.3,4.8c1.6,0.9,2.6,2.6,2.6,4.4v9.6
		c0,1.8-1,3.5-2.6,4.4l-8.3,4.8C859,152.6,858.1,152.8,857.2,152.8"/>
	<path class="st1" d="M860.4,174.4c0-0.3-0.1-0.5-0.4-0.6l-8.2-4.9l-3.3,1.9c-0.2,0.1-0.4,0.4-0.4,0.7v9.6c0,0.3,0.2,0.5,0.4,0.7
		l8.3,4.8c0.2,0.1,0.5,0.1,0.8,0l2.8-1.6L860.4,174.4z M864,182.8l2-1.1c0.2-0.1,0.4-0.4,0.4-0.7v-9.6c0-0.3-0.1-0.5-0.4-0.7
		l-8.3-4.8c-0.2-0.1-0.5-0.1-0.8,0l-1.8,1l8.6,4.9c0.2,0.1,0.4,0.4,0.4,0.6L864,182.8z M857.2,190.9c-0.9,0-1.8-0.2-2.6-0.7
		l-8.3-4.8c-1.6-0.9-2.6-2.6-2.6-4.4v-9.6c0-1.8,1-3.5,2.6-4.4l8.3-4.8c1.6-0.9,3.5-0.9,5.1,0l8.3,4.8c1.6,0.9,2.6,2.6,2.6,4.4v9.6
		c0,1.8-1,3.5-2.6,4.4l-8.3,4.8C859,190.7,858.1,190.9,857.2,190.9"/>
	<path class="st1" d="M898.4,21.9c0-0.3-0.1-0.5-0.4-0.6l-8.2-4.9l-3.3,1.9c-0.2,0.1-0.4,0.4-0.4,0.7v9.6c0,0.3,0.2,0.5,0.4,0.7
		l8.3,4.8c0.2,0.1,0.5,0.1,0.8,0l2.8-1.6L898.4,21.9z M902,30.3l2-1.1c0.2-0.1,0.4-0.4,0.4-0.7V19c0-0.3-0.1-0.5-0.4-0.7l-8.3-4.8
		c-0.2-0.1-0.5-0.1-0.8,0l-1.8,1l8.6,4.9c0.2,0.1,0.4,0.4,0.4,0.6L902,30.3z M895.2,38.4c-0.9,0-1.8-0.2-2.6-0.7l-8.3-4.8
		c-1.6-0.9-2.6-2.6-2.6-4.4V19c0-1.8,1-3.5,2.6-4.4l8.3-4.8c1.6-0.9,3.5-0.9,5.1,0l8.3,4.8c1.6,0.9,2.6,2.6,2.6,4.4v9.6
		c0,1.8-1,3.5-2.6,4.4l-8.3,4.8C897,38.2,896.1,38.4,895.2,38.4"/>
	<path class="st1" d="M898.4,60c0-0.3-0.1-0.5-0.4-0.6l-8.2-4.9l-3.3,1.9c-0.2,0.1-0.4,0.4-0.4,0.7v9.6c0,0.3,0.2,0.5,0.4,0.7
		l8.3,4.8c0.2,0.1,0.5,0.1,0.8,0l2.8-1.6L898.4,60z M902,68.4l2-1.1c0.2-0.1,0.4-0.4,0.4-0.7v-9.6c0-0.3-0.1-0.5-0.4-0.7l-8.3-4.8
		c-0.2-0.1-0.5-0.1-0.8,0l-1.8,1l8.6,4.9c0.2,0.1,0.4,0.4,0.4,0.6L902,68.4z M895.2,76.5c-0.9,0-1.8-0.2-2.6-0.7l-8.3-4.8
		c-1.6-0.9-2.6-2.6-2.6-4.4v-9.6c0-1.8,1-3.5,2.6-4.4l8.3-4.8c1.6-0.9,3.5-0.9,5.1,0l8.3,4.8c1.6,0.9,2.6,2.6,2.6,4.4v9.6
		c0,1.8-1,3.5-2.6,4.4l-8.3,4.8C897,76.3,896.1,76.5,895.2,76.5"/>
	<path class="st1" d="M898.4,98.2c0-0.3-0.1-0.5-0.4-0.6l-8.2-4.9l-3.3,1.9c-0.2,0.1-0.4,0.4-0.4,0.7v9.6c0,0.3,0.2,0.5,0.4,0.7
		l8.3,4.8c0.2,0.1,0.5,0.1,0.8,0l2.8-1.6L898.4,98.2z M902,106.6l2-1.1c0.2-0.1,0.4-0.4,0.4-0.7v-9.6c0-0.3-0.1-0.5-0.4-0.7
		l-8.3-4.8c-0.2-0.1-0.5-0.1-0.8,0l-1.8,1l8.6,4.9c0.2,0.1,0.4,0.4,0.4,0.6L902,106.6z M895.2,114.7c-0.9,0-1.8-0.2-2.6-0.7
		l-8.3-4.8c-1.6-0.9-2.6-2.6-2.6-4.4v-9.6c0-1.8,1-3.5,2.6-4.4l8.3-4.8c1.6-0.9,3.5-0.9,5.1,0l8.3,4.8c1.6,0.9,2.6,2.6,2.6,4.4v9.6
		c0,1.8-1,3.5-2.6,4.4l-8.3,4.8C897,114.4,896.1,114.7,895.2,114.7"/>
	<path class="st1" d="M898.4,136.3c0-0.3-0.1-0.5-0.4-0.6l-8.2-4.9l-3.3,1.9c-0.2,0.1-0.4,0.4-0.4,0.7v9.6c0,0.3,0.2,0.5,0.4,0.7
		l8.3,4.8c0.2,0.1,0.5,0.1,0.8,0l2.8-1.6L898.4,136.3z M902,144.7l2-1.1c0.2-0.1,0.4-0.4,0.4-0.7v-9.6c0-0.3-0.1-0.5-0.4-0.7
		l-8.3-4.8c-0.2-0.1-0.5-0.1-0.8,0l-1.8,1l8.6,4.9c0.2,0.1,0.4,0.4,0.4,0.6L902,144.7z M895.2,152.8c-0.9,0-1.8-0.2-2.6-0.7
		l-8.3-4.8c-1.6-0.9-2.6-2.6-2.6-4.4v-9.6c0-1.8,1-3.5,2.6-4.4l8.3-4.8c1.6-0.9,3.5-0.9,5.1,0l8.3,4.8c1.6,0.9,2.6,2.6,2.6,4.4v9.6
		c0,1.8-1,3.5-2.6,4.4l-8.3,4.8C897,152.6,896.1,152.8,895.2,152.8"/>
	<path class="st1" d="M898.4,174.4c0-0.3-0.1-0.5-0.4-0.6l-8.2-4.9l-3.3,1.9c-0.2,0.1-0.4,0.4-0.4,0.7v9.6c0,0.3,0.2,0.5,0.4,0.7
		l8.3,4.8c0.2,0.1,0.5,0.1,0.8,0l2.8-1.6L898.4,174.4z M902,182.8l2-1.1c0.2-0.1,0.4-0.4,0.4-0.7v-9.6c0-0.3-0.1-0.5-0.4-0.7
		l-8.3-4.8c-0.2-0.1-0.5-0.1-0.8,0l-1.8,1l8.6,4.9c0.2,0.1,0.4,0.4,0.4,0.6L902,182.8z M895.2,190.9c-0.9,0-1.8-0.2-2.6-0.7
		l-8.3-4.8c-1.6-0.9-2.6-2.6-2.6-4.4v-9.6c0-1.8,1-3.5,2.6-4.4l8.3-4.8c1.6-0.9,3.5-0.9,5.1,0l8.3,4.8c1.6,0.9,2.6,2.6,2.6,4.4v9.6
		c0,1.8-1,3.5-2.6,4.4l-8.3,4.8C897,190.7,896.1,190.9,895.2,190.9"/>
</g>
</svg>
