<?xml version="1.0" encoding="utf-8"?>
<!-- Generator: Adobe Illustrator 21.1.0, SVG Export Plug-In . SVG Version: 6.00 Build 0)  -->
<svg version="1.1" id="Capa_1" xmlns="http://www.w3.org/2000/svg" xmlns:xlink="http://www.w3.org/1999/xlink" x="0px" y="0px"
	 viewBox="0 0 40 40" style="enable-background:new 0 0 40 40;" xml:space="preserve">
<style type="text/css">
	.st0{fill:#F06441;}
</style>
<g>
	<path class="st0" d="M39.1,34.8l-8.2-8.2c2-2.9,3-6.1,3-9.6c0-2.3-0.4-4.5-1.3-6.6c-0.9-2.1-2.1-3.9-3.6-5.4s-3.3-2.7-5.4-3.6
		C21.4,0.4,19.2,0,16.9,0c-2.3,0-4.5,0.4-6.6,1.3C8.3,2.2,6.5,3.4,4.9,4.9c-1.5,1.5-2.7,3.3-3.6,5.4C0.4,12.4,0,14.6,0,16.9
		c0,2.3,0.4,4.5,1.3,6.6c0.9,2.1,2.1,3.9,3.6,5.4c1.5,1.5,3.3,2.7,5.4,3.6c2.1,0.9,4.3,1.3,6.6,1.3c3.5,0,6.7-1,9.6-3l8.2,8.2
		c0.6,0.6,1.3,0.9,2.2,0.9c0.8,0,1.6-0.3,2.2-0.9c0.6-0.6,0.9-1.3,0.9-2.2C40,36.1,39.7,35.4,39.1,34.8z M24.5,24.5
		c-2.1,2.1-4.6,3.2-7.6,3.2c-3,0-5.5-1.1-7.6-3.2c-2.1-2.1-3.2-4.6-3.2-7.6c0-3,1.1-5.5,3.2-7.6c2.1-2.1,4.6-3.2,7.6-3.2
		c3,0,5.5,1.1,7.6,3.2c2.1,2.1,3.2,4.6,3.2,7.6C27.7,19.9,26.6,22.4,24.5,24.5z"/>
</g>
</svg>
