<?xml version="1.0" encoding="utf-8"?>
<!-- Generator: Adobe Illustrator 21.1.0, SVG Export Plug-In . SVG Version: 6.00 Build 0)  -->
<svg version="1.1" id="Capa_1" xmlns="http://www.w3.org/2000/svg" xmlns:xlink="http://www.w3.org/1999/xlink" x="0px" y="0px"
	 viewBox="0 0 482.6 482.6" style="enable-background:new 0 0 482.6 482.6;" xml:space="preserve">
<style type="text/css">
	.st0{fill:#FF0132;}
	.st1{fill:#FFFFFF;}
</style>
<path class="st0" d="M453.6,264c-9.6-13.6-9.6-31.8,0-45.4l11.9-17c15.1-21.5,5.4-51.5-19.5-60.1l-19.6-6.7
	c-15.7-5.4-26.4-20.1-26.7-36.7l-0.3-20.7c-0.4-26.3-26-44.8-51.1-37.1l-19.9,6c-15.9,4.9-33.2-0.7-43.2-14l-12.5-16.6
	c-15.8-21-47.4-21-63.2,0l-12.3,16.6c-10,13.3-27.3,18.9-43.2,14l-19.8-6c-25.1-7.7-50.7,10.8-51.1,37.1l-0.3,20.7
	c-0.3,16.6-10.9,31.3-26.7,36.7l-19.6,6.7C11.7,150,2,180,17.1,201.6l11.9,17c9.6,13.6,9.6,31.8,0,45.4l-11.9,17
	c-15.1,21.5-5.4,51.5,19.5,60.1l19.6,6.7c15.7,5.4,26.4,20.1,26.7,36.7l0.3,20.7c0.4,26.3,26,44.8,51.1,37.1l19.8-6.1
	c15.9-4.9,33.2,0.7,43.2,14l12.5,16.6c15.8,21,47.4,21,63.2,0l12.3-16.5c10-13.3,27.3-18.9,43.2-14l19.8,6
	c25.1,7.7,50.7-10.8,51.1-37.1l0.3-20.7c0.3-16.6,10.9-31.3,26.7-36.7l19.6-6.7c24.9-8.5,34.6-38.5,19.5-60.1L453.6,264z"/>
<g>
	<path class="st1" d="M227.1,133.5c2.4,0,9.7,0,9.7,9.4c0,8.1-3.5,10.5-9.7,10.5H134c-2.4,0-9.7,0-9.7-9.3c0-8.3,3.5-10.6,9.7-10.6
		h36.1v-10.7c0-3.1,0.2-9.7,9.6-9.7c8.6,0,11.2,3.1,11.2,9.7v10.7L227.1,133.5L227.1,133.5z M170.1,169.6c0,8.6-10.6,32.1-21.7,45.8
		c-5.8,7.2-7.9,8.3-11.1,8.3c-5.4,0-11.7-5.9-11.7-11.2c0-3.5,1.7-5.7,3.9-8.3c13.6-15,16.9-23.9,21.1-35.5c2-5.3,3.7-7.9,8.4-7.9
		C162.8,160.7,170.1,162.5,170.1,169.6z M202.4,160.3c5.8,0,7.3,4.4,8.4,7.3c2.6,7,7.7,20.7,17.8,32.7c7.6,9.1,7.9,9.4,7.9,12.6
		c0,5.1-5.9,11.1-11.8,11.1c-3.8,0-6.4-1.5-11.7-8.4c-11.6-14.8-21.8-39.7-21.8-47.4C191.2,162.5,197.8,160.3,202.4,160.3z"/>
	<path class="st1" d="M280.3,190.2c-1.1,10.5-2.2,17.1-5.7,24.9c-4,9.3-7.1,10.9-11.8,10.9c-6.3,0-12.4-4.1-12.4-9.4
		c0-2.7,0.9-4.6,3.3-8.6c3.8-6.5,8.6-14.8,8.6-41.1V133c0-13,6.3-16.4,16.3-16.4h54c10.2,0,16.4,3.4,16.4,16.4v75.3
		c0,16.7-9.3,16.7-26,16.7c-3.7,0-11.2,0-13.9-0.9c-5.2-1.7-6.3-6.6-6.3-10c0-9.8,6.5-9.8,9.6-9.8c1.7,0,8.9,0.4,10.3,0.4
		c3.8,0,6-0.2,6-3.5v-10.9h-48.4V190.2z M328.7,144.8v-5.2c0-2.1-1.2-3.3-3.3-3.3h-40.2c-2.2,0-3.3,1.3-3.3,3.3v5.2H328.7z
		 M281.9,162.9v9.1h46.8v-9.1H281.9z"/>
	<path class="st1" d="M145.2,357.9c-4.6,8.9-6.4,11-10.6,11c-3.7,0-10.4-2.7-10.4-9.3c0-3.2,0.7-4.3,6.1-13.3
		c3.1-5.3,5.9-11.6,7.2-14.6c3.5-7.9,4.5-10.2,9.6-10.2c1.5,0,5.3,0.4,7.8,3.4c1.3,1.8,1.5,3.1,1.5,5.9
		C156.4,335.2,146.1,356,145.2,357.9z M133.6,288.1c1.8,0,4,0.4,13.1,6.5c7.1,4.8,8.9,6.4,8.9,10.4c0,4.6-4.3,10.6-10,10.6
		c-2,0-2.8-0.6-10.2-5.9c-1.4-0.9-8.1-5.4-9.3-6.6c-1.3-1.3-1.8-3.2-1.8-5.1c0-4.4,3-8.6,7.4-9.8
		C132.6,288.1,133.4,288.1,133.6,288.1z M151.2,264.2c5.3,3.3,7.2,4.5,7.2,8.7c0,4.1-3.7,11.1-9.6,11.1c-2.4,0-3.9-0.9-11.3-5.7
		c-1.3-0.8-7.3-4.4-8.4-5.1c-2-1.4-2.8-3.4-2.8-5.8c0-2.6,2.5-10.4,10.4-10.4C138.8,257.2,146.3,261.2,151.2,264.2z M206.5,289H228
		c2.1,0,9.4,0,9.4,8.3c0,6.5-3,9.3-9.4,9.3h-21.5v11.5h10c9.3,0,14.8,3.2,14.8,14.6v20.7c0,11.6-5.4,14.8-14.8,14.8h-39.7
		c-9.3,0-14.6-3.2-14.6-14.8v-20.7c0-11.5,5.3-14.6,14.6-14.6h9.4v-11.5h-21.1c-2.1,0-9.4,0-9.4-8.4c0-6.5,2.8-9.2,9.4-9.2h21.1
		v-10.4c-5.7,0.2-11.5,0.4-17.2,0.4c-3.7,0-10.4,0-10.4-9.6c0-7.6,5.4-8.3,8.5-8.3c11.1-0.2,32.1-0.7,42.6-2.1
		c12-1.5,13.2-1.8,15.1-1.8c8.3,0,8.3,8.6,8.3,9.4c0,6.5-3.9,7.6-6.6,8.3c-3.3,0.8-11.5,1.5-20.1,2.2L206.5,289L206.5,289z
		 M211.4,337.9c0-1.8-0.9-2.8-2.7-2.8h-24c-1.7,0-2.7,1.1-2.7,2.7v10.3c0,1.7,0.9,2.7,2.7,2.7h24c1.7,0,2.7-1.1,2.7-2.7V337.9z"/>
	<path class="st1" d="M318.1,266.1c0-4.4,1.1-9.4,8.5-9.4c6.6,0,10,1.8,10,9.4v12.5h4.3c6.3,0,13.8,0,16.4,7.1
		c0.9,2.7,1.2,5.1,1.2,13.2c0,12.5-0.5,49-3.8,59.9c-2.8,9.6-8.1,10.6-18.9,10.6c-5.6,0-7.2-0.7-8.3-1.4c-1.9-1.2-4-4.1-4-8.7
		c-3.4,6.5-5.6,9.8-10.2,9.8c-1.8,0-6.1-0.6-9.6-4.6c-4.6,0.5-35.3,2.7-47.9,2.7c-3.4,0-8.4,0-8.4-7.4c0-7.2,4.5-7.6,7.2-7.7
		c2.8-0.2,15.1-0.4,17.6-0.5v-4.8h-15.1c-1.9,0-7.3,0-7.3-6.3c0-6.4,5.3-6.4,7.3-6.4h15.1V331h-6c-13.2,0-15.5-2.2-15.5-15.2V307
		c0-13,2.2-15.2,15.5-15.2h6v-3.1h-16.4c-1.9,0-7.8,0-7.8-6.6s5.9-6.6,7.8-6.6h16.4v-2.8c-8.7,0.1-14.6,0.2-17.8-0.1
		c-4.6-0.5-4.7-5.2-4.7-6.5c0-6.3,4.8-6.3,8-6.3c12.4-0.1,26.1-0.8,33.2-1.4c2.1-0.2,12.2-1.2,13.5-1.2c5.6,0,6.3,4.6,6.3,7.2
		c0,5.8-3.4,6.4-5.8,6.7c-2,0.4-8.5,0.8-15.4,1.1v3.3h15.7c4.3,0,5.8,0.9,7.1,3.5c1.1-0.2,1.5-0.4,3.5-0.4h2.2L318.1,266.1
		L318.1,266.1z M272.2,306.8v-5.2h-4c-1.2,0-1.8,0.7-1.8,1.9v3.3L272.2,306.8L272.2,306.8z M272.2,315.3h-5.8v3.4
		c0,1.1,0.6,1.8,1.8,1.8h4V315.3z M303.1,334.2c5.1,0,7.3,1.8,7.3,6.5c0,0.9-0.1,1.4-0.2,2c3.4-7.6,5.3-15.1,6.4-23.1
		c0.8-6.5,1.5-14.2,1.5-21.5h-2.2c-5.2,0-8.1-1.9-8.3-9.4c-0.6,0-1.3,0.1-2.4,0.1h-15.7v3.1h6c13.1,0,15.4,2.2,15.4,15.2v8.9
		c0,13.1-2.2,15.2-15.4,15.2h-6v3.1h13.6V334.2z M289.5,306.8h5.9v-3.3c0-1.2-0.6-1.9-1.8-1.9h-4.1V306.8z M289.5,315.3v5.2h4.1
		c1.2,0,1.8-0.7,1.8-1.8v-3.4L289.5,315.3L289.5,315.3z M289.5,350.9c2.7-0.1,15.5-0.7,16.8-0.7c0.6-1.1,1.4-2.5,3-5.7
		c-0.8,1.1-1.8,2.2-6.1,2.2h-13.6L289.5,350.9L289.5,350.9z M331.3,349.3c0.5,0,2.6,0.1,3.2,0.1c3.4,0,3.9-1.7,4.4-5.1
		c1.2-9.1,2.1-34.5,2.1-44.3c0-2-0.6-2-4.5-2c-0.1,8.3-1.9,25.4-3.2,32.6c-1.8,9.3-4.1,15.5-5.7,19.6
		C328.7,349.6,329.9,349.3,331.3,349.3z"/>
</g>
</svg>
