<?xml version="1.0" encoding="utf-8"?>
<!-- Generator: Adobe Illustrator 21.1.0, SVG Export Plug-In . SVG Version: 6.00 Build 0)  -->
<svg version="1.1" id="Capa_1" xmlns="http://www.w3.org/2000/svg" xmlns:xlink="http://www.w3.org/1999/xlink" x="0px" y="0px"
	 viewBox="0 0 482.6 482.6" style="enable-background:new 0 0 482.6 482.6;" xml:space="preserve">
<style type="text/css">
	.st0{fill:#FF0132;}
	.st1{fill:#FFFFFF;}
</style>
<path class="st0" d="M453.6,264c-9.6-13.6-9.6-31.8,0-45.4l11.9-17c15.1-21.5,5.4-51.5-19.5-60.1l-19.6-6.7
	c-15.7-5.4-26.4-20.1-26.7-36.7l-0.3-20.7c-0.4-26.3-26-44.8-51.1-37.1l-19.9,6c-15.9,4.9-33.2-0.7-43.2-14l-12.5-16.6
	c-15.8-21-47.4-21-63.2,0l-12.3,16.6c-10,13.3-27.3,18.9-43.2,14l-19.8-6c-25.1-7.7-50.7,10.8-51.1,37.1l-0.3,20.7
	c-0.3,16.6-10.9,31.3-26.7,36.7l-19.6,6.7C11.7,150,2,180,17.1,201.6l11.9,17c9.6,13.6,9.6,31.8,0,45.4l-11.9,17
	c-15.1,21.5-5.4,51.5,19.5,60.1l19.6,6.7c15.7,5.4,26.4,20.1,26.7,36.7l0.3,20.7c0.4,26.3,26,44.8,51.1,37.1l19.8-6.1
	c15.9-4.9,33.2,0.7,43.2,14l12.5,16.6c15.8,21,47.4,21,63.2,0l12.3-16.5c10-13.3,27.3-18.9,43.2-14l19.8,6
	c25.1,7.7,50.7-10.8,51.1-37.1l0.3-20.7c0.3-16.6,10.9-31.3,26.7-36.7l19.6-6.7c24.9-8.5,34.6-38.5,19.5-60.1L453.6,264z"/>
<g>
	<path class="st1" d="M173.1,199.5c0,4.6,1.9,4.6,5,4.6c7.2,0.1,18.8,0,26,0c6.5,0,9-1.4,9.7-11.6c0.6-7.4,1-13.2,10.3-13.2
		c7.7,0,10.8,4.1,10.8,10.3c0,5.4-1.7,20.5-5.4,27c-3.4,5.9-7.2,7.6-18.6,7.6h-41c-12.8,0-17.9-4.2-17.9-16.3V167l-15.5,2.4
		c-1.2,0.2-2.3,0.4-2.9,0.4c-6.4,0-8.5-5.8-8.5-11.4c0-3.7,0.7-7.7,8.3-8.9l18.6-3v-24c0-4,0.7-10.3,9.8-10.3
		c7.4,0,11.2,2.4,11.2,10.3v20.8l55.4-8.8c1.2-0.2,2.4-0.4,3-0.4c6.4,0,8.5,5.8,8.5,11.5c0,3.5-0.7,7.6-8.3,8.8l-58.7,9.2V199.5z"/>
	<path class="st1" d="M278,190.4c-1.1,10.7-2.3,17.4-5.8,25.3c-4.1,9.5-7.2,11-12,11c-6.4,0-12.6-4.2-12.6-9.6c0-2.8,1-4.7,3.4-8.8
		c3.8-6.6,8.8-15,8.8-41.8v-34.3c0-13.2,6.4-16.7,16.6-16.7h54.8c10.3,0,16.7,3.5,16.7,16.7v76.6c0,16.9-9.5,16.9-26.4,16.9
		c-3.7,0-11.4,0-14.2-1c-5.3-1.7-6.4-6.7-6.4-10.2c0-10,6.6-10,9.7-10c1.7,0,9,0.4,10.4,0.4c3.8,0,6.1-0.2,6.1-3.6v-11H278z
		 M327.2,144.4v-5.3c0-2.2-1.2-3.4-3.4-3.4H283c-2.3,0-3.4,1.3-3.4,3.4v5.3H327.2z M279.6,162.7v9.2h47.5v-9.2H279.6z"/>
	<path class="st1" d="M146.7,358.5c-4.7,9-6.5,11.2-10.8,11.2c-3.7,0-10.6-2.8-10.6-9.5c0-3.2,0.7-4.3,6.2-13.6
		c3.1-5.4,6-11.8,7.3-14.9c3.6-8,4.6-10.3,9.7-10.3c1.6,0,5.4,0.4,7.9,3.5c1.3,1.8,1.6,3.1,1.6,6
		C158.1,335.5,147.6,356.6,146.7,358.5z M134.9,287.6c1.8,0,4.1,0.4,13.3,6.6c7.2,4.9,9,6.5,9,10.6c0,4.7-4.3,10.8-10.2,10.8
		c-2,0-2.9-0.6-10.3-6c-1.4-1-8.3-5.5-9.5-6.7c-1.3-1.3-1.8-3.2-1.8-5.2c0-4.4,3-8.8,7.6-10C134,287.6,134.7,287.6,134.9,287.6z
		 M152.8,263.4c5.4,3.4,7.3,4.6,7.3,8.9c0,4.2-3.7,11.3-9.7,11.3c-2.4,0-4-1-11.5-5.8c-1.3-0.8-7.4-4.4-8.5-5.2
		c-2-1.4-2.9-3.5-2.9-5.9c0-2.6,2.5-10.6,10.6-10.6C140.2,256.2,147.9,260.3,152.8,263.4z M209,288.6h21.8c2.2,0,9.6,0,9.6,8.4
		c0,6.6-3,9.5-9.6,9.5H209v11.6h10.2c9.5,0,15,3.2,15,14.9v21c0,11.8-5.5,15-15,15h-40.3c-9.5,0-14.9-3.2-14.9-15v-21
		c0-11.6,5.4-14.9,14.9-14.9h9.6v-11.6H167c-2.2,0-9.6,0-9.6-8.5c0-6.6,2.9-9.4,9.6-9.4h21.5V278c-5.8,0.2-11.6,0.4-17.5,0.4
		c-3.7,0-10.6,0-10.6-9.7c0-7.7,5.5-8.4,8.6-8.4c11.3-0.2,32.6-0.7,43.3-2.2c12.2-1.6,13.4-1.8,15.4-1.8c8.4,0,8.4,8.8,8.4,9.6
		c0,6.6-4,7.7-6.7,8.4c-3.4,0.8-11.6,1.6-20.4,2.3V288.6z M214,338.3c0-1.8-1-2.9-2.8-2.9h-24.4c-1.7,0-2.8,1.1-2.8,2.8v10.4
		c0,1.7,1,2.8,2.8,2.8h24.4c1.7,0,2.8-1.1,2.8-2.8V338.3z"/>
	<path class="st1" d="M316.4,265.3c0-4.4,1.1-9.6,8.6-9.6c6.7,0,10.2,1.8,10.2,9.6V278h4.3c6.4,0,14,0,16.7,7.2
		c1,2.8,1.2,5.2,1.2,13.4c0,12.7-0.5,49.8-3.8,60.8c-2.9,9.7-8.3,10.8-19.2,10.8c-5.6,0-7.3-0.7-8.4-1.4c-1.9-1.2-4.1-4.2-4.1-8.9
		c-3.5,6.6-5.6,10-10.3,10c-1.8,0-6.2-0.6-9.7-4.7c-4.7,0.5-35.9,2.8-48.7,2.8c-3.5,0-8.5,0-8.5-7.6c0-7.3,4.6-7.7,7.3-7.8
		c2.9-0.2,15.4-0.4,17.9-0.5v-4.9h-15.4c-1.9,0-7.4,0-7.4-6.4c0-6.5,5.4-6.5,7.4-6.5h15.4v-3.1h-6.1c-13.4,0-15.7-2.3-15.7-15.5v-9
		c0-13.2,2.3-15.5,15.7-15.5h6.1v-3.1h-16.7c-1.9,0-7.9,0-7.9-6.7c0-6.7,6-6.7,7.9-6.7h16.7v-2.9c-8.9,0.1-14.9,0.2-18.1-0.1
		c-4.7-0.5-4.8-5.3-4.8-6.6c0-6.4,4.9-6.4,8.2-6.4c12.6-0.1,26.5-0.8,33.7-1.4c2.2-0.2,12.4-1.2,13.7-1.2c5.6,0,6.4,4.7,6.4,7.3
		c0,5.9-3.5,6.5-5.9,6.8c-2,0.4-8.6,0.8-15.6,1.1v3.4h16c4.3,0,5.9,1,7.2,3.6c1.1-0.2,1.6-0.4,3.6-0.4h2.3V265.3z M269.8,306.6v-5.3
		h-4.1c-1.2,0-1.8,0.7-1.8,1.9v3.4H269.8z M269.8,315.2h-5.9v3.5c0,1.1,0.6,1.8,1.8,1.8h4.1V315.2z M301.1,334.4
		c5.2,0,7.4,1.8,7.4,6.6c0,1-0.1,1.4-0.2,2c3.5-7.7,5.4-15.4,6.5-23.5c0.8-6.6,1.6-14.4,1.6-21.8h-2.3c-5.3,0-8.3-1.9-8.4-9.6
		c-0.6,0-1.3,0.1-2.4,0.1h-16v3.1h6.1c13.3,0,15.6,2.3,15.6,15.5v9c0,13.3-2.3,15.5-15.6,15.5h-6.1v3.1H301.1z M287.3,306.6h6v-3.4
		c0-1.2-0.6-1.9-1.8-1.9h-4.2V306.6z M287.3,315.2v5.3h4.2c1.2,0,1.8-0.7,1.8-1.8v-3.5H287.3z M287.3,351.5c2.8-0.1,15.7-0.7,17-0.7
		c0.6-1.1,1.4-2.5,3-5.8c-0.8,1.1-1.8,2.3-6.2,2.3h-13.8V351.5z M329.8,349.8c0.5,0,2.6,0.1,3.2,0.1c3.5,0,4-1.7,4.4-5.2
		c1.2-9.2,2.2-35,2.2-45c0-2-0.6-2-4.6-2c-0.1,8.4-1.9,25.8-3.2,33.1c-1.8,9.5-4.2,15.7-5.8,19.9
		C327.2,350.1,328.4,349.8,329.8,349.8z"/>
</g>
</svg>
