<svg id="圖層_1" data-name="圖層 1" xmlns="http://www.w3.org/2000/svg" viewBox="0 0 1024 200"><defs><style>.cls-1{isolation:isolate;}.cls-2{fill:#333;}.cls-3{fill:#f06441;}.cls-4{fill:#111;}.cls-5{fill:#ffda45;}</style></defs><title>工作區域 1</title><g class="cls-1"><path class="cls-2" d="M390.33,134.74l-1.86-1.18a10.91,10.91,0,0,0,2.94-4.52l2.16.49a11.51,11.51,0,0,1-.49,1.08h5.69v1.86h-3.24a6.45,6.45,0,0,1,1.08,1.57l-2,.79-1.47-2.36H392A10.37,10.37,0,0,1,390.33,134.74Zm.1,2.45v-2h17.18v5.69h-7.46v1.86h8.34c0,2.75-.2,4.61-.59,5.3s-1.18,1.18-2.65,1.18H402.4l-.59-2.06c1.08,0,2.06.1,2.94.1.69,0,1-.2,1.18-.69a8.59,8.59,0,0,0,.2-2H400v5.89h-2.36V145c-1.57,2-4.32,3.63-8.15,5.1l-1.18-2a18,18,0,0,0,7.07-3.53h-6l1.08-5.69h7.07v-1.67h-7.46v-.1Zm2.26,3.73-.49,1.86h5.59v-1.86Zm7.46-6.09-1.86-1.18a14,14,0,0,0,2.65-4.52l2.06.49a10.18,10.18,0,0,1-.39,1h6.48v1.86h-3.73a5.35,5.35,0,0,1,1.08,1.67l-2,.79a16.24,16.24,0,0,0-1.47-2.45h-1.37A6.75,6.75,0,0,1,400.15,134.84Zm5.1,4v-1.67H400v1.67Z"/><path class="cls-2" d="M431.95,138.57v2.16H411.34v-2.16Z"/><path class="cls-2" d="M442.06,130v1.67c-.69,2-1.37,4-2.36,6.28a12.17,12.17,0,0,1,2.26,5.59,3.58,3.58,0,0,1-.79,2.36,5.16,5.16,0,0,1-3.44.88l-.79-2.26a5.63,5.63,0,0,0,1.18.1,1.84,1.84,0,0,0,1.28-.29,1.2,1.2,0,0,0,.29-.88c0-1.57-.79-3.24-2.36-5.2,1-2.36,1.77-4.42,2.36-6.28h-2.94v18.36H434.7V130Zm2.75,6.58c1.08-.29,2.16-.59,2.94-.88l.29,1.67a28.29,28.29,0,0,1-5.5,1.67l-.59-1.86c.49-.2.79-.49.79-.88v-6.87h2v2.36h3v1.86h-3l.1,2.94Zm9.13,13.84h-2v-.88h-6.48v.88h-1.86V140h3.14a11.41,11.41,0,0,0,.39-1.77l2.16.29a9.65,9.65,0,0,1-.49,1.57h5l.1,10.31Zm-2-6.58v-2.06h-6.48v2.06Zm0,3.83v-2.06h-6.48v2.06Zm-1.18-9a1.94,1.94,0,0,1-2.06-2.16v-7.17h2v2.45l3.93-.39v1.86l-3.93.39v2.45c0,.49.2.69.69.69h1a.85.85,0,0,0,.59-.29,9,9,0,0,0,.29-2l1.86.59c-.1,1.67-.39,2.75-.79,3a2.72,2.72,0,0,1-1.57.49Z"/><path class="cls-2" d="M460.61,139.16h4.91v2h-4.91v3a47,47,0,0,0,5.69-.88v2.06a29,29,0,0,1-5.69.88v4h-2.16v-3.83l-1.28.1-.39-2.16,1.67-.1V131a25.71,25.71,0,0,0,6.87-1.77l1.08,1.86a32.14,32.14,0,0,1-5.89,1.57v2.16h4.91v2.06h-4.91l.1,2.26Zm15.9-.2v1.86a11.69,11.69,0,0,1-2.85,5.2,22,22,0,0,0,4.61,2.65l-1.18,1.86a17.58,17.58,0,0,1-4.81-3,17.4,17.4,0,0,1-5.69,3l-1.18-1.86a18.06,18.06,0,0,0,5.3-2.85,11.47,11.47,0,0,1-2.65-4.91h-1.18v-2.06l9.62.1Zm-1.37-9v4.71a.78.78,0,0,0,.88.88h1.77v2h-2.45a2.08,2.08,0,0,1-2.36-2.36V132h-2.75v1.08a5.84,5.84,0,0,1-2.85,5.2L466,136.6a3.67,3.67,0,0,0,2.26-3.34v-3.34ZM472,144.65a11.81,11.81,0,0,0,2.26-3.63h-4.42A12.69,12.69,0,0,0,472,144.65Z"/><path class="cls-2" d="M486.72,129.93a31,31,0,0,1-2,4.61v15.9H482.6V137.88a30.9,30.9,0,0,1-2.45,2.75l-.69-2.26a24.49,24.49,0,0,0,5.1-9.42Zm8.64,4.12v-4.71h2.16v4.71h3.14v2.16h-3.14v11.68a2.25,2.25,0,0,1-2.45,2.55h-3.44l-.49-2.16c1.08.1,2.16.1,3.14.1a.88.88,0,0,0,1-1V136.31h-8.34v-2.16h8.44Zm-2.06,9.52-1.86,1.28a57.36,57.36,0,0,0-3.83-5.4l1.77-1.08A55.58,55.58,0,0,1,493.3,143.57Z"/><path class="cls-2" d="M506.25,144.16a14.26,14.26,0,0,1-2.16,4.61l-1.57-1a12.29,12.29,0,0,0,2-3.93Zm1.18-13v-2h2.06v2h4v1.86h-4v1.57H513v1.86H503.6v-1.86h3.83v-1.57h-4.71V131.2Zm6.38,9.82v1.86h-4.32v5.3c0,1.37-.79,2.06-2.26,2.06h-1.86l-.49-2a9,9,0,0,0,1.57.1c.59,0,.88-.29.88-.79v-4.81h-4.52v-1.86l11,.1Zm-1.57-3.14v1.86h-8v-1.86Zm1.28,9-1.67.79c-.49-1.28-1-2.55-1.37-3.53l1.67-.59A33.91,33.91,0,0,1,513.52,146.91Zm5.59-10.7c0,1.47-.1,2.85-.2,4.22a16.93,16.93,0,0,0,4.91,8.34l-1.37,1.67a20,20,0,0,1-4.22-6.48,11.92,11.92,0,0,1-4.71,6.48l-1.28-1.57a10.23,10.23,0,0,0,4.22-5.59,28.4,28.4,0,0,0,.79-7.17l1.86.1Zm-1.57-6.48a20.38,20.38,0,0,1-.49,2.94h6V134c-.29,2-.69,3.83-1.08,5.79l-2.06-.59a23.46,23.46,0,0,0,1-4.61h-4.32a16.75,16.75,0,0,1-2.06,4.61L512.83,138a20.4,20.4,0,0,0,2.65-8.64Z"/></g><g class="cls-1"><path class="cls-2" d="M614.81,134.74l-1.86-1.18a10.91,10.91,0,0,0,2.94-4.52l2.16.49a11.51,11.51,0,0,1-.49,1.08h5.69v1.86H620a6.45,6.45,0,0,1,1.08,1.57l-2,.79-1.47-2.36h-1.18A6.45,6.45,0,0,1,614.81,134.74Zm0,2.45v-2H632v5.69h-7.46v1.86h8.34c0,2.75-.2,4.61-.59,5.3s-1.18,1.18-2.65,1.18h-2.85l-.59-2.06c1.08,0,2.06.1,2.94.1.69,0,1-.2,1.18-.69a8.59,8.59,0,0,0,.2-2h-6.09v5.89h-2.16V145c-1.57,2-4.32,3.63-8.15,5.1l-1.18-2a18,18,0,0,0,7.07-3.53h-6l1.08-5.69h7.07v-1.67h-7.66v-.1Zm2.45,3.73-.49,1.86h5.59v-1.86Zm7.46-6.09-1.86-1.18a14,14,0,0,0,2.65-4.52l2.06.49a10.17,10.17,0,0,1-.39,1h6.48v1.86h-3.73a5.35,5.35,0,0,1,1.08,1.67l-2,.79c-.39-.88-1-1.57-1.47-2.45H626.2A11.81,11.81,0,0,1,624.73,134.84Zm5,4v-1.67h-5.2v1.67Z"/><path class="cls-2" d="M656.43,146.12v2.16H635.82v-2.16Zm-2.06-14.53v2.16H638V131.6Z"/><path class="cls-2" d="M666.54,130v1.67c-.69,2-1.37,4-2.36,6.28a12.17,12.17,0,0,1,2.26,5.59,3.58,3.58,0,0,1-.79,2.36,5.16,5.16,0,0,1-3.44.88l-.79-2.26a5.63,5.63,0,0,0,1.18.1,1.84,1.84,0,0,0,1.28-.29,1.2,1.2,0,0,0,.29-.88c0-1.57-.79-3.24-2.36-5.2,1-2.36,1.77-4.42,2.36-6.28h-2.94v18.36h-2V130Zm2.65,6.58c1.08-.29,2.16-.59,2.94-.88l.29,1.67a28.29,28.29,0,0,1-5.5,1.67l-.59-1.86c.49-.2.79-.49.79-.88v-6.87h2v2.36h3v1.86h-3l.1,2.94Zm9.13,13.84h-2v-.88h-6.58v.88h-2V140H671a11.42,11.42,0,0,0,.39-1.77l2.16.29a9.64,9.64,0,0,1-.49,1.57h5v10.31Zm-1.86-6.58v-2.06h-6.58v2.06Zm0,3.83v-2.06h-6.58v2.06Zm-1.18-9a1.94,1.94,0,0,1-2.06-2.16v-7.17h2v2.45l3.93-.39v1.86l-3.93.39v2.45c0,.49.2.69.69.69h1a.85.85,0,0,0,.59-.29,9,9,0,0,0,.29-2l1.86.59c-.1,1.67-.39,2.75-.79,3a2.72,2.72,0,0,1-1.57.49Z"/><path class="cls-2" d="M685.19,139.16h4.91v2h-4.91v3a47,47,0,0,0,5.69-.88v2.06a29,29,0,0,1-5.69.88v4H683v-3.83l-1.28.1-.39-2.16,1.67-.1V131a26.76,26.76,0,0,0,6.87-1.77l1.08,1.86a32.14,32.14,0,0,1-5.89,1.57v2.16H690v2.06h-4.91v2.26ZM701,139v1.86a12.59,12.59,0,0,1-2.75,5.2,22,22,0,0,0,4.61,2.65l-1.18,1.86a17.58,17.58,0,0,1-4.81-3,17.4,17.4,0,0,1-5.69,3L690,148.68a18.06,18.06,0,0,0,5.3-2.85,11.47,11.47,0,0,1-2.65-4.91h-1.18v-2.06l9.52.1Zm-1.28-9v4.71a.78.78,0,0,0,.88.88h1.77v2h-2.45a2.08,2.08,0,0,1-2.36-2.36V132h-2.75v1.08a5.84,5.84,0,0,1-2.85,5.2l-1.37-1.67a3.67,3.67,0,0,0,2.26-3.34v-3.34Zm-3.14,14.72a11.81,11.81,0,0,0,2.26-3.63h-4.42A9.39,9.39,0,0,0,696.58,144.65Z"/><path class="cls-2" d="M711.3,129.93a31,31,0,0,1-2,4.61v15.9h-2.16V137.88a30.9,30.9,0,0,1-2.45,2.75l-.69-2.26a24.49,24.49,0,0,0,5.1-9.42Zm8.54,4.12v-4.71H722v4.71h3.14v2.16H722v11.68a2.25,2.25,0,0,1-2.45,2.55h-3.34l-.49-2.16c1.08.1,2.16.1,3.14.1a.88.88,0,0,0,1-1V136.31H711.5v-2.16h8.34Zm-2.06,9.52-1.86,1.28a57.35,57.35,0,0,0-3.83-5.4l1.77-1.08A42.4,42.4,0,0,1,717.78,143.57Z"/><path class="cls-2" d="M730.74,144.16a14.26,14.26,0,0,1-2.16,4.61l-1.57-1a10.56,10.56,0,0,0,2-3.93Zm1.28-13v-2h2.06v2h4v1.86h-4v1.57h3.53v1.86h-9.42v-1.86H732v-1.57H727.3V131.2Zm6.28,9.82v1.86H734v5.3c0,1.37-.79,2.06-2.26,2.06h-1.86l-.49-2a9,9,0,0,0,1.57.1c.59,0,.88-.29.88-.79v-4.81H727.4v-1.86l10.9.1Zm-1.47-3.14v1.86h-8v-1.86Zm1.18,9-1.67.79c-.49-1.28-.88-2.55-1.37-3.53l1.67-.59A19.87,19.87,0,0,1,738,146.91Zm5.5-10.7c0,1.47-.1,2.85-.2,4.22a17.69,17.69,0,0,0,4.91,8.34l-1.37,1.67a20,20,0,0,1-4.22-6.48,11.92,11.92,0,0,1-4.71,6.48l-1.28-1.57a10.23,10.23,0,0,0,4.22-5.59,28.4,28.4,0,0,0,.79-7.17l1.86.1ZM742,129.73a20.38,20.38,0,0,1-.49,2.94h6V134c-.29,2-.69,3.83-1.08,5.79l-2.06-.59a23.46,23.46,0,0,0,1-4.61h-4.22a16.75,16.75,0,0,1-2.06,4.61L737.41,138a20.4,20.4,0,0,0,2.65-8.64Z"/></g><g class="cls-1"><path class="cls-2" d="M855.89,143.91h8.83V146h-6.09l1.67.59a23.18,23.18,0,0,1-1.28,2.26h4.91V161a2.08,2.08,0,0,1-2.36,2.36h-2.36l-.59-1.86h-8.54v-6.09H859v6h1.86a.78.78,0,0,0,.88-.88v-9.82h-3.63v1.37c0,.49.2.79.69.79h2.36v1.77H858c-1.18,0-1.77-.59-1.77-1.57v-2.26h-3a6.19,6.19,0,0,1-1.18,3,8.28,8.28,0,0,1-3.44,2.16l-.88-1.67a5.78,5.78,0,0,0,2.65-1.57,5.19,5.19,0,0,0,.88-2h-3.63v12.56h-2.16V148.92h4.81a23.59,23.59,0,0,0-1.08-2.26l1.47-.59h-6V144h8.83a10.54,10.54,0,0,0-.69-1.47l2.36-.39A16.79,16.79,0,0,1,855.89,143.91Zm.79,4.81a18.75,18.75,0,0,0,1.47-2.75h-7a13.64,13.64,0,0,1,1.18,2.75Zm.39,8.54h-4.81v2.36h4.81Z"/><path class="cls-2" d="M876.5,163.15h-2.16v-1.08h-4.22v1.08H868V152.84h8.44v10.31Zm-2.16-3.24v-5.1h-4.22v5.1ZM884.06,143v8h-13v-8Zm-2.16,2.06h-8.64V149h8.64Zm5.2,18.06h-2.16v-1.08h-4.42v1.08h-2.16V152.84H887v10.31Zm-2.16-3.24v-5.1h-4.42v5.1Z"/><path class="cls-2" d="M890.63,163.15l-.49-2.06a9.52,9.52,0,0,0,1.67.1c.49,0,.79-.29.79-.88v-4.91a20.56,20.56,0,0,1-2.26.79l-.59-2.06a22.46,22.46,0,0,0,2.75-.79v-4.91H890v-2.06h2.45v-4h2.16v4H897v2.06h-2.36v4.22a23.59,23.59,0,0,0,2.26-1.08v2.06a23.59,23.59,0,0,1-2.26,1.08v6.38a2,2,0,0,1-2.16,2.26h-1.86Zm9.32-5.69c1.18-.39,2.36-.79,3.44-1.18l.39,1.86c-1.77.69-3.83,1.28-6.18,2l-.59-1.86a1.52,1.52,0,0,0,.88-1.47V144.4a68.59,68.59,0,0,0,10.7-2l1.28,1.86c-1,.29-2.16.59-3.44.88,0,1.86,0,3.44.1,4.91h3.83v2.16h-3.73a30.44,30.44,0,0,0,.69,6.09c.39,1.57.88,2.55,1.37,2.65.29-.1.59-1.28.79-3.63l1.77,1.18c-.49,3.14-1.18,4.71-2.45,4.71a2.68,2.68,0,0,1-2-1.08,9.83,9.83,0,0,1-1.67-3.83,32.61,32.61,0,0,1-.59-6.09H900v5.2Zm5.1,3.53v2.06H897.8V161Zm-.59-15.61c-1.37.2-2.75.39-4.42.69v4h4.52C904.47,148.52,904.47,147.05,904.47,145.38Z"/><path class="cls-2" d="M918.61,147.84v1.67a29.28,29.28,0,0,1-2.55,3.53h2.75v1.47a29.06,29.06,0,0,1-1.08,4.22l.59.39a7.5,7.5,0,0,0,2.06,1.37,10,10,0,0,0,2.85.49h4.32c1.57,0,3.73-.1,6.38-.2l-.49,2.06h-5.59c-1.57,0-3.14,0-4.71-.1a8.2,8.2,0,0,1-3.53-.59,8.57,8.57,0,0,1-2.65-1.67.72.72,0,0,0-.59-.2c-.49,0-1.18,1-2.26,2.94l-1.57-1.47c1-2,2.06-3.14,2.94-3.53a13.39,13.39,0,0,0,1-3.53h-3.24V153A38.22,38.22,0,0,0,916,149.6h-3v-1.77h5.69Zm-.2-2.16L917,147.05a28.2,28.2,0,0,0-3.44-3.34l1.37-1.37A18.58,18.58,0,0,1,918.41,145.68Zm9.13-3.44v1.47h4.81v1.86h-4.81v1.28h6.18v1.86H931a8.7,8.7,0,0,1-.79,1.67h2.45v1.86h-5v1.18H932v1.77h-4.32v1.28h5.79v2h-5.79v2h-2.06v-2h-5.79v-2h5.69V155.2h-4.42v-1.77h4.42v-1.18h-5v-1.86H923a12.89,12.89,0,0,0-.88-1.67h-2.75v-1.86h6.09v-1.28h-4.71v-1.86h4.71v-1.47Zm1.28,6.58H924.1c.29.59.49,1.08.79,1.67h3.24C928.33,150,928.62,149.41,928.82,148.82Z"/></g><g class="cls-1"><path class="cls-3" d="M409.67,161.24h5.1v.88H403.48v-.88h5.2a10.18,10.18,0,0,0-.39-1l1-.2C409.37,160.36,409.47,160.75,409.67,161.24Zm-2,2.65h2.65a15.88,15.88,0,0,0,1-1.77l.88.29c-.29.59-.59,1-.88,1.47h2.85v7A1,1,0,0,1,413,172h-1.28l-.2-.88h1.28c.29,0,.49-.2.49-.59v-5.89h-2.36v1.08c0,.29.1.49.39.49h1.47V167h-1.86c-.59,0-.88-.29-.88-.79v-1.47h-2a3.54,3.54,0,0,1-.69,1.86,4.19,4.19,0,0,1-2,1.18l-.39-.79a3.1,3.1,0,0,0,1.57-1,2.55,2.55,0,0,0,.59-1.37h-2.36v7.26H404v-8h2.85a9.91,9.91,0,0,0-.69-1.47l.88-.29C407.21,162.61,407.41,163.2,407.7,163.89Zm3.83,3.73V171h-4.91v-3.34Zm-.88.79h-3.14v1.67h3.14Z"/><path class="cls-3" d="M421.35,171.94h-.88v-.69h-2.75v.69h-.88v-5.69h4.61v5.69Zm-1-1.57v-3.24h-2.75v3.24Zm5.3-9.72v4.22H418.5v-4.22Zm-1,.88h-5.3V164h5.3Zm2.65,10.4h-1v-.69h-2.85v.69h-.88v-5.69h4.71Zm-.88-1.57v-3.24H423.6v3.24Z"/><path class="cls-3" d="M433.81,171a14.81,14.81,0,0,1-4.22,1.18l-.39-.69a15.25,15.25,0,0,0,4.22-1.08Zm3-7.36h3.44a2.7,2.7,0,0,1-.29,1.57,1.76,1.76,0,0,1-1.28.39H438l-.2-.59h.79a1.27,1.27,0,0,0,.79-.2.74.74,0,0,0,.1-.49h-2.65v1.28H436v-1.28h-2.26a2.65,2.65,0,0,1-.69.79,7,7,0,0,1-2.06.79h8.34v4.52h-8.44v-4.52c-.29.1-.69.1-1,.2l-.39-.59a6.42,6.42,0,0,0,2.85-.88c.1-.1.29-.2.39-.29H430l.39-2.06h2.75v-.79H430v-.69h3.14v-.59H434v.59h1.86v-.59h.88v.59h2.94v2.06h-2.94v.79h.1Zm-6,0h2.26c0-.2.1-.29.1-.49v-.29h-2.06Zm7.56,3.53v-.69h-6.67v.69Zm0,1.28v-.69h-6.67v.69Zm0,.59h-6.67v.69h6.67ZM434,163.11a.88.88,0,0,1-.1.49h2v-.79H434Zm0-.88h1.86v-.79H434Zm6.87,9.23-.29.69A35.27,35.27,0,0,0,436,171l.29-.59A31.75,31.75,0,0,1,440.88,171.45Zm-4-9.23H439v-.79h-2.16Z"/><path class="cls-3" d="M442.75,171.94l-.69-.69a7.83,7.83,0,0,0,1.28-4.42v-6.28H453v9.72a1.24,1.24,0,0,1-1.37,1.37h-1.47l-.29-.88c.49,0,1,.1,1.47.1s.69-.29.69-.79v-2.26h-3.53v3.83h-1v-3.83h-3.34A6.32,6.32,0,0,1,442.75,171.94Zm1.57-10.4v2.26h3.34v-2.26Zm0,5.4h3.34v-2.26h-3.34Zm7.75-5.4h-3.53v2.26h3.53Zm0,3.14h-3.53v2.26h3.53Z"/><path class="cls-3" d="M463.16,164.09v2.85H466v.88h-2.85v2.85h-.88v-2.85h-2.85v-.88h2.85v-2.85Z"/><path class="cls-3" d="M472.39,172.14l-.69-.69a11.65,11.65,0,0,0,.79-4.52v-6.28h3.83v10.11c0,.79-.39,1.18-1.08,1.18h-1.08l-.2-.79c.39,0,.69.1,1,.1s.49-.2.49-.69v-2.94h-2.06A13.42,13.42,0,0,1,472.39,172.14Zm3-10.6h-2.06v2.16h2.06Zm-2.16,5.2h2.06v-2.16h-2.06Zm5,5.4h-.88V160.75h5.3a21.21,21.21,0,0,1-.2,3.24c-.2.49-.59.79-1.47.79h-1.08l-.29-.79h.88a1.46,1.46,0,0,0,.69-.1.77.77,0,0,0,.39-.39,15.16,15.16,0,0,0,.2-2h-3.44v3.93h4.42v.79a10.89,10.89,0,0,1-1.28,3.44,11.39,11.39,0,0,0,2.06,1.57l-.49.79a12.22,12.22,0,0,1-2.16-1.57,7.28,7.28,0,0,1-2,1.57l-.49-.79a4.85,4.85,0,0,0,1.86-1.57,8.64,8.64,0,0,1-1.67-3.44h-.29v5.89Zm2.45-3.14a10,10,0,0,0,1.08-2.75h-2.45A6.61,6.61,0,0,0,480.73,169Z"/><path class="cls-3" d="M487.11,163.2a7.8,7.8,0,0,0,1.37-1.67h-3.63v-.88h4.71v.69a10.89,10.89,0,0,1-1.86,2.26l.59.59-.39.29h1.86v.79a14.19,14.19,0,0,1-1.08,2.45l-.59-.49a11.18,11.18,0,0,0,.88-1.86H487.8v5.5c0,.69-.29,1-1,1h-1.18l-.2-.79c.39,0,.69.1,1.08.1s.39-.2.39-.49v-5.3h0a17.87,17.87,0,0,1-2.06,4.61l-.39-.88a13.27,13.27,0,0,0,1.86-3.73h-1.67v-.88h2.85a22.85,22.85,0,0,0-2.16-1.86l.59-.59A6.67,6.67,0,0,0,487.11,163.2Zm8.44,7.56c-.1.79-.79,1.18-1.86,1.18h-1.18l-.2-.79h1.28a1.11,1.11,0,0,0,1.18-.79,14.76,14.76,0,0,0,.1-2.65h-2a7.57,7.57,0,0,1-.69,2,7.39,7.39,0,0,1-2.75,2.36l-.59-.69a5.71,5.71,0,0,0,2.45-2,5.84,5.84,0,0,0,.59-1.57h-2.06v-.88h2.26c0-.39.1-.79.1-1.18h.88c0,.39-.1.79-.1,1.18h2.65A32,32,0,0,1,495.55,170.76Zm-3.14-10.5a4.1,4.1,0,0,1-.39,1h3.93v.88h-.88a7.14,7.14,0,0,1-1.28,2.26h0a11.6,11.6,0,0,0,2.45,1l-.59.69a21.26,21.26,0,0,1-2.55-1.18,13.07,13.07,0,0,1-2.36,1.18l-.49-.69a15.31,15.31,0,0,0,2.16-1,5.25,5.25,0,0,1-1.28-1.28l.69-.39a7.54,7.54,0,0,0,1.28,1.18,5.57,5.57,0,0,0,1.18-1.77h-2.65a7.82,7.82,0,0,1-1.47,1.67l-.49-.69a5.44,5.44,0,0,0,2-2.94Z"/><path class="cls-3" d="M502.13,171a14.81,14.81,0,0,1-4.22,1.18l-.39-.69a15.25,15.25,0,0,0,4.22-1.08Zm3-7.36h3.44a2.7,2.7,0,0,1-.29,1.57,1.76,1.76,0,0,1-1.28.39h-.69l-.2-.59h.79a1.27,1.27,0,0,0,.79-.2.74.74,0,0,0,.1-.49h-2.65v1.28h-.88v-1.28H502a2.65,2.65,0,0,1-.69.79,7,7,0,0,1-2.06.79h8.34v4.52h-8.44v-4.52c-.29.1-.69.1-1,.2l-.39-.59a6.42,6.42,0,0,0,2.85-.88c.1-.1.29-.2.39-.29H498.3l.39-2.06h2.75v-.79H498.3v-.69h3.14v-.59h.88v.59h1.86v-.59h.88v.59H508v2.06h-2.94v.79h.1Zm-5.89,0h2.26c0-.2.1-.29.1-.49v-.29h-2.06Zm7.46,3.53v-.69h-6.67v.69Zm0,1.28v-.69h-6.67v.69Zm0,.59h-6.67v.69h6.67Zm-4.32-5.89a.88.88,0,0,1-.1.49h2v-.79h-1.86Zm0-.88h1.86v-.79h-1.86Zm6.77,9.23-.29.69a35.27,35.27,0,0,0-4.61-1.18l.29-.59A31.75,31.75,0,0,1,509.2,171.45Zm-4-9.23h2.16v-.79h-2.16Z"/></g><g class="cls-1"><path class="cls-3" d="M618.15,172.14h-.88v-.59h-8.93v.59h-.88V160.75h10.7Zm-.88-1.47v-9.13h-8.93v9.13ZM613.14,163v-1.08H614V163h1.18a4.58,4.58,0,0,0-.49-1l.79-.1c.1.29.29.69.39,1.08h.79v.88H614a15.82,15.82,0,0,0,.2,2.55c0,.29.1.59.1.79a10,10,0,0,0,1-2.75l.69.39a12.46,12.46,0,0,1-1.47,3.44l.1.39c.2.49.39.69.59.69s.49-.59.69-1.67l.69.39c-.39,1.47-.79,2.16-1.28,2.16a1.38,1.38,0,0,1-1.08-.79.74.74,0,0,1-.2-.39,6.08,6.08,0,0,1-1.37,1.37l-.49-.69a5.26,5.26,0,0,0,1.47-1.47,4.87,4.87,0,0,1-.29-1.28,12.71,12.71,0,0,1-.29-3h-4v-.88l4.12-.1Zm-.59,5.89a27.58,27.58,0,0,1-3.44.59l-.1-.79a27.91,27.91,0,0,0,3.53-.49Zm-.1-4.12v2.75h-3.14v-2.75Zm-.69.69H610.2v1.37h1.57Z"/><path class="cls-3" d="M623.84,160.65v.69c-.29,1.08-.69,2.26-1.08,3.44a5.74,5.74,0,0,1,1.08,2.75,1.67,1.67,0,0,1-.39,1.28,2.41,2.41,0,0,1-1.67.49l-.29-.88a4.25,4.25,0,0,1,.49.1,1.52,1.52,0,0,0,.79-.2,1.14,1.14,0,0,0,.2-.69,4.38,4.38,0,0,0-1.08-2.55,22.34,22.34,0,0,0,1.08-3.44h-1.67v10.5h-.88V160.85h3.44Zm2.16,8.54a9.81,9.81,0,0,1-1.77,2.55l-.79-.49a10.57,10.57,0,0,0,1.77-2.36Zm-2.45-5.2a13.64,13.64,0,0,0,1.86-.59l.2.59a10.37,10.37,0,0,1-1.86.59Zm.79,2.65-.49-.69a8.12,8.12,0,0,0,3.53-4.32h-1.67c-.1.2-.2.29-.29.49a6,6,0,0,1,1.18.49l-.39.59-1.18-.59-.79.79-.49-.69a5.7,5.7,0,0,0,1.86-2.65l.88.1c-.1.2-.2.49-.29.69h2.06v.59a7.06,7.06,0,0,0,1.18,2.06,5.15,5.15,0,0,0,1.08-1.86H629v-.79h2.36v.59a5.23,5.23,0,0,1-1.37,2.75,7.35,7.35,0,0,0,2,1.47l-.49.69a9.5,9.5,0,0,1-3.53-4,7.36,7.36,0,0,1-1.77,2.75h3.63v.79H626.2v-.79A12.18,12.18,0,0,1,624.33,166.64Zm6.77.59v.88h-3V172h-.88v-3.93h-2.85v-.88Zm.39,4.12-.69.49a15,15,0,0,0-1.57-2.55l.69-.39A19.78,19.78,0,0,1,631.5,171.35Z"/><path class="cls-3" d="M635.92,163.4v.79c-.49.79-1,1.47-1.57,2.26H636V167a14.75,14.75,0,0,1-.69,2.65c.1.1.2.1.29.29a3.74,3.74,0,0,0,1.28.88,4.1,4.1,0,0,0,1.77.29h2.45c.88,0,2.06,0,3.53-.1l-.2.88h-5.79a5.73,5.73,0,0,1-2.06-.29,3.88,3.88,0,0,1-1.47-1,.36.36,0,0,0-.29-.1c-.29,0-.79.59-1.28,1.77l-.69-.59c.59-1.18,1.18-1.86,1.77-2a15.17,15.17,0,0,0,.69-2.26h-2v-.69a26,26,0,0,0,1.67-2.16h-2V163.4Zm0-1.28-.59.59a18.48,18.48,0,0,0-2-1.86l.59-.59C634.64,160.85,635.33,161.53,635.92,162.12Zm8.34.59h-.69v.49h-2.65V164h2.75v3.83h-2.75v.79h3.44v.79h-3.44v1.28H640v-1.28h-3.53v-.79h3.44v-.79h-2.75V164h2.75v-.79h-2.65v-.49h-.79v-2.06h7.66v2.06Zm-4.22-.29v-1h-2.55v1Zm0,3.14v-.88h-1.86v.88Zm0,.69h-1.86v.88H640Zm.88-3.83h2.45v-1h-2.45Zm0,3.14h1.86v-.88h-1.86Zm1.86.69h-1.86v.88h1.86Z"/><path class="cls-3" d="M650.44,171a14.81,14.81,0,0,1-4.22,1.18l-.39-.69a15.24,15.24,0,0,0,4.22-1.08Zm3-7.36h3.44a2.7,2.7,0,0,1-.29,1.57,1.76,1.76,0,0,1-1.28.39h-.69l-.2-.59h.79a1.27,1.27,0,0,0,.79-.2.74.74,0,0,0,.1-.49h-2.65v1.28h-.88v-1.28h-2.26a2.65,2.65,0,0,1-.69.79,7,7,0,0,1-2.06.79h8.34v4.52H647.5v-4.52c-.29.1-.69.1-1,.2l-.39-.59a6.42,6.42,0,0,0,2.85-.88c.1-.1.29-.2.39-.29h-2.75l.39-2.06h2.75v-.79h-3.14v-.69h3.14v-.59h.88v.59h1.86v-.59h.88v.59h2.94v2.06h-2.94l.1.79Zm-5.89,0h2.26c0-.2.1-.29.1-.49v-.29h-2.06Zm7.46,3.53v-.69h-6.67v.69Zm0,1.28v-.69h-6.67v.69Zm0,.59h-6.67v.69h6.67Zm-4.32-5.89a.89.89,0,0,1-.1.49h2v-.79h-1.86Zm0-.88h1.86v-.79h-1.86Zm6.77,9.23-.29.69A35.27,35.27,0,0,0,652.6,171l.29-.59A29,29,0,0,1,657.51,171.45Zm-4-9.23h2.16v-.79h-2.16Z"/><path class="cls-3" d="M666.84,164.09v2.85h2.85v.88h-2.85v2.85H666v-2.85h-2.85v-.88H666v-2.85Z"/><path class="cls-3" d="M675.67,164.48c1.18-.39,2.55-1.86,4.22-4.32l1,.29a17.68,17.68,0,0,1-3.53,3.93c2.45-.1,4.81-.29,7.07-.49-.49-.69-1-1.37-1.47-2l.88-.39a37.66,37.66,0,0,1,3.14,4.32l-.88.49c-.29-.59-.69-1.08-1-1.57-2.75.29-5.79.39-9.13.59Zm9.82,7.66h-1v-.69h-6.77v.69h-1v-5.4h8.64v5.4Zm-1-1.57v-2.94h-6.77v2.94Z"/><path class="cls-3" d="M690.88,165.36l-.59.59a18.43,18.43,0,0,0-2-2l.59-.59A18.51,18.51,0,0,1,690.88,165.36Zm.2,2c-.59,1.67-1.18,3.14-1.86,4.61l-.88-.39a38.29,38.29,0,0,0,2-4.61Zm-.2-5.1-.59.59a16.62,16.62,0,0,0-1.86-1.86l.59-.59A8.39,8.39,0,0,1,690.88,162.22Zm1,2.45a8.84,8.84,0,0,1-.29,1.57l-.59-.2a3.94,3.94,0,0,0,.29-1.47Zm2.16-.49-.59.2-.1-.39c-.69.1-1.37.29-2.16.39l-.1-.59c.29-.1.69-.49,1.28-1.37l-1.08.1-.1-.49a5,5,0,0,0,1.08-1.77l.59.2a4.79,4.79,0,0,1-1,1.57c.29,0,.59-.1.88-.1a9,9,0,0,1,.49-.79l.59.2a14.76,14.76,0,0,1-1.67,2.26c.39-.1.79-.1,1.08-.2-.1-.2-.2-.49-.29-.69l.59-.2A8.29,8.29,0,0,1,694,164.19Zm-1.18,5.3h6.58a4.18,4.18,0,0,1-.29,2.06,1.64,1.64,0,0,1-1.37.49h-1.67l-.2-.79h1.77c.39,0,.69-.1.79-.29s.1-.39.1-.88h-6.67l.29-2.26h6V167h-6.09v-.69h6.87v2.26h-6.09Zm.1-3.44-.59.1c0-.69-.1-1.18-.1-1.57l.49-.1A7.63,7.63,0,0,1,692.95,166.05Zm1.08-.29-.49.2c-.1-.49-.2-.88-.29-1.37l.49-.1C693.83,165,693.93,165.36,694,165.76Zm1-4.81a4.79,4.79,0,0,0-.29-.69l.79-.1a9.27,9.27,0,0,1,.29.88H697v.59h-3V161l1.08-.1Zm1.67,3.14V166h-2.45v-1.86Zm-.1-2.06v.59h-2.26V162Zm0,1.08v.49h-2.26v-.49Zm-.49,1.47h-1.18v.88h1.18Zm3.93-.39-.59.1c0-.1-.1-.29-.1-.39-.69.1-1.37.2-2.26.29l-.1-.59c.29-.1.69-.49,1.28-1.28-.29,0-.69.1-1.08.1l-.1-.49a5,5,0,0,0,1.08-1.77l.59.2a6.13,6.13,0,0,1-1,1.57c.29,0,.59-.1.88-.1.2-.2.29-.49.49-.69l.59.2A9.94,9.94,0,0,1,698,163.6c.39-.1.79-.1,1.18-.2-.1-.29-.2-.49-.29-.79l.59-.2A18.53,18.53,0,0,1,700,164.19Zm-2.16.39a8.84,8.84,0,0,1-.29,1.57L697,166a7.83,7.83,0,0,0,.29-1.47Zm1.08,1.47-.59.1c0-.69-.1-1.18-.1-1.57l.49-.1A13.43,13.43,0,0,0,698.93,166.05Zm1.08-.39-.49.2c-.1-.49-.29-.88-.39-1.37l.49-.1C699.72,164.87,699.92,165.26,700,165.66Z"/><path class="cls-3" d="M712.48,172.14h-.88v-.59h-8.93v.59h-.88V160.75h10.7Zm-1-1.47v-9.13h-8.93v9.13Zm-4-7.66v-1.08h.88V163h1.18a4.58,4.58,0,0,0-.49-1l.79-.1c.1.29.29.69.39,1.08H711v.88h-2.65a15.82,15.82,0,0,0,.2,2.55c0,.29.1.59.1.79a10,10,0,0,0,1-2.75l.69.39a12.46,12.46,0,0,1-1.47,3.44l.1.39c.2.49.39.69.59.69s.49-.59.69-1.67l.69.39c-.39,1.47-.79,2.16-1.28,2.16a1.38,1.38,0,0,1-1.08-.79.74.74,0,0,1-.2-.39,6.08,6.08,0,0,1-1.37,1.37l-.49-.69a5.26,5.26,0,0,0,1.47-1.47,4.87,4.87,0,0,1-.29-1.28,12.71,12.71,0,0,1-.29-3h-4.12v-.88l4.22-.1Zm-.59,5.89a27.58,27.58,0,0,1-3.44.59l-.1-.79a27.91,27.91,0,0,0,3.53-.49Zm-.1-4.12v2.75h-3.14v-2.75Zm-.79.69h-1.57v1.37H706Z"/><path class="cls-3" d="M719.55,163.5h-3.44v8.44h-1v-9.32h4.52v-1.37h-1.57v-.88h2.55v2.26H725v8a1,1,0,0,1-1.18,1.18H721.8l-.2-.88h2c.39,0,.49-.2.49-.59v-7h-3.34a8.32,8.32,0,0,0,3.14,4.91l-.59.79a10,10,0,0,1-3-4.81,10.19,10.19,0,0,1-3.14,4.91l-.59-.79A8,8,0,0,0,719.55,163.5Z"/><path class="cls-3" d="M730.25,163.4v.79c-.49.79-1,1.47-1.57,2.26h1.67V167a14.75,14.75,0,0,1-.69,2.65c.1.1.2.1.29.29a3.74,3.74,0,0,0,1.28.88,4.1,4.1,0,0,0,1.77.29h2.45c.88,0,2.06,0,3.53-.1l-.2.88H733a5.73,5.73,0,0,1-2.06-.29,3.88,3.88,0,0,1-1.47-1,.36.36,0,0,0-.29-.1c-.29,0-.79.59-1.28,1.77l-.69-.59c.59-1.18,1.18-1.86,1.77-2a15.17,15.17,0,0,0,.69-2.26h-2v-.69a26,26,0,0,0,1.67-2.16h-2V163.4Zm-.1-1.28-.59.59a18.48,18.48,0,0,0-2-1.86l.59-.59A12,12,0,0,1,730.15,162.12Zm8.34.59h-.69v.49h-2.65V164h2.75v3.83h-2.75v.79h3.44v.79h-3.44v1.28h-.88v-1.28h-3.44v-.79h3.44v-.79h-2.75V164h2.75v-.79h-2.65v-.49h-.79v-2.06h7.66v2.06Zm-4.22-.29v-1h-2.45v1Zm0,3.14v-.88h-1.86v.88Zm0,.69h-1.86v.88h1.86Zm.88-3.83h2.45v-1h-2.45Zm0,3.14H737v-.88h-1.86Zm1.86.69h-1.86v.88H737Z"/><path class="cls-3" d="M744.77,171a14.81,14.81,0,0,1-4.22,1.18l-.39-.69a15.24,15.24,0,0,0,4.22-1.08Zm3-7.36h3.44a2.7,2.7,0,0,1-.29,1.57,1.76,1.76,0,0,1-1.28.39H749l-.2-.59h.79a1.27,1.27,0,0,0,.79-.2.74.74,0,0,0,.1-.49h-2.65v1.28h-.88v-1.28h-2.26a2.65,2.65,0,0,1-.69.79,7,7,0,0,1-2.06.79h8.34v4.52h-8.44v-4.52c-.29.1-.69.1-1,.2l-.39-.59a6.42,6.42,0,0,0,2.85-.88c.1-.1.29-.2.39-.29h-2.75l.39-2.06h2.75v-.79h-3.14v-.69h3.14v-.59H745v.59h1.86v-.59h.88v.59h2.94v2.06h-2.94l.1.79Zm-6,0h2.26c0-.2.1-.29.1-.49v-.29h-2.06Zm7.56,3.53v-.69h-6.67v.69Zm0,1.28v-.69h-6.67v.69Zm0,.59h-6.67v.69h6.67ZM745,163.11a.89.89,0,0,1-.1.49h2v-.79H745Zm0-.88h1.86v-.79H745Zm6.87,9.23-.29.69a35.27,35.27,0,0,0-4.61-1.18l.29-.59A31.75,31.75,0,0,1,751.84,171.45Zm-4-9.23H750v-.79h-2.16Z"/></g><g id="Group-3"><path id="Fill-1" class="cls-2" d="M502.72,70.85a47,47,0,1,1-47-46.72,46.77,46.77,0,0,1,47,46.72"/></g><path id="Fill-4" class="cls-4" d="M443.53,116.09a47,47,0,0,1-33.67-35.14h-.1l15.51-15.41,5.59,2.55,4.52,5.1,2,3.63,17.37,16.78h2.55l1.18-2.75,3.24,1,2.16-3.53,1.67,1.18,3.83.69-25.72,25.62Z"/><path id="Fill-6" class="cls-5" d="M475.82,68.19a9.38,9.38,0,0,0-2.16,3.24l-.1.2a8.54,8.54,0,0,1-1.77,2.55l-2.55,2.55L462,69.56a10.42,10.42,0,0,0,3.14-.49.84.84,0,0,0,.49-1.18l-.49-1a.69.69,0,0,0-.88-.39,11,11,0,0,1-5.2,0l-3.73-3.73h0a1.5,1.5,0,0,0-1-.39h-3.14a2.56,2.56,0,0,1-2.45-2.45.76.76,0,0,1,.79-.69h11.19A6.68,6.68,0,0,0,465,57.19l2-2,11,11Zm-6.48,14.33h0a1.24,1.24,0,0,1-1.77,0l-8-8a1.39,1.39,0,0,0-2,2s9.91,9.82,9.91,9.91a1.33,1.33,0,0,1-.1,1.67,1.24,1.24,0,0,1-1.77,0l-10.5-10.5a1.39,1.39,0,0,0-2,2l8.93,8.93a1.33,1.33,0,0,1-.2,1.57,1.46,1.46,0,0,1-.88.39,1,1,0,0,1-.88-.39l-9.82-9.72a1.39,1.39,0,1,0-2,2l8.44,8.44a1.33,1.33,0,0,1-.2,1.57,1.24,1.24,0,0,1-1.77,0L439.41,77a6.39,6.39,0,0,1-1.47-2.26v-.29a9.86,9.86,0,0,0-2.16-3.24l-2-2,10.9-11,1.37,1.37v.49a5.28,5.28,0,0,0,5.2,5.1h2.55l15.61,15.61A1.22,1.22,0,0,1,469.35,82.52Zm17-19.93-15.8-15.71a1.49,1.49,0,0,0-2,0L464.44,51a1.2,1.2,0,0,0-.39.88,1,1,0,0,0,.39.88l.59.59-2,2a4.8,4.8,0,0,1-2.75,1.28h-10.8a2.67,2.67,0,0,0-2,.69l-.88-.88.49-.49a1.2,1.2,0,0,0,.39-.88,1,1,0,0,0-.39-.88L443,50a1.49,1.49,0,0,0-2,0l-15.8,15.71a1.49,1.49,0,0,0,0,2l4.12,4.12a1.42,1.42,0,0,0,2,0l.39-.39,2,2a6.39,6.39,0,0,1,1.47,2.26l.1.2a9.86,9.86,0,0,0,2.16,3.24L452.76,94.3a3.93,3.93,0,0,0,2.85,1.18,4,4,0,0,0,3.73-2.55,3.78,3.78,0,0,0,4.42-.88,4.61,4.61,0,0,0,.88-1.18,4,4,0,0,0,5.4-5.4,4.93,4.93,0,0,0,1.18-.79h0a4,4,0,0,0,0-5.69l-.1-.1,2.55-2.55a12.45,12.45,0,0,0,2.45-3.53l.1-.2a7.49,7.49,0,0,1,1.47-2.26l2-2,.39.39a1.42,1.42,0,0,0,2,0l4.12-4.12A1.3,1.3,0,0,0,486.33,62.59Z"/><g id="Group-3-2" data-name="Group-3"><path id="Fill-1-2" data-name="Fill-1" class="cls-2" d="M724.85,70.56c0,25.62-21,46.43-47,46.43a46.63,46.63,0,0,1-46.92-46.43c0-25.62,21-46.43,47-46.43a46.56,46.56,0,0,1,46.92,46.43"/></g><path id="Fill-4-2" data-name="Fill-4" class="cls-4" d="M709.93,83l-33.67,33.37-.49.29A46.69,46.69,0,0,1,631.11,72.8l.49-.69L653,50.91,654.27,83l6.38.79,1.47,4.52L665.46,90,669,87.82l1.18-4h23.36l1.67,4.81,4.12.69L702,87.52l.88-3.93Z"/><path id="Fill-6-2" data-name="Fill-6" class="cls-5" d="M688,84.68a1.13,1.13,0,0,1-1.18-1.18V54a1.19,1.19,0,0,0-1.18-1.18H655.74A1.13,1.13,0,0,0,654.57,54v2.36a1.19,1.19,0,0,1-1.18,1.18,1.13,1.13,0,0,1-1.18-1.18V54a3.58,3.58,0,0,1,3.53-3.53h29.84A3.52,3.52,0,0,1,689.12,54V83.5A1,1,0,0,1,688,84.68"/><path id="Fill-8" class="cls-5" d="M655.74,52.19h29.84A1.76,1.76,0,0,1,687.35,54V83.5a.63.63,0,0,0,.59.59.57.57,0,0,0,.59-.59V54A3,3,0,0,0,685.58,51H655.74A3,3,0,0,0,652.8,54v2.36a.63.63,0,0,0,.59.59.57.57,0,0,0,.59-.59V54a1.76,1.76,0,0,1,1.77-1.77M688,85.37a1.76,1.76,0,0,1-1.77-1.77V54a.63.63,0,0,0-.59-.59H655.84a.57.57,0,0,0-.59.59v2.36a1.77,1.77,0,0,1-3.53,0V54a4.17,4.17,0,0,1,4.22-4.12h29.84A4.23,4.23,0,0,1,690,54V83.5a2,2,0,0,1-2,1.86"/><path id="Fill-10" class="cls-5" d="M657,84.68h-1.28a3.52,3.52,0,0,1-3.53-3.53V75.26a1.18,1.18,0,1,1,2.36,0v5.89a1.19,1.19,0,0,0,1.18,1.18h1.18a1.13,1.13,0,0,1,1.18,1.18A1.11,1.11,0,0,1,657,84.68"/><path id="Fill-12" class="cls-5" d="M653.39,74.67a.57.57,0,0,0-.59.59v5.89a3,3,0,0,0,2.94,2.94h1.18a.57.57,0,0,0,.59-.59.63.63,0,0,0-.59-.59h-1.18A1.76,1.76,0,0,1,654,81.14V75.26a.63.63,0,0,0-.59-.59M657,85.37h-1.28a4.23,4.23,0,0,1-4.22-4.12V75.35a1.77,1.77,0,0,1,3.53,0v5.89a.63.63,0,0,0,.59.59h1.18a1.76,1.76,0,0,1,1.77,1.77A1.54,1.54,0,0,1,657,85.37"/><path id="Fill-14" class="cls-5" d="M690.39,84.68H673.61a1.13,1.13,0,0,1-1.18-1.18,1.19,1.19,0,0,1,1.18-1.18h16.78a1.13,1.13,0,0,1,1.18,1.18,1.08,1.08,0,0,1-1.18,1.18"/><path id="Fill-16" class="cls-5" d="M673.71,82.91a.57.57,0,0,0-.59.59.63.63,0,0,0,.59.59h16.78a.59.59,0,1,0,0-1.18Zm16.69,2.45H673.61a1.77,1.77,0,1,1,0-3.53h16.78a1.77,1.77,0,1,1,0,3.53Z"/><path id="Fill-18" class="cls-5" d="M706,84.68a1.13,1.13,0,0,1-1.18-1.18A1.19,1.19,0,0,1,706,82.32a1.19,1.19,0,0,0,1.18-1.18V65.83c0-5.69-4.32-5.89-4.81-5.89h-12a1.13,1.13,0,0,0-1.18,1.18,1.18,1.18,0,1,1-2.36,0,3.58,3.58,0,0,1,3.53-3.53h12c2.45,0,7.17,1.67,7.17,8.25V81.24A3.5,3.5,0,0,1,706,84.68"/><path id="Fill-20" class="cls-5" d="M690.39,59.26h12c2,0,5.4,1.47,5.4,6.48V81.14A1.76,1.76,0,0,1,706,82.91a.57.57,0,0,0-.59.59.63.63,0,0,0,.59.59,3,3,0,0,0,2.94-2.94V65.83c0-6.09-4.32-7.66-6.58-7.66h-12a3,3,0,0,0-2.94,2.94.63.63,0,0,0,.59.59.57.57,0,0,0,.59-.59,1.78,1.78,0,0,1,1.77-1.86M706,85.37a1.77,1.77,0,1,1,0-3.53.57.57,0,0,0,.59-.59V65.83c0-5-3.53-5.3-4.22-5.3H690.49a.57.57,0,0,0-.59.59,1.77,1.77,0,0,1-3.53,0A4.17,4.17,0,0,1,690.59,57h12c2.75,0,7.75,1.86,7.75,8.93V81.34a4.46,4.46,0,0,1-4.32,4"/><path id="Fill-22" class="cls-5" d="M696.09,65.64A1.09,1.09,0,0,0,695,66.72V70A1.09,1.09,0,0,0,696.09,71h4.32A1.09,1.09,0,0,0,701.49,70V66.72a1.09,1.09,0,0,0-1.08-1.08ZM700.31,73H696a3.27,3.27,0,0,1-3.24-3.24V66.52A3.27,3.27,0,0,1,696,63.28h4.32a3.27,3.27,0,0,1,3.24,3.24v3.24A3.15,3.15,0,0,1,700.31,73Z"/><path id="Fill-24" class="cls-5" d="M696.09,66.13a.46.46,0,0,0-.49.49v3.24a.46.46,0,0,0,.49.49h4.32a.46.46,0,0,0,.49-.49V66.62a.46.46,0,0,0-.49-.49Zm4.22,5.2H696a1.55,1.55,0,0,1-1.57-1.57V66.52A1.55,1.55,0,0,1,696,64.95h4.32a1.55,1.55,0,0,1,1.57,1.57v3.24A1.44,1.44,0,0,1,700.31,71.33ZM696.09,64a2.72,2.72,0,0,0-2.75,2.65v3.24a2.66,2.66,0,0,0,2.75,2.65h4.32a2.72,2.72,0,0,0,2.75-2.65V66.62A2.66,2.66,0,0,0,700.41,64Zm4.22,9.62H696a3.73,3.73,0,0,1-3.73-3.73V66.62A3.73,3.73,0,0,1,696,62.89h4.32A3.73,3.73,0,0,1,704,66.62v3.24A3.67,3.67,0,0,1,700.31,73.59Z"/><path id="Fill-26" class="cls-5" d="M663,62.2H651a1.18,1.18,0,0,1,0-2.36h12A1.13,1.13,0,0,1,664.19,61,1.26,1.26,0,0,1,663,62.2"/><path id="Fill-28" class="cls-5" d="M651,60.43a.57.57,0,0,0-.59.59.63.63,0,0,0,.59.59h12a.57.57,0,0,0,.59-.59.63.63,0,0,0-.59-.59Zm12,2.36H651a1.77,1.77,0,1,1,0-3.53h12A1.76,1.76,0,0,1,664.78,61,1.82,1.82,0,0,1,663,62.79Z"/><path id="Fill-30" class="cls-5" d="M661.73,66.91h-12a1.18,1.18,0,0,1,0-2.36h12a1.13,1.13,0,0,1,1.18,1.18,1.08,1.08,0,0,1-1.18,1.18"/><path id="Fill-32" class="cls-5" d="M649.76,65.15a.57.57,0,0,0-.59.59.63.63,0,0,0,.59.59h12a.59.59,0,0,0,0-1.18Zm12,2.45h-12a1.77,1.77,0,1,1,0-3.53h12a1.76,1.76,0,0,1,1.77,1.77A1.7,1.7,0,0,1,661.73,67.6Z"/><path id="Fill-34" class="cls-5" d="M659.38,71.72h-12a1.18,1.18,0,0,1,0-2.36h12a1.13,1.13,0,0,1,1.18,1.18,1.27,1.27,0,0,1-1.18,1.18"/><path id="Fill-36" class="cls-5" d="M647.4,70a.57.57,0,0,0-.59.59.63.63,0,0,0,.59.59h12a.59.59,0,0,0,0-1.18Zm12,2.36h-12a1.77,1.77,0,1,1,0-3.53h12a1.76,1.76,0,0,1,1.77,1.77A1.7,1.7,0,0,1,659.38,72.31Z"/><path id="Fill-38" class="cls-5" d="M665.36,81.14a3.52,3.52,0,0,0-3.53,3.53,3.58,3.58,0,0,0,3.53,3.53,3.52,3.52,0,0,0,3.53-3.53,3.58,3.58,0,0,0-3.53-3.53m0,9.42a5.89,5.89,0,1,1,6-5.89,5.93,5.93,0,0,1-6,5.89"/><path id="Fill-40" class="cls-5" d="M665.36,81.73a2.94,2.94,0,0,0,0,5.89,3,3,0,0,0,2.94-2.94,3,3,0,0,0-2.94-2.94m0,7.07a4.23,4.23,0,0,1-4.22-4.12,4.17,4.17,0,0,1,4.22-4.12,4.23,4.23,0,0,1,4.22,4.12,4.17,4.17,0,0,1-4.22,4.12m0-9.42a5.28,5.28,0,0,0-5.3,5.3,5.34,5.34,0,0,0,5.3,5.3,5.3,5.3,0,0,0,0-10.6m0,11.78a6.48,6.48,0,1,1,6.58-6.48,6.56,6.56,0,0,1-6.58,6.48"/><path id="Fill-42" class="cls-5" d="M698.15,81.14a3.52,3.52,0,0,0-3.53,3.53,3.58,3.58,0,0,0,3.53,3.53,3.52,3.52,0,0,0,3.53-3.53,3.4,3.4,0,0,0-3.53-3.53m0,9.42a5.89,5.89,0,1,1,6-5.89,5.87,5.87,0,0,1-6,5.89"/><path id="Fill-44" class="cls-5" d="M698.15,81.73a2.94,2.94,0,0,0,0,5.89,3,3,0,0,0,2.94-2.94,2.83,2.83,0,0,0-2.94-2.94m0,7.07a4.23,4.23,0,0,1-4.22-4.12,4.17,4.17,0,0,1,4.22-4.12,4.23,4.23,0,0,1,4.22,4.12,4.17,4.17,0,0,1-4.22,4.12m0-9.42a5.28,5.28,0,0,0-5.3,5.3,5.34,5.34,0,0,0,5.3,5.3,5.28,5.28,0,0,0,5.3-5.3,5.1,5.1,0,0,0-5.3-5.3m0,11.78a6.48,6.48,0,1,1,6.58-6.48,6.43,6.43,0,0,1-6.58,6.48"/><g id="Group-3-3" data-name="Group-3"><path id="Fill-1-3" data-name="Fill-1" class="cls-2" d="M935,70.82A47,47,0,1,1,888,23.9a47,47,0,0,1,47,46.92"/></g><path id="Fill-4-3" data-name="Fill-4" class="cls-4" d="M911,92.53l-25,24.93-.2.29a47.09,47.09,0,0,1-43.88-37.4l-.1-.29,24.34-24.34L868,59.45V91H908.2Z"/><path id="Fill-6-3" data-name="Fill-6" class="cls-5" d="M872.38,55.72h32.39l-6.09-5.5H878.46ZM870.12,89H907V59.55H870.12Zm39,3.83H868.25a2,2,0,0,1-2-2V57.39a1.71,1.71,0,0,1,.39-1.18L876.2,47a1.92,1.92,0,0,1,1.47-.69h22a1.92,1.92,0,0,1,1.47.69l9.42,9.13a1.89,1.89,0,0,1,.39,1.18V90.76A1.92,1.92,0,0,1,909.09,92.83Z"/><path id="Fill-8-2" data-name="Fill-8" class="cls-5" d="M873.95,55.13H903.2l-4.81-4.32H878.66Zm32.49,1.08H870.81l7.46-6.67H899Zm-35.63,32.2h35.73V60.14H870.81Zm-1.28,1.18h38.08V59H869.53Zm8-42.6a1.14,1.14,0,0,0-1,.39l-9.52,9.23a1.52,1.52,0,0,0-.2.79V90.86a1.4,1.4,0,0,0,1.37,1.37h40.83a1.4,1.4,0,0,0,1.37-1.37V57.49a1.37,1.37,0,0,0-.29-.88l-9.42-9a1.36,1.36,0,0,0-1.08-.59Zm31.51,46.43H868.25a2.53,2.53,0,0,1-2.55-2.55V57.39a2.23,2.23,0,0,1,.59-1.57l9.52-9.23a2.6,2.6,0,0,1,1.86-.88h22a2.56,2.56,0,0,1,2,1l9.42,9a2.2,2.2,0,0,1,.59,1.67V90.86A2.67,2.67,0,0,1,909.09,93.41Z"/><path id="Fill-10-2" data-name="Fill-10" class="cls-5" d="M886.22,79.28a1.94,1.94,0,0,1-1.37-.59l-4.32-4.32a1.94,1.94,0,0,1,2.75-2.75l2.94,2.94L894,66.81a1.94,1.94,0,1,1,2.75,2.75l-9,9.13a2.36,2.36,0,0,1-1.47.59"/><path id="Fill-12-2" data-name="Fill-12" class="cls-2" d="M886.22,79.87a2.62,2.62,0,0,1-1.77-.69l-4.32-4.32a2.5,2.5,0,0,1,3.53-3.53l2.45,2.45,7.36-7.36a2.24,2.24,0,0,1,1.86-.69,2.46,2.46,0,0,1,1.77.79,2.37,2.37,0,0,1,.69,1.77,2.82,2.82,0,0,1-.69,1.77L888,79.18a2.37,2.37,0,0,1-1.77.69"/><path id="Fill-1-4" data-name="Fill-1" class="cls-2" d="M344.53,116.53a1.93,1.93,0,0,1-1.55-.68,2.17,2.17,0,0,1,0-3.1l6.21-6.21L343,100.34a2.19,2.19,0,1,1,3.1-3.1l7.08,7.08a3,3,0,0,1,.87,2.23,3.76,3.76,0,0,1-.87,2.23l-7.08,7.08a1.93,1.93,0,0,1-1.55.68"/><path id="Fill-1-5" data-name="Fill-1" class="cls-2" d="M559.8,116.63a1.81,1.81,0,0,1-1.55-.68,2.17,2.17,0,0,1,0-3.1l6.3-6.3-6.3-6.21a2.17,2.17,0,0,1,0-3.1,2.28,2.28,0,0,1,3.2,0l7.18,7.18a3.1,3.1,0,0,1,1,2.23,3.34,3.34,0,0,1-1,2.23l-7.27,7.08a1.93,1.93,0,0,1-1.55.68"/><path id="Fill-1-6" data-name="Fill-1" class="cls-2" d="M788.5,116.53a1.93,1.93,0,0,1-1.55-.68,2.17,2.17,0,0,1,0-3.1l6.21-6.21-6.21-6.21a2.19,2.19,0,1,1,3.1-3.1l7.08,7.08a3.42,3.42,0,0,1,.87,2.23,3.76,3.76,0,0,1-.87,2.23L790,115.85a1.93,1.93,0,0,1-1.55.68"/><g class="cls-1"><path class="cls-2" d="M191.93,38.43V32.62h7.18v5.82h-1.45v2.91c.82-.36,1.45-.73,2.18-1.09l.45,1.45a19.51,19.51,0,0,1-4.36,2.09l-.55-1.54a1.35,1.35,0,0,0,.55-1.18V38.43H195a6.41,6.41,0,0,1-.82,3.18,7,7,0,0,1-2.64,2.45l-1.09-1.45a6.84,6.84,0,0,0,2.09-1.73,5.32,5.32,0,0,0,.64-2.45Zm-.64-10.63V26.07h3.18a4.75,4.75,0,0,0-.64-1.36l2-.27a16.39,16.39,0,0,0,.45,1.73h2.91v1.73h-.91L197.83,30h1.73v1.73h-8.63V30h2l-.36-2.09-1.27-.09Zm5.91,6.54h-3.45v2.54h3.45ZM196,29.89l.45-2.09h-2.18l.36,2.09Zm10.72,13.72c-1.09,0-1.64-.64-1.64-1.82V38.52h-1a6.71,6.71,0,0,1-.82,3.18,7.67,7.67,0,0,1-2.45,2.36l-1.09-1.45a5.41,5.41,0,0,0,2-1.73,6.22,6.22,0,0,0,.64-2.36H201.1V32.71h7.27v5.82h-1.54v2.82c0,.36.09.55.45.55h.64a.79.79,0,0,0,.55-.27,8.3,8.3,0,0,0,.27-1.82l1.54.45c-.09,1.54-.36,2.64-.64,2.82a2.34,2.34,0,0,1-1.27.45l-1.64.09ZM200.56,27.8V26.07h3.27a4.75,4.75,0,0,0-.64-1.36l2-.27a9.58,9.58,0,0,1,.45,1.73h3.27v1.73h-1.09L207.28,30h2.27v1.73H200.1V30h2.09l-.36-2.18Zm6,6.54H203v2.54h3.54Zm-1.09-4.45L206,27.8h-2.36l.45,2.09Z"/><path class="cls-2" d="M216.55,43.88h-1.91V33.62a25.26,25.26,0,0,1-2.27,5l-.91-2.27a20.46,20.46,0,0,0,3-6.54H212.1V27.89h2.45V24.26h1.91V28h2.18v1.91h-2.18v1c.82,1,1.82,2.09,2.64,3.27L218,36c-.64-1.09-1.09-2.09-1.45-2.82V43.88Zm5.82-3.54A15.57,15.57,0,0,1,219,43.88l-1.09-1.45a15.54,15.54,0,0,0,3.27-3.18ZM222.55,28V26.71H219V25h11.81v1.73h-3.36V28h3v5.18H219.37V28Zm-.36,15.9-.45-1.82a8.31,8.31,0,0,0,1.45.09c.45,0,.64-.18.64-.64V38.61h-4.72V36.89h11.72v1.73h-5.09V42a1.7,1.7,0,0,1-1.82,1.91ZM230,34.16v1.73h-9.9V34.16Zm-7.27-4.63h-1.45v2.18h1.45Zm1.45-2.82V28h1.54V26.71Zm1.54,2.82h-1.45v2.18h1.54l-.09-2.18Zm5.63,12.9-1.27,1.27a22.34,22.34,0,0,0-2.91-3.36l1.18-1.18Zm-2.64-12.9h-1.45v2.18h1.45Z"/><path class="cls-2" d="M243.72,25.89h8.18V27.8h-5.63l1.54.55a21.44,21.44,0,0,1-1.18,2.09h4.54V41.61A1.93,1.93,0,0,1,249,43.79h-2.18l-.55-1.73h-7.91V36.43h8.27V42h1.73a.72.72,0,0,0,.82-.82V32.07h-3.36v1.27c0,.45.18.73.64.73h2.18v1.64h-2.91c-1.09,0-1.64-.55-1.64-1.45V32.16h-2.82A5.73,5.73,0,0,1,240.17,35,7.67,7.67,0,0,1,237,37l-.82-1.54A6.26,6.26,0,0,0,238.63,34a4.8,4.8,0,0,0,.82-1.82h-3.36V43.79h-2V30.44h4.45a21.83,21.83,0,0,0-1-2.09l1.36-.55h-5.54V25.89h8.18a9.76,9.76,0,0,0-.64-1.36l2.18-.36C243.26,24.71,243.54,25.26,243.72,25.89Zm.73,4.45a18.2,18.2,0,0,0,1.36-2.64h-6.45a11.46,11.46,0,0,1,1.09,2.64Zm.36,7.91h-4.45v2.18h4.45Z"/><path class="cls-2" d="M262.71,43.7h-2v-1H256.8v1h-2V34.16h7.81V43.7Zm-1.91-3V36h-3.91V40.7Zm9-15.63v7.45h-12V25.07Zm-2,1.91h-8v3.63h8Zm4.82,16.72h-2v-1h-4.09v1h-2V34.16h8V43.7Zm-2-3V36h-4.09V40.7Z"/></g><g class="cls-1"><path class="cls-3" d="M196.2,54h4.72v.82H190.47V54h4.82a9.43,9.43,0,0,0-.36-.91l.91-.18A7.57,7.57,0,0,1,196.2,54Zm-1.82,2.45h2.45a14.7,14.7,0,0,0,.91-1.64l.82.27c-.27.55-.55.91-.82,1.36h2.64v6.45A1,1,0,0,1,199.29,64H198l-.18-.82H199c.27,0,.45-.18.45-.55V57.15h-2.18v1c0,.27.09.45.36.45H199v.73h-1.73c-.55,0-.82-.27-.82-.73V57.24h-1.82A3.28,3.28,0,0,1,194,59a3.88,3.88,0,0,1-1.82,1.09l-.36-.73a2.87,2.87,0,0,0,1.45-.91,2.36,2.36,0,0,0,.55-1.27h-2.18v6.72h-.82V56.42h2.64a9.17,9.17,0,0,0-.64-1.36l.82-.27A6.82,6.82,0,0,1,194.38,56.42ZM198,59.87V63h-4.54V59.87Zm-.91.73H194.2v1.54h2.91Z"/><path class="cls-3" d="M207,63.87h-.82v-.64h-2.54v.64h-.82V58.6h4.27L207,63.87Zm-.82-1.45v-3h-2.54v3Zm4.82-9v3.91h-6.63V53.42Zm-.82.82h-4.91v2.27h4.91Zm2.45,9.63h-.91v-.64H209.1v.64h-.82V58.6h4.36v5.27Zm-.91-1.45v-3H209.1v3Z"/><path class="cls-3" d="M217.64,53.24a9,9,0,0,1-3.27,3.45l-.27-.82a8.78,8.78,0,0,0,2.82-3Zm-3.18,6.81-.27-.82A8.77,8.77,0,0,0,217,56l.73.36A5.16,5.16,0,0,1,216.64,58v6h-.82V58.88A5.81,5.81,0,0,1,214.46,60.06Zm10.45-2v.73h-1.45v1h1.73v.73h-1.73v2.27c0,.64-.36,1-1.09,1H221l-.18-.82c.45,0,.82.09,1.18.09s.45-.18.45-.45V60.51h-5.09v-.73h5.09v-1h-4.63v-.73Zm-.73-4.63v3.82h-5.72V53.42Zm-3.36,9.36-.64.45a12.69,12.69,0,0,0-1.54-1.82l.64-.45A20.88,20.88,0,0,1,220.82,62.78ZM223.36,55v-.91h-4V55Zm0,.64h-4v.91h4Z"/><path class="cls-3" d="M228.82,64H228V57.6a17.84,17.84,0,0,1-1.45,3.27l-.36-.91A12.31,12.31,0,0,0,228,56h-1.45v-.82H228V53h.82v2.18h1.27V56h-1.27v.73c.55.64,1.09,1.27,1.64,2l-.55.73q-.68-1.23-1.09-1.91Zm3.54-2.09a8.35,8.35,0,0,1-2,2l-.45-.64a9.49,9.49,0,0,0,1.91-1.91Zm.09-6.81v-.91h-2.09v-.73H237v.73h-2v.91h1.82v2.82h-6.09V55.06Zm4.63,5.09v.73h-3V64h-.82V60.87h-2.82v-.73Zm-.55-1.54v.73H231V58.6Zm-4-2.91h-1.09v1.45h1.09Zm.64-1.54v.91h1.18v-.91Zm1.09,1.54h-1.09v1.45h1.09Zm1.82,0H235v1.45h1.09Zm1.18,7.63-.55.55a15.78,15.78,0,0,0-1.73-2l.55-.55C236.18,62.06,236.81,62.69,237.27,63.33Z"/><path class="cls-3" d="M248.35,59.33v.73l-6.09,2.73v-.91l4.91-2.18-4.91-2.18V56.6Z"/><path class="cls-3" d="M254.89,55.88V53h.82v2.91H257v.82h-1.27v3.73c.36-.18.82-.27,1.18-.45v.82a17.22,17.22,0,0,1-3.27,1l-.18-.82a8.51,8.51,0,0,0,1.45-.36v-4h-1.36v-.82l1.36.09ZM260,62.42a9.3,9.3,0,0,1-2.64,1.64l-.55-.64a10,10,0,0,0,2.54-1.54Zm.36-8.54V53h.82v.91h3v.73h-3v.82h2.27V61h1.09v.73h-7.63V61H258V55.42h2.27V54.6h-3v-.73Zm2.27,3v-.73h-3.73v.73Zm0,1.36v-.73h-3.73v.73Zm0,1.27v-.73h-3.73v.73Zm0,1.45v-.82h-3.73V61Zm1.73,2.45-.55.64a10.93,10.93,0,0,0-2.36-1.64L262,62A8.66,8.66,0,0,1,264.34,63.42Z"/><path class="cls-3" d="M272.34,63.24h1.09a1.24,1.24,0,0,0,1.09-.45,7.39,7.39,0,0,0,.36-2.18h-6.72a9,9,0,0,1-1.82,1.18l-.55-.64a10.53,10.53,0,0,0,2.82-2h-1.27V55.51a12.75,12.75,0,0,0,2.91-.55l.36.64a8.21,8.21,0,0,1-2.54.55V57h2.36v.64h-2.36v.82h5.72V57.6h-2.18V57h2.18v-.82h-2.36v-.73h3.18v3.63h-5.09a5.19,5.19,0,0,1-.64.73h6.72a17,17,0,0,1-.18,2.45,2.08,2.08,0,0,1-.55,1.27,1.54,1.54,0,0,1-1.18.36h-1.27ZM276,56.06h-.82V54.7H266.8v1.45H266V54h4.54a6.59,6.59,0,0,0-.45-.82L271,53a10.66,10.66,0,0,1,.45,1H276Zm-7.72,5.36a8,8,0,0,1-.82,2.36l-.82-.27a7.4,7.4,0,0,0,.82-2.27Zm2.09,2-.82.18c-.09-.82-.27-1.54-.36-2.09l.73-.18C270,62,270.16,62.69,270.34,63.42Zm1.82-.45-.73.18c-.18-.64-.36-1.27-.55-1.82l.73-.18C271.79,61.69,272,62.33,272.16,63Zm1.82-.55-.64.27a11.47,11.47,0,0,0-.64-1.45l.64-.27A10.1,10.1,0,0,1,274,62.42Z"/><path class="cls-3" d="M282.52,55.24v-1c-1.09.09-2.27.09-3.54.09l-.27-.73a60.31,60.31,0,0,0,7.81-.45l.45.73a35,35,0,0,1-3.63.36v1.09h4.45v.82H283.7a42.55,42.55,0,0,1,4.54,2l-.55.64a38.44,38.44,0,0,0-4.27-2.27v1.73h-.91V56.06h-.09a8.84,8.84,0,0,1-4.27,2.64l-.45-.82a10.43,10.43,0,0,0,3.91-1.82h-3.45v-.82Zm.27,3.36-.55.82h5.91v.82H286a8.94,8.94,0,0,1-1.54,2c1.09.36,2.18.73,3.27,1.18l-.55.73c-1.18-.45-2.36-.91-3.45-1.27a9.37,9.37,0,0,1-5.09,1.27l-.45-.73a11,11,0,0,0,4.54-.82,19.41,19.41,0,0,0-3.09-.82l1.09-1.36h-2.82V59.6h3.36a9.52,9.52,0,0,1,.73-1Zm-1.09,1.54a9.66,9.66,0,0,1-.82,1c.91.18,1.73.45,2.64.73a5.7,5.7,0,0,0,1.54-1.73Z"/><path class="cls-3" d="M292.06,54.42l-.45.18h2v.82h-4.09V54.6h1.73a9.17,9.17,0,0,0-.64-1.36l.82-.27A3.4,3.4,0,0,1,292.06,54.42Zm1.27,9.45h-.82v-.64h-1.82v.64h-.82V59.78h3.36l.09,4.09Zm-.09-7.54v.73h-3.18v-.73Zm0,1.64v.73h-3.18V58Zm-.73,4.45V60.51h-1.82v1.91Zm7.27-8.54a15.46,15.46,0,0,1-2.91.91V58l3.36-.09v.82l-3.36.18V62.6c0,.27.18.45.55.45h1.45a.55.55,0,0,0,.55-.27,6.22,6.22,0,0,0,.27-2l.82.27a7.06,7.06,0,0,1-.45,2.45,1.13,1.13,0,0,1-1,.36h-1.82a1,1,0,0,1-1.09-1.09V59l-2,.09v-.82l2-.09v-3a10.06,10.06,0,0,1-1.73.18l-.27-.73a16.61,16.61,0,0,0,5.27-1.27Z"/><path class="cls-3" d="M311.23,56.6v4H307.5v1h4.72v.73H307.5V64h-.91V62.33h-4.72V61.6h4.72v-1h-3.73v-4Zm-4.72-3.27v2.54h-4.18V53.33Zm-.82.64h-2.54v1.18h2.45V54Zm.82,4.27v-1H303.6v1Zm0,.64H303.6v1h2.91Zm.91-.64h2.91v-1h-2.91Zm2.91.64h-2.91v1h2.91Zm1.27-5.54v2.54h-4.18V53.33Zm-.82.64h-2.45v1.27h2.45Z"/></g><g class="cls-1"><path class="cls-2" d="M196,140.49V142a23.63,23.63,0,0,1-2.27,3.27h2.54v1.36c-.27,1.54-.64,2.82-.91,3.91a2.41,2.41,0,0,1,.55.45,7.82,7.82,0,0,0,2,1.36,9.22,9.22,0,0,0,2.64.45h4c1.54,0,3.54-.09,6-.18l-.45,1.91h-5.27c-1.45,0-2.91,0-4.36-.09a7.59,7.59,0,0,1-3.27-.55,7.71,7.71,0,0,1-2.45-1.64.67.67,0,0,0-.55-.18c-.45,0-1.09.91-2,2.73l-1.45-1.36c.91-1.82,1.82-2.82,2.73-3.18a12.33,12.33,0,0,0,.82-3.27h-2.91v-1.54a33.5,33.5,0,0,0,2.45-3.18H191v-1.82Zm-.18-2.09-1.27,1.27a26.17,26.17,0,0,0-3.18-3l1.27-1.27A25.54,25.54,0,0,1,195.79,138.4Zm6,4.45v1.09h2.91v-1.09h1.82v1.09h2.64v1.64h-2.64V147h3.18v1.73h-4.45a35.86,35.86,0,0,1,4.18,2.09l-.91,1.45a17,17,0,0,0-4.36-2.36l.82-1.18h-3.91l1,.91a20.25,20.25,0,0,1-4,2.54l-1-1.36a17.33,17.33,0,0,0,3.63-2.09H196.6v-1.64h3.18v-1.45h-2.64V144h2.64v-1.09h2Zm-3-2.45a.57.57,0,0,0,.64.64H203v1.36H198.6c-.91,0-1.45-.45-1.45-1.27v-5.18h5.54v3.91h-3.91v.55Zm0-3.09v1.09h2.27v-1.09Zm6,9.81v-1.45h-2.91v1.45Zm.45-6.72c0,.36.18.64.73.64h3.54v1.36h-4.36c-1,0-1.45-.45-1.45-1.18V136h5.63v3.91h-4v.45Zm0-3.09v1.09h2.36v-1.09Z"/><path class="cls-2" d="M228,141.4v1.91h-5.27v3.18h6.09v1.91h-6.09v3.91a41.39,41.39,0,0,0,5.36.36c1,0,2.18-.09,3.27-.18l-.36,2h-2c-4.45,0-7.72-.45-9.54-1.18a7.47,7.47,0,0,1-3.27-2.73,16.86,16.86,0,0,1-3,4.36l-1.27-1.64a16.86,16.86,0,0,0,4.09-8.36l2,.36c-.27,1.18-.64,2.45-.91,3.45a6.9,6.9,0,0,0,3.73,3.18H221V143.4H215.5v-1.91L228,141.4Zm2.64.73h-2v-2.91H214.78v3h-2v-4.91h8a16.89,16.89,0,0,0-.91-1.82l2.18-.36a15.47,15.47,0,0,1,.82,2.18h7.81l-.09,4.82Z"/><path class="cls-2" d="M244,136.86h8.27v1.91h-5.63l1.54.55A21.44,21.44,0,0,1,247,141.4h4.54v11.18a1.93,1.93,0,0,1-2.18,2.18h-2.09l-.55-1.73h-8V147.4h8.36v5.54h1.73c.55,0,.82-.27.82-.91v-9.09h-3.36v1.27c0,.45.18.73.64.73h2.18v1.64h-2.91c-1.09,0-1.64-.55-1.64-1.45V143h-2.82a5.73,5.73,0,0,1-1.09,2.82,7.67,7.67,0,0,1-3.18,2l-.82-1.54a6.25,6.25,0,0,0,2.54-1.45A4.8,4.8,0,0,0,240,143h-3.36v11.63h-2V141.31h4.45a21.83,21.83,0,0,0-1-2.09l1.36-.55h-5.63v-1.91h8.27a9.76,9.76,0,0,0-.64-1.36l2.18-.36A3.43,3.43,0,0,0,244,136.86Zm.73,4.45a17.35,17.35,0,0,0,1.36-2.54h-6.45a12.63,12.63,0,0,1,1.09,2.54Zm.36,7.91h-4.45v2.18h4.45Z"/><path class="cls-2" d="M263.12,154.57h-2v-1h-4v1h-2V145h7.81l.18,9.54Zm-1.91-2.91v-4.72h-4v4.72Zm9-15.63v7.45H258.12V136Zm-2,1.91h-8v3.63h8ZM273,154.57h-2v-1h-4.18v1h-2V145h8.09l.09,9.54Zm-2-2.91v-4.72h-4.18v4.72Z"/></g><g class="cls-1"><path class="cls-3" d="M192.06,163.93v3h1.45v-3.27h.82v11h-.82V170.2h-1.09a12.27,12.27,0,0,1-1.09,4.54l-.64-.45a11.36,11.36,0,0,0,.91-4.09h-.91v-.91h2.73v-1.64h-2.27v-3.82h.91Zm3.27,2.36-.45-.64a5.55,5.55,0,0,0,3.09-2.18l.82.09a5.52,5.52,0,0,1-.64.91h3.18v.64c-.82,1.91-2.73,3.27-5.82,4.09l-.36-.73c2.73-.64,4.45-1.73,5.27-3.27h-3.09l-.09.09a10.7,10.7,0,0,1,1.73,1l-.45.55a9.63,9.63,0,0,0-1.82-1.09Zm4.09,3.36v-1.54h.82v1.54h1.45v.82h-1.45v3c0,.73-.36,1.09-1,1.09H197.6l-.18-.82c.55,0,1,.09,1.54.09a.48.48,0,0,0,.55-.55v-2.82H195v-.82Zm-4.36-2.54,2.27-.55.18.55a15.28,15.28,0,0,1-2.18.64Zm2.82,5.54-.73.45a18,18,0,0,0-1.45-1.82l.64-.45A11.77,11.77,0,0,1,197.88,172.66Z"/><path class="cls-3" d="M204.51,172.11a8.23,8.23,0,0,1-1.18,2.36l-.64-.36a14.33,14.33,0,0,0,1.18-2.36Zm1.91-8.09v7.36h-3.27V164Zm-.82,2.09v-1.36h-1.73v1.36Zm0,2.18v-1.45h-1.73v1.45Zm0,.73h-1.73v1.54h1.73Zm1.27,4.82-.64.45c-.27-.64-.73-1.36-1.18-2.18l.64-.36C206.14,172.56,206.51,173.2,206.87,173.84Zm2.45-10.36v.91h1.91v-.91h.82v.91h1.45v.73H212v.82h1.27v.64H212v.82h1.73v.73H210.6v.73h2.45v3h.64v.73h-.64v1a.89.89,0,0,1-1,.91h-1l-.18-.73h.91c.27,0,.45-.09.45-.36v-.82h-4.09v1.91h-.73v-1.91h-.73v-.73h.73v-3h2.45v-.73h-3v-.64h1.73v-.82h-1.27V166h1.27v-.82h-1.45v-.73h1.45v-.91h.73Zm-1.09,6.09v.91h1.64v-.91Zm1.64,2.36V171h-1.64v.91Zm1.36-6v-.82h-1.91v.82Zm0,1.54v-.82h-1.91v.82Zm1,2.09H210.6v.91h1.64Zm0,2.36V171H210.6v.91Z"/><path class="cls-3" d="M219.23,173.38a10.44,10.44,0,0,1-3.73,1.27l-.36-.64a11.29,11.29,0,0,0,3.63-1.18Zm5.54-9.36v2.82h-9.09V164Zm-.64,3.54v5.18h-7.81v-5.18Zm-5.63-2.82h-1.91v1.36h1.91Zm4.82,4.27v-.82h-6.18V169Zm0,1.45v-.82h-6.18v.82Zm0,.64h-6.18V172h6.18Zm-2.09-6.36h-2v1.36h2Zm4.18,9.18-.27.73a17,17,0,0,0-3.82-1.18l.27-.64A23.4,23.4,0,0,1,225.41,173.93ZM224,164.75H222v1.36H224Z"/><path class="cls-3" d="M232.86,164.57h4.72v.82H227v-.82h4.82a2.84,2.84,0,0,0-.45-.91l.91-.18A3.06,3.06,0,0,1,232.86,164.57ZM231,167h2.45a14.7,14.7,0,0,0,.91-1.64l.82.27c-.27.55-.55.91-.82,1.36h2.73v6.45a1,1,0,0,1-1.09,1.09h-1.27l-.18-.82h1.18c.27,0,.45-.18.45-.55v-5.45H234v1c0,.27.09.45.36.45h1.45v.73h-1.73c-.55,0-.82-.27-.82-.73v-1.36H231.4a3.28,3.28,0,0,1-.64,1.73,3.88,3.88,0,0,1-1.82,1.09l-.36-.73A2.87,2.87,0,0,0,230,169a2.36,2.36,0,0,0,.55-1.27h-2.18v6.72h-.82V167h2.64c-.18-.45-.45-.91-.64-1.36l.82-.27A9.84,9.84,0,0,0,231,167Zm3.54,3.45v3.09H230v-3.09Zm-.82.73h-2.91v1.54h2.91Z"/><path class="cls-3" d="M243.67,174.47h-.82v-.64h-2.54v.64h-.82V169.2h4.27v5.27Zm-.82-1.45v-3h-2.54v3Zm4.82-9v3.91H241V164Zm-.82.82h-4.91v2.27h4.91Zm2.45,9.63h-.91v-.64h-2.64v.64h-.82V169.2h4.36v5.27ZM248.4,173v-3h-2.64v3Z"/><path class="cls-3" d="M253.85,163.57V166h2.45c0,3.73-.09,6.09-.18,7a1.51,1.51,0,0,1-1.73,1.45,4.17,4.17,0,0,1-.91-.09l-.18-.82c.36,0,.73.09,1,.09a1,1,0,0,0,1.09-1c.09-.64.09-2.54.18-5.82h-1.64c-.09,3.54-.82,6.18-2.36,7.81l-.64-.55c1.36-1.54,2.09-3.91,2.18-7.18H251v-.82h1.91v-2.45h.91Zm7.54,10.9h-.82v-.82H258.3v.82h-.91v-9.09h3.91l.09,9.09Zm-.91-1.73v-6.63H258.3v6.63Z"/><path class="cls-3" d="M266.39,164.93v-.82h2.45a14.87,14.87,0,0,0,5.09,9.72l-.45.73a15.21,15.21,0,0,1-4.91-8,13,13,0,0,1-5.09,7.91l-.55-.73a14.14,14.14,0,0,0,5.27-8.81Z"/><path class="cls-3" d="M276.74,172.11a8.23,8.23,0,0,1-1.18,2.36l-.64-.36a14.33,14.33,0,0,0,1.18-2.36Zm1.91-8.09v7.36h-3.27V164Zm-.73,2.09v-1.36H276.2v1.36Zm0,2.18v-1.45H276.2v1.45Zm0,.73H276.2v1.54h1.73Zm1.18,4.82-.64.45c-.27-.64-.73-1.36-1.18-2.18l.64-.36A12.91,12.91,0,0,1,279.11,173.84Zm2.45-10.36v.91h1.91v-.91h.82v.91h1.45v.73h-1.45v.82h1.27v.64h-1.27v.82H286v.73h-3.09v.73h2.45v3H286v.73h-.64v1a.89.89,0,0,1-1,.91h-1l-.18-.73h.91c.27,0,.45-.09.45-.36v-.82h-4.09v1.91h-.82v-1.91h-.73v-.73h.73v-3h2.45v-.73h-3v-.64h1.73v-.82h-1.27V166h1.27v-.82h-1.45v-.73h1.45v-.91h.73v-.09Zm-1.09,6.09v.91h1.64v-.91Zm1.64,2.36V171h-1.64v.91Zm1.36-6v-.82h-1.91v.82Zm0,1.54v-.82h-1.91v.82Zm1.09,2.09h-1.64v.91h1.64Zm0,2.36V171h-1.64v.91Z"/><path class="cls-3" d="M287.74,168.66l-.73-.18a12,12,0,0,0,.73-4l.73.09a8,8,0,0,1-.18,1.54h.82v-2.54h.82v2.54h1v.82h-1v2.91c.36-.18.64-.27,1-.45v.82a3.36,3.36,0,0,1-1,.45v4h-.73V171a15.66,15.66,0,0,1-1.91.64l-.18-.82a14,14,0,0,0,2.09-.64v-3.27h-1A9.58,9.58,0,0,1,287.74,168.66Zm5.63-4.91a9.58,9.58,0,0,1-.45,1.73h4.63c0,4-.09,6.54-.18,7.45a1.7,1.7,0,0,1-1.91,1.64h-.91l-.18-.82c.36,0,.73.09,1,.09a1.17,1.17,0,0,0,1.27-1.18c.09-.64.09-2.82.18-6.27H296a22.48,22.48,0,0,1-1.09,4.82,9.72,9.72,0,0,1-2.45,3.36l-.55-.73a10.08,10.08,0,0,0,2.27-3,19.88,19.88,0,0,0,1.09-4.45h-.91a9.44,9.44,0,0,1-2.73,5.72l-.55-.64a8.46,8.46,0,0,0,2.54-5.09h-.82a17.82,17.82,0,0,1-1.09,1.91l-.64-.55a9.36,9.36,0,0,0,1.64-4.18Z"/><path class="cls-3" d="M304.19,166.39v-1h-4.72v-.82h4.72v-1h.91v1h4.72v.82h-4.72v1h3.73v4.72h-3.73v1H310v.82h-4.91v1.64h-.91v-1.64h-4.91v-.82h4.91v-1h-3.73v-4.72Zm0,2V167.2h-2.91v1.18Zm0,.73h-2.91v1.18h2.91Zm.91-.73H308V167.2h-2.91Zm2.91.73h-2.91v1.18H308Z"/></g><g id="Page-1"><g id="Group-3-4" data-name="Group-3"><path id="Fill-1-7" data-name="Fill-1" class="cls-2" d="M177.48,153.11C177.48,176.74,158,196,134,196s-43.52-19.17-43.52-42.89,19.44-42.89,43.52-42.89a43.11,43.11,0,0,1,43.52,42.89"/></g><path id="Fill-4-4" data-name="Fill-4" class="cls-4" d="M90.52,155.88a43,43,0,0,0,25.8,36.62l.09-.27,29.8-29.35-21.44-2.27L117.69,136l-5.36-1.54Z"/><path id="Fill-6-4" data-name="Fill-6" class="cls-4" d="M127.59,195.41a38.47,38.47,0,0,1-8.54-2.45l.09-.27L146.22,166l5.63,5.45-24.26,24"/><path id="Fill-8-3" data-name="Fill-8" class="cls-5" d="M155.85,149.52c-6.63,13.81-8.81,13.81-10.09,13.81H130c-4.36,0-7.81-2.54-8.63-6.54,0-.09-2.54-12.27-3.18-15.63-.36-1.64-1.09-2.73-4-2.73a2.36,2.36,0,1,1,0-4.72c4.82,0,7.91,2.36,8.63,6.54.64,3.36,3.18,15.45,3.18,15.54.55,2.45,2.73,2.82,4,2.82h15.17c1.27-1.36,4.27-6.63,6.36-11.18a2.42,2.42,0,0,1,3.18-1.09,2.31,2.31,0,0,1,1.18,3.18"/><path id="Fill-10-3" data-name="Fill-10" class="cls-5" d="M123.69,165a3.94,3.94,0,0,0-3.91,3.91,4,4,0,0,0,3.91,3.91,3.94,3.94,0,0,0,3.91-3.91,3.88,3.88,0,0,0-3.91-3.91"/><path id="Fill-12-3" data-name="Fill-12" class="cls-5" d="M149,165a3.94,3.94,0,0,0-3.91,3.91,3.91,3.91,0,0,0,7.81,0A3.82,3.82,0,0,0,149,165"/><path id="Fill-14-2" data-name="Fill-14" class="cls-5" d="M136.59,154.52a1,1,0,0,0,.55.18,1.29,1.29,0,0,0,.55-.18,62.16,62.16,0,0,0,6.81-7.72,1.08,1.08,0,0,0,.09-.91.85.85,0,0,0-.82-.45h-3.54s-.36-6.72-.64-7a4,4,0,0,0-2.54-.82,3.85,3.85,0,0,0-2.54.82c-.18.36-.55,7-.55,7h-3.54a1,1,0,0,0-.82.45,1.08,1.08,0,0,0,.09.91,67.57,67.57,0,0,0,6.91,7.72"/></g><g id="Page-1-2" data-name="Page-1"><g id="Group-3-5" data-name="Group-3"><path id="Fill-1-8" data-name="Fill-1" class="cls-2" d="M176.13,46.33c0,23.72-19.44,43-43.52,43S89.08,70,89.08,46.33s19.44-43,43.52-43a43.18,43.18,0,0,1,43.52,43"/></g></g><g id="Page-1-3" data-name="Page-1"><g id="Group-3-6" data-name="Group-3"><path class="cls-4" d="M90,55a43.39,43.39,0,0,0,42.64,34.32l1.34-.2L155.23,67h-6.36L130,46.9l-7-.34-1.82,3.63-1.82.91-10.7-11L108,37Z"/></g></g><path class="cls-5" d="M155.33,60a5.94,5.94,0,0,0-1.14-1.3l-4.41-3.84a.94.94,0,0,0-.38-.33l-2.67-2.32L134.41,41.43a2.82,2.82,0,0,0-.83-4.51l1.14-1.14a3.78,3.78,0,0,0,3.64-1,3.77,3.77,0,0,0,0-5.34l-8-8A3.77,3.77,0,0,0,124,25.11L112.66,36.5a3.8,3.8,0,0,0-1-.13A3.77,3.77,0,0,0,109,42.81l8,8a3.77,3.77,0,0,0,6.31-3.64L124.47,46a2.83,2.83,0,0,0,4.51.83L142.12,62a1,1,0,0,0,.13.16l.05,0,3.92,4.5.31.34a5.61,5.61,0,0,0,4,1.66,5.79,5.79,0,0,0,.79-.05,5.71,5.71,0,0,0,4.21-2.92A5.58,5.58,0,0,0,155.33,60Zm-29-37.19a1.89,1.89,0,0,1,2.67,0l8,8a1.89,1.89,0,0,1-2.67,2.67l-8-8h0A1.89,1.89,0,0,1,126.36,22.8ZM121,49.48a1.89,1.89,0,0,1-2.67,0l-8-8A1.89,1.89,0,0,1,113,38.81l8,8A1.89,1.89,0,0,1,121,49.48Zm4-6.64-2.64,2.64-8-8L125,26.8l8,8-2.64,2.64,0,0L125,42.81Zm3.37,2h0l-.66.66a.94.94,0,0,1-1.35-1.32l5.36-5.36a.94.94,0,0,1,1.6.68.93.93,0,0,1-.28.67l-.66.66h0Zm2,.71,2.76-2.76L144.75,53l-4.26,4.26Zm11.41,13.11,4.44-4.44,1.43,1.24L143,60.06Zm12.14,6.13a3.84,3.84,0,0,1-2.82,2,3.75,3.75,0,0,1-3.19-1.07l-.21-.22h0l-3.43-3.94L149,56.68,153,60.11h0a4.06,4.06,0,0,1,.78.9A3.72,3.72,0,0,1,153.87,64.77Z"/><path class="cls-5" d="M150.51,69.39a6.33,6.33,0,0,1-4.5-1.87c-.12-.12-.24-.25-.35-.38l-3.92-4.5a1.71,1.71,0,0,1-.2-.24L128.88,47.85a3.63,3.63,0,0,1-4.36-.52l-.15-.16-.24.24a4.52,4.52,0,0,1-1.25,3.92,4.5,4.5,0,0,1-6.36,0l-8-8a4.5,4.5,0,0,1,0-6.36,4.52,4.52,0,0,1,3.92-1.26l10.83-10.83A4.52,4.52,0,0,1,124.51,21a4.5,4.5,0,0,1,6.36,0l8,8A4.5,4.5,0,0,1,135,36.58l-.24.24.16.15a3.56,3.56,0,0,1,.52,4.37l14.43,12.59a1.64,1.64,0,0,1,.35.27l.15.17,4.34,3.79a6.64,6.64,0,0,1,1.27,1.46,6.31,6.31,0,0,1,.21,6.44,6.43,6.43,0,0,1-4.74,3.28A6.5,6.5,0,0,1,150.51,69.39ZM129,45.81l17.74,20.38.28.3a4.9,4.9,0,0,0,4.17,1.4,5,5,0,0,0,3.68-2.55,4.85,4.85,0,0,0-.16-4.95h0a5.2,5.2,0,0,0-1-1.15L133.36,41.48l.52-.55a2.1,2.1,0,0,0-.61-3.35l-.93-.44L134.5,35l.4.11a3,3,0,0,0,2.94-5.1l-8-8a3.12,3.12,0,0,0-4.31,0,3.06,3.06,0,0,0-.79,2.94l.11.4-12,12-.4-.11a3.07,3.07,0,0,0-2.94.79,3.05,3.05,0,0,0,0,4.31l8,8a3.13,3.13,0,0,0,4.31,0,3.06,3.06,0,0,0,.79-2.94l-.11-.4,2.16-2.16.44.92a2.09,2.09,0,0,0,.41.58,2.15,2.15,0,0,0,2.94,0ZM150.52,67.5a4.46,4.46,0,0,1-3.17-1.32l-.25-.27-3.88-4.46L149,55.69l4.45,3.88a4.77,4.77,0,0,1,.92,1.06,4.46,4.46,0,0,1,.15,4.5h0a4.53,4.53,0,0,1-4,2.38Zm-5.31-6,3,3.43.18.2a3,3,0,0,0,2.58.86,3.12,3.12,0,0,0,2.29-1.61,3,3,0,0,0-.1-3,3.31,3.31,0,0,0-.64-.74l-3.44-3Zm-2.27-.4-2.2-2.52,5.4-5.4,2.52,2.2Zm-.21-2.45L143,59l3.53-3.53-.33-.29Zm-2.27-.4L129.33,45.49,133,41.78l12.77,11.14Zm-9.14-12.71,9.22,10.59L143.68,53l-10.58-9.23Zm-11.62,5.2a2.6,2.6,0,0,1-1.85-.76l-8-8a2.61,2.61,0,0,1,0-3.69,2.67,2.67,0,0,1,3.69,0l8,8a2.61,2.61,0,0,1-1.85,4.46Zm-8-11.78a1.16,1.16,0,0,0-.82,2l8,8a1.16,1.16,0,0,0,1.64-1.64l-8-8A1.15,1.15,0,0,0,111.69,39ZM125,25.78l9,9-11.7,11.7-9-9m2.05,0,7,7L132,34.81l-7-7Zm11.65,9a1.67,1.67,0,0,1-1.2-2.83l5.37-5.36a1.68,1.68,0,0,1,2.35,0,1.67,1.67,0,0,1,0,2.36L128.21,46A1.66,1.66,0,0,1,127,46.48Zm5.34-7.22a.21.21,0,0,0-.15.06l-5.35,5.35a.21.21,0,0,0-.05.14.21.21,0,0,0,.06.16.22.22,0,0,0,.31,0l5.34-5.34a.21.21,0,0,0,.06-.15.22.22,0,0,0-.06-.15A.22.22,0,0,0,132.36,39.26Zm3.33-4.51a2.59,2.59,0,0,1-1.85-.76l-8-8a2.61,2.61,0,0,1,0-3.69,2.67,2.67,0,0,1,3.69,0l8,8a2.61,2.61,0,0,1-1.85,4.46Zm-8-11.78a1.16,1.16,0,0,0-.82,2l8,8a1.19,1.19,0,0,0,1.64,0,1.16,1.16,0,0,0,0-1.64l-8-8A1.15,1.15,0,0,0,127.69,23Z"/></svg>