<?xml version="1.0" encoding="UTF-8"?>
<svg width="337px" height="47px" viewBox="0 0 337 47" version="1.1" xmlns="http://www.w3.org/2000/svg" xmlns:xlink="http://www.w3.org/1999/xlink">
    <!-- Generator: Sketch 54.1 (76490) - https://sketchapp.com -->
    <title>2.LINEID搜尋</title>
    <desc>Created with Sketch.</desc>
    <g id="Page-1" stroke="none" stroke-width="1" fill="none" fill-rule="evenodd">
        <g id="Artboard" transform="translate(-731.000000, -1396.000000)" fill="#4DCDC6" fill-rule="nonzero">
            <g id="Group-9" transform="translate(370.000000, 1396.000000)">
                <path d="M362.016,42 L362.016,37.104 C370.944,28.992 376.944,22.512 376.944,17.328 C376.944,14.064 375.12,12.288 372.288,12.288 C369.84,12.288 367.92,13.92 366.24,15.744 L361.584,11.136 C365.088,7.44 368.352,5.616 373.44,5.616 C380.352,5.616 385.152,10.032 385.152,16.848 C385.152,22.992 379.872,29.76 374.4,35.28 C376.176,35.04 378.624,34.8 380.208,34.8 L386.784,34.8 L386.784,42 L362.016,42 Z M397.68,42.672 C394.704,42.672 392.592,40.32 392.592,37.344 C392.592,34.416 394.704,32.064 397.68,32.064 C400.608,32.064 402.768,34.416 402.768,37.344 C402.768,40.32 400.608,42.672 397.68,42.672 Z M421.2,42 L421.2,6.288 L429.792,6.288 L429.792,34.8 L443.664,34.8 L443.664,42 L421.2,42 Z M449.856,42 L449.856,6.288 L458.448,6.288 L458.448,42 L449.856,42 Z M466.656,42 L466.656,6.288 L475.392,6.288 L484.272,23.376 L487.776,31.296 L488.016,31.296 C487.536,27.504 486.864,22.368 486.864,18.096 L486.864,6.288 L495.024,6.288 L495.024,42 L486.288,42 L477.456,24.768 L473.952,16.944 L473.712,16.944 C474.096,20.928 474.816,25.824 474.816,30.144 L474.816,42 L466.656,42 Z M503.328,42 L503.328,6.288 L525.984,6.288 L525.984,13.392 L511.92,13.392 L511.92,20.016 L523.872,20.016 L523.872,27.216 L511.92,27.216 L511.92,34.8 L526.512,34.8 L526.512,42 L503.328,42 Z M544.56,42 L544.56,6.288 L553.152,6.288 L553.152,42 L544.56,42 Z M561.36,42 L561.36,6.288 L571.632,6.288 C582.528,6.288 589.728,11.52 589.728,23.952 C589.728,36.384 582.528,42 572.112,42 L561.36,42 Z M569.952,35.088 L571.104,35.088 C576.864,35.088 580.944,32.448 580.944,23.952 C580.944,15.456 576.864,13.104 571.104,13.104 L569.952,13.104 L569.952,35.088 Z M639.216,32.832 L630.096,32.832 C631.296,34.08 632.88,35.232 634.704,36.192 C636.432,35.232 637.92,34.128 639.216,32.832 Z M628.128,18.816 L632.112,18.816 L632.112,7.632 C630.816,8.304 629.472,8.88 628.128,9.408 L628.128,11.808 L631.008,11.808 L631.008,16.656 L628.128,16.656 L628.128,18.816 Z M644.928,26.928 L649.152,28.848 C647.376,33.024 644.784,36.288 641.52,38.88 C644.304,39.648 647.376,40.224 650.64,40.608 C649.152,42.048 647.28,44.832 646.368,46.656 C641.808,45.888 637.776,44.688 634.224,43.008 C630.288,44.688 625.776,45.744 620.88,46.512 C620.304,44.832 619.008,42.192 617.904,40.752 C621.456,40.416 624.768,39.792 627.792,38.928 C626.112,37.584 624.624,36 623.28,34.272 L627.264,32.832 L621.552,32.832 L621.552,27.648 C619.968,28.08 618.384,28.512 616.8,28.896 L616.8,39.504 C616.8,42.624 616.272,44.304 614.496,45.312 C612.672,46.368 610.224,46.56 606.768,46.56 C606.576,44.784 605.712,42.048 604.896,40.272 C606.576,40.368 608.544,40.368 609.168,40.368 C609.84,40.368 610.08,40.128 610.08,39.456 L610.08,30.576 L605.664,31.68 L603.984,25.008 C605.76,24.672 607.824,24.24 610.08,23.76 L610.08,16.128 L604.752,16.128 L604.752,9.696 L610.08,9.696 L610.08,0.96 L616.8,0.96 L616.8,9.696 L620.976,9.696 L620.976,16.128 L616.8,16.128 L616.8,22.272 L620.784,21.36 L621.552,27.264 L621.552,27.168 L632.112,27.168 L632.112,24.24 L622.128,24.24 L622.128,4.272 L624.96,5.136 C626.592,4.224 628.176,3.12 629.28,2.064 L632.112,4.8 L632.112,0.96 L638.256,0.96 L638.256,18.816 L642.48,18.816 L642.48,16.656 L639.408,16.656 L639.408,11.808 L642.48,11.808 L642.48,9.696 L639.456,9.696 L639.456,4.272 L648.624,4.272 L648.624,24.24 L638.256,24.24 L638.256,27.168 L643.776,27.168 L644.928,26.928 Z M691.344,2.256 L691.344,17.616 L658.416,17.616 L658.416,13.152 L684.48,13.152 L684.48,11.952 L660.24,11.952 L660.24,7.872 L684.48,7.872 L684.48,6.672 L658.656,6.672 L658.656,2.256 L691.344,2.256 Z M654.432,30.96 L654,25.824 C655.872,25.776 658.128,25.728 660.528,25.632 L660.528,23.376 L654.624,23.376 L654.624,18.672 L673.44,18.672 L673.44,23.376 L667.056,23.376 L667.056,25.44 L674.016,25.2 L673.968,30.048 C667.008,30.432 659.76,30.72 654.432,30.96 Z M681.84,22.992 L681.84,25.488 L688.224,25.488 L688.224,22.992 L681.84,22.992 Z M697.296,31.584 L697.296,37.248 L688.08,37.248 L688.08,39.984 C688.08,43.056 687.504,44.688 685.296,45.6 C683.136,46.512 680.448,46.56 677.04,46.56 C676.752,44.688 675.744,42.096 674.88,40.416 C676.8,40.512 679.488,40.512 680.208,40.512 C680.928,40.464 681.168,40.368 681.168,39.792 L681.168,37.248 L669.504,37.248 C670.656,38.208 671.712,39.168 672.384,40.032 L667.344,44.256 C666.24,42.576 663.552,40.176 661.392,38.544 L662.976,37.248 L653.184,37.248 L653.184,31.584 L681.168,31.584 L681.168,29.808 L675.408,29.808 L675.408,18.672 L695.136,18.672 L695.136,29.808 L688.08,29.808 L688.08,31.584 L697.296,31.584 Z" id="2.LINEID搜尋"></path>
            </g>
        </g>
    </g>
</svg>