<?xml version="1.0" encoding="UTF-8"?>
<svg width="245px" height="47px" viewBox="0 0 245 47" version="1.1" xmlns="http://www.w3.org/2000/svg" xmlns:xlink="http://www.w3.org/1999/xlink">
    <!-- Generator: Sketch 54.1 (76490) - https://sketchapp.com -->
    <title>1.掃描條碼</title>
    <desc>Created with Sketch.</desc>
    <g id="Page-1" stroke="none" stroke-width="1" fill="none" fill-rule="evenodd">
        <g id="Artboard" transform="translate(-398.000000, -1396.000000)" fill="#4DCDC6" fill-rule="nonzero">
            <g id="Group-9" transform="translate(370.000000, 1396.000000)">
                <path d="M28.744,42 L28.744,35.088 L36.328,35.088 L36.328,14.784 L29.752,14.784 L29.752,9.504 C33.592,8.784 36.088,7.824 38.584,6.288 L44.872,6.288 L44.872,35.088 L51.304,35.088 L51.304,42 L28.744,42 Z M62.68,42.672 C59.704,42.672 57.592,40.32 57.592,37.344 C57.592,34.416 59.704,32.064 62.68,32.064 C65.608,32.064 67.768,34.416 67.768,37.344 C67.768,40.32 65.608,42.672 62.68,42.672 Z M125.032,2.112 L125.032,18.816 L100.744,18.816 L100.744,13.824 L118.6,13.824 L118.6,12.672 L102.28,12.672 L102.28,8.256 L118.6,8.256 L118.6,7.056 L101.272,7.056 L101.272,2.112 L125.032,2.112 Z M115.816,33.36 L115.816,38.448 C116.92,38.496 118.12,38.496 118.552,38.496 C118.984,38.496 119.128,38.4 119.128,37.968 L119.128,33.36 L115.816,33.36 Z M103.912,28.176 L109.672,28.176 L109.672,25.632 L103.912,25.632 L103.912,28.176 Z M121.672,28.176 L121.672,25.632 L115.816,25.632 L115.816,28.176 L121.672,28.176 Z M127.912,20.208 L127.912,30.528 L125.032,30.528 L125.032,38.064 C125.032,40.56 124.696,42.096 123.112,42.96 C121.528,43.872 119.656,43.872 117.208,43.872 C117.064,42.336 116.44,40.176 115.816,38.688 L115.816,46.56 L109.672,46.56 L109.672,33.36 L107.176,33.36 L107.176,43.536 L101.08,43.536 L101.08,30.528 L97.96,30.528 L97.96,27.6 L94.6,28.56 L94.6,39.408 C94.6,42.432 94.12,44.208 92.488,45.264 C90.856,46.368 88.648,46.608 85.48,46.608 C85.336,44.88 84.568,42 83.752,40.128 C85.288,40.224 86.872,40.224 87.448,40.176 C88.024,40.176 88.216,40.032 88.216,39.408 L88.216,30.336 L84.328,31.344 L82.888,24.672 C84.424,24.384 86.248,24 88.216,23.52 L88.216,16.128 L83.704,16.128 L83.704,9.744 L88.216,9.744 L88.216,1.008 L94.6,1.008 L94.6,9.744 L98.872,9.744 L98.872,16.128 L94.6,16.128 L94.6,21.984 L97.624,21.216 L97.96,23.664 L97.96,20.208 L127.912,20.208 Z M146.344,21.072 L147.208,27.312 C145.672,27.744 144.136,28.176 142.552,28.608 L142.552,38.592 C142.552,41.616 142.12,43.344 140.488,44.4 C138.856,45.504 136.6,45.744 133.48,45.744 C133.336,44.016 132.568,41.136 131.752,39.312 C133.288,39.36 134.872,39.36 135.448,39.36 C136.024,39.36 136.216,39.168 136.216,38.544 L136.216,30.336 L132.328,31.344 L130.888,24.672 C132.424,24.384 134.248,24 136.216,23.52 L136.216,16.128 L131.704,16.128 L131.704,9.744 L136.216,9.744 L136.216,1.008 L142.552,1.008 L142.552,9.744 L146.44,9.744 L146.44,16.128 L142.552,16.128 L142.552,22.032 L146.344,21.072 Z M158.488,25.2 L154.984,25.2 L154.984,28.608 L158.488,28.608 L158.488,25.2 Z M168.424,28.608 L168.424,25.2 L164.68,25.2 L164.68,28.608 L168.424,28.608 Z M164.68,37.968 L168.424,37.968 L168.424,34.464 L164.68,34.464 L164.68,37.968 Z M154.984,34.464 L154.984,37.968 L158.488,37.968 L158.488,34.464 L154.984,34.464 Z M148.696,46.176 L148.696,19.152 L175.048,19.152 L175.048,45.936 L168.424,45.936 L168.424,44.016 L154.984,44.016 L154.984,46.176 L148.696,46.176 Z M171.112,6.864 L176.392,6.864 L176.392,13.104 L171.112,13.104 L171.112,18.048 L164.344,18.048 L164.344,13.104 L158.92,13.104 L158.92,18.048 L152.248,18.048 L152.248,13.104 L147.4,13.104 L147.4,6.864 L152.248,6.864 L152.248,0.96 L158.92,0.96 L158.92,6.864 L164.344,6.864 L164.344,0.96 L171.112,0.96 L171.112,6.864 Z M198.04,14.208 L198.04,20.736 C201.016,20.112 203.752,19.2 206.104,18.048 C205.048,17.088 204.04,16.032 203.224,14.976 C202.504,15.648 201.832,16.224 201.112,16.8 C200.44,16.128 199.192,15.072 198.04,14.208 Z M214.12,11.088 L207.016,11.088 C208.072,12.384 209.416,13.68 211,14.832 C212.248,13.728 213.304,12.48 214.12,11.088 Z M198.04,38.496 L192.04,38.496 L192.04,8.208 C191.512,9.552 190.936,10.896 190.36,12.192 L190.36,46.512 L183.736,46.512 L183.736,24.048 C183.064,24.96 182.392,25.824 181.72,26.64 C181.192,24.912 179.512,20.832 178.456,18.96 C182.152,14.592 185.56,7.776 187.528,0.96 L193.96,2.88 C193.48,4.368 192.952,5.856 192.376,7.392 L198.04,7.392 L198.04,11.136 C201.208,8.496 203.8,4.8 205.24,0.912 L211.48,2.496 C211.048,3.552 210.568,4.608 210.088,5.616 L224.248,5.616 L224.248,11.088 L221.272,11.088 C220.024,13.728 218.44,15.984 216.52,17.904 C219.16,19.008 222.136,19.872 225.544,20.352 C224.296,21.648 222.568,24.288 221.752,25.92 C217.768,25.056 214.312,23.664 211.384,21.936 C208.456,23.712 205.096,25.056 201.4,26.112 C200.776,24.96 199.24,22.896 198.04,21.552 L198.04,38.496 Z M224.536,33.072 L216.808,33.072 C219.064,36.048 222.472,38.832 225.88,40.512 C224.44,41.712 222.424,44.064 221.416,45.648 C219.016,44.112 216.712,41.952 214.696,39.456 L214.696,46.704 L208.168,46.704 L208.168,39.552 C205.768,42.096 202.936,44.256 199.864,45.744 C198.904,44.208 196.984,41.808 195.544,40.56 C199.672,38.976 203.512,36.24 206.152,33.072 L199,33.072 L199,27.264 L208.168,27.264 L208.168,24 L214.696,24 L214.696,27.264 L224.536,27.264 L224.536,33.072 Z M239.176,34.944 L239.176,23.904 L236.632,23.904 L236.632,34.944 L239.176,34.944 Z M251.848,33.696 L256.072,33.12 C256.648,35.904 256.984,39.456 256.936,41.856 L252.232,42.576 C252.376,40.368 252.184,37.056 251.752,34.368 C251.272,38.16 250.456,41.904 248.68,44.4 L243.928,41.808 C244.12,41.52 244.312,41.232 244.504,40.896 L236.632,40.896 L236.632,44.544 L230.68,44.544 L230.68,33.792 C230.488,34.08 230.248,34.368 230.056,34.656 C229.48,33.024 227.608,29.472 226.408,27.888 C229.624,23.28 231.304,16.224 232.216,8.736 L227.704,8.736 L227.704,2.448 L246.328,2.448 L246.328,8.736 L238.792,8.736 C238.312,11.856 237.784,14.976 237.064,17.952 L245.176,17.952 L245.176,39.408 C246.088,37.104 246.616,34.272 246.904,31.44 L251.944,32.688 L251.848,33.696 Z M256.648,33.504 L260.776,32.4 C261.592,34.656 262.312,37.584 262.552,39.552 L258.184,40.752 C258.04,38.832 257.368,35.808 256.648,33.504 Z M253.864,22.656 L253.864,24.672 L257.512,24.672 L257.512,22.656 L253.864,22.656 Z M257.512,8.496 L253.864,8.496 L253.864,10.128 L257.512,10.128 L257.512,8.496 Z M257.512,17.328 L257.512,15.456 L253.864,15.456 L253.864,17.328 L257.512,17.328 Z M263.656,24.672 L272.392,24.672 C272.392,24.672 272.344,26.304 272.296,27.072 C271.864,38.112 271.336,42.768 270.088,44.4 C269.032,45.744 267.928,46.224 266.488,46.464 C265.288,46.656 263.368,46.704 261.256,46.656 C261.16,44.88 260.488,42.336 259.528,40.752 C261.064,40.896 262.408,40.944 263.176,40.944 C263.8,40.944 264.184,40.8 264.616,40.32 C264.904,39.936 265.144,39.072 265.384,37.536 L263.608,38.256 C263.272,36.72 262.36,34.416 261.4,32.688 L264.76,31.392 C265.096,31.92 265.432,32.544 265.768,33.168 C265.816,32.4 265.816,31.536 265.864,30.624 L247.576,30.624 L247.576,2.544 L271.432,2.544 L271.432,8.496 L263.656,8.496 L263.656,10.128 L269.896,10.128 L269.896,15.456 L263.656,15.456 L263.656,17.328 L269.896,17.328 L269.896,22.656 L263.656,22.656 L263.656,24.672 Z" id="1.掃描條碼"></path>
            </g>
        </g>
    </g>
</svg>