<?xml version="1.0" encoding="UTF-8"?>
<svg width="405px" height="70px" viewBox="0 0 405 70" version="1.1" xmlns="http://www.w3.org/2000/svg" xmlns:xlink="http://www.w3.org/1999/xlink">
    <!-- Generator: Sketch 54.1 (76490) - https://sketchapp.com -->
    <title>現在就加入！</title>
    <desc>Created with Sketch.</desc>
    <g id="Page-1" stroke="none" stroke-width="1" fill="none" fill-rule="evenodd">
        <g id="Artboard" transform="translate(-519.000000, -2161.000000)" fill="#4DCDC6" fill-rule="nonzero">
            <path d="M547.584,2203.488 L548.952,2212.632 C539.88,2215.368 530.016,2218.176 522.312,2220.408 L519.72,2210.544 C522.528,2209.968 525.984,2209.104 529.656,2208.24 L529.656,2195.496 L522.168,2195.496 L522.168,2185.92 L529.656,2185.92 L529.656,2174.904 L521.664,2174.904 L521.664,2165.256 L547.296,2165.256 L547.296,2174.904 L539.736,2174.904 L539.736,2185.92 L546.504,2185.92 L546.504,2195.496 L539.736,2195.496 L539.736,2205.576 C542.328,2204.928 544.992,2204.208 547.584,2203.488 Z M559.536,2193.768 L559.536,2196.576 L575.808,2196.576 L575.808,2193.768 L559.536,2193.768 Z M559.536,2183.04 L559.536,2185.92 L575.808,2185.92 L575.808,2183.04 L559.536,2183.04 Z M559.536,2172.384 L559.536,2175.264 L575.808,2175.264 L575.808,2172.384 L559.536,2172.384 Z M578.616,2220.624 L580.128,2220.624 C581.136,2220.624 581.424,2219.472 581.568,2212.344 C583.512,2213.928 587.688,2215.512 590.28,2216.16 C589.416,2226.6 587.04,2229.552 581.28,2229.552 L576.672,2229.552 C569.184,2229.552 567.6,2226.6 567.6,2218.176 L567.6,2205.072 L564.72,2205.072 C563.64,2216.952 560.544,2225.52 544.272,2230.344 C543.264,2227.752 540.672,2223.72 538.584,2221.704 C551.904,2218.536 553.632,2213.136 554.496,2205.072 L549.816,2205.072 L549.816,2163.96 L586.032,2163.96 L586.032,2205.072 L577.608,2205.072 L577.608,2218.104 C577.608,2220.408 577.752,2220.624 578.616,2220.624 Z M643.2,2204.064 L643.2,2218.32 L659.184,2218.32 L659.184,2227.968 L616.056,2227.968 L616.056,2218.32 L632.616,2218.32 L632.616,2204.064 L618.792,2204.064 L618.792,2194.416 L632.616,2194.416 L632.616,2183.544 L643.2,2183.544 L643.2,2194.416 L656.448,2194.416 L656.448,2204.064 L643.2,2204.064 Z M625.488,2170.8 L659.544,2170.8 L659.544,2180.808 L621.24,2180.808 C618.936,2185.704 616.2,2190.456 612.96,2194.848 L612.96,2229.768 L602.376,2229.768 L602.376,2206.296 C600.72,2207.736 598.92,2209.104 597.048,2210.328 C595.968,2207.376 593.664,2202.696 592.08,2200.104 C599.28,2195.568 605.04,2188.584 609.288,2180.808 L594.672,2180.808 L594.672,2170.8 L613.896,2170.8 C615.12,2167.632 616.056,2164.464 616.848,2161.368 L627.792,2163.96 C627.072,2166.264 626.28,2168.496 625.488,2170.8 Z M733.272,2173.968 L724.632,2178.072 C723.696,2174.76 721.104,2169.792 718.368,2166.192 L726.504,2162.592 C729.456,2165.976 732.12,2170.584 733.272,2173.968 Z M701.376,2169.072 L701.376,2178.504 L665.664,2178.504 L665.664,2169.072 L678.192,2169.072 L678.192,2161.44 L688.848,2161.44 L688.848,2169.072 L701.376,2169.072 Z M678.264,2190.096 L678.264,2194.272 L688.488,2194.272 L688.488,2190.096 L678.264,2190.096 Z M698.64,2202.84 L688.992,2202.84 L688.992,2219.688 C688.992,2223.864 688.272,2226.456 685.608,2228.04 C682.944,2229.552 679.776,2229.696 675.744,2229.696 C675.456,2227.464 674.448,2224.44 673.44,2221.992 C672.72,2223.504 671.928,2224.872 671.136,2226.096 C669.48,2224.44 665.664,2221.632 663.504,2220.336 C666.096,2216.52 667.968,2210.616 668.904,2204.928 L678.264,2206.944 C677.4,2211.552 675.888,2216.304 674.16,2220.408 L677.904,2220.408 C678.696,2220.408 678.984,2220.192 678.984,2219.472 L678.984,2202.84 L668.76,2202.84 L668.76,2181.6 L698.64,2181.6 L698.64,2202.84 Z M724.92,2219.04 L725.496,2219.04 C725.712,2219.04 726,2218.896 726.144,2218.608 C726.288,2218.32 726.432,2217.6 726.504,2216.952 C726.648,2215.656 726.72,2212.704 726.648,2209.176 C728.376,2210.76 731.616,2212.488 733.992,2213.28 C733.848,2217.24 733.488,2221.416 732.984,2223.288 C732.48,2225.232 731.688,2226.528 730.392,2227.608 C729.312,2228.472 727.656,2228.976 726,2228.976 L721.896,2228.976 C719.808,2228.976 717.72,2228.328 716.424,2226.816 C715.056,2225.232 714.768,2223.792 714.768,2218.68 L714.768,2208.456 C712.608,2216.376 708.936,2224.08 702.888,2229.984 C700.944,2228.112 696.696,2225.088 694.032,2223.792 C696.192,2221.848 698.064,2219.616 699.576,2217.24 L692.952,2219.76 C692.376,2216.304 690.72,2210.904 689.136,2206.944 L697.272,2204.136 C698.784,2207.376 700.224,2211.48 701.088,2214.72 C705.552,2206.512 707.064,2196.792 707.496,2188.584 L700.872,2188.584 L700.872,2178.648 L707.64,2178.648 L707.64,2161.368 L717.792,2161.368 L717.792,2178.648 L732.984,2178.648 L732.984,2188.584 L717.648,2188.584 C717.576,2189.448 717.576,2190.384 717.504,2191.32 L724.2,2191.32 L724.2,2217.528 C724.2,2217.888 724.2,2218.392 724.272,2218.536 C724.416,2218.896 724.704,2219.04 724.92,2219.04 Z M761.424,2184.192 L756.096,2184.192 C755.592,2197.224 754.296,2208.528 750.624,2217.816 C753.144,2218.032 755.304,2218.104 756.6,2218.104 C757.68,2218.104 758.328,2217.744 759.048,2216.664 C760.416,2214.792 760.92,2206.368 761.424,2184.192 Z M756.312,2173.968 L771.72,2173.968 C771.72,2173.968 771.72,2177.28 771.648,2178.576 C771,2208.672 770.496,2220.12 768.192,2223.576 C766.32,2226.312 764.664,2227.248 762.144,2227.824 C759.912,2228.4 756.744,2228.4 753.36,2228.328 C753.216,2225.448 752.136,2221.128 750.552,2218.176 C748.824,2222.496 746.592,2226.384 743.712,2229.84 C742.128,2227.248 738.672,2223.648 736.08,2221.992 C743.712,2212.992 745.512,2200.392 745.944,2184.192 L738.456,2184.192 L738.456,2173.968 L746.088,2173.968 L746.088,2162.52 L756.384,2162.52 C756.384,2166.48 756.384,2170.296 756.312,2173.968 Z M784.752,2213.208 L791.376,2213.208 L791.376,2179.368 L784.752,2179.368 L784.752,2213.208 Z M774.744,2169.288 L801.888,2169.288 L801.888,2227.608 L791.376,2227.608 L791.376,2223.288 L784.752,2223.288 L784.752,2228.184 L774.744,2228.184 L774.744,2169.288 Z M823.56,2165.256 L849.768,2165.256 C849.768,2179.44 851.856,2205.432 877.56,2220.408 C875.184,2222.28 870.936,2226.96 869.136,2229.624 C855.456,2221.416 847.824,2208.744 843.72,2196.216 C838.248,2211.264 829.752,2222.64 818.16,2229.768 C816.216,2227.536 811.32,2223.144 808.584,2221.2 C823.128,2214 831.552,2200.32 835.224,2182.032 L840.408,2182.968 C839.976,2180.52 839.688,2178.144 839.472,2175.912 L823.56,2175.912 L823.56,2165.256 Z M910.536,2203.848 L907.584,2181.096 L907.152,2169.144 L922.92,2169.144 L922.488,2181.096 L919.536,2203.848 L910.536,2203.848 Z M915,2223.864 C910.104,2223.864 906.504,2220.552 906.504,2215.944 C906.504,2211.48 910.104,2208.024 915,2208.024 C919.896,2208.024 923.496,2211.48 923.496,2215.944 C923.496,2220.552 919.896,2223.864 915,2223.864 Z" id="現在就加入！"></path>
        </g>
    </g>
</svg>