<?xml version="1.0" encoding="utf-8"?>
<!-- Generator: Adobe Illustrator 21.1.0, SVG Export Plug-In . SVG Version: 6.00 Build 0)  -->
<svg version="1.1" id="圖層_1" xmlns="http://www.w3.org/2000/svg" xmlns:xlink="http://www.w3.org/1999/xlink" x="0px" y="0px"
	 viewBox="0 0 36.6 30" style="enable-background:new 0 0 36.6 30;" xml:space="preserve">
<style type="text/css">
	.st0{fill:none;stroke:#FFFFFF;stroke-width:0.5;stroke-miterlimit:10;}
</style>
<g>
	<path class="st0" d="M9.6,14.8h4.9c0.2,0,0.3,0.1,0.5,0.2l0,0c0.1,0.1,0.2,0.3,0.2,0.5v12c0,0.2-0.1,0.4-0.2,0.5
		c-0.1,0.1-0.3,0.2-0.5,0.2H9.6c-0.2,0-0.4-0.1-0.5-0.2s-0.2-0.3-0.2-0.5v-12c0-0.2,0.1-0.4,0.2-0.5S9.4,14.8,9.6,14.8L9.6,14.8z
		 M14.5,15.3H9.6c-0.1,0-0.1,0-0.2,0.1c0,0-0.1,0.1-0.1,0.2v12c0,0.1,0,0.1,0.1,0.2c0,0,0.1,0.1,0.2,0.1h4.9c0,0,0.1,0,0.1-0.1
		c0.1,0,0.1-0.1,0.1-0.2v-12c0-0.1,0-0.1,0-0.2l0,0C14.6,15.3,14.5,15.3,14.5,15.3L14.5,15.3z"/>
	<path class="st0" d="M13.5,21.3c0-0.1,0.1-0.2,0.2-0.2c0.1,0,0.2,0.1,0.2,0.2v4.5c0,0.1-0.1,0.2-0.2,0.2h-3.4
		c-0.1,0-0.2-0.1-0.2-0.2s0.1-0.2,0.2-0.2h3.2C13.5,25.6,13.5,21.3,13.5,21.3z"/>
	<path class="st0" d="M11.9,2c0-0.1,0.1-0.2,0.2-0.2c0.1,0,0.2,0.1,0.2,0.2v13c0,0.1-0.1,0.2-0.2,0.2c-0.1,0-0.2-0.1-0.2-0.2V2z"/>
	<path class="st0" d="M11.1,2.8c-0.1,0-0.2-0.1-0.2-0.2c0-0.1,0.1-0.2,0.2-0.2h2.2c0.1,0,0.2,0.1,0.2,0.2c0,0.1-0.1,0.2-0.2,0.2
		H11.1z"/>
	<path class="st0" d="M11.1,3.8c-0.1,0-0.2-0.1-0.2-0.2c0-0.1,0.1-0.2,0.2-0.2h2.2c0.1,0,0.2,0.1,0.2,0.2c0,0.1-0.1,0.2-0.2,0.2
		H11.1z"/>
	<path class="st0" d="M10.7,4.7c-0.1,0-0.2-0.1-0.2-0.2s0.1-0.2,0.2-0.2h2.9c0.1,0,0.2,0.1,0.2,0.2s-0.1,0.2-0.2,0.2H10.7z"/>
	<path class="st0" d="M10.3,5.8c-0.1,0-0.2-0.1-0.2-0.2s0.1-0.2,0.2-0.2h3.8c0.1,0,0.2,0.1,0.2,0.2s-0.1,0.2-0.2,0.2H10.3z"/>
	<path class="st0" d="M11.1,8.8c-0.1,0-0.2-0.1-0.2-0.2c0-0.1,0.1-0.2,0.2-0.2h2.2c0.1,0,0.2,0.1,0.2,0.2c0,0.1-0.1,0.2-0.2,0.2
		H11.1z"/>
	<path class="st0" d="M11.1,7.8c-0.1,0-0.2-0.1-0.2-0.2s0.1-0.2,0.2-0.2h2.2c0.1,0,0.2,0.1,0.2,0.2s-0.1,0.2-0.2,0.2H11.1z"/>
	<path class="st0" d="M10.7,6.8c-0.1,0-0.2-0.1-0.2-0.2s0.1-0.2,0.2-0.2h2.9c0.1,0,0.2,0.1,0.2,0.2s-0.1,0.2-0.2,0.2H10.7z"/>
	<path class="st0" d="M18.9,17.2h7.8c0.1,0,0.1,0,0.1,0l0,0c0.2,0,0.4,0.1,0.6,0.3c0.2,0.2,0.3,0.4,0.3,0.6v0.1l-1.2,9
		c0,0.3-0.2,0.5-0.4,0.7c-0.2,0.2-0.4,0.3-0.7,0.3h-5.2c-0.3,0-0.5-0.1-0.7-0.3c-0.2-0.2-0.3-0.4-0.3-0.7l-1.2-9v-0.1
		c0-0.2,0.1-0.4,0.3-0.6C18.5,17.4,18.7,17.3,18.9,17.2L18.9,17.2L18.9,17.2z M26.7,17.7h-7.8h-0.1c-0.1,0-0.3,0.1-0.4,0.2
		s-0.1,0.2-0.1,0.3v0.1l1.2,9c0,0.2,0.1,0.4,0.2,0.5s0.2,0.1,0.4,0.1h5.2c0.2,0,0.3-0.1,0.4-0.1c0.1-0.1,0.2-0.3,0.2-0.4l1.2-9v-0.1
		c0-0.1,0-0.2-0.1-0.3c-0.1-0.1-0.2-0.2-0.4-0.2h0.1V17.7z"/>
	<path class="st0" d="M21.1,5.8h3.4c0.2,0,0.4,0.1,0.6,0.2s0.2,0.4,0.3,0.6L26,17.4c0,0.1-0.1,0.2-0.2,0.2H20
		c-0.1,0-0.2-0.1-0.2-0.2l0.6-10.8c0-0.2,0.1-0.4,0.2-0.6l0,0C20.7,5.9,20.9,5.8,21.1,5.8L21.1,5.8z M24.5,6.3h-3.4
		c-0.1,0-0.2,0-0.3,0.1l0,0c-0.1,0.1-0.1,0.2-0.1,0.3l-0.6,10.6h5.4L24.9,6.7c0-0.1-0.1-0.2-0.1-0.3C24.7,6.3,24.6,6.3,24.5,6.3
		L24.5,6.3z"/>
	<path class="st0" d="M23.7,9c0-0.1,0.1-0.2,0.2-0.2s0.2,0.1,0.2,0.2l0.3,4.7c0,0.1-0.1,0.2-0.2,0.2S24,13.8,24,13.7L23.7,9z"/>
	<path class="st0" d="M24.8,23.3c0,0.1,0.1,0.2,0.2,0.2s0.2-0.1,0.2-0.2v-4.5c0-0.1-0.1-0.2-0.2-0.2h-3.4c-0.1,0-0.2,0.1-0.2,0.2
		s0.1,0.2,0.2,0.2h3.2C24.8,19,24.8,23.3,24.8,23.3z"/>
</g>
</svg>
