<?xml version="1.0" encoding="utf-8"?>
<!-- Generator: Adobe Illustrator 21.1.0, SVG Export Plug-In . SVG Version: 6.00 Build 0)  -->
<svg version="1.1" id="圖層_1" xmlns="http://www.w3.org/2000/svg" xmlns:xlink="http://www.w3.org/1999/xlink" x="0px" y="0px"
	 viewBox="0 0 36.6 30" style="enable-background:new 0 0 36.6 30;" xml:space="preserve">
<style type="text/css">
	.st0{fill:none;stroke:#FFFFFF;stroke-width:0.5;stroke-miterlimit:10;}
</style>
<g>
	<path class="st0" d="M8.5,11.6l9.1-2.5V8.9c0-0.1,0-0.2-0.1-0.3l0,0c0-0.1,0-0.2-0.1-0.3l0,0c0-0.1-0.1-0.1-0.1-0.2
		c0-0.1-0.1-0.2-0.2-0.3c-0.1-0.1-0.3-0.3-0.4-0.4c-0.3-0.2-0.5-0.5-0.7-0.7s-0.3-0.4-0.4-0.6c-0.1-0.2-0.2-0.4-0.2-0.6
		s-0.1-0.4-0.1-0.6c0-0.4,0.1-0.7,0.2-1c0-0.3,0.2-0.6,0.5-0.9c0.3-0.3,0.6-0.4,1-0.6c0.4-0.1,0.8-0.2,1.3-0.2
		c0.4,0,0.8,0.1,1.2,0.2c0.4,0.1,0.7,0.3,0.9,0.6c0.3,0.2,0.5,0.5,0.7,0.9c0.2,0.3,0.3,0.7,0.3,1.2c0,0.1-0.1,0.2-0.2,0.2L20,5.4
		c-0.1,0-0.2-0.1-0.2-0.2l0,0c-0.1-0.3-0.1-0.5-0.2-0.7S19.4,4.1,19.3,4c-0.1-0.1-0.3-0.2-0.5-0.3s-0.4-0.1-0.6-0.1s-0.4,0-0.6,0.1
		S17.3,3.9,17.1,4c-0.1,0.1-0.3,0.3-0.3,0.5c-0.1,0.2-0.1,0.3-0.1,0.5c0,0.1,0,0.2,0,0.3c0,0.1,0.1,0.2,0.1,0.3
		c0.1,0.1,0.1,0.2,0.3,0.3c0.1,0.1,0.3,0.3,0.4,0.4c0.2,0.2,0.4,0.3,0.5,0.5c0.1,0.1,0.2,0.2,0.3,0.3c0.1,0.1,0.2,0.3,0.3,0.4
		c0.1,0.1,0.1,0.3,0.2,0.4C18.9,8.1,19,8.3,19,8.5s0.1,0.4,0.1,0.6l0,0l9,2.4c0.5,0.1,1,0.4,1.3,0.7l0,0c0.3,0.3,0.5,0.7,0.5,1.2
		s-0.2,1-0.5,1.3s-0.8,0.5-1.3,0.5h-0.7c-0.1,0-0.2-0.1-0.2-0.2v-0.2c0-0.7-0.3-1.3-0.7-1.7c-0.4-0.4-1-0.7-1.7-0.7H11.9
		c-0.7,0-1.3,0.3-1.7,0.7l0,0c-0.4,0.4-0.7,1-0.7,1.7V15c0,0.1-0.1,0.2-0.2,0.2H8.6c-0.5,0-1-0.2-1.3-0.5s-0.5-0.8-0.5-1.3
		s0.2-0.9,0.5-1.2C7.5,11.9,8,11.7,8.5,11.6L8.5,11.6z M17.8,9.4L8.6,12c-0.5,0.1-0.9,0.3-1.2,0.6c-0.2,0.2-0.3,0.5-0.3,0.9
		s0.2,0.7,0.4,1c0.3,0.3,0.6,0.4,1,0.4H9c0-0.8,0.3-1.5,0.8-2l0,0c0.5-0.5,1.2-0.8,2-0.8h12.7c0.8,0,1.5,0.3,2,0.8s0.8,1.2,0.8,2H28
		c0.4,0,0.7-0.2,1-0.4c0.3-0.3,0.4-0.6,0.4-1s-0.1-0.6-0.4-0.9l0,0c-0.3-0.3-0.7-0.5-1.1-0.6l-9.2-2.5c-0.1,0-0.1-0.1-0.1-0.2V9.2
		c0-0.2,0-0.4-0.1-0.6c0-0.2-0.1-0.3-0.1-0.5l0,0c-0.1-0.1-0.1-0.2-0.2-0.3C18.1,7.7,18,7.6,18,7.5c-0.1-0.1-0.2-0.2-0.3-0.3
		c-0.1-0.1-0.3-0.3-0.5-0.4c-0.2-0.2-0.3-0.3-0.5-0.5c-0.1-0.1-0.2-0.3-0.3-0.4c-0.1-0.1-0.1-0.3-0.2-0.4c0-0.1,0-0.3,0-0.4
		c0-0.2,0-0.5,0.1-0.7s0.2-0.4,0.4-0.6c0.2-0.2,0.4-0.3,0.6-0.4c0.2-0.1,0.5-0.1,0.7-0.1c0.3,0,0.5,0,0.7,0.1s0.4,0.2,0.6,0.4
		s0.3,0.4,0.4,0.6s0.2,0.4,0.2,0.7L21,4.9c-0.1-0.3-0.2-0.6-0.3-0.9c-0.1-0.3-0.3-0.5-0.6-0.7c-0.2-0.2-0.5-0.4-0.8-0.5
		s-0.7-0.2-1.1-0.2s-0.8,0.1-1.1,0.2c-0.3,0.1-0.6,0.3-0.8,0.5C16,3.5,15.9,3.8,15.7,4c-0.1,0.3-0.2,0.5-0.2,0.9
		c0,0.2,0,0.3,0.1,0.5c0,0.2,0.1,0.3,0.2,0.5c0.1,0.2,0.2,0.3,0.4,0.5c0.2,0.2,0.4,0.4,0.7,0.6c0.2,0.2,0.3,0.3,0.4,0.4
		s0.2,0.2,0.3,0.3c0,0.1,0.1,0.2,0.1,0.3l0,0c0,0.1,0.1,0.2,0.1,0.3l0,0c0,0.1,0,0.2,0.1,0.3c0,0.1,0,0.3,0,0.4
		C18,9.3,17.9,9.4,17.8,9.4L17.8,9.4z"/>
	<path class="st0" d="M11.9,12.1h12.7c0.8,0,1.5,0.3,2,0.8l0,0c0.5,0.5,0.8,1.2,0.8,2v10c0,0.8-0.3,1.5-0.8,2s-1.2,0.8-2,0.8H11.9
		c-0.8,0-1.5-0.3-2-0.8l0,0c-0.5-0.5-0.8-1.2-0.8-2v-10c0-0.8,0.3-1.5,0.8-2C10.4,12.4,11.1,12.1,11.9,12.1L11.9,12.1z M24.7,12.5
		H11.9c-0.7,0-1.3,0.3-1.7,0.7s-0.7,1-0.7,1.7v10c0,0.6,0.3,1.3,0.7,1.7l0,0c0.4,0.4,1,0.7,1.7,0.7h12.7c0.7,0,1.3-0.3,1.7-0.7
		c0.4-0.4,0.7-1.1,0.7-1.7v-10c0-0.6-0.3-1.3-0.7-1.7l0,0C25.9,12.8,25.3,12.5,24.7,12.5L24.7,12.5z"/>
	<path class="st0" d="M9.3,20.9c-0.1,0-0.2-0.1-0.2-0.2s0.1-0.2,0.2-0.2h18c0.1,0,0.2,0.1,0.2,0.2s-0.1,0.2-0.2,0.2H9.3z"/>
</g>
</svg>
