<?xml version="1.0" encoding="utf-8"?>
<!-- Generator: Adobe Illustrator 21.1.0, SVG Export Plug-In . SVG Version: 6.00 Build 0)  -->
<svg version="1.1" id="圖層_1" xmlns="http://www.w3.org/2000/svg" xmlns:xlink="http://www.w3.org/1999/xlink" x="0px" y="0px"
	 viewBox="0 0 36.6 30" style="enable-background:new 0 0 36.6 30;" xml:space="preserve">
<style type="text/css">
	.st0{fill:none;stroke:#FFFFFF;stroke-width:0.5;stroke-miterlimit:10;}
</style>
<g>
	<path class="st0" d="M14.2,4h3.9c0.6,0,1.2-0.1,1.7-0.1c0.5-0.1,1-0.1,1.5-0.1c1.1,0,1.9,0.3,1.9,1.5c0,0.1,0,0.2-0.1,0.2
		c-0.1,0.1-0.2,0.1-0.3,0.1h-4.1v0.6h4.1c0.1,0,0.2,0,0.3,0.1c0,0.1,0.1,0.1,0.1,0.2v1c0,0.1,0,0.2-0.1,0.2
		c-0.1,0.1-0.2,0.1-0.3,0.1h-4.2l-0.1,0.6h4.3c0.1,0,0.2,0.1,0.3,0.1c0,0.1,0.1,0.2,0.1,0.2v1c0,0.1,0,0.2-0.1,0.3s-0.2,0.1-0.3,0.1
		h-4.4l-0.1,0.5h4.5c0.1,0,0.2,0.1,0.3,0.1l0,0c0,0.1,0.1,0.2,0.1,0.3v1c0,0.1,0,0.2-0.1,0.3s-0.2,0.1-0.3,0.1h-4.6L18.1,13h4.7
		c0.1,0,0.2,0,0.3,0.1c0,0.1,0.1,0.2,0.1,0.3v1c0,0.1,0,0.2-0.1,0.2c-0.1,0.1-0.2,0.1-0.3,0.1c-0.9,0-1.7-0.1-2.3-0.1l0,0
		c-1.2-0.1-1.9-0.1-2.3,0.3c0.4,0.4,1.1,0.4,2.3,0.3c0.6,0,1.4-0.1,2.3-0.1c0.1,0,0.2,0,0.3,0.1c0,0.1,0.1,0.1,0.1,0.2v1
		c0,0.1,0,0.2-0.1,0.2c-0.1,0.1-0.2,0.1-0.3,0.1h-4.7l0.1,0.6h4.6c0.1,0,0.2,0.1,0.3,0.1c0,0.1,0.1,0.2,0.1,0.2v1
		c0,0.1,0,0.2-0.1,0.3C23,19,22.9,19,22.8,19h-4.5l0.1,0.6h4.4c0.1,0,0.2,0.1,0.3,0.1c0,0.1,0.1,0.2,0.1,0.3v1c0,0.1,0,0.2-0.1,0.3
		c-0.1,0.1-0.2,0.1-0.3,0.1h-4.3l0.1,0.6h4.2c0.1,0,0.2,0,0.3,0.1c0,0.1,0.1,0.2,0.1,0.3v1c0,0.1,0,0.2-0.1,0.2
		c-0.1,0.1-0.2,0.1-0.3,0.1h-4.1v0.6h4.1c0.1,0,0.2,0,0.3,0.1c0,0.1,0.1,0.1,0.1,0.2c0,1.3-0.8,1.5-1.9,1.5c-0.5,0-0.9,0-1.5-0.1
		c-0.5,0-1.1-0.1-1.7-0.1h-3.9c-0.2,0-0.4-0.1-0.5-0.2s-0.2-0.3-0.2-0.5V4.6c0-0.2,0.1-0.4,0.2-0.5C13.8,4,14,4,14.2,4L14.2,4z
		 M17.4,4.4h-3.2c-0.1,0-0.2,0-0.2,0.1c-0.1,0.1-0.1,0.1-0.1,0.2v20.7c0,0.1,0,0.2,0.1,0.2s0.1,0.1,0.2,0.1h3.9
		c0.6,0,1.2,0.1,1.7,0.1c0.5,0.1,1,0.1,1.4,0.1c0.9,0,1.5-0.2,1.5-1.1h-4.2c-0.1,0-0.2-0.1-0.2-0.2v-0.5v-0.5c0-0.1,0.1-0.2,0.2-0.2
		h4.2v-0.9h-4.3c-0.1,0-0.2-0.1-0.2-0.2l-0.1-1c0-0.1,0.1-0.2,0.2-0.2h4.4v-1h-4.5c-0.1,0-0.2-0.1-0.2-0.2l-0.1-1
		c0-0.1,0.1-0.2,0.2-0.2h4.6v-0.9H18c-0.1,0-0.2-0.1-0.2-0.2l-0.1-1c0-0.1,0.1-0.2,0.2-0.2h4.8v-0.9c-0.9,0-1.6,0.1-2.2,0.1
		c-1.5,0.1-2.2,0.2-2.7-0.6l0,0c0-0.1,0-0.1,0-0.2c0.5-0.8,1.3-0.7,2.7-0.6c0.6,0,1.3,0.1,2.2,0.1v-0.9h-4.9c-0.1,0-0.2-0.1-0.2-0.2
		l0.1-0.9c0-0.1,0.1-0.2,0.2-0.2h4.7v-1H18c-0.1,0-0.2-0.1-0.2-0.2l0.1-1c0-0.1,0.1-0.2,0.2-0.2h4.5v-1h-4.4c-0.1,0-0.2-0.1-0.2-0.2
		l0.1-1c0-0.1,0.1-0.2,0.2-0.2h4.3V6.6h-4.2c-0.1,0-0.2-0.1-0.2-0.2V5.9V5.5c0-0.1,0.1-0.2,0.2-0.2h4.2c0-0.9-0.7-1.1-1.5-1.1
		c-0.5,0-0.9,0-1.4,0.1c-0.6,0.1-1.2,0.1-1.7,0.1H17.4z"/>
</g>
</svg>
