<?xml version="1.0" encoding="utf-8"?>
<!-- Generator: Adobe Illustrator 21.1.0, SVG Export Plug-In . SVG Version: 6.00 Build 0)  -->
<svg version="1.1" id="圖層_1" xmlns="http://www.w3.org/2000/svg" xmlns:xlink="http://www.w3.org/1999/xlink" x="0px" y="0px"
	 viewBox="0 0 36.6 30" style="enable-background:new 0 0 36.6 30;" xml:space="preserve">
<style type="text/css">
	.st0{fill:none;stroke:#FFFFFF;stroke-width:0.5;stroke-miterlimit:10;}
</style>
<g>
	<path class="st0" d="M9.5,9.4H27c0.5,0,0.9,0.2,1.2,0.5c0.3,0.3,0.5,0.7,0.5,1.2v12.2c0,0.5-0.2,0.9-0.5,1.2
		C27.9,24.8,27.5,25,27,25H9.5c-0.4,0-0.9-0.2-1.1-0.5c-0.3-0.3-0.5-0.7-0.5-1.2V11c0-0.5,0.2-0.9,0.5-1.2C8.6,9.6,9.1,9.4,9.5,9.4
		L9.5,9.4z M27.1,9.8H9.5c-0.3,0-0.7,0.1-0.9,0.4c-0.2,0.2-0.4,0.6-0.4,0.9v12.2c0,0.4,0.2,0.7,0.4,0.9c0.2,0.2,0.6,0.4,0.9,0.4H27
		c0.4,0,0.7-0.2,0.9-0.4c0.2-0.2,0.4-0.6,0.4-0.9V11c0-0.3-0.2-0.7-0.4-0.9C27.7,9.9,27.4,9.8,27.1,9.8L27.1,9.8z"/>
	<path class="st0" d="M11.1,5.1h14.4c0.4,0,0.7,0.2,1,0.5c0.2,0.3,0.4,0.7,0.4,1.1v2.8c0,0.1-0.1,0.2-0.2,0.2H9.9
		c-0.1,0-0.2-0.1-0.2-0.2V6.7c0-0.4,0.2-0.8,0.4-1.1C10.4,5.3,10.7,5.1,11.1,5.1L11.1,5.1z M25.5,5.5H11.1c-0.3,0-0.5,0.2-0.7,0.4
		c-0.2,0.2-0.3,0.6-0.3,0.9v2.6h16.4V6.7c0-0.3-0.1-0.7-0.3-0.9C26,5.6,25.8,5.5,25.5,5.5L25.5,5.5z"/>
	<g>
		<g>
			<path class="st0" d="M19.1,18.7l-1.6-3c-0.1-0.1,0-0.2,0.1-0.3l2.7-1.4c0.7-0.3,1.6,0,2,0.8l0.3,0.6c0.4,0.8,0.2,1.7-0.5,2
				l-2.7,1.4C19.2,18.8,19.1,18.8,19.1,18.7z M18,15.6l1.4,2.7l2.5-1.3c0.5-0.2,0.6-0.9,0.3-1.5L21.8,15c-0.3-0.6-0.9-0.9-1.4-0.6
				L18,15.6z"/>
			<path class="st0" d="M14.4,19.5l-0.3-0.6c-0.4-0.8-0.2-1.7,0.5-2l2.5-1.3c0.1-0.1,0.2,0,0.3,0.1l1.6,3c0.1,0.1,0,0.2-0.1,0.3
				l-2.5,1.3C15.6,20.6,14.8,20.3,14.4,19.5z M17.1,16.1l-2.3,1.2c-0.5,0.2-0.6,0.9-0.3,1.5l0.3,0.6c0.3,0.6,0.9,0.9,1.4,0.6
				l2.3-1.2L17.1,16.1z"/>
		</g>
	</g>
</g>
</svg>
