<?xml version="1.0" encoding="utf-8"?>
<!-- Generator: Adobe Illustrator 21.1.0, SVG Export Plug-In . SVG Version: 6.00 Build 0)  -->
<svg version="1.1" id="圖層_1" xmlns="http://www.w3.org/2000/svg" xmlns:xlink="http://www.w3.org/1999/xlink" x="0px" y="0px"
	 viewBox="0 0 36.6 30" style="enable-background:new 0 0 36.6 30;" xml:space="preserve">
<style type="text/css">
	.st0{fill:none;stroke:#FFFFFF;stroke-width:0.5;stroke-miterlimit:10;}
</style>
<g>
	<g>
		<path class="st0" d="M12.9,22.4l0.1,0.2c0.7,1.1,1.6,2.5,1.7,3.7c0,1.2-0.8,2.1-3.3,2.2c-0.2,0-0.3,0-0.5,0
			c-0.7-0.1-1.4-0.3-1.8-0.6c-0.5-0.4-0.8-0.8-0.8-1.4l0,0v-0.1c0.1-1.5,1.1-1.7,2.1-1.9c0.9-0.2,2-0.4,2.2-2c0-0.1,0.1-0.2,0.2-0.2
			C12.8,22.3,12.9,22.4,12.9,22.4L12.9,22.4z M14.3,26.4c0-1-0.8-2.3-1.5-3.3c-0.4,1.4-1.4,1.6-2.4,1.8c-0.9,0.2-1.7,0.4-1.8,1.5
			v0.1c0,0.4,0.3,0.7,0.7,1s1,0.5,1.6,0.6c0.2,0,0.3,0,0.4,0C13.6,28,14.3,27.3,14.3,26.4L14.3,26.4z"/>
		<path class="st0" d="M27.9,5.9l-6-4.2h-0.1c-0.3-0.2-0.6-0.2-0.9-0.1s-0.6,0.3-0.8,0.5L20,2.2l-6.9,12.3c0,0.1,0,0.2,0.1,0.3
			l5.4,3.8c0.1,0.1,0.2,0.1,0.3,0l9.2-10.7l0.1-0.1c0.2-0.3,0.3-0.6,0.2-0.9l0,0C28.3,6.4,28.2,6.1,27.9,5.9L27.9,5.9z M21.7,2
			l6,4.2l0.1,0.1c0.1,0,0.2,0.3,0.2,0.5l0,0c0,0.2,0,0.5-0.2,0.7l-0.1,0.1l-9.1,10.6l-5.1-3.6l6.8-12.2V2.3c0.2-0.2,0.4-0.3,0.6-0.4
			C21.2,1.8,21.5,1.9,21.7,2L21.7,2z"/>
		<path class="st0" d="M27,8.8c0.1,0.1,0.2,0,0.3,0c0.1-0.1,0-0.2-0.1-0.3l-7.5-5.2c-0.1-0.1-0.2,0-0.3,0.1c-0.1,0.1-0.1,0.2,0,0.3
			L27,8.8z"/>
		<path class="st0" d="M18.8,18.2l-5.4-3.8c-0.1-0.1-0.2,0-0.3,0L12,16.6c-0.1,0.2-0.1,0.3-0.1,0.5s0.1,0.3,0.2,0.4l4.3,3
			c0.1,0.1,0.3,0.1,0.5,0.1c0.1,0,0.3-0.1,0.4-0.3l1.5-1.8C18.9,18.5,18.9,18.3,18.8,18.2L18.8,18.2z M13.4,14.9l5.1,3.5L17,20
			c-0.1,0.1-0.2,0.2-0.3,0.2h-0.1l-4.3-3l-0.1-0.1c0-0.1,0-0.2,0.1-0.3L13.4,14.9z"/>
		<path class="st0" d="M21.9,8c-0.6-0.4-1.3-0.6-2-0.4c-0.7,0.1-1.3,0.5-1.7,1.1c-0.4,0.6-0.6,1.3-0.4,2c0.1,0.7,0.5,1.3,1.1,1.7
			s1.3,0.6,2,0.4c0.7-0.1,1.3-0.5,1.7-1.1c0.4-0.6,0.6-1.3,0.4-2C22.9,9.1,22.5,8.5,21.9,8L21.9,8z M20,8c0.6-0.1,1.2,0,1.7,0.4
			s0.8,0.9,0.9,1.5s0,1.2-0.4,1.7c-0.3,0.5-0.9,0.9-1.5,0.9c-0.6,0.1-1.2,0-1.7-0.4c-0.5-0.3-0.9-0.9-0.9-1.5
			c-0.1-0.6,0-1.2,0.4-1.7S19.4,8.1,20,8L20,8z"/>
		<path class="st0" d="M27.7,6c0.1-0.1,0-0.2-0.1-0.3c-0.1-0.1-0.2-0.1-0.3,0L26.5,7c-0.1,0.1,0,0.2,0,0.3c0.1,0.1,0.2,0,0.3-0.1
			L27.7,6z"/>
		<path class="st0" d="M26.6,5.2c0.1-0.1,0-0.2,0-0.3c-0.1-0.1-0.2,0-0.3,0.1l-0.9,1.3c-0.1,0.1,0,0.2,0,0.3c0.1,0.1,0.2,0.1,0.3,0
			L26.6,5.2z"/>
		<path class="st0" d="M25.5,4.4c0.1-0.1,0-0.2,0-0.3c-0.1-0.1-0.2,0-0.3,0l-0.9,1.3c-0.1,0.1,0,0.2,0.1,0.3c0.1,0.1,0.2,0,0.3-0.1
			L25.5,4.4z"/>
		<path class="st0" d="M24.4,3.7c0.1-0.1,0-0.2,0-0.3c-0.1-0.1-0.2,0-0.3,0.1l-0.9,1.3c-0.1,0.1,0,0.2,0.1,0.3
			c0.1,0.1,0.2,0.1,0.3,0L24.4,3.7z"/>
		<path class="st0" d="M23.3,2.9c0.1-0.1,0.1-0.2,0-0.3s-0.2,0-0.3,0l-0.9,1.3c-0.1,0.1,0,0.2,0.1,0.3c0.1,0.1,0.2,0,0.3,0L23.3,2.9
			z"/>
		<path class="st0" d="M22.2,2.1c0.1-0.1,0.1-0.2,0-0.3c-0.1-0.1-0.2,0-0.3,0.1L21,3.2c-0.1,0.1,0,0.2,0.1,0.3c0.1,0,0.2,0,0.3-0.1
			L22.2,2.1z"/>
		<path class="st0" d="M12.6,17.8L12.5,18c-0.2,0.3-0.3,0.6-0.3,0.8c0,0.3,0.1,0.5,0.3,0.7l1.8,1.3c0.2,0.2,0.5,0.2,0.8,0.1
			s0.5-0.3,0.7-0.5l0.1-0.2L15.6,20l-0.1,0.2c-0.1,0.2-0.3,0.3-0.5,0.4s-0.3,0.1-0.4,0l-1.8-1.3c-0.1-0.1-0.2-0.2-0.2-0.4
			c0-0.2,0.1-0.4,0.2-0.6l0.1-0.2L12.6,17.8z"/>
	</g>
</g>
</svg>
