<?xml version="1.0" encoding="utf-8"?>
<!-- Generator: Adobe Illustrator 21.1.0, SVG Export Plug-In . SVG Version: 6.00 Build 0)  -->
<svg version="1.1" id="圖層_1" xmlns="http://www.w3.org/2000/svg" xmlns:xlink="http://www.w3.org/1999/xlink" x="0px" y="0px"
	 viewBox="0 0 36.6 30" style="enable-background:new 0 0 36.6 30;" xml:space="preserve">
<style type="text/css">
	.st0{fill:#3D3D3B;}
	.st1{fill:none;stroke:#3C3D3B;stroke-width:0.5;stroke-miterlimit:10;}
</style>
<text transform="matrix(1 0 0 1 44.7664 -230.5117)" class="st0" style="font-family:'FZLTZHB--B51-0'; font-size:13.952px;">保健藥品</text>
<text transform="matrix(1 0 0 1 44.7664 -76.5039)" class="st0" style="font-family:'FZLTZHB--B51-0'; font-size:13.952px;">生活雜貨</text>
<text transform="matrix(1 0 0 1 44.7664 -192.0547)" class="st0" style="font-family:'FZLTZHB--B51-0'; font-size:13.952px; letter-spacing:30;">美妝</text>
<text transform="matrix(1 0 0 1 44.7664 -114.7822)" class="st0" style="font-family:'FZLTZHB--B51-0'; font-size:13.952px; letter-spacing:30;">美髮</text>
<text transform="matrix(1 0 0 1 44.7664 -153.418)" class="st0" style="font-family:'FZLTZHB--B51-0'; font-size:13.952px; letter-spacing:30;">保養</text>
<g>
	<path class="st1" d="M-54,101.1h17.5c0.5,0,0.9,0.2,1.2,0.5c0.3,0.3,0.5,0.7,0.5,1.2V115c0,0.5-0.2,0.9-0.5,1.2
		c-0.3,0.3-0.7,0.5-1.2,0.5H-54c-0.4,0-0.9-0.2-1.1-0.5c-0.3-0.3-0.5-0.7-0.5-1.2v-12.2c0-0.5,0.2-0.9,0.5-1.2
		C-54.9,101.3-54.4,101.1-54,101.1L-54,101.1z M-36.4,101.5H-54c-0.3,0-0.7,0.1-0.9,0.4c-0.2,0.2-0.4,0.6-0.4,0.9V115
		c0,0.4,0.2,0.7,0.4,0.9c0.2,0.2,0.6,0.4,0.9,0.4h17.5c0.4,0,0.7-0.2,0.9-0.4c0.2-0.2,0.4-0.6,0.4-0.9v-12.2c0-0.3-0.2-0.7-0.4-0.9
		C-35.8,101.6-36.1,101.5-36.4,101.5L-36.4,101.5z"/>
	<path class="st1" d="M-52.4,96.9H-38c0.4,0,0.7,0.2,1,0.5c0.2,0.3,0.4,0.7,0.4,1.1v2.8c0,0.1-0.1,0.2-0.2,0.2h-16.8
		c-0.1,0-0.2-0.1-0.2-0.2v-2.8c0-0.4,0.2-0.8,0.4-1.1C-53.1,97-52.8,96.9-52.4,96.9L-52.4,96.9z M-38,97.2h-14.4
		c-0.3,0-0.5,0.2-0.7,0.4c-0.2,0.2-0.3,0.6-0.3,0.9v2.6H-37v-2.6c0-0.3-0.1-0.7-0.3-0.9C-37.5,97.4-37.7,97.2-38,97.2L-38,97.2z"/>
	<g>
		<g>
			<path class="st1" d="M-44.4,110.4l-1.6-3c-0.1-0.1,0-0.2,0.1-0.3l2.7-1.4c0.7-0.3,1.6,0,2,0.8l0.3,0.6c0.4,0.8,0.2,1.7-0.5,2
				l-2.7,1.4C-44.3,110.6-44.4,110.5-44.4,110.4z M-45.5,107.4l1.4,2.7l2.5-1.3c0.5-0.2,0.6-0.9,0.3-1.5l-0.3-0.6
				c-0.3-0.6-0.9-0.9-1.4-0.6L-45.5,107.4z"/>
			<path class="st1" d="M-49.1,111.3l-0.3-0.6c-0.4-0.8-0.2-1.7,0.5-2l2.5-1.3c0.1-0.1,0.2,0,0.3,0.1l1.6,3c0.1,0.1,0,0.2-0.1,0.3
				l-2.5,1.3C-47.9,112.4-48.7,112-49.1,111.3z M-46.4,107.8l-2.3,1.2c-0.5,0.2-0.6,0.9-0.3,1.5l0.3,0.6c0.3,0.6,0.9,0.9,1.4,0.6
				l2.3-1.2L-46.4,107.8z"/>
		</g>
	</g>
</g>
<text transform="matrix(1 0 0 1 44.7664 -270.0132)" class="st0" style="font-family:'FZLTZHB--B51-0'; font-size:14.0973px;">全部商品</text>
<g>
	<path class="st1" d="M9.6,14.8h4.9c0.2,0,0.3,0.1,0.5,0.2l0,0c0.1,0.1,0.2,0.3,0.2,0.5v12c0,0.2-0.1,0.4-0.2,0.5
		c-0.1,0.1-0.3,0.2-0.5,0.2H9.6c-0.2,0-0.4-0.1-0.5-0.2c-0.1-0.1-0.2-0.3-0.2-0.5v-12c0-0.2,0.1-0.4,0.2-0.5
		C9.2,14.9,9.4,14.8,9.6,14.8L9.6,14.8z M14.5,15.3H9.6c-0.1,0-0.1,0-0.2,0.1c0,0-0.1,0.1-0.1,0.2v12c0,0.1,0,0.1,0.1,0.2
		c0,0,0.1,0.1,0.2,0.1h4.9c0,0,0.1,0,0.1-0.1c0.1,0,0.1-0.1,0.1-0.2v-12c0-0.1,0-0.1,0-0.2h0C14.6,15.3,14.5,15.3,14.5,15.3
		L14.5,15.3z"/>
	<path class="st1" d="M13.5,21.3c0-0.1,0.1-0.2,0.2-0.2c0.1,0,0.2,0.1,0.2,0.2v4.5c0,0.1-0.1,0.2-0.2,0.2h-3.4
		c-0.1,0-0.2-0.1-0.2-0.2c0-0.1,0.1-0.2,0.2-0.2h3.2V21.3z"/>
	<path class="st1" d="M11.9,2c0-0.1,0.1-0.2,0.2-0.2c0.1,0,0.2,0.1,0.2,0.2v13c0,0.1-0.1,0.2-0.2,0.2c-0.1,0-0.2-0.1-0.2-0.2V2z"/>
	<path class="st1" d="M11.1,2.8c-0.1,0-0.2-0.1-0.2-0.2c0-0.1,0.1-0.2,0.2-0.2h2.2c0.1,0,0.2,0.1,0.2,0.2c0,0.1-0.1,0.2-0.2,0.2
		H11.1z"/>
	<path class="st1" d="M11.1,3.8c-0.1,0-0.2-0.1-0.2-0.2c0-0.1,0.1-0.2,0.2-0.2h2.2c0.1,0,0.2,0.1,0.2,0.2c0,0.1-0.1,0.2-0.2,0.2
		H11.1z"/>
	<path class="st1" d="M10.7,4.7c-0.1,0-0.2-0.1-0.2-0.2c0-0.1,0.1-0.2,0.2-0.2h2.9c0.1,0,0.2,0.1,0.2,0.2c0,0.1-0.1,0.2-0.2,0.2
		H10.7z"/>
	<path class="st1" d="M10.3,5.8c-0.1,0-0.2-0.1-0.2-0.2c0-0.1,0.1-0.2,0.2-0.2h3.8c0.1,0,0.2,0.1,0.2,0.2c0,0.1-0.1,0.2-0.2,0.2
		H10.3z"/>
	<path class="st1" d="M11.1,8.8c-0.1,0-0.2-0.1-0.2-0.2c0-0.1,0.1-0.2,0.2-0.2h2.2c0.1,0,0.2,0.1,0.2,0.2c0,0.1-0.1,0.2-0.2,0.2
		H11.1z"/>
	<path class="st1" d="M11.1,7.8c-0.1,0-0.2-0.1-0.2-0.2c0-0.1,0.1-0.2,0.2-0.2h2.2c0.1,0,0.2,0.1,0.2,0.2c0,0.1-0.1,0.2-0.2,0.2
		H11.1z"/>
	<path class="st1" d="M10.7,6.8c-0.1,0-0.2-0.1-0.2-0.2c0-0.1,0.1-0.2,0.2-0.2h2.9c0.1,0,0.2,0.1,0.2,0.2c0,0.1-0.1,0.2-0.2,0.2
		H10.7z"/>
	<path class="st1" d="M18.9,17.2h7.8c0.1,0,0.1,0,0.1,0h0c0.2,0,0.4,0.1,0.6,0.3c0.2,0.2,0.3,0.4,0.3,0.6c0,0,0,0.1,0,0.1l-1.2,9
		c0,0.3-0.2,0.5-0.4,0.7c-0.2,0.2-0.4,0.3-0.7,0.3h-5.2c-0.3,0-0.5-0.1-0.7-0.3c-0.2-0.2-0.3-0.4-0.3-0.7l-1.2-9l0-0.1
		c0-0.2,0.1-0.4,0.3-0.6c0.2-0.1,0.4-0.2,0.6-0.3C18.9,17.2,18.9,17.2,18.9,17.2L18.9,17.2z M26.7,17.7h-7.8h-0.1
		c-0.1,0-0.3,0.1-0.4,0.2c-0.1,0.1-0.1,0.2-0.1,0.3l0,0.1l1.2,9c0,0.2,0.1,0.4,0.2,0.5c0.1,0.1,0.2,0.1,0.4,0.1h5.2
		c0.2,0,0.3-0.1,0.4-0.1c0.1-0.1,0.2-0.3,0.2-0.4l1.2-9v-0.1c0-0.1,0-0.2-0.1-0.3c-0.1-0.1-0.2-0.2-0.4-0.2H26.7z"/>
	<path class="st1" d="M21.1,5.8h3.4c0.2,0,0.4,0.1,0.6,0.2c0.2,0.1,0.2,0.4,0.3,0.6l0.6,10.8c0,0.1-0.1,0.2-0.2,0.2h-5.8
		c-0.1,0-0.2-0.1-0.2-0.2l0.6-10.8c0-0.2,0.1-0.4,0.2-0.6l0,0C20.7,5.9,20.9,5.8,21.1,5.8L21.1,5.8z M24.5,6.3h-3.4
		c-0.1,0-0.2,0-0.3,0.1l0,0c-0.1,0.1-0.1,0.2-0.1,0.3l-0.6,10.6h5.4L24.9,6.7c0-0.1-0.1-0.2-0.1-0.3C24.7,6.3,24.6,6.3,24.5,6.3
		L24.5,6.3z"/>
	<path class="st1" d="M23.7,9c0-0.1,0.1-0.2,0.2-0.2c0.1,0,0.2,0.1,0.2,0.2l0.3,4.7c0,0.1-0.1,0.2-0.2,0.2c-0.1,0-0.2-0.1-0.2-0.2
		L23.7,9z"/>
	<path class="st1" d="M24.8,23.3c0,0.1,0.1,0.2,0.2,0.2c0.1,0,0.2-0.1,0.2-0.2v-4.5c0-0.1-0.1-0.2-0.2-0.2h-3.4
		c-0.1,0-0.2,0.1-0.2,0.2c0,0.1,0.1,0.2,0.2,0.2h3.2V23.3z"/>
</g>
<g>
	<g>
		<path class="st1" d="M152.4,160.3l0.1,0.2c0.7,1.1,1.6,2.5,1.7,3.7c0,1.2-0.8,2.1-3.3,2.2c-0.2,0-0.3,0-0.5,0
			c-0.7-0.1-1.4-0.3-1.8-0.6c-0.5-0.4-0.8-0.8-0.8-1.4l0,0c0,0,0-0.1,0-0.1c0.1-1.5,1.1-1.7,2.1-1.9c0.9-0.2,2-0.4,2.2-2
			c0-0.1,0.1-0.2,0.2-0.2C152.3,160.2,152.4,160.2,152.4,160.3L152.4,160.3z M153.8,164.2c0-1-0.8-2.3-1.5-3.3
			c-0.4,1.4-1.4,1.6-2.4,1.8c-0.9,0.2-1.7,0.4-1.8,1.5v0.1c0,0.4,0.3,0.7,0.7,1c0.4,0.3,1,0.5,1.6,0.6c0.2,0,0.3,0,0.4,0
			C153.1,165.9,153.8,165.1,153.8,164.2L153.8,164.2z"/>
		<path class="st1" d="M167.4,143.7l-6-4.2l-0.1,0c-0.3-0.2-0.6-0.2-0.9-0.1c-0.3,0.1-0.6,0.3-0.8,0.5l-0.1,0.1l-6.9,12.3
			c0,0.1,0,0.2,0.1,0.3l5.4,3.8c0.1,0.1,0.2,0.1,0.3,0l9.2-10.7c0,0,0.1-0.1,0.1-0.1c0.2-0.3,0.3-0.6,0.2-0.9v0
			C167.8,144.2,167.7,143.9,167.4,143.7L167.4,143.7z M161.2,139.8l6,4.2l0.1,0.1c0.2,0.1,0.3,0.3,0.3,0.6l0,0c0,0.2,0,0.5-0.2,0.7
			l-0.1,0.1l-9.1,10.6l-5.1-3.6l6.8-12.2l0-0.1c0.2-0.2,0.4-0.3,0.6-0.4C160.7,139.7,161,139.7,161.2,139.8L161.2,139.8z"/>
		<path class="st1" d="M166.5,146.7c0.1,0.1,0.2,0,0.3,0c0.1-0.1,0-0.2-0.1-0.3l-7.5-5.2c-0.1-0.1-0.2,0-0.3,0.1
			c-0.1,0.1-0.1,0.2,0,0.3L166.5,146.7z"/>
		<path class="st1" d="M158.3,156.1l-5.4-3.8c-0.1-0.1-0.2,0-0.3,0l-1.1,2.1c-0.1,0.2-0.1,0.3-0.1,0.5c0,0.2,0.1,0.3,0.2,0.4l4.3,3
			c0.1,0.1,0.3,0.1,0.5,0.1c0.1,0,0.3-0.1,0.4-0.3l1.5-1.8C158.4,156.3,158.4,156.2,158.3,156.1L158.3,156.1z M152.9,152.7l5.1,3.5
			l-1.4,1.6c-0.1,0.1-0.2,0.2-0.3,0.2c0,0-0.1,0-0.1,0l-4.3-3c0,0-0.1-0.1-0.1-0.1c0-0.1,0-0.2,0.1-0.3L152.9,152.7z"/>
		<path class="st1" d="M161.4,145.9c-0.6-0.4-1.3-0.6-2-0.4c-0.7,0.1-1.3,0.5-1.7,1.1c-0.4,0.6-0.6,1.3-0.4,2
			c0.1,0.7,0.5,1.3,1.1,1.7c0.6,0.4,1.3,0.6,2,0.4c0.7-0.1,1.3-0.5,1.7-1.1c0.4-0.6,0.6-1.3,0.4-2
			C162.4,146.9,162,146.3,161.4,145.9L161.4,145.9z M159.5,145.8c0.6-0.1,1.2,0,1.7,0.4c0.5,0.4,0.8,0.9,0.9,1.5
			c0.1,0.6,0,1.2-0.4,1.7c-0.3,0.5-0.9,0.9-1.5,0.9c-0.6,0.1-1.2,0-1.7-0.4c-0.5-0.3-0.9-0.9-0.9-1.5c-0.1-0.6,0-1.2,0.4-1.7
			C158.4,146.2,158.9,145.9,159.5,145.8L159.5,145.8z"/>
		<path class="st1" d="M167.2,143.8c0.1-0.1,0-0.2-0.1-0.3c-0.1-0.1-0.2-0.1-0.3,0l-0.9,1.3c-0.1,0.1,0,0.2,0,0.3
			c0.1,0.1,0.2,0,0.3-0.1L167.2,143.8z"/>
		<path class="st1" d="M166.1,143c0.1-0.1,0-0.2,0-0.3c-0.1-0.1-0.2,0-0.3,0.1l-0.9,1.3c-0.1,0.1,0,0.2,0,0.3c0.1,0.1,0.2,0.1,0.3,0
			L166.1,143z"/>
		<path class="st1" d="M165,142.2c0.1-0.1,0-0.2,0-0.3c-0.1-0.1-0.2,0-0.3,0l-0.9,1.3c-0.1,0.1,0,0.2,0.1,0.3c0.1,0.1,0.2,0,0.3-0.1
			L165,142.2z"/>
		<path class="st1" d="M163.9,141.5c0.1-0.1,0-0.2,0-0.3c-0.1-0.1-0.2,0-0.3,0.1l-0.9,1.3c-0.1,0.1,0,0.2,0.1,0.3
			c0.1,0.1,0.2,0.1,0.3,0L163.9,141.5z"/>
		<path class="st1" d="M162.8,140.7c0.1-0.1,0.1-0.2,0-0.3c-0.1-0.1-0.2,0-0.3,0l-0.9,1.3c-0.1,0.1,0,0.2,0.1,0.3
			c0.1,0.1,0.2,0,0.3,0L162.8,140.7z"/>
		<path class="st1" d="M161.7,139.9c0.1-0.1,0.1-0.2,0-0.3c-0.1-0.1-0.2,0-0.3,0.1l-0.9,1.3c-0.1,0.1,0,0.2,0.1,0.3
			c0.1,0,0.2,0,0.3-0.1L161.7,139.9z"/>
		<path class="st1" d="M152.1,155.6l-0.1,0.2c-0.2,0.3-0.3,0.6-0.3,0.8c0,0.3,0.1,0.5,0.3,0.7l1.8,1.3c0.2,0.2,0.5,0.2,0.8,0.1
			c0.3-0.1,0.5-0.3,0.7-0.5l0.1-0.2l-0.3-0.2l-0.1,0.2c-0.1,0.2-0.3,0.3-0.5,0.4c-0.2,0.1-0.3,0.1-0.4,0l-1.8-1.3
			c-0.1-0.1-0.2-0.2-0.2-0.4c0-0.2,0.1-0.4,0.2-0.6l0.1-0.2L152.1,155.6z"/>
	</g>
</g>
<g>
	<path class="st1" d="M113.5,124.3h3.9c0.6,0,1.2-0.1,1.7-0.1c0.5-0.1,1-0.1,1.5-0.1c1.1,0,1.9,0.3,1.9,1.5c0,0.1,0,0.2-0.1,0.2
		c-0.1,0.1-0.2,0.1-0.3,0.1h-4.1l0,0.6h4.1c0.1,0,0.2,0,0.3,0.1c0,0.1,0.1,0.1,0.1,0.2v1c0,0.1,0,0.2-0.1,0.2
		c-0.1,0.1-0.2,0.1-0.3,0.1H118l-0.1,0.6h4.3c0.1,0,0.2,0.1,0.3,0.1c0,0.1,0.1,0.2,0.1,0.2v1c0,0.1,0,0.2-0.1,0.3
		c-0.1,0.1-0.2,0.1-0.3,0.1h-4.4l-0.1,0.5h4.5c0.1,0,0.2,0.1,0.3,0.1l0,0c0,0.1,0.1,0.2,0.1,0.3v1c0,0.1,0,0.2-0.1,0.3
		c-0.1,0.1-0.2,0.1-0.3,0.1h-4.6l-0.1,0.6h4.7c0.1,0,0.2,0,0.3,0.1c0,0.1,0.1,0.2,0.1,0.3v1c0,0.1,0,0.2-0.1,0.2
		c-0.1,0.1-0.2,0.1-0.3,0.1c-0.9,0-1.7-0.1-2.3-0.1l0,0c-1.2-0.1-1.9-0.1-2.3,0.3c0.4,0.4,1.1,0.4,2.3,0.3c0.6,0,1.4-0.1,2.3-0.1
		c0.1,0,0.2,0,0.3,0.1c0,0.1,0.1,0.1,0.1,0.2v1c0,0.1,0,0.2-0.1,0.2c-0.1,0.1-0.2,0.1-0.3,0.1h-4.7l0.1,0.6h4.6
		c0.1,0,0.2,0.1,0.3,0.1c0,0.1,0.1,0.2,0.1,0.2v1c0,0.1,0,0.2-0.1,0.3c-0.1,0.1-0.2,0.1-0.3,0.1h-4.5l0.1,0.6h4.4
		c0.1,0,0.2,0.1,0.3,0.1c0,0.1,0.1,0.2,0.1,0.3v1c0,0.1,0,0.2-0.1,0.3c-0.1,0.1-0.2,0.1-0.3,0.1h-4.3l0.1,0.6h4.2
		c0.1,0,0.2,0,0.3,0.1c0,0.1,0.1,0.2,0.1,0.3v1c0,0.1,0,0.2-0.1,0.2c-0.1,0.1-0.2,0.1-0.3,0.1H118l0,0.6h4.1c0.1,0,0.2,0,0.3,0.1
		c0,0.1,0.1,0.1,0.1,0.2c0,1.3-0.8,1.5-1.9,1.5c-0.5,0-0.9,0-1.5-0.1c-0.5,0-1.1-0.1-1.7-0.1h-3.9c-0.2,0-0.4-0.1-0.5-0.2
		c-0.1-0.1-0.2-0.3-0.2-0.5V125c0-0.2,0.1-0.4,0.2-0.5C113.1,124.4,113.3,124.3,113.5,124.3L113.5,124.3z M116.7,124.7h-3.2
		c-0.1,0-0.2,0-0.2,0.1c-0.1,0.1-0.1,0.1-0.1,0.2v20.7c0,0.1,0,0.2,0.1,0.2c0.1,0,0.1,0.1,0.2,0.1h3.9c0.6,0,1.2,0.1,1.7,0.1
		c0.5,0.1,1,0.1,1.4,0.1c0.9,0,1.5-0.2,1.5-1.1h-4.2c-0.1,0-0.2-0.1-0.2-0.2v-0.5l0-0.5c0-0.1,0.1-0.2,0.2-0.2h4.2v-0.9h-4.3
		c-0.1,0-0.2-0.1-0.2-0.2l-0.1-1c0-0.1,0.1-0.2,0.2-0.2h4.4v-1h-4.5c-0.1,0-0.2-0.1-0.2-0.2l-0.1-1c0-0.1,0.1-0.2,0.2-0.2h4.6v-0.9
		h-4.7c-0.1,0-0.2-0.1-0.2-0.2l-0.1-1c0-0.1,0.1-0.2,0.2-0.2h4.8v-0.9c-0.9,0-1.6,0.1-2.2,0.1c-1.5,0.1-2.2,0.2-2.7-0.6l0,0
		c0-0.1,0-0.1,0-0.2c0.5-0.8,1.3-0.7,2.7-0.6c0.6,0,1.3,0.1,2.2,0.1v-0.9h-4.9c-0.1,0-0.2-0.1-0.2-0.2l0.1-0.9
		c0-0.1,0.1-0.2,0.2-0.2h4.7v-1h-4.6c-0.1,0-0.2-0.1-0.2-0.2l0.1-1c0-0.1,0.1-0.2,0.2-0.2h4.5v-1h-4.4c-0.1,0-0.2-0.1-0.2-0.2l0.1-1
		c0-0.1,0.1-0.2,0.2-0.2h4.3V127h-4.2c-0.1,0-0.2-0.1-0.2-0.2l0-0.5v-0.5c0-0.1,0.1-0.2,0.2-0.2h4.2c0-0.9-0.7-1.1-1.5-1.1
		c-0.5,0-0.9,0-1.4,0.1c-0.6,0.1-1.2,0.1-1.7,0.1H116.7z"/>
</g>
<g>
	<path class="st1" d="M124.3,94.3l9.1-2.5v-0.2c0-0.1,0-0.2-0.1-0.3l0,0c0-0.1,0-0.2-0.1-0.3l0,0c0-0.1-0.1-0.1-0.1-0.2
		c0-0.1-0.1-0.2-0.2-0.3c-0.1-0.1-0.3-0.3-0.4-0.4c-0.3-0.2-0.5-0.5-0.7-0.7c-0.2-0.2-0.3-0.4-0.4-0.6c-0.1-0.2-0.2-0.4-0.2-0.6
		c0-0.2-0.1-0.4-0.1-0.6c0-0.4,0.1-0.7,0.2-1c0.1-0.3,0.3-0.6,0.6-0.9c0.3-0.3,0.6-0.4,1-0.6c0.4-0.1,0.8-0.2,1.3-0.2
		c0.4,0,0.8,0.1,1.2,0.2c0.4,0.1,0.7,0.3,0.9,0.6c0.3,0.2,0.5,0.5,0.7,0.9c0.2,0.3,0.3,0.7,0.3,1.2c0,0.1-0.1,0.2-0.2,0.2l-1.2,0.1
		c-0.1,0-0.2-0.1-0.2-0.2v0c-0.1-0.3-0.1-0.5-0.2-0.7c-0.1-0.2-0.2-0.4-0.3-0.5c-0.1-0.1-0.3-0.2-0.5-0.3c-0.2-0.1-0.4-0.1-0.6-0.1
		c-0.2,0-0.4,0-0.6,0.1c-0.2,0.1-0.3,0.2-0.5,0.3c-0.1,0.1-0.3,0.3-0.3,0.5c-0.1,0.2-0.1,0.3-0.1,0.5c0,0.1,0,0.2,0,0.3
		c0,0.1,0.1,0.2,0.1,0.3c0.1,0.1,0.1,0.2,0.3,0.3c0.1,0.1,0.3,0.3,0.4,0.4c0.2,0.2,0.4,0.3,0.5,0.5c0.1,0.1,0.2,0.2,0.3,0.3
		c0.1,0.1,0.2,0.3,0.3,0.4c0.1,0.1,0.1,0.3,0.2,0.4c0.1,0.2,0.1,0.4,0.1,0.6c0,0.2,0.1,0.4,0.1,0.6l0,0l9,2.4c0.5,0.1,1,0.4,1.3,0.7
		l0,0c0.3,0.3,0.5,0.7,0.5,1.2c0,0.5-0.2,1-0.5,1.3c-0.3,0.3-0.8,0.5-1.3,0.5h-0.7c-0.1,0-0.2-0.1-0.2-0.2v-0.2
		c0-0.7-0.3-1.3-0.7-1.7c-0.4-0.4-1-0.7-1.7-0.7h-12.7c-0.7,0-1.3,0.3-1.7,0.7l0,0c-0.4,0.4-0.7,1-0.7,1.7v0.2
		c0,0.1-0.1,0.2-0.2,0.2h-0.7c-0.5,0-1-0.2-1.3-0.5c-0.3-0.3-0.5-0.8-0.5-1.3c0-0.5,0.2-0.9,0.5-1.2
		C123.3,94.7,123.8,94.5,124.3,94.3L124.3,94.3z M133.6,92.2l-9.2,2.5c-0.5,0.1-0.9,0.3-1.2,0.6c-0.2,0.2-0.3,0.5-0.3,0.9
		c0,0.4,0.2,0.7,0.4,1c0.3,0.3,0.6,0.4,1,0.4h0.5c0-0.8,0.3-1.5,0.8-2l0,0c0.5-0.5,1.2-0.8,2-0.8h12.7c0.8,0,1.5,0.3,2,0.8
		c0.5,0.5,0.8,1.2,0.8,2h0.5c0.4,0,0.7-0.2,1-0.4c0.3-0.3,0.4-0.6,0.4-1c0-0.4-0.1-0.6-0.4-0.9l0,0c-0.3-0.3-0.7-0.5-1.1-0.6
		l-9.2-2.5c-0.1,0-0.1-0.1-0.1-0.2v-0.1c0-0.2,0-0.4-0.1-0.6c0-0.2-0.1-0.3-0.1-0.5l0,0c-0.1-0.1-0.1-0.2-0.2-0.3
		c-0.1-0.1-0.2-0.2-0.2-0.3c-0.1-0.1-0.2-0.2-0.3-0.3c-0.1-0.1-0.3-0.3-0.5-0.4c-0.2-0.2-0.3-0.3-0.5-0.5c-0.1-0.1-0.2-0.3-0.3-0.4
		c-0.1-0.1-0.1-0.3-0.2-0.4c0-0.1,0-0.3,0-0.4c0-0.2,0-0.5,0.1-0.7c0.1-0.2,0.2-0.4,0.4-0.6c0.2-0.2,0.4-0.3,0.6-0.4
		c0.2-0.1,0.5-0.1,0.7-0.1c0.3,0,0.5,0,0.7,0.1c0.2,0.1,0.4,0.2,0.6,0.4c0.2,0.2,0.3,0.4,0.4,0.6c0.1,0.2,0.2,0.4,0.2,0.7l0.8-0.1
		c-0.1-0.3-0.2-0.6-0.3-0.9c-0.1-0.3-0.3-0.5-0.6-0.7c-0.2-0.2-0.5-0.4-0.8-0.5c-0.3-0.1-0.7-0.2-1.1-0.2c-0.4,0-0.8,0.1-1.1,0.2
		c-0.3,0.1-0.6,0.3-0.8,0.5c-0.3,0.2-0.4,0.5-0.6,0.7c-0.1,0.3-0.2,0.5-0.2,0.9c0,0.2,0,0.3,0.1,0.5c0,0.2,0.1,0.3,0.2,0.5
		c0.1,0.2,0.2,0.3,0.4,0.5c0.2,0.2,0.4,0.4,0.7,0.6c0.2,0.2,0.3,0.3,0.4,0.4c0.1,0.1,0.2,0.2,0.3,0.3c0,0.1,0.1,0.2,0.1,0.3h0
		c0,0.1,0.1,0.2,0.1,0.3v0c0,0.1,0,0.2,0.1,0.3c0,0.1,0,0.3,0,0.4C133.8,92.1,133.7,92.1,133.6,92.2L133.6,92.2z"/>
	<path class="st1" d="M127.7,94.8h12.7c0.8,0,1.5,0.3,2,0.8h0c0.5,0.5,0.8,1.2,0.8,2v10c0,0.8-0.3,1.5-0.8,2c-0.5,0.5-1.2,0.8-2,0.8
		h-12.7c-0.8,0-1.5-0.3-2-0.8l0,0c-0.5-0.5-0.8-1.2-0.8-2v-10c0-0.8,0.3-1.5,0.8-2C126.2,95.1,126.9,94.8,127.7,94.8L127.7,94.8z
		 M140.4,95.2h-12.7c-0.7,0-1.3,0.3-1.7,0.7c-0.4,0.4-0.7,1-0.7,1.7v10c0,0.6,0.3,1.3,0.7,1.7l0,0c0.4,0.4,1,0.7,1.7,0.7h12.7
		c0.7,0,1.3-0.3,1.7-0.7c0.4-0.4,0.7-1.1,0.7-1.7v-10c0-0.6-0.3-1.3-0.7-1.7v0C141.7,95.5,141.1,95.2,140.4,95.2L140.4,95.2z"/>
	<path class="st1" d="M125,103.6c-0.1,0-0.2-0.1-0.2-0.2c0-0.1,0.1-0.2,0.2-0.2h18c0.1,0,0.2,0.1,0.2,0.2c0,0.1-0.1,0.2-0.2,0.2H125
		z"/>
</g>
<g>
	<g>
		<path class="st1" d="M-56.5,71.9l11.2,5.6c0,0,0.1,0,0.1,0s0.1,0,0.1,0l11.2-5.6c0.1-0.1,0.2-0.2,0.2-0.3c0-0.1-0.1-0.2-0.2-0.3
			l-11.2-5.2c-0.1,0-0.2,0-0.3,0l-11.2,5.2c-0.1,0.1-0.2,0.2-0.2,0.3C-56.7,71.8-56.6,71.9-56.5,71.9z M-45.2,66.8l10.4,4.9
			l-10.4,5.3l-10.4-5.3L-45.2,66.8z"/>
		<path class="st1" d="M-33.9,74.9l-2.4-1.1c-0.2-0.1-0.3,0-0.4,0.2c-0.1,0.2,0,0.3,0.2,0.4l1.8,0.9l-10.4,5.3l-10.4-5.3l1.8-0.8
			c0.2-0.1,0.2-0.3,0.2-0.4c-0.1-0.2-0.3-0.2-0.4-0.2l-2.4,1.1c-0.1,0.1-0.2,0.2-0.2,0.3c0,0.1,0.1,0.2,0.2,0.3l11.2,5.6
			c0,0,0.1,0,0.1,0s0.1,0,0.1,0l11.2-5.6c0.1-0.1,0.2-0.2,0.2-0.3C-33.7,75.1-33.8,75-33.9,74.9z"/>
		<path class="st1" d="M-33.9,78.7l-2.4-1.1c-0.2-0.1-0.3,0-0.4,0.2c-0.1,0.2,0,0.3,0.2,0.4l1.8,0.9l-10.4,5.3L-55.6,79l1.8-0.8
			c0.2-0.1,0.2-0.3,0.2-0.4c-0.1-0.2-0.3-0.2-0.4-0.2l-2.4,1.1c-0.1,0.1-0.2,0.2-0.2,0.3c0,0.1,0.1,0.2,0.2,0.3l11.2,5.6
			c0,0,0.1,0,0.1,0s0.1,0,0.1,0l11.2-5.6c0.1-0.1,0.2-0.2,0.2-0.3C-33.7,78.8-33.8,78.7-33.9,78.7z"/>
	</g>
</g>
</svg>
