<?xml version="1.0" encoding="utf-8"?>
<!-- Generator: Adobe Illustrator 21.1.0, SVG Export Plug-In . SVG Version: 6.00 Build 0)  -->
<svg version="1.1" id="圖層_1" xmlns="http://www.w3.org/2000/svg" xmlns:xlink="http://www.w3.org/1999/xlink" x="0px" y="0px"
	 viewBox="0 0 36.6 30" style="enable-background:new 0 0 36.6 30;" xml:space="preserve">
<style type="text/css">
	.st0{fill:none;stroke:#3C3D3B;stroke-width:0.5;stroke-miterlimit:10;}
</style>
<g>
	<g>
		<path class="st0" d="M7,11.4L18.2,17h0.1h0.1l11.2-5.6c0.1-0.1,0.2-0.2,0.2-0.3s-0.1-0.2-0.2-0.3L18.4,5.6c-0.1,0-0.2,0-0.3,0
			L7,10.9c-0.1,0.1-0.2,0.2-0.2,0.3S6.9,11.4,7,11.4z M18.3,6.3l10.4,4.9l-10.4,5.3L7.9,11.1L18.3,6.3z"/>
		<path class="st0" d="M29.6,14.4l-2.4-1.1c-0.2-0.1-0.3,0-0.4,0.2s0,0.3,0.2,0.4l1.8,0.9L18.3,20L7.9,14.7l1.8-0.8
			c0.2-0.1,0.2-0.3,0.2-0.4c-0.1-0.2-0.3-0.2-0.4-0.2L7,14.4c-0.1,0.1-0.2,0.2-0.2,0.3S6.9,15,7,15l11.2,5.6h0.1h0.1L29.6,15
			c0.1-0.1,0.2-0.2,0.2-0.3C29.8,14.6,29.7,14.5,29.6,14.4z"/>
		<path class="st0" d="M29.6,18.2l-2.4-1.1c-0.2-0.1-0.3,0-0.4,0.2s0,0.3,0.2,0.4l1.8,0.9l-10.4,5.3L7.9,18.5l1.8-0.8
			c0.2-0.1,0.2-0.3,0.2-0.4c-0.1-0.2-0.3-0.2-0.4-0.2L7,18.2c-0.1,0.1-0.2,0.2-0.2,0.3c0,0.1,0.1,0.2,0.2,0.3l11.2,5.6h0.1h0.1
			l11.2-5.6c0.1-0.1,0.2-0.2,0.2-0.3C29.8,18.3,29.7,18.2,29.6,18.2z"/>
	</g>
</g>
</svg>
