<?xml version="1.0" encoding="utf-8"?>
<!-- Generator: Adobe Illustrator 21.1.0, SVG Export Plug-In . SVG Version: 6.00 Build 0)  -->
<svg version="1.1" id="圖層_1" xmlns="http://www.w3.org/2000/svg" xmlns:xlink="http://www.w3.org/1999/xlink" x="0px" y="0px"
	 viewBox="0 0 36.6 30" style="enable-background:new 0 0 36.6 30;" xml:space="preserve">
<style type="text/css">
	.st0{fill:#3D3D3B;}
	.st1{fill:none;stroke:#3C3D3B;stroke-width:0.5;stroke-miterlimit:10;}
</style>
<text transform="matrix(1 0 0 1 44.7664 -230.5117)" class="st0" style="font-family:'FZLTZHB--B51-0'; font-size:13.952px;">保健藥品</text>
<text transform="matrix(1 0 0 1 44.7664 -76.5039)" class="st0" style="font-family:'FZLTZHB--B51-0'; font-size:13.952px;">生活雜貨</text>
<text transform="matrix(1 0 0 1 44.7664 -192.0547)" class="st0" style="font-family:'FZLTZHB--B51-0'; font-size:13.952px; letter-spacing:30;">美妝</text>
<text transform="matrix(1 0 0 1 44.7664 -114.7822)" class="st0" style="font-family:'FZLTZHB--B51-0'; font-size:13.952px; letter-spacing:30;">美髮</text>
<text transform="matrix(1 0 0 1 44.7664 -153.418)" class="st0" style="font-family:'FZLTZHB--B51-0'; font-size:13.952px; letter-spacing:30;">保養</text>
<g>
	<path class="st1" d="M-54,101.1h17.5c0.5,0,0.9,0.2,1.2,0.5c0.3,0.3,0.5,0.7,0.5,1.2V115c0,0.5-0.2,0.9-0.5,1.2
		c-0.3,0.3-0.7,0.5-1.2,0.5H-54c-0.4,0-0.9-0.2-1.1-0.5c-0.3-0.3-0.5-0.7-0.5-1.2v-12.2c0-0.5,0.2-0.9,0.5-1.2
		C-54.9,101.3-54.4,101.1-54,101.1L-54,101.1z M-36.4,101.5H-54c-0.3,0-0.7,0.1-0.9,0.4c-0.2,0.2-0.4,0.6-0.4,0.9V115
		c0,0.4,0.2,0.7,0.4,0.9c0.2,0.2,0.6,0.4,0.9,0.4h17.5c0.4,0,0.7-0.2,0.9-0.4c0.2-0.2,0.4-0.6,0.4-0.9v-12.2c0-0.3-0.2-0.7-0.4-0.9
		C-35.8,101.6-36.1,101.5-36.4,101.5L-36.4,101.5z"/>
	<path class="st1" d="M-52.4,96.9H-38c0.4,0,0.7,0.2,1,0.5c0.2,0.3,0.4,0.7,0.4,1.1v2.8c0,0.1-0.1,0.2-0.2,0.2h-16.8
		c-0.1,0-0.2-0.1-0.2-0.2v-2.8c0-0.4,0.2-0.8,0.4-1.1C-53.1,97-52.8,96.9-52.4,96.9L-52.4,96.9z M-38,97.2h-14.4
		c-0.3,0-0.5,0.2-0.7,0.4c-0.2,0.2-0.3,0.6-0.3,0.9v2.6H-37v-2.6c0-0.3-0.1-0.7-0.3-0.9C-37.5,97.4-37.7,97.2-38,97.2L-38,97.2z"/>
	<g>
		<g>
			<path class="st1" d="M-44.4,110.4l-1.6-3c-0.1-0.1,0-0.2,0.1-0.3l2.7-1.4c0.7-0.3,1.6,0,2,0.8l0.3,0.6c0.4,0.8,0.2,1.7-0.5,2
				l-2.7,1.4C-44.3,110.6-44.4,110.5-44.4,110.4z M-45.5,107.4l1.4,2.7l2.5-1.3c0.5-0.2,0.6-0.9,0.3-1.5l-0.3-0.6
				c-0.3-0.6-0.9-0.9-1.4-0.6L-45.5,107.4z"/>
			<path class="st1" d="M-49.1,111.3l-0.3-0.6c-0.4-0.8-0.2-1.7,0.5-2l2.5-1.3c0.1-0.1,0.2,0,0.3,0.1l1.6,3c0.1,0.1,0,0.2-0.1,0.3
				l-2.5,1.3C-47.9,112.4-48.7,112-49.1,111.3z M-46.4,107.8l-2.3,1.2c-0.5,0.2-0.6,0.9-0.3,1.5l0.3,0.6c0.3,0.6,0.9,0.9,1.4,0.6
				l2.3-1.2L-46.4,107.8z"/>
		</g>
	</g>
</g>
<text transform="matrix(1 0 0 1 44.7664 -270.0132)" class="st0" style="font-family:'FZLTZHB--B51-0'; font-size:14.0973px;">全部商品</text>
<g>
	<path class="st1" d="M-55.8,141.6h4.9c0.2,0,0.3,0.1,0.5,0.2l0,0c0.1,0.1,0.2,0.3,0.2,0.5v12c0,0.2-0.1,0.4-0.2,0.5
		c-0.1,0.1-0.3,0.2-0.5,0.2h-4.9c-0.2,0-0.4-0.1-0.5-0.2c-0.1-0.1-0.2-0.3-0.2-0.5v-12c0-0.2,0.1-0.4,0.2-0.5
		C-56.2,141.7-56,141.6-55.8,141.6L-55.8,141.6z M-50.9,142.1h-4.9c-0.1,0-0.1,0-0.2,0.1c0,0-0.1,0.1-0.1,0.2v12
		c0,0.1,0,0.1,0.1,0.2c0,0,0.1,0.1,0.2,0.1h4.9c0,0,0.1,0,0.1-0.1c0.1,0,0.1-0.1,0.1-0.2v-12c0-0.1,0-0.1,0-0.2h0
		C-50.8,142.1-50.9,142.1-50.9,142.1L-50.9,142.1z"/>
	<path class="st1" d="M-51.9,148.1c0-0.1,0.1-0.2,0.2-0.2c0.1,0,0.2,0.1,0.2,0.2v4.5c0,0.1-0.1,0.2-0.2,0.2h-3.4
		c-0.1,0-0.2-0.1-0.2-0.2c0-0.1,0.1-0.2,0.2-0.2h3.2V148.1z"/>
	<path class="st1" d="M-53.5,128.8c0-0.1,0.1-0.2,0.2-0.2c0.1,0,0.2,0.1,0.2,0.2v13c0,0.1-0.1,0.2-0.2,0.2c-0.1,0-0.2-0.1-0.2-0.2
		V128.8z"/>
	<path class="st1" d="M-54.3,129.6c-0.1,0-0.2-0.1-0.2-0.2c0-0.1,0.1-0.2,0.2-0.2h2.2c0.1,0,0.2,0.1,0.2,0.2c0,0.1-0.1,0.2-0.2,0.2
		H-54.3z"/>
	<path class="st1" d="M-54.3,130.6c-0.1,0-0.2-0.1-0.2-0.2c0-0.1,0.1-0.2,0.2-0.2h2.2c0.1,0,0.2,0.1,0.2,0.2c0,0.1-0.1,0.2-0.2,0.2
		H-54.3z"/>
	<path class="st1" d="M-54.7,131.5c-0.1,0-0.2-0.1-0.2-0.2c0-0.1,0.1-0.2,0.2-0.2h2.9c0.1,0,0.2,0.1,0.2,0.2c0,0.1-0.1,0.2-0.2,0.2
		H-54.7z"/>
	<path class="st1" d="M-55.1,132.6c-0.1,0-0.2-0.1-0.2-0.2c0-0.1,0.1-0.2,0.2-0.2h3.8c0.1,0,0.2,0.1,0.2,0.2c0,0.1-0.1,0.2-0.2,0.2
		H-55.1z"/>
	<path class="st1" d="M-54.3,135.5c-0.1,0-0.2-0.1-0.2-0.2c0-0.1,0.1-0.2,0.2-0.2h2.2c0.1,0,0.2,0.1,0.2,0.2c0,0.1-0.1,0.2-0.2,0.2
		H-54.3z"/>
	<path class="st1" d="M-54.3,134.6c-0.1,0-0.2-0.1-0.2-0.2c0-0.1,0.1-0.2,0.2-0.2h2.2c0.1,0,0.2,0.1,0.2,0.2c0,0.1-0.1,0.2-0.2,0.2
		H-54.3z"/>
	<path class="st1" d="M-54.7,133.6c-0.1,0-0.2-0.1-0.2-0.2c0-0.1,0.1-0.2,0.2-0.2h2.9c0.1,0,0.2,0.1,0.2,0.2c0,0.1-0.1,0.2-0.2,0.2
		H-54.7z"/>
	<path class="st1" d="M-46.5,144h7.8c0.1,0,0.1,0,0.1,0h0c0.2,0,0.4,0.1,0.6,0.3c0.2,0.2,0.3,0.4,0.3,0.6c0,0,0,0.1,0,0.1l-1.2,9
		c0,0.3-0.2,0.5-0.4,0.7c-0.2,0.2-0.4,0.3-0.7,0.3h-5.2c-0.3,0-0.5-0.1-0.7-0.3c-0.2-0.2-0.3-0.4-0.3-0.7l-1.2-9l0-0.1
		c0-0.2,0.1-0.4,0.3-0.6c0.2-0.1,0.4-0.2,0.6-0.3C-46.6,144-46.5,144-46.5,144L-46.5,144z M-38.7,144.5h-7.8h-0.1
		c-0.1,0-0.3,0.1-0.4,0.2c-0.1,0.1-0.1,0.2-0.1,0.3l0,0.1l1.2,9c0,0.2,0.1,0.4,0.2,0.5c0.1,0.1,0.2,0.1,0.4,0.1h5.2
		c0.2,0,0.3-0.1,0.4-0.1c0.1-0.1,0.2-0.3,0.2-0.4l1.2-9v-0.1c0-0.1,0-0.2-0.1-0.3c-0.1-0.1-0.2-0.2-0.4-0.2H-38.7z"/>
	<path class="st1" d="M-44.3,132.6h3.4c0.2,0,0.4,0.1,0.6,0.2c0.2,0.1,0.2,0.4,0.3,0.6l0.6,10.8c0,0.1-0.1,0.2-0.2,0.2h-5.8
		c-0.1,0-0.2-0.1-0.2-0.2l0.6-10.8c0-0.2,0.1-0.4,0.2-0.6l0,0C-44.7,132.7-44.5,132.6-44.3,132.6L-44.3,132.6z M-40.9,133.1h-3.4
		c-0.1,0-0.2,0-0.3,0.1l0,0c-0.1,0.1-0.1,0.2-0.1,0.3l-0.6,10.6h5.4l-0.6-10.6c0-0.1-0.1-0.2-0.1-0.3
		C-40.7,133.1-40.8,133.1-40.9,133.1L-40.9,133.1z"/>
	<path class="st1" d="M-41.7,135.8c0-0.1,0.1-0.2,0.2-0.2c0.1,0,0.2,0.1,0.2,0.2l0.3,4.7c0,0.1-0.1,0.2-0.2,0.2
		c-0.1,0-0.2-0.1-0.2-0.2L-41.7,135.8z"/>
	<path class="st1" d="M-40.7,150.1c0,0.1,0.1,0.2,0.2,0.2c0.1,0,0.2-0.1,0.2-0.2v-4.5c0-0.1-0.1-0.2-0.2-0.2h-3.4
		c-0.1,0-0.2,0.1-0.2,0.2c0,0.1,0.1,0.2,0.2,0.2h3.2V150.1z"/>
</g>
<g>
	<g>
		<path class="st1" d="M-117.8,94.7l0.1,0.2c0.7,1.1,1.6,2.5,1.7,3.7c0,1.2-0.8,2.1-3.3,2.2c-0.2,0-0.3,0-0.5,0
			c-0.7-0.1-1.4-0.3-1.8-0.6c-0.5-0.4-0.8-0.8-0.8-1.4l0,0c0,0,0-0.1,0-0.1c0.1-1.5,1.1-1.7,2.1-1.9c0.9-0.2,2-0.4,2.2-2
			c0-0.1,0.1-0.2,0.2-0.2C-117.9,94.6-117.8,94.7-117.8,94.7L-117.8,94.7z M-116.4,98.7c0-1-0.8-2.3-1.5-3.3
			c-0.4,1.4-1.4,1.6-2.4,1.8c-0.9,0.2-1.7,0.4-1.8,1.5v0.1c0,0.4,0.3,0.7,0.7,1c0.4,0.3,1,0.5,1.6,0.6c0.2,0,0.3,0,0.4,0
			C-117,100.3-116.4,99.6-116.4,98.7L-116.4,98.7z"/>
		<path class="st1" d="M-102.8,78.2l-6-4.2l-0.1,0c-0.3-0.2-0.6-0.2-0.9-0.1c-0.3,0.1-0.6,0.3-0.8,0.5l-0.1,0.1l-6.9,12.3
			c0,0.1,0,0.2,0.1,0.3l5.4,3.8c0.1,0.1,0.2,0.1,0.3,0l9.2-10.7c0,0,0.1-0.1,0.1-0.1c0.2-0.3,0.3-0.6,0.2-0.9v0
			C-102.3,78.7-102.4,78.4-102.8,78.2L-102.8,78.2z M-108.9,74.3l6,4.2l0.1,0.1c0.2,0.1,0.3,0.3,0.3,0.6l0,0c0,0.2,0,0.5-0.2,0.7
			l-0.1,0.1l-9.1,10.6l-5.1-3.6l6.8-12.2l0-0.1c0.2-0.2,0.4-0.3,0.6-0.4C-109.4,74.1-109.2,74.2-108.9,74.3L-108.9,74.3z"/>
		<path class="st1" d="M-103.7,81.1c0.1,0.1,0.2,0,0.3,0c0.1-0.1,0-0.2-0.1-0.3l-7.5-5.2c-0.1-0.1-0.2,0-0.3,0.1
			c-0.1,0.1-0.1,0.2,0,0.3L-103.7,81.1z"/>
		<path class="st1" d="M-111.8,90.5l-5.4-3.8c-0.1-0.1-0.2,0-0.3,0l-1.1,2.1c-0.1,0.2-0.1,0.3-0.1,0.5c0,0.2,0.1,0.3,0.2,0.4l4.3,3
			c0.1,0.1,0.3,0.1,0.5,0.1c0.1,0,0.3-0.1,0.4-0.3l1.5-1.8C-111.7,90.7-111.7,90.6-111.8,90.5L-111.8,90.5z M-117.3,87.2l5.1,3.5
			l-1.4,1.6c-0.1,0.1-0.2,0.2-0.3,0.2c0,0-0.1,0-0.1,0l-4.3-3c0,0-0.1-0.1-0.1-0.1c0-0.1,0-0.2,0.1-0.3L-117.3,87.2z"/>
		<path class="st1" d="M-108.7,80.3c-0.6-0.4-1.3-0.6-2-0.4c-0.7,0.1-1.3,0.5-1.7,1.1c-0.4,0.6-0.6,1.3-0.4,2
			c0.1,0.7,0.5,1.3,1.1,1.7c0.6,0.4,1.3,0.6,2,0.4c0.7-0.1,1.3-0.5,1.7-1.1c0.4-0.6,0.6-1.3,0.4-2
			C-107.7,81.4-108.1,80.7-108.7,80.3L-108.7,80.3z M-110.6,80.2c0.6-0.1,1.2,0,1.7,0.4c0.5,0.4,0.8,0.9,0.9,1.5
			c0.1,0.6,0,1.2-0.4,1.7c-0.3,0.5-0.9,0.9-1.5,0.9c-0.6,0.1-1.2,0-1.7-0.4c-0.5-0.3-0.9-0.9-0.9-1.5c-0.1-0.6,0-1.2,0.4-1.7
			C-111.8,80.7-111.2,80.4-110.6,80.2L-110.6,80.2z"/>
		<path class="st1" d="M-102.9,78.3c0.1-0.1,0-0.2-0.1-0.3c-0.1-0.1-0.2-0.1-0.3,0l-0.9,1.3c-0.1,0.1,0,0.2,0,0.3
			c0.1,0.1,0.2,0,0.3-0.1L-102.9,78.3z"/>
		<path class="st1" d="M-104,77.5c0.1-0.1,0-0.2,0-0.3c-0.1-0.1-0.2,0-0.3,0.1l-0.9,1.3c-0.1,0.1,0,0.2,0,0.3c0.1,0.1,0.2,0.1,0.3,0
			L-104,77.5z"/>
		<path class="st1" d="M-105.2,76.7c0.1-0.1,0-0.2,0-0.3c-0.1-0.1-0.2,0-0.3,0l-0.9,1.3c-0.1,0.1,0,0.2,0.1,0.3
			c0.1,0.1,0.2,0,0.3-0.1L-105.2,76.7z"/>
		<path class="st1" d="M-106.3,76c0.1-0.1,0-0.2,0-0.3c-0.1-0.1-0.2,0-0.3,0.1l-0.9,1.3c-0.1,0.1,0,0.2,0.1,0.3
			c0.1,0.1,0.2,0.1,0.3,0L-106.3,76z"/>
		<path class="st1" d="M-107.4,75.2c0.1-0.1,0.1-0.2,0-0.3c-0.1-0.1-0.2,0-0.3,0l-0.9,1.3c-0.1,0.1,0,0.2,0.1,0.3
			c0.1,0.1,0.2,0,0.3,0L-107.4,75.2z"/>
		<path class="st1" d="M-108.5,74.4c0.1-0.1,0.1-0.2,0-0.3c-0.1-0.1-0.2,0-0.3,0.1l-0.9,1.3c-0.1,0.1,0,0.2,0.1,0.3
			c0.1,0,0.2,0,0.3-0.1L-108.5,74.4z"/>
		<path class="st1" d="M-118.1,90.1l-0.1,0.2c-0.2,0.3-0.3,0.6-0.3,0.8c0,0.3,0.1,0.5,0.3,0.7l1.8,1.3c0.2,0.2,0.5,0.2,0.8,0.1
			c0.3-0.1,0.5-0.3,0.7-0.5l0.1-0.2l-0.3-0.2l-0.1,0.2c-0.1,0.2-0.3,0.3-0.5,0.4c-0.2,0.1-0.3,0.1-0.4,0l-1.8-1.3
			c-0.1-0.1-0.2-0.2-0.2-0.4c0-0.2,0.1-0.4,0.2-0.6l0.1-0.2L-118.1,90.1z"/>
	</g>
</g>
<g>
	<path class="st1" d="M-107.6,116.9h3.9c0.6,0,1.2-0.1,1.7-0.1c0.5-0.1,1-0.1,1.5-0.1c1.1,0,1.9,0.3,1.9,1.5c0,0.1,0,0.2-0.1,0.2
		c-0.1,0.1-0.2,0.1-0.3,0.1h-4.1l0,0.6h4.1c0.1,0,0.2,0,0.3,0.1c0,0.1,0.1,0.1,0.1,0.2v1c0,0.1,0,0.2-0.1,0.2
		c-0.1,0.1-0.2,0.1-0.3,0.1h-4.2l-0.1,0.6h4.3c0.1,0,0.2,0.1,0.3,0.1c0,0.1,0.1,0.2,0.1,0.2v1c0,0.1,0,0.2-0.1,0.3
		c-0.1,0.1-0.2,0.1-0.3,0.1h-4.4l-0.1,0.5h4.5c0.1,0,0.2,0.1,0.3,0.1l0,0c0,0.1,0.1,0.2,0.1,0.3v1c0,0.1,0,0.2-0.1,0.3
		c-0.1,0.1-0.2,0.1-0.3,0.1h-4.6l-0.1,0.6h4.7c0.1,0,0.2,0,0.3,0.1c0,0.1,0.1,0.2,0.1,0.3v1c0,0.1,0,0.2-0.1,0.2
		c-0.1,0.1-0.2,0.1-0.3,0.1c-0.9,0-1.7-0.1-2.3-0.1l0,0c-1.2-0.1-1.9-0.1-2.3,0.3c0.4,0.4,1.1,0.4,2.3,0.3c0.6,0,1.4-0.1,2.3-0.1
		c0.1,0,0.2,0,0.3,0.1c0,0.1,0.1,0.1,0.1,0.2v1c0,0.1,0,0.2-0.1,0.2c-0.1,0.1-0.2,0.1-0.3,0.1h-4.7l0.1,0.6h4.6
		c0.1,0,0.2,0.1,0.3,0.1c0,0.1,0.1,0.2,0.1,0.2v1c0,0.1,0,0.2-0.1,0.3c-0.1,0.1-0.2,0.1-0.3,0.1h-4.5l0.1,0.6h4.4
		c0.1,0,0.2,0.1,0.3,0.1c0,0.1,0.1,0.2,0.1,0.3v1c0,0.1,0,0.2-0.1,0.3c-0.1,0.1-0.2,0.1-0.3,0.1h-4.3l0.1,0.6h4.2
		c0.1,0,0.2,0,0.3,0.1c0,0.1,0.1,0.2,0.1,0.3v1c0,0.1,0,0.2-0.1,0.2c-0.1,0.1-0.2,0.1-0.3,0.1h-4.1l0,0.6h4.1c0.1,0,0.2,0,0.3,0.1
		c0,0.1,0.1,0.1,0.1,0.2c0,1.3-0.8,1.5-1.9,1.5c-0.5,0-0.9,0-1.5-0.1c-0.5,0-1.1-0.1-1.7-0.1h-3.9c-0.2,0-0.4-0.1-0.5-0.2
		c-0.1-0.1-0.2-0.3-0.2-0.5v-20.7c0-0.2,0.1-0.4,0.2-0.5C-108,116.9-107.8,116.9-107.6,116.9L-107.6,116.9z M-104.5,117.3h-3.2
		c-0.1,0-0.2,0-0.2,0.1c-0.1,0.1-0.1,0.1-0.1,0.2v20.7c0,0.1,0,0.2,0.1,0.2c0.1,0,0.1,0.1,0.2,0.1h3.9c0.6,0,1.2,0.1,1.7,0.1
		c0.5,0.1,1,0.1,1.4,0.1c0.9,0,1.5-0.2,1.5-1.1h-4.2c-0.1,0-0.2-0.1-0.2-0.2V137l0-0.5c0-0.1,0.1-0.2,0.2-0.2h4.2v-0.9h-4.3
		c-0.1,0-0.2-0.1-0.2-0.2l-0.1-1c0-0.1,0.1-0.2,0.2-0.2h4.4v-1h-4.5c-0.1,0-0.2-0.1-0.2-0.2l-0.1-1c0-0.1,0.1-0.2,0.2-0.2h4.6v-0.9
		h-4.7c-0.1,0-0.2-0.1-0.2-0.2l-0.1-1c0-0.1,0.1-0.2,0.2-0.2h4.8v-0.9c-0.9,0-1.6,0.1-2.2,0.1c-1.5,0.1-2.2,0.2-2.7-0.6l0,0
		c0-0.1,0-0.1,0-0.2c0.5-0.8,1.3-0.7,2.7-0.6c0.6,0,1.3,0.1,2.2,0.1v-0.9h-4.9c-0.1,0-0.2-0.1-0.2-0.2l0.1-0.9
		c0-0.1,0.1-0.2,0.2-0.2h4.7v-1h-4.6c-0.1,0-0.2-0.1-0.2-0.2l0.1-1c0-0.1,0.1-0.2,0.2-0.2h4.5v-1h-4.4c-0.1,0-0.2-0.1-0.2-0.2l0.1-1
		c0-0.1,0.1-0.2,0.2-0.2h4.3v-0.9h-4.2c-0.1,0-0.2-0.1-0.2-0.2l0-0.5v-0.5c0-0.1,0.1-0.2,0.2-0.2h4.2c0-0.9-0.7-1.1-1.5-1.1
		c-0.5,0-0.9,0-1.4,0.1c-0.6,0.1-1.2,0.1-1.7,0.1H-104.5z"/>
</g>
<g>
	<path class="st1" d="M8.5,11.6l9.1-2.5V8.9c0-0.1,0-0.2-0.1-0.3l0,0c0-0.1,0-0.2-0.1-0.3l0,0c0-0.1-0.1-0.1-0.1-0.2
		c0-0.1-0.1-0.2-0.2-0.3c-0.1-0.1-0.3-0.3-0.4-0.4c-0.3-0.2-0.5-0.5-0.7-0.7c-0.2-0.2-0.3-0.4-0.4-0.6c-0.1-0.2-0.2-0.4-0.2-0.6
		c0-0.2-0.1-0.4-0.1-0.6c0-0.4,0.1-0.7,0.2-1C15.5,3.6,15.7,3.3,16,3c0.3-0.3,0.6-0.4,1-0.6c0.4-0.1,0.8-0.2,1.3-0.2
		c0.4,0,0.8,0.1,1.2,0.2c0.4,0.1,0.7,0.3,0.9,0.6c0.3,0.2,0.5,0.5,0.7,0.9c0.2,0.3,0.3,0.7,0.3,1.2c0,0.1-0.1,0.2-0.2,0.2l-1.2,0.1
		c-0.1,0-0.2-0.1-0.2-0.2v0c-0.1-0.3-0.1-0.5-0.2-0.7c-0.1-0.2-0.2-0.4-0.3-0.5c-0.1-0.1-0.3-0.2-0.5-0.3c-0.2-0.1-0.4-0.1-0.6-0.1
		c-0.2,0-0.4,0-0.6,0.1c-0.2,0.1-0.3,0.2-0.5,0.3c-0.1,0.1-0.3,0.3-0.3,0.5c-0.1,0.2-0.1,0.3-0.1,0.5c0,0.1,0,0.2,0,0.3
		c0,0.1,0.1,0.2,0.1,0.3c0.1,0.1,0.1,0.2,0.3,0.3c0.1,0.1,0.3,0.3,0.4,0.4c0.2,0.2,0.4,0.3,0.5,0.5c0.1,0.1,0.2,0.2,0.3,0.3
		c0.1,0.1,0.2,0.3,0.3,0.4c0.1,0.1,0.1,0.3,0.2,0.4C18.9,8.1,19,8.3,19,8.5c0,0.2,0.1,0.4,0.1,0.6l0,0l9,2.4c0.5,0.1,1,0.4,1.3,0.7
		l0,0c0.3,0.3,0.5,0.7,0.5,1.2c0,0.5-0.2,1-0.5,1.3c-0.3,0.3-0.8,0.5-1.3,0.5h-0.7c-0.1,0-0.2-0.1-0.2-0.2v-0.2
		c0-0.7-0.3-1.3-0.7-1.7c-0.4-0.4-1-0.7-1.7-0.7H11.9c-0.7,0-1.3,0.3-1.7,0.7l0,0c-0.4,0.4-0.7,1-0.7,1.7v0.2c0,0.1-0.1,0.2-0.2,0.2
		H8.6c-0.5,0-1-0.2-1.3-0.5c-0.3-0.3-0.5-0.8-0.5-1.3c0-0.5,0.2-0.9,0.5-1.2C7.5,11.9,8,11.7,8.5,11.6L8.5,11.6z M17.8,9.4L8.6,12
		c-0.5,0.1-0.9,0.3-1.2,0.6c-0.2,0.2-0.3,0.5-0.3,0.9c0,0.4,0.2,0.7,0.4,1c0.3,0.3,0.6,0.4,1,0.4h0.5c0-0.8,0.3-1.5,0.8-2l0,0
		c0.5-0.5,1.2-0.8,2-0.8h12.7c0.8,0,1.5,0.3,2,0.8c0.5,0.5,0.8,1.2,0.8,2H28c0.4,0,0.7-0.2,1-0.4c0.3-0.3,0.4-0.6,0.4-1
		c0-0.4-0.1-0.6-0.4-0.9l0,0c-0.3-0.3-0.7-0.5-1.1-0.6l-9.2-2.5c-0.1,0-0.1-0.1-0.1-0.2V9.2c0-0.2,0-0.4-0.1-0.6
		c0-0.2-0.1-0.3-0.1-0.5l0,0c-0.1-0.1-0.1-0.2-0.2-0.3c-0.1-0.1-0.2-0.2-0.2-0.3c-0.1-0.1-0.2-0.2-0.3-0.3c-0.1-0.1-0.3-0.3-0.5-0.4
		c-0.2-0.2-0.3-0.3-0.5-0.5c-0.1-0.1-0.2-0.3-0.3-0.4c-0.1-0.1-0.1-0.3-0.2-0.4c0-0.1,0-0.3,0-0.4c0-0.2,0-0.5,0.1-0.7
		c0.1-0.2,0.2-0.4,0.4-0.6c0.2-0.2,0.4-0.3,0.6-0.4c0.2-0.1,0.5-0.1,0.7-0.1c0.3,0,0.5,0,0.7,0.1c0.2,0.1,0.4,0.2,0.6,0.4
		c0.2,0.2,0.3,0.4,0.4,0.6c0.1,0.2,0.2,0.4,0.2,0.7L21,4.9c-0.1-0.3-0.2-0.6-0.3-0.9c-0.1-0.3-0.3-0.5-0.6-0.7
		c-0.2-0.2-0.5-0.4-0.8-0.5c-0.3-0.1-0.7-0.2-1.1-0.2c-0.4,0-0.8,0.1-1.1,0.2c-0.3,0.1-0.6,0.3-0.8,0.5c-0.3,0.2-0.4,0.5-0.6,0.7
		c-0.1,0.3-0.2,0.5-0.2,0.9c0,0.2,0,0.3,0.1,0.5c0,0.2,0.1,0.3,0.2,0.5c0.1,0.2,0.2,0.3,0.4,0.5c0.2,0.2,0.4,0.4,0.7,0.6
		c0.2,0.2,0.3,0.3,0.4,0.4c0.1,0.1,0.2,0.2,0.3,0.3c0,0.1,0.1,0.2,0.1,0.3h0c0,0.1,0.1,0.2,0.1,0.3v0c0,0.1,0,0.2,0.1,0.3
		c0,0.1,0,0.3,0,0.4C18,9.3,17.9,9.4,17.8,9.4L17.8,9.4z"/>
	<path class="st1" d="M11.9,12.1h12.7c0.8,0,1.5,0.3,2,0.8h0c0.5,0.5,0.8,1.2,0.8,2v10c0,0.8-0.3,1.5-0.8,2c-0.5,0.5-1.2,0.8-2,0.8
		H11.9c-0.8,0-1.5-0.3-2-0.8l0,0c-0.5-0.5-0.8-1.2-0.8-2v-10c0-0.8,0.3-1.5,0.8-2C10.4,12.4,11.1,12.1,11.9,12.1L11.9,12.1z
		 M24.7,12.5H11.9c-0.7,0-1.3,0.3-1.7,0.7c-0.4,0.4-0.7,1-0.7,1.7v10c0,0.6,0.3,1.3,0.7,1.7l0,0c0.4,0.4,1,0.7,1.7,0.7h12.7
		c0.7,0,1.3-0.3,1.7-0.7c0.4-0.4,0.7-1.1,0.7-1.7v-10c0-0.6-0.3-1.3-0.7-1.7v0C25.9,12.8,25.3,12.5,24.7,12.5L24.7,12.5z"/>
	<path class="st1" d="M9.3,20.9c-0.1,0-0.2-0.1-0.2-0.2c0-0.1,0.1-0.2,0.2-0.2h18c0.1,0,0.2,0.1,0.2,0.2c0,0.1-0.1,0.2-0.2,0.2H9.3z
		"/>
</g>
<g>
	<g>
		<path class="st1" d="M-56.5,71.9l11.2,5.6c0,0,0.1,0,0.1,0s0.1,0,0.1,0l11.2-5.6c0.1-0.1,0.2-0.2,0.2-0.3c0-0.1-0.1-0.2-0.2-0.3
			l-11.2-5.2c-0.1,0-0.2,0-0.3,0l-11.2,5.2c-0.1,0.1-0.2,0.2-0.2,0.3C-56.7,71.8-56.6,71.9-56.5,71.9z M-45.2,66.8l10.4,4.9
			l-10.4,5.3l-10.4-5.3L-45.2,66.8z"/>
		<path class="st1" d="M-33.9,74.9l-2.4-1.1c-0.2-0.1-0.3,0-0.4,0.2c-0.1,0.2,0,0.3,0.2,0.4l1.8,0.9l-10.4,5.3l-10.4-5.3l1.8-0.8
			c0.2-0.1,0.2-0.3,0.2-0.4c-0.1-0.2-0.3-0.2-0.4-0.2l-2.4,1.1c-0.1,0.1-0.2,0.2-0.2,0.3c0,0.1,0.1,0.2,0.2,0.3l11.2,5.6
			c0,0,0.1,0,0.1,0s0.1,0,0.1,0l11.2-5.6c0.1-0.1,0.2-0.2,0.2-0.3C-33.7,75.1-33.8,75-33.9,74.9z"/>
		<path class="st1" d="M-33.9,78.7l-2.4-1.1c-0.2-0.1-0.3,0-0.4,0.2c-0.1,0.2,0,0.3,0.2,0.4l1.8,0.9l-10.4,5.3L-55.6,79l1.8-0.8
			c0.2-0.1,0.2-0.3,0.2-0.4c-0.1-0.2-0.3-0.2-0.4-0.2l-2.4,1.1c-0.1,0.1-0.2,0.2-0.2,0.3c0,0.1,0.1,0.2,0.2,0.3l11.2,5.6
			c0,0,0.1,0,0.1,0s0.1,0,0.1,0l11.2-5.6c0.1-0.1,0.2-0.2,0.2-0.3C-33.7,78.8-33.8,78.7-33.9,78.7z"/>
	</g>
</g>
</svg>
